M48
;Layer_Color=9474304
;FILE_FORMAT=4:3
METRIC,TZ
;TYPE=PLATED
T1F00S00C0.200
T2F00S00C0.890
T3F00S00C1.050
T4F00S00C1.300
T5F00S00C1.400
T6F00S00C1.500
%
T01
X10000Y4463
X15000Y4463
X20000Y4463
X25000Y4463
X30000Y4463
X30375Y7763
X30375Y8763
X31375Y8763
X32375Y8763
X32375Y7763
X31375Y7763
X29950Y13263
X28950Y13263
X27950Y13263
X22500Y9463
X5600Y11138
X5000Y11113
X37500Y9463
X42500Y9463
X43150Y7513
X43250Y2963
X39600Y4063
X35000Y4463
X50000Y4463
X55000Y4463
X60000Y4463
X62271Y6567
X65000Y4463
X70000Y4463
X72500Y9463
X67500Y9463
X57500Y9463
X52500Y9463
X47500Y9463
X77500Y9463
X82500Y9463
X82200Y7488
X82200Y4813
X80000Y4463
X79950Y6163
X84550Y6163
X85000Y4463
X90000Y4463
X92500Y9463
X87500Y9463
X97500Y9463
X75000Y4463
X75000Y14463
X80000Y14463
X85000Y14463
X90000Y14463
X95000Y14463
X95672Y18860
X97500Y19463
X92828Y18860
X92212Y21400
X89238Y21400
X87500Y19463
X83650Y19038
X82500Y19463
X82375Y22713
X80000Y24463
X75000Y24463
X77500Y29463
X80000Y34463
X75000Y34463
X77500Y39463
X82375Y39613
X83625Y39088
X85024Y40114
X86050Y39438
X87057Y40081
X88001Y39911
X90725Y39063
X92925Y38313
X92250Y35638
X92200Y33163
X90000Y34463
X89020Y30553
X92500Y29463
X95700Y30563
X95725Y33088
X95000Y34463
X95650Y35638
X97500Y39463
X95000Y44463
X90000Y44463
X97500Y49463
X97500Y29463
X87100Y27563
X86100Y26513
X85024Y25012
X88075Y23963
X77500Y19463
X72500Y19463
X67500Y19463
X70000Y24463
X65000Y24463
X60000Y24463
X61669Y26438
X56025Y25538
X54975Y26379
X54975Y27711
X54150Y28338
X54400Y29688
X57213Y28910
X57550Y31838
X60000Y34463
X58323Y36661
X57698Y38166
X57169Y40143
X60000Y39613
X60100Y38488
X62625Y39188
X64975Y40513
X64975Y37838
X65000Y34463
X64684Y30765
X65889Y30149
X67500Y29463
X72500Y29463
X70000Y34463
X67225Y39188
X72500Y39463
X60850Y42938
X60075Y42163
X59284Y41463
X59175Y44513
X56400Y43813
X53075Y43763
X51884Y44504
X51235Y45211
X49973Y44837
X50609Y44048
X51455Y43227
X51050Y41763
X52025Y40752
X53625Y40752
X50825Y39605
X48725Y39463
X47635Y38848
X47412Y40576
X47412Y41226
X48062Y41226
X48062Y40576
X49131Y41041
X46112Y41226
X45462Y41226
X44812Y41876
X44162Y41876
X44162Y42526
X44162Y43176
X44812Y43176
X45462Y43176
X46112Y43176
X46762Y43176
X47412Y43176
X47412Y45126
X46762Y45126
X46762Y45776
X46112Y45776
X45462Y45776
X44812Y45776
X44812Y45126
X44162Y45126
X44162Y45776
X44162Y46426
X44162Y47076
X43512Y47076
X43512Y47726
X44162Y47726
X44812Y47726
X44812Y48376
X45462Y48376
X45462Y47076
X46112Y47076
X47087Y46795
X45462Y46426
X44812Y46426
X42862Y46426
X42862Y45776
X43512Y45776
X43512Y45126
X42862Y45126
X42862Y44476
X43512Y44476
X43512Y43826
X42862Y43826
X42862Y43176
X42862Y42526
X43512Y42526
X42862Y41876
X42212Y41876
X42212Y41226
X42212Y40576
X41562Y40576
X41562Y42526
X42212Y42526
X42212Y43176
X41562Y43176
X41562Y43826
X42212Y43826
X40912Y43826
X40912Y43176
X40262Y43176
X40912Y42526
X41562Y45126
X41562Y45776
X42212Y45776
X42212Y47076
X42212Y47726
X42212Y48376
X41562Y47726
X40912Y47726
X40912Y47076
X40262Y47076
X40262Y46426
X41562Y46426
X38856Y46747
X37675Y46888
X36000Y46663
X35375Y47638
X36725Y47888
X38938Y48531
X39612Y49026
X39608Y50021
X42400Y50872
X43175Y52138
X43200Y53813
X44425Y53813
X45957Y51591
X45605Y50698
X46600Y50763
X47559Y51563
X48450Y49438
X49953Y48142
X49950Y46488
X51350Y47713
X50977Y48954
X52375Y48638
X53530Y51189
X55304Y51180
X56225Y52504
X56025Y49229
X56425Y47688
X51025Y52163
X50065Y52146
X50350Y53331
X45178Y49839
X46112Y45126
X45462Y43826
X44812Y43826
X44812Y44476
X44162Y44476
X44162Y43826
X43512Y41226
X43400Y37888
X44420Y37626
X44643Y38795
X45603Y38966
X42500Y37188
X41850Y36263
X43369Y36088
X42819Y34688
X47150Y34188
X47950Y34188
X48700Y34963
X49563Y31838
X50150Y31838
X45144Y31838
X47500Y29463
X45000Y24463
X50000Y24463
X55000Y24463
X57500Y19463
X52500Y19463
X47500Y19463
X42500Y19463
X37500Y19463
X40000Y14463
X45000Y14463
X50000Y14463
X55000Y14463
X60000Y14463
X65000Y14463
X70000Y14463
X35000Y14463
X35000Y24463
X39275Y40263
X51925Y36101
X63175Y53701
X64371Y53739
X33375Y50588
X32818Y50031
X34600Y49338
X34450Y46888
X33268Y46438
X31218Y46354
X27500Y49463
X22500Y49463
X17500Y49463
X12500Y49463
X7500Y49463
X4325Y47288
X3150Y46513
X2300Y47988
X5248Y46223
X5000Y44463
X10000Y44463
X15000Y44463
X18475Y43600
X18475Y42800
X18175Y40863
X19750Y39638
X21662Y39461
X21675Y38800
X21675Y38000
X22475Y38000
X22475Y38800
X23275Y38800
X24075Y38800
X24075Y38000
X23276Y38001
X23275Y37200
X24075Y37200
X24875Y37200
X24875Y38000
X24875Y38800
X25985Y37237
X22475Y37200
X20875Y37200
X20075Y37200
X19275Y37200
X18481Y37200
X17534Y36400
X17746Y34787
X18575Y33538
X19304Y34203
X15000Y34463
X14770Y33838
X14775Y32338
X12475Y30963
X11475Y30963
X10475Y30963
X10475Y29963
X11475Y29963
X12475Y29963
X10625Y28406
X7700Y28363
X5125Y28713
X4950Y29913
X4300Y29463
X2225Y29463
X3275Y32113
X3275Y32788
X5000Y34463
X8132Y32443
X8150Y31188
X8825Y31516
X10000Y24463
X7600Y22663
X7016Y22676
X7016Y21638
X7550Y21638
X11475Y21188
X13350Y20938
X13350Y22501
X15525Y21760
X16550Y21688
X17625Y22563
X18750Y22063
X20250Y21563
X19750Y20563
X21075Y19088
X22266Y19486
X23525Y20113
X24150Y21188
X25225Y22488
X27164Y21752
X27500Y19463
X26800Y18713
X26800Y17753
X32500Y19463
X32500Y26213
X30250Y27538
X30250Y24863
X27900Y26213
X26825Y28513
X27500Y29463
X24475Y29838
X24475Y27163
X22225Y28513
X19475Y24513
X20080Y23462
X20725Y16263
X20000Y14463
X10950Y17899
X9350Y18510
X7600Y16888
X7016Y16914
X7016Y15936
X7650Y15913
X5125Y26663
X7500Y39463
X12500Y39463
X20875Y42800
X20875Y43600
X21675Y43600
X22475Y43600
X22475Y42800
X22475Y42000
X23275Y42000
X24075Y42000
X24075Y42800
X24075Y43600
X23275Y43600
X24875Y43600
X24875Y42800
X24875Y42000
X27328Y41321
X28300Y41437
X27266Y42923
X21675Y42000
X32333Y33663
X34450Y33213
X31750Y30113
X30000Y54463
X25000Y54463
X20000Y54463
X15000Y54463
X10000Y54463
X5000Y54463
X5000Y64463
X10000Y64463
X10350Y67038
X13275Y67163
X13250Y65763
X17500Y59463
X22500Y59463
X23325Y60163
X25675Y61488
X25675Y58813
X27925Y60163
X32971Y59992
X33225Y63263
X34350Y63338
X33773Y64286
X33402Y66625
X33402Y67725
X34502Y67725
X34502Y66625
X33494Y69738
X31675Y70063
X31261Y67968
X29328Y68035
X29300Y69038
X29025Y70063
X27831Y72244
X25875Y77488
X27500Y79463
X23525Y78813
X22500Y79463
X21275Y77488
X23525Y76138
X23825Y83088
X25000Y84463
X22075Y85213
X21375Y85198
X20000Y84463
X19525Y83088
X17500Y79463
X12500Y79463
X12597Y78016
X10300Y80338
X7500Y79463
X5349Y80338
X5000Y84463
X5349Y87538
X7500Y89463
X12500Y89463
X17500Y89463
X15000Y84463
X10000Y84463
X17326Y73138
X22500Y69463
X25000Y64463
X30000Y64463
X32500Y79463
X30000Y84463
X32500Y89463
X37500Y89463
X42500Y89463
X40000Y84463
X38300Y83338
X37850Y82263
X37847Y80766
X37250Y79588
X36925Y73588
X35753Y73340
X36527Y68639
X37176Y67232
X36571Y66487
X37760Y65768
X37078Y64063
X37626Y62438
X38125Y59238
X44275Y58438
X46750Y53995
X47934Y54272
X50475Y54972
X51575Y54988
X52400Y55835
X53875Y56338
X53107Y60441
X53107Y61711
X50567Y61711
X49297Y61711
X48027Y61711
X49297Y60441
X51837Y60441
X50000Y64463
X55000Y64463
X58831Y69123
X58900Y70213
X62500Y69463
X63700Y68938
X66050Y70263
X66050Y67588
X65000Y64463
X63775Y63189
X63175Y61713
X64375Y61713
X63775Y60245
X62500Y59463
X67500Y59463
X70000Y64463
X71100Y67888
X71100Y70563
X68850Y69238
X73450Y69238
X70000Y74463
X65000Y74463
X58900Y74888
X58191Y77813
X58191Y79281
X56585Y80563
X56585Y76713
X52500Y79463
X47500Y79463
X48100Y82388
X46350Y84463
X45550Y84463
X43757Y82394
X50000Y84463
X55000Y84463
X57178Y86063
X58768Y86654
X59750Y86638
X57500Y89463
X62500Y89463
X67500Y89463
X65000Y84463
X69611Y82578
X71350Y84963
X72150Y84963
X73919Y82591
X62500Y79463
X48575Y70189
X46517Y68338
X45025Y68338
X43975Y69088
X41690Y66178
X35000Y84463
X75000Y84463
X80000Y84463
X85000Y84463
X87377Y84215
X88075Y85788
X87525Y86688
X87325Y87838
X85825Y87613
X87500Y89463
X89175Y89613
X90647Y89013
X92500Y89463
X92325Y86047
X93700Y85413
X95000Y84463
X93025Y82888
X91425Y81773
X91275Y80523
X92500Y79463
X87500Y79463
X82500Y79463
X77500Y79463
X75000Y74463
X77500Y69463
X83400Y70738
X84550Y70738
X85483Y70430
X85000Y64463
X82500Y59463
X77500Y59463
X80000Y54463
X85000Y54463
X75000Y54463
X75000Y64463
X95000Y64463
X97500Y69463
X95000Y74463
X90000Y74463
X90325Y83488
X97500Y79463
X97500Y89463
X82500Y89463
X77500Y89463
X97500Y59463
X95000Y54463
X90000Y94463
X85000Y94463
X60000Y94463
X45000Y94463
X35000Y94463
X30000Y94463
X20000Y94463
X15000Y94463
X10000Y94463
T02
X17377Y63160
X17377Y65700
X17377Y68240
X17377Y70780
X19917Y69510
X19917Y66970
X19917Y64430
X19917Y61890
T03
X6967Y59705
X6967Y62245
X6967Y70425
X6977Y72965
T04
X24845Y88123
X23075Y90663
X23075Y93203
X26615Y93203
X26615Y90663
X47243Y90663
X47243Y93203
X50783Y93203
X50783Y90663
X49013Y88123
X73180Y88123
X71410Y90663
X71410Y93203
X74950Y93203
X74950Y90663
T05
X89925Y49813
X89925Y60100
X89925Y70388
T06
X87375Y47263
X87375Y52363
X92475Y52363
X92475Y47263
X92475Y57550
X92475Y62650
X87375Y62650
X87375Y57550
X87375Y67838
X87375Y72938
X92475Y72938
X92475Y67838
M30
