M48
;Layer_Color=9474304
;FILE_FORMAT=4:3
METRIC,TZ
;TYPE=NON_PLATED
T7F00S00C0.650
T8F00S00C0.991
T9F00S00C1.570
T10F00S00C2.350
T11F00S00C2.375
T12F00S00C2.600
T13F00S00C2.800
T14F00S00C3.250
%
T07
X5066Y16385
X5066Y22165
T08
X46757Y61076
X54377Y60061
X54377Y62091
T09
X14077Y58460
X14077Y74210
T10
X17345Y91933
X32345Y91933
X41513Y91933
X56513Y91933
X65680Y91933
X80680Y91933
T11
X46757Y58536
X46757Y63616
X52472Y63616
X52472Y58536
T12
X5000Y5000
X95000Y5000
X95000Y95000
X5000Y95000
T13
X80680Y95933
X65680Y95933
X56513Y95933
X41513Y95933
X32345Y95933
X17345Y95933
T14
X11027Y60620
X11027Y72045
M30
