G04*
G04 #@! TF.GenerationSoftware,Altium Limited,Altium Designer,23.0.1 (38)*
G04*
G04 Layer_Color=32896*
%FSLAX43Y43*%
%MOMM*%
G71*
G04*
G04 #@! TF.SameCoordinates,7396F043-7EEE-4AB4-9329-D6416C11A689*
G04*
G04*
G04 #@! TF.FilePolarity,Positive*
G04*
G01*
G75*
%ADD11C,0.200*%
%ADD13C,0.152*%
D11*
X82875Y47986D02*
Y48486D01*
X79625Y47986D02*
X82875D01*
X79625D02*
Y49836D01*
X82875D01*
Y48486D02*
Y49836D01*
X80725Y46455D02*
Y46955D01*
Y46455D02*
X82725D01*
Y47455D01*
X80725D02*
X82725D01*
X80725Y46955D02*
Y47455D01*
X80844Y45424D02*
X82694D01*
Y46424D01*
X80844D02*
X82694D01*
X80844Y45424D02*
Y46424D01*
D13*
X81978Y43575D02*
X82645D01*
Y43076D01*
X82311D01*
X82645D01*
Y42576D01*
X81645Y43575D02*
Y42576D01*
X81145D01*
X80978Y42742D01*
Y42909D01*
X81145Y43076D01*
X81645D01*
X81145D01*
X80978Y43242D01*
Y43409D01*
X81145Y43575D01*
X81645D01*
X79979D02*
X80645D01*
Y43076D01*
X80312Y43242D01*
X80145D01*
X79979Y43076D01*
Y42742D01*
X80145Y42576D01*
X80479D01*
X80645Y42742D01*
X82041Y44883D02*
X82208Y45050D01*
X82541D01*
X82708Y44883D01*
Y44217D01*
X82541Y44050D01*
X82208D01*
X82041Y44217D01*
X81708Y44883D02*
X81542Y45050D01*
X81208D01*
X81042Y44883D01*
Y44717D01*
X81208Y44550D01*
X81375D01*
X81208D01*
X81042Y44383D01*
Y44217D01*
X81208Y44050D01*
X81542D01*
X81708Y44217D01*
X80042Y45050D02*
X80375Y44883D01*
X80709Y44550D01*
Y44217D01*
X80542Y44050D01*
X80209D01*
X80042Y44217D01*
Y44383D01*
X80209Y44550D01*
X80709D01*
X82191Y51129D02*
X82358Y51296D01*
X82691D01*
X82858Y51129D01*
Y50463D01*
X82691Y50296D01*
X82358D01*
X82191Y50463D01*
X81858Y51129D02*
X81692Y51296D01*
X81358D01*
X81192Y51129D01*
Y50962D01*
X81358Y50796D01*
X81525D01*
X81358D01*
X81192Y50629D01*
Y50463D01*
X81358Y50296D01*
X81692D01*
X81858Y50463D01*
X80192Y51296D02*
X80859D01*
Y50796D01*
X80525Y50962D01*
X80359D01*
X80192Y50796D01*
Y50463D01*
X80359Y50296D01*
X80692D01*
X80859Y50463D01*
M02*
