G04*
G04 #@! TF.GenerationSoftware,Altium Limited,Altium Designer,23.0.1 (38)*
G04*
G04 Layer_Color=8421504*
%FSLAX43Y43*%
%MOMM*%
G71*
G04*
G04 #@! TF.SameCoordinates,7396F043-7EEE-4AB4-9329-D6416C11A689*
G04*
G04*
G04 #@! TF.FilePolarity,Positive*
G04*
G01*
G75*
%ADD15R,2.000X1.000*%
%ADD16R,2.000X0.650*%
%ADD17R,0.500X0.500*%
%ADD18R,0.950X1.400*%
%ADD19R,0.500X0.500*%
%ADD20R,1.450X2.700*%
%ADD21P,0.707X4X360.0*%
G04:AMPARAMS|DCode=22|XSize=2.7mm|YSize=1.45mm|CornerRadius=0mm|HoleSize=0mm|Usage=FLASHONLY|Rotation=45.000|XOffset=0mm|YOffset=0mm|HoleType=Round|Shape=Rectangle|*
%AMROTATEDRECTD22*
4,1,4,-0.442,-1.467,-1.467,-0.442,0.442,1.467,1.467,0.442,-0.442,-1.467,0.0*
%
%ADD22ROTATEDRECTD22*%

%ADD23P,0.707X4X270.0*%
%ADD24R,1.400X0.950*%
%ADD25R,2.700X1.450*%
G04:AMPARAMS|DCode=26|XSize=1mm|YSize=2mm|CornerRadius=0.25mm|HoleSize=0mm|Usage=FLASHONLY|Rotation=90.000|XOffset=0mm|YOffset=0mm|HoleType=Round|Shape=RoundedRectangle|*
%AMROUNDEDRECTD26*
21,1,1.000,1.500,0,0,90.0*
21,1,0.500,2.000,0,0,90.0*
1,1,0.500,0.750,0.250*
1,1,0.500,0.750,-0.250*
1,1,0.500,-0.750,-0.250*
1,1,0.500,-0.750,0.250*
%
%ADD26ROUNDEDRECTD26*%
%ADD27R,1.000X1.000*%
%ADD28R,1.050X2.200*%
%ADD29O,0.300X1.450*%
%ADD30R,1.400X1.200*%
%ADD31R,2.200X1.050*%
%ADD32R,1.000X1.000*%
G04:AMPARAMS|DCode=33|XSize=2.2mm|YSize=1.05mm|CornerRadius=0mm|HoleSize=0mm|Usage=FLASHONLY|Rotation=135.000|XOffset=0mm|YOffset=0mm|HoleType=Round|Shape=Rectangle|*
%AMROTATEDRECTD33*
4,1,4,1.149,-0.407,0.407,-1.149,-1.149,0.407,-0.407,1.149,1.149,-0.407,0.0*
%
%ADD33ROTATEDRECTD33*%

%ADD34P,1.414X4X360.0*%
%ADD35O,1.450X0.300*%
%ADD36P,1.414X4X270.0*%
G04:AMPARAMS|DCode=37|XSize=2.2mm|YSize=1.05mm|CornerRadius=0mm|HoleSize=0mm|Usage=FLASHONLY|Rotation=225.000|XOffset=0mm|YOffset=0mm|HoleType=Round|Shape=Rectangle|*
%AMROTATEDRECTD37*
4,1,4,0.407,1.149,1.149,0.407,-0.407,-1.149,-1.149,-0.407,0.407,1.149,0.0*
%
%ADD37ROTATEDRECTD37*%

G04:AMPARAMS|DCode=38|XSize=1mm|YSize=2.5mm|CornerRadius=0.25mm|HoleSize=0mm|Usage=FLASHONLY|Rotation=90.000|XOffset=0mm|YOffset=0mm|HoleType=Round|Shape=RoundedRectangle|*
%AMROUNDEDRECTD38*
21,1,1.000,2.000,0,0,90.0*
21,1,0.500,2.500,0,0,90.0*
1,1,0.500,1.000,0.250*
1,1,0.500,1.000,-0.250*
1,1,0.500,-1.000,-0.250*
1,1,0.500,-1.000,0.250*
%
%ADD38ROUNDEDRECTD38*%
%ADD39R,0.600X0.900*%
%ADD40R,0.900X0.900*%
%ADD41R,0.900X0.900*%
%ADD42R,0.900X0.600*%
D15*
X68166Y29047D02*
D03*
X64966Y26797D02*
D03*
X68166D02*
D03*
X64966Y29047D02*
D03*
X51575Y19600D02*
D03*
X48375Y17350D02*
D03*
X51575D02*
D03*
X48375Y19600D02*
D03*
X80450Y29150D02*
D03*
X83650Y26900D02*
D03*
X80450D02*
D03*
X83650Y29150D02*
D03*
D16*
X68166Y27922D02*
D03*
X64966D02*
D03*
X51575Y18475D02*
D03*
X48375D02*
D03*
X80450Y28025D02*
D03*
X83650D02*
D03*
D17*
X66075Y30600D02*
D03*
X66975D02*
D03*
X69175D02*
D03*
X68175D02*
D03*
X62200Y31350D02*
D03*
X61300D02*
D03*
X65000Y25250D02*
D03*
X64100D02*
D03*
X68200Y25225D02*
D03*
X67300D02*
D03*
X69375Y25225D02*
D03*
X70275D02*
D03*
X69375Y24000D02*
D03*
X70275D02*
D03*
X87200Y30450D02*
D03*
X86300D02*
D03*
X84825Y25350D02*
D03*
X85725D02*
D03*
X84825Y24150D02*
D03*
X85725D02*
D03*
X83650Y25375D02*
D03*
X82750D02*
D03*
X80450Y25350D02*
D03*
X79550D02*
D03*
X81400Y24125D02*
D03*
X80500D02*
D03*
X47050Y15750D02*
D03*
X46150D02*
D03*
X51575Y15825D02*
D03*
X50675D02*
D03*
X51300Y14350D02*
D03*
X50400D02*
D03*
X52725Y15825D02*
D03*
X53625D02*
D03*
X52725Y14625D02*
D03*
X53625D02*
D03*
X45304Y21875D02*
D03*
X44404D02*
D03*
X69475Y53225D02*
D03*
X70375D02*
D03*
X72238Y56455D02*
D03*
X73238D02*
D03*
X70225Y55400D02*
D03*
X71125D02*
D03*
X69250Y58217D02*
D03*
X68250D02*
D03*
X68350Y56950D02*
D03*
X69250D02*
D03*
X92900Y26725D02*
D03*
X93900D02*
D03*
X91635Y53775D02*
D03*
X92635D02*
D03*
X93819D02*
D03*
X94719D02*
D03*
X93825Y55125D02*
D03*
X94725D02*
D03*
X91750Y55125D02*
D03*
X92650D02*
D03*
X82224Y52930D02*
D03*
X83224D02*
D03*
X81024Y52930D02*
D03*
X80024D02*
D03*
X60400Y58403D02*
D03*
X59400D02*
D03*
X59500Y57201D02*
D03*
X60400D02*
D03*
X54150Y52925D02*
D03*
X53250D02*
D03*
X57750Y52975D02*
D03*
X56750D02*
D03*
X68900Y39725D02*
D03*
X68000D02*
D03*
X66850Y39725D02*
D03*
X65950D02*
D03*
X53450Y20800D02*
D03*
X54350D02*
D03*
X85750Y46600D02*
D03*
X84850D02*
D03*
X86875Y40700D02*
D03*
X85975D02*
D03*
X99975Y26550D02*
D03*
X98975D02*
D03*
D18*
X68825Y32250D02*
D03*
X66975D02*
D03*
X57700Y51325D02*
D03*
X55850D02*
D03*
X63625Y44350D02*
D03*
X65475D02*
D03*
D19*
X60100Y31350D02*
D03*
Y32350D02*
D03*
X85525Y28025D02*
D03*
Y29025D02*
D03*
X84900Y20475D02*
D03*
Y21375D02*
D03*
X48250Y14850D02*
D03*
Y15750D02*
D03*
X53400Y18575D02*
D03*
Y19575D02*
D03*
X43228Y21879D02*
D03*
Y22879D02*
D03*
X71600Y53225D02*
D03*
Y52225D02*
D03*
X92900Y29325D02*
D03*
Y28425D02*
D03*
X87300Y46600D02*
D03*
Y47600D02*
D03*
X84299Y50105D02*
D03*
Y51105D02*
D03*
X88088Y41700D02*
D03*
Y40700D02*
D03*
X66900Y44884D02*
D03*
Y45884D02*
D03*
D20*
X59475Y29075D02*
D03*
X62225Y29075D02*
D03*
X49300Y12075D02*
D03*
X52050D02*
D03*
X42575Y19625D02*
D03*
X45325D02*
D03*
D21*
X65620Y22652D02*
D03*
X64984Y23288D02*
D03*
X69633Y21856D02*
D03*
X68997Y22492D02*
D03*
X79082Y32571D02*
D03*
X78446Y33207D02*
D03*
X43800Y36575D02*
D03*
X44436Y35939D02*
D03*
X61525Y48022D02*
D03*
X62161Y47386D02*
D03*
X60128Y47730D02*
D03*
X59492Y48367D02*
D03*
D22*
X66787Y21520D02*
D03*
X68731Y19576D02*
D03*
X75705Y32695D02*
D03*
X77650Y30750D02*
D03*
D23*
X77615Y34038D02*
D03*
X78322Y34745D02*
D03*
D24*
X87200Y27150D02*
D03*
Y29000D02*
D03*
X55025Y17525D02*
D03*
Y19375D02*
D03*
X99504Y30217D02*
D03*
Y28367D02*
D03*
D25*
X82650Y22425D02*
D03*
Y19675D02*
D03*
D26*
X109602Y26190D02*
D03*
Y28730D02*
D03*
Y31270D02*
D03*
Y33810D02*
D03*
X113100D02*
D03*
Y31270D02*
D03*
Y28730D02*
D03*
Y26190D02*
D03*
Y71790D02*
D03*
Y74330D02*
D03*
Y66710D02*
D03*
Y69250D02*
D03*
X109602Y74330D02*
D03*
Y71790D02*
D03*
Y69250D02*
D03*
Y66710D02*
D03*
D27*
X91600Y51725D02*
D03*
X60400Y62425D02*
D03*
X92900Y24050D02*
D03*
X69250Y62250D02*
D03*
X45400Y14325D02*
D03*
X38349Y13613D02*
D03*
D28*
X93000Y50225D02*
D03*
X90200D02*
D03*
X61800Y60925D02*
D03*
X59000D02*
D03*
X91500Y22550D02*
D03*
X94300D02*
D03*
X67850Y60750D02*
D03*
X70650D02*
D03*
X44000Y12825D02*
D03*
X46800D02*
D03*
X36949Y15113D02*
D03*
X39749D02*
D03*
D29*
X80875Y46605D02*
D03*
X81375D02*
D03*
X81875D02*
D03*
X82375D02*
D03*
X82875D02*
D03*
X80875Y51005D02*
D03*
X81375D02*
D03*
X81875D02*
D03*
X82375D02*
D03*
X82875D02*
D03*
D30*
X83274Y56055D02*
D03*
X81074D02*
D03*
Y54455D02*
D03*
X83274D02*
D03*
D31*
X92700Y39300D02*
D03*
Y42100D02*
D03*
X85300Y61800D02*
D03*
Y59000D02*
D03*
X75150Y62150D02*
D03*
Y59350D02*
D03*
X77575Y23875D02*
D03*
Y21075D02*
D03*
X61225Y25025D02*
D03*
Y22225D02*
D03*
X55700Y30500D02*
D03*
Y27700D02*
D03*
D32*
X91200Y40700D02*
D03*
X86800Y60400D02*
D03*
X76650Y60750D02*
D03*
X79075Y22475D02*
D03*
X62725Y23625D02*
D03*
X57200Y29100D02*
D03*
D33*
X72223Y34197D02*
D03*
X74203Y36177D02*
D03*
D34*
X72152Y36248D02*
D03*
D35*
X57525Y54400D02*
D03*
Y54900D02*
D03*
Y55400D02*
D03*
Y55900D02*
D03*
Y56400D02*
D03*
X53125Y54400D02*
D03*
Y54900D02*
D03*
Y55400D02*
D03*
Y55900D02*
D03*
Y56400D02*
D03*
D36*
X54213Y43088D02*
D03*
X60113Y45338D02*
D03*
D37*
X54143Y41038D02*
D03*
X52163Y43018D02*
D03*
X60042Y43287D02*
D03*
X58062Y45267D02*
D03*
D38*
X38349Y26474D02*
D03*
Y23934D02*
D03*
Y21394D02*
D03*
Y18854D02*
D03*
X34651Y26474D02*
D03*
Y23934D02*
D03*
Y21394D02*
D03*
Y18854D02*
D03*
X38349Y38159D02*
D03*
Y35619D02*
D03*
Y33079D02*
D03*
Y30539D02*
D03*
X34651Y38159D02*
D03*
Y35619D02*
D03*
Y33079D02*
D03*
Y30539D02*
D03*
D39*
X64925Y46191D02*
D03*
X63725D02*
D03*
D40*
X99150Y25125D02*
D03*
X100550D02*
D03*
D41*
X68300Y45884D02*
D03*
Y44484D02*
D03*
D42*
X97691Y29017D02*
D03*
Y30217D02*
D03*
M02*
