G04*
G04 #@! TF.GenerationSoftware,Altium Limited,Altium Designer,23.0.1 (38)*
G04*
G04 Layer_Physical_Order=4*
G04 Layer_Color=16711680*
%FSLAX43Y43*%
%MOMM*%
G71*
G04*
G04 #@! TF.SameCoordinates,7396F043-7EEE-4AB4-9329-D6416C11A689*
G04*
G04*
G04 #@! TF.FilePolarity,Positive*
G04*
G01*
G75*
%ADD12C,0.254*%
%ADD17R,0.500X0.500*%
%ADD18R,0.950X1.400*%
%ADD73C,2.500*%
%ADD80C,0.750*%
%ADD81C,0.500*%
%ADD83C,2.400*%
%ADD84C,0.450*%
G36*
X114250Y79586D02*
X114308D01*
X114423Y79563D01*
X114530Y79519D01*
X114627Y79454D01*
X114710Y79371D01*
X114775Y79274D01*
X114819Y79167D01*
X114842Y79052D01*
X114842Y78994D01*
Y78020D01*
X114844Y78010D01*
X114843Y78000D01*
X114847Y77902D01*
X114855Y77873D01*
Y77842D01*
X114893Y77650D01*
X114908Y77613D01*
X114916Y77574D01*
X114991Y77393D01*
X115014Y77359D01*
X115029Y77322D01*
X115138Y77159D01*
X115166Y77131D01*
X115189Y77097D01*
X115327Y76959D01*
X115361Y76936D01*
X115389Y76908D01*
X115552Y76799D01*
X115589Y76784D01*
X115623Y76761D01*
X115804Y76686D01*
X115843Y76678D01*
X115880Y76663D01*
X116072Y76625D01*
X116103D01*
X116132Y76617D01*
X116230Y76613D01*
X116240Y76614D01*
X116250Y76612D01*
X118759Y76612D01*
X118874Y76589D01*
X118981Y76545D01*
X119078Y76480D01*
X119161Y76397D01*
X119226Y76300D01*
X119270Y76193D01*
X119293Y76078D01*
X119293Y76020D01*
X119293Y65020D01*
Y64962D01*
X119270Y64847D01*
X119226Y64740D01*
X119161Y64643D01*
X119078Y64560D01*
X118981Y64495D01*
X118874Y64451D01*
X118759Y64428D01*
X118701Y64428D01*
X116250D01*
X116240Y64426D01*
X116230Y64427D01*
X116132Y64423D01*
X116103Y64415D01*
X116072D01*
X115880Y64377D01*
X115843Y64362D01*
X115804Y64354D01*
X115623Y64279D01*
X115589Y64256D01*
X115552Y64241D01*
X115389Y64132D01*
X115361Y64104D01*
X115327Y64081D01*
X115189Y63943D01*
X115166Y63909D01*
X115138Y63881D01*
X115029Y63718D01*
X115014Y63681D01*
X114991Y63647D01*
X114916Y63466D01*
X114908Y63427D01*
X114893Y63390D01*
X114855Y63198D01*
Y63167D01*
X114847Y63138D01*
X114843Y63040D01*
X114844Y63030D01*
X114842Y63020D01*
Y37500D01*
X114844Y37490D01*
X114843Y37480D01*
X114847Y37382D01*
X114855Y37353D01*
Y37322D01*
X114893Y37130D01*
X114908Y37093D01*
X114916Y37054D01*
X114991Y36873D01*
X115014Y36839D01*
X115029Y36802D01*
X115138Y36639D01*
X115166Y36611D01*
X115189Y36577D01*
X115327Y36439D01*
X115361Y36416D01*
X115389Y36388D01*
X115552Y36279D01*
X115589Y36264D01*
X115623Y36241D01*
X115804Y36166D01*
X115843Y36158D01*
X115880Y36143D01*
X116072Y36105D01*
X116103D01*
X116132Y36097D01*
X116230Y36093D01*
X116240Y36094D01*
X116250Y36092D01*
X118759Y36092D01*
X118874Y36069D01*
X118981Y36025D01*
X119078Y35960D01*
X119161Y35877D01*
X119226Y35780D01*
X119270Y35673D01*
X119293Y35558D01*
X119293Y35500D01*
X119293Y24500D01*
Y24442D01*
X119270Y24327D01*
X119226Y24220D01*
X119161Y24123D01*
X119078Y24040D01*
X118981Y23975D01*
X118874Y23931D01*
X118759Y23908D01*
X118701Y23908D01*
X116250D01*
X116240Y23906D01*
X116230Y23907D01*
X116132Y23903D01*
X116103Y23895D01*
X116072D01*
X115880Y23857D01*
X115843Y23842D01*
X115804Y23834D01*
X115623Y23759D01*
X115589Y23736D01*
X115552Y23721D01*
X115389Y23612D01*
X115361Y23584D01*
X115327Y23561D01*
X115189Y23423D01*
X115166Y23389D01*
X115138Y23361D01*
X115029Y23198D01*
X115014Y23161D01*
X114991Y23127D01*
X114916Y22946D01*
X114908Y22907D01*
X114893Y22870D01*
X114855Y22678D01*
Y22647D01*
X114847Y22618D01*
X114843Y22520D01*
X114844Y22510D01*
X114842Y22500D01*
X114842Y994D01*
Y936D01*
X114819Y821D01*
X114775Y713D01*
X114710Y616D01*
X114627Y534D01*
X114530Y469D01*
X114423Y425D01*
X114308Y402D01*
X114250Y402D01*
X29250Y402D01*
X29192Y402D01*
X29077Y425D01*
X28969Y469D01*
X28873Y534D01*
X28790Y616D01*
X28725Y713D01*
X28681Y821D01*
X28658Y936D01*
Y994D01*
Y43015D01*
X28658Y43074D01*
X28681Y43188D01*
X28725Y43296D01*
X28790Y43393D01*
X28873Y43475D01*
X28969Y43540D01*
X29077Y43585D01*
X29192Y43608D01*
X29250Y43608D01*
X34250D01*
X34260Y43610D01*
X34270Y43608D01*
X34368Y43613D01*
X34397Y43620D01*
X34428D01*
X34620Y43659D01*
X34657Y43674D01*
X34696Y43682D01*
X34877Y43757D01*
X34911Y43779D01*
X34948Y43794D01*
X35111Y43903D01*
X35139Y43932D01*
X35173Y43954D01*
X35311Y44093D01*
X35334Y44126D01*
X35362Y44154D01*
X35471Y44317D01*
X35486Y44355D01*
X35509Y44388D01*
X35584Y44569D01*
X35592Y44609D01*
X35607Y44646D01*
X35645Y44838D01*
Y44868D01*
X35653Y44897D01*
X35657Y44995D01*
X35656Y45006D01*
X35658Y45015D01*
X35658Y78994D01*
Y79052D01*
X35681Y79167D01*
X35725Y79274D01*
X35790Y79371D01*
X35873Y79454D01*
X35970Y79519D01*
X36077Y79563D01*
X36192Y79586D01*
X36250Y79586D01*
X114250Y79586D01*
D02*
G37*
%LPC*%
G36*
X41270Y78229D02*
X41080D01*
X40904Y78156D01*
X40769Y78021D01*
X40696Y77845D01*
Y77655D01*
X40769Y77479D01*
X40904Y77344D01*
X41080Y77271D01*
X41270D01*
X41446Y77344D01*
X41581Y77479D01*
X41654Y77655D01*
Y77845D01*
X41581Y78021D01*
X41446Y78156D01*
X41270Y78229D01*
D02*
G37*
G36*
X72553Y72459D02*
Y71225D01*
X73787D01*
X73749Y71414D01*
X73636Y71687D01*
X73471Y71934D01*
X73262Y72143D01*
X73015Y72308D01*
X72742Y72421D01*
X72553Y72459D01*
D02*
G37*
G36*
X58067D02*
Y71225D01*
X59300D01*
X59263Y71414D01*
X59149Y71687D01*
X58985Y71934D01*
X58775Y72143D01*
X58529Y72308D01*
X58255Y72421D01*
X58067Y72459D01*
D02*
G37*
G36*
X63167Y72459D02*
Y71225D01*
X64400D01*
X64363Y71414D01*
X64249Y71687D01*
X64085Y71934D01*
X63875Y72143D01*
X63629Y72308D01*
X63355Y72421D01*
X63167Y72459D01*
D02*
G37*
G36*
X67453D02*
Y71225D01*
X68687D01*
X68649Y71414D01*
X68536Y71687D01*
X68371Y71934D01*
X68162Y72143D01*
X67915Y72308D01*
X67642Y72421D01*
X67453Y72459D01*
D02*
G37*
G36*
X62667Y72459D02*
X62478Y72421D01*
X62204Y72308D01*
X61958Y72143D01*
X61748Y71934D01*
X61584Y71687D01*
X61470Y71414D01*
X61433Y71225D01*
X62667D01*
Y72459D01*
D02*
G37*
G36*
X66953D02*
X66764Y72421D01*
X66491Y72308D01*
X66244Y72143D01*
X66035Y71934D01*
X65870Y71687D01*
X65757Y71414D01*
X65719Y71225D01*
X66953D01*
Y72459D01*
D02*
G37*
G36*
X72053Y72459D02*
X71864Y72421D01*
X71591Y72308D01*
X71344Y72143D01*
X71135Y71934D01*
X70970Y71687D01*
X70857Y71414D01*
X70819Y71225D01*
X72053D01*
Y72459D01*
D02*
G37*
G36*
X57567D02*
X57378Y72421D01*
X57104Y72308D01*
X56858Y72143D01*
X56648Y71934D01*
X56484Y71687D01*
X56370Y71414D01*
X56333Y71225D01*
X57567D01*
Y72459D01*
D02*
G37*
G36*
X91326Y72459D02*
Y71225D01*
X92559D01*
X92522Y71414D01*
X92408Y71687D01*
X92244Y71934D01*
X92034Y72143D01*
X91788Y72308D01*
X91514Y72421D01*
X91326Y72459D01*
D02*
G37*
G36*
X90826D02*
X90637Y72421D01*
X90363Y72308D01*
X90117Y72143D01*
X89907Y71934D01*
X89743Y71687D01*
X89629Y71414D01*
X89592Y71225D01*
X90826D01*
Y72459D01*
D02*
G37*
G36*
X86226D02*
Y71225D01*
X87459D01*
X87422Y71414D01*
X87308Y71687D01*
X87144Y71934D01*
X86934Y72143D01*
X86688Y72308D01*
X86414Y72421D01*
X86226Y72459D01*
D02*
G37*
G36*
X85726D02*
X85537Y72421D01*
X85263Y72308D01*
X85017Y72143D01*
X84807Y71934D01*
X84643Y71687D01*
X84529Y71414D01*
X84492Y71225D01*
X85726D01*
Y72459D01*
D02*
G37*
G36*
X81939D02*
Y71225D01*
X83173D01*
X83135Y71414D01*
X83022Y71687D01*
X82857Y71934D01*
X82648Y72143D01*
X82402Y72308D01*
X82128Y72421D01*
X81939Y72459D01*
D02*
G37*
G36*
X81439D02*
X81251Y72421D01*
X80977Y72308D01*
X80730Y72143D01*
X80521Y71934D01*
X80356Y71687D01*
X80243Y71414D01*
X80205Y71225D01*
X81439D01*
Y72459D01*
D02*
G37*
G36*
X76839D02*
Y71225D01*
X78073D01*
X78035Y71414D01*
X77922Y71687D01*
X77757Y71934D01*
X77548Y72143D01*
X77302Y72308D01*
X77028Y72421D01*
X76839Y72459D01*
D02*
G37*
G36*
X76339D02*
X76151Y72421D01*
X75877Y72308D01*
X75630Y72143D01*
X75421Y71934D01*
X75256Y71687D01*
X75143Y71414D01*
X75105Y71225D01*
X76339D01*
Y72459D01*
D02*
G37*
G36*
X113195Y71029D02*
X113005D01*
X112829Y70956D01*
X112732Y70859D01*
X112722Y70856D01*
X112689Y70849D01*
X112684Y70845D01*
X112677Y70843D01*
X112651Y70823D01*
X112624Y70804D01*
X112620Y70798D01*
X112614Y70794D01*
X112614Y70794D01*
X111523D01*
X111517Y70803D01*
X111509Y70809D01*
X111502Y70817D01*
X111476Y70832D01*
X111452Y70849D01*
X111442Y70851D01*
X111433Y70856D01*
X111403Y70859D01*
X111397Y70861D01*
X111332Y70926D01*
X111156Y70999D01*
X110965D01*
X110789Y70926D01*
X110655Y70791D01*
X110582Y70615D01*
Y70425D01*
X110655Y70249D01*
X110789Y70114D01*
X110965Y70041D01*
X111156D01*
X111332Y70114D01*
X111429Y70211D01*
X111439Y70214D01*
X111471Y70221D01*
X111477Y70225D01*
X111484Y70227D01*
X111510Y70247D01*
X111537Y70266D01*
X111541Y70272D01*
X111546Y70276D01*
X111546Y70276D01*
X112637D01*
X112643Y70267D01*
X112652Y70261D01*
X112658Y70253D01*
X112684Y70238D01*
X112708Y70221D01*
X112719Y70219D01*
X112728Y70214D01*
X112757Y70211D01*
X112763Y70209D01*
X112829Y70144D01*
X113005Y70071D01*
X113195D01*
X113371Y70144D01*
X113506Y70279D01*
X113579Y70455D01*
Y70645D01*
X113506Y70821D01*
X113371Y70956D01*
X113195Y71029D01*
D02*
G37*
G36*
X101285Y72970D02*
X100965D01*
X100652Y72908D01*
X100358Y72786D01*
X100092Y72608D01*
X99867Y72383D01*
X99689Y72117D01*
X99567Y71823D01*
X99505Y71510D01*
Y71190D01*
X99567Y70877D01*
X99689Y70583D01*
X99867Y70317D01*
X100092Y70092D01*
X100358Y69914D01*
X100652Y69792D01*
X100965Y69730D01*
X101285D01*
X101598Y69792D01*
X101892Y69914D01*
X102158Y70092D01*
X102383Y70317D01*
X102561Y70583D01*
X102683Y70877D01*
X102745Y71190D01*
Y71510D01*
X102683Y71823D01*
X102561Y72117D01*
X102383Y72383D01*
X102158Y72608D01*
X101892Y72786D01*
X101598Y72908D01*
X101285Y72970D01*
D02*
G37*
G36*
X47485D02*
X47165D01*
X46852Y72908D01*
X46558Y72786D01*
X46292Y72608D01*
X46067Y72383D01*
X45889Y72117D01*
X45767Y71823D01*
X45705Y71510D01*
Y71190D01*
X45767Y70877D01*
X45889Y70583D01*
X46067Y70317D01*
X46292Y70092D01*
X46558Y69914D01*
X46852Y69792D01*
X47165Y69730D01*
X47485D01*
X47798Y69792D01*
X48092Y69914D01*
X48358Y70092D01*
X48583Y70317D01*
X48761Y70583D01*
X48883Y70877D01*
X48945Y71190D01*
Y71510D01*
X48883Y71823D01*
X48761Y72117D01*
X48583Y72383D01*
X48358Y72608D01*
X48092Y72786D01*
X47798Y72908D01*
X47485Y72970D01*
D02*
G37*
G36*
X73787Y70725D02*
X72553D01*
Y69491D01*
X72742Y69529D01*
X73015Y69642D01*
X73262Y69807D01*
X73471Y70016D01*
X73636Y70263D01*
X73749Y70536D01*
X73787Y70725D01*
D02*
G37*
G36*
X59300D02*
X58067D01*
Y69491D01*
X58255Y69529D01*
X58529Y69642D01*
X58775Y69807D01*
X58985Y70016D01*
X59149Y70263D01*
X59263Y70536D01*
X59300Y70725D01*
D02*
G37*
G36*
X66953D02*
X65719D01*
X65757Y70536D01*
X65870Y70263D01*
X66035Y70016D01*
X66244Y69807D01*
X66491Y69642D01*
X66764Y69529D01*
X66953Y69491D01*
Y70725D01*
D02*
G37*
G36*
X62667D02*
X61433D01*
X61470Y70536D01*
X61584Y70263D01*
X61748Y70016D01*
X61958Y69807D01*
X62204Y69642D01*
X62478Y69529D01*
X62667Y69491D01*
Y70725D01*
D02*
G37*
G36*
X68687D02*
X67453D01*
Y69491D01*
X67642Y69529D01*
X67915Y69642D01*
X68162Y69807D01*
X68371Y70016D01*
X68536Y70263D01*
X68649Y70536D01*
X68687Y70725D01*
D02*
G37*
G36*
X64400D02*
X63167D01*
Y69491D01*
X63355Y69529D01*
X63629Y69642D01*
X63875Y69807D01*
X64085Y70016D01*
X64249Y70263D01*
X64363Y70536D01*
X64400Y70725D01*
D02*
G37*
G36*
X72053D02*
X70819D01*
X70857Y70536D01*
X70970Y70263D01*
X71135Y70016D01*
X71344Y69807D01*
X71591Y69642D01*
X71864Y69529D01*
X72053Y69491D01*
Y70725D01*
D02*
G37*
G36*
X57567D02*
X56333D01*
X56370Y70536D01*
X56484Y70263D01*
X56648Y70016D01*
X56858Y69807D01*
X57104Y69642D01*
X57378Y69529D01*
X57567Y69491D01*
Y70725D01*
D02*
G37*
G36*
X92559Y70725D02*
X91326D01*
Y69491D01*
X91514Y69529D01*
X91788Y69642D01*
X92034Y69807D01*
X92244Y70016D01*
X92408Y70263D01*
X92522Y70536D01*
X92559Y70725D01*
D02*
G37*
G36*
X90826D02*
X89592D01*
X89629Y70536D01*
X89743Y70263D01*
X89907Y70016D01*
X90117Y69807D01*
X90363Y69642D01*
X90637Y69529D01*
X90826Y69491D01*
Y70725D01*
D02*
G37*
G36*
X87459D02*
X86226D01*
Y69491D01*
X86414Y69529D01*
X86688Y69642D01*
X86934Y69807D01*
X87144Y70016D01*
X87308Y70263D01*
X87422Y70536D01*
X87459Y70725D01*
D02*
G37*
G36*
X85726D02*
X84492D01*
X84529Y70536D01*
X84643Y70263D01*
X84807Y70016D01*
X85017Y69807D01*
X85263Y69642D01*
X85537Y69529D01*
X85726Y69491D01*
Y70725D01*
D02*
G37*
G36*
X83173D02*
X81939D01*
Y69491D01*
X82128Y69529D01*
X82402Y69642D01*
X82648Y69807D01*
X82857Y70016D01*
X83022Y70263D01*
X83135Y70536D01*
X83173Y70725D01*
D02*
G37*
G36*
X81439D02*
X80205D01*
X80243Y70536D01*
X80356Y70263D01*
X80521Y70016D01*
X80730Y69807D01*
X80977Y69642D01*
X81251Y69529D01*
X81439Y69491D01*
Y70725D01*
D02*
G37*
G36*
X78073D02*
X76839D01*
Y69491D01*
X77028Y69529D01*
X77302Y69642D01*
X77548Y69807D01*
X77757Y70016D01*
X77922Y70263D01*
X78035Y70536D01*
X78073Y70725D01*
D02*
G37*
G36*
X76339D02*
X75105D01*
X75143Y70536D01*
X75256Y70263D01*
X75421Y70016D01*
X75630Y69807D01*
X75877Y69642D01*
X76151Y69529D01*
X76339Y69491D01*
Y70725D01*
D02*
G37*
G36*
X69921Y70133D02*
X69585D01*
X69255Y70067D01*
X68944Y69939D01*
X68664Y69752D01*
X68426Y69514D01*
X68239Y69234D01*
X68111Y68923D01*
X68045Y68593D01*
Y68257D01*
X68111Y67927D01*
X68239Y67616D01*
X68426Y67336D01*
X68664Y67098D01*
X68944Y66911D01*
X69255Y66783D01*
X69585Y66717D01*
X69921D01*
X70251Y66783D01*
X70562Y66911D01*
X70842Y67098D01*
X71080Y67336D01*
X71267Y67616D01*
X71395Y67927D01*
X71461Y68257D01*
Y68593D01*
X71395Y68923D01*
X71267Y69234D01*
X71080Y69514D01*
X70842Y69752D01*
X70562Y69939D01*
X70251Y70067D01*
X69921Y70133D01*
D02*
G37*
G36*
X60535D02*
X60198D01*
X59868Y70067D01*
X59558Y69939D01*
X59278Y69752D01*
X59040Y69514D01*
X58853Y69234D01*
X58724Y68923D01*
X58659Y68593D01*
Y68257D01*
X58724Y67927D01*
X58853Y67616D01*
X59040Y67336D01*
X59278Y67098D01*
X59558Y66911D01*
X59868Y66783D01*
X60198Y66717D01*
X60535D01*
X60865Y66783D01*
X61176Y66911D01*
X61455Y67098D01*
X61693Y67336D01*
X61880Y67616D01*
X62009Y67927D01*
X62075Y68257D01*
Y68593D01*
X62009Y68923D01*
X61880Y69234D01*
X61693Y69514D01*
X61455Y69752D01*
X61176Y69939D01*
X60865Y70067D01*
X60535Y70133D01*
D02*
G37*
G36*
X88694Y70133D02*
X88357D01*
X88027Y70067D01*
X87716Y69939D01*
X87437Y69752D01*
X87199Y69514D01*
X87012Y69234D01*
X86883Y68923D01*
X86818Y68593D01*
Y68257D01*
X86883Y67927D01*
X87012Y67616D01*
X87199Y67336D01*
X87437Y67098D01*
X87716Y66911D01*
X88027Y66783D01*
X88357Y66717D01*
X88694D01*
X89024Y66783D01*
X89335Y66911D01*
X89614Y67098D01*
X89852Y67336D01*
X90039Y67616D01*
X90168Y67927D01*
X90234Y68257D01*
Y68593D01*
X90168Y68923D01*
X90039Y69234D01*
X89852Y69514D01*
X89614Y69752D01*
X89335Y69939D01*
X89024Y70067D01*
X88694Y70133D01*
D02*
G37*
G36*
X79307D02*
X78971D01*
X78641Y70067D01*
X78330Y69939D01*
X78050Y69752D01*
X77813Y69514D01*
X77626Y69234D01*
X77497Y68923D01*
X77431Y68593D01*
Y68257D01*
X77497Y67927D01*
X77626Y67616D01*
X77813Y67336D01*
X78050Y67098D01*
X78330Y66911D01*
X78641Y66783D01*
X78971Y66717D01*
X79307D01*
X79637Y66783D01*
X79948Y66911D01*
X80228Y67098D01*
X80466Y67336D01*
X80653Y67616D01*
X80782Y67927D01*
X80847Y68257D01*
Y68593D01*
X80782Y68923D01*
X80653Y69234D01*
X80466Y69514D01*
X80228Y69752D01*
X79948Y69939D01*
X79637Y70067D01*
X79307Y70133D01*
D02*
G37*
G36*
X91326Y67359D02*
Y66125D01*
X92559D01*
X92522Y66314D01*
X92408Y66587D01*
X92244Y66834D01*
X92034Y67043D01*
X91788Y67208D01*
X91514Y67321D01*
X91326Y67359D01*
D02*
G37*
G36*
X90826D02*
X90637Y67321D01*
X90363Y67208D01*
X90117Y67043D01*
X89907Y66834D01*
X89743Y66587D01*
X89629Y66314D01*
X89592Y66125D01*
X90826D01*
Y67359D01*
D02*
G37*
G36*
X86226D02*
Y66125D01*
X87459D01*
X87422Y66314D01*
X87308Y66587D01*
X87144Y66834D01*
X86934Y67043D01*
X86688Y67208D01*
X86414Y67321D01*
X86226Y67359D01*
D02*
G37*
G36*
X85726D02*
X85537Y67321D01*
X85263Y67208D01*
X85017Y67043D01*
X84807Y66834D01*
X84643Y66587D01*
X84529Y66314D01*
X84492Y66125D01*
X85726D01*
Y67359D01*
D02*
G37*
G36*
X81939D02*
Y66125D01*
X83173D01*
X83135Y66314D01*
X83022Y66587D01*
X82857Y66834D01*
X82648Y67043D01*
X82402Y67208D01*
X82128Y67321D01*
X81939Y67359D01*
D02*
G37*
G36*
X81439D02*
X81251Y67321D01*
X80977Y67208D01*
X80730Y67043D01*
X80521Y66834D01*
X80356Y66587D01*
X80243Y66314D01*
X80205Y66125D01*
X81439D01*
Y67359D01*
D02*
G37*
G36*
X76839D02*
Y66125D01*
X78073D01*
X78035Y66314D01*
X77922Y66587D01*
X77757Y66834D01*
X77548Y67043D01*
X77302Y67208D01*
X77028Y67321D01*
X76839Y67359D01*
D02*
G37*
G36*
X76339D02*
X76151Y67321D01*
X75877Y67208D01*
X75630Y67043D01*
X75421Y66834D01*
X75256Y66587D01*
X75143Y66314D01*
X75105Y66125D01*
X76339D01*
Y67359D01*
D02*
G37*
G36*
X72553Y67359D02*
Y66125D01*
X73787D01*
X73749Y66314D01*
X73636Y66587D01*
X73471Y66834D01*
X73262Y67043D01*
X73015Y67208D01*
X72742Y67321D01*
X72553Y67359D01*
D02*
G37*
G36*
X58067D02*
Y66125D01*
X59300D01*
X59263Y66314D01*
X59149Y66587D01*
X58985Y66834D01*
X58775Y67043D01*
X58529Y67208D01*
X58255Y67321D01*
X58067Y67359D01*
D02*
G37*
G36*
X63167Y67359D02*
Y66125D01*
X64400D01*
X64363Y66314D01*
X64249Y66587D01*
X64085Y66834D01*
X63875Y67043D01*
X63629Y67208D01*
X63355Y67321D01*
X63167Y67359D01*
D02*
G37*
G36*
X67453D02*
Y66125D01*
X68687D01*
X68649Y66314D01*
X68536Y66587D01*
X68371Y66834D01*
X68162Y67043D01*
X67915Y67208D01*
X67642Y67321D01*
X67453Y67359D01*
D02*
G37*
G36*
X66953Y67359D02*
X66764Y67321D01*
X66491Y67208D01*
X66244Y67043D01*
X66035Y66834D01*
X65870Y66587D01*
X65757Y66314D01*
X65719Y66125D01*
X66953D01*
Y67359D01*
D02*
G37*
G36*
X62667D02*
X62478Y67321D01*
X62204Y67208D01*
X61958Y67043D01*
X61748Y66834D01*
X61584Y66587D01*
X61470Y66314D01*
X61433Y66125D01*
X62667D01*
Y67359D01*
D02*
G37*
G36*
X72053Y67359D02*
X71864Y67321D01*
X71591Y67208D01*
X71344Y67043D01*
X71135Y66834D01*
X70970Y66587D01*
X70857Y66314D01*
X70819Y66125D01*
X72053D01*
Y67359D01*
D02*
G37*
G36*
X57567D02*
X57378Y67321D01*
X57104Y67208D01*
X56858Y67043D01*
X56648Y66834D01*
X56484Y66587D01*
X56370Y66314D01*
X56333Y66125D01*
X57567D01*
Y67359D01*
D02*
G37*
G36*
X73787Y65625D02*
X72553D01*
Y64391D01*
X72742Y64429D01*
X73015Y64542D01*
X73262Y64707D01*
X73471Y64916D01*
X73636Y65163D01*
X73749Y65436D01*
X73787Y65625D01*
D02*
G37*
G36*
X59300D02*
X58067D01*
Y64391D01*
X58255Y64429D01*
X58529Y64542D01*
X58775Y64707D01*
X58985Y64916D01*
X59149Y65163D01*
X59263Y65436D01*
X59300Y65625D01*
D02*
G37*
G36*
X66953D02*
X65719D01*
X65757Y65436D01*
X65870Y65163D01*
X66035Y64916D01*
X66244Y64707D01*
X66491Y64542D01*
X66764Y64429D01*
X66953Y64391D01*
Y65625D01*
D02*
G37*
G36*
X62667D02*
X61433D01*
X61470Y65436D01*
X61584Y65163D01*
X61748Y64916D01*
X61958Y64707D01*
X62204Y64542D01*
X62478Y64429D01*
X62667Y64391D01*
Y65625D01*
D02*
G37*
G36*
X68687D02*
X67453D01*
Y64391D01*
X67642Y64429D01*
X67915Y64542D01*
X68162Y64707D01*
X68371Y64916D01*
X68536Y65163D01*
X68649Y65436D01*
X68687Y65625D01*
D02*
G37*
G36*
X64400D02*
X63167D01*
Y64391D01*
X63355Y64429D01*
X63629Y64542D01*
X63875Y64707D01*
X64085Y64916D01*
X64249Y65163D01*
X64363Y65436D01*
X64400Y65625D01*
D02*
G37*
G36*
X72053D02*
X70819D01*
X70857Y65436D01*
X70970Y65163D01*
X71135Y64916D01*
X71344Y64707D01*
X71591Y64542D01*
X71864Y64429D01*
X72053Y64391D01*
Y65625D01*
D02*
G37*
G36*
X57567D02*
X56333D01*
X56370Y65436D01*
X56484Y65163D01*
X56648Y64916D01*
X56858Y64707D01*
X57104Y64542D01*
X57378Y64429D01*
X57567Y64391D01*
Y65625D01*
D02*
G37*
G36*
X92559Y65625D02*
X91326D01*
Y64391D01*
X91514Y64429D01*
X91788Y64542D01*
X92034Y64707D01*
X92244Y64916D01*
X92408Y65163D01*
X92522Y65436D01*
X92559Y65625D01*
D02*
G37*
G36*
X90826D02*
X89592D01*
X89629Y65436D01*
X89743Y65163D01*
X89907Y64916D01*
X90117Y64707D01*
X90363Y64542D01*
X90637Y64429D01*
X90826Y64391D01*
Y65625D01*
D02*
G37*
G36*
X87459D02*
X86226D01*
Y64391D01*
X86414Y64429D01*
X86688Y64542D01*
X86934Y64707D01*
X87144Y64916D01*
X87308Y65163D01*
X87422Y65436D01*
X87459Y65625D01*
D02*
G37*
G36*
X85726D02*
X84492D01*
X84529Y65436D01*
X84643Y65163D01*
X84807Y64916D01*
X85017Y64707D01*
X85263Y64542D01*
X85537Y64429D01*
X85726Y64391D01*
Y65625D01*
D02*
G37*
G36*
X83173D02*
X81939D01*
Y64391D01*
X82128Y64429D01*
X82402Y64542D01*
X82648Y64707D01*
X82857Y64916D01*
X83022Y65163D01*
X83135Y65436D01*
X83173Y65625D01*
D02*
G37*
G36*
X81439D02*
X80205D01*
X80243Y65436D01*
X80356Y65163D01*
X80521Y64916D01*
X80730Y64707D01*
X80977Y64542D01*
X81251Y64429D01*
X81439Y64391D01*
Y65625D01*
D02*
G37*
G36*
X78073D02*
X76839D01*
Y64391D01*
X77028Y64429D01*
X77302Y64542D01*
X77548Y64707D01*
X77757Y64916D01*
X77922Y65163D01*
X78035Y65436D01*
X78073Y65625D01*
D02*
G37*
G36*
X76339D02*
X75105D01*
X75143Y65436D01*
X75256Y65163D01*
X75421Y64916D01*
X75630Y64707D01*
X75877Y64542D01*
X76151Y64429D01*
X76339Y64391D01*
Y65625D01*
D02*
G37*
G36*
X105648Y63859D02*
Y62625D01*
X106881D01*
X106844Y62814D01*
X106730Y63087D01*
X106566Y63334D01*
X106356Y63543D01*
X106110Y63708D01*
X105836Y63821D01*
X105648Y63859D01*
D02*
G37*
G36*
X105148Y63859D02*
X104959Y63821D01*
X104685Y63708D01*
X104439Y63543D01*
X104229Y63334D01*
X104065Y63087D01*
X103951Y62814D01*
X103914Y62625D01*
X105148D01*
Y63859D01*
D02*
G37*
G36*
X100548Y63859D02*
Y62625D01*
X101781D01*
X101744Y62814D01*
X101630Y63087D01*
X101466Y63334D01*
X101256Y63543D01*
X101010Y63708D01*
X100736Y63821D01*
X100548Y63859D01*
D02*
G37*
G36*
X100048Y63859D02*
X99859Y63821D01*
X99585Y63708D01*
X99339Y63543D01*
X99129Y63334D01*
X98965Y63087D01*
X98851Y62814D01*
X98814Y62625D01*
X100048D01*
Y63859D01*
D02*
G37*
G36*
X106881Y62125D02*
X105648D01*
Y60891D01*
X105836Y60929D01*
X106110Y61042D01*
X106356Y61207D01*
X106566Y61416D01*
X106730Y61663D01*
X106844Y61936D01*
X106881Y62125D01*
D02*
G37*
G36*
X101781Y62125D02*
X100548D01*
Y60891D01*
X100736Y60929D01*
X101010Y61042D01*
X101256Y61207D01*
X101466Y61416D01*
X101630Y61663D01*
X101744Y61936D01*
X101781Y62125D01*
D02*
G37*
G36*
X100048D02*
X98814D01*
X98851Y61936D01*
X98965Y61663D01*
X99129Y61416D01*
X99339Y61207D01*
X99585Y61042D01*
X99859Y60929D01*
X100048Y60891D01*
Y62125D01*
D02*
G37*
G36*
X105148Y62125D02*
X103914D01*
X103951Y61936D01*
X104065Y61663D01*
X104229Y61416D01*
X104439Y61207D01*
X104685Y61042D01*
X104959Y60929D01*
X105148Y60891D01*
Y62125D01*
D02*
G37*
G36*
X103016Y61533D02*
X102679D01*
X102349Y61467D01*
X102038Y61339D01*
X101759Y61152D01*
X101521Y60914D01*
X101334Y60634D01*
X101205Y60323D01*
X101140Y59993D01*
Y59657D01*
X101205Y59327D01*
X101334Y59016D01*
X101521Y58736D01*
X101759Y58498D01*
X102038Y58311D01*
X102349Y58183D01*
X102679Y58117D01*
X103016D01*
X103346Y58183D01*
X103657Y58311D01*
X103936Y58498D01*
X104174Y58736D01*
X104361Y59016D01*
X104490Y59327D01*
X104556Y59657D01*
Y59993D01*
X104490Y60323D01*
X104361Y60634D01*
X104174Y60914D01*
X103936Y61152D01*
X103657Y61339D01*
X103346Y61467D01*
X103016Y61533D01*
D02*
G37*
G36*
X105648Y58759D02*
Y57525D01*
X106881D01*
X106844Y57714D01*
X106730Y57987D01*
X106566Y58234D01*
X106356Y58443D01*
X106110Y58608D01*
X105836Y58721D01*
X105648Y58759D01*
D02*
G37*
G36*
X105148Y58759D02*
X104959Y58721D01*
X104685Y58608D01*
X104439Y58443D01*
X104229Y58234D01*
X104065Y57987D01*
X103951Y57714D01*
X103914Y57525D01*
X105148D01*
Y58759D01*
D02*
G37*
G36*
X100548Y58759D02*
Y57525D01*
X101781D01*
X101744Y57714D01*
X101630Y57987D01*
X101466Y58234D01*
X101256Y58443D01*
X101010Y58608D01*
X100736Y58721D01*
X100548Y58759D01*
D02*
G37*
G36*
X100048D02*
X99859Y58721D01*
X99585Y58608D01*
X99339Y58443D01*
X99129Y58234D01*
X98965Y57987D01*
X98851Y57714D01*
X98814Y57525D01*
X100048D01*
Y58759D01*
D02*
G37*
G36*
X106881Y57025D02*
X105648D01*
Y55791D01*
X105836Y55829D01*
X106110Y55942D01*
X106356Y56107D01*
X106566Y56316D01*
X106730Y56563D01*
X106844Y56836D01*
X106881Y57025D01*
D02*
G37*
G36*
X101781Y57025D02*
X100548D01*
Y55791D01*
X100736Y55829D01*
X101010Y55942D01*
X101256Y56107D01*
X101466Y56316D01*
X101630Y56563D01*
X101744Y56836D01*
X101781Y57025D01*
D02*
G37*
G36*
X100048D02*
X98814D01*
X98851Y56836D01*
X98965Y56563D01*
X99129Y56316D01*
X99339Y56107D01*
X99585Y55942D01*
X99859Y55829D01*
X100048Y55791D01*
Y57025D01*
D02*
G37*
G36*
X105148Y57025D02*
X103914D01*
X103951Y56836D01*
X104065Y56563D01*
X104229Y56316D01*
X104439Y56107D01*
X104685Y55942D01*
X104959Y55829D01*
X105148Y55791D01*
Y57025D01*
D02*
G37*
G36*
X105648Y54296D02*
Y53062D01*
X106881D01*
X106844Y53251D01*
X106730Y53524D01*
X106566Y53771D01*
X106356Y53980D01*
X106110Y54145D01*
X105836Y54258D01*
X105648Y54296D01*
D02*
G37*
G36*
X105148Y54296D02*
X104959Y54258D01*
X104685Y54145D01*
X104439Y53980D01*
X104229Y53771D01*
X104065Y53524D01*
X103951Y53251D01*
X103914Y53062D01*
X105148D01*
Y54296D01*
D02*
G37*
G36*
X100548Y54296D02*
Y53062D01*
X101781D01*
X101744Y53251D01*
X101630Y53524D01*
X101466Y53771D01*
X101256Y53980D01*
X101010Y54145D01*
X100736Y54258D01*
X100548Y54296D01*
D02*
G37*
G36*
X100048D02*
X99859Y54258D01*
X99585Y54145D01*
X99339Y53980D01*
X99129Y53771D01*
X98965Y53524D01*
X98851Y53251D01*
X98814Y53062D01*
X100048D01*
Y54296D01*
D02*
G37*
G36*
X106881Y52562D02*
X105648D01*
Y51328D01*
X105836Y51366D01*
X106110Y51479D01*
X106356Y51644D01*
X106566Y51853D01*
X106730Y52099D01*
X106844Y52373D01*
X106881Y52562D01*
D02*
G37*
G36*
X101781Y52562D02*
X100548D01*
Y51328D01*
X100736Y51366D01*
X101010Y51479D01*
X101256Y51644D01*
X101466Y51853D01*
X101630Y52099D01*
X101744Y52373D01*
X101781Y52562D01*
D02*
G37*
G36*
X100048D02*
X98814D01*
X98851Y52373D01*
X98965Y52099D01*
X99129Y51853D01*
X99339Y51644D01*
X99585Y51479D01*
X99859Y51366D01*
X100048Y51328D01*
Y52562D01*
D02*
G37*
G36*
X105148Y52562D02*
X103914D01*
X103951Y52373D01*
X104065Y52099D01*
X104229Y51853D01*
X104439Y51644D01*
X104685Y51479D01*
X104959Y51366D01*
X105148Y51328D01*
Y52562D01*
D02*
G37*
G36*
X103016Y51970D02*
X102679D01*
X102349Y51904D01*
X102038Y51776D01*
X101759Y51589D01*
X101521Y51351D01*
X101334Y51071D01*
X101205Y50760D01*
X101140Y50430D01*
Y50094D01*
X101205Y49764D01*
X101334Y49453D01*
X101521Y49173D01*
X101759Y48935D01*
X102038Y48748D01*
X102349Y48620D01*
X102679Y48554D01*
X103016D01*
X103346Y48620D01*
X103657Y48748D01*
X103936Y48935D01*
X104174Y49173D01*
X104361Y49453D01*
X104490Y49764D01*
X104556Y50094D01*
Y50430D01*
X104490Y50760D01*
X104361Y51071D01*
X104174Y51351D01*
X103936Y51589D01*
X103657Y51776D01*
X103346Y51904D01*
X103016Y51970D01*
D02*
G37*
G36*
X105648Y49196D02*
Y47962D01*
X106881D01*
X106844Y48151D01*
X106730Y48424D01*
X106566Y48671D01*
X106356Y48880D01*
X106110Y49045D01*
X105836Y49158D01*
X105648Y49196D01*
D02*
G37*
G36*
X105148Y49196D02*
X104959Y49158D01*
X104685Y49045D01*
X104439Y48880D01*
X104229Y48671D01*
X104065Y48424D01*
X103951Y48151D01*
X103914Y47962D01*
X105148D01*
Y49196D01*
D02*
G37*
G36*
X100548Y49196D02*
Y47962D01*
X101781D01*
X101744Y48151D01*
X101630Y48424D01*
X101466Y48671D01*
X101256Y48880D01*
X101010Y49045D01*
X100736Y49158D01*
X100548Y49196D01*
D02*
G37*
G36*
X100048D02*
X99859Y49158D01*
X99585Y49045D01*
X99339Y48880D01*
X99129Y48671D01*
X98965Y48424D01*
X98851Y48151D01*
X98814Y47962D01*
X100048D01*
Y49196D01*
D02*
G37*
G36*
X88075Y54359D02*
X79550D01*
X79451Y54339D01*
X79367Y54283D01*
X76335Y51251D01*
X76279Y51167D01*
X76259Y51068D01*
Y49991D01*
X76250Y49985D01*
X76249Y49983D01*
X76247Y49982D01*
X76226Y49951D01*
X76205Y49920D01*
X76204Y49918D01*
X76203Y49915D01*
X76195Y49879D01*
X76193Y49869D01*
X76112Y49788D01*
X76039Y49612D01*
Y49421D01*
X76056Y49380D01*
X75932Y49252D01*
X75815Y49257D01*
X75755Y49317D01*
X75579Y49390D01*
X75388D01*
X75212Y49317D01*
X75077Y49182D01*
X75004Y49006D01*
Y48815D01*
X75077Y48639D01*
X75212Y48505D01*
X75388Y48432D01*
X75579D01*
X75755Y48505D01*
X75836Y48586D01*
X75844Y48588D01*
X75882Y48595D01*
X75883Y48596D01*
X75885Y48596D01*
X75916Y48618D01*
X75948Y48640D01*
X75949Y48641D01*
X75950Y48641D01*
X75957Y48652D01*
X77086D01*
X77185Y48671D01*
X77269Y48728D01*
X81818Y53277D01*
X85682D01*
X93967Y44992D01*
X94051Y44936D01*
X94150Y44916D01*
X100058D01*
X100075Y44738D01*
X99859Y44695D01*
X99585Y44582D01*
X99339Y44417D01*
X99129Y44208D01*
X98965Y43961D01*
X98851Y43688D01*
X98814Y43499D01*
X100298D01*
X101781D01*
X101744Y43688D01*
X101630Y43961D01*
X101466Y44208D01*
X101256Y44417D01*
X101010Y44582D01*
X100736Y44695D01*
X100520Y44738D01*
X100537Y44916D01*
X105158D01*
X105175Y44738D01*
X104959Y44695D01*
X104685Y44582D01*
X104439Y44417D01*
X104229Y44208D01*
X104065Y43961D01*
X103951Y43688D01*
X103914Y43499D01*
X105398D01*
X106881D01*
X106844Y43688D01*
X106730Y43961D01*
X106566Y44208D01*
X106356Y44417D01*
X106110Y44582D01*
X105836Y44695D01*
X105620Y44738D01*
X105637Y44916D01*
X109726D01*
X109733Y44905D01*
X109748Y44895D01*
X109759Y44882D01*
X109780Y44873D01*
X109799Y44860D01*
X109816Y44857D01*
X109832Y44849D01*
X109854Y44849D01*
X109904Y44798D01*
X110080Y44725D01*
X110270D01*
X110446Y44798D01*
X110581Y44933D01*
X110654Y45109D01*
Y45300D01*
X110581Y45476D01*
X110446Y45611D01*
X110270Y45683D01*
X110080D01*
X109904Y45611D01*
X109816Y45523D01*
X109771Y45523D01*
X109714Y45639D01*
X109716Y45720D01*
X109731Y45735D01*
X109804Y45911D01*
Y46102D01*
X109731Y46278D01*
X109596Y46412D01*
X109420Y46485D01*
X109230D01*
X109054Y46412D01*
X108948Y46306D01*
X108937Y46303D01*
X108909Y46297D01*
X108900Y46290D01*
X108889Y46286D01*
X108867Y46268D01*
X108844Y46252D01*
X108837Y46242D01*
X108837Y46242D01*
X106224D01*
X106170Y46419D01*
X106356Y46544D01*
X106566Y46753D01*
X106730Y46999D01*
X106844Y47273D01*
X106881Y47462D01*
X105398D01*
X103914D01*
X103951Y47273D01*
X104065Y46999D01*
X104229Y46753D01*
X104439Y46544D01*
X104625Y46419D01*
X104571Y46242D01*
X101124D01*
X101070Y46419D01*
X101256Y46544D01*
X101466Y46753D01*
X101630Y46999D01*
X101744Y47273D01*
X101781Y47462D01*
X100298D01*
X98814D01*
X98851Y47273D01*
X98965Y46999D01*
X99129Y46753D01*
X99339Y46544D01*
X99525Y46419D01*
X99471Y46242D01*
X96300D01*
X88258Y54283D01*
X88174Y54339D01*
X88075Y54359D01*
D02*
G37*
G36*
X44720Y45257D02*
X44530D01*
X44354Y45185D01*
X44219Y45050D01*
X44146Y44874D01*
Y44683D01*
X44219Y44507D01*
X44354Y44372D01*
X44530Y44299D01*
X44720D01*
X44896Y44372D01*
X45031Y44507D01*
X45104Y44683D01*
Y44874D01*
X45031Y45050D01*
X44896Y45185D01*
X44720Y45257D01*
D02*
G37*
G36*
X106881Y42999D02*
X105648D01*
Y41765D01*
X105836Y41803D01*
X106110Y41916D01*
X106356Y42081D01*
X106566Y42290D01*
X106730Y42536D01*
X106844Y42810D01*
X106881Y42999D01*
D02*
G37*
G36*
X101781Y42999D02*
X100548D01*
Y41765D01*
X100736Y41803D01*
X101010Y41916D01*
X101256Y42081D01*
X101466Y42290D01*
X101630Y42536D01*
X101744Y42810D01*
X101781Y42999D01*
D02*
G37*
G36*
X100048D02*
X98814D01*
X98851Y42810D01*
X98965Y42536D01*
X99129Y42290D01*
X99339Y42081D01*
X99585Y41916D01*
X99859Y41803D01*
X100048Y41765D01*
Y42999D01*
D02*
G37*
G36*
X105148Y42999D02*
X103914D01*
X103951Y42810D01*
X104065Y42536D01*
X104229Y42290D01*
X104439Y42081D01*
X104685Y41916D01*
X104959Y41803D01*
X105148Y41765D01*
Y42999D01*
D02*
G37*
G36*
X103016Y42407D02*
X102679D01*
X102349Y42341D01*
X102038Y42212D01*
X101759Y42025D01*
X101521Y41788D01*
X101334Y41508D01*
X101205Y41197D01*
X101140Y40867D01*
Y40531D01*
X101205Y40201D01*
X101334Y39890D01*
X101521Y39610D01*
X101759Y39372D01*
X102038Y39185D01*
X102349Y39056D01*
X102679Y38991D01*
X103016D01*
X103346Y39056D01*
X103657Y39185D01*
X103936Y39372D01*
X104174Y39610D01*
X104361Y39890D01*
X104490Y40201D01*
X104556Y40531D01*
Y40867D01*
X104490Y41197D01*
X104361Y41508D01*
X104174Y41788D01*
X103936Y42025D01*
X103657Y42212D01*
X103346Y42341D01*
X103016Y42407D01*
D02*
G37*
G36*
X50650Y39908D02*
X50459D01*
X50283Y39835D01*
X50148Y39701D01*
X50075Y39525D01*
Y39334D01*
X50148Y39158D01*
X50283Y39023D01*
X50459Y38950D01*
X50650D01*
X50826Y39023D01*
X50960Y39158D01*
X51033Y39334D01*
Y39525D01*
X50960Y39701D01*
X50826Y39835D01*
X50650Y39908D01*
D02*
G37*
G36*
X46045Y39659D02*
X45855D01*
X45679Y39586D01*
X45544Y39451D01*
X45471Y39275D01*
Y39085D01*
X45544Y38909D01*
X45679Y38774D01*
X45855Y38701D01*
X46045D01*
X46221Y38774D01*
X46356Y38909D01*
X46429Y39085D01*
Y39275D01*
X46356Y39451D01*
X46221Y39586D01*
X46045Y39659D01*
D02*
G37*
G36*
X47995Y38704D02*
X47805D01*
X47629Y38631D01*
X47494Y38496D01*
X47483Y38470D01*
X47465Y38467D01*
X47465Y38466D01*
X47465Y38466D01*
X47433Y38444D01*
X47400Y38421D01*
X47400Y38421D01*
X47400Y38421D01*
X47394Y38412D01*
X40530D01*
X40525Y38420D01*
X40522Y38422D01*
X40521Y38424D01*
X40490Y38444D01*
X40460Y38466D01*
X40457Y38467D01*
X40455Y38468D01*
X40418Y38475D01*
X40409Y38477D01*
X40327Y38559D01*
X40151Y38632D01*
X39961D01*
X39785Y38559D01*
X39650Y38424D01*
X39577Y38248D01*
Y38057D01*
X39650Y37881D01*
X39785Y37747D01*
X39961Y37674D01*
X40151D01*
X40327Y37747D01*
X40409Y37828D01*
X40417Y37830D01*
X40455Y37837D01*
X40456Y37838D01*
X40457Y37838D01*
X40489Y37860D01*
X40521Y37881D01*
X40522Y37882D01*
X40523Y37883D01*
X40529Y37894D01*
X41700D01*
X41709Y37883D01*
X41765Y37716D01*
X40208Y36159D01*
X40198Y36161D01*
X40196Y36161D01*
X40193Y36161D01*
X40156Y36154D01*
X40120Y36148D01*
X40118Y36146D01*
X40115Y36146D01*
X40084Y36125D01*
X40076Y36120D01*
X39961D01*
X39785Y36047D01*
X39650Y35912D01*
X39577Y35736D01*
Y35545D01*
X39650Y35369D01*
X39785Y35235D01*
X39961Y35162D01*
X40151D01*
X40327Y35235D01*
X40462Y35369D01*
X40535Y35545D01*
Y35661D01*
X40540Y35668D01*
X40561Y35700D01*
X40561Y35701D01*
X40562Y35702D01*
X40569Y35740D01*
X40577Y35778D01*
X40576Y35779D01*
X40576Y35780D01*
X40574Y35792D01*
X42098Y37316D01*
X48647D01*
X48746Y37336D01*
X48830Y37392D01*
X48861Y37422D01*
X48872Y37420D01*
X48893Y37424D01*
X48913Y37423D01*
X48931Y37431D01*
X48950Y37434D01*
X48968Y37445D01*
X48978Y37450D01*
X49149D01*
X49325Y37522D01*
X49460Y37657D01*
X49533Y37833D01*
Y38024D01*
X49460Y38200D01*
X49325Y38335D01*
X49149Y38408D01*
X48958D01*
X48782Y38335D01*
X48647Y38200D01*
X48575Y38024D01*
X48450Y37955D01*
X48371Y38110D01*
X48379Y38130D01*
Y38320D01*
X48306Y38496D01*
X48171Y38631D01*
X47995Y38704D01*
D02*
G37*
G36*
X105648Y39633D02*
Y38399D01*
X106881D01*
X106844Y38588D01*
X106730Y38861D01*
X106566Y39108D01*
X106356Y39317D01*
X106110Y39482D01*
X105836Y39595D01*
X105648Y39633D01*
D02*
G37*
G36*
X105148Y39633D02*
X104959Y39595D01*
X104685Y39482D01*
X104439Y39317D01*
X104229Y39108D01*
X104065Y38861D01*
X103951Y38588D01*
X103914Y38399D01*
X105148D01*
Y39633D01*
D02*
G37*
G36*
X100548Y39633D02*
Y38399D01*
X101781D01*
X101744Y38588D01*
X101630Y38861D01*
X101466Y39108D01*
X101256Y39317D01*
X101010Y39482D01*
X100736Y39595D01*
X100548Y39633D01*
D02*
G37*
G36*
X100048D02*
X99859Y39595D01*
X99585Y39482D01*
X99339Y39317D01*
X99129Y39108D01*
X98965Y38861D01*
X98851Y38588D01*
X98814Y38399D01*
X100048D01*
Y39633D01*
D02*
G37*
G36*
X63701Y41741D02*
X63505Y41702D01*
X63445Y41662D01*
X57133D01*
X56937Y41623D01*
X56771Y41512D01*
X52618Y37359D01*
X52410Y37402D01*
X52381Y37471D01*
X52246Y37606D01*
X52070Y37679D01*
X51880D01*
X51704Y37606D01*
X51569Y37471D01*
X51496Y37295D01*
Y37105D01*
X51569Y36929D01*
X51704Y36794D01*
X51773Y36765D01*
X51816Y36557D01*
X46346Y31087D01*
X34625D01*
X34429Y31048D01*
X34263Y30937D01*
X33558Y30232D01*
X33447Y30066D01*
X33409Y29870D01*
Y28178D01*
X33447Y27982D01*
X33558Y27816D01*
X34134Y27240D01*
Y17642D01*
X34173Y17447D01*
X34284Y17281D01*
X34450Y17170D01*
X34646Y17131D01*
X34842Y17170D01*
X35008Y17281D01*
X35119Y17447D01*
X35158Y17642D01*
Y27452D01*
X35119Y27648D01*
X35008Y27814D01*
X34432Y28390D01*
Y29658D01*
X34837Y30063D01*
X46558D01*
X46754Y30102D01*
X46920Y30213D01*
X57345Y40638D01*
X63622D01*
X63818Y40677D01*
X63984Y40788D01*
X64063Y40867D01*
X64174Y41033D01*
X64213Y41229D01*
X64174Y41425D01*
X64063Y41591D01*
X63897Y41702D01*
X63701Y41741D01*
D02*
G37*
G36*
X106881Y37899D02*
X105648D01*
Y36665D01*
X105836Y36703D01*
X106110Y36816D01*
X106356Y36981D01*
X106566Y37190D01*
X106730Y37436D01*
X106844Y37710D01*
X106881Y37899D01*
D02*
G37*
G36*
X101781Y37899D02*
X100548D01*
Y36665D01*
X100736Y36703D01*
X101010Y36816D01*
X101256Y36981D01*
X101466Y37190D01*
X101630Y37436D01*
X101744Y37710D01*
X101781Y37899D01*
D02*
G37*
G36*
X100048D02*
X98814D01*
X98851Y37710D01*
X98965Y37436D01*
X99129Y37190D01*
X99339Y36981D01*
X99585Y36816D01*
X99859Y36703D01*
X100048Y36665D01*
Y37899D01*
D02*
G37*
G36*
X105148Y37899D02*
X103914D01*
X103951Y37710D01*
X104065Y37436D01*
X104229Y37190D01*
X104439Y36981D01*
X104685Y36816D01*
X104959Y36703D01*
X105148Y36665D01*
Y37899D01*
D02*
G37*
G36*
X30357Y38074D02*
X30045D01*
X29743Y37993D01*
X29473Y37837D01*
X29253Y37617D01*
X29097Y37346D01*
X29016Y37045D01*
Y36733D01*
X29097Y36432D01*
X29253Y36161D01*
X29473Y35941D01*
X29743Y35785D01*
X30045Y35704D01*
X30357D01*
X30658Y35785D01*
X30928Y35941D01*
X31149Y36161D01*
X31305Y36432D01*
X31386Y36733D01*
Y37045D01*
X31305Y37346D01*
X31149Y37617D01*
X30928Y37837D01*
X30658Y37993D01*
X30357Y38074D01*
D02*
G37*
G36*
X109697Y75773D02*
X109506D01*
X109330Y75700D01*
X109196Y75565D01*
X109123Y75389D01*
Y75198D01*
X109196Y75022D01*
X109277Y74941D01*
X109279Y74933D01*
X109286Y74895D01*
X109287Y74894D01*
X109287Y74892D01*
X109309Y74861D01*
X109330Y74829D01*
X109331Y74828D01*
X109332Y74827D01*
X109343Y74820D01*
Y70017D01*
X109362Y69918D01*
X109418Y69834D01*
X111214Y68038D01*
Y36758D01*
X109727Y35272D01*
X109716Y35274D01*
X109694Y35270D01*
X109671Y35270D01*
X109655Y35263D01*
X109637Y35260D01*
X109619Y35248D01*
X109598Y35239D01*
X109588Y35229D01*
X109530D01*
X109354Y35156D01*
X109219Y35021D01*
X109146Y34845D01*
Y34655D01*
X109219Y34479D01*
X109354Y34344D01*
X109530Y34271D01*
X109720D01*
X109896Y34344D01*
X110031Y34479D01*
X110104Y34655D01*
Y34826D01*
X110108Y34836D01*
X110119Y34853D01*
X110123Y34872D01*
X110130Y34890D01*
X110130Y34911D01*
X110134Y34931D01*
X110131Y34943D01*
X111656Y36468D01*
X111712Y36552D01*
X111732Y36651D01*
Y68146D01*
X111712Y68245D01*
X111656Y68329D01*
X109861Y70124D01*
Y74820D01*
X109869Y74825D01*
X109871Y74827D01*
X109873Y74829D01*
X109893Y74860D01*
X109915Y74890D01*
X109916Y74893D01*
X109917Y74895D01*
X109924Y74931D01*
X109926Y74941D01*
X110008Y75022D01*
X110081Y75198D01*
Y75389D01*
X110008Y75565D01*
X109873Y75700D01*
X109697Y75773D01*
D02*
G37*
G36*
X43794Y33328D02*
X43603D01*
X43427Y33255D01*
X43293Y33120D01*
X43220Y32944D01*
Y32753D01*
X43293Y32577D01*
X43427Y32443D01*
X43603Y32370D01*
X43794D01*
X43970Y32443D01*
X44105Y32577D01*
X44178Y32753D01*
Y32944D01*
X44105Y33120D01*
X43970Y33255D01*
X43794Y33328D01*
D02*
G37*
G36*
X66270Y32729D02*
X66080D01*
X65904Y32656D01*
X65769Y32521D01*
X65696Y32345D01*
Y32155D01*
X65769Y31979D01*
X65904Y31844D01*
X66080Y31771D01*
X66270D01*
X66446Y31844D01*
X66581Y31979D01*
X66654Y32155D01*
Y32345D01*
X66581Y32521D01*
X66446Y32656D01*
X66270Y32729D01*
D02*
G37*
G36*
X30357Y32994D02*
X30045D01*
X29743Y32913D01*
X29473Y32757D01*
X29253Y32537D01*
X29097Y32266D01*
X29016Y31965D01*
Y31653D01*
X29097Y31352D01*
X29253Y31081D01*
X29473Y30861D01*
X29743Y30705D01*
X30045Y30624D01*
X30357D01*
X30658Y30705D01*
X30928Y30861D01*
X31149Y31081D01*
X31305Y31352D01*
X31386Y31653D01*
Y31965D01*
X31305Y32266D01*
X31149Y32537D01*
X30928Y32757D01*
X30658Y32913D01*
X30357Y32994D01*
D02*
G37*
G36*
X114500Y67237D02*
X114262D01*
X114066Y67198D01*
X113900Y67087D01*
X112615Y65802D01*
X112504Y65636D01*
X112465Y65440D01*
Y36673D01*
X112504Y36477D01*
X112615Y36311D01*
X114408Y34518D01*
Y26687D01*
X111312D01*
X110162Y27837D01*
X109996Y27948D01*
X109800Y27987D01*
X107636D01*
X95730Y39892D01*
Y40656D01*
X95691Y40852D01*
X95664Y40893D01*
Y41661D01*
X95625Y41857D01*
X95514Y42023D01*
X89691Y47846D01*
Y48014D01*
X89652Y48210D01*
X89541Y48376D01*
X85528Y52389D01*
X85362Y52499D01*
X85166Y52538D01*
X81556D01*
X81360Y52499D01*
X81194Y52389D01*
X77163Y48357D01*
X77052Y48191D01*
X77051Y48187D01*
X76701D01*
X76575Y48212D01*
X76379Y48173D01*
X76213Y48062D01*
X76102Y47896D01*
X76063Y47700D01*
X76102Y47504D01*
X76213Y47338D01*
X76238Y47313D01*
X76404Y47202D01*
X76600Y47163D01*
X77525D01*
X77721Y47202D01*
X77887Y47313D01*
X77998Y47479D01*
X78037Y47675D01*
Y47784D01*
X79486Y49233D01*
X79650Y49164D01*
Y48011D01*
X80515D01*
X80526Y48003D01*
X80608Y47934D01*
X80645Y47897D01*
Y47713D01*
X80709Y47560D01*
X80718Y47537D01*
X80738Y47492D01*
X80775Y47405D01*
X80775Y47405D01*
Y47206D01*
X80774Y47202D01*
X80775Y47197D01*
Y46505D01*
X80775D01*
X80869Y46374D01*
Y45971D01*
X80867Y45968D01*
X80812Y45921D01*
X80727Y45884D01*
X80697Y45877D01*
X80691Y45877D01*
X80660Y45882D01*
X80625Y45889D01*
X80621Y45888D01*
X80618Y45889D01*
X80588Y45882D01*
X80554Y45905D01*
X80407Y45934D01*
X80407Y45934D01*
X69943D01*
X69921Y45956D01*
X69745Y46029D01*
X69555D01*
X69379Y45956D01*
X69357Y45934D01*
X63167D01*
X61264Y47837D01*
Y47867D01*
X61191Y48043D01*
X61057Y48178D01*
X60881Y48251D01*
X60690D01*
X60514Y48178D01*
X60492Y48156D01*
X57987D01*
X53154Y52990D01*
Y53020D01*
X53081Y53196D01*
X52946Y53331D01*
X52770Y53404D01*
X52580D01*
X52404Y53331D01*
X52269Y53196D01*
X52196Y53020D01*
Y52830D01*
X52269Y52654D01*
X52404Y52519D01*
X52580Y52446D01*
X52610D01*
X57556Y47500D01*
X57681Y47417D01*
X57828Y47388D01*
X60492D01*
X60514Y47366D01*
X60690Y47293D01*
X60721D01*
X62735Y45278D01*
X62735Y45278D01*
X62860Y45195D01*
X63007Y45166D01*
X69266D01*
Y43584D01*
X65928Y40247D01*
X65845Y40122D01*
X65816Y39975D01*
X65816Y39975D01*
Y39608D01*
X65447Y39240D01*
X65364Y39115D01*
X65335Y38968D01*
X65335Y38968D01*
Y38203D01*
X64966Y37835D01*
X64883Y37710D01*
X64853Y37563D01*
X64853Y37563D01*
Y37042D01*
X62096Y34285D01*
X62013Y34160D01*
X61983Y34013D01*
X61983Y34013D01*
Y30600D01*
Y30452D01*
X52810Y21279D01*
X52780D01*
X52604Y21206D01*
X52469Y21071D01*
X52396Y20895D01*
Y20705D01*
X52469Y20529D01*
X52604Y20394D01*
X52780Y20321D01*
X52970D01*
X53146Y20394D01*
X53281Y20529D01*
X53354Y20705D01*
Y20735D01*
X62640Y30021D01*
X62640Y30021D01*
X62723Y30146D01*
X62737Y30216D01*
X65207D01*
X65229Y30194D01*
X65405Y30121D01*
X65595D01*
X65771Y30194D01*
X65906Y30329D01*
X65979Y30505D01*
Y30695D01*
X65906Y30871D01*
X65771Y31006D01*
X65595Y31079D01*
X65405D01*
X65229Y31006D01*
X65207Y30984D01*
X62752D01*
Y33854D01*
X65510Y36611D01*
X65510Y36611D01*
X65593Y36736D01*
X65622Y36883D01*
Y37404D01*
X65991Y37772D01*
X65991Y37772D01*
X66074Y37897D01*
X66103Y38044D01*
Y38809D01*
X66472Y39177D01*
X66472Y39177D01*
X66555Y39302D01*
X66585Y39449D01*
Y39816D01*
X69922Y43153D01*
X69922Y43153D01*
X70005Y43278D01*
X70034Y43425D01*
Y45166D01*
X80147D01*
X80184Y45126D01*
X80235Y45063D01*
X80278Y44999D01*
X80316Y44932D01*
X80348Y44863D01*
X80374Y44792D01*
X80394Y44719D01*
X80409Y44642D01*
X80418Y44562D01*
X80421Y44471D01*
X80423Y44464D01*
X80422Y44456D01*
X80432Y44425D01*
X80440Y44393D01*
X80444Y44387D01*
X80446Y44380D01*
X80467Y44355D01*
X80486Y44329D01*
X80491Y44326D01*
Y40902D01*
X80491Y40902D01*
X80520Y40755D01*
X80603Y40630D01*
X85816Y35418D01*
Y34074D01*
X85778Y34037D01*
X85695Y33912D01*
X85666Y33765D01*
X85666Y33765D01*
Y30934D01*
X85660Y30929D01*
X85630D01*
X85454Y30856D01*
X85319Y30721D01*
X85246Y30545D01*
Y30355D01*
X85319Y30179D01*
X85454Y30044D01*
X85630Y29971D01*
X85820D01*
X85996Y30044D01*
X86131Y30179D01*
X86204Y30355D01*
Y30385D01*
X86322Y30503D01*
X86322Y30503D01*
X86405Y30628D01*
X86434Y30775D01*
Y33606D01*
X86472Y33643D01*
X86555Y33768D01*
X86584Y33915D01*
X86584Y33915D01*
Y35577D01*
X86584Y35577D01*
X86555Y35724D01*
X86472Y35849D01*
X81259Y41061D01*
Y44179D01*
X81261Y44180D01*
X81271Y44193D01*
X81284Y44204D01*
X81295Y44225D01*
X81309Y44244D01*
X81313Y44260D01*
X81321Y44274D01*
X81323Y44298D01*
X81329Y44321D01*
X81333Y44404D01*
X81343Y44461D01*
X81358Y44506D01*
X81375Y44538D01*
X81395Y44562D01*
X81419Y44581D01*
X81451Y44599D01*
X81495Y44613D01*
X81553Y44624D01*
X81636Y44628D01*
X81659Y44634D01*
X81682Y44636D01*
X81697Y44644D01*
X81713Y44648D01*
X81732Y44662D01*
X81753Y44673D01*
X81763Y44685D01*
X81777Y44695D01*
X81778Y44697D01*
X81807D01*
X81807Y44697D01*
X81954Y44727D01*
X82078Y44810D01*
X82504Y45235D01*
X82504Y45235D01*
X82587Y45360D01*
X82610Y45474D01*
X82669D01*
Y45956D01*
X82675Y45957D01*
X82759Y46013D01*
X83164Y46418D01*
X83220Y46502D01*
X83240Y46601D01*
Y47650D01*
Y49060D01*
X84747Y50568D01*
X84757Y50565D01*
X84760Y50566D01*
X84762Y50565D01*
X84799Y50573D01*
X84836Y50579D01*
X84838Y50580D01*
X84841Y50581D01*
X84872Y50601D01*
X84880Y50607D01*
X84995D01*
X85171Y50680D01*
X85306Y50814D01*
X85334Y50884D01*
X85543Y50926D01*
X88667Y47802D01*
Y47634D01*
X88706Y47438D01*
X88817Y47272D01*
X94640Y41449D01*
Y40722D01*
X94679Y40526D01*
X94707Y40485D01*
Y39680D01*
X94746Y39485D01*
X94857Y39318D01*
X107062Y27113D01*
X107228Y27002D01*
X107424Y26963D01*
X109588D01*
X110738Y25813D01*
X110904Y25702D01*
X111100Y25663D01*
X114737D01*
X114933Y25702D01*
X115099Y25813D01*
X115282Y25996D01*
X115393Y26162D01*
X115432Y26358D01*
Y34730D01*
X115393Y34926D01*
X115282Y35092D01*
X113489Y36885D01*
Y65228D01*
X114474Y66213D01*
X114500D01*
X114696Y66252D01*
X114862Y66363D01*
X114973Y66529D01*
X115012Y66725D01*
X114973Y66921D01*
X114862Y67087D01*
X114696Y67198D01*
X114500Y67237D01*
D02*
G37*
G36*
X30357Y26389D02*
X30045D01*
X29743Y26308D01*
X29473Y26152D01*
X29253Y25932D01*
X29097Y25661D01*
X29016Y25360D01*
Y25048D01*
X29097Y24747D01*
X29253Y24476D01*
X29473Y24256D01*
X29743Y24100D01*
X30045Y24019D01*
X30357D01*
X30658Y24100D01*
X30928Y24256D01*
X31149Y24476D01*
X31305Y24747D01*
X31386Y25048D01*
Y25360D01*
X31305Y25661D01*
X31149Y25932D01*
X30928Y26152D01*
X30658Y26308D01*
X30357Y26389D01*
D02*
G37*
G36*
X67520Y40204D02*
X67330D01*
X67154Y40131D01*
X67019Y39996D01*
X66946Y39820D01*
Y39630D01*
X67019Y39454D01*
X67154Y39319D01*
X67330Y39246D01*
X67520D01*
X67696Y39319D01*
X67778Y39400D01*
X67786Y39402D01*
X67824Y39410D01*
X67825Y39410D01*
X67826Y39411D01*
X67858Y39433D01*
X67890Y39454D01*
X67891Y39455D01*
X67892Y39456D01*
X67899Y39466D01*
X68118D01*
X70591Y36993D01*
Y25699D01*
X70582Y25693D01*
X70581Y25691D01*
X70579Y25690D01*
X70558Y25659D01*
X70537Y25628D01*
X70536Y25626D01*
X70534Y25624D01*
X70527Y25587D01*
X70525Y25577D01*
X70497Y25550D01*
X70489Y25548D01*
X70451Y25540D01*
X70450Y25540D01*
X70449Y25539D01*
X70417Y25518D01*
X70385Y25496D01*
X70384Y25495D01*
X70383Y25494D01*
X70376Y25484D01*
X69475D01*
X69376Y25464D01*
X69292Y25408D01*
X58768Y14884D01*
X54674D01*
X54669Y14892D01*
X54666Y14894D01*
X54665Y14896D01*
X54634Y14917D01*
X54604Y14938D01*
X54601Y14939D01*
X54599Y14940D01*
X54562Y14948D01*
X54553Y14950D01*
X54471Y15031D01*
X54295Y15104D01*
X54105D01*
X53929Y15031D01*
X53794Y14896D01*
X53721Y14720D01*
Y14530D01*
X53794Y14354D01*
X53929Y14219D01*
X54105Y14146D01*
X54295D01*
X54471Y14219D01*
X54553Y14300D01*
X54561Y14302D01*
X54599Y14310D01*
X54600Y14310D01*
X54601Y14311D01*
X54633Y14332D01*
X54665Y14354D01*
X54666Y14355D01*
X54667Y14356D01*
X54673Y14366D01*
X58875D01*
X58974Y14386D01*
X59058Y14442D01*
X69582Y24966D01*
X70376D01*
X70381Y24957D01*
X70383Y24956D01*
X70385Y24954D01*
X70416Y24933D01*
X70446Y24912D01*
X70449Y24911D01*
X70451Y24910D01*
X70488Y24902D01*
X70497Y24900D01*
X70579Y24819D01*
X70755Y24746D01*
X70870D01*
X70877Y24741D01*
X70909Y24720D01*
X70910Y24720D01*
X70911Y24719D01*
X70949Y24712D01*
X70987Y24704D01*
X70988Y24705D01*
X70989Y24704D01*
X71002Y24707D01*
X71798Y23911D01*
X71882Y23855D01*
X71981Y23835D01*
X85879D01*
X85879Y23835D01*
X85885Y23830D01*
X85889Y23824D01*
X85916Y23806D01*
X85941Y23785D01*
X85948Y23783D01*
X85954Y23779D01*
X85986Y23773D01*
X86005Y23767D01*
X86029Y23744D01*
X86205Y23671D01*
X86395D01*
X86571Y23744D01*
X86706Y23879D01*
X86779Y24055D01*
Y24245D01*
X86706Y24421D01*
X86571Y24556D01*
X86395Y24629D01*
X86205D01*
X86029Y24556D01*
X85894Y24421D01*
X85891Y24415D01*
X85888Y24415D01*
X85880Y24410D01*
X85870Y24408D01*
X85845Y24391D01*
X85819Y24376D01*
X85813Y24368D01*
X85805Y24363D01*
X85799Y24353D01*
X72088D01*
X71368Y25073D01*
X71370Y25083D01*
X71370Y25085D01*
X71370Y25088D01*
X71363Y25124D01*
X71357Y25161D01*
X71355Y25163D01*
X71355Y25166D01*
X71334Y25197D01*
X71329Y25205D01*
Y25320D01*
X71256Y25496D01*
X71175Y25578D01*
X71173Y25586D01*
X71165Y25624D01*
X71165Y25625D01*
X71164Y25626D01*
X71143Y25658D01*
X71121Y25690D01*
X71120Y25691D01*
X71119Y25692D01*
X71109Y25698D01*
Y37100D01*
X71089Y37199D01*
X71033Y37283D01*
X68408Y39908D01*
X68324Y39964D01*
X68225Y39984D01*
X67899D01*
X67894Y39993D01*
X67892Y39994D01*
X67890Y39996D01*
X67859Y40017D01*
X67829Y40038D01*
X67826Y40039D01*
X67824Y40041D01*
X67787Y40048D01*
X67778Y40050D01*
X67696Y40131D01*
X67520Y40204D01*
D02*
G37*
G36*
X105648Y20660D02*
Y19426D01*
X106881D01*
X106844Y19615D01*
X106730Y19888D01*
X106566Y20135D01*
X106356Y20344D01*
X106110Y20509D01*
X105836Y20622D01*
X105648Y20660D01*
D02*
G37*
G36*
X105148Y20660D02*
X104959Y20622D01*
X104685Y20509D01*
X104439Y20344D01*
X104229Y20135D01*
X104065Y19888D01*
X103951Y19615D01*
X103914Y19426D01*
X105148D01*
Y20660D01*
D02*
G37*
G36*
X100548Y20660D02*
Y19426D01*
X101781D01*
X101744Y19615D01*
X101630Y19888D01*
X101466Y20135D01*
X101256Y20344D01*
X101010Y20509D01*
X100736Y20622D01*
X100548Y20660D01*
D02*
G37*
G36*
X100048D02*
X99859Y20622D01*
X99585Y20509D01*
X99339Y20344D01*
X99129Y20135D01*
X98965Y19888D01*
X98851Y19615D01*
X98814Y19426D01*
X100048D01*
Y20660D01*
D02*
G37*
G36*
X30357Y21309D02*
X30045D01*
X29743Y21228D01*
X29473Y21072D01*
X29253Y20852D01*
X29097Y20581D01*
X29016Y20280D01*
Y19968D01*
X29097Y19667D01*
X29253Y19396D01*
X29473Y19176D01*
X29743Y19020D01*
X30045Y18939D01*
X30357D01*
X30658Y19020D01*
X30928Y19176D01*
X31149Y19396D01*
X31305Y19667D01*
X31386Y19968D01*
Y20280D01*
X31305Y20581D01*
X31149Y20852D01*
X30928Y21072D01*
X30658Y21228D01*
X30357Y21309D01*
D02*
G37*
G36*
X106881Y18926D02*
X105648D01*
Y17692D01*
X105836Y17730D01*
X106110Y17843D01*
X106356Y18008D01*
X106566Y18217D01*
X106730Y18464D01*
X106844Y18737D01*
X106881Y18926D01*
D02*
G37*
G36*
X101781Y18926D02*
X100548D01*
Y17692D01*
X100736Y17730D01*
X101010Y17843D01*
X101256Y18008D01*
X101466Y18217D01*
X101630Y18464D01*
X101744Y18737D01*
X101781Y18926D01*
D02*
G37*
G36*
X100048D02*
X98814D01*
X98851Y18737D01*
X98965Y18464D01*
X99129Y18217D01*
X99339Y18008D01*
X99585Y17843D01*
X99859Y17730D01*
X100048Y17692D01*
Y18926D01*
D02*
G37*
G36*
X105148Y18926D02*
X103914D01*
X103951Y18737D01*
X104065Y18464D01*
X104229Y18217D01*
X104439Y18008D01*
X104685Y17843D01*
X104959Y17730D01*
X105148Y17692D01*
Y18926D01*
D02*
G37*
G36*
X87443Y16684D02*
Y15450D01*
X88677D01*
X88640Y15639D01*
X88526Y15912D01*
X88362Y16159D01*
X88152Y16368D01*
X87906Y16533D01*
X87632Y16646D01*
X87443Y16684D01*
D02*
G37*
G36*
X86943D02*
X86755Y16646D01*
X86481Y16533D01*
X86235Y16368D01*
X86025Y16159D01*
X85860Y15912D01*
X85747Y15639D01*
X85710Y15450D01*
X86943D01*
Y16684D01*
D02*
G37*
G36*
X82343D02*
Y15450D01*
X83577D01*
X83539Y15639D01*
X83426Y15912D01*
X83262Y16159D01*
X83052Y16368D01*
X82806Y16533D01*
X82532Y16646D01*
X82343Y16684D01*
D02*
G37*
G36*
X81843D02*
X81655Y16646D01*
X81381Y16533D01*
X81135Y16368D01*
X80925Y16159D01*
X80760Y15912D01*
X80647Y15639D01*
X80610Y15450D01*
X81843D01*
Y16684D01*
D02*
G37*
G36*
X77756D02*
Y15450D01*
X78990D01*
X78952Y15639D01*
X78839Y15912D01*
X78674Y16159D01*
X78465Y16368D01*
X78218Y16533D01*
X77944Y16646D01*
X77756Y16684D01*
D02*
G37*
G36*
X77256D02*
X77067Y16646D01*
X76793Y16533D01*
X76547Y16368D01*
X76338Y16159D01*
X76173Y15912D01*
X76060Y15639D01*
X76022Y15450D01*
X77256D01*
Y16684D01*
D02*
G37*
G36*
X72656D02*
Y15450D01*
X73890D01*
X73852Y15639D01*
X73739Y15912D01*
X73574Y16159D01*
X73365Y16368D01*
X73118Y16533D01*
X72844Y16646D01*
X72656Y16684D01*
D02*
G37*
G36*
X72156D02*
X71967Y16646D01*
X71693Y16533D01*
X71447Y16368D01*
X71238Y16159D01*
X71073Y15912D01*
X70960Y15639D01*
X70922Y15450D01*
X72156D01*
Y16684D01*
D02*
G37*
G36*
X68068D02*
Y15450D01*
X69302D01*
X69264Y15639D01*
X69151Y15912D01*
X68987Y16159D01*
X68777Y16368D01*
X68531Y16533D01*
X68257Y16646D01*
X68068Y16684D01*
D02*
G37*
G36*
X67568D02*
X67380Y16646D01*
X67106Y16533D01*
X66860Y16368D01*
X66650Y16159D01*
X66485Y15912D01*
X66372Y15639D01*
X66335Y15450D01*
X67568D01*
Y16684D01*
D02*
G37*
G36*
X62968D02*
Y15450D01*
X64202D01*
X64164Y15639D01*
X64051Y15912D01*
X63887Y16159D01*
X63677Y16368D01*
X63431Y16533D01*
X63157Y16646D01*
X62968Y16684D01*
D02*
G37*
G36*
X62468D02*
X62280Y16646D01*
X62006Y16533D01*
X61760Y16368D01*
X61550Y16159D01*
X61385Y15912D01*
X61272Y15639D01*
X61235Y15450D01*
X62468D01*
Y16684D01*
D02*
G37*
G36*
X103016Y18334D02*
X102679D01*
X102349Y18268D01*
X102038Y18140D01*
X101759Y17953D01*
X101521Y17715D01*
X101334Y17435D01*
X101205Y17124D01*
X101140Y16794D01*
Y16458D01*
X101205Y16128D01*
X101334Y15817D01*
X101521Y15537D01*
X101759Y15299D01*
X102038Y15112D01*
X102349Y14984D01*
X102679Y14918D01*
X103016D01*
X103346Y14984D01*
X103657Y15112D01*
X103936Y15299D01*
X104174Y15537D01*
X104361Y15817D01*
X104490Y16128D01*
X104556Y16458D01*
Y16794D01*
X104490Y17124D01*
X104361Y17435D01*
X104174Y17715D01*
X103936Y17953D01*
X103657Y18140D01*
X103346Y18268D01*
X103016Y18334D01*
D02*
G37*
G36*
X105648Y15560D02*
Y14326D01*
X106881D01*
X106844Y14515D01*
X106730Y14788D01*
X106566Y15035D01*
X106356Y15244D01*
X106110Y15409D01*
X105836Y15522D01*
X105648Y15560D01*
D02*
G37*
G36*
X105148Y15560D02*
X104959Y15522D01*
X104685Y15409D01*
X104439Y15244D01*
X104229Y15035D01*
X104065Y14788D01*
X103951Y14515D01*
X103914Y14326D01*
X105148D01*
Y15560D01*
D02*
G37*
G36*
X100548Y15560D02*
Y14326D01*
X101781D01*
X101744Y14515D01*
X101630Y14788D01*
X101466Y15035D01*
X101256Y15244D01*
X101010Y15409D01*
X100736Y15522D01*
X100548Y15560D01*
D02*
G37*
G36*
X100048D02*
X99859Y15522D01*
X99585Y15409D01*
X99339Y15244D01*
X99129Y15035D01*
X98965Y14788D01*
X98851Y14515D01*
X98814Y14326D01*
X100048D01*
Y15560D01*
D02*
G37*
G36*
X88677Y14950D02*
X87443D01*
Y13716D01*
X87632Y13754D01*
X87906Y13867D01*
X88152Y14032D01*
X88362Y14241D01*
X88526Y14488D01*
X88640Y14761D01*
X88677Y14950D01*
D02*
G37*
G36*
X86943D02*
X85710D01*
X85747Y14761D01*
X85860Y14488D01*
X86025Y14241D01*
X86235Y14032D01*
X86481Y13867D01*
X86755Y13754D01*
X86943Y13716D01*
Y14950D01*
D02*
G37*
G36*
X83577D02*
X82343D01*
Y13716D01*
X82532Y13754D01*
X82806Y13867D01*
X83052Y14032D01*
X83262Y14241D01*
X83426Y14488D01*
X83539Y14761D01*
X83577Y14950D01*
D02*
G37*
G36*
X81843D02*
X80610D01*
X80647Y14761D01*
X80760Y14488D01*
X80925Y14241D01*
X81135Y14032D01*
X81381Y13867D01*
X81655Y13754D01*
X81843Y13716D01*
Y14950D01*
D02*
G37*
G36*
X78990D02*
X77756D01*
Y13716D01*
X77944Y13754D01*
X78218Y13867D01*
X78465Y14032D01*
X78674Y14241D01*
X78839Y14488D01*
X78952Y14761D01*
X78990Y14950D01*
D02*
G37*
G36*
X77256D02*
X76022D01*
X76060Y14761D01*
X76173Y14488D01*
X76338Y14241D01*
X76547Y14032D01*
X76793Y13867D01*
X77067Y13754D01*
X77256Y13716D01*
Y14950D01*
D02*
G37*
G36*
X73890D02*
X72656D01*
Y13716D01*
X72844Y13754D01*
X73118Y13867D01*
X73365Y14032D01*
X73574Y14241D01*
X73739Y14488D01*
X73852Y14761D01*
X73890Y14950D01*
D02*
G37*
G36*
X72156D02*
X70922D01*
X70960Y14761D01*
X71073Y14488D01*
X71238Y14241D01*
X71447Y14032D01*
X71693Y13867D01*
X71967Y13754D01*
X72156Y13716D01*
Y14950D01*
D02*
G37*
G36*
X69302D02*
X68068D01*
Y13716D01*
X68257Y13754D01*
X68531Y13867D01*
X68777Y14032D01*
X68987Y14241D01*
X69151Y14488D01*
X69264Y14761D01*
X69302Y14950D01*
D02*
G37*
G36*
X67568D02*
X66335D01*
X66372Y14761D01*
X66485Y14488D01*
X66650Y14241D01*
X66860Y14032D01*
X67106Y13867D01*
X67380Y13754D01*
X67568Y13716D01*
Y14950D01*
D02*
G37*
G36*
X64202D02*
X62968D01*
Y13716D01*
X63157Y13754D01*
X63431Y13867D01*
X63677Y14032D01*
X63887Y14241D01*
X64051Y14488D01*
X64164Y14761D01*
X64202Y14950D01*
D02*
G37*
G36*
X62468D02*
X61235D01*
X61272Y14761D01*
X61385Y14488D01*
X61550Y14241D01*
X61760Y14032D01*
X62006Y13867D01*
X62280Y13754D01*
X62468Y13716D01*
Y14950D01*
D02*
G37*
G36*
X106881Y13826D02*
X105648D01*
Y12592D01*
X105836Y12630D01*
X106110Y12743D01*
X106356Y12908D01*
X106566Y13117D01*
X106730Y13364D01*
X106844Y13637D01*
X106881Y13826D01*
D02*
G37*
G36*
X101781Y13826D02*
X100548D01*
Y12592D01*
X100736Y12630D01*
X101010Y12743D01*
X101256Y12908D01*
X101466Y13117D01*
X101630Y13364D01*
X101744Y13637D01*
X101781Y13826D01*
D02*
G37*
G36*
X100048D02*
X98814D01*
X98851Y13637D01*
X98965Y13364D01*
X99129Y13117D01*
X99339Y12908D01*
X99585Y12743D01*
X99859Y12630D01*
X100048Y12592D01*
Y13826D01*
D02*
G37*
G36*
X105148Y13826D02*
X103914D01*
X103951Y13637D01*
X104065Y13364D01*
X104229Y13117D01*
X104439Y12908D01*
X104685Y12743D01*
X104959Y12630D01*
X105148Y12592D01*
Y13826D01*
D02*
G37*
G36*
X84812Y14358D02*
X84475D01*
X84145Y14292D01*
X83834Y14164D01*
X83555Y13977D01*
X83317Y13739D01*
X83130Y13459D01*
X83001Y13148D01*
X82935Y12818D01*
Y12482D01*
X83001Y12152D01*
X83130Y11841D01*
X83317Y11561D01*
X83555Y11323D01*
X83834Y11136D01*
X84145Y11008D01*
X84475Y10942D01*
X84812D01*
X85142Y11008D01*
X85452Y11136D01*
X85732Y11323D01*
X85970Y11561D01*
X86157Y11841D01*
X86286Y12152D01*
X86351Y12482D01*
Y12818D01*
X86286Y13148D01*
X86157Y13459D01*
X85970Y13739D01*
X85732Y13977D01*
X85452Y14164D01*
X85142Y14292D01*
X84812Y14358D01*
D02*
G37*
G36*
X75124D02*
X74788D01*
X74458Y14292D01*
X74147Y14164D01*
X73867Y13977D01*
X73629Y13739D01*
X73442Y13459D01*
X73313Y13148D01*
X73248Y12818D01*
Y12482D01*
X73313Y12152D01*
X73442Y11841D01*
X73629Y11561D01*
X73867Y11323D01*
X74147Y11136D01*
X74458Y11008D01*
X74788Y10942D01*
X75124D01*
X75454Y11008D01*
X75765Y11136D01*
X76045Y11323D01*
X76282Y11561D01*
X76469Y11841D01*
X76598Y12152D01*
X76664Y12482D01*
Y12818D01*
X76598Y13148D01*
X76469Y13459D01*
X76282Y13739D01*
X76045Y13977D01*
X75765Y14164D01*
X75454Y14292D01*
X75124Y14358D01*
D02*
G37*
G36*
X65437D02*
X65100D01*
X64770Y14292D01*
X64459Y14164D01*
X64179Y13977D01*
X63942Y13739D01*
X63755Y13459D01*
X63626Y13148D01*
X63560Y12818D01*
Y12482D01*
X63626Y12152D01*
X63755Y11841D01*
X63942Y11561D01*
X64179Y11323D01*
X64459Y11136D01*
X64770Y11008D01*
X65100Y10942D01*
X65437D01*
X65767Y11008D01*
X66077Y11136D01*
X66357Y11323D01*
X66595Y11561D01*
X66782Y11841D01*
X66911Y12152D01*
X66976Y12482D01*
Y12818D01*
X66911Y13148D01*
X66782Y13459D01*
X66595Y13739D01*
X66357Y13977D01*
X66077Y14164D01*
X65767Y14292D01*
X65437Y14358D01*
D02*
G37*
G36*
X87443Y11584D02*
Y10350D01*
X88677D01*
X88640Y10539D01*
X88526Y10812D01*
X88362Y11059D01*
X88152Y11268D01*
X87906Y11433D01*
X87632Y11546D01*
X87443Y11584D01*
D02*
G37*
G36*
X86943D02*
X86755Y11546D01*
X86481Y11433D01*
X86235Y11268D01*
X86025Y11059D01*
X85860Y10812D01*
X85747Y10539D01*
X85710Y10350D01*
X86943D01*
Y11584D01*
D02*
G37*
G36*
X82343D02*
Y10350D01*
X83577D01*
X83539Y10539D01*
X83426Y10812D01*
X83262Y11059D01*
X83052Y11268D01*
X82806Y11433D01*
X82532Y11546D01*
X82343Y11584D01*
D02*
G37*
G36*
X81843D02*
X81655Y11546D01*
X81381Y11433D01*
X81135Y11268D01*
X80925Y11059D01*
X80760Y10812D01*
X80647Y10539D01*
X80610Y10350D01*
X81843D01*
Y11584D01*
D02*
G37*
G36*
X77756D02*
Y10350D01*
X78990D01*
X78952Y10539D01*
X78839Y10812D01*
X78674Y11059D01*
X78465Y11268D01*
X78218Y11433D01*
X77944Y11546D01*
X77756Y11584D01*
D02*
G37*
G36*
X77256D02*
X77067Y11546D01*
X76793Y11433D01*
X76547Y11268D01*
X76338Y11059D01*
X76173Y10812D01*
X76060Y10539D01*
X76022Y10350D01*
X77256D01*
Y11584D01*
D02*
G37*
G36*
X72656D02*
Y10350D01*
X73890D01*
X73852Y10539D01*
X73739Y10812D01*
X73574Y11059D01*
X73365Y11268D01*
X73118Y11433D01*
X72844Y11546D01*
X72656Y11584D01*
D02*
G37*
G36*
X72156D02*
X71967Y11546D01*
X71693Y11433D01*
X71447Y11268D01*
X71238Y11059D01*
X71073Y10812D01*
X70960Y10539D01*
X70922Y10350D01*
X72156D01*
Y11584D01*
D02*
G37*
G36*
X68068D02*
Y10350D01*
X69302D01*
X69264Y10539D01*
X69151Y10812D01*
X68987Y11059D01*
X68777Y11268D01*
X68531Y11433D01*
X68257Y11546D01*
X68068Y11584D01*
D02*
G37*
G36*
X67568D02*
X67380Y11546D01*
X67106Y11433D01*
X66860Y11268D01*
X66650Y11059D01*
X66485Y10812D01*
X66372Y10539D01*
X66335Y10350D01*
X67568D01*
Y11584D01*
D02*
G37*
G36*
X62968D02*
Y10350D01*
X64202D01*
X64164Y10539D01*
X64051Y10812D01*
X63887Y11059D01*
X63677Y11268D01*
X63431Y11433D01*
X63157Y11546D01*
X62968Y11584D01*
D02*
G37*
G36*
X62468D02*
X62280Y11546D01*
X62006Y11433D01*
X61760Y11268D01*
X61550Y11059D01*
X61385Y10812D01*
X61272Y10539D01*
X61235Y10350D01*
X62468D01*
Y11584D01*
D02*
G37*
G36*
X88677Y9850D02*
X87443D01*
Y8616D01*
X87632Y8654D01*
X87906Y8767D01*
X88152Y8932D01*
X88362Y9141D01*
X88526Y9388D01*
X88640Y9661D01*
X88677Y9850D01*
D02*
G37*
G36*
X86943D02*
X85710D01*
X85747Y9661D01*
X85860Y9388D01*
X86025Y9141D01*
X86235Y8932D01*
X86481Y8767D01*
X86755Y8654D01*
X86943Y8616D01*
Y9850D01*
D02*
G37*
G36*
X83577D02*
X82343D01*
Y8616D01*
X82532Y8654D01*
X82806Y8767D01*
X83052Y8932D01*
X83262Y9141D01*
X83426Y9388D01*
X83539Y9661D01*
X83577Y9850D01*
D02*
G37*
G36*
X81843D02*
X80610D01*
X80647Y9661D01*
X80760Y9388D01*
X80925Y9141D01*
X81135Y8932D01*
X81381Y8767D01*
X81655Y8654D01*
X81843Y8616D01*
Y9850D01*
D02*
G37*
G36*
X78990D02*
X77756D01*
Y8616D01*
X77944Y8654D01*
X78218Y8767D01*
X78465Y8932D01*
X78674Y9141D01*
X78839Y9388D01*
X78952Y9661D01*
X78990Y9850D01*
D02*
G37*
G36*
X77256D02*
X76022D01*
X76060Y9661D01*
X76173Y9388D01*
X76338Y9141D01*
X76547Y8932D01*
X76793Y8767D01*
X77067Y8654D01*
X77256Y8616D01*
Y9850D01*
D02*
G37*
G36*
X73890D02*
X72656D01*
Y8616D01*
X72844Y8654D01*
X73118Y8767D01*
X73365Y8932D01*
X73574Y9141D01*
X73739Y9388D01*
X73852Y9661D01*
X73890Y9850D01*
D02*
G37*
G36*
X72156D02*
X70922D01*
X70960Y9661D01*
X71073Y9388D01*
X71238Y9141D01*
X71447Y8932D01*
X71693Y8767D01*
X71967Y8654D01*
X72156Y8616D01*
Y9850D01*
D02*
G37*
G36*
X69302D02*
X68068D01*
Y8616D01*
X68257Y8654D01*
X68531Y8767D01*
X68777Y8932D01*
X68987Y9141D01*
X69151Y9388D01*
X69264Y9661D01*
X69302Y9850D01*
D02*
G37*
G36*
X67568D02*
X66335D01*
X66372Y9661D01*
X66485Y9388D01*
X66650Y9141D01*
X66860Y8932D01*
X67106Y8767D01*
X67380Y8654D01*
X67568Y8616D01*
Y9850D01*
D02*
G37*
G36*
X64202D02*
X62968D01*
Y8616D01*
X63157Y8654D01*
X63431Y8767D01*
X63677Y8932D01*
X63887Y9141D01*
X64051Y9388D01*
X64164Y9661D01*
X64202Y9850D01*
D02*
G37*
G36*
X62468D02*
X61235D01*
X61272Y9661D01*
X61385Y9388D01*
X61550Y9141D01*
X61760Y8932D01*
X62006Y8767D01*
X62280Y8654D01*
X62468Y8616D01*
Y9850D01*
D02*
G37*
G36*
X101285Y6820D02*
X100965D01*
X100652Y6758D01*
X100358Y6636D01*
X100092Y6458D01*
X99867Y6233D01*
X99689Y5967D01*
X99567Y5673D01*
X99505Y5360D01*
Y5040D01*
X99567Y4727D01*
X99689Y4433D01*
X99867Y4167D01*
X100092Y3942D01*
X100358Y3764D01*
X100652Y3642D01*
X100965Y3580D01*
X101285D01*
X101598Y3642D01*
X101892Y3764D01*
X102158Y3942D01*
X102383Y4167D01*
X102561Y4433D01*
X102683Y4727D01*
X102745Y5040D01*
Y5360D01*
X102683Y5673D01*
X102561Y5967D01*
X102383Y6233D01*
X102158Y6458D01*
X101892Y6636D01*
X101598Y6758D01*
X101285Y6820D01*
D02*
G37*
G36*
X47485D02*
X47165D01*
X46852Y6758D01*
X46558Y6636D01*
X46292Y6458D01*
X46067Y6233D01*
X45889Y5967D01*
X45767Y5673D01*
X45705Y5360D01*
Y5040D01*
X45767Y4727D01*
X45889Y4433D01*
X46067Y4167D01*
X46292Y3942D01*
X46558Y3764D01*
X46852Y3642D01*
X47165Y3580D01*
X47485D01*
X47798Y3642D01*
X48092Y3764D01*
X48358Y3942D01*
X48583Y4167D01*
X48761Y4433D01*
X48883Y4727D01*
X48945Y5040D01*
Y5360D01*
X48883Y5673D01*
X48761Y5967D01*
X48583Y6233D01*
X48358Y6458D01*
X48092Y6636D01*
X47798Y6758D01*
X47485Y6820D01*
D02*
G37*
%LPD*%
G36*
X112950Y70382D02*
X112943Y70387D01*
X112935Y70391D01*
X112924Y70395D01*
X112911Y70399D01*
X112896Y70402D01*
X112860Y70406D01*
X112839Y70407D01*
X112790Y70408D01*
X112770Y70662D01*
X112795Y70662D01*
X112858Y70668D01*
X112875Y70671D01*
X112890Y70674D01*
X112902Y70679D01*
X112913Y70684D01*
X112922Y70690D01*
X112929Y70696D01*
X112950Y70382D01*
D02*
G37*
G36*
X111217Y70683D02*
X111226Y70679D01*
X111237Y70675D01*
X111250Y70671D01*
X111265Y70668D01*
X111301Y70664D01*
X111322Y70663D01*
X111370Y70662D01*
X111391Y70408D01*
X111366Y70408D01*
X111303Y70402D01*
X111286Y70399D01*
X111271Y70396D01*
X111258Y70391D01*
X111247Y70386D01*
X111238Y70380D01*
X111232Y70374D01*
X111211Y70688D01*
X111217Y70683D01*
D02*
G37*
G36*
X76645Y49812D02*
X76650Y49749D01*
X76653Y49732D01*
X76656Y49717D01*
X76660Y49704D01*
X76664Y49693D01*
X76670Y49684D01*
X76675Y49677D01*
X76360D01*
X76366Y49684D01*
X76371Y49693D01*
X76376Y49704D01*
X76380Y49717D01*
X76383Y49732D01*
X76386Y49749D01*
X76390Y49789D01*
X76391Y49837D01*
X76645D01*
X76645Y49812D01*
D02*
G37*
G36*
X81472Y53663D02*
X77161Y49352D01*
X77044Y49401D01*
X76997Y49440D01*
Y49612D01*
X76924Y49788D01*
X76843Y49869D01*
X76841Y49878D01*
X76833Y49915D01*
X76833Y49917D01*
X76832Y49918D01*
X76811Y49950D01*
X76789Y49982D01*
X76788Y49982D01*
X76787Y49983D01*
X76777Y49990D01*
Y50961D01*
X79657Y53841D01*
X81398D01*
X81472Y53663D01*
D02*
G37*
G36*
X75651Y49062D02*
X75660Y49057D01*
X75671Y49053D01*
X75684Y49049D01*
X75699Y49045D01*
X75716Y49043D01*
X75756Y49039D01*
X75804Y49038D01*
Y48784D01*
X75779Y48783D01*
X75716Y48779D01*
X75699Y48776D01*
X75684Y48773D01*
X75671Y48769D01*
X75660Y48764D01*
X75651Y48759D01*
X75644Y48753D01*
Y49068D01*
X75651Y49062D01*
D02*
G37*
G36*
X109182Y45833D02*
X109175Y45837D01*
X109167Y45841D01*
X109156Y45844D01*
X109143Y45847D01*
X109128Y45850D01*
X109092Y45853D01*
X109048Y45855D01*
X109023Y45856D01*
X108990Y46110D01*
X109015Y46110D01*
X109078Y46115D01*
X109095Y46119D01*
X109109Y46123D01*
X109122Y46127D01*
X109133Y46133D01*
X109142Y46139D01*
X109149Y46146D01*
X109182Y45833D01*
D02*
G37*
G36*
X95888Y45921D02*
X95814Y45743D01*
X94567D01*
X94257Y45434D01*
X86028Y53663D01*
X86102Y53841D01*
X87968D01*
X95888Y45921D01*
D02*
G37*
G36*
X110037Y45027D02*
X110030Y45031D01*
X110022Y45035D01*
X110011Y45038D01*
X109999Y45040D01*
X109984Y45043D01*
X109948Y45046D01*
X109904Y45048D01*
X109879Y45048D01*
X109837Y45302D01*
X109862Y45302D01*
X109906Y45305D01*
X109925Y45308D01*
X109941Y45311D01*
X109956Y45315D01*
X109969Y45320D01*
X109980Y45326D01*
X109988Y45332D01*
X109995Y45339D01*
X110037Y45027D01*
D02*
G37*
G36*
X47799Y38024D02*
X47796Y38024D01*
X47788Y38025D01*
X47552Y38026D01*
X47547Y38280D01*
X47572Y38280D01*
X47615Y38283D01*
X47633Y38286D01*
X47649Y38290D01*
X47663Y38295D01*
X47675Y38301D01*
X47685Y38307D01*
X47692Y38314D01*
X47697Y38322D01*
X47799Y38024D01*
D02*
G37*
G36*
X40224Y38304D02*
X40233Y38299D01*
X40244Y38295D01*
X40257Y38291D01*
X40272Y38287D01*
X40289Y38284D01*
X40329Y38281D01*
X40377Y38280D01*
Y38026D01*
X40352Y38025D01*
X40289Y38021D01*
X40272Y38018D01*
X40257Y38015D01*
X40244Y38011D01*
X40233Y38006D01*
X40224Y38001D01*
X40217Y37995D01*
Y38310D01*
X40224Y38304D01*
D02*
G37*
G36*
X49014Y37707D02*
X49004Y37708D01*
X48993Y37706D01*
X48982Y37703D01*
X48969Y37698D01*
X48956Y37690D01*
X48941Y37681D01*
X48926Y37670D01*
X48893Y37641D01*
X48875Y37624D01*
X48733Y37841D01*
X48751Y37859D01*
X48813Y37930D01*
X48820Y37940D01*
X48826Y37949D01*
X48829Y37957D01*
X48831Y37964D01*
X49014Y37707D01*
D02*
G37*
G36*
X40373Y35778D02*
X40355Y35760D01*
X40314Y35712D01*
X40304Y35698D01*
X40295Y35685D01*
X40289Y35673D01*
X40285Y35662D01*
X40282Y35652D01*
X40281Y35643D01*
X40058Y35866D01*
X40067Y35867D01*
X40077Y35869D01*
X40088Y35874D01*
X40100Y35880D01*
X40113Y35888D01*
X40127Y35899D01*
X40158Y35924D01*
X40193Y35957D01*
X40373Y35778D01*
D02*
G37*
G36*
X109753Y75126D02*
X109748Y75117D01*
X109744Y75106D01*
X109740Y75093D01*
X109736Y75078D01*
X109733Y75061D01*
X109730Y75021D01*
X109729Y74973D01*
X109475D01*
X109474Y74998D01*
X109470Y75061D01*
X109467Y75078D01*
X109464Y75093D01*
X109460Y75106D01*
X109455Y75117D01*
X109450Y75126D01*
X109444Y75133D01*
X109759D01*
X109753Y75126D01*
D02*
G37*
G36*
X109930Y34928D02*
X109912Y34910D01*
X109884Y34877D01*
X109872Y34862D01*
X109863Y34848D01*
X109856Y34834D01*
X109850Y34822D01*
X109847Y34810D01*
X109846Y34800D01*
X109846Y34790D01*
X109590Y34972D01*
X109596Y34974D01*
X109604Y34978D01*
X109613Y34983D01*
X109624Y34990D01*
X109648Y35010D01*
X109678Y35037D01*
X109713Y35070D01*
X109930Y34928D01*
D02*
G37*
G36*
X84897Y50861D02*
X84888Y50860D01*
X84878Y50857D01*
X84867Y50853D01*
X84855Y50846D01*
X84842Y50838D01*
X84828Y50828D01*
X84797Y50802D01*
X84762Y50769D01*
X84583Y50949D01*
X84600Y50967D01*
X84642Y51014D01*
X84652Y51028D01*
X84660Y51041D01*
X84666Y51053D01*
X84671Y51064D01*
X84674Y51074D01*
X84674Y51084D01*
X84897Y50861D01*
D02*
G37*
G36*
X84451Y51429D02*
X84485Y51337D01*
X84420Y51181D01*
Y51066D01*
X84416Y51059D01*
X84394Y51027D01*
X84394Y51026D01*
X84394Y51025D01*
X84386Y50987D01*
X84379Y50949D01*
X84379Y50948D01*
X84379Y50946D01*
X84382Y50934D01*
X83068Y49621D01*
X82904Y49689D01*
Y49865D01*
X82302D01*
Y48911D01*
X82175D01*
Y48784D01*
X81446D01*
Y48425D01*
X81301Y48307D01*
X81279Y48309D01*
X81127Y48351D01*
X81126Y48353D01*
X81037Y48448D01*
X81010Y48482D01*
X81000Y48496D01*
Y49811D01*
X80296D01*
X80228Y49975D01*
X81768Y51515D01*
X84400D01*
X84451Y51429D01*
D02*
G37*
G36*
X80780Y48553D02*
X80773Y48530D01*
X80773Y48504D01*
X80781Y48473D01*
X80796Y48439D01*
X80817Y48401D01*
X80846Y48360D01*
X80883Y48315D01*
X80977Y48214D01*
X80797Y48034D01*
X80745Y48085D01*
X80651Y48164D01*
X80610Y48193D01*
X80572Y48215D01*
X80538Y48230D01*
X80507Y48237D01*
X80480Y48238D01*
X80457Y48231D01*
X80438Y48217D01*
X80794Y48573D01*
X80780Y48553D01*
D02*
G37*
G36*
X81082Y48108D02*
X81173Y48029D01*
X81177Y48027D01*
X80907Y47866D01*
X80908Y47875D01*
X80908Y47886D01*
X80905Y47898D01*
X80900Y47910D01*
X80893Y47924D01*
X80884Y47938D01*
X80873Y47953D01*
X80860Y47969D01*
X80827Y48004D01*
X81064Y48126D01*
X81082Y48108D01*
D02*
G37*
G36*
X82226Y47612D02*
X82221Y47603D01*
X82216Y47592D01*
X82212Y47579D01*
X82209Y47564D01*
X82206Y47547D01*
X82203Y47507D01*
X82201Y47459D01*
X81947D01*
X81947Y47484D01*
X81943Y47547D01*
X81940Y47564D01*
X81937Y47579D01*
X81933Y47592D01*
X81928Y47603D01*
X81923Y47612D01*
X81917Y47619D01*
X82232D01*
X82226Y47612D01*
D02*
G37*
G36*
X81352Y47472D02*
X81159Y47456D01*
X81352D01*
X81353Y47407D01*
X81357Y47364D01*
X81363Y47326D01*
X81371Y47293D01*
X81382Y47265D01*
X81395Y47242D01*
X81411Y47224D01*
X81429Y47212D01*
X81449Y47204D01*
X81472Y47202D01*
X80978D01*
X81001Y47204D01*
X81021Y47212D01*
X81039Y47224D01*
X81055Y47242D01*
X81068Y47265D01*
X81079Y47293D01*
X81087Y47326D01*
X81093Y47364D01*
X81097Y47407D01*
X81098Y47453D01*
X81098Y47475D01*
X81094Y47518D01*
X81091Y47536D01*
X81087Y47552D01*
X81083Y47565D01*
X81077Y47576D01*
X81071Y47584D01*
X81063Y47591D01*
X81055Y47595D01*
X81335Y47731D01*
X81352Y47472D01*
D02*
G37*
G36*
X80697Y45618D02*
X80772Y45558D01*
X80850Y45505D01*
X80931Y45459D01*
X81015Y45420D01*
X81102Y45388D01*
X81192Y45363D01*
X81284Y45346D01*
X81380Y45335D01*
X81479Y45332D01*
X81625Y44832D01*
X81530Y44827D01*
X81445Y44812D01*
X81370Y44787D01*
X81305Y44752D01*
X81250Y44707D01*
X81205Y44652D01*
X81170Y44587D01*
X81145Y44512D01*
X81130Y44427D01*
X81125Y44332D01*
X80625Y44478D01*
X80621Y44577D01*
X80611Y44672D01*
X80593Y44765D01*
X80568Y44855D01*
X80537Y44942D01*
X80498Y45025D01*
X80452Y45106D01*
X80399Y45184D01*
X80339Y45260D01*
X80271Y45332D01*
X80625Y45685D01*
X80697Y45618D01*
D02*
G37*
%LPC*%
G36*
X82048Y49865D02*
X81446D01*
Y49038D01*
X82048D01*
Y49865D01*
D02*
G37*
%LPD*%
G36*
X67593Y39877D02*
X67602Y39872D01*
X67613Y39867D01*
X67626Y39863D01*
X67641Y39860D01*
X67658Y39857D01*
X67698Y39853D01*
X67746Y39852D01*
Y39598D01*
X67721Y39598D01*
X67658Y39593D01*
X67641Y39590D01*
X67626Y39587D01*
X67613Y39583D01*
X67602Y39579D01*
X67593Y39573D01*
X67586Y39568D01*
Y39883D01*
X67593Y39877D01*
D02*
G37*
G36*
X70977Y25521D02*
X70982Y25458D01*
X70985Y25441D01*
X70988Y25426D01*
X70992Y25413D01*
X70996Y25402D01*
X71002Y25393D01*
X71007Y25386D01*
X70692D01*
X70698Y25393D01*
X70703Y25402D01*
X70708Y25413D01*
X70712Y25426D01*
X70715Y25441D01*
X70718Y25458D01*
X70722Y25498D01*
X70723Y25546D01*
X70977D01*
X70977Y25521D01*
D02*
G37*
G36*
X70689Y25067D02*
X70682Y25073D01*
X70673Y25078D01*
X70662Y25083D01*
X70649Y25087D01*
X70634Y25090D01*
X70617Y25093D01*
X70577Y25097D01*
X70529Y25098D01*
Y25352D01*
X70554Y25352D01*
X70617Y25357D01*
X70634Y25360D01*
X70649Y25363D01*
X70662Y25367D01*
X70673Y25371D01*
X70682Y25377D01*
X70689Y25382D01*
Y25067D01*
D02*
G37*
G36*
X71076Y25214D02*
X71078Y25204D01*
X71083Y25193D01*
X71089Y25181D01*
X71098Y25168D01*
X71108Y25154D01*
X71133Y25123D01*
X71166Y25088D01*
X70987Y24908D01*
X70969Y24926D01*
X70921Y24967D01*
X70907Y24977D01*
X70894Y24985D01*
X70882Y24992D01*
X70871Y24996D01*
X70861Y24999D01*
X70852Y25000D01*
X71075Y25223D01*
X71076Y25214D01*
D02*
G37*
G36*
X86183Y23957D02*
X86179Y23959D01*
X86172Y23961D01*
X86163Y23962D01*
X86138Y23965D01*
X86083Y23967D01*
X86034Y23967D01*
X85951Y24221D01*
X85976Y24221D01*
X86020Y24225D01*
X86038Y24228D01*
X86055Y24231D01*
X86069Y24236D01*
X86081Y24241D01*
X86091Y24248D01*
X86099Y24255D01*
X86105Y24263D01*
X86183Y23957D01*
D02*
G37*
G36*
X54368Y14777D02*
X54377Y14772D01*
X54388Y14767D01*
X54401Y14763D01*
X54416Y14760D01*
X54433Y14757D01*
X54473Y14753D01*
X54521Y14752D01*
Y14498D01*
X54496Y14498D01*
X54433Y14493D01*
X54416Y14490D01*
X54401Y14487D01*
X54388Y14483D01*
X54377Y14478D01*
X54368Y14473D01*
X54361Y14467D01*
Y14783D01*
X54368Y14777D01*
D02*
G37*
D12*
X82074Y48810D02*
X82175Y48911D01*
X82074Y47780D02*
Y48810D01*
X82342Y46047D02*
Y46047D01*
X82491Y46196D01*
X82576D02*
X82981Y46601D01*
X82491Y46196D02*
X82576D01*
X82219Y45924D02*
X82342Y46047D01*
X81272Y45971D02*
X81319Y45924D01*
X81272Y45971D02*
Y46908D01*
X81225Y46955D02*
X81272Y46908D01*
X82981Y49167D02*
X84899Y51086D01*
X82981Y47650D02*
Y49167D01*
Y46601D02*
Y47650D01*
X111473Y36651D02*
Y68146D01*
X109602Y70017D02*
Y75294D01*
Y70017D02*
X111473Y68146D01*
X94150Y45175D02*
X110145D01*
X110175Y45204D01*
X109625Y34803D02*
X111473Y36651D01*
X109625Y34750D02*
Y34803D01*
X109301Y45983D02*
X109325Y46006D01*
X96192Y45983D02*
X109301D01*
X85789Y53536D02*
X94150Y45175D01*
X88075Y54100D02*
X96192Y45983D01*
X79550Y54100D02*
X88075D01*
X81711Y53536D02*
X85789D01*
X76518Y51068D02*
X79550Y54100D01*
X77086Y48911D02*
X81711Y53536D01*
X75483Y48911D02*
X77086D01*
X76518Y49517D02*
Y51068D01*
X111076Y70535D02*
X113085D01*
X113100Y70550D01*
X111061Y70520D02*
X111076Y70535D01*
X67425Y39725D02*
X68225D01*
X70850Y25225D02*
Y37100D01*
X68225Y39725D02*
X70850Y37100D01*
X58875Y14625D02*
X69475Y25225D01*
X54200Y14625D02*
X58875D01*
X69475Y25225D02*
X70850D01*
X71981Y24094D02*
X86191D01*
X70850Y25225D02*
X71981Y24094D01*
X86247Y24150D02*
X86300D01*
X86191Y24094D02*
X86247Y24150D01*
X48647Y37575D02*
X49000Y37929D01*
X49054D01*
X41990Y37575D02*
X48647D01*
X40056Y35641D02*
X41990Y37575D01*
X47775Y38153D02*
X47847Y38225D01*
X40056Y38153D02*
X47775D01*
X47847Y38225D02*
X47900D01*
X80325Y48686D02*
X81087Y47924D01*
Y47846D02*
X81124Y47809D01*
X80325Y48686D02*
Y48911D01*
X81087Y47846D02*
Y47924D01*
X81225Y46955D02*
Y47655D01*
X81124Y47756D02*
X81225Y47655D01*
X81124Y47756D02*
Y47809D01*
X82074Y47226D02*
Y47780D01*
X82102Y47078D02*
Y47199D01*
X82074Y47226D02*
X82102Y47199D01*
Y47078D02*
X82225Y46955D01*
D17*
D03*
X81225D02*
D03*
X82219Y45924D02*
D03*
X81319D02*
D03*
D18*
X82175Y48911D02*
D03*
X80325D02*
D03*
D73*
X82093Y10100D02*
D03*
Y15200D02*
D03*
X87193D02*
D03*
Y10100D02*
D03*
X72406D02*
D03*
Y15200D02*
D03*
X77506D02*
D03*
Y10100D02*
D03*
X57817Y70975D02*
D03*
Y65875D02*
D03*
X62917D02*
D03*
Y70975D02*
D03*
X105398Y57275D02*
D03*
X100298D02*
D03*
Y62375D02*
D03*
X105398D02*
D03*
X67818Y10100D02*
D03*
Y15200D02*
D03*
X62718D02*
D03*
Y10100D02*
D03*
X67203Y70975D02*
D03*
Y65875D02*
D03*
X72303D02*
D03*
Y70975D02*
D03*
X105398Y52812D02*
D03*
X100298D02*
D03*
Y47712D02*
D03*
X105398D02*
D03*
Y43249D02*
D03*
X100298D02*
D03*
Y38149D02*
D03*
X105398D02*
D03*
Y19176D02*
D03*
X100298D02*
D03*
Y14076D02*
D03*
X105398D02*
D03*
X85976Y70975D02*
D03*
Y65875D02*
D03*
X91076D02*
D03*
Y70975D02*
D03*
X76589D02*
D03*
Y65875D02*
D03*
X81689D02*
D03*
Y70975D02*
D03*
D80*
X81556Y52027D02*
X85166D01*
X95152Y40722D02*
Y41661D01*
X89179Y47634D02*
X95152Y41661D01*
X89179Y47634D02*
Y48014D01*
X85166Y52027D02*
X89179Y48014D01*
X95219Y39680D02*
Y40656D01*
X95152Y40722D02*
X95219Y40656D01*
X77525Y47996D02*
X81556Y52027D01*
X77525Y47675D02*
Y47996D01*
X112977Y36673D02*
Y65440D01*
X114262Y66725D01*
X114500D01*
X112977Y36673D02*
X114920Y34730D01*
Y26358D02*
Y34730D01*
X114737Y26175D02*
X114920Y26358D01*
X95219Y39680D02*
X107424Y27475D01*
X76575Y47700D02*
X76600Y47675D01*
X77525D01*
X111626Y26175D02*
X114737D01*
X111100D02*
X111626D01*
X109800Y27475D02*
X111100Y26175D01*
X107424Y27475D02*
X109800D01*
X33920Y29674D02*
Y29870D01*
Y28178D02*
Y29674D01*
X36172Y30575D02*
X46558D01*
X34625D02*
X36172D01*
X63622Y41150D02*
X63701Y41229D01*
X57133Y41150D02*
X63622D01*
X46558Y30575D02*
X57133Y41150D01*
X34646Y17642D02*
Y27452D01*
X33920Y29870D02*
X34625Y30575D01*
X33920Y28178D02*
X34646Y27452D01*
D81*
X82232Y45507D02*
Y45910D01*
X82219Y45924D02*
X82232Y45910D01*
X81807Y45082D02*
X82232Y45507D01*
X80875Y45082D02*
X81807D01*
X62368Y30600D02*
X65500D01*
X62368D02*
Y34013D01*
Y30293D02*
Y30600D01*
X52675Y52925D02*
X57828Y47772D01*
X60785D01*
X63007Y45550D02*
X69650D01*
X60785Y47772D02*
X63007Y45550D01*
X65719Y38044D02*
Y38968D01*
X65238Y36883D02*
Y37563D01*
X65719Y38044D01*
Y38968D02*
X66200Y39449D01*
Y39975D01*
X69650Y43425D01*
Y45550D01*
X62368Y34013D02*
X65238Y36883D01*
X52875Y20800D02*
X62368Y30293D01*
X80875Y40902D02*
X86200Y35577D01*
X85725Y30450D02*
X86050Y30775D01*
Y33765D01*
X86200Y33915D02*
Y35577D01*
X86050Y33765D02*
X86200Y33915D01*
X80875Y40902D02*
Y45082D01*
X80407Y45550D02*
X80875Y45082D01*
X69650Y45550D02*
X80407D01*
D83*
X84643Y12650D02*
D03*
X74956D02*
D03*
X102848Y50262D02*
D03*
Y40699D02*
D03*
Y16626D02*
D03*
X88526Y68425D02*
D03*
X79139D02*
D03*
X65268Y12650D02*
D03*
X60367Y68425D02*
D03*
X69753D02*
D03*
X102848Y59825D02*
D03*
D84*
X114800Y76963D02*
D03*
X116850Y72863D02*
D03*
Y31863D02*
D03*
X110700Y76963D02*
D03*
X112750Y72863D02*
D03*
Y23663D02*
D03*
X110700Y19563D02*
D03*
X112750Y15463D02*
D03*
X110700Y11363D02*
D03*
X112750Y7263D02*
D03*
X110700Y3163D02*
D03*
X106600Y76963D02*
D03*
X108650Y72863D02*
D03*
Y64663D02*
D03*
X106600Y60563D02*
D03*
Y35963D02*
D03*
X108650Y23663D02*
D03*
Y15463D02*
D03*
X106600Y11363D02*
D03*
X108650Y7263D02*
D03*
X106600Y3163D02*
D03*
X102500Y76963D02*
D03*
X104550Y72863D02*
D03*
X102500Y68763D02*
D03*
X104550Y64663D02*
D03*
X102500Y52363D02*
D03*
Y44163D02*
D03*
Y35963D02*
D03*
X104550Y31863D02*
D03*
X102500Y27763D02*
D03*
X104550Y23663D02*
D03*
X102500Y19563D02*
D03*
Y11363D02*
D03*
X104550Y7263D02*
D03*
X102500Y3163D02*
D03*
X98400Y76963D02*
D03*
Y68763D02*
D03*
X100450Y64663D02*
D03*
X98400Y52363D02*
D03*
Y44163D02*
D03*
X100450Y31863D02*
D03*
Y23663D02*
D03*
X98400Y19563D02*
D03*
Y11363D02*
D03*
X100450Y7263D02*
D03*
X98400Y3163D02*
D03*
X94300Y76963D02*
D03*
X96350Y72863D02*
D03*
X94300Y68763D02*
D03*
X96350Y64663D02*
D03*
X94300Y60563D02*
D03*
X96350Y56463D02*
D03*
Y48263D02*
D03*
X94300Y44163D02*
D03*
Y35963D02*
D03*
X96350Y31863D02*
D03*
Y23663D02*
D03*
X94300Y11363D02*
D03*
X96350Y7263D02*
D03*
X94300Y3163D02*
D03*
X90200Y76963D02*
D03*
X92250Y72863D02*
D03*
X90200Y60563D02*
D03*
X92250Y56463D02*
D03*
X90200Y44163D02*
D03*
Y35963D02*
D03*
X92250Y31863D02*
D03*
X90200Y27763D02*
D03*
Y19563D02*
D03*
X92250Y15463D02*
D03*
X90200Y11363D02*
D03*
X92250Y7263D02*
D03*
X90200Y3163D02*
D03*
X86100Y76963D02*
D03*
X88150Y72863D02*
D03*
X86100Y68763D02*
D03*
X88150Y56463D02*
D03*
X86100Y52363D02*
D03*
Y44163D02*
D03*
X88150Y23663D02*
D03*
X86100Y19563D02*
D03*
X88150Y7263D02*
D03*
X86100Y3163D02*
D03*
X82000Y76963D02*
D03*
X84050Y72863D02*
D03*
X82000Y68763D02*
D03*
X84050Y64663D02*
D03*
Y48263D02*
D03*
Y40063D02*
D03*
X82000Y35963D02*
D03*
X84050Y31863D02*
D03*
Y7263D02*
D03*
X82000Y3163D02*
D03*
X77900Y76963D02*
D03*
X79950Y72863D02*
D03*
X77900Y44163D02*
D03*
Y35963D02*
D03*
X79950Y31863D02*
D03*
X77900Y27763D02*
D03*
Y19563D02*
D03*
X79950Y15463D02*
D03*
Y7263D02*
D03*
X77900Y3163D02*
D03*
X73800Y76963D02*
D03*
X75850Y72863D02*
D03*
X73800Y68763D02*
D03*
X75850Y56463D02*
D03*
X73800Y44163D02*
D03*
X75850Y40063D02*
D03*
X73800Y27763D02*
D03*
Y19563D02*
D03*
X75850Y7263D02*
D03*
X73800Y3163D02*
D03*
X69700Y76963D02*
D03*
X71750Y72863D02*
D03*
Y40063D02*
D03*
X69700Y35963D02*
D03*
X71750Y31863D02*
D03*
X69700Y11363D02*
D03*
X71750Y7263D02*
D03*
X69700Y3163D02*
D03*
X65600Y76963D02*
D03*
X67650Y72863D02*
D03*
X65600Y68763D02*
D03*
Y60563D02*
D03*
Y35963D02*
D03*
Y19563D02*
D03*
X67650Y7263D02*
D03*
X65600Y3163D02*
D03*
X61500Y76963D02*
D03*
X63550Y72863D02*
D03*
X61500Y44163D02*
D03*
X63550Y40063D02*
D03*
X61500Y35963D02*
D03*
X63550Y31863D02*
D03*
X61500Y19563D02*
D03*
Y11363D02*
D03*
X63550Y7263D02*
D03*
X61500Y3163D02*
D03*
X57400Y76963D02*
D03*
X59450Y72863D02*
D03*
X57400Y68763D02*
D03*
X59450Y64663D02*
D03*
X57400Y60563D02*
D03*
X59450Y40063D02*
D03*
X57400Y35963D02*
D03*
Y27763D02*
D03*
X59450Y23663D02*
D03*
X57400Y19563D02*
D03*
Y11363D02*
D03*
X59450Y7263D02*
D03*
X57400Y3163D02*
D03*
X53300Y76963D02*
D03*
X55350Y72863D02*
D03*
X53300Y68763D02*
D03*
X55350Y64663D02*
D03*
X53300Y60563D02*
D03*
X55350Y56463D02*
D03*
Y48263D02*
D03*
X53300Y44163D02*
D03*
X55350Y31863D02*
D03*
X53300Y27763D02*
D03*
X55350Y15463D02*
D03*
Y7263D02*
D03*
X53300Y3163D02*
D03*
X49200Y76963D02*
D03*
X51250Y72863D02*
D03*
X49200Y68763D02*
D03*
X51250Y64663D02*
D03*
X49200Y60563D02*
D03*
X51250Y56463D02*
D03*
Y48263D02*
D03*
X49200Y44163D02*
D03*
Y35963D02*
D03*
Y27763D02*
D03*
X51250Y23663D02*
D03*
Y7263D02*
D03*
X49200Y3163D02*
D03*
X45100Y76963D02*
D03*
Y68763D02*
D03*
X47150Y64663D02*
D03*
X45100Y60563D02*
D03*
X47150Y56463D02*
D03*
Y23663D02*
D03*
X45100Y11363D02*
D03*
X47150Y7263D02*
D03*
X45100Y3163D02*
D03*
X43050Y72863D02*
D03*
X41000Y68763D02*
D03*
X43050Y64663D02*
D03*
X41000Y60563D02*
D03*
X43050Y56463D02*
D03*
X41000Y52363D02*
D03*
X43050Y48263D02*
D03*
X41000Y44163D02*
D03*
X43050Y40063D02*
D03*
Y15463D02*
D03*
X41000Y11363D02*
D03*
X43050Y7263D02*
D03*
X41000Y3163D02*
D03*
X36900Y76963D02*
D03*
X38950Y72863D02*
D03*
Y64663D02*
D03*
Y56463D02*
D03*
Y48263D02*
D03*
Y40063D02*
D03*
Y31863D02*
D03*
X36900Y11363D02*
D03*
X38950Y7263D02*
D03*
X36900Y3163D02*
D03*
X34850Y31863D02*
D03*
X32800Y27763D02*
D03*
Y19563D02*
D03*
X34850Y15463D02*
D03*
X32800Y11363D02*
D03*
X34850Y7263D02*
D03*
X32800Y3163D02*
D03*
X84274Y54706D02*
D03*
X73157Y57185D02*
D03*
X78608Y58916D02*
D03*
X59476Y63883D02*
D03*
X80046Y63695D02*
D03*
X73157Y58635D02*
D03*
X75532Y55840D02*
D03*
X79354Y60971D02*
D03*
X69737Y52362D02*
D03*
X79428Y57170D02*
D03*
X87618Y62121D02*
D03*
X83518Y61307D02*
D03*
X71343Y58875D02*
D03*
X66023Y54493D02*
D03*
X70409Y63474D02*
D03*
X72637Y52318D02*
D03*
X70373Y54508D02*
D03*
X65652Y57857D02*
D03*
X89433Y64163D02*
D03*
X78403Y56145D02*
D03*
X32875Y23889D02*
D03*
X36395Y27518D02*
D03*
X35000Y29060D02*
D03*
X40831Y29332D02*
D03*
X42781D02*
D03*
X49693Y31776D02*
D03*
X53830Y35913D02*
D03*
X52451Y34534D02*
D03*
X51072Y33155D02*
D03*
X48314Y30397D02*
D03*
X65375Y39725D02*
D03*
X60591Y42670D02*
D03*
X59116Y46335D02*
D03*
X56929Y44138D02*
D03*
X55241Y41994D02*
D03*
X53081Y39836D02*
D03*
X51555Y43576D02*
D03*
X58500Y51325D02*
D03*
X58350Y52975D02*
D03*
X62625Y60912D02*
D03*
X58175D02*
D03*
X67025Y60711D02*
D03*
X71475Y60950D02*
D03*
X75137Y58525D02*
D03*
X75124Y62975D02*
D03*
X85500Y58175D02*
D03*
Y62625D02*
D03*
X81079Y56955D02*
D03*
X45226Y22775D02*
D03*
X49982Y20041D02*
D03*
X53837Y13557D02*
D03*
X55787D02*
D03*
X57737D02*
D03*
X59687D02*
D03*
X60816Y11743D02*
D03*
X58866D02*
D03*
X56916D02*
D03*
X54966D02*
D03*
X48030Y12687D02*
D03*
X47343Y14512D02*
D03*
X49293Y14526D02*
D03*
X37442Y16838D02*
D03*
X41082Y19761D02*
D03*
X71802Y54755D02*
D03*
X70157Y59135D02*
D03*
X80453Y58195D02*
D03*
X68923Y54493D02*
D03*
X70467Y56269D02*
D03*
X81479Y59221D02*
D03*
X78232Y64016D02*
D03*
X65388Y52318D02*
D03*
X78305Y59970D02*
D03*
X89433Y62713D02*
D03*
X61307Y57982D02*
D03*
X74087Y52318D02*
D03*
X75327Y53069D02*
D03*
X61291Y63782D02*
D03*
X89428Y61263D02*
D03*
X73228Y54132D02*
D03*
X62752Y57857D02*
D03*
X63123Y54493D02*
D03*
X88574Y60091D02*
D03*
X61673Y54493D02*
D03*
X71776Y60259D02*
D03*
X76558Y56866D02*
D03*
X58043Y57446D02*
D03*
X72801Y61284D02*
D03*
X61038Y52318D02*
D03*
X64573Y54493D02*
D03*
X79633Y59942D02*
D03*
X76352Y54094D02*
D03*
X58595Y53647D02*
D03*
X77583Y57891D02*
D03*
X71343Y57425D02*
D03*
X70409Y64924D02*
D03*
X80046Y62245D02*
D03*
X62488Y52318D02*
D03*
X87618Y63571D02*
D03*
X59620Y52622D02*
D03*
X68288Y52318D02*
D03*
X74507Y54815D02*
D03*
X70157Y57685D02*
D03*
X78232Y62566D02*
D03*
X63938Y52318D02*
D03*
X68594Y64385D02*
D03*
X80659Y60967D02*
D03*
X67473Y54493D02*
D03*
X82068Y61307D02*
D03*
X66838Y52318D02*
D03*
X77378Y55120D02*
D03*
X82903Y59493D02*
D03*
X64202Y57857D02*
D03*
X95578Y59061D02*
D03*
X96957Y60440D02*
D03*
X98885Y60732D02*
D03*
X70824Y38504D02*
D03*
X75126Y34557D02*
D03*
X77038Y34944D02*
D03*
X79989Y32575D02*
D03*
X81726Y25116D02*
D03*
X78049Y29068D02*
D03*
X69867Y36693D02*
D03*
X67917D02*
D03*
X65967D02*
D03*
X64017D02*
D03*
X62067D02*
D03*
X60117D02*
D03*
X58167D02*
D03*
X56385Y35902D02*
D03*
X55006Y34523D02*
D03*
X53627Y33144D02*
D03*
X52248Y31765D02*
D03*
X50869Y30386D02*
D03*
X49490Y29007D02*
D03*
X48090Y27650D02*
D03*
X46145Y27518D02*
D03*
X44195D02*
D03*
X42245D02*
D03*
X40295D02*
D03*
X38345D02*
D03*
X36931Y29332D02*
D03*
X38881D02*
D03*
X44731D02*
D03*
X46681D02*
D03*
X55208Y37291D02*
D03*
X56737Y38503D02*
D03*
X58687Y38507D02*
D03*
X60637D02*
D03*
X62587D02*
D03*
X64537D02*
D03*
X66487D02*
D03*
X68437D02*
D03*
X85804Y21429D02*
D03*
X85127Y19601D02*
D03*
X84543Y17741D02*
D03*
X81743Y18461D02*
D03*
X63097Y31443D02*
D03*
X67846Y24506D02*
D03*
X66029Y25213D02*
D03*
X52353Y27569D02*
D03*
X50974Y26191D02*
D03*
X49126Y25567D02*
D03*
X47176D02*
D03*
X45226D02*
D03*
X43276D02*
D03*
X41326D02*
D03*
X50494Y28277D02*
D03*
X51873Y29656D02*
D03*
X53791Y30007D02*
D03*
X59193Y31226D02*
D03*
X70529Y21752D02*
D03*
X71981Y19507D02*
D03*
X73801Y18807D02*
D03*
X75180Y17428D02*
D03*
X71269Y17693D02*
D03*
X69321Y17780D02*
D03*
X96654Y51380D02*
D03*
X98592Y51169D02*
D03*
X97878Y49355D02*
D03*
X95938Y49547D02*
D03*
X94550Y50917D02*
D03*
X93172Y52297D02*
D03*
X92507Y48514D02*
D03*
X91440Y46882D02*
D03*
X89892Y45695D02*
D03*
X87942Y45693D02*
D03*
X85992Y45693D02*
D03*
X84042Y45693D02*
D03*
X83282Y43897D02*
D03*
X84477Y42356D02*
D03*
X86257Y41559D02*
D03*
X90156Y41607D02*
D03*
X96006Y41607D02*
D03*
X97956D02*
D03*
X98265Y39792D02*
D03*
X96315D02*
D03*
X94365D02*
D03*
X88515Y39793D02*
D03*
X86565Y39848D02*
D03*
X84615Y39828D02*
D03*
X83151Y41116D02*
D03*
X83592Y39216D02*
D03*
X84970Y37838D02*
D03*
X86349Y36459D02*
D03*
X87728Y35080D02*
D03*
X89107Y33701D02*
D03*
X90486Y32322D02*
D03*
X91865Y30943D02*
D03*
X93546Y29956D02*
D03*
X93807Y28024D02*
D03*
X94394Y20314D02*
D03*
X95773Y18935D02*
D03*
X97152Y17556D02*
D03*
X99102Y17533D02*
D03*
X98347Y15719D02*
D03*
X96400Y15813D02*
D03*
X94986Y17156D02*
D03*
X93607Y18535D02*
D03*
X92229Y19915D02*
D03*
X91993Y25751D02*
D03*
Y27701D02*
D03*
X90916Y29326D02*
D03*
X89537Y30705D02*
D03*
X88158Y32084D02*
D03*
X86779Y33463D02*
D03*
X85400Y34842D02*
D03*
X84021Y36221D02*
D03*
X82642Y37600D02*
D03*
X81264Y38978D02*
D03*
X79992Y40457D02*
D03*
X79968Y42406D02*
D03*
Y44356D02*
D03*
X84258Y47507D02*
D03*
X86208Y47507D02*
D03*
X88158Y47507D02*
D03*
X90033Y48041D02*
D03*
X90713Y53776D02*
D03*
X91052Y55696D02*
D03*
X92937Y56196D02*
D03*
X94199Y57682D02*
D03*
X79424Y52930D02*
D03*
X83824Y52930D02*
D03*
X58800Y58403D02*
D03*
X67650Y58217D02*
D03*
X73838Y56455D02*
D03*
X54294Y56436D02*
D03*
X63675Y27900D02*
D03*
X69400Y27925D02*
D03*
X69775Y30600D02*
D03*
X69625Y32250D02*
D03*
X63525Y25250D02*
D03*
X70850Y24000D02*
D03*
X54200Y15825D02*
D03*
X53400Y17975D02*
D03*
X55025Y16725D02*
D03*
X45575Y15750D02*
D03*
X86300Y25350D02*
D03*
X87200Y26350D02*
D03*
X85525Y27425D02*
D03*
X79150Y27975D02*
D03*
X47075Y18450D02*
D03*
X78975Y25350D02*
D03*
X78746Y35169D02*
D03*
X60100Y32950D02*
D03*
X77561Y20250D02*
D03*
X77572Y24700D02*
D03*
X61425Y21400D02*
D03*
Y25850D02*
D03*
X55900Y26875D02*
D03*
Y31325D02*
D03*
X43175Y13025D02*
D03*
X40056Y23955D02*
D03*
X36540Y23945D02*
D03*
X40056Y21384D02*
D03*
X32925Y21364D02*
D03*
X36500Y21414D02*
D03*
X40574Y14913D02*
D03*
X36124D02*
D03*
X43228Y23479D02*
D03*
X39265Y17013D02*
D03*
X40056Y33084D02*
D03*
X36625Y33125D02*
D03*
X44843Y35532D02*
D03*
X98281Y58918D02*
D03*
X96769Y57686D02*
D03*
X95390Y56307D02*
D03*
X95275Y52758D02*
D03*
X107929Y26190D02*
D03*
Y66710D02*
D03*
X99075Y29125D02*
D03*
X99925D02*
D03*
X100575Y26550D02*
D03*
X64709Y44805D02*
D03*
X107025Y66700D02*
D03*
X106975Y26175D02*
D03*
X64709Y43905D02*
D03*
X101325Y25125D02*
D03*
X68300Y43730D02*
D03*
X66900Y44305D02*
D03*
X84299Y49505D02*
D03*
X82074Y47780D02*
D03*
X95294Y53775D02*
D03*
X95300Y55125D02*
D03*
X87300Y48200D02*
D03*
X94500Y26725D02*
D03*
X110175Y45204D02*
D03*
X109325Y46006D02*
D03*
X76518Y49517D02*
D03*
X109602Y75294D02*
D03*
X109625Y34750D02*
D03*
X112977Y65440D02*
D03*
X113100Y70550D02*
D03*
X111061Y70520D02*
D03*
X114500Y66725D02*
D03*
X111626Y26175D02*
D03*
X84899Y51086D02*
D03*
X76575Y47700D02*
D03*
X114737Y26175D02*
D03*
X75483Y48911D02*
D03*
X77525Y47675D02*
D03*
X67425Y39725D02*
D03*
X69650Y45550D02*
D03*
X33920Y29674D02*
D03*
X36172Y30575D02*
D03*
X63701Y41229D02*
D03*
X65500Y30600D02*
D03*
X49054Y37929D02*
D03*
X34650Y19825D02*
D03*
X34646Y17642D02*
D03*
X51975Y37200D02*
D03*
X50554Y39429D02*
D03*
X44625Y44778D02*
D03*
X41175Y77750D02*
D03*
X43699Y32849D02*
D03*
X45950Y39180D02*
D03*
X60785Y47772D02*
D03*
X47900Y38225D02*
D03*
X40056Y38153D02*
D03*
Y35641D02*
D03*
X85725Y30450D02*
D03*
X86300Y24150D02*
D03*
X52875Y20800D02*
D03*
X54200Y14625D02*
D03*
X66175Y32250D02*
D03*
X70850Y25225D02*
D03*
X52675Y52925D02*
D03*
X81124Y47809D02*
D03*
M02*
