M48
;Layer_Color=9474304
;FILE_FORMAT=4:3
METRIC,TZ
;TYPE=PLATED
T1F00S00C0.300
T2F00S00C1.400
T3F00S00C1.500
%
T01
X80000Y14463
X84000Y14463
X88000Y14463
X92000Y14463
X96000Y14463
X98000Y18463
X102000Y18463
X106000Y18463
X110000Y18463
X114000Y18463
X112000Y22463
X108000Y22463
X107929Y26190
X106975Y26175
X107931Y28730
X111730Y28730
X111739Y31270
X111767Y33810
X109629Y34875
X109000Y32325
X100459Y32593
X100000Y30463
X96000Y30463
X95772Y33593
X95911Y35407
X96000Y38463
X100000Y38463
X100609Y36380
X102085Y34425
X102000Y26463
X98000Y26463
X94000Y26463
X90000Y26463
X86000Y26463
X82000Y26463
X80225Y25000
X80000Y22463
X81625Y22400
X84000Y22463
X87400Y22625
X92000Y22463
X96000Y22463
X100000Y22463
X104000Y22463
X104000Y14463
X108000Y14463
X112000Y14463
X111716Y26190
X114517Y26190
X114517Y28730
X116000Y30463
X118000Y34463
X114000Y42463
X114000Y50463
X102085Y51725
X100609Y53680
X100459Y49893
X100000Y46463
X96000Y46463
X92000Y46463
X88000Y46463
X86300Y47689
X84075Y47471
X82450Y47025
X82450Y49225
X82775Y50575
X81491Y50092
X84550Y50400
X86150Y50896
X86150Y52715
X88561Y52737
X88423Y50832
X89400Y50200
X90872Y50893
X91011Y52707
X95911Y52707
X95772Y50893
X93650Y49675
X94000Y42463
X98000Y42463
X102000Y42463
X90000Y42463
X86000Y42463
X82000Y42463
X80000Y46463
X79800Y47275
X79775Y53100
X81286Y53531
X80000Y38463
X79775Y35800
X81286Y36231
X81489Y32856
X82775Y33275
X82450Y31925
X82450Y29725
X84075Y30171
X86300Y30389
X88000Y30463
X88423Y33532
X89400Y32900
X90872Y33593
X91011Y35407
X88561Y35437
X86150Y35415
X86150Y33596
X84550Y33100
X84550Y36625
X84000Y38463
X88000Y38463
X92000Y38463
X93650Y36625
X93657Y32275
X92000Y30463
X79800Y29975
X82000Y18463
X86000Y18463
X90000Y18463
X94000Y18463
X78000Y18463
X74000Y18463
X73300Y21300
X73600Y23975
X72954Y25625
X70000Y26463
X70550Y24150
X66421Y24875
X65775Y26550
X67330Y27150
X68049Y29193
X70499Y29193
X69762Y31007
X70500Y32662
X70132Y33968
X71850Y33275
X73950Y34075
X74021Y32331
X75021Y32833
X75800Y33925
X75800Y37450
X76000Y38463
X73957Y36556
X71250Y36176
X71850Y37775
X67800Y37500
X67925Y38725
X68409Y35780
X67189Y34175
X66075Y34625
X66050Y36450
X62084Y37419
X61684Y33557
X62412Y31007
X64862Y31007
X67312Y31007
X65599Y29193
X63149Y29193
X60699Y29193
X58249Y29193
X57512Y31007
X59962Y31007
X58000Y34463
X56219Y35360
X55982Y37798
X56000Y38463
X55982Y40248
X54168Y40953
X54168Y38503
X52000Y38463
X48000Y38463
X49652Y40835
X47569Y42125
X46000Y42463
X49652Y44665
X53263Y43657
X54478Y45785
X56199Y45143
X56298Y47425
X58742Y47607
X58646Y45251
X58000Y42463
X56056Y42697
X60430Y43572
X62000Y42463
X62731Y44415
X65179Y44509
X66000Y42463
X70000Y42463
X69692Y46131
X72000Y46463
X71555Y47722
X70224Y48957
X70000Y50463
X70132Y51268
X71850Y50575
X73000Y50000
X74000Y50463
X73950Y51375
X75800Y51225
X75021Y50133
X75120Y47685
X76000Y46463
X77532Y47257
X78000Y42463
X74000Y42463
X67266Y45793
X68179Y47607
X65768Y47176
X63489Y48075
X61060Y48399
X61684Y50857
X66000Y50463
X66075Y51925
X67189Y51475
X68409Y53080
X66050Y53750
X71250Y53476
X78836Y53531
X78836Y36231
X77532Y29957
X75120Y30385
X72701Y30268
X78000Y26463
X78825Y22400
X76000Y22463
X76000Y14463
X72000Y14463
X70275Y16091
X69754Y17760
X68000Y14463
X66150Y16100
X64000Y14463
X60000Y14463
X56000Y14463
X58000Y18463
X62000Y18463
X60000Y22463
X64000Y22463
X67450Y21300
X62000Y26463
X58000Y26463
X54000Y26463
X50000Y26463
X46000Y26463
X40899Y26199
X40022Y26190
X40020Y28730
X40035Y31270
X40044Y33810
X46000Y34463
X50000Y34463
X52950Y33021
X54201Y31170
X52000Y30463
X48000Y30463
X48000Y22463
X52000Y22463
X56000Y22463
X54000Y18463
X52025Y16650
X50000Y18463
X46000Y18463
X42000Y18463
X40000Y22463
X44000Y22463
X44000Y14463
X40000Y14463
X55802Y29316
X54168Y36053
X54000Y50463
X50000Y50463
X46000Y50463
X36000Y46463
X36000Y38463
X36184Y33810
X36212Y31270
X36221Y28730
X36235Y26190
X33010Y26190
X33010Y28730
X32000Y30463
X36000Y22463
X38000Y18463
X36000Y14463
X36000Y54463
X35450Y67200
X34250Y67225
X34225Y69700
X35625Y69700
X36212Y71270
X36184Y73810
X40035Y71270
X40020Y68730
X40022Y66190
X40890Y66190
X41939Y64147
X42625Y62109
X44000Y62463
X43275Y60361
X46000Y58463
X44000Y54463
X48000Y54463
X52000Y54463
X56000Y54463
X58000Y58463
X62000Y58463
X62084Y54719
X67800Y54800
X68500Y56625
X70000Y58463
X74000Y58463
X78000Y58463
X75800Y54750
X73957Y53856
X71850Y55075
X72000Y62463
X76000Y62463
X79225Y64075
X78575Y66650
X77725Y66650
X74000Y66463
X70000Y66463
X66000Y66463
X65700Y65217
X64471Y65200
X64000Y62463
X60000Y62463
X56775Y62275
X52000Y62463
X50550Y62256
X50550Y63050
X54000Y66463
X58000Y66463
X62000Y66463
X60000Y70463
X58375Y72775
X58375Y75392
X58398Y77655
X63784Y76825
X63784Y75335
X63781Y72775
X64000Y70463
X68000Y70463
X72000Y70463
X76000Y70463
X74594Y74715
X69188Y73925
X68071Y64216
X67171Y64216
X67571Y62025
X66996Y60625
X66000Y58463
X54000Y58463
X52000Y70463
X56000Y70463
X44000Y70463
X44781Y67742
X45746Y67742
X46000Y66463
X42000Y74463
X79997Y72775
X80000Y70463
X80565Y67742
X82000Y66463
X86000Y66463
X90000Y66463
X94000Y66463
X98000Y66463
X102000Y66463
X101850Y67742
X100975Y67742
X100975Y63600
X100975Y62726
X100000Y62463
X104000Y62463
X106350Y64100
X108250Y63175
X110550Y62750
X107929Y66710
X107025Y66700
X107931Y69250
X108000Y70463
X107916Y71790
X104000Y70463
X96000Y70463
X92875Y71350
X88000Y70463
X84000Y70463
X84000Y62463
X88000Y62463
X92000Y62463
X96000Y62463
X98000Y58463
X94000Y58463
X90000Y58463
X85450Y59300
X82000Y58463
X80000Y54463
X84000Y54463
X84529Y53925
X88000Y54463
X92000Y54463
X93650Y53925
X100000Y54463
X114000Y58463
X114050Y67500
X112675Y67500
X112350Y70025
X114125Y70000
X113150Y72575
X111767Y74330
X118000Y74463
X118000Y66463
X79975Y62650
T02
X100150Y34500
X100150Y51800
X61675Y52825
X61675Y35525
X49400Y42750
T03
X97600Y31950
X97600Y37050
X102700Y37050
X102700Y31950
X102700Y49250
X97600Y49250
X64225Y50275
X59125Y50275
X51950Y45300
X51950Y40200
X46850Y40200
X46850Y45300
X59125Y38075
X64225Y38075
X64225Y32975
X59125Y32975
X59125Y55375
X64225Y55375
X97600Y54350
X102700Y54350
M30
