G04*
G04 #@! TF.GenerationSoftware,Altium Limited,Altium Designer,23.0.1 (38)*
G04*
G04 Layer_Color=8388736*
%FSLAX43Y43*%
%MOMM*%
G71*
G04*
G04 #@! TF.SameCoordinates,389A4634-ECA2-436D-B02D-3AC99B3800AC*
G04*
G04*
G04 #@! TF.FilePolarity,Negative*
G04*
G01*
G75*
%ADD13C,1.203*%
%ADD14C,1.703*%
D13*
X26607Y57277D02*
D03*
X34671D02*
D03*
X37717Y42291D02*
D03*
X38442Y53721D02*
D03*
X38381Y57250D02*
D03*
X36957Y38473D02*
D03*
X30861Y57277D02*
D03*
X37719Y46101D02*
D03*
X40506Y44831D02*
D03*
X41502Y27024D02*
D03*
D14*
X32004Y37211D02*
D03*
X29464D02*
D03*
X32004Y39751D02*
D03*
X29464D02*
D03*
X32004Y42291D02*
D03*
X29464D02*
D03*
X32004Y44831D02*
D03*
X29464D02*
D03*
X32004Y47371D02*
D03*
X29464D02*
D03*
X46482Y35941D02*
D03*
Y53721D02*
D03*
X43942D02*
D03*
X46482Y51181D02*
D03*
X43942D02*
D03*
X46482Y48641D02*
D03*
X43942D02*
D03*
X46482Y46101D02*
D03*
X43942D02*
D03*
X46482Y43561D02*
D03*
X43942D02*
D03*
X46482Y41021D02*
D03*
X43942D02*
D03*
X46482Y38481D02*
D03*
X43942D02*
D03*
Y35941D02*
D03*
X46482Y33401D02*
D03*
X43942D02*
D03*
X46482Y30861D02*
D03*
X43942D02*
D03*
M02*
