G04*
G04 #@! TF.GenerationSoftware,Altium Limited,Altium Designer,23.0.1 (38)*
G04*
G04 Layer_Color=65535*
%FSLAX43Y43*%
%MOMM*%
G71*
G04*
G04 #@! TF.SameCoordinates,389A4634-ECA2-436D-B02D-3AC99B3800AC*
G04*
G04*
G04 #@! TF.FilePolarity,Positive*
G04*
G01*
G75*
%ADD10C,0.200*%
%ADD11C,0.254*%
G36*
X36068Y43625D02*
X34914D01*
Y41084D01*
X36068D01*
Y43625D01*
D02*
G37*
G36*
X42212Y40715D02*
X40269D01*
X41704Y40273D01*
Y40019D01*
X40334Y39586D01*
X42212D01*
Y39168D01*
X39212D01*
Y39596D01*
X40971Y40146D01*
X39212Y40715D01*
Y41124D01*
X42212D01*
Y40715D01*
D02*
G37*
G36*
X39645Y38021D02*
X39212D01*
Y38881D01*
X39645D01*
Y38021D01*
D02*
G37*
G36*
X42212D02*
X41779D01*
Y37785D01*
X42212D01*
Y37569D01*
X39212D01*
Y37785D01*
X39645D01*
Y38021D01*
X40505D01*
Y38778D01*
X40938D01*
Y38021D01*
X40505D01*
Y37785D01*
X40938D01*
Y38021D01*
X41779D01*
Y38881D01*
X42212D01*
Y38021D01*
D02*
G37*
G36*
X41596Y37174D02*
X41653Y37170D01*
X41714Y37155D01*
X41779Y37141D01*
X41845Y37118D01*
X41911Y37090D01*
X41916Y37085D01*
X41939Y37076D01*
X41968Y37052D01*
X42000Y37024D01*
X42043Y36986D01*
X42080Y36944D01*
X42123Y36892D01*
X42156Y36831D01*
X42160Y36822D01*
X42170Y36803D01*
X42184Y36765D01*
X42198Y36718D01*
X42212Y36657D01*
X42226Y36587D01*
X42236Y36507D01*
X42240Y36422D01*
Y36384D01*
X42236Y36337D01*
X42231Y36281D01*
X42221Y36220D01*
X42203Y36149D01*
X42184Y36079D01*
X42156Y36013D01*
X42151Y36004D01*
X42141Y35985D01*
X42118Y35957D01*
X42094Y35919D01*
X42057Y35877D01*
X42015Y35834D01*
X41968Y35792D01*
X41911Y35754D01*
X41902Y35750D01*
X41883Y35740D01*
X41845Y35726D01*
X41798Y35712D01*
X41742Y35693D01*
X41676Y35679D01*
X41601Y35670D01*
X41516Y35665D01*
X39908D01*
X39904D01*
X39899D01*
X39871D01*
X39828Y35670D01*
X39772Y35674D01*
X39711Y35689D01*
X39645Y35703D01*
X39579Y35726D01*
X39513Y35754D01*
X39504Y35759D01*
X39485Y35773D01*
X39457Y35792D01*
X39419Y35820D01*
X39382Y35858D01*
X39339Y35900D01*
X39297Y35952D01*
X39264Y36013D01*
X39259Y36022D01*
X39250Y36046D01*
X39236Y36079D01*
X39222Y36131D01*
X39208Y36192D01*
X39194Y36257D01*
X39184Y36337D01*
X39180Y36422D01*
Y36464D01*
X39184Y36507D01*
X39189Y36563D01*
X39198Y36629D01*
X39217Y36695D01*
X39236Y36765D01*
X39264Y36831D01*
X39269Y36840D01*
X39278Y36859D01*
X39302Y36887D01*
X39325Y36925D01*
X39363Y36967D01*
X39405Y37010D01*
X39457Y37052D01*
X39513Y37090D01*
X39523Y37094D01*
X39542Y37104D01*
X39579Y37118D01*
X39626Y37137D01*
X39683Y37151D01*
X39748Y37165D01*
X39824Y37174D01*
X39908Y37179D01*
X41516D01*
X41521D01*
X41526D01*
X41554D01*
X41596Y37174D01*
D02*
G37*
G36*
X40491Y35063D02*
X40068D01*
Y34617D01*
X39447D01*
Y35063D01*
X40068D01*
Y35359D01*
X40491D01*
Y35063D01*
D02*
G37*
G36*
X42221Y35120D02*
X42217Y35101D01*
X42212Y35054D01*
X42203Y34993D01*
X42188Y34927D01*
X42160Y34861D01*
X42127Y34795D01*
X42080Y34744D01*
X42076Y34739D01*
X42052Y34725D01*
X42019Y34701D01*
X41972Y34682D01*
X41916Y34659D01*
X41841Y34635D01*
X41756Y34621D01*
X41657Y34617D01*
X40491D01*
Y34410D01*
X40068D01*
Y34617D01*
X40491D01*
Y35063D01*
X41615D01*
X41620D01*
X41629D01*
X41643D01*
X41662Y35068D01*
X41704Y35077D01*
X41742Y35101D01*
X41751Y35110D01*
X41765Y35129D01*
X41779Y35162D01*
X41789Y35209D01*
Y35359D01*
X42221D01*
Y35120D01*
D02*
G37*
G36*
X41676Y34264D02*
X41723Y34259D01*
X41775Y34250D01*
X41831Y34231D01*
X41892Y34212D01*
X41949Y34184D01*
X41953Y34179D01*
X41972Y34170D01*
X41996Y34151D01*
X42029Y34128D01*
X42062Y34095D01*
X42099Y34052D01*
X42132Y34005D01*
X42165Y33954D01*
X42170Y33949D01*
X42174Y33930D01*
X42188Y33897D01*
X42203Y33855D01*
X42217Y33803D01*
X42226Y33747D01*
X42236Y33681D01*
X42240Y33606D01*
Y33573D01*
X42236Y33535D01*
X42231Y33488D01*
X42221Y33437D01*
X42207Y33375D01*
X42188Y33314D01*
X42165Y33258D01*
X42160Y33253D01*
X42151Y33234D01*
X42132Y33206D01*
X42109Y33173D01*
X42076Y33136D01*
X42038Y33098D01*
X41991Y33060D01*
X41939Y33028D01*
X41935Y33023D01*
X41911Y33013D01*
X41883Y33004D01*
X41841Y32990D01*
X41789Y32971D01*
X41732Y32962D01*
X41667Y32952D01*
X41596Y32948D01*
X41568D01*
Y33380D01*
X41591D01*
X41596D01*
X41610D01*
X41629Y33385D01*
X41657Y33390D01*
X41718Y33408D01*
X41747Y33422D01*
X41775Y33441D01*
X41779Y33446D01*
X41784Y33451D01*
X41794Y33465D01*
X41808Y33484D01*
X41822Y33507D01*
X41831Y33535D01*
X41836Y33568D01*
X41841Y33606D01*
Y33625D01*
X41836Y33643D01*
X41831Y33667D01*
X41812Y33723D01*
X41798Y33752D01*
X41779Y33775D01*
X41775Y33780D01*
X41765Y33784D01*
X41751Y33794D01*
X41732Y33808D01*
X41709Y33817D01*
X41676Y33827D01*
X41643Y33831D01*
X41605Y33836D01*
X41601D01*
X41591D01*
X41577D01*
X41563Y33831D01*
X41521Y33817D01*
X41479Y33794D01*
X41474D01*
X41469Y33789D01*
X41450Y33766D01*
X41422Y33737D01*
X41399Y33695D01*
Y33690D01*
X41394Y33686D01*
X41385Y33672D01*
X41375Y33653D01*
X41366Y33629D01*
X41352Y33601D01*
X41338Y33563D01*
X41323Y33526D01*
X41319Y33521D01*
X41314Y33502D01*
X41309Y33493D01*
X41305Y33474D01*
X41300Y33469D01*
Y33460D01*
X41295Y33455D01*
Y33451D01*
X41291Y33446D01*
X41286Y33427D01*
X41272Y33404D01*
X41258Y33371D01*
X41239Y33333D01*
X41220Y33291D01*
X41173Y33211D01*
X41168Y33206D01*
X41159Y33197D01*
X41145Y33178D01*
X41121Y33154D01*
X41093Y33126D01*
X41060Y33098D01*
X41023Y33070D01*
X40980Y33042D01*
X40975Y33037D01*
X40957Y33032D01*
X40928Y33023D01*
X40891Y33009D01*
X40849Y32995D01*
X40792Y32985D01*
X40731Y32980D01*
X40665Y32976D01*
X40656D01*
X40632D01*
X40599Y32980D01*
X40552Y32985D01*
X40501Y32995D01*
X40444Y33009D01*
X40388Y33028D01*
X40331Y33051D01*
X40327Y33056D01*
X40308Y33065D01*
X40280Y33084D01*
X40247Y33107D01*
X40214Y33136D01*
X40176Y33173D01*
X40143Y33216D01*
X40110Y33263D01*
X40106Y33267D01*
X40096Y33286D01*
X40087Y33319D01*
X40068Y33357D01*
X40054Y33404D01*
X40045Y33460D01*
X40035Y33526D01*
X40030Y33592D01*
Y33625D01*
X40035Y33658D01*
X40040Y33705D01*
X40049Y33752D01*
X40063Y33808D01*
X40082Y33864D01*
X40106Y33916D01*
X40110Y33921D01*
X40120Y33940D01*
X40139Y33963D01*
X40162Y33996D01*
X40190Y34029D01*
X40228Y34067D01*
X40270Y34099D01*
X40322Y34132D01*
X40327Y34137D01*
X40345Y34146D01*
X40374Y34156D01*
X40411Y34170D01*
X40463Y34184D01*
X40515Y34198D01*
X40581Y34203D01*
X40646Y34208D01*
X40670D01*
X40675Y33775D01*
X40646D01*
X40642D01*
X40628D01*
X40613Y33770D01*
X40590D01*
X40538Y33752D01*
X40515Y33742D01*
X40491Y33723D01*
X40487D01*
X40482Y33714D01*
X40463Y33690D01*
X40444Y33648D01*
X40435Y33620D01*
Y33578D01*
X40440Y33563D01*
X40444Y33545D01*
X40458Y33498D01*
X40477Y33474D01*
X40496Y33455D01*
X40501D01*
X40505Y33446D01*
X40519Y33441D01*
X40538Y33432D01*
X40562Y33422D01*
X40590Y33418D01*
X40660Y33408D01*
X40665D01*
X40675D01*
X40689D01*
X40708Y33413D01*
X40755Y33422D01*
X40802Y33446D01*
X40811Y33455D01*
X40830Y33474D01*
X40858Y33507D01*
X40886Y33549D01*
Y33554D01*
X40891Y33563D01*
X40900Y33578D01*
X40905Y33596D01*
X40914Y33620D01*
X40928Y33648D01*
X40952Y33719D01*
Y33723D01*
X40957Y33728D01*
Y33742D01*
X40961D01*
Y33752D01*
X40966Y33761D01*
X40971Y33780D01*
X40980Y33808D01*
X40999Y33846D01*
X41013Y33888D01*
X41037Y33930D01*
X41055Y33973D01*
X41079Y34015D01*
X41084Y34020D01*
X41088Y34034D01*
X41107Y34052D01*
X41126Y34076D01*
X41149Y34104D01*
X41182Y34137D01*
X41220Y34165D01*
X41267Y34194D01*
X41272Y34198D01*
X41291Y34208D01*
X41319Y34217D01*
X41356Y34231D01*
X41403Y34245D01*
X41464Y34259D01*
X41530Y34264D01*
X41605Y34269D01*
X41615D01*
X41638D01*
X41676Y34264D01*
D02*
G37*
G36*
X42212Y32177D02*
X41949D01*
X41977Y32162D01*
X42071Y32115D01*
X42113Y32083D01*
X42151Y32050D01*
X42156Y32045D01*
X42165Y32031D01*
X42179Y32012D01*
X42193Y31984D01*
X42212Y31946D01*
X42226Y31904D01*
X42236Y31852D01*
X42240Y31800D01*
Y31791D01*
X42236Y31763D01*
X42231Y31720D01*
X42221Y31669D01*
X42203Y31612D01*
X42179Y31551D01*
X42141Y31495D01*
X42094Y31448D01*
X42090Y31443D01*
X42066Y31429D01*
X42033Y31410D01*
X41986Y31391D01*
X41921Y31373D01*
X41845Y31354D01*
X41756Y31340D01*
X41653Y31335D01*
X40068D01*
Y31782D01*
X41648D01*
X41653D01*
X41662D01*
X41681Y31786D01*
X41704D01*
X41751Y31800D01*
X41798Y31829D01*
Y31833D01*
X41808Y31838D01*
X41812Y31852D01*
X41822Y31866D01*
X41836Y31913D01*
X41845Y31979D01*
Y31993D01*
X41841Y32012D01*
Y32035D01*
X41822Y32083D01*
X41812Y32106D01*
X41794Y32125D01*
X41789Y32130D01*
X41784Y32134D01*
X41770Y32144D01*
X41756Y32153D01*
X41732Y32162D01*
X41704Y32167D01*
X41676Y32177D01*
X41949D01*
X41939Y32181D01*
X41906Y32195D01*
X41883Y32200D01*
X41873Y32205D01*
X41638Y32177D01*
X40068D01*
Y32623D01*
X42212D01*
Y32177D01*
D02*
G37*
G36*
Y30465D02*
X42005D01*
X42033Y30456D01*
X42038D01*
X42052Y30446D01*
X42071Y30437D01*
X42090Y30423D01*
X42141Y30376D01*
X42165Y30348D01*
X42188Y30315D01*
Y30310D01*
X42198Y30296D01*
X42203Y30277D01*
X42212Y30254D01*
X42221Y30221D01*
X42231Y30178D01*
X42236Y30136D01*
X42240Y30089D01*
Y30066D01*
X42236Y30047D01*
X42231Y30000D01*
X42221Y29948D01*
X42203Y29882D01*
X42174Y29821D01*
X42141Y29760D01*
X42090Y29704D01*
X42080Y29699D01*
X42062Y29685D01*
X42024Y29661D01*
X41977Y29642D01*
X41911Y29619D01*
X41836Y29595D01*
X41742Y29581D01*
X41638Y29577D01*
X41634D01*
X41624D01*
X41605D01*
X41582Y29581D01*
X41549D01*
X41516Y29586D01*
X41441Y29600D01*
X41352Y29619D01*
X41267Y29652D01*
X41182Y29694D01*
X41107Y29751D01*
X41098Y29760D01*
X41079Y29783D01*
X41051Y29826D01*
X41013Y29882D01*
X40980Y29953D01*
X40952Y30042D01*
X40933Y30145D01*
X40924Y30263D01*
Y30465D01*
X41305D01*
Y30507D01*
X40924Y30479D01*
Y30465D01*
X40660D01*
X40656D01*
X40642D01*
X40623Y30460D01*
X40599D01*
X40543Y30442D01*
X40519Y30428D01*
X40496Y30409D01*
X40491Y30404D01*
X40487Y30399D01*
X40477Y30385D01*
X40463Y30366D01*
X40454Y30343D01*
X40444Y30319D01*
X40440Y30287D01*
X40435Y30249D01*
Y30235D01*
X40440Y30216D01*
X40444Y30197D01*
X40458Y30150D01*
X40477Y30127D01*
X40496Y30108D01*
X40501D01*
X40505Y30098D01*
X40519Y30094D01*
X40538Y30084D01*
X40562Y30075D01*
X40590Y30066D01*
X40623Y30061D01*
X40660Y30056D01*
Y29619D01*
X40656D01*
X40646D01*
X40632D01*
X40609Y29624D01*
X40557Y29628D01*
X40491Y29638D01*
X40416Y29661D01*
X40336Y29689D01*
X40261Y29727D01*
X40195Y29783D01*
X40186Y29793D01*
X40167Y29816D01*
X40143Y29854D01*
X40110Y29906D01*
X40082Y29976D01*
X40054Y30056D01*
X40035Y30150D01*
X40030Y30258D01*
Y30291D01*
X40035Y30329D01*
X40040Y30376D01*
X40049Y30432D01*
X40063Y30489D01*
X40082Y30545D01*
X40106Y30602D01*
X40110Y30606D01*
X40120Y30625D01*
X40139Y30653D01*
X40162Y30686D01*
X40190Y30719D01*
X40228Y30757D01*
X40270Y30790D01*
X40322Y30823D01*
X40327Y30827D01*
X40345Y30837D01*
X40378Y30846D01*
X40416Y30865D01*
X40468Y30879D01*
X40524Y30888D01*
X40590Y30898D01*
X40660Y30902D01*
X42212D01*
Y30465D01*
D02*
G37*
G36*
X39640Y28476D02*
X39212D01*
Y29342D01*
X39640D01*
Y28476D01*
D02*
G37*
G36*
X40966D02*
X40534D01*
Y28241D01*
X40966D01*
Y28476D01*
X42212D01*
Y28025D01*
X39212D01*
Y28241D01*
X39640D01*
Y28476D01*
X40534D01*
Y29238D01*
X40966D01*
Y28476D01*
D02*
G37*
%LPC*%
G36*
X40162Y40747D02*
X40030Y40715D01*
X40269D01*
X40162Y40747D01*
D02*
G37*
G36*
X40334Y39586D02*
X40030D01*
X40200Y39544D01*
X40334Y39586D01*
D02*
G37*
G36*
X41488Y36723D02*
X39932D01*
X39927D01*
X39918D01*
X39899D01*
X39875Y36718D01*
X39824Y36709D01*
X39767Y36685D01*
X39763D01*
X39758Y36681D01*
X39730Y36662D01*
X39692Y36629D01*
X39664Y36582D01*
Y36577D01*
X39659Y36572D01*
X39650Y36558D01*
X39645Y36540D01*
X39631Y36488D01*
X39626Y36422D01*
Y36389D01*
X39631Y36366D01*
X39640Y36314D01*
X39664Y36257D01*
Y36253D01*
X39668Y36248D01*
X39687Y36220D01*
X39720Y36187D01*
X39767Y36154D01*
X39772D01*
X39781Y36149D01*
X39795Y36145D01*
X39814Y36140D01*
X39866Y36126D01*
X39932Y36121D01*
X41488D01*
X41493D01*
X41502D01*
X41521D01*
X41544Y36126D01*
X41601Y36135D01*
X41657Y36154D01*
X41662D01*
X41667Y36163D01*
X41695Y36182D01*
X41728Y36215D01*
X41761Y36257D01*
Y36262D01*
X41765Y36272D01*
X41770Y36286D01*
X41779Y36304D01*
X41794Y36356D01*
X41798Y36422D01*
Y36455D01*
X41794Y36478D01*
X41784Y36530D01*
X41761Y36582D01*
Y36587D01*
X41751Y36591D01*
X41732Y36619D01*
X41700Y36657D01*
X41657Y36685D01*
X41653D01*
X41643Y36690D01*
X41629Y36699D01*
X41610Y36704D01*
X41554Y36718D01*
X41488Y36723D01*
D02*
G37*
G36*
X41794Y30507D02*
X41775D01*
X41770D01*
X41577Y30465D01*
X41305D01*
Y30254D01*
X41309Y30230D01*
X41314Y30202D01*
X41323Y30169D01*
X41342Y30131D01*
X41361Y30098D01*
X41389Y30070D01*
X41394Y30066D01*
X41403Y30061D01*
X41427Y30051D01*
X41450Y30037D01*
X41488Y30023D01*
X41530Y30014D01*
X41582Y30009D01*
X41638Y30004D01*
X41643D01*
X41657D01*
X41676Y30009D01*
X41700D01*
X41751Y30028D01*
X41779Y30037D01*
X41803Y30056D01*
Y30061D01*
X41812Y30066D01*
X41817Y30080D01*
X41826Y30094D01*
X41836Y30117D01*
X41845Y30145D01*
X41850Y30174D01*
X41855Y30211D01*
Y30230D01*
X41850Y30254D01*
X41845Y30282D01*
X41826Y30343D01*
X41812Y30371D01*
X41789Y30399D01*
X41784Y30404D01*
X41775Y30409D01*
X41761Y30418D01*
X41737Y30432D01*
X41704Y30446D01*
X41671Y30456D01*
X41629Y30460D01*
X41577Y30465D01*
X42005D01*
X41949Y30484D01*
X41902Y30493D01*
X41859Y30498D01*
X41826Y30503D01*
X41794Y30507D01*
D02*
G37*
%LPD*%
D10*
X42212Y27024D02*
G03*
X42212Y27024I-710J0D01*
G01*
X41216Y44831D02*
G03*
X41216Y44831I-710J0D01*
G01*
X38429Y46101D02*
G03*
X38429Y46101I-710J0D01*
G01*
X38427Y42291D02*
G03*
X38427Y42291I-710J0D01*
G01*
X37667Y38473D02*
G03*
X37667Y38473I-710J0D01*
G01*
X39091Y57250D02*
G03*
X39091Y57250I-710J0D01*
G01*
X31571Y57277D02*
G03*
X31571Y57277I-710J0D01*
G01*
X35381D02*
G03*
X35381Y57277I-710J0D01*
G01*
X39152Y53721D02*
G03*
X39152Y53721I-710J0D01*
G01*
X27316Y57277D02*
G03*
X27316Y57277I-710J0D01*
G01*
X35459Y31941D02*
Y46016D01*
X26009Y31941D02*
X35459D01*
X26009D02*
Y52641D01*
X35459D01*
Y46016D02*
Y52641D01*
X26774Y29248D02*
X26441D01*
X26608D01*
Y28414D01*
X26441Y28248D01*
X26275D01*
X26108Y28414D01*
X27108Y29248D02*
Y28248D01*
X27774D01*
X28107D02*
X28441D01*
X28274D01*
Y28914D01*
X28107D01*
X28940Y28248D02*
Y28914D01*
X29440D01*
X29607Y28748D01*
Y28248D01*
X29940D02*
Y29248D01*
Y28581D02*
X30440Y28914D01*
X29940Y28581D02*
X30440Y28248D01*
X31939D02*
Y28914D01*
X32273Y29248D01*
X32606Y28914D01*
Y28248D01*
Y28748D01*
X31939D01*
X33606Y29248D02*
Y28248D01*
X33106D01*
X32939Y28414D01*
Y28748D01*
X33106Y28914D01*
X33606D01*
X34105D02*
X34439D01*
X34605Y28748D01*
Y28248D01*
X34105D01*
X33939Y28414D01*
X34105Y28581D01*
X34605D01*
X34938Y27915D02*
Y28914D01*
X35438D01*
X35605Y28748D01*
Y28414D01*
X35438Y28248D01*
X34938D01*
X36105Y29081D02*
Y28914D01*
X35938D01*
X36271D01*
X36105D01*
Y28414D01*
X36271Y28248D01*
X37271D02*
X36938D01*
X36771Y28414D01*
Y28748D01*
X36938Y28914D01*
X37271D01*
X37438Y28748D01*
Y28581D01*
X36771D01*
X37771Y28914D02*
Y28248D01*
Y28581D01*
X37938Y28748D01*
X38104Y28914D01*
X38271D01*
X26108Y27235D02*
Y26568D01*
X26441Y26235D01*
X26774Y26568D01*
Y27235D01*
X27108Y27068D02*
X27274Y27235D01*
X27608D01*
X27774Y27068D01*
Y26402D01*
X27608Y26235D01*
X27274D01*
X27108Y26402D01*
Y27068D01*
X28107Y26235D02*
Y26402D01*
X28274D01*
Y26235D01*
X28107D01*
X28940Y27068D02*
X29107Y27235D01*
X29440D01*
X29607Y27068D01*
Y26402D01*
X29440Y26235D01*
X29107D01*
X28940Y26402D01*
Y27068D01*
X29940Y26235D02*
Y26402D01*
X30107D01*
Y26235D01*
X29940D01*
X30773Y27235D02*
X31440Y26235D01*
Y27235D02*
X30773Y26235D01*
D11*
X44708Y28194D02*
Y28694D01*
Y28444D01*
X43208D01*
X43458Y28194D01*
X47117Y29194D02*
Y28194D01*
X46117Y29194D01*
X45867D01*
X45617Y28944D01*
Y28444D01*
X45867Y28194D01*
X30103Y31226D02*
Y30226D01*
X29103Y31226D01*
X28853D01*
X28603Y30976D01*
Y30476D01*
X28853Y30226D01*
X32512D02*
Y30726D01*
Y30476D01*
X31012D01*
X31262Y30226D01*
X40885Y46355D02*
X40219D01*
Y46855D01*
X40386Y47022D01*
X40885D01*
Y47355D02*
X39886D01*
Y47855D01*
X40052Y48022D01*
X40386D01*
X40552Y47855D01*
Y47355D01*
Y47688D02*
X40885Y48022D01*
X40052Y49021D02*
X39886Y48855D01*
Y48521D01*
X40052Y48355D01*
X40219D01*
X40386Y48521D01*
Y48855D01*
X40552Y49021D01*
X40719D01*
X40885Y48855D01*
Y48521D01*
X40719Y48355D01*
X39886Y49354D02*
Y50021D01*
Y49688D01*
X40885D01*
X36632Y34956D02*
X36465Y34790D01*
Y34457D01*
X36632Y34290D01*
X36799D01*
X36965Y34457D01*
Y34790D01*
X37132Y34956D01*
X37298D01*
X37465Y34790D01*
Y34457D01*
X37298Y34290D01*
X36465Y35290D02*
X37465D01*
X37132Y35623D01*
X37465Y35956D01*
X36465D01*
Y36789D02*
Y36456D01*
X36632Y36289D01*
X37298D01*
X37465Y36456D01*
Y36789D01*
X37298Y36956D01*
X36632D01*
X36465Y36789D01*
X39045Y42195D02*
X38878Y42029D01*
Y41696D01*
X39045Y41529D01*
X39711D01*
X39878Y41696D01*
Y42029D01*
X39711Y42195D01*
X38878Y42529D02*
X39878D01*
Y43195D01*
X38878Y43528D02*
X39878D01*
X39545D01*
X38878Y44195D01*
X39378Y43695D01*
X39878Y44195D01*
X37100Y48006D02*
X38100D01*
Y48506D01*
X37933Y48672D01*
X37267D01*
X37100Y48506D01*
Y48006D01*
Y49006D02*
Y49339D01*
Y49172D01*
X38100D01*
Y49006D01*
Y49339D01*
X37100Y50339D02*
Y50005D01*
X37267Y49839D01*
X37933D01*
X38100Y50005D01*
Y50339D01*
X37933Y50505D01*
X37267D01*
X37100Y50339D01*
X38766Y27416D02*
X38100D01*
Y26916D01*
X38433Y27082D01*
X38600D01*
X38766Y26916D01*
Y26583D01*
X38600Y26416D01*
X38267D01*
X38100Y26583D01*
X39100Y27416D02*
Y26749D01*
X39433Y26416D01*
X39766Y26749D01*
Y27416D01*
X40188Y56419D02*
X40021Y56253D01*
Y55920D01*
X40188Y55753D01*
X40854D01*
X41021Y55920D01*
Y56253D01*
X40854Y56419D01*
X40521D01*
Y56086D01*
X41021Y56753D02*
X40021D01*
X41021Y57419D01*
X40021D01*
Y57752D02*
X41021D01*
Y58252D01*
X40854Y58419D01*
X40188D01*
X40021Y58252D01*
Y57752D01*
X32020Y53086D02*
Y53752D01*
Y53419D01*
X33020D01*
Y54086D02*
X32020D01*
Y54586D01*
X32187Y54752D01*
X32520D01*
X32687Y54586D01*
Y54086D01*
Y54419D02*
X33020Y54752D01*
Y55085D02*
X32354D01*
X32020Y55419D01*
X32354Y55752D01*
X33020D01*
X32520D01*
Y55085D01*
X32187Y56751D02*
X32020Y56585D01*
Y56252D01*
X32187Y56085D01*
X32853D01*
X33020Y56252D01*
Y56585D01*
X32853Y56751D01*
X32020Y57751D02*
Y57085D01*
X33020D01*
Y57751D01*
X32520Y57085D02*
Y57418D01*
X32187Y58084D02*
X32020Y58251D01*
Y58584D01*
X32187Y58751D01*
X32853D01*
X33020Y58584D01*
Y58251D01*
X32853Y58084D01*
X32187D01*
X36084Y54991D02*
Y55657D01*
Y55324D01*
X37084D01*
X36251Y56657D02*
X36084Y56491D01*
Y56157D01*
X36251Y55991D01*
X36917D01*
X37084Y56157D01*
Y56491D01*
X36917Y56657D01*
X36084Y56990D02*
X37084D01*
Y57657D01*
X36084Y57990D02*
X37084D01*
X36751D01*
X36084Y58656D01*
X36584Y58157D01*
X37084Y58656D01*
X39680Y51435D02*
X39513Y51602D01*
Y51935D01*
X39680Y52101D01*
X39847D01*
X40013Y51935D01*
Y51768D01*
Y51935D01*
X40180Y52101D01*
X40346D01*
X40513Y51935D01*
Y51602D01*
X40346Y51435D01*
X39513Y52435D02*
X40180D01*
X40513Y52768D01*
X40180Y53101D01*
X39513D01*
X39680Y53434D02*
X39513Y53601D01*
Y53934D01*
X39680Y54101D01*
X39847D01*
X40013Y53934D01*
Y53768D01*
Y53934D01*
X40180Y54101D01*
X40346D01*
X40513Y53934D01*
Y53601D01*
X40346Y53434D01*
X27702Y53213D02*
Y53879D01*
Y53546D01*
X28702D01*
Y54213D02*
X27702D01*
Y54713D01*
X27869Y54879D01*
X28202D01*
X28369Y54713D01*
Y54213D01*
Y54546D02*
X28702Y54879D01*
Y55212D02*
X28036D01*
X27702Y55546D01*
X28036Y55879D01*
X28702D01*
X28202D01*
Y55212D01*
X27869Y56878D02*
X27702Y56712D01*
Y56379D01*
X27869Y56212D01*
X28535D01*
X28702Y56379D01*
Y56712D01*
X28535Y56878D01*
X27702Y57878D02*
Y57212D01*
X28702D01*
Y57878D01*
X28202Y57212D02*
Y57545D01*
X28702Y58211D02*
Y58545D01*
Y58378D01*
X27702D01*
X27869Y58211D01*
M02*
