G04*
G04 #@! TF.GenerationSoftware,Altium Limited,Altium Designer,23.0.1 (38)*
G04*
G04 Layer_Color=16711935*
%FSLAX43Y43*%
%MOMM*%
G71*
G04*
G04 #@! TF.SameCoordinates,2E0F9480-7CF3-4E61-B830-77F9E17AB5E5*
G04*
G04*
G04 #@! TF.FilePolarity,Negative*
G04*
G01*
G75*
%ADD51C,0.100*%
%ADD52C,2.500*%
%ADD53C,2.600*%
D51*
X30841Y27460D02*
D03*
Y32540D02*
D03*
Y67460D02*
D03*
Y72540D02*
D03*
X117750Y27460D02*
D03*
Y32540D02*
D03*
Y67980D02*
D03*
Y73060D02*
D03*
X101125Y15200D02*
D03*
X101125Y71350D02*
D03*
X47325Y71350D02*
D03*
X47325Y15200D02*
D03*
D52*
X61675Y52825D02*
D03*
Y35525D02*
D03*
X100150Y51800D02*
D03*
Y34500D02*
D03*
X49400Y42750D02*
D03*
D53*
X64225Y50275D02*
D03*
Y55375D02*
D03*
X59125D02*
D03*
Y50275D02*
D03*
X64225Y32975D02*
D03*
Y38075D02*
D03*
X59125D02*
D03*
Y32975D02*
D03*
X102700Y54350D02*
D03*
X97600D02*
D03*
Y49250D02*
D03*
X102700D02*
D03*
Y37050D02*
D03*
X97600D02*
D03*
Y31950D02*
D03*
X102700D02*
D03*
X46850Y40200D02*
D03*
X51950D02*
D03*
Y45300D02*
D03*
X46850D02*
D03*
M02*
