G04*
G04 #@! TF.GenerationSoftware,Altium Limited,Altium Designer,23.0.1 (38)*
G04*
G04 Layer_Color=8421504*
%FSLAX43Y43*%
%MOMM*%
G71*
G04*
G04 #@! TF.SameCoordinates,2E0F9480-7CF3-4E61-B830-77F9E17AB5E5*
G04*
G04*
G04 #@! TF.FilePolarity,Positive*
G04*
G01*
G75*
%ADD15R,0.500X0.500*%
%ADD16R,0.500X0.500*%
%ADD17R,1.400X0.950*%
%ADD18R,1.000X2.000*%
%ADD19R,0.650X2.000*%
%ADD20O,0.350X0.850*%
%ADD21R,0.900X0.400*%
G04:AMPARAMS|DCode=22|XSize=1mm|YSize=2mm|CornerRadius=0.25mm|HoleSize=0mm|Usage=FLASHONLY|Rotation=270.000|XOffset=0mm|YOffset=0mm|HoleType=Round|Shape=RoundedRectangle|*
%AMROUNDEDRECTD22*
21,1,1.000,1.500,0,0,270.0*
21,1,0.500,2.000,0,0,270.0*
1,1,0.500,-0.750,-0.250*
1,1,0.500,-0.750,0.250*
1,1,0.500,0.750,0.250*
1,1,0.500,0.750,-0.250*
%
%ADD22ROUNDEDRECTD22*%
G04:AMPARAMS|DCode=23|XSize=1mm|YSize=2.5mm|CornerRadius=0.25mm|HoleSize=0mm|Usage=FLASHONLY|Rotation=270.000|XOffset=0mm|YOffset=0mm|HoleType=Round|Shape=RoundedRectangle|*
%AMROUNDEDRECTD23*
21,1,1.000,2.000,0,0,270.0*
21,1,0.500,2.500,0,0,270.0*
1,1,0.500,-1.000,-0.250*
1,1,0.500,-1.000,0.250*
1,1,0.500,1.000,0.250*
1,1,0.500,1.000,-0.250*
%
%ADD23ROUNDEDRECTD23*%
%ADD24R,1.050X2.200*%
%ADD25R,1.000X1.000*%
%ADD26R,2.000X1.000*%
%ADD27R,2.000X0.650*%
%ADD28R,0.950X1.400*%
%ADD29R,0.900X0.900*%
%ADD30R,2.200X1.050*%
%ADD31R,1.000X1.000*%
D15*
X89400Y51800D02*
D03*
Y50800D02*
D03*
X85700Y48650D02*
D03*
Y47750D02*
D03*
X82450Y47625D02*
D03*
Y48625D02*
D03*
X77117Y48617D02*
D03*
Y49617D02*
D03*
X75925Y48667D02*
D03*
Y49567D02*
D03*
X71850Y54475D02*
D03*
Y53475D02*
D03*
X69150Y63694D02*
D03*
Y64593D02*
D03*
X76325Y66675D02*
D03*
Y67575D02*
D03*
X70550Y25625D02*
D03*
Y24725D02*
D03*
X68800Y24875D02*
D03*
Y23975D02*
D03*
X71850Y37175D02*
D03*
Y36175D02*
D03*
X75925Y31367D02*
D03*
Y32267D02*
D03*
X77117Y31317D02*
D03*
Y32317D02*
D03*
X82450Y30325D02*
D03*
Y31325D02*
D03*
X85700Y31350D02*
D03*
Y30450D02*
D03*
X89400Y34500D02*
D03*
Y33500D02*
D03*
D16*
X87175Y51800D02*
D03*
X88075D02*
D03*
X73850Y48650D02*
D03*
X74750D02*
D03*
X68400Y54800D02*
D03*
X69400D02*
D03*
X69400Y56025D02*
D03*
X68500D02*
D03*
X68400Y37500D02*
D03*
X69400D02*
D03*
Y38725D02*
D03*
X68500D02*
D03*
X73850Y31350D02*
D03*
X74750D02*
D03*
X87175Y34500D02*
D03*
X88075D02*
D03*
X73000Y23975D02*
D03*
X72000D02*
D03*
X69150Y62025D02*
D03*
X68150D02*
D03*
X68800Y16091D02*
D03*
X69700D02*
D03*
X66725Y16100D02*
D03*
X67625D02*
D03*
X66375Y26550D02*
D03*
X67375D02*
D03*
X77625Y64075D02*
D03*
X78625D02*
D03*
X54075Y42750D02*
D03*
X55075D02*
D03*
D17*
X84075Y48425D02*
D03*
Y46575D02*
D03*
Y31125D02*
D03*
Y29275D02*
D03*
X78154Y65892D02*
D03*
Y67742D02*
D03*
X67616Y63450D02*
D03*
Y65300D02*
D03*
D18*
X80925Y51800D02*
D03*
X78675Y48600D02*
D03*
Y51800D02*
D03*
X80925Y48600D02*
D03*
Y34500D02*
D03*
X78675Y31300D02*
D03*
Y34500D02*
D03*
X80925Y31300D02*
D03*
D19*
X79800Y51800D02*
D03*
Y48600D02*
D03*
X79800Y34500D02*
D03*
Y31300D02*
D03*
D20*
X71200Y49975D02*
D03*
X71850D02*
D03*
X72500D02*
D03*
X71200Y52175D02*
D03*
X71850D02*
D03*
X72500D02*
D03*
X71200Y32675D02*
D03*
X71850D02*
D03*
X72500D02*
D03*
X71200Y34875D02*
D03*
X71850D02*
D03*
X72500D02*
D03*
D21*
X69400Y53475D02*
D03*
Y52175D02*
D03*
X67200D02*
D03*
Y52825D02*
D03*
Y53475D02*
D03*
X69400Y36175D02*
D03*
Y34875D02*
D03*
X67200D02*
D03*
Y35525D02*
D03*
Y36175D02*
D03*
D22*
X38349Y33810D02*
D03*
Y31270D02*
D03*
Y28730D02*
D03*
Y26190D02*
D03*
X34851D02*
D03*
Y28730D02*
D03*
Y31270D02*
D03*
Y33810D02*
D03*
X38349Y73810D02*
D03*
Y71270D02*
D03*
Y68730D02*
D03*
Y66190D02*
D03*
X34851D02*
D03*
Y68730D02*
D03*
Y71270D02*
D03*
Y73810D02*
D03*
D23*
X113300Y33810D02*
D03*
Y31270D02*
D03*
Y28730D02*
D03*
Y26190D02*
D03*
X109602Y33810D02*
D03*
Y31270D02*
D03*
Y28730D02*
D03*
Y26190D02*
D03*
X113300Y74330D02*
D03*
Y71790D02*
D03*
Y69250D02*
D03*
Y66710D02*
D03*
X109602Y74330D02*
D03*
Y71790D02*
D03*
Y69250D02*
D03*
Y66710D02*
D03*
D24*
X78825Y22400D02*
D03*
X81625D02*
D03*
X53675Y33021D02*
D03*
X56475D02*
D03*
D25*
X80225Y23900D02*
D03*
X55075Y34521D02*
D03*
D26*
X68800Y22425D02*
D03*
X72000Y20175D02*
D03*
X68800D02*
D03*
X72000Y22425D02*
D03*
D27*
X68800Y21300D02*
D03*
X72000D02*
D03*
D28*
X68800Y17760D02*
D03*
X70650D02*
D03*
X72000Y25625D02*
D03*
X73850D02*
D03*
X67375Y24875D02*
D03*
X65525D02*
D03*
D29*
X79200Y62650D02*
D03*
X77800D02*
D03*
X67750Y60625D02*
D03*
X69150D02*
D03*
D30*
X93650Y50400D02*
D03*
Y53200D02*
D03*
X84550Y50400D02*
D03*
Y53200D02*
D03*
X75800Y51225D02*
D03*
Y54025D02*
D03*
X75800Y33925D02*
D03*
Y36725D02*
D03*
X93650Y33100D02*
D03*
Y35900D02*
D03*
X84550Y33100D02*
D03*
Y35900D02*
D03*
D31*
X92150Y51800D02*
D03*
X83050Y51800D02*
D03*
X74300Y52625D02*
D03*
Y35325D02*
D03*
X92150Y34500D02*
D03*
X83050Y34500D02*
D03*
M02*
