G04*
G04 #@! TF.GenerationSoftware,Altium Limited,Altium Designer,23.0.1 (38)*
G04*
G04 Layer_Color=2752767*
%FSLAX43Y43*%
%MOMM*%
G71*
G04*
G04 #@! TF.SameCoordinates,2E0F9480-7CF3-4E61-B830-77F9E17AB5E5*
G04*
G04*
G04 #@! TF.FilePolarity,Positive*
G04*
G01*
G75*
%ADD69C,0.051*%
%ADD70C,0.068*%
D69*
X30841Y27257D02*
X30943Y27358D01*
X31044D01*
X30943Y27460D01*
X31044Y27562D01*
X30943D01*
X30841Y27663D01*
X30739Y27562D01*
X30638D01*
X30739Y27460D01*
X30638Y27358D01*
X30739D01*
X30841Y27257D01*
Y32337D02*
X30943Y32438D01*
X31044D01*
X30943Y32540D01*
X31044Y32642D01*
X30943D01*
X30841Y32743D01*
X30739Y32642D01*
X30638D01*
X30739Y32540D01*
X30638Y32438D01*
X30739D01*
X30841Y32337D01*
Y67257D02*
X30943Y67358D01*
X31044D01*
X30943Y67460D01*
X31044Y67562D01*
X30943D01*
X30841Y67663D01*
X30739Y67562D01*
X30638D01*
X30739Y67460D01*
X30638Y67358D01*
X30739D01*
X30841Y67257D01*
Y72337D02*
X30943Y72438D01*
X31044D01*
X30943Y72540D01*
X31044Y72642D01*
X30943D01*
X30841Y72743D01*
X30739Y72642D01*
X30638D01*
X30739Y72540D01*
X30638Y72438D01*
X30739D01*
X30841Y72337D01*
X117547Y27257D02*
Y27663D01*
X117953D01*
Y27257D01*
X117547D01*
Y32337D02*
Y32743D01*
X117953D01*
Y32337D01*
X117547D01*
Y67777D02*
Y68183D01*
X117953D01*
Y67777D01*
X117547D01*
Y72857D02*
Y73263D01*
X117953D01*
Y72857D01*
X117547D01*
X64123Y50173D02*
Y50072D01*
X64327D01*
Y50173D01*
X64428D01*
Y50377D01*
X64327D01*
Y50478D01*
X64123D01*
Y50377D01*
X64022D01*
Y50173D01*
X64123D01*
Y55273D02*
Y55172D01*
X64327D01*
Y55273D01*
X64428D01*
Y55477D01*
X64327D01*
Y55578D01*
X64123D01*
Y55477D01*
X64022D01*
Y55273D01*
X64123D01*
X59023D02*
Y55172D01*
X59227D01*
Y55273D01*
X59328D01*
Y55477D01*
X59227D01*
Y55578D01*
X59023D01*
Y55477D01*
X58922D01*
Y55273D01*
X59023D01*
Y50173D02*
Y50072D01*
X59227D01*
Y50173D01*
X59328D01*
Y50377D01*
X59227D01*
Y50478D01*
X59023D01*
Y50377D01*
X58922D01*
Y50173D01*
X59023D01*
X64123Y32873D02*
Y32772D01*
X64327D01*
Y32873D01*
X64428D01*
Y33077D01*
X64327D01*
Y33178D01*
X64123D01*
Y33077D01*
X64022D01*
Y32873D01*
X64123D01*
Y37973D02*
Y37872D01*
X64327D01*
Y37973D01*
X64428D01*
Y38177D01*
X64327D01*
Y38278D01*
X64123D01*
Y38177D01*
X64022D01*
Y37973D01*
X64123D01*
X59023D02*
Y37872D01*
X59227D01*
Y37973D01*
X59328D01*
Y38177D01*
X59227D01*
Y38278D01*
X59023D01*
Y38177D01*
X58922D01*
Y37973D01*
X59023D01*
Y32873D02*
Y32772D01*
X59227D01*
Y32873D01*
X59328D01*
Y33077D01*
X59227D01*
Y33178D01*
X59023D01*
Y33077D01*
X58922D01*
Y32873D01*
X59023D01*
X102598Y54248D02*
Y54147D01*
X102802D01*
Y54248D01*
X102903D01*
Y54452D01*
X102802D01*
Y54553D01*
X102598D01*
Y54452D01*
X102497D01*
Y54248D01*
X102598D01*
X97498D02*
Y54147D01*
X97702D01*
Y54248D01*
X97803D01*
Y54452D01*
X97702D01*
Y54553D01*
X97498D01*
Y54452D01*
X97397D01*
Y54248D01*
X97498D01*
Y49148D02*
Y49047D01*
X97702D01*
Y49148D01*
X97803D01*
Y49352D01*
X97702D01*
Y49453D01*
X97498D01*
Y49352D01*
X97397D01*
Y49148D01*
X97498D01*
X102598D02*
Y49047D01*
X102802D01*
Y49148D01*
X102903D01*
Y49352D01*
X102802D01*
Y49453D01*
X102598D01*
Y49352D01*
X102497D01*
Y49148D01*
X102598D01*
Y36948D02*
Y36847D01*
X102802D01*
Y36948D01*
X102903D01*
Y37152D01*
X102802D01*
Y37253D01*
X102598D01*
Y37152D01*
X102497D01*
Y36948D01*
X102598D01*
X97498D02*
Y36847D01*
X97702D01*
Y36948D01*
X97803D01*
Y37152D01*
X97702D01*
Y37253D01*
X97498D01*
Y37152D01*
X97397D01*
Y36948D01*
X97498D01*
Y31848D02*
Y31747D01*
X97702D01*
Y31848D01*
X97803D01*
Y32052D01*
X97702D01*
Y32153D01*
X97498D01*
Y32052D01*
X97397D01*
Y31848D01*
X97498D01*
X102598D02*
Y31747D01*
X102802D01*
Y31848D01*
X102903D01*
Y32052D01*
X102802D01*
Y32153D01*
X102598D01*
Y32052D01*
X102497D01*
Y31848D01*
X102598D01*
X46748Y40098D02*
Y39997D01*
X46952D01*
Y40098D01*
X47053D01*
Y40302D01*
X46952D01*
Y40403D01*
X46748D01*
Y40302D01*
X46647D01*
Y40098D01*
X46748D01*
X51848D02*
Y39997D01*
X52052D01*
Y40098D01*
X52153D01*
Y40302D01*
X52052D01*
Y40403D01*
X51848D01*
Y40302D01*
X51747D01*
Y40098D01*
X51848D01*
Y45198D02*
Y45097D01*
X52052D01*
Y45198D01*
X52153D01*
Y45402D01*
X52052D01*
Y45503D01*
X51848D01*
Y45402D01*
X51747D01*
Y45198D01*
X51848D01*
X46748D02*
Y45097D01*
X46952D01*
Y45198D01*
X47053D01*
Y45402D01*
X46952D01*
Y45503D01*
X46748D01*
Y45402D01*
X46647D01*
Y45198D01*
X46748D01*
X101125Y14997D02*
X100922Y15403D01*
X101328D01*
X101125Y14997D01*
X101125Y71147D02*
X100922Y71553D01*
X101328D01*
X101125Y71147D01*
X47325Y71147D02*
X47122Y71553D01*
X47528D01*
X47325Y71147D01*
X47325Y14997D02*
X47122Y15403D01*
X47528D01*
X47325Y14997D01*
X117797Y74260D02*
X117898Y74463D01*
X117797Y74666D01*
X118000Y74565D01*
X118203Y74666D01*
X118102Y74463D01*
X118203Y74260D01*
X118000Y74361D01*
X117797Y74260D01*
Y66260D02*
X117898Y66463D01*
X117797Y66666D01*
X118000Y66565D01*
X118203Y66666D01*
X118102Y66463D01*
X118203Y66260D01*
X118000Y66361D01*
X117797Y66260D01*
Y34260D02*
X117898Y34463D01*
X117797Y34666D01*
X118000Y34565D01*
X118203Y34666D01*
X118102Y34463D01*
X118203Y34260D01*
X118000Y34361D01*
X117797Y34260D01*
X115797Y30260D02*
X115898Y30463D01*
X115797Y30666D01*
X116000Y30565D01*
X116203Y30666D01*
X116102Y30463D01*
X116203Y30260D01*
X116000Y30361D01*
X115797Y30260D01*
X113797Y58260D02*
X113898Y58463D01*
X113797Y58666D01*
X114000Y58565D01*
X114203Y58666D01*
X114102Y58463D01*
X114203Y58260D01*
X114000Y58361D01*
X113797Y58260D01*
Y50260D02*
X113898Y50463D01*
X113797Y50666D01*
X114000Y50565D01*
X114203Y50666D01*
X114102Y50463D01*
X114203Y50260D01*
X114000Y50361D01*
X113797Y50260D01*
Y42260D02*
X113898Y42463D01*
X113797Y42666D01*
X114000Y42565D01*
X114203Y42666D01*
X114102Y42463D01*
X114203Y42260D01*
X114000Y42361D01*
X113797Y42260D01*
X111797Y22260D02*
X111898Y22463D01*
X111797Y22666D01*
X112000Y22565D01*
X112203Y22666D01*
X112102Y22463D01*
X112203Y22260D01*
X112000Y22361D01*
X111797Y22260D01*
X113797Y18260D02*
X113898Y18463D01*
X113797Y18666D01*
X114000Y18565D01*
X114203Y18666D01*
X114102Y18463D01*
X114203Y18260D01*
X114000Y18361D01*
X113797Y18260D01*
X111797Y14260D02*
X111898Y14463D01*
X111797Y14666D01*
X112000Y14565D01*
X112203Y14666D01*
X112102Y14463D01*
X112203Y14260D01*
X112000Y14361D01*
X111797Y14260D01*
X107797Y70260D02*
X107898Y70463D01*
X107797Y70666D01*
X108000Y70565D01*
X108203Y70666D01*
X108102Y70463D01*
X108203Y70260D01*
X108000Y70361D01*
X107797Y70260D01*
Y22260D02*
X107898Y22463D01*
X107797Y22666D01*
X108000Y22565D01*
X108203Y22666D01*
X108102Y22463D01*
X108203Y22260D01*
X108000Y22361D01*
X107797Y22260D01*
X109797Y18260D02*
X109898Y18463D01*
X109797Y18666D01*
X110000Y18565D01*
X110203Y18666D01*
X110102Y18463D01*
X110203Y18260D01*
X110000Y18361D01*
X109797Y18260D01*
X107797Y14260D02*
X107898Y14463D01*
X107797Y14666D01*
X108000Y14565D01*
X108203Y14666D01*
X108102Y14463D01*
X108203Y14260D01*
X108000Y14361D01*
X107797Y14260D01*
X103797Y70260D02*
X103898Y70463D01*
X103797Y70666D01*
X104000Y70565D01*
X104203Y70666D01*
X104102Y70463D01*
X104203Y70260D01*
X104000Y70361D01*
X103797Y70260D01*
Y62260D02*
X103898Y62463D01*
X103797Y62666D01*
X104000Y62565D01*
X104203Y62666D01*
X104102Y62463D01*
X104203Y62260D01*
X104000Y62361D01*
X103797Y62260D01*
Y22260D02*
X103898Y22463D01*
X103797Y22666D01*
X104000Y22565D01*
X104203Y22666D01*
X104102Y22463D01*
X104203Y22260D01*
X104000Y22361D01*
X103797Y22260D01*
X105797Y18260D02*
X105898Y18463D01*
X105797Y18666D01*
X106000Y18565D01*
X106203Y18666D01*
X106102Y18463D01*
X106203Y18260D01*
X106000Y18361D01*
X105797Y18260D01*
X103797Y14260D02*
X103898Y14463D01*
X103797Y14666D01*
X104000Y14565D01*
X104203Y14666D01*
X104102Y14463D01*
X104203Y14260D01*
X104000Y14361D01*
X103797Y14260D01*
X101797Y66260D02*
X101898Y66463D01*
X101797Y66666D01*
X102000Y66565D01*
X102203Y66666D01*
X102102Y66463D01*
X102203Y66260D01*
X102000Y66361D01*
X101797Y66260D01*
X99797Y62260D02*
X99898Y62463D01*
X99797Y62666D01*
X100000Y62565D01*
X100203Y62666D01*
X100102Y62463D01*
X100203Y62260D01*
X100000Y62361D01*
X99797Y62260D01*
Y54260D02*
X99898Y54463D01*
X99797Y54666D01*
X100000Y54565D01*
X100203Y54666D01*
X100102Y54463D01*
X100203Y54260D01*
X100000Y54361D01*
X99797Y54260D01*
Y46260D02*
X99898Y46463D01*
X99797Y46666D01*
X100000Y46565D01*
X100203Y46666D01*
X100102Y46463D01*
X100203Y46260D01*
X100000Y46361D01*
X99797Y46260D01*
X101797Y42260D02*
X101898Y42463D01*
X101797Y42666D01*
X102000Y42565D01*
X102203Y42666D01*
X102102Y42463D01*
X102203Y42260D01*
X102000Y42361D01*
X101797Y42260D01*
X99797Y38260D02*
X99898Y38463D01*
X99797Y38666D01*
X100000Y38565D01*
X100203Y38666D01*
X100102Y38463D01*
X100203Y38260D01*
X100000Y38361D01*
X99797Y38260D01*
Y30260D02*
X99898Y30463D01*
X99797Y30666D01*
X100000Y30565D01*
X100203Y30666D01*
X100102Y30463D01*
X100203Y30260D01*
X100000Y30361D01*
X99797Y30260D01*
X101797Y26260D02*
X101898Y26463D01*
X101797Y26666D01*
X102000Y26565D01*
X102203Y26666D01*
X102102Y26463D01*
X102203Y26260D01*
X102000Y26361D01*
X101797Y26260D01*
X99797Y22260D02*
X99898Y22463D01*
X99797Y22666D01*
X100000Y22565D01*
X100203Y22666D01*
X100102Y22463D01*
X100203Y22260D01*
X100000Y22361D01*
X99797Y22260D01*
X101797Y18260D02*
X101898Y18463D01*
X101797Y18666D01*
X102000Y18565D01*
X102203Y18666D01*
X102102Y18463D01*
X102203Y18260D01*
X102000Y18361D01*
X101797Y18260D01*
X95797Y70260D02*
X95898Y70463D01*
X95797Y70666D01*
X96000Y70565D01*
X96203Y70666D01*
X96102Y70463D01*
X96203Y70260D01*
X96000Y70361D01*
X95797Y70260D01*
X97797Y66260D02*
X97898Y66463D01*
X97797Y66666D01*
X98000Y66565D01*
X98203Y66666D01*
X98102Y66463D01*
X98203Y66260D01*
X98000Y66361D01*
X97797Y66260D01*
X95797Y62260D02*
X95898Y62463D01*
X95797Y62666D01*
X96000Y62565D01*
X96203Y62666D01*
X96102Y62463D01*
X96203Y62260D01*
X96000Y62361D01*
X95797Y62260D01*
X97797Y58260D02*
X97898Y58463D01*
X97797Y58666D01*
X98000Y58565D01*
X98203Y58666D01*
X98102Y58463D01*
X98203Y58260D01*
X98000Y58361D01*
X97797Y58260D01*
X95797Y46260D02*
X95898Y46463D01*
X95797Y46666D01*
X96000Y46565D01*
X96203Y46666D01*
X96102Y46463D01*
X96203Y46260D01*
X96000Y46361D01*
X95797Y46260D01*
X97797Y42260D02*
X97898Y42463D01*
X97797Y42666D01*
X98000Y42565D01*
X98203Y42666D01*
X98102Y42463D01*
X98203Y42260D01*
X98000Y42361D01*
X97797Y42260D01*
X95797Y38260D02*
X95898Y38463D01*
X95797Y38666D01*
X96000Y38565D01*
X96203Y38666D01*
X96102Y38463D01*
X96203Y38260D01*
X96000Y38361D01*
X95797Y38260D01*
Y30260D02*
X95898Y30463D01*
X95797Y30666D01*
X96000Y30565D01*
X96203Y30666D01*
X96102Y30463D01*
X96203Y30260D01*
X96000Y30361D01*
X95797Y30260D01*
X97797Y26260D02*
X97898Y26463D01*
X97797Y26666D01*
X98000Y26565D01*
X98203Y26666D01*
X98102Y26463D01*
X98203Y26260D01*
X98000Y26361D01*
X97797Y26260D01*
X95797Y22260D02*
X95898Y22463D01*
X95797Y22666D01*
X96000Y22565D01*
X96203Y22666D01*
X96102Y22463D01*
X96203Y22260D01*
X96000Y22361D01*
X95797Y22260D01*
X97797Y18260D02*
X97898Y18463D01*
X97797Y18666D01*
X98000Y18565D01*
X98203Y18666D01*
X98102Y18463D01*
X98203Y18260D01*
X98000Y18361D01*
X97797Y18260D01*
X95797Y14260D02*
X95898Y14463D01*
X95797Y14666D01*
X96000Y14565D01*
X96203Y14666D01*
X96102Y14463D01*
X96203Y14260D01*
X96000Y14361D01*
X95797Y14260D01*
X93797Y66260D02*
X93898Y66463D01*
X93797Y66666D01*
X94000Y66565D01*
X94203Y66666D01*
X94102Y66463D01*
X94203Y66260D01*
X94000Y66361D01*
X93797Y66260D01*
X91797Y62260D02*
X91898Y62463D01*
X91797Y62666D01*
X92000Y62565D01*
X92203Y62666D01*
X92102Y62463D01*
X92203Y62260D01*
X92000Y62361D01*
X91797Y62260D01*
X93797Y58260D02*
X93898Y58463D01*
X93797Y58666D01*
X94000Y58565D01*
X94203Y58666D01*
X94102Y58463D01*
X94203Y58260D01*
X94000Y58361D01*
X93797Y58260D01*
X91797Y54260D02*
X91898Y54463D01*
X91797Y54666D01*
X92000Y54565D01*
X92203Y54666D01*
X92102Y54463D01*
X92203Y54260D01*
X92000Y54361D01*
X91797Y54260D01*
Y46260D02*
X91898Y46463D01*
X91797Y46666D01*
X92000Y46565D01*
X92203Y46666D01*
X92102Y46463D01*
X92203Y46260D01*
X92000Y46361D01*
X91797Y46260D01*
X93797Y42260D02*
X93898Y42463D01*
X93797Y42666D01*
X94000Y42565D01*
X94203Y42666D01*
X94102Y42463D01*
X94203Y42260D01*
X94000Y42361D01*
X93797Y42260D01*
X91797Y38260D02*
X91898Y38463D01*
X91797Y38666D01*
X92000Y38565D01*
X92203Y38666D01*
X92102Y38463D01*
X92203Y38260D01*
X92000Y38361D01*
X91797Y38260D01*
Y30260D02*
X91898Y30463D01*
X91797Y30666D01*
X92000Y30565D01*
X92203Y30666D01*
X92102Y30463D01*
X92203Y30260D01*
X92000Y30361D01*
X91797Y30260D01*
X93797Y26260D02*
X93898Y26463D01*
X93797Y26666D01*
X94000Y26565D01*
X94203Y26666D01*
X94102Y26463D01*
X94203Y26260D01*
X94000Y26361D01*
X93797Y26260D01*
X91797Y22260D02*
X91898Y22463D01*
X91797Y22666D01*
X92000Y22565D01*
X92203Y22666D01*
X92102Y22463D01*
X92203Y22260D01*
X92000Y22361D01*
X91797Y22260D01*
X93797Y18260D02*
X93898Y18463D01*
X93797Y18666D01*
X94000Y18565D01*
X94203Y18666D01*
X94102Y18463D01*
X94203Y18260D01*
X94000Y18361D01*
X93797Y18260D01*
X91797Y14260D02*
X91898Y14463D01*
X91797Y14666D01*
X92000Y14565D01*
X92203Y14666D01*
X92102Y14463D01*
X92203Y14260D01*
X92000Y14361D01*
X91797Y14260D01*
X87797Y70260D02*
X87898Y70463D01*
X87797Y70666D01*
X88000Y70565D01*
X88203Y70666D01*
X88102Y70463D01*
X88203Y70260D01*
X88000Y70361D01*
X87797Y70260D01*
X89797Y66260D02*
X89898Y66463D01*
X89797Y66666D01*
X90000Y66565D01*
X90203Y66666D01*
X90102Y66463D01*
X90203Y66260D01*
X90000Y66361D01*
X89797Y66260D01*
X87797Y62260D02*
X87898Y62463D01*
X87797Y62666D01*
X88000Y62565D01*
X88203Y62666D01*
X88102Y62463D01*
X88203Y62260D01*
X88000Y62361D01*
X87797Y62260D01*
X89797Y58260D02*
X89898Y58463D01*
X89797Y58666D01*
X90000Y58565D01*
X90203Y58666D01*
X90102Y58463D01*
X90203Y58260D01*
X90000Y58361D01*
X89797Y58260D01*
X87797Y54260D02*
X87898Y54463D01*
X87797Y54666D01*
X88000Y54565D01*
X88203Y54666D01*
X88102Y54463D01*
X88203Y54260D01*
X88000Y54361D01*
X87797Y54260D01*
Y46260D02*
X87898Y46463D01*
X87797Y46666D01*
X88000Y46565D01*
X88203Y46666D01*
X88102Y46463D01*
X88203Y46260D01*
X88000Y46361D01*
X87797Y46260D01*
X89797Y42260D02*
X89898Y42463D01*
X89797Y42666D01*
X90000Y42565D01*
X90203Y42666D01*
X90102Y42463D01*
X90203Y42260D01*
X90000Y42361D01*
X89797Y42260D01*
X87797Y38260D02*
X87898Y38463D01*
X87797Y38666D01*
X88000Y38565D01*
X88203Y38666D01*
X88102Y38463D01*
X88203Y38260D01*
X88000Y38361D01*
X87797Y38260D01*
Y30260D02*
X87898Y30463D01*
X87797Y30666D01*
X88000Y30565D01*
X88203Y30666D01*
X88102Y30463D01*
X88203Y30260D01*
X88000Y30361D01*
X87797Y30260D01*
X89797Y26260D02*
X89898Y26463D01*
X89797Y26666D01*
X90000Y26565D01*
X90203Y26666D01*
X90102Y26463D01*
X90203Y26260D01*
X90000Y26361D01*
X89797Y26260D01*
Y18260D02*
X89898Y18463D01*
X89797Y18666D01*
X90000Y18565D01*
X90203Y18666D01*
X90102Y18463D01*
X90203Y18260D01*
X90000Y18361D01*
X89797Y18260D01*
X87797Y14260D02*
X87898Y14463D01*
X87797Y14666D01*
X88000Y14565D01*
X88203Y14666D01*
X88102Y14463D01*
X88203Y14260D01*
X88000Y14361D01*
X87797Y14260D01*
X83797Y70260D02*
X83898Y70463D01*
X83797Y70666D01*
X84000Y70565D01*
X84203Y70666D01*
X84102Y70463D01*
X84203Y70260D01*
X84000Y70361D01*
X83797Y70260D01*
X85797Y66260D02*
X85898Y66463D01*
X85797Y66666D01*
X86000Y66565D01*
X86203Y66666D01*
X86102Y66463D01*
X86203Y66260D01*
X86000Y66361D01*
X85797Y66260D01*
X83797Y62260D02*
X83898Y62463D01*
X83797Y62666D01*
X84000Y62565D01*
X84203Y62666D01*
X84102Y62463D01*
X84203Y62260D01*
X84000Y62361D01*
X83797Y62260D01*
Y54260D02*
X83898Y54463D01*
X83797Y54666D01*
X84000Y54565D01*
X84203Y54666D01*
X84102Y54463D01*
X84203Y54260D01*
X84000Y54361D01*
X83797Y54260D01*
X85797Y42260D02*
X85898Y42463D01*
X85797Y42666D01*
X86000Y42565D01*
X86203Y42666D01*
X86102Y42463D01*
X86203Y42260D01*
X86000Y42361D01*
X85797Y42260D01*
X83797Y38260D02*
X83898Y38463D01*
X83797Y38666D01*
X84000Y38565D01*
X84203Y38666D01*
X84102Y38463D01*
X84203Y38260D01*
X84000Y38361D01*
X83797Y38260D01*
X85797Y26260D02*
X85898Y26463D01*
X85797Y26666D01*
X86000Y26565D01*
X86203Y26666D01*
X86102Y26463D01*
X86203Y26260D01*
X86000Y26361D01*
X85797Y26260D01*
X83797Y22260D02*
X83898Y22463D01*
X83797Y22666D01*
X84000Y22565D01*
X84203Y22666D01*
X84102Y22463D01*
X84203Y22260D01*
X84000Y22361D01*
X83797Y22260D01*
X85797Y18260D02*
X85898Y18463D01*
X85797Y18666D01*
X86000Y18565D01*
X86203Y18666D01*
X86102Y18463D01*
X86203Y18260D01*
X86000Y18361D01*
X85797Y18260D01*
X83797Y14260D02*
X83898Y14463D01*
X83797Y14666D01*
X84000Y14565D01*
X84203Y14666D01*
X84102Y14463D01*
X84203Y14260D01*
X84000Y14361D01*
X83797Y14260D01*
X79797Y70260D02*
X79898Y70463D01*
X79797Y70666D01*
X80000Y70565D01*
X80203Y70666D01*
X80102Y70463D01*
X80203Y70260D01*
X80000Y70361D01*
X79797Y70260D01*
X81797Y66260D02*
X81898Y66463D01*
X81797Y66666D01*
X82000Y66565D01*
X82203Y66666D01*
X82102Y66463D01*
X82203Y66260D01*
X82000Y66361D01*
X81797Y66260D01*
Y58260D02*
X81898Y58463D01*
X81797Y58666D01*
X82000Y58565D01*
X82203Y58666D01*
X82102Y58463D01*
X82203Y58260D01*
X82000Y58361D01*
X81797Y58260D01*
X79797Y54260D02*
X79898Y54463D01*
X79797Y54666D01*
X80000Y54565D01*
X80203Y54666D01*
X80102Y54463D01*
X80203Y54260D01*
X80000Y54361D01*
X79797Y54260D01*
Y46260D02*
X79898Y46463D01*
X79797Y46666D01*
X80000Y46565D01*
X80203Y46666D01*
X80102Y46463D01*
X80203Y46260D01*
X80000Y46361D01*
X79797Y46260D01*
X81797Y42260D02*
X81898Y42463D01*
X81797Y42666D01*
X82000Y42565D01*
X82203Y42666D01*
X82102Y42463D01*
X82203Y42260D01*
X82000Y42361D01*
X81797Y42260D01*
X79797Y38260D02*
X79898Y38463D01*
X79797Y38666D01*
X80000Y38565D01*
X80203Y38666D01*
X80102Y38463D01*
X80203Y38260D01*
X80000Y38361D01*
X79797Y38260D01*
X81797Y26260D02*
X81898Y26463D01*
X81797Y26666D01*
X82000Y26565D01*
X82203Y26666D01*
X82102Y26463D01*
X82203Y26260D01*
X82000Y26361D01*
X81797Y26260D01*
X79797Y22260D02*
X79898Y22463D01*
X79797Y22666D01*
X80000Y22565D01*
X80203Y22666D01*
X80102Y22463D01*
X80203Y22260D01*
X80000Y22361D01*
X79797Y22260D01*
X81797Y18260D02*
X81898Y18463D01*
X81797Y18666D01*
X82000Y18565D01*
X82203Y18666D01*
X82102Y18463D01*
X82203Y18260D01*
X82000Y18361D01*
X81797Y18260D01*
X79797Y14260D02*
X79898Y14463D01*
X79797Y14666D01*
X80000Y14565D01*
X80203Y14666D01*
X80102Y14463D01*
X80203Y14260D01*
X80000Y14361D01*
X79797Y14260D01*
X75797Y70260D02*
X75898Y70463D01*
X75797Y70666D01*
X76000Y70565D01*
X76203Y70666D01*
X76102Y70463D01*
X76203Y70260D01*
X76000Y70361D01*
X75797Y70260D01*
Y62260D02*
X75898Y62463D01*
X75797Y62666D01*
X76000Y62565D01*
X76203Y62666D01*
X76102Y62463D01*
X76203Y62260D01*
X76000Y62361D01*
X75797Y62260D01*
X77797Y58260D02*
X77898Y58463D01*
X77797Y58666D01*
X78000Y58565D01*
X78203Y58666D01*
X78102Y58463D01*
X78203Y58260D01*
X78000Y58361D01*
X77797Y58260D01*
X75797Y46260D02*
X75898Y46463D01*
X75797Y46666D01*
X76000Y46565D01*
X76203Y46666D01*
X76102Y46463D01*
X76203Y46260D01*
X76000Y46361D01*
X75797Y46260D01*
X77797Y42260D02*
X77898Y42463D01*
X77797Y42666D01*
X78000Y42565D01*
X78203Y42666D01*
X78102Y42463D01*
X78203Y42260D01*
X78000Y42361D01*
X77797Y42260D01*
X75797Y38260D02*
X75898Y38463D01*
X75797Y38666D01*
X76000Y38565D01*
X76203Y38666D01*
X76102Y38463D01*
X76203Y38260D01*
X76000Y38361D01*
X75797Y38260D01*
X77797Y26260D02*
X77898Y26463D01*
X77797Y26666D01*
X78000Y26565D01*
X78203Y26666D01*
X78102Y26463D01*
X78203Y26260D01*
X78000Y26361D01*
X77797Y26260D01*
X75797Y22260D02*
X75898Y22463D01*
X75797Y22666D01*
X76000Y22565D01*
X76203Y22666D01*
X76102Y22463D01*
X76203Y22260D01*
X76000Y22361D01*
X75797Y22260D01*
X77797Y18260D02*
X77898Y18463D01*
X77797Y18666D01*
X78000Y18565D01*
X78203Y18666D01*
X78102Y18463D01*
X78203Y18260D01*
X78000Y18361D01*
X77797Y18260D01*
X75797Y14260D02*
X75898Y14463D01*
X75797Y14666D01*
X76000Y14565D01*
X76203Y14666D01*
X76102Y14463D01*
X76203Y14260D01*
X76000Y14361D01*
X75797Y14260D01*
X71797Y70260D02*
X71898Y70463D01*
X71797Y70666D01*
X72000Y70565D01*
X72203Y70666D01*
X72102Y70463D01*
X72203Y70260D01*
X72000Y70361D01*
X71797Y70260D01*
X73797Y66260D02*
X73898Y66463D01*
X73797Y66666D01*
X74000Y66565D01*
X74203Y66666D01*
X74102Y66463D01*
X74203Y66260D01*
X74000Y66361D01*
X73797Y66260D01*
X71797Y62260D02*
X71898Y62463D01*
X71797Y62666D01*
X72000Y62565D01*
X72203Y62666D01*
X72102Y62463D01*
X72203Y62260D01*
X72000Y62361D01*
X71797Y62260D01*
X73797Y58260D02*
X73898Y58463D01*
X73797Y58666D01*
X74000Y58565D01*
X74203Y58666D01*
X74102Y58463D01*
X74203Y58260D01*
X74000Y58361D01*
X73797Y58260D01*
Y50260D02*
X73898Y50463D01*
X73797Y50666D01*
X74000Y50565D01*
X74203Y50666D01*
X74102Y50463D01*
X74203Y50260D01*
X74000Y50361D01*
X73797Y50260D01*
X71797Y46260D02*
X71898Y46463D01*
X71797Y46666D01*
X72000Y46565D01*
X72203Y46666D01*
X72102Y46463D01*
X72203Y46260D01*
X72000Y46361D01*
X71797Y46260D01*
X73797Y42260D02*
X73898Y42463D01*
X73797Y42666D01*
X74000Y42565D01*
X74203Y42666D01*
X74102Y42463D01*
X74203Y42260D01*
X74000Y42361D01*
X73797Y42260D01*
Y18260D02*
X73898Y18463D01*
X73797Y18666D01*
X74000Y18565D01*
X74203Y18666D01*
X74102Y18463D01*
X74203Y18260D01*
X74000Y18361D01*
X73797Y18260D01*
X71797Y14260D02*
X71898Y14463D01*
X71797Y14666D01*
X72000Y14565D01*
X72203Y14666D01*
X72102Y14463D01*
X72203Y14260D01*
X72000Y14361D01*
X71797Y14260D01*
X67797Y70260D02*
X67898Y70463D01*
X67797Y70666D01*
X68000Y70565D01*
X68203Y70666D01*
X68102Y70463D01*
X68203Y70260D01*
X68000Y70361D01*
X67797Y70260D01*
X69797Y66260D02*
X69898Y66463D01*
X69797Y66666D01*
X70000Y66565D01*
X70203Y66666D01*
X70102Y66463D01*
X70203Y66260D01*
X70000Y66361D01*
X69797Y66260D01*
Y58260D02*
X69898Y58463D01*
X69797Y58666D01*
X70000Y58565D01*
X70203Y58666D01*
X70102Y58463D01*
X70203Y58260D01*
X70000Y58361D01*
X69797Y58260D01*
Y50260D02*
X69898Y50463D01*
X69797Y50666D01*
X70000Y50565D01*
X70203Y50666D01*
X70102Y50463D01*
X70203Y50260D01*
X70000Y50361D01*
X69797Y50260D01*
Y42260D02*
X69898Y42463D01*
X69797Y42666D01*
X70000Y42565D01*
X70203Y42666D01*
X70102Y42463D01*
X70203Y42260D01*
X70000Y42361D01*
X69797Y42260D01*
Y26260D02*
X69898Y26463D01*
X69797Y26666D01*
X70000Y26565D01*
X70203Y26666D01*
X70102Y26463D01*
X70203Y26260D01*
X70000Y26361D01*
X69797Y26260D01*
X67797Y14260D02*
X67898Y14463D01*
X67797Y14666D01*
X68000Y14565D01*
X68203Y14666D01*
X68102Y14463D01*
X68203Y14260D01*
X68000Y14361D01*
X67797Y14260D01*
X63797Y70260D02*
X63898Y70463D01*
X63797Y70666D01*
X64000Y70565D01*
X64203Y70666D01*
X64102Y70463D01*
X64203Y70260D01*
X64000Y70361D01*
X63797Y70260D01*
X65797Y66260D02*
X65898Y66463D01*
X65797Y66666D01*
X66000Y66565D01*
X66203Y66666D01*
X66102Y66463D01*
X66203Y66260D01*
X66000Y66361D01*
X65797Y66260D01*
X63797Y62260D02*
X63898Y62463D01*
X63797Y62666D01*
X64000Y62565D01*
X64203Y62666D01*
X64102Y62463D01*
X64203Y62260D01*
X64000Y62361D01*
X63797Y62260D01*
X65797Y58260D02*
X65898Y58463D01*
X65797Y58666D01*
X66000Y58565D01*
X66203Y58666D01*
X66102Y58463D01*
X66203Y58260D01*
X66000Y58361D01*
X65797Y58260D01*
Y50260D02*
X65898Y50463D01*
X65797Y50666D01*
X66000Y50565D01*
X66203Y50666D01*
X66102Y50463D01*
X66203Y50260D01*
X66000Y50361D01*
X65797Y50260D01*
Y42260D02*
X65898Y42463D01*
X65797Y42666D01*
X66000Y42565D01*
X66203Y42666D01*
X66102Y42463D01*
X66203Y42260D01*
X66000Y42361D01*
X65797Y42260D01*
X63797Y22260D02*
X63898Y22463D01*
X63797Y22666D01*
X64000Y22565D01*
X64203Y22666D01*
X64102Y22463D01*
X64203Y22260D01*
X64000Y22361D01*
X63797Y22260D01*
Y14260D02*
X63898Y14463D01*
X63797Y14666D01*
X64000Y14565D01*
X64203Y14666D01*
X64102Y14463D01*
X64203Y14260D01*
X64000Y14361D01*
X63797Y14260D01*
X59797Y70260D02*
X59898Y70463D01*
X59797Y70666D01*
X60000Y70565D01*
X60203Y70666D01*
X60102Y70463D01*
X60203Y70260D01*
X60000Y70361D01*
X59797Y70260D01*
X61797Y66260D02*
X61898Y66463D01*
X61797Y66666D01*
X62000Y66565D01*
X62203Y66666D01*
X62102Y66463D01*
X62203Y66260D01*
X62000Y66361D01*
X61797Y66260D01*
X59797Y62260D02*
X59898Y62463D01*
X59797Y62666D01*
X60000Y62565D01*
X60203Y62666D01*
X60102Y62463D01*
X60203Y62260D01*
X60000Y62361D01*
X59797Y62260D01*
X61797Y58260D02*
X61898Y58463D01*
X61797Y58666D01*
X62000Y58565D01*
X62203Y58666D01*
X62102Y58463D01*
X62203Y58260D01*
X62000Y58361D01*
X61797Y58260D01*
Y42260D02*
X61898Y42463D01*
X61797Y42666D01*
X62000Y42565D01*
X62203Y42666D01*
X62102Y42463D01*
X62203Y42260D01*
X62000Y42361D01*
X61797Y42260D01*
Y26260D02*
X61898Y26463D01*
X61797Y26666D01*
X62000Y26565D01*
X62203Y26666D01*
X62102Y26463D01*
X62203Y26260D01*
X62000Y26361D01*
X61797Y26260D01*
X59797Y22260D02*
X59898Y22463D01*
X59797Y22666D01*
X60000Y22565D01*
X60203Y22666D01*
X60102Y22463D01*
X60203Y22260D01*
X60000Y22361D01*
X59797Y22260D01*
X61797Y18260D02*
X61898Y18463D01*
X61797Y18666D01*
X62000Y18565D01*
X62203Y18666D01*
X62102Y18463D01*
X62203Y18260D01*
X62000Y18361D01*
X61797Y18260D01*
X59797Y14260D02*
X59898Y14463D01*
X59797Y14666D01*
X60000Y14565D01*
X60203Y14666D01*
X60102Y14463D01*
X60203Y14260D01*
X60000Y14361D01*
X59797Y14260D01*
X55797Y70260D02*
X55898Y70463D01*
X55797Y70666D01*
X56000Y70565D01*
X56203Y70666D01*
X56102Y70463D01*
X56203Y70260D01*
X56000Y70361D01*
X55797Y70260D01*
X57797Y66260D02*
X57898Y66463D01*
X57797Y66666D01*
X58000Y66565D01*
X58203Y66666D01*
X58102Y66463D01*
X58203Y66260D01*
X58000Y66361D01*
X57797Y66260D01*
Y58260D02*
X57898Y58463D01*
X57797Y58666D01*
X58000Y58565D01*
X58203Y58666D01*
X58102Y58463D01*
X58203Y58260D01*
X58000Y58361D01*
X57797Y58260D01*
X55797Y54260D02*
X55898Y54463D01*
X55797Y54666D01*
X56000Y54565D01*
X56203Y54666D01*
X56102Y54463D01*
X56203Y54260D01*
X56000Y54361D01*
X55797Y54260D01*
X57797Y42260D02*
X57898Y42463D01*
X57797Y42666D01*
X58000Y42565D01*
X58203Y42666D01*
X58102Y42463D01*
X58203Y42260D01*
X58000Y42361D01*
X57797Y42260D01*
X55797Y38260D02*
X55898Y38463D01*
X55797Y38666D01*
X56000Y38565D01*
X56203Y38666D01*
X56102Y38463D01*
X56203Y38260D01*
X56000Y38361D01*
X55797Y38260D01*
X57797Y34260D02*
X57898Y34463D01*
X57797Y34666D01*
X58000Y34565D01*
X58203Y34666D01*
X58102Y34463D01*
X58203Y34260D01*
X58000Y34361D01*
X57797Y34260D01*
Y26260D02*
X57898Y26463D01*
X57797Y26666D01*
X58000Y26565D01*
X58203Y26666D01*
X58102Y26463D01*
X58203Y26260D01*
X58000Y26361D01*
X57797Y26260D01*
X55797Y22260D02*
X55898Y22463D01*
X55797Y22666D01*
X56000Y22565D01*
X56203Y22666D01*
X56102Y22463D01*
X56203Y22260D01*
X56000Y22361D01*
X55797Y22260D01*
X57797Y18260D02*
X57898Y18463D01*
X57797Y18666D01*
X58000Y18565D01*
X58203Y18666D01*
X58102Y18463D01*
X58203Y18260D01*
X58000Y18361D01*
X57797Y18260D01*
X55797Y14260D02*
X55898Y14463D01*
X55797Y14666D01*
X56000Y14565D01*
X56203Y14666D01*
X56102Y14463D01*
X56203Y14260D01*
X56000Y14361D01*
X55797Y14260D01*
X51797Y70260D02*
X51898Y70463D01*
X51797Y70666D01*
X52000Y70565D01*
X52203Y70666D01*
X52102Y70463D01*
X52203Y70260D01*
X52000Y70361D01*
X51797Y70260D01*
X53797Y66260D02*
X53898Y66463D01*
X53797Y66666D01*
X54000Y66565D01*
X54203Y66666D01*
X54102Y66463D01*
X54203Y66260D01*
X54000Y66361D01*
X53797Y66260D01*
X51797Y62260D02*
X51898Y62463D01*
X51797Y62666D01*
X52000Y62565D01*
X52203Y62666D01*
X52102Y62463D01*
X52203Y62260D01*
X52000Y62361D01*
X51797Y62260D01*
X53797Y58260D02*
X53898Y58463D01*
X53797Y58666D01*
X54000Y58565D01*
X54203Y58666D01*
X54102Y58463D01*
X54203Y58260D01*
X54000Y58361D01*
X53797Y58260D01*
X51797Y54260D02*
X51898Y54463D01*
X51797Y54666D01*
X52000Y54565D01*
X52203Y54666D01*
X52102Y54463D01*
X52203Y54260D01*
X52000Y54361D01*
X51797Y54260D01*
X53797Y50260D02*
X53898Y50463D01*
X53797Y50666D01*
X54000Y50565D01*
X54203Y50666D01*
X54102Y50463D01*
X54203Y50260D01*
X54000Y50361D01*
X53797Y50260D01*
X51797Y38260D02*
X51898Y38463D01*
X51797Y38666D01*
X52000Y38565D01*
X52203Y38666D01*
X52102Y38463D01*
X52203Y38260D01*
X52000Y38361D01*
X51797Y38260D01*
Y30260D02*
X51898Y30463D01*
X51797Y30666D01*
X52000Y30565D01*
X52203Y30666D01*
X52102Y30463D01*
X52203Y30260D01*
X52000Y30361D01*
X51797Y30260D01*
X53797Y26260D02*
X53898Y26463D01*
X53797Y26666D01*
X54000Y26565D01*
X54203Y26666D01*
X54102Y26463D01*
X54203Y26260D01*
X54000Y26361D01*
X53797Y26260D01*
X51797Y22260D02*
X51898Y22463D01*
X51797Y22666D01*
X52000Y22565D01*
X52203Y22666D01*
X52102Y22463D01*
X52203Y22260D01*
X52000Y22361D01*
X51797Y22260D01*
X53797Y18260D02*
X53898Y18463D01*
X53797Y18666D01*
X54000Y18565D01*
X54203Y18666D01*
X54102Y18463D01*
X54203Y18260D01*
X54000Y18361D01*
X53797Y18260D01*
X47797Y54260D02*
X47898Y54463D01*
X47797Y54666D01*
X48000Y54565D01*
X48203Y54666D01*
X48102Y54463D01*
X48203Y54260D01*
X48000Y54361D01*
X47797Y54260D01*
X49797Y50260D02*
X49898Y50463D01*
X49797Y50666D01*
X50000Y50565D01*
X50203Y50666D01*
X50102Y50463D01*
X50203Y50260D01*
X50000Y50361D01*
X49797Y50260D01*
X47797Y38260D02*
X47898Y38463D01*
X47797Y38666D01*
X48000Y38565D01*
X48203Y38666D01*
X48102Y38463D01*
X48203Y38260D01*
X48000Y38361D01*
X47797Y38260D01*
X49797Y34260D02*
X49898Y34463D01*
X49797Y34666D01*
X50000Y34565D01*
X50203Y34666D01*
X50102Y34463D01*
X50203Y34260D01*
X50000Y34361D01*
X49797Y34260D01*
X47797Y30260D02*
X47898Y30463D01*
X47797Y30666D01*
X48000Y30565D01*
X48203Y30666D01*
X48102Y30463D01*
X48203Y30260D01*
X48000Y30361D01*
X47797Y30260D01*
X49797Y26260D02*
X49898Y26463D01*
X49797Y26666D01*
X50000Y26565D01*
X50203Y26666D01*
X50102Y26463D01*
X50203Y26260D01*
X50000Y26361D01*
X49797Y26260D01*
X47797Y22260D02*
X47898Y22463D01*
X47797Y22666D01*
X48000Y22565D01*
X48203Y22666D01*
X48102Y22463D01*
X48203Y22260D01*
X48000Y22361D01*
X47797Y22260D01*
X49797Y18260D02*
X49898Y18463D01*
X49797Y18666D01*
X50000Y18565D01*
X50203Y18666D01*
X50102Y18463D01*
X50203Y18260D01*
X50000Y18361D01*
X49797Y18260D01*
X43797Y70260D02*
X43898Y70463D01*
X43797Y70666D01*
X44000Y70565D01*
X44203Y70666D01*
X44102Y70463D01*
X44203Y70260D01*
X44000Y70361D01*
X43797Y70260D01*
X45797Y66260D02*
X45898Y66463D01*
X45797Y66666D01*
X46000Y66565D01*
X46203Y66666D01*
X46102Y66463D01*
X46203Y66260D01*
X46000Y66361D01*
X45797Y66260D01*
X43797Y62260D02*
X43898Y62463D01*
X43797Y62666D01*
X44000Y62565D01*
X44203Y62666D01*
X44102Y62463D01*
X44203Y62260D01*
X44000Y62361D01*
X43797Y62260D01*
X45797Y58260D02*
X45898Y58463D01*
X45797Y58666D01*
X46000Y58565D01*
X46203Y58666D01*
X46102Y58463D01*
X46203Y58260D01*
X46000Y58361D01*
X45797Y58260D01*
X43797Y54260D02*
X43898Y54463D01*
X43797Y54666D01*
X44000Y54565D01*
X44203Y54666D01*
X44102Y54463D01*
X44203Y54260D01*
X44000Y54361D01*
X43797Y54260D01*
X45797Y50260D02*
X45898Y50463D01*
X45797Y50666D01*
X46000Y50565D01*
X46203Y50666D01*
X46102Y50463D01*
X46203Y50260D01*
X46000Y50361D01*
X45797Y50260D01*
Y42260D02*
X45898Y42463D01*
X45797Y42666D01*
X46000Y42565D01*
X46203Y42666D01*
X46102Y42463D01*
X46203Y42260D01*
X46000Y42361D01*
X45797Y42260D01*
Y34260D02*
X45898Y34463D01*
X45797Y34666D01*
X46000Y34565D01*
X46203Y34666D01*
X46102Y34463D01*
X46203Y34260D01*
X46000Y34361D01*
X45797Y34260D01*
Y26260D02*
X45898Y26463D01*
X45797Y26666D01*
X46000Y26565D01*
X46203Y26666D01*
X46102Y26463D01*
X46203Y26260D01*
X46000Y26361D01*
X45797Y26260D01*
X43797Y22260D02*
X43898Y22463D01*
X43797Y22666D01*
X44000Y22565D01*
X44203Y22666D01*
X44102Y22463D01*
X44203Y22260D01*
X44000Y22361D01*
X43797Y22260D01*
X45797Y18260D02*
X45898Y18463D01*
X45797Y18666D01*
X46000Y18565D01*
X46203Y18666D01*
X46102Y18463D01*
X46203Y18260D01*
X46000Y18361D01*
X45797Y18260D01*
X43797Y14260D02*
X43898Y14463D01*
X43797Y14666D01*
X44000Y14565D01*
X44203Y14666D01*
X44102Y14463D01*
X44203Y14260D01*
X44000Y14361D01*
X43797Y14260D01*
X41797Y74260D02*
X41898Y74463D01*
X41797Y74666D01*
X42000Y74565D01*
X42203Y74666D01*
X42102Y74463D01*
X42203Y74260D01*
X42000Y74361D01*
X41797Y74260D01*
X39797Y22260D02*
X39898Y22463D01*
X39797Y22666D01*
X40000Y22565D01*
X40203Y22666D01*
X40102Y22463D01*
X40203Y22260D01*
X40000Y22361D01*
X39797Y22260D01*
X41797Y18260D02*
X41898Y18463D01*
X41797Y18666D01*
X42000Y18565D01*
X42203Y18666D01*
X42102Y18463D01*
X42203Y18260D01*
X42000Y18361D01*
X41797Y18260D01*
X39797Y14260D02*
X39898Y14463D01*
X39797Y14666D01*
X40000Y14565D01*
X40203Y14666D01*
X40102Y14463D01*
X40203Y14260D01*
X40000Y14361D01*
X39797Y14260D01*
X35797Y54260D02*
X35898Y54463D01*
X35797Y54666D01*
X36000Y54565D01*
X36203Y54666D01*
X36102Y54463D01*
X36203Y54260D01*
X36000Y54361D01*
X35797Y54260D01*
Y46260D02*
X35898Y46463D01*
X35797Y46666D01*
X36000Y46565D01*
X36203Y46666D01*
X36102Y46463D01*
X36203Y46260D01*
X36000Y46361D01*
X35797Y46260D01*
Y38260D02*
X35898Y38463D01*
X35797Y38666D01*
X36000Y38565D01*
X36203Y38666D01*
X36102Y38463D01*
X36203Y38260D01*
X36000Y38361D01*
X35797Y38260D01*
Y22260D02*
X35898Y22463D01*
X35797Y22666D01*
X36000Y22565D01*
X36203Y22666D01*
X36102Y22463D01*
X36203Y22260D01*
X36000Y22361D01*
X35797Y22260D01*
X37797Y18260D02*
X37898Y18463D01*
X37797Y18666D01*
X38000Y18565D01*
X38203Y18666D01*
X38102Y18463D01*
X38203Y18260D01*
X38000Y18361D01*
X37797Y18260D01*
X35797Y14260D02*
X35898Y14463D01*
X35797Y14666D01*
X36000Y14565D01*
X36203Y14666D01*
X36102Y14463D01*
X36203Y14260D01*
X36000Y14361D01*
X35797Y14260D01*
X31797Y30260D02*
X31898Y30463D01*
X31797Y30666D01*
X32000Y30565D01*
X32203Y30666D01*
X32102Y30463D01*
X32203Y30260D01*
X32000Y30361D01*
X31797Y30260D01*
X34047Y67022D02*
X34148Y67225D01*
X34047Y67428D01*
X34250Y67327D01*
X34453Y67428D01*
X34352Y67225D01*
X34453Y67022D01*
X34250Y67123D01*
X34047Y67022D01*
X35247Y66997D02*
X35348Y67200D01*
X35247Y67403D01*
X35450Y67302D01*
X35653Y67403D01*
X35552Y67200D01*
X35653Y66997D01*
X35450Y67098D01*
X35247Y66997D01*
X35422Y69497D02*
X35523Y69700D01*
X35422Y69903D01*
X35625Y69802D01*
X35828Y69903D01*
X35727Y69700D01*
X35828Y69497D01*
X35625Y69598D01*
X35422Y69497D01*
X34022D02*
X34123Y69700D01*
X34022Y69903D01*
X34225Y69802D01*
X34428Y69903D01*
X34327Y69700D01*
X34428Y69497D01*
X34225Y69598D01*
X34022Y69497D01*
X112947Y72372D02*
X113048Y72575D01*
X112947Y72778D01*
X113150Y72677D01*
X113353Y72778D01*
X113252Y72575D01*
X113353Y72372D01*
X113150Y72473D01*
X112947Y72372D01*
X113922Y69797D02*
X114023Y70000D01*
X113922Y70203D01*
X114125Y70102D01*
X114328Y70203D01*
X114227Y70000D01*
X114328Y69797D01*
X114125Y69898D01*
X113922Y69797D01*
X112147Y69822D02*
X112248Y70025D01*
X112147Y70228D01*
X112350Y70127D01*
X112553Y70228D01*
X112452Y70025D01*
X112553Y69822D01*
X112350Y69923D01*
X112147Y69822D01*
X113847Y67297D02*
X113948Y67500D01*
X113847Y67703D01*
X114050Y67602D01*
X114253Y67703D01*
X114152Y67500D01*
X114253Y67297D01*
X114050Y67398D01*
X113847Y67297D01*
X112472D02*
X112573Y67500D01*
X112472Y67703D01*
X112675Y67602D01*
X112878Y67703D01*
X112777Y67500D01*
X112878Y67297D01*
X112675Y67398D01*
X112472Y67297D01*
X87197Y22422D02*
X87298Y22625D01*
X87197Y22828D01*
X87400Y22727D01*
X87603Y22828D01*
X87502Y22625D01*
X87603Y22422D01*
X87400Y22523D01*
X87197Y22422D01*
X84347Y50197D02*
X84448Y50400D01*
X84347Y50603D01*
X84550Y50502D01*
X84753Y50603D01*
X84651Y50400D01*
X84753Y50197D01*
X84550Y50298D01*
X84347Y50197D01*
X84347Y32897D02*
X84448Y33100D01*
X84347Y33303D01*
X84550Y33202D01*
X84753Y33303D01*
X84652Y33100D01*
X84753Y32897D01*
X84550Y32998D01*
X84347Y32897D01*
X92672Y71147D02*
X92773Y71350D01*
X92672Y71553D01*
X92875Y71452D01*
X93078Y71553D01*
X92977Y71350D01*
X93078Y71147D01*
X92875Y71248D01*
X92672Y71147D01*
X75597Y33722D02*
X75698Y33925D01*
X75597Y34128D01*
X75800Y34027D01*
X76003Y34128D01*
X75902Y33925D01*
X76003Y33722D01*
X75800Y33823D01*
X75597Y33722D01*
X75597Y51022D02*
X75698Y51225D01*
X75597Y51428D01*
X75800Y51327D01*
X76003Y51428D01*
X75901Y51225D01*
X76003Y51022D01*
X75800Y51123D01*
X75597Y51022D01*
X84326Y53722D02*
X84427Y53925D01*
X84326Y54128D01*
X84529Y54027D01*
X84732Y54128D01*
X84631Y53925D01*
X84732Y53722D01*
X84529Y53823D01*
X84326Y53722D01*
X85247Y59097D02*
X85348Y59300D01*
X85247Y59503D01*
X85450Y59402D01*
X85653Y59503D01*
X85552Y59300D01*
X85653Y59097D01*
X85450Y59198D01*
X85247Y59097D01*
X81288Y49889D02*
X81390Y50092D01*
X81288Y50295D01*
X81491Y50194D01*
X81695Y50295D01*
X81593Y50092D01*
X81695Y49889D01*
X81491Y49990D01*
X81288Y49889D01*
X93447Y49472D02*
X93548Y49675D01*
X93447Y49878D01*
X93650Y49777D01*
X93853Y49878D01*
X93752Y49675D01*
X93853Y49472D01*
X93650Y49573D01*
X93447Y49472D01*
Y53722D02*
X93548Y53925D01*
X93447Y54128D01*
X93650Y54027D01*
X93853Y54128D01*
X93752Y53925D01*
X93853Y53722D01*
X93650Y53823D01*
X93447Y53722D01*
X75597Y54547D02*
X75698Y54750D01*
X75597Y54953D01*
X75800Y54852D01*
X76003Y54953D01*
X75901Y54750D01*
X76003Y54547D01*
X75800Y54648D01*
X75597Y54547D01*
X52747Y32817D02*
X52848Y33021D01*
X52747Y33224D01*
X52950Y33122D01*
X53153Y33224D01*
X53052Y33021D01*
X53153Y32817D01*
X52950Y32919D01*
X52747Y32817D01*
X75597Y37247D02*
X75698Y37450D01*
X75597Y37653D01*
X75800Y37552D01*
X76003Y37653D01*
X75902Y37450D01*
X76003Y37247D01*
X75800Y37348D01*
X75597Y37247D01*
X84347Y36422D02*
X84448Y36625D01*
X84347Y36828D01*
X84550Y36727D01*
X84753Y36828D01*
X84652Y36625D01*
X84753Y36422D01*
X84550Y36523D01*
X84347Y36422D01*
X93447Y36422D02*
X93548Y36625D01*
X93447Y36828D01*
X93650Y36727D01*
X93853Y36828D01*
X93752Y36625D01*
X93853Y36422D01*
X93650Y36523D01*
X93447Y36422D01*
X93454Y32072D02*
X93556Y32275D01*
X93454Y32478D01*
X93657Y32377D01*
X93860Y32478D01*
X93759Y32275D01*
X93860Y32072D01*
X93657Y32173D01*
X93454Y32072D01*
X81422Y22197D02*
X81523Y22400D01*
X81422Y22603D01*
X81625Y22502D01*
X81828Y22603D01*
X81727Y22400D01*
X81828Y22197D01*
X81625Y22298D01*
X81422Y22197D01*
X78622D02*
X78723Y22400D01*
X78622Y22603D01*
X78825Y22502D01*
X79028Y22603D01*
X78927Y22400D01*
X79028Y22197D01*
X78825Y22298D01*
X78622Y22197D01*
X51822Y16447D02*
X51923Y16650D01*
X51822Y16853D01*
X52025Y16752D01*
X52228Y16853D01*
X52127Y16650D01*
X52228Y16447D01*
X52025Y16548D01*
X51822Y16447D01*
X56572Y62072D02*
X56673Y62275D01*
X56572Y62478D01*
X56775Y62377D01*
X56978Y62478D01*
X56877Y62275D01*
X56978Y62072D01*
X56775Y62173D01*
X56572Y62072D01*
X72497Y30064D02*
X72599Y30268D01*
X72497Y30471D01*
X72701Y30369D01*
X72904Y30471D01*
X72802Y30268D01*
X72904Y30064D01*
X72701Y30166D01*
X72497Y30064D01*
X80022Y24797D02*
X80123Y25000D01*
X80022Y25203D01*
X80225Y25102D01*
X80428Y25203D01*
X80327Y25000D01*
X80428Y24797D01*
X80225Y24898D01*
X80022Y24797D01*
X62946Y28990D02*
X63047Y29193D01*
X62946Y29396D01*
X63149Y29294D01*
X63352Y29396D01*
X63250Y29193D01*
X63352Y28990D01*
X63149Y29091D01*
X62946Y28990D01*
X66986Y33972D02*
X67088Y34175D01*
X66986Y34378D01*
X67189Y34277D01*
X67392Y34378D01*
X67291Y34175D01*
X67392Y33972D01*
X67189Y34073D01*
X66986Y33972D01*
X68206Y35577D02*
X68308Y35780D01*
X68206Y35983D01*
X68409Y35882D01*
X68613Y35983D01*
X68511Y35780D01*
X68613Y35577D01*
X68409Y35678D01*
X68206Y35577D01*
X67597Y37297D02*
X67698Y37500D01*
X67597Y37703D01*
X67800Y37602D01*
X68003Y37703D01*
X67902Y37500D01*
X68003Y37297D01*
X67800Y37398D01*
X67597Y37297D01*
X68206Y52877D02*
X68308Y53080D01*
X68206Y53283D01*
X68409Y53182D01*
X68613Y53283D01*
X68511Y53080D01*
X68613Y52877D01*
X68409Y52978D01*
X68206Y52877D01*
X67976Y47404D02*
X68078Y47607D01*
X67976Y47810D01*
X68179Y47709D01*
X68383Y47810D01*
X68281Y47607D01*
X68383Y47404D01*
X68179Y47506D01*
X67976Y47404D01*
X68297Y56422D02*
X68398Y56625D01*
X68297Y56828D01*
X68500Y56727D01*
X68703Y56828D01*
X68602Y56625D01*
X68703Y56422D01*
X68500Y56523D01*
X68297Y56422D01*
X69559Y30804D02*
X69660Y31007D01*
X69559Y31210D01*
X69762Y31109D01*
X69965Y31210D01*
X69863Y31007D01*
X69965Y30804D01*
X69762Y30906D01*
X69559Y30804D01*
X70296Y28990D02*
X70397Y29193D01*
X70296Y29396D01*
X70499Y29294D01*
X70702Y29396D01*
X70600Y29193D01*
X70702Y28990D01*
X70499Y29091D01*
X70296Y28990D01*
X67846D02*
X67947Y29193D01*
X67846Y29396D01*
X68049Y29294D01*
X68252Y29396D01*
X68150Y29193D01*
X68252Y28990D01*
X68049Y29091D01*
X67846Y28990D01*
X65572Y26347D02*
X65673Y26550D01*
X65572Y26753D01*
X65775Y26652D01*
X65978Y26753D01*
X65877Y26550D01*
X65978Y26347D01*
X65775Y26448D01*
X65572Y26347D01*
X66218Y24672D02*
X66319Y24875D01*
X66218Y25078D01*
X66421Y24977D01*
X66624Y25078D01*
X66523Y24875D01*
X66624Y24672D01*
X66421Y24773D01*
X66218Y24672D01*
X73754Y36353D02*
X73856Y36556D01*
X73754Y36759D01*
X73957Y36658D01*
X74161Y36759D01*
X74059Y36556D01*
X74161Y36353D01*
X73957Y36455D01*
X73754Y36353D01*
X73747Y33872D02*
X73848Y34075D01*
X73747Y34278D01*
X73950Y34177D01*
X74153Y34278D01*
X74052Y34075D01*
X74153Y33872D01*
X73950Y33973D01*
X73747Y33872D01*
X71047Y35973D02*
X71148Y36176D01*
X71047Y36380D01*
X71250Y36278D01*
X71453Y36380D01*
X71352Y36176D01*
X71453Y35973D01*
X71250Y36075D01*
X71047Y35973D01*
X81083Y53328D02*
X81184Y53531D01*
X81083Y53734D01*
X81286Y53633D01*
X81489Y53734D01*
X81388Y53531D01*
X81489Y53328D01*
X81286Y53430D01*
X81083Y53328D01*
X85947Y33393D02*
X86048Y33596D01*
X85947Y33799D01*
X86150Y33697D01*
X86353Y33799D01*
X86251Y33596D01*
X86353Y33393D01*
X86150Y33494D01*
X85947Y33393D01*
Y35212D02*
X86048Y35415D01*
X85947Y35618D01*
X86150Y35516D01*
X86353Y35618D01*
X86251Y35415D01*
X86353Y35212D01*
X86150Y35313D01*
X85947Y35212D01*
X82247Y31722D02*
X82348Y31925D01*
X82247Y32128D01*
X82450Y32027D01*
X82653Y32128D01*
X82552Y31925D01*
X82653Y31722D01*
X82450Y31823D01*
X82247Y31722D01*
Y49022D02*
X82348Y49225D01*
X82247Y49428D01*
X82450Y49327D01*
X82653Y49428D01*
X82552Y49225D01*
X82653Y49022D01*
X82450Y49123D01*
X82247Y49022D01*
X67127Y26947D02*
X67229Y27150D01*
X67127Y27353D01*
X67330Y27252D01*
X67534Y27353D01*
X67432Y27150D01*
X67534Y26947D01*
X67330Y27048D01*
X67127Y26947D01*
X65947Y15897D02*
X66048Y16100D01*
X65947Y16303D01*
X66150Y16202D01*
X66353Y16303D01*
X66252Y16100D01*
X66353Y15897D01*
X66150Y15998D01*
X65947Y15897D01*
X70072Y15888D02*
X70173Y16091D01*
X70072Y16294D01*
X70275Y16192D01*
X70478Y16294D01*
X70377Y16091D01*
X70478Y15888D01*
X70275Y15989D01*
X70072Y15888D01*
X69551Y17557D02*
X69652Y17760D01*
X69551Y17963D01*
X69754Y17862D01*
X69957Y17963D01*
X69856Y17760D01*
X69957Y17557D01*
X69754Y17658D01*
X69551Y17557D01*
X70347Y23947D02*
X70448Y24150D01*
X70347Y24353D01*
X70550Y24252D01*
X70753Y24353D01*
X70651Y24150D01*
X70753Y23947D01*
X70550Y24048D01*
X70347Y23947D01*
X72751Y25422D02*
X72852Y25625D01*
X72751Y25828D01*
X72954Y25726D01*
X73157Y25828D01*
X73056Y25625D01*
X73157Y25422D01*
X72954Y25523D01*
X72751Y25422D01*
X73397Y23772D02*
X73498Y23975D01*
X73397Y24178D01*
X73600Y24077D01*
X73803Y24178D01*
X73702Y23975D01*
X73803Y23772D01*
X73600Y23873D01*
X73397Y23772D01*
X67247Y21097D02*
X67348Y21300D01*
X67247Y21503D01*
X67450Y21402D01*
X67653Y21503D01*
X67552Y21300D01*
X67653Y21097D01*
X67450Y21198D01*
X67247Y21097D01*
X73097D02*
X73198Y21300D01*
X73097Y21503D01*
X73300Y21402D01*
X73503Y21503D01*
X73402Y21300D01*
X73503Y21097D01*
X73300Y21198D01*
X73097Y21097D01*
X49449Y44462D02*
X49550Y44665D01*
X49449Y44868D01*
X49652Y44766D01*
X49855Y44868D01*
X49754Y44665D01*
X49855Y44462D01*
X49652Y44563D01*
X49449Y44462D01*
X70021Y48754D02*
X70122Y48957D01*
X70021Y49160D01*
X70224Y49059D01*
X70427Y49160D01*
X70326Y48957D01*
X70427Y48754D01*
X70224Y48855D01*
X70021Y48754D01*
X65564Y46973D02*
X65666Y47176D01*
X65564Y47379D01*
X65768Y47277D01*
X65971Y47379D01*
X65869Y47176D01*
X65971Y46973D01*
X65768Y47074D01*
X65564Y46973D01*
X63286Y47872D02*
X63387Y48075D01*
X63286Y48278D01*
X63489Y48177D01*
X63692Y48278D01*
X63590Y48075D01*
X63692Y47872D01*
X63489Y47974D01*
X63286Y47872D01*
X60857Y48195D02*
X60959Y48399D01*
X60857Y48602D01*
X61060Y48500D01*
X61263Y48602D01*
X61162Y48399D01*
X61263Y48195D01*
X61060Y48297D01*
X60857Y48195D01*
X58538Y47404D02*
X58640Y47607D01*
X58538Y47810D01*
X58742Y47709D01*
X58945Y47810D01*
X58843Y47607D01*
X58945Y47404D01*
X58742Y47506D01*
X58538Y47404D01*
X56095Y47221D02*
X56197Y47425D01*
X56095Y47628D01*
X56298Y47526D01*
X56502Y47628D01*
X56400Y47425D01*
X56502Y47221D01*
X56298Y47323D01*
X56095Y47221D01*
X54275Y45582D02*
X54376Y45785D01*
X54275Y45988D01*
X54478Y45887D01*
X54681Y45988D01*
X54579Y45785D01*
X54681Y45582D01*
X54478Y45683D01*
X54275Y45582D01*
X53060Y43454D02*
X53162Y43657D01*
X53060Y43860D01*
X53263Y43759D01*
X53467Y43860D01*
X53365Y43657D01*
X53467Y43454D01*
X53263Y43556D01*
X53060Y43454D01*
X47365Y41921D02*
X47467Y42125D01*
X47365Y42328D01*
X47569Y42226D01*
X47772Y42328D01*
X47670Y42125D01*
X47772Y41921D01*
X47569Y42023D01*
X47365Y41921D01*
X49449Y40632D02*
X49550Y40835D01*
X49449Y41038D01*
X49652Y40937D01*
X49855Y41038D01*
X49754Y40835D01*
X49855Y40632D01*
X49652Y40734D01*
X49449Y40632D01*
X53965Y40749D02*
X54066Y40953D01*
X53965Y41156D01*
X54168Y41054D01*
X54371Y41156D01*
X54269Y40953D01*
X54371Y40749D01*
X54168Y40851D01*
X53965Y40749D01*
Y38299D02*
X54066Y38503D01*
X53965Y38706D01*
X54168Y38604D01*
X54371Y38706D01*
X54269Y38503D01*
X54371Y38299D01*
X54168Y38401D01*
X53965Y38299D01*
Y35849D02*
X54066Y36053D01*
X53965Y36256D01*
X54168Y36154D01*
X54371Y36256D01*
X54269Y36053D01*
X54371Y35849D01*
X54168Y35951D01*
X53965Y35849D01*
X53998Y30967D02*
X54099Y31170D01*
X53998Y31374D01*
X54201Y31272D01*
X54404Y31374D01*
X54302Y31170D01*
X54404Y30967D01*
X54201Y31069D01*
X53998Y30967D01*
X55599Y29113D02*
X55700Y29316D01*
X55599Y29519D01*
X55802Y29418D01*
X56005Y29519D01*
X55904Y29316D01*
X56005Y29113D01*
X55802Y29214D01*
X55599Y29113D01*
X58046Y28990D02*
X58147Y29193D01*
X58046Y29396D01*
X58249Y29294D01*
X58452Y29396D01*
X58350Y29193D01*
X58452Y28990D01*
X58249Y29091D01*
X58046Y28990D01*
X60496D02*
X60597Y29193D01*
X60496Y29396D01*
X60699Y29294D01*
X60902Y29396D01*
X60800Y29193D01*
X60902Y28990D01*
X60699Y29091D01*
X60496Y28990D01*
X65396D02*
X65497Y29193D01*
X65396Y29396D01*
X65599Y29294D01*
X65802Y29396D01*
X65700Y29193D01*
X65802Y28990D01*
X65599Y29091D01*
X65396Y28990D01*
X73818Y32128D02*
X73919Y32331D01*
X73818Y32534D01*
X74021Y32433D01*
X74224Y32534D01*
X74123Y32331D01*
X74224Y32128D01*
X74021Y32230D01*
X73818Y32128D01*
X67109Y30804D02*
X67210Y31007D01*
X67109Y31210D01*
X67312Y31109D01*
X67515Y31210D01*
X67413Y31007D01*
X67515Y30804D01*
X67312Y30906D01*
X67109Y30804D01*
X64659D02*
X64760Y31007D01*
X64659Y31210D01*
X64862Y31109D01*
X65065Y31210D01*
X64963Y31007D01*
X65065Y30804D01*
X64862Y30906D01*
X64659Y30804D01*
X62209D02*
X62310Y31007D01*
X62209Y31210D01*
X62412Y31109D01*
X62615Y31210D01*
X62513Y31007D01*
X62615Y30804D01*
X62412Y30906D01*
X62209Y30804D01*
X59759D02*
X59860Y31007D01*
X59759Y31210D01*
X59962Y31109D01*
X60165Y31210D01*
X60063Y31007D01*
X60165Y30804D01*
X59962Y30906D01*
X59759Y30804D01*
X57309D02*
X57410Y31007D01*
X57309Y31210D01*
X57512Y31109D01*
X57715Y31210D01*
X57613Y31007D01*
X57715Y30804D01*
X57512Y30906D01*
X57309Y30804D01*
X56016Y35156D02*
X56118Y35360D01*
X56016Y35563D01*
X56219Y35461D01*
X56423Y35563D01*
X56321Y35360D01*
X56423Y35156D01*
X56219Y35258D01*
X56016Y35156D01*
X55779Y37595D02*
X55881Y37798D01*
X55779Y38001D01*
X55982Y37900D01*
X56185Y38001D01*
X56084Y37798D01*
X56185Y37595D01*
X55982Y37697D01*
X55779Y37595D01*
Y40045D02*
X55881Y40248D01*
X55779Y40451D01*
X55982Y40350D01*
X56185Y40451D01*
X56084Y40248D01*
X56185Y40045D01*
X55982Y40147D01*
X55779Y40045D01*
X55853Y42494D02*
X55955Y42697D01*
X55853Y42900D01*
X56056Y42799D01*
X56259Y42900D01*
X56158Y42697D01*
X56259Y42494D01*
X56056Y42595D01*
X55853Y42494D01*
X55995Y44940D02*
X56097Y45143D01*
X55995Y45346D01*
X56199Y45245D01*
X56402Y45346D01*
X56300Y45143D01*
X56402Y44940D01*
X56199Y45041D01*
X55995Y44940D01*
X58443Y45048D02*
X58545Y45251D01*
X58443Y45454D01*
X58646Y45353D01*
X58849Y45454D01*
X58748Y45251D01*
X58849Y45048D01*
X58646Y45150D01*
X58443Y45048D01*
X60227Y43369D02*
X60329Y43572D01*
X60227Y43775D01*
X60430Y43674D01*
X60633Y43775D01*
X60532Y43572D01*
X60633Y43369D01*
X60430Y43470D01*
X60227Y43369D01*
X62527Y44212D02*
X62629Y44415D01*
X62527Y44618D01*
X62731Y44517D01*
X62934Y44618D01*
X62832Y44415D01*
X62934Y44212D01*
X62731Y44314D01*
X62527Y44212D01*
X64976Y44306D02*
X65077Y44509D01*
X64976Y44712D01*
X65179Y44611D01*
X65382Y44712D01*
X65280Y44509D01*
X65382Y44306D01*
X65179Y44407D01*
X64976Y44306D01*
X67062Y45590D02*
X67164Y45793D01*
X67062Y45996D01*
X67266Y45894D01*
X67469Y45996D01*
X67367Y45793D01*
X67469Y45590D01*
X67266Y45691D01*
X67062Y45590D01*
X69489Y45928D02*
X69590Y46131D01*
X69489Y46334D01*
X69692Y46233D01*
X69895Y46334D01*
X69794Y46131D01*
X69895Y45928D01*
X69692Y46030D01*
X69489Y45928D01*
X71352Y47519D02*
X71454Y47722D01*
X71352Y47925D01*
X71555Y47824D01*
X71758Y47925D01*
X71657Y47722D01*
X71758Y47519D01*
X71555Y47621D01*
X71352Y47519D01*
X72797Y49797D02*
X72898Y50000D01*
X72797Y50203D01*
X73000Y50102D01*
X73203Y50203D01*
X73102Y50000D01*
X73203Y49797D01*
X73000Y49898D01*
X72797Y49797D01*
X95708Y52504D02*
X95809Y52707D01*
X95708Y52910D01*
X95911Y52809D01*
X96114Y52910D01*
X96013Y52707D01*
X96114Y52504D01*
X95911Y52606D01*
X95708Y52504D01*
X100256Y49690D02*
X100357Y49893D01*
X100256Y50096D01*
X100459Y49994D01*
X100662Y50096D01*
X100560Y49893D01*
X100662Y49690D01*
X100459Y49791D01*
X100256Y49690D01*
X101882Y51522D02*
X101984Y51725D01*
X101882Y51928D01*
X102085Y51826D01*
X102288Y51928D01*
X102187Y51725D01*
X102288Y51522D01*
X102085Y51623D01*
X101882Y51522D01*
X95569Y50690D02*
X95670Y50893D01*
X95569Y51096D01*
X95772Y50994D01*
X95975Y51096D01*
X95874Y50893D01*
X95975Y50690D01*
X95772Y50791D01*
X95569Y50690D01*
X100406Y53477D02*
X100508Y53680D01*
X100406Y53884D01*
X100609Y53782D01*
X100813Y53884D01*
X100711Y53680D01*
X100813Y53477D01*
X100609Y53579D01*
X100406Y53477D01*
X74917Y47481D02*
X75018Y47685D01*
X74917Y47888D01*
X75120Y47786D01*
X75323Y47888D01*
X75221Y47685D01*
X75323Y47481D01*
X75120Y47583D01*
X74917Y47481D01*
X83872Y47268D02*
X83973Y47471D01*
X83872Y47674D01*
X84075Y47573D01*
X84278Y47674D01*
X84176Y47471D01*
X84278Y47268D01*
X84075Y47369D01*
X83872Y47268D01*
X79597Y47072D02*
X79698Y47275D01*
X79597Y47478D01*
X79800Y47377D01*
X80003Y47478D01*
X79902Y47275D01*
X80003Y47072D01*
X79800Y47173D01*
X79597Y47072D01*
X82247Y46822D02*
X82348Y47025D01*
X82247Y47228D01*
X82450Y47127D01*
X82653Y47228D01*
X82552Y47025D01*
X82653Y46822D01*
X82450Y46923D01*
X82247Y46822D01*
X74818Y49929D02*
X74919Y50133D01*
X74818Y50336D01*
X75021Y50234D01*
X75224Y50336D01*
X75122Y50133D01*
X75224Y49929D01*
X75021Y50031D01*
X74818Y49929D01*
X86097Y47486D02*
X86198Y47689D01*
X86097Y47892D01*
X86300Y47790D01*
X86503Y47892D01*
X86401Y47689D01*
X86503Y47486D01*
X86300Y47587D01*
X86097Y47486D01*
X77329Y47054D02*
X77431Y47257D01*
X77329Y47460D01*
X77532Y47359D01*
X77735Y47460D01*
X77634Y47257D01*
X77735Y47054D01*
X77532Y47156D01*
X77329Y47054D01*
X90669Y50690D02*
X90770Y50893D01*
X90669Y51096D01*
X90872Y50994D01*
X91075Y51096D01*
X90974Y50893D01*
X91075Y50690D01*
X90872Y50791D01*
X90669Y50690D01*
X78633Y53328D02*
X78734Y53531D01*
X78633Y53734D01*
X78836Y53633D01*
X79039Y53734D01*
X78938Y53531D01*
X79039Y53328D01*
X78836Y53430D01*
X78633Y53328D01*
X79572Y52897D02*
X79673Y53100D01*
X79572Y53303D01*
X79775Y53202D01*
X79978Y53303D01*
X79877Y53100D01*
X79978Y52897D01*
X79775Y52998D01*
X79572Y52897D01*
X88358Y52534D02*
X88460Y52737D01*
X88358Y52940D01*
X88561Y52838D01*
X88764Y52940D01*
X88663Y52737D01*
X88764Y52534D01*
X88561Y52635D01*
X88358Y52534D01*
X88220Y50628D02*
X88321Y50832D01*
X88220Y51035D01*
X88423Y50933D01*
X88626Y51035D01*
X88524Y50832D01*
X88626Y50628D01*
X88423Y50730D01*
X88220Y50628D01*
X85947Y52512D02*
X86048Y52715D01*
X85947Y52918D01*
X86150Y52816D01*
X86353Y52918D01*
X86251Y52715D01*
X86353Y52512D01*
X86150Y52613D01*
X85947Y52512D01*
Y50693D02*
X86048Y50896D01*
X85947Y51099D01*
X86150Y50997D01*
X86353Y51099D01*
X86251Y50896D01*
X86353Y50693D01*
X86150Y50794D01*
X85947Y50693D01*
X82572Y50372D02*
X82673Y50575D01*
X82572Y50778D01*
X82775Y50677D01*
X82978Y50778D01*
X82877Y50575D01*
X82978Y50372D01*
X82775Y50473D01*
X82572Y50372D01*
X89197Y49997D02*
X89298Y50200D01*
X89197Y50403D01*
X89400Y50302D01*
X89603Y50403D01*
X89502Y50200D01*
X89603Y49997D01*
X89400Y50098D01*
X89197Y49997D01*
X90808Y52504D02*
X90909Y52707D01*
X90808Y52910D01*
X91011Y52809D01*
X91214Y52910D01*
X91113Y52707D01*
X91214Y52504D01*
X91011Y52606D01*
X90808Y52504D01*
X73754Y53653D02*
X73856Y53856D01*
X73754Y54059D01*
X73957Y53958D01*
X74161Y54059D01*
X74059Y53856D01*
X74161Y53653D01*
X73957Y53755D01*
X73754Y53653D01*
X61880Y54516D02*
X61982Y54719D01*
X61880Y54922D01*
X62084Y54821D01*
X62287Y54922D01*
X62185Y54719D01*
X62287Y54516D01*
X62084Y54617D01*
X61880Y54516D01*
X67597Y54597D02*
X67698Y54800D01*
X67597Y55003D01*
X67800Y54902D01*
X68003Y55003D01*
X67902Y54800D01*
X68003Y54597D01*
X67800Y54698D01*
X67597Y54597D01*
X71047Y53273D02*
X71148Y53476D01*
X71047Y53680D01*
X71250Y53578D01*
X71453Y53680D01*
X71352Y53476D01*
X71453Y53273D01*
X71250Y53375D01*
X71047Y53273D01*
X71647Y54872D02*
X71748Y55075D01*
X71647Y55278D01*
X71850Y55177D01*
X72053Y55278D01*
X71952Y55075D01*
X72053Y54872D01*
X71850Y54973D01*
X71647Y54872D01*
X65847Y53547D02*
X65948Y53750D01*
X65847Y53953D01*
X66050Y53852D01*
X66253Y53953D01*
X66152Y53750D01*
X66253Y53547D01*
X66050Y53648D01*
X65847Y53547D01*
X66986Y51272D02*
X67088Y51475D01*
X66986Y51678D01*
X67189Y51577D01*
X67392Y51678D01*
X67291Y51475D01*
X67392Y51272D01*
X67189Y51373D01*
X66986Y51272D01*
X71647Y50372D02*
X71748Y50575D01*
X71647Y50778D01*
X71850Y50677D01*
X72053Y50778D01*
X71952Y50575D01*
X72053Y50372D01*
X71850Y50473D01*
X71647Y50372D01*
X69929Y51065D02*
X70031Y51268D01*
X69929Y51471D01*
X70132Y51369D01*
X70335Y51471D01*
X70234Y51268D01*
X70335Y51065D01*
X70132Y51166D01*
X69929Y51065D01*
X65872Y51722D02*
X65973Y51925D01*
X65872Y52128D01*
X66075Y52027D01*
X66278Y52128D01*
X66177Y51925D01*
X66278Y51722D01*
X66075Y51823D01*
X65872Y51722D01*
X61480Y50654D02*
X61582Y50857D01*
X61480Y51060D01*
X61684Y50959D01*
X61887Y51060D01*
X61785Y50857D01*
X61887Y50654D01*
X61684Y50756D01*
X61480Y50654D01*
X73747Y51172D02*
X73848Y51375D01*
X73747Y51578D01*
X73950Y51477D01*
X74153Y51578D01*
X74052Y51375D01*
X74153Y51172D01*
X73950Y51273D01*
X73747Y51172D01*
X81286Y32653D02*
X81387Y32856D01*
X81286Y33059D01*
X81489Y32958D01*
X81692Y33059D01*
X81591Y32856D01*
X81692Y32653D01*
X81489Y32755D01*
X81286Y32653D01*
X82572Y33072D02*
X82673Y33275D01*
X82572Y33478D01*
X82775Y33377D01*
X82978Y33478D01*
X82877Y33275D01*
X82978Y33072D01*
X82775Y33173D01*
X82572Y33072D01*
X61480Y33354D02*
X61582Y33557D01*
X61480Y33760D01*
X61684Y33659D01*
X61887Y33760D01*
X61785Y33557D01*
X61887Y33354D01*
X61684Y33456D01*
X61480Y33354D01*
X65847Y36247D02*
X65948Y36450D01*
X65847Y36653D01*
X66050Y36552D01*
X66253Y36653D01*
X66152Y36450D01*
X66253Y36247D01*
X66050Y36348D01*
X65847Y36247D01*
X65872Y34422D02*
X65973Y34625D01*
X65872Y34828D01*
X66075Y34727D01*
X66278Y34828D01*
X66177Y34625D01*
X66278Y34422D01*
X66075Y34523D01*
X65872Y34422D01*
X69929Y33765D02*
X70031Y33968D01*
X69929Y34171D01*
X70132Y34069D01*
X70335Y34171D01*
X70234Y33968D01*
X70335Y33765D01*
X70132Y33866D01*
X69929Y33765D01*
X74818Y32629D02*
X74919Y32833D01*
X74818Y33036D01*
X75021Y32934D01*
X75224Y33036D01*
X75122Y32833D01*
X75224Y32629D01*
X75021Y32731D01*
X74818Y32629D01*
X74917Y30181D02*
X75018Y30385D01*
X74917Y30588D01*
X75120Y30486D01*
X75323Y30588D01*
X75221Y30385D01*
X75323Y30181D01*
X75120Y30283D01*
X74917Y30181D01*
X77329Y29754D02*
X77431Y29957D01*
X77329Y30160D01*
X77532Y30059D01*
X77735Y30160D01*
X77634Y29957D01*
X77735Y29754D01*
X77532Y29856D01*
X77329Y29754D01*
X88220Y33328D02*
X88321Y33532D01*
X88220Y33735D01*
X88423Y33633D01*
X88626Y33735D01*
X88524Y33532D01*
X88626Y33328D01*
X88423Y33430D01*
X88220Y33328D01*
X90669Y33390D02*
X90770Y33593D01*
X90669Y33796D01*
X90872Y33694D01*
X91075Y33796D01*
X90974Y33593D01*
X91075Y33390D01*
X90872Y33491D01*
X90669Y33390D01*
X95569D02*
X95670Y33593D01*
X95569Y33796D01*
X95772Y33694D01*
X95975Y33796D01*
X95874Y33593D01*
X95975Y33390D01*
X95772Y33491D01*
X95569Y33390D01*
X100256Y32390D02*
X100357Y32593D01*
X100256Y32796D01*
X100459Y32694D01*
X100662Y32796D01*
X100560Y32593D01*
X100662Y32390D01*
X100459Y32491D01*
X100256Y32390D01*
X101882Y34222D02*
X101984Y34425D01*
X101882Y34628D01*
X102085Y34526D01*
X102288Y34628D01*
X102187Y34425D01*
X102288Y34222D01*
X102085Y34323D01*
X101882Y34222D01*
X100406Y36177D02*
X100508Y36380D01*
X100406Y36584D01*
X100609Y36482D01*
X100813Y36584D01*
X100711Y36380D01*
X100813Y36177D01*
X100609Y36279D01*
X100406Y36177D01*
X95708Y35204D02*
X95809Y35407D01*
X95708Y35610D01*
X95911Y35509D01*
X96114Y35610D01*
X96013Y35407D01*
X96114Y35204D01*
X95911Y35306D01*
X95708Y35204D01*
X90808D02*
X90909Y35407D01*
X90808Y35610D01*
X91011Y35509D01*
X91214Y35610D01*
X91113Y35407D01*
X91214Y35204D01*
X91011Y35306D01*
X90808Y35204D01*
X88358Y35234D02*
X88460Y35437D01*
X88358Y35640D01*
X88561Y35538D01*
X88764Y35640D01*
X88663Y35437D01*
X88764Y35234D01*
X88561Y35335D01*
X88358Y35234D01*
X81083Y36028D02*
X81184Y36231D01*
X81083Y36434D01*
X81286Y36333D01*
X81489Y36434D01*
X81388Y36231D01*
X81489Y36028D01*
X81286Y36130D01*
X81083Y36028D01*
X78633D02*
X78734Y36231D01*
X78633Y36434D01*
X78836Y36333D01*
X79039Y36434D01*
X78938Y36231D01*
X79039Y36028D01*
X78836Y36130D01*
X78633Y36028D01*
X61880Y37216D02*
X61982Y37419D01*
X61880Y37622D01*
X62084Y37521D01*
X62287Y37622D01*
X62185Y37419D01*
X62287Y37216D01*
X62084Y37317D01*
X61880Y37216D01*
X106772Y25972D02*
X106873Y26175D01*
X106772Y26378D01*
X106975Y26277D01*
X107178Y26378D01*
X107077Y26175D01*
X107178Y25972D01*
X106975Y26073D01*
X106772Y25972D01*
X107725Y25987D02*
X107827Y26190D01*
X107725Y26393D01*
X107929Y26292D01*
X108132Y26393D01*
X108030Y26190D01*
X108132Y25987D01*
X107929Y26088D01*
X107725Y25987D01*
X100772Y62522D02*
X100873Y62726D01*
X100772Y62929D01*
X100975Y62827D01*
X101178Y62929D01*
X101077Y62726D01*
X101178Y62522D01*
X100975Y62624D01*
X100772Y62522D01*
Y63397D02*
X100873Y63600D01*
X100772Y63803D01*
X100975Y63702D01*
X101178Y63803D01*
X101077Y63600D01*
X101178Y63397D01*
X100975Y63498D01*
X100772Y63397D01*
X107728Y28527D02*
X107830Y28730D01*
X107728Y28933D01*
X107931Y28832D01*
X108135Y28933D01*
X108033Y28730D01*
X108135Y28527D01*
X107931Y28628D01*
X107728Y28527D01*
X106147Y63897D02*
X106248Y64100D01*
X106147Y64303D01*
X106350Y64202D01*
X106553Y64303D01*
X106452Y64100D01*
X106553Y63897D01*
X106350Y63998D01*
X106147Y63897D01*
X108047Y62972D02*
X108148Y63175D01*
X108047Y63378D01*
X108250Y63277D01*
X108453Y63378D01*
X108352Y63175D01*
X108453Y62972D01*
X108250Y63073D01*
X108047Y62972D01*
X108797Y32122D02*
X108898Y32325D01*
X108797Y32528D01*
X109000Y32427D01*
X109203Y32528D01*
X109102Y32325D01*
X109203Y32122D01*
X109000Y32223D01*
X108797Y32122D01*
X109426Y34672D02*
X109527Y34875D01*
X109426Y35078D01*
X109629Y34977D01*
X109832Y35078D01*
X109731Y34875D01*
X109832Y34672D01*
X109629Y34773D01*
X109426Y34672D01*
X110347Y62547D02*
X110448Y62750D01*
X110347Y62953D01*
X110550Y62852D01*
X110753Y62953D01*
X110652Y62750D01*
X110753Y62547D01*
X110550Y62648D01*
X110347Y62547D01*
X39841Y33607D02*
X39943Y33810D01*
X39841Y34013D01*
X40044Y33912D01*
X40248Y34013D01*
X40146Y33810D01*
X40248Y33607D01*
X40044Y33708D01*
X39841Y33607D01*
X40696Y25996D02*
X40797Y26199D01*
X40696Y26402D01*
X40899Y26300D01*
X41102Y26402D01*
X41000Y26199D01*
X41102Y25996D01*
X40899Y26097D01*
X40696Y25996D01*
X39832Y31067D02*
X39933Y31270D01*
X39832Y31473D01*
X40035Y31372D01*
X40238Y31473D01*
X40136Y31270D01*
X40238Y31067D01*
X40035Y31168D01*
X39832Y31067D01*
X39816Y28527D02*
X39918Y28730D01*
X39816Y28933D01*
X40020Y28832D01*
X40223Y28933D01*
X40121Y28730D01*
X40223Y28527D01*
X40020Y28628D01*
X39816Y28527D01*
X35981Y33607D02*
X36083Y33810D01*
X35981Y34013D01*
X36184Y33912D01*
X36388Y34013D01*
X36286Y33810D01*
X36388Y33607D01*
X36184Y33708D01*
X35981Y33607D01*
X42422Y61906D02*
X42523Y62109D01*
X42422Y62312D01*
X42625Y62211D01*
X42828Y62312D01*
X42727Y62109D01*
X42828Y61906D01*
X42625Y62007D01*
X42422Y61906D01*
X43072Y60157D02*
X43174Y60361D01*
X43072Y60564D01*
X43275Y60462D01*
X43479Y60564D01*
X43377Y60361D01*
X43479Y60157D01*
X43275Y60259D01*
X43072Y60157D01*
X83872Y29968D02*
X83973Y30171D01*
X83872Y30374D01*
X84075Y30273D01*
X84278Y30374D01*
X84176Y30171D01*
X84278Y29968D01*
X84075Y30069D01*
X83872Y29968D01*
X86097Y30186D02*
X86198Y30389D01*
X86097Y30592D01*
X86300Y30490D01*
X86503Y30592D01*
X86401Y30389D01*
X86503Y30186D01*
X86300Y30287D01*
X86097Y30186D01*
X71647Y33072D02*
X71748Y33275D01*
X71647Y33478D01*
X71850Y33377D01*
X72053Y33478D01*
X71952Y33275D01*
X72053Y33072D01*
X71850Y33173D01*
X71647Y33072D01*
X70297Y32459D02*
X70398Y32662D01*
X70297Y32865D01*
X70500Y32764D01*
X70703Y32865D01*
X70602Y32662D01*
X70703Y32459D01*
X70500Y32561D01*
X70297Y32459D01*
X89197Y32697D02*
X89298Y32900D01*
X89197Y33103D01*
X89400Y33002D01*
X89603Y33103D01*
X89502Y32900D01*
X89603Y32697D01*
X89400Y32798D01*
X89197Y32697D01*
X67722Y38522D02*
X67823Y38725D01*
X67722Y38928D01*
X67925Y38827D01*
X68128Y38928D01*
X68027Y38725D01*
X68128Y38522D01*
X67925Y38623D01*
X67722Y38522D01*
X79597Y29772D02*
X79698Y29975D01*
X79597Y30178D01*
X79800Y30077D01*
X80003Y30178D01*
X79902Y29975D01*
X80003Y29772D01*
X79800Y29873D01*
X79597Y29772D01*
X82247Y29522D02*
X82348Y29725D01*
X82247Y29928D01*
X82450Y29827D01*
X82653Y29928D01*
X82552Y29725D01*
X82653Y29522D01*
X82450Y29623D01*
X82247Y29522D01*
X71647Y37572D02*
X71748Y37775D01*
X71647Y37978D01*
X71850Y37877D01*
X72053Y37978D01*
X71952Y37775D01*
X72053Y37572D01*
X71850Y37673D01*
X71647Y37572D01*
X79572Y35597D02*
X79673Y35800D01*
X79572Y36003D01*
X79775Y35902D01*
X79978Y36003D01*
X79877Y35800D01*
X79978Y35597D01*
X79775Y35698D01*
X79572Y35597D01*
X39819Y65987D02*
X39921Y66190D01*
X39819Y66393D01*
X40022Y66292D01*
X40225Y66393D01*
X40124Y66190D01*
X40225Y65987D01*
X40022Y66088D01*
X39819Y65987D01*
X40687D02*
X40788Y66190D01*
X40687Y66393D01*
X40890Y66292D01*
X41093Y66393D01*
X40992Y66190D01*
X41093Y65987D01*
X40890Y66088D01*
X40687Y65987D01*
X63580Y75132D02*
X63682Y75335D01*
X63580Y75538D01*
X63784Y75437D01*
X63987Y75538D01*
X63885Y75335D01*
X63987Y75132D01*
X63784Y75234D01*
X63580Y75132D01*
X66968Y64013D02*
X67069Y64216D01*
X66968Y64419D01*
X67171Y64318D01*
X67374Y64419D01*
X67273Y64216D01*
X67374Y64013D01*
X67171Y64114D01*
X66968Y64013D01*
X80362Y67539D02*
X80463Y67742D01*
X80362Y67945D01*
X80565Y67843D01*
X80768Y67945D01*
X80666Y67742D01*
X80768Y67539D01*
X80565Y67640D01*
X80362Y67539D01*
X58194Y77452D02*
X58296Y77655D01*
X58194Y77858D01*
X58398Y77757D01*
X58601Y77858D01*
X58499Y77655D01*
X58601Y77452D01*
X58398Y77554D01*
X58194Y77452D01*
X58172Y75189D02*
X58273Y75392D01*
X58172Y75595D01*
X58375Y75493D01*
X58578Y75595D01*
X58477Y75392D01*
X58578Y75189D01*
X58375Y75290D01*
X58172Y75189D01*
Y72572D02*
X58273Y72775D01*
X58172Y72978D01*
X58375Y72877D01*
X58578Y72978D01*
X58477Y72775D01*
X58578Y72572D01*
X58375Y72673D01*
X58172Y72572D01*
X63580Y76622D02*
X63682Y76825D01*
X63580Y77028D01*
X63784Y76927D01*
X63987Y77028D01*
X63885Y76825D01*
X63987Y76622D01*
X63784Y76723D01*
X63580Y76622D01*
X63578Y72572D02*
X63680Y72775D01*
X63578Y72978D01*
X63781Y72877D01*
X63984Y72978D01*
X63883Y72775D01*
X63984Y72572D01*
X63781Y72673D01*
X63578Y72572D01*
X68984Y73722D02*
X69086Y73925D01*
X68984Y74128D01*
X69188Y74027D01*
X69391Y74128D01*
X69289Y73925D01*
X69391Y73722D01*
X69188Y73823D01*
X68984Y73722D01*
X74391Y74512D02*
X74492Y74715D01*
X74391Y74918D01*
X74594Y74817D01*
X74797Y74918D01*
X74695Y74715D01*
X74797Y74512D01*
X74594Y74613D01*
X74391Y74512D01*
X45542Y67539D02*
X45644Y67742D01*
X45542Y67945D01*
X45746Y67843D01*
X45949Y67945D01*
X45847Y67742D01*
X45949Y67539D01*
X45746Y67640D01*
X45542Y67539D01*
X44578D02*
X44680Y67742D01*
X44578Y67945D01*
X44781Y67843D01*
X44985Y67945D01*
X44883Y67742D01*
X44985Y67539D01*
X44781Y67640D01*
X44578Y67539D01*
X50347Y62053D02*
X50448Y62256D01*
X50347Y62459D01*
X50550Y62357D01*
X50753Y62459D01*
X50652Y62256D01*
X50753Y62053D01*
X50550Y62154D01*
X50347Y62053D01*
X67868Y64013D02*
X67969Y64216D01*
X67868Y64419D01*
X68071Y64318D01*
X68274Y64419D01*
X68173Y64216D01*
X68274Y64013D01*
X68071Y64114D01*
X67868Y64013D01*
X79022Y63872D02*
X79123Y64075D01*
X79022Y64278D01*
X79225Y64177D01*
X79428Y64278D01*
X79327Y64075D01*
X79428Y63872D01*
X79225Y63973D01*
X79022Y63872D01*
X65497Y65013D02*
X65598Y65217D01*
X65497Y65420D01*
X65700Y65318D01*
X65903Y65420D01*
X65801Y65217D01*
X65903Y65013D01*
X65700Y65115D01*
X65497Y65013D01*
X64268Y64997D02*
X64369Y65200D01*
X64268Y65403D01*
X64471Y65302D01*
X64674Y65403D01*
X64572Y65200D01*
X64674Y64997D01*
X64471Y65098D01*
X64268Y64997D01*
X67368Y61822D02*
X67469Y62025D01*
X67368Y62228D01*
X67571Y62127D01*
X67774Y62228D01*
X67673Y62025D01*
X67774Y61822D01*
X67571Y61923D01*
X67368Y61822D01*
X66793Y60422D02*
X66894Y60625D01*
X66793Y60828D01*
X66996Y60727D01*
X67199Y60828D01*
X67098Y60625D01*
X67199Y60422D01*
X66996Y60523D01*
X66793Y60422D01*
X78372Y66447D02*
X78473Y66650D01*
X78372Y66853D01*
X78575Y66752D01*
X78778Y66853D01*
X78677Y66650D01*
X78778Y66447D01*
X78575Y66548D01*
X78372Y66447D01*
X77522D02*
X77623Y66650D01*
X77522Y66853D01*
X77725Y66752D01*
X77928Y66853D01*
X77827Y66650D01*
X77928Y66447D01*
X77725Y66548D01*
X77522Y66447D01*
X79772Y62447D02*
X79873Y62650D01*
X79772Y62853D01*
X79975Y62752D01*
X80178Y62853D01*
X80077Y62650D01*
X80178Y62447D01*
X79975Y62548D01*
X79772Y62447D01*
X101647Y67539D02*
X101748Y67742D01*
X101647Y67945D01*
X101850Y67843D01*
X102053Y67945D01*
X101952Y67742D01*
X102053Y67539D01*
X101850Y67640D01*
X101647Y67539D01*
X100772D02*
X100873Y67742D01*
X100772Y67945D01*
X100975Y67843D01*
X101178Y67945D01*
X101077Y67742D01*
X101178Y67539D01*
X100975Y67640D01*
X100772Y67539D01*
X50347Y62847D02*
X50448Y63050D01*
X50347Y63253D01*
X50550Y63152D01*
X50753Y63253D01*
X50652Y63050D01*
X50753Y62847D01*
X50550Y62948D01*
X50347Y62847D01*
X41736Y63944D02*
X41837Y64147D01*
X41736Y64351D01*
X41939Y64249D01*
X42142Y64351D01*
X42040Y64147D01*
X42142Y63944D01*
X41939Y64046D01*
X41736Y63944D01*
X111563Y33607D02*
X111665Y33810D01*
X111563Y34013D01*
X111767Y33912D01*
X111970Y34013D01*
X111868Y33810D01*
X111970Y33607D01*
X111767Y33708D01*
X111563Y33607D01*
X107728Y69047D02*
X107830Y69250D01*
X107728Y69453D01*
X107931Y69352D01*
X108135Y69453D01*
X108033Y69250D01*
X108135Y69047D01*
X107931Y69148D01*
X107728Y69047D01*
X114314Y25987D02*
X114415Y26190D01*
X114314Y26393D01*
X114517Y26292D01*
X114720Y26393D01*
X114619Y26190D01*
X114720Y25987D01*
X114517Y26088D01*
X114314Y25987D01*
Y28527D02*
X114415Y28730D01*
X114314Y28933D01*
X114517Y28832D01*
X114720Y28933D01*
X114619Y28730D01*
X114720Y28527D01*
X114517Y28628D01*
X114314Y28527D01*
X39832Y71067D02*
X39933Y71270D01*
X39832Y71473D01*
X40035Y71372D01*
X40238Y71473D01*
X40136Y71270D01*
X40238Y71067D01*
X40035Y71168D01*
X39832Y71067D01*
X111513Y25987D02*
X111614Y26190D01*
X111513Y26393D01*
X111716Y26292D01*
X111919Y26393D01*
X111817Y26190D01*
X111919Y25987D01*
X111716Y26088D01*
X111513Y25987D01*
X111535Y31067D02*
X111637Y31270D01*
X111535Y31473D01*
X111739Y31372D01*
X111942Y31473D01*
X111840Y31270D01*
X111942Y31067D01*
X111739Y31168D01*
X111535Y31067D01*
X111527Y28527D02*
X111629Y28730D01*
X111527Y28933D01*
X111730Y28832D01*
X111933Y28933D01*
X111832Y28730D01*
X111933Y28527D01*
X111730Y28628D01*
X111527Y28527D01*
X107713Y71587D02*
X107814Y71790D01*
X107713Y71993D01*
X107916Y71892D01*
X108119Y71993D01*
X108018Y71790D01*
X108119Y71587D01*
X107916Y71688D01*
X107713Y71587D01*
X111563Y74127D02*
X111665Y74330D01*
X111563Y74533D01*
X111767Y74432D01*
X111970Y74533D01*
X111868Y74330D01*
X111970Y74127D01*
X111767Y74228D01*
X111563Y74127D01*
X39816Y68527D02*
X39918Y68730D01*
X39816Y68933D01*
X40020Y68832D01*
X40223Y68933D01*
X40121Y68730D01*
X40223Y68527D01*
X40020Y68628D01*
X39816Y68527D01*
X35981Y73607D02*
X36083Y73810D01*
X35981Y74013D01*
X36184Y73912D01*
X36388Y74013D01*
X36286Y73810D01*
X36388Y73607D01*
X36184Y73708D01*
X35981Y73607D01*
X36009Y71067D02*
X36111Y71270D01*
X36009Y71473D01*
X36212Y71372D01*
X36415Y71473D01*
X36314Y71270D01*
X36415Y71067D01*
X36212Y71168D01*
X36009Y71067D01*
X32807Y28527D02*
X32908Y28730D01*
X32807Y28933D01*
X33010Y28832D01*
X33213Y28933D01*
X33112Y28730D01*
X33213Y28527D01*
X33010Y28628D01*
X32807Y28527D01*
Y25987D02*
X32908Y26190D01*
X32807Y26393D01*
X33010Y26292D01*
X33213Y26393D01*
X33112Y26190D01*
X33213Y25987D01*
X33010Y26088D01*
X32807Y25987D01*
X36018Y28527D02*
X36119Y28730D01*
X36018Y28933D01*
X36221Y28832D01*
X36424Y28933D01*
X36322Y28730D01*
X36424Y28527D01*
X36221Y28628D01*
X36018Y28527D01*
X36009Y31067D02*
X36111Y31270D01*
X36009Y31473D01*
X36212Y31372D01*
X36415Y31473D01*
X36314Y31270D01*
X36415Y31067D01*
X36212Y31168D01*
X36009Y31067D01*
X36032Y25987D02*
X36133Y26190D01*
X36032Y26393D01*
X36235Y26292D01*
X36438Y26393D01*
X36337Y26190D01*
X36438Y25987D01*
X36235Y26088D01*
X36032Y25987D01*
X39819D02*
X39921Y26190D01*
X39819Y26393D01*
X40022Y26292D01*
X40225Y26393D01*
X40124Y26190D01*
X40225Y25987D01*
X40022Y26088D01*
X39819Y25987D01*
X79794Y72572D02*
X79896Y72775D01*
X79794Y72978D01*
X79997Y72877D01*
X80201Y72978D01*
X80099Y72775D01*
X80201Y72572D01*
X79997Y72673D01*
X79794Y72572D01*
X106822Y66497D02*
X106923Y66700D01*
X106822Y66903D01*
X107025Y66802D01*
X107228Y66903D01*
X107127Y66700D01*
X107228Y66497D01*
X107025Y66598D01*
X106822Y66497D01*
X107725Y66507D02*
X107827Y66710D01*
X107725Y66913D01*
X107929Y66812D01*
X108132Y66913D01*
X108030Y66710D01*
X108132Y66507D01*
X107929Y66608D01*
X107725Y66507D01*
D70*
X61878Y52825D02*
G03*
X61878Y52825I-203J0D01*
G01*
Y35525D02*
G03*
X61878Y35525I-203J0D01*
G01*
X100353Y51800D02*
G03*
X100353Y51800I-203J0D01*
G01*
Y34500D02*
G03*
X100353Y34500I-203J0D01*
G01*
X49603Y42750D02*
G03*
X49603Y42750I-203J0D01*
G01*
M02*
