G04*
G04 #@! TF.GenerationSoftware,Altium Limited,Altium Designer,23.0.1 (38)*
G04*
G04 Layer_Color=8388736*
%FSLAX43Y43*%
%MOMM*%
G71*
G04*
G04 #@! TF.SameCoordinates,2E0F9480-7CF3-4E61-B830-77F9E17AB5E5*
G04*
G04*
G04 #@! TF.FilePolarity,Negative*
G04*
G01*
G75*
%ADD31R,1.000X1.000*%
%ADD32R,0.600X0.600*%
%ADD33R,0.600X0.600*%
%ADD34R,1.500X1.050*%
%ADD35R,1.100X2.100*%
%ADD36R,0.750X2.100*%
%ADD37O,0.450X0.950*%
%ADD38R,1.000X0.500*%
G04:AMPARAMS|DCode=39|XSize=1.1mm|YSize=2.1mm|CornerRadius=0.3mm|HoleSize=0mm|Usage=FLASHONLY|Rotation=270.000|XOffset=0mm|YOffset=0mm|HoleType=Round|Shape=RoundedRectangle|*
%AMROUNDEDRECTD39*
21,1,1.100,1.500,0,0,270.0*
21,1,0.500,2.100,0,0,270.0*
1,1,0.600,-0.750,-0.250*
1,1,0.600,-0.750,0.250*
1,1,0.600,0.750,0.250*
1,1,0.600,0.750,-0.250*
%
%ADD39ROUNDEDRECTD39*%
G04:AMPARAMS|DCode=40|XSize=1.1mm|YSize=2.6mm|CornerRadius=0.3mm|HoleSize=0mm|Usage=FLASHONLY|Rotation=270.000|XOffset=0mm|YOffset=0mm|HoleType=Round|Shape=RoundedRectangle|*
%AMROUNDEDRECTD40*
21,1,1.100,2.000,0,0,270.0*
21,1,0.500,2.600,0,0,270.0*
1,1,0.600,-1.000,-0.250*
1,1,0.600,-1.000,0.250*
1,1,0.600,1.000,0.250*
1,1,0.600,1.000,-0.250*
%
%ADD40ROUNDEDRECTD40*%
%ADD41R,1.150X2.300*%
%ADD42R,1.100X1.100*%
%ADD43R,2.100X1.100*%
%ADD44R,2.100X0.750*%
G04:AMPARAMS|DCode=45|XSize=3.7mm|YSize=2.1mm|CornerRadius=0.15mm|HoleSize=0mm|Usage=FLASHONLY|Rotation=270.000|XOffset=0mm|YOffset=0mm|HoleType=Round|Shape=RoundedRectangle|*
%AMROUNDEDRECTD45*
21,1,3.700,1.800,0,0,270.0*
21,1,3.400,2.100,0,0,270.0*
1,1,0.300,-0.900,-1.700*
1,1,0.300,-0.900,1.700*
1,1,0.300,0.900,1.700*
1,1,0.300,0.900,-1.700*
%
%ADD45ROUNDEDRECTD45*%
G04:AMPARAMS|DCode=46|XSize=3.7mm|YSize=2.1mm|CornerRadius=0.15mm|HoleSize=0mm|Usage=FLASHONLY|Rotation=0.000|XOffset=0mm|YOffset=0mm|HoleType=Round|Shape=RoundedRectangle|*
%AMROUNDEDRECTD46*
21,1,3.700,1.800,0,0,0.0*
21,1,3.400,2.100,0,0,0.0*
1,1,0.300,1.700,-0.900*
1,1,0.300,-1.700,-0.900*
1,1,0.300,-1.700,0.900*
1,1,0.300,1.700,0.900*
%
%ADD46ROUNDEDRECTD46*%
%ADD47R,1.050X1.500*%
%ADD48C,1.100*%
%ADD49R,2.300X1.150*%
%ADD50R,1.100X1.100*%
%ADD51C,0.100*%
%ADD52C,2.500*%
%ADD53C,2.600*%
%ADD54C,1.000*%
D31*
X79200Y62650D02*
D03*
X77800D02*
D03*
X67750Y60625D02*
D03*
X69150D02*
D03*
D32*
X89400Y51800D02*
D03*
Y50800D02*
D03*
X85700Y48650D02*
D03*
Y47750D02*
D03*
X82450Y47625D02*
D03*
Y48625D02*
D03*
X77117Y48617D02*
D03*
Y49617D02*
D03*
X75925Y48667D02*
D03*
Y49567D02*
D03*
X71850Y54475D02*
D03*
Y53475D02*
D03*
X69150Y63694D02*
D03*
Y64593D02*
D03*
X76325Y66675D02*
D03*
Y67575D02*
D03*
X70550Y25625D02*
D03*
Y24725D02*
D03*
X68800Y24875D02*
D03*
Y23975D02*
D03*
X71850Y37175D02*
D03*
Y36175D02*
D03*
X75925Y31367D02*
D03*
Y32267D02*
D03*
X77117Y31317D02*
D03*
Y32317D02*
D03*
X82450Y30325D02*
D03*
Y31325D02*
D03*
X85700Y31350D02*
D03*
Y30450D02*
D03*
X89400Y34500D02*
D03*
Y33500D02*
D03*
D33*
X87175Y51800D02*
D03*
X88075D02*
D03*
X73850Y48650D02*
D03*
X74750D02*
D03*
X68400Y54800D02*
D03*
X69400D02*
D03*
X69400Y56025D02*
D03*
X68500D02*
D03*
X68400Y37500D02*
D03*
X69400D02*
D03*
Y38725D02*
D03*
X68500D02*
D03*
X73850Y31350D02*
D03*
X74750D02*
D03*
X87175Y34500D02*
D03*
X88075D02*
D03*
X73000Y23975D02*
D03*
X72000D02*
D03*
X69150Y62025D02*
D03*
X68150D02*
D03*
X68800Y16091D02*
D03*
X69700D02*
D03*
X66725Y16100D02*
D03*
X67625D02*
D03*
X66375Y26550D02*
D03*
X67375D02*
D03*
X77625Y64075D02*
D03*
X78625D02*
D03*
X54075Y42750D02*
D03*
X55075D02*
D03*
D34*
X84075Y48425D02*
D03*
Y46575D02*
D03*
Y31125D02*
D03*
Y29275D02*
D03*
X78154Y65892D02*
D03*
Y67742D02*
D03*
X67616Y63450D02*
D03*
Y65300D02*
D03*
D35*
X80925Y51800D02*
D03*
X78675Y48600D02*
D03*
Y51800D02*
D03*
X80925Y48600D02*
D03*
Y34500D02*
D03*
X78675Y31300D02*
D03*
Y34500D02*
D03*
X80925Y31300D02*
D03*
D36*
X79800Y51800D02*
D03*
Y48600D02*
D03*
X79800Y34500D02*
D03*
Y31300D02*
D03*
D37*
X71200Y49975D02*
D03*
X71850D02*
D03*
X72500D02*
D03*
X71200Y52175D02*
D03*
X71850D02*
D03*
X72500D02*
D03*
X71200Y32675D02*
D03*
X71850D02*
D03*
X72500D02*
D03*
X71200Y34875D02*
D03*
X71850D02*
D03*
X72500D02*
D03*
D38*
X69400Y53475D02*
D03*
Y52175D02*
D03*
X67200D02*
D03*
Y52825D02*
D03*
Y53475D02*
D03*
X69400Y36175D02*
D03*
Y34875D02*
D03*
X67200D02*
D03*
Y35525D02*
D03*
Y36175D02*
D03*
D39*
X38349Y33810D02*
D03*
Y31270D02*
D03*
Y28730D02*
D03*
Y26190D02*
D03*
X34851D02*
D03*
Y28730D02*
D03*
Y31270D02*
D03*
Y33810D02*
D03*
X38349Y73810D02*
D03*
Y71270D02*
D03*
Y68730D02*
D03*
Y66190D02*
D03*
X34851D02*
D03*
Y68730D02*
D03*
Y71270D02*
D03*
Y73810D02*
D03*
D40*
X113300Y33810D02*
D03*
Y31270D02*
D03*
Y28730D02*
D03*
Y26190D02*
D03*
X109602Y33810D02*
D03*
Y31270D02*
D03*
Y28730D02*
D03*
Y26190D02*
D03*
X113300Y74330D02*
D03*
Y71790D02*
D03*
Y69250D02*
D03*
Y66710D02*
D03*
X109602Y74330D02*
D03*
Y71790D02*
D03*
Y69250D02*
D03*
Y66710D02*
D03*
D41*
X78825Y22400D02*
D03*
X81625D02*
D03*
X53675Y33021D02*
D03*
X56475D02*
D03*
D42*
X80225Y23900D02*
D03*
X55075Y34521D02*
D03*
D43*
X68800Y22425D02*
D03*
X72000Y20175D02*
D03*
X68800D02*
D03*
X72000Y22425D02*
D03*
D44*
X68800Y21300D02*
D03*
X72000D02*
D03*
D45*
X87400Y22625D02*
D03*
X52025Y16650D02*
D03*
X56775Y62275D02*
D03*
D46*
X92875Y71350D02*
D03*
D47*
X68800Y17760D02*
D03*
X70650D02*
D03*
X72000Y25625D02*
D03*
X73850D02*
D03*
X67375Y24875D02*
D03*
X65525D02*
D03*
D48*
X76325Y64075D02*
D03*
X70675Y62050D02*
D03*
X80000Y72775D02*
D03*
X74594Y74715D02*
D03*
X63781Y72775D02*
D03*
X108250Y63175D02*
D03*
X58375Y72775D02*
D03*
X80565Y67742D02*
D03*
X64471Y65200D02*
D03*
D49*
X93650Y50400D02*
D03*
Y53200D02*
D03*
X84550Y50400D02*
D03*
Y53200D02*
D03*
X75800Y51225D02*
D03*
Y54025D02*
D03*
X75800Y33925D02*
D03*
Y36725D02*
D03*
X93650Y33100D02*
D03*
Y35900D02*
D03*
X84550Y33100D02*
D03*
Y35900D02*
D03*
D50*
X92150Y51800D02*
D03*
X83050Y51800D02*
D03*
X74300Y52625D02*
D03*
Y35325D02*
D03*
X92150Y34500D02*
D03*
X83050Y34500D02*
D03*
D51*
X30841Y27460D02*
D03*
Y32540D02*
D03*
Y67460D02*
D03*
Y72540D02*
D03*
X117750Y27460D02*
D03*
Y32540D02*
D03*
Y67980D02*
D03*
Y73060D02*
D03*
X101125Y15200D02*
D03*
X101125Y71350D02*
D03*
X47325Y71350D02*
D03*
X47325Y15200D02*
D03*
D52*
X61675Y52825D02*
D03*
Y35525D02*
D03*
X100150Y51800D02*
D03*
Y34500D02*
D03*
X49400Y42750D02*
D03*
D53*
X64225Y50275D02*
D03*
Y55375D02*
D03*
X59125D02*
D03*
Y50275D02*
D03*
X64225Y32975D02*
D03*
Y38075D02*
D03*
X59125D02*
D03*
Y32975D02*
D03*
X102700Y54350D02*
D03*
X97600D02*
D03*
Y49250D02*
D03*
X102700D02*
D03*
Y37050D02*
D03*
X97600D02*
D03*
Y31950D02*
D03*
X102700D02*
D03*
X46850Y40200D02*
D03*
X51950D02*
D03*
Y45300D02*
D03*
X46850D02*
D03*
D54*
X69188Y73925D02*
D03*
M02*
