M48
;Layer_Color=9474304
;FILE_FORMAT=4:3
METRIC,TZ
;TYPE=PLATED
T1F00S00C0.200
%
T01
X37116Y5330
X38000Y6214
X38884Y5330
X38884Y7097
X37116Y7097
X37116Y12903
X38000Y13786
X38884Y12903
X41730Y11908
X43230Y11908
X44653Y11435
X46063Y10923
X47563Y10923
X49063Y10923
X50563Y10923
X52063Y10923
X53563Y10923
X55062Y10981
X54874Y9097
X53374Y9077
X51874Y9077
X50374Y9077
X48874Y9077
X47374Y9077
X45874Y9077
X44514Y8444
X43056Y8092
X41556Y8092
X56313Y9521
X57435Y10516
X58029Y11894
X58098Y13392
X56252Y13500
X56161Y12002
X95004Y12014
X94955Y13473
X96761Y14052
X96761Y12592
X97371Y11266
X98785Y10903
X100245Y10903
X101705Y10903
X103165Y10903
X104050Y11475
X105960Y11506
X107369Y11887
X108829Y11887
X111616Y12903
X112500Y13786
X113384Y12903
X113384Y7097
X112500Y6214
X113384Y5330
X111616Y5330
X111616Y7097
X109384Y8113
X107924Y8113
X106464Y8138
X105243Y8938
X103785Y9008
X102327Y9097
X100868Y9097
X99408Y9097
X97948Y9134
X96576Y9633
X95531Y10652
X94955Y14933
X94955Y16393
X94955Y17853
X94955Y19313
X94955Y20773
X94955Y22233
X94955Y23693
X94955Y25153
X94955Y26613
X94955Y28073
X94955Y29533
X94955Y30993
X94955Y32453
X94955Y33913
X94955Y35373
X94955Y36833
X93550Y37800
X92547Y38352
X92981Y40214
X91481Y40198
X89825Y41494
X87060Y40198
X85562Y40288
X84143Y40289
X84558Y38260
X83061Y38352
X81561Y38352
X81073Y36933
X80450Y35569
X79389Y34508
X81144Y40285
X81164Y41703
X82250Y40875
X79969Y42609
X86626Y38352
X88087Y38010
X89825Y37051
X96834Y37410
X96855Y38426
X96761Y35952
X96761Y34492
X96761Y33032
X96761Y31572
X96761Y30112
X96761Y28652
X96761Y27192
X96761Y25732
X96761Y24272
X96761Y22812
X96761Y21352
X96761Y19892
X96761Y18432
X96761Y16972
X96761Y15512
X111616Y14670
X113384Y14670
X114517Y26190
X114517Y28730
X111730Y28730
X111739Y31270
X111766Y33810
X107907Y33810
X107916Y31270
X107931Y28730
X107929Y26190
X106975Y26175
X111716Y26190
X111616Y45330
X112500Y46214
X113384Y45330
X113384Y47097
X111616Y47097
X108591Y48113
X107171Y48113
X105803Y48623
X105824Y51456
X104532Y50953
X103234Y50903
X101959Y50903
X101959Y49097
X103234Y49097
X99991Y49097
X99991Y50903
X98023Y50903
X97248Y50697
X96006Y49929
X95202Y48710
X94955Y47271
X94955Y45811
X94955Y44351
X94955Y42891
X94955Y41431
X94432Y40595
X96765Y41341
X96761Y42801
X96761Y44261
X96761Y45721
X96761Y47181
X97196Y48575
X98023Y49097
X107297Y51887
X108275Y51887
X111616Y52903
X112500Y53786
X113384Y52903
X78565Y42811
X77057Y43332
X75250Y42875
X75250Y45100
X74684Y45776
X70200Y45598
X69849Y42863
X71324Y42589
X70704Y40674
X72203Y40618
X71588Y39409
X70103Y39618
X69222Y40441
X68632Y39323
X67142Y39148
X67230Y37302
X68720Y37477
X70195Y37207
X71685Y37379
X75250Y37100
X77125Y36975
X77925Y37925
X77925Y40125
X78058Y33817
X76347Y31250
X71913Y31250
X67747Y40710
X68227Y42552
X65235Y42757
X63221Y42698
X61721Y42698
X60221Y42698
X58754Y43013
X58098Y44362
X58098Y45862
X58098Y47362
X57802Y48832
X56921Y50046
X55610Y50775
X54454Y50923
X54454Y49077
X55560Y48791
X56252Y47460
X56252Y45960
X56252Y44460
X56530Y42986
X57393Y41760
X58694Y41012
X60185Y40852
X61685Y40852
X63185Y40852
X64677Y41005
X65210Y39736
X64294Y39213
X62142Y39148
X60642Y39148
X59143Y39093
X57753Y38530
X56735Y37428
X56278Y35999
X56252Y34500
X56252Y33000
X56252Y31500
X56252Y30000
X56252Y28500
X56252Y27000
X56252Y25500
X56252Y24000
X56252Y22500
X56252Y21000
X56252Y19500
X56252Y18000
X56252Y16500
X56252Y15000
X58098Y14892
X58098Y16392
X58098Y17892
X58098Y19392
X58098Y20892
X58098Y22392
X58098Y23892
X58098Y25392
X58098Y26892
X58098Y28392
X58098Y29892
X58098Y31392
X58098Y32892
X58098Y34392
X58111Y35892
X58972Y37120
X60461Y37302
X61961Y37302
X63459Y37228
X52446Y49077
X51554Y49077
X51554Y50923
X52446Y50923
X49546Y50923
X48117Y50923
X46617Y50923
X45219Y51140
X43844Y51907
X42162Y51908
X42309Y48092
X43809Y48092
X45219Y48848
X46588Y49077
X48088Y49077
X49546Y49077
X40044Y33810
X40035Y31270
X40020Y28730
X40022Y26190
X40899Y26199
X36235Y26190
X36221Y28730
X36212Y31270
X36184Y33810
X33010Y28730
X33010Y26190
X37116Y14670
X38884Y14670
X38884Y45330
X38000Y46214
X37116Y45330
X37116Y47097
X38884Y47097
X38884Y52903
X38000Y53786
X37116Y52903
X37116Y54670
X38884Y54670
X36235Y66190
X36221Y68730
X36212Y71270
X36184Y73810
X33010Y68730
X33010Y66190
X40022Y66190
X40890Y66190
X41939Y64147
X42625Y62109
X43275Y60361
X44781Y67742
X45746Y67742
X40020Y68730
X40035Y71270
X50550Y63050
X50550Y62256
X64471Y65200
X65700Y65217
X67171Y64216
X68071Y64216
X67571Y62025
X66996Y60625
X70596Y60700
X74050Y54826
X76050Y56361
X79225Y64075
X78575Y66650
X77725Y66650
X74594Y74715
X69188Y73925
X63781Y72775
X63784Y75335
X63784Y76825
X58398Y77655
X58375Y75392
X58375Y72775
X79997Y72775
X80565Y67742
X79975Y62650
X100975Y62726
X100975Y63600
X100975Y67742
X101850Y67742
X107025Y66700
X107929Y66710
X107931Y69250
X107916Y71790
X111739Y71790
X111730Y69250
X111716Y66710
X114530Y66710
X114530Y69250
X111766Y74330
X105750Y62350
X105577Y60148
X107000Y60675
X111616Y54670
X113384Y54670
M30
