M48
;Layer_Color=9474304
;FILE_FORMAT=4:3
METRIC,TZ
;TYPE=PLATED
T1F00S00C0.300
T2F00S00C1.000
T3F00S00C1.020
%
T01
X28000Y28000
X30000Y28000
X32000Y28000
X34000Y28000
X36000Y28000
X38000Y28000
X39000Y30000
X37000Y30000
X35000Y30000
X33000Y30000
X31000Y30000
X29000Y30000
X30000Y32000
X32000Y32000
X34000Y32000
X36000Y32000
X38000Y32000
X39000Y34000
X37000Y34000
X35000Y34000
X33000Y34000
X31000Y34000
X29000Y34000
X30000Y36000
X28000Y36000
X28000Y32000
X34000Y36000
X36000Y36000
X38000Y36000
X36957Y38473
X40000Y36000
X42000Y36000
X41000Y34000
X42000Y32000
X40000Y32000
X41000Y30000
X40000Y28000
X41502Y27024
X44000Y28000
X46000Y28000
X45000Y30000
X42000Y40000
X40000Y40000
X40506Y44831
X42000Y44000
X42000Y48000
X40000Y48000
X41000Y50000
X43000Y50000
X45000Y50000
X42000Y52000
X40000Y52000
X40000Y56000
X42000Y56000
X44000Y56000
X46000Y56000
X38000Y56000
X38381Y57250
X38442Y53721
X37000Y54000
X38000Y52000
X39000Y50000
X37000Y50000
X38000Y48000
X36000Y48000
X34000Y48000
X35000Y46000
X33000Y46000
X31000Y46000
X34000Y44000
X38000Y44000
X37717Y42291
X38000Y40000
X36000Y40000
X37719Y46101
X33000Y50000
X34000Y52000
X33000Y54000
X32000Y56000
X30000Y56000
X28000Y56000
X26607Y57277
X30861Y57277
X34671Y57277
X36000Y56000
X29000Y54000
X28000Y52000
X29000Y50000
X28000Y40000
T02
X43942Y30861
X43942Y33401
X43942Y35941
X46482Y35941
X46482Y38481
X43942Y38481
X46482Y33401
X46482Y30861
X46482Y41021
X46482Y43561
X46482Y46101
X46482Y48641
X46482Y51181
X46482Y53721
X43942Y53721
X43942Y51181
X43942Y48641
X43942Y46101
X43942Y43561
X43942Y41021
T03
X29464Y37211
X32004Y37211
X32004Y39751
X29464Y39751
X29464Y42291
X32004Y42291
X32004Y44831
X29464Y44831
X29464Y47371
X32004Y47371
M30
