G04*
G04 #@! TF.GenerationSoftware,Altium Limited,Altium Designer,23.0.1 (38)*
G04*
G04 Layer_Color=8421504*
%FSLAX43Y43*%
%MOMM*%
G71*
G04*
G04 #@! TF.SameCoordinates,3783B72A-52C1-49B3-AB2B-A03F01AA072C*
G04*
G04*
G04 #@! TF.FilePolarity,Positive*
G04*
G01*
G75*
%ADD15R,0.500X0.500*%
%ADD16R,0.500X0.500*%
%ADD17R,1.000X2.000*%
%ADD18R,0.650X2.000*%
%ADD19R,1.550X1.000*%
%ADD20R,0.700X0.500*%
%ADD21R,1.400X1.600*%
%ADD22R,0.900X0.900*%
%ADD23R,2.200X1.050*%
%ADD24R,1.000X1.000*%
%ADD25R,1.300X0.700*%
G04:AMPARAMS|DCode=26|XSize=2.2mm|YSize=1.05mm|CornerRadius=0mm|HoleSize=0mm|Usage=FLASHONLY|Rotation=135.000|XOffset=0mm|YOffset=0mm|HoleType=Round|Shape=Rectangle|*
%AMROTATEDRECTD26*
4,1,4,1.149,-0.407,0.407,-1.149,-1.149,0.407,-0.407,1.149,1.149,-0.407,0.0*
%
%ADD26ROTATEDRECTD26*%

%ADD27P,1.414X4X360.0*%
%ADD28R,0.900X0.600*%
%ADD29R,0.800X0.900*%
G04:AMPARAMS|DCode=30|XSize=1mm|YSize=2mm|CornerRadius=0.25mm|HoleSize=0mm|Usage=FLASHONLY|Rotation=270.000|XOffset=0mm|YOffset=0mm|HoleType=Round|Shape=RoundedRectangle|*
%AMROUNDEDRECTD30*
21,1,1.000,1.500,0,0,270.0*
21,1,0.500,2.000,0,0,270.0*
1,1,0.500,-0.750,-0.250*
1,1,0.500,-0.750,0.250*
1,1,0.500,0.750,0.250*
1,1,0.500,0.750,-0.250*
%
%ADD30ROUNDEDRECTD30*%
%ADD31R,2.450X2.450*%
G04:AMPARAMS|DCode=32|XSize=0.24mm|YSize=0.6mm|CornerRadius=0.06mm|HoleSize=0mm|Usage=FLASHONLY|Rotation=180.000|XOffset=0mm|YOffset=0mm|HoleType=Round|Shape=RoundedRectangle|*
%AMROUNDEDRECTD32*
21,1,0.240,0.480,0,0,180.0*
21,1,0.120,0.600,0,0,180.0*
1,1,0.120,-0.060,0.240*
1,1,0.120,0.060,0.240*
1,1,0.120,0.060,-0.240*
1,1,0.120,-0.060,-0.240*
%
%ADD32ROUNDEDRECTD32*%
G04:AMPARAMS|DCode=33|XSize=0.24mm|YSize=0.6mm|CornerRadius=0.06mm|HoleSize=0mm|Usage=FLASHONLY|Rotation=270.000|XOffset=0mm|YOffset=0mm|HoleType=Round|Shape=RoundedRectangle|*
%AMROUNDEDRECTD33*
21,1,0.240,0.480,0,0,270.0*
21,1,0.120,0.600,0,0,270.0*
1,1,0.120,-0.240,-0.060*
1,1,0.120,-0.240,0.060*
1,1,0.120,0.240,0.060*
1,1,0.120,0.240,-0.060*
%
%ADD33ROUNDEDRECTD33*%
%ADD34R,0.700X1.300*%
G04:AMPARAMS|DCode=35|XSize=1mm|YSize=2.5mm|CornerRadius=0.25mm|HoleSize=0mm|Usage=FLASHONLY|Rotation=270.000|XOffset=0mm|YOffset=0mm|HoleType=Round|Shape=RoundedRectangle|*
%AMROUNDEDRECTD35*
21,1,1.000,2.000,0,0,270.0*
21,1,0.500,2.500,0,0,270.0*
1,1,0.500,-1.000,-0.250*
1,1,0.500,-1.000,0.250*
1,1,0.500,1.000,0.250*
1,1,0.500,1.000,-0.250*
%
%ADD35ROUNDEDRECTD35*%
%ADD36R,0.950X1.400*%
%ADD37R,0.900X0.900*%
%ADD38C,0.200*%
%ADD39R,3.700X1.500*%
%ADD40R,1.400X0.950*%
%ADD41R,1.450X2.700*%
%ADD42R,1.050X2.200*%
%ADD43R,1.000X1.000*%
D15*
X104050Y50000D02*
D03*
Y49100D02*
D03*
X90150Y33450D02*
D03*
Y34350D02*
D03*
X104050Y10000D02*
D03*
Y10900D02*
D03*
X76325Y66600D02*
D03*
Y67500D02*
D03*
X69456Y64300D02*
D03*
Y65200D02*
D03*
X92050Y6025D02*
D03*
Y5125D02*
D03*
X94038D02*
D03*
Y6025D02*
D03*
X92050Y3000D02*
D03*
Y3900D02*
D03*
X89775Y55625D02*
D03*
Y56625D02*
D03*
X55400Y49575D02*
D03*
Y48675D02*
D03*
X59400Y9600D02*
D03*
Y8700D02*
D03*
X90150Y35575D02*
D03*
Y36575D02*
D03*
X95800Y6025D02*
D03*
Y5125D02*
D03*
X92400Y38750D02*
D03*
Y37750D02*
D03*
X77800Y7075D02*
D03*
Y6075D02*
D03*
X95800Y3900D02*
D03*
Y3000D02*
D03*
X94038Y3900D02*
D03*
Y3000D02*
D03*
D16*
X85025Y19875D02*
D03*
X84125D02*
D03*
X79875Y27075D02*
D03*
X80775D02*
D03*
X79875Y28300D02*
D03*
X80775D02*
D03*
X69175Y41725D02*
D03*
X70075D02*
D03*
X87275Y40975D02*
D03*
X86375D02*
D03*
X84475Y40975D02*
D03*
X85375D02*
D03*
X89425Y59725D02*
D03*
X88425D02*
D03*
X87225Y60850D02*
D03*
X86325D02*
D03*
X86776Y58075D02*
D03*
X87676D02*
D03*
X88600Y56675D02*
D03*
X87700D02*
D03*
X93950Y56625D02*
D03*
X93050D02*
D03*
X93075Y55400D02*
D03*
X94075D02*
D03*
X57475Y48700D02*
D03*
X56575D02*
D03*
X85314Y54966D02*
D03*
X86214D02*
D03*
X53900Y15100D02*
D03*
X54800D02*
D03*
X81925Y19875D02*
D03*
X82925D02*
D03*
X61609Y41736D02*
D03*
X60609D02*
D03*
X91233Y38761D02*
D03*
X90334D02*
D03*
X64950Y46575D02*
D03*
X64050D02*
D03*
X64950Y41200D02*
D03*
X64050D02*
D03*
X78625Y64075D02*
D03*
X77625D02*
D03*
X68150Y62025D02*
D03*
X69150D02*
D03*
D17*
X83025Y25125D02*
D03*
X80775Y21925D02*
D03*
Y25125D02*
D03*
X83025Y21925D02*
D03*
X61734Y46486D02*
D03*
X59484Y43286D02*
D03*
Y46486D02*
D03*
X61734Y43286D02*
D03*
X88608Y38786D02*
D03*
X86358Y35586D02*
D03*
Y38786D02*
D03*
X88608Y35586D02*
D03*
D18*
X81900Y25125D02*
D03*
Y21925D02*
D03*
X60609Y46486D02*
D03*
Y43286D02*
D03*
X87483Y38786D02*
D03*
Y35586D02*
D03*
D19*
X76600Y21950D02*
D03*
X74050D02*
D03*
Y26150D02*
D03*
X76600D02*
D03*
D20*
X57525Y15100D02*
D03*
X56625D02*
D03*
D21*
X57675Y2400D02*
D03*
X54675D02*
D03*
Y9600D02*
D03*
X57675D02*
D03*
D22*
X69150Y60650D02*
D03*
X67750D02*
D03*
X87050Y59475D02*
D03*
X85650D02*
D03*
X94650Y54025D02*
D03*
X93250D02*
D03*
X77800Y62650D02*
D03*
X79200D02*
D03*
D23*
X54925Y24250D02*
D03*
Y21450D02*
D03*
X60075Y21075D02*
D03*
Y18275D02*
D03*
X57524Y41350D02*
D03*
Y38550D02*
D03*
D24*
X56425Y22850D02*
D03*
X61575Y19675D02*
D03*
X59024Y39950D02*
D03*
D25*
X61207Y39750D02*
D03*
Y37850D02*
D03*
D26*
X95317Y14379D02*
D03*
X97296Y16358D02*
D03*
D27*
X95246Y16429D02*
D03*
D28*
X78975Y23125D02*
D03*
Y21925D02*
D03*
X84800Y37275D02*
D03*
Y36075D02*
D03*
D29*
X64950Y39750D02*
D03*
X63050D02*
D03*
X64000Y37750D02*
D03*
D30*
X38349Y33810D02*
D03*
Y31270D02*
D03*
Y28730D02*
D03*
Y26190D02*
D03*
X34851D02*
D03*
Y28730D02*
D03*
Y31270D02*
D03*
Y33810D02*
D03*
X38349Y73810D02*
D03*
Y71270D02*
D03*
Y68730D02*
D03*
Y66190D02*
D03*
X34851D02*
D03*
Y68730D02*
D03*
Y71270D02*
D03*
Y73810D02*
D03*
D31*
X78050Y10350D02*
D03*
D32*
X79300Y8450D02*
D03*
X78800D02*
D03*
X78300D02*
D03*
X77800D02*
D03*
X77300D02*
D03*
X76800D02*
D03*
Y12250D02*
D03*
X77300D02*
D03*
X77800D02*
D03*
X78300D02*
D03*
X78800D02*
D03*
X79300D02*
D03*
D33*
X76150Y9100D02*
D03*
Y9600D02*
D03*
Y10100D02*
D03*
Y10600D02*
D03*
Y11100D02*
D03*
Y11600D02*
D03*
X79950D02*
D03*
Y11100D02*
D03*
Y10600D02*
D03*
Y10100D02*
D03*
Y9600D02*
D03*
Y9100D02*
D03*
D34*
X68475Y37775D02*
D03*
X66575D02*
D03*
D35*
X109602Y66710D02*
D03*
Y69250D02*
D03*
Y71790D02*
D03*
Y74330D02*
D03*
X113300Y66710D02*
D03*
Y69250D02*
D03*
Y71790D02*
D03*
Y74330D02*
D03*
X109602Y26190D02*
D03*
Y28730D02*
D03*
Y31270D02*
D03*
Y33810D02*
D03*
X113300Y26190D02*
D03*
Y28730D02*
D03*
Y31270D02*
D03*
Y33810D02*
D03*
D36*
X84800Y34525D02*
D03*
X82950D02*
D03*
D37*
X60825Y8175D02*
D03*
Y9575D02*
D03*
X84100Y60850D02*
D03*
Y59450D02*
D03*
D38*
X89125Y57850D02*
D03*
X88725D02*
D03*
X89125Y58250D02*
D03*
X88725D02*
D03*
X89125Y58650D02*
D03*
X88725D02*
D03*
D39*
X92325Y58600D02*
D03*
Y61700D02*
D03*
D40*
X91425Y56425D02*
D03*
Y54575D02*
D03*
X78154Y67742D02*
D03*
Y65892D02*
D03*
X67616Y65300D02*
D03*
Y63450D02*
D03*
D41*
X54725Y46475D02*
D03*
X57475D02*
D03*
D42*
X63550Y43700D02*
D03*
X66350D02*
D03*
X94458Y43559D02*
D03*
X97258D02*
D03*
X59625Y51525D02*
D03*
X56825D02*
D03*
D43*
X64950Y45200D02*
D03*
X95858Y45059D02*
D03*
X58225Y50025D02*
D03*
M02*
