G04*
G04 #@! TF.GenerationSoftware,Altium Limited,Altium Designer,23.0.1 (38)*
G04*
G04 Layer_Color=32896*
%FSLAX43Y43*%
%MOMM*%
G71*
G04*
G04 #@! TF.SameCoordinates,3783B72A-52C1-49B3-AB2B-A03F01AA072C*
G04*
G04*
G04 #@! TF.FilePolarity,Positive*
G04*
G01*
G75*
%ADD12C,0.200*%
D12*
X115250Y78994D02*
G03*
X114250Y79994I-1000J0D01*
G01*
X36250D02*
G03*
X35250Y78994I0J-1000D01*
G01*
Y994D02*
G03*
X36250Y-6I1000J0D01*
G01*
X114250D02*
G03*
X115250Y994I0J1000D01*
G01*
Y37500D02*
G03*
X116250Y36500I1000J0D01*
G01*
X119701Y35500D02*
G03*
X118701Y36500I-1000J0D01*
G01*
X116250Y23500D02*
G03*
X115250Y22500I0J-1000D01*
G01*
X118701Y23500D02*
G03*
X119701Y24500I0J1000D01*
G01*
X118701Y64020D02*
G03*
X119701Y65020I0J1000D01*
G01*
X116250Y64020D02*
G03*
X115250Y63020I0J-1000D01*
G01*
X119701Y76020D02*
G03*
X118701Y77020I-1000J0D01*
G01*
X115250Y78020D02*
G03*
X116250Y77020I1000J0D01*
G01*
X35250Y61570D02*
G03*
X34250Y62570I-1000J0D01*
G01*
X28250Y63570D02*
G03*
X29250Y62570I1000J0D01*
G01*
Y77430D02*
G03*
X28250Y76430I0J-1000D01*
G01*
X34250Y77430D02*
G03*
X35250Y78430I0J1000D01*
G01*
X34250Y37430D02*
G03*
X35250Y38430I0J1000D01*
G01*
X29250Y37430D02*
G03*
X28250Y36430I0J-1000D01*
G01*
Y23570D02*
G03*
X29250Y22570I1000J0D01*
G01*
X35250Y21570D02*
G03*
X34250Y22570I-1000J0D01*
G01*
X35250Y994D02*
Y21570D01*
Y38430D02*
Y61570D01*
Y78430D02*
Y78994D01*
X115250Y78020D02*
Y78994D01*
Y37500D02*
Y63020D01*
Y994D02*
Y22500D01*
X36250Y-6D02*
X114250D01*
X36250Y79994D02*
X114231D01*
X119701Y30000D02*
Y35500D01*
X116250Y36500D02*
X118701D01*
X119701Y24500D02*
Y30000D01*
X116250Y23500D02*
X118701D01*
X116250Y64020D02*
X118701D01*
X119701Y65020D02*
Y70520D01*
X116250Y77020D02*
X118701D01*
X119701Y70520D02*
Y76020D01*
X115250Y77950D02*
Y77959D01*
X29250Y62570D02*
X34250D01*
X28250Y63570D02*
Y70000D01*
Y76430D01*
X29250Y77430D02*
X34250D01*
X29250Y37430D02*
X34250D01*
X28250Y30000D02*
Y36430D01*
Y23570D02*
Y30000D01*
X29250Y22570D02*
X34250D01*
M02*
