G04*
G04 #@! TF.GenerationSoftware,Altium Limited,Altium Designer,23.0.1 (38)*
G04*
G04 Layer_Color=2752767*
%FSLAX43Y43*%
%MOMM*%
G71*
G04*
G04 #@! TF.SameCoordinates,FAF874D6-A3D7-43DF-AC77-E53A54121317*
G04*
G04*
G04 #@! TF.FilePolarity,Positive*
G04*
G01*
G75*
%ADD81C,0.051*%
D81*
X74250Y34762D02*
X74352Y34863D01*
X74453D01*
X74352Y34965D01*
X74453Y35067D01*
X74352D01*
X74250Y35168D01*
X74149Y35067D01*
X74047D01*
X74149Y34965D01*
X74047Y34863D01*
X74149D01*
X74250Y34762D01*
X76250D02*
X76352Y34863D01*
X76453D01*
X76352Y34965D01*
X76453Y35067D01*
X76352D01*
X76250Y35168D01*
X76148Y35067D01*
X76047D01*
X76148Y34965D01*
X76047Y34863D01*
X76148D01*
X76250Y34762D01*
X75250Y33762D02*
X75352Y33863D01*
X75453D01*
X75352Y33965D01*
X75453Y34067D01*
X75352D01*
X75250Y34168D01*
X75148Y34067D01*
X75047D01*
X75148Y33965D01*
X75047Y33863D01*
X75148D01*
X75250Y33762D01*
X47325Y71147D02*
X47122Y71553D01*
X47528D01*
X47325Y71147D01*
Y4997D02*
X47122Y5403D01*
X47528D01*
X47325Y4997D01*
X101125Y71147D02*
X100922Y71553D01*
X101328D01*
X101125Y71147D01*
Y4997D02*
X100922Y5403D01*
X101328D01*
X101125Y4997D01*
X29998Y72337D02*
Y72743D01*
X30404D01*
Y72337D01*
X29998D01*
Y67257D02*
Y67663D01*
X30404D01*
Y67257D01*
X29998D01*
Y32337D02*
Y32743D01*
X30404D01*
Y32337D01*
X29998D01*
Y27257D02*
Y27663D01*
X30404D01*
Y27257D01*
X29998D01*
X88179Y57244D02*
X88280Y57447D01*
X88179Y57650D01*
X88382Y57549D01*
X88585Y57650D01*
X88484Y57447D01*
X88585Y57244D01*
X88382Y57345D01*
X88179Y57244D01*
X95790Y62155D02*
X95892Y62358D01*
X95790Y62561D01*
X95993Y62460D01*
X96197Y62561D01*
X96095Y62358D01*
X96197Y62155D01*
X95993Y62256D01*
X95790Y62155D01*
X84320Y52162D02*
X84421Y52365D01*
X84320Y52568D01*
X84523Y52467D01*
X84726Y52568D01*
X84625Y52365D01*
X84726Y52162D01*
X84523Y52264D01*
X84320Y52162D01*
X92038Y62998D02*
X92140Y63201D01*
X92038Y63404D01*
X92241Y63302D01*
X92444Y63404D01*
X92343Y63201D01*
X92444Y62998D01*
X92241Y63099D01*
X92038Y62998D01*
X96823Y53822D02*
X96924Y54026D01*
X96823Y54229D01*
X97026Y54127D01*
X97229Y54229D01*
X97127Y54026D01*
X97229Y53822D01*
X97026Y53924D01*
X96823Y53822D01*
X82371Y57251D02*
X82473Y57454D01*
X82371Y57657D01*
X82574Y57556D01*
X82777Y57657D01*
X82676Y57454D01*
X82777Y57251D01*
X82574Y57352D01*
X82371Y57251D01*
X87239Y52121D02*
X87341Y52324D01*
X87239Y52527D01*
X87442Y52426D01*
X87646Y52527D01*
X87544Y52324D01*
X87646Y52121D01*
X87442Y52223D01*
X87239Y52121D01*
X88699D02*
X88801Y52324D01*
X88699Y52527D01*
X88902Y52426D01*
X89106Y52527D01*
X89004Y52324D01*
X89106Y52121D01*
X88902Y52223D01*
X88699Y52121D01*
X90159D02*
X90261Y52324D01*
X90159Y52527D01*
X90362Y52426D01*
X90566Y52527D01*
X90464Y52324D01*
X90566Y52121D01*
X90362Y52223D01*
X90159Y52121D01*
X90578Y62998D02*
X90680Y63201D01*
X90578Y63404D01*
X90781Y63302D01*
X90984Y63404D01*
X90883Y63201D01*
X90984Y62998D01*
X90781Y63099D01*
X90578Y62998D01*
X82371Y58711D02*
X82473Y58914D01*
X82371Y59117D01*
X82574Y59016D01*
X82777Y59117D01*
X82676Y58914D01*
X82777Y58711D01*
X82574Y58812D01*
X82371Y58711D01*
X86198Y62998D02*
X86300Y63201D01*
X86198Y63404D01*
X86401Y63302D01*
X86604Y63404D01*
X86503Y63201D01*
X86604Y62998D01*
X86401Y63099D01*
X86198Y62998D01*
X96823Y59662D02*
X96924Y59866D01*
X96823Y60069D01*
X97026Y59967D01*
X97229Y60069D01*
X97127Y59866D01*
X97229Y59662D01*
X97026Y59764D01*
X96823Y59662D01*
X93498Y62998D02*
X93600Y63201D01*
X93498Y63404D01*
X93701Y63302D01*
X93904Y63404D01*
X93803Y63201D01*
X93904Y62998D01*
X93701Y63099D01*
X93498Y62998D01*
X94958D02*
X95060Y63201D01*
X94958Y63404D01*
X95161Y63302D01*
X95364Y63404D01*
X95263Y63201D01*
X95364Y62998D01*
X95161Y63099D01*
X94958Y62998D01*
X96823Y55282D02*
X96924Y55486D01*
X96823Y55689D01*
X97026Y55587D01*
X97229Y55689D01*
X97127Y55486D01*
X97229Y55282D01*
X97026Y55384D01*
X96823Y55282D01*
X83287Y53194D02*
X83389Y53398D01*
X83287Y53601D01*
X83491Y53499D01*
X83694Y53601D01*
X83592Y53398D01*
X83694Y53194D01*
X83491Y53296D01*
X83287Y53194D01*
X89118Y62998D02*
X89220Y63201D01*
X89118Y63404D01*
X89321Y63302D01*
X89524Y63404D01*
X89423Y63201D01*
X89524Y62998D01*
X89321Y63099D01*
X89118Y62998D01*
X82371Y54331D02*
X82473Y54534D01*
X82371Y54737D01*
X82574Y54636D01*
X82777Y54737D01*
X82676Y54534D01*
X82777Y54331D01*
X82574Y54432D01*
X82371Y54331D01*
X96823Y58202D02*
X96924Y58406D01*
X96823Y58609D01*
X97026Y58507D01*
X97229Y58609D01*
X97127Y58406D01*
X97229Y58202D01*
X97026Y58304D01*
X96823Y58202D01*
X82371Y60171D02*
X82473Y60374D01*
X82371Y60577D01*
X82574Y60476D01*
X82777Y60577D01*
X82676Y60374D01*
X82777Y60171D01*
X82574Y60272D01*
X82371Y60171D01*
Y55791D02*
X82473Y55994D01*
X82371Y56197D01*
X82574Y56096D01*
X82777Y56197D01*
X82676Y55994D01*
X82777Y55791D01*
X82574Y55892D01*
X82371Y55791D01*
X91619Y52121D02*
X91721Y52324D01*
X91619Y52527D01*
X91822Y52426D01*
X92026Y52527D01*
X91924Y52324D01*
X92026Y52121D01*
X91822Y52223D01*
X91619Y52121D01*
X85779D02*
X85881Y52324D01*
X85779Y52527D01*
X85982Y52426D01*
X86186Y52527D01*
X86084Y52324D01*
X86186Y52121D01*
X85982Y52223D01*
X85779Y52121D01*
X95874Y52712D02*
X95976Y52916D01*
X95874Y53119D01*
X96077Y53017D01*
X96281Y53119D01*
X96179Y52916D01*
X96281Y52712D01*
X96077Y52814D01*
X95874Y52712D01*
X84738Y62998D02*
X84840Y63201D01*
X84738Y63404D01*
X84941Y63302D01*
X85144Y63404D01*
X85043Y63201D01*
X85144Y62998D01*
X84941Y63099D01*
X84738Y62998D01*
X96823Y61122D02*
X96924Y61326D01*
X96823Y61529D01*
X97026Y61427D01*
X97229Y61529D01*
X97127Y61326D01*
X97229Y61122D01*
X97026Y61224D01*
X96823Y61122D01*
X82371Y61631D02*
X82473Y61834D01*
X82371Y62037D01*
X82574Y61936D01*
X82777Y62037D01*
X82676Y61834D01*
X82777Y61631D01*
X82574Y61732D01*
X82371Y61631D01*
X49083Y42890D02*
X49185Y43094D01*
X49083Y43297D01*
X49286Y43195D01*
X49489Y43297D01*
X49388Y43094D01*
X49489Y42890D01*
X49286Y42992D01*
X49083Y42890D01*
X48076Y41834D02*
X48177Y42037D01*
X48076Y42240D01*
X48279Y42138D01*
X48482Y42240D01*
X48381Y42037D01*
X48482Y41834D01*
X48279Y41935D01*
X48076Y41834D01*
X47593Y40456D02*
X47695Y40659D01*
X47593Y40862D01*
X47796Y40760D01*
X47999Y40862D01*
X47898Y40659D01*
X47999Y40456D01*
X47796Y40557D01*
X47593Y40456D01*
X47559Y38996D02*
X47661Y39199D01*
X47559Y39402D01*
X47762Y39301D01*
X47965Y39402D01*
X47864Y39199D01*
X47965Y38996D01*
X47762Y39098D01*
X47559Y38996D01*
Y37536D02*
X47661Y37739D01*
X47559Y37942D01*
X47762Y37841D01*
X47965Y37942D01*
X47864Y37739D01*
X47965Y37536D01*
X47762Y37638D01*
X47559Y37536D01*
Y36076D02*
X47661Y36279D01*
X47559Y36482D01*
X47762Y36381D01*
X47965Y36482D01*
X47864Y36279D01*
X47965Y36076D01*
X47762Y36178D01*
X47559Y36076D01*
Y28776D02*
X47661Y28979D01*
X47559Y29182D01*
X47762Y29081D01*
X47965Y29182D01*
X47864Y28979D01*
X47965Y28776D01*
X47762Y28878D01*
X47559Y28776D01*
Y27316D02*
X47661Y27519D01*
X47559Y27722D01*
X47762Y27621D01*
X47965Y27722D01*
X47864Y27519D01*
X47965Y27316D01*
X47762Y27418D01*
X47559Y27316D01*
Y25856D02*
X47661Y26059D01*
X47559Y26262D01*
X47762Y26161D01*
X47965Y26262D01*
X47864Y26059D01*
X47965Y25856D01*
X47762Y25958D01*
X47559Y25856D01*
Y24396D02*
X47661Y24599D01*
X47559Y24802D01*
X47762Y24701D01*
X47965Y24802D01*
X47864Y24599D01*
X47965Y24396D01*
X47762Y24498D01*
X47559Y24396D01*
Y22936D02*
X47661Y23139D01*
X47559Y23342D01*
X47762Y23241D01*
X47965Y23342D01*
X47864Y23139D01*
X47965Y22936D01*
X47762Y23038D01*
X47559Y22936D01*
Y21476D02*
X47661Y21679D01*
X47559Y21882D01*
X47762Y21781D01*
X47965Y21882D01*
X47864Y21679D01*
X47965Y21476D01*
X47762Y21578D01*
X47559Y21476D01*
Y20016D02*
X47661Y20219D01*
X47559Y20422D01*
X47762Y20321D01*
X47965Y20422D01*
X47864Y20219D01*
X47965Y20016D01*
X47762Y20118D01*
X47559Y20016D01*
Y18556D02*
X47661Y18759D01*
X47559Y18962D01*
X47762Y18861D01*
X47965Y18962D01*
X47864Y18759D01*
X47965Y18556D01*
X47762Y18658D01*
X47559Y18556D01*
Y17096D02*
X47661Y17299D01*
X47559Y17502D01*
X47762Y17401D01*
X47965Y17502D01*
X47864Y17299D01*
X47965Y17096D01*
X47762Y17198D01*
X47559Y17096D01*
Y15636D02*
X47661Y15839D01*
X47559Y16042D01*
X47762Y15941D01*
X47965Y16042D01*
X47864Y15839D01*
X47965Y15636D01*
X47762Y15738D01*
X47559Y15636D01*
Y14176D02*
X47661Y14379D01*
X47559Y14582D01*
X47762Y14481D01*
X47965Y14582D01*
X47864Y14379D01*
X47965Y14176D01*
X47762Y14278D01*
X47559Y14176D01*
Y12716D02*
X47661Y12919D01*
X47559Y13122D01*
X47762Y13021D01*
X47965Y13122D01*
X47864Y12919D01*
X47965Y12716D01*
X47762Y12818D01*
X47559Y12716D01*
X47191Y11303D02*
X47292Y11506D01*
X47191Y11710D01*
X47394Y11608D01*
X47597Y11710D01*
X47496Y11506D01*
X47597Y11303D01*
X47394Y11405D01*
X47191Y11303D01*
X45861Y10700D02*
X45963Y10903D01*
X45861Y11106D01*
X46064Y11005D01*
X46268Y11106D01*
X46166Y10903D01*
X46268Y10700D01*
X46064Y10802D01*
X45861Y10700D01*
X44483Y11182D02*
X44585Y11385D01*
X44483Y11588D01*
X44686Y11487D01*
X44889Y11588D01*
X44788Y11385D01*
X44889Y11182D01*
X44686Y11283D01*
X44483Y11182D01*
X43112Y11684D02*
X43214Y11887D01*
X43112Y12091D01*
X43315Y11989D01*
X43519Y12091D01*
X43417Y11887D01*
X43519Y11684D01*
X43315Y11786D01*
X43112Y11684D01*
X41652D02*
X41754Y11887D01*
X41652Y12091D01*
X41855Y11989D01*
X42059Y12091D01*
X41957Y11887D01*
X42059Y11684D01*
X41855Y11786D01*
X41652Y11684D01*
X42048Y7909D02*
X42149Y8113D01*
X42048Y8316D01*
X42251Y8214D01*
X42454Y8316D01*
X42352Y8113D01*
X42454Y7909D01*
X42251Y8011D01*
X42048Y7909D01*
X43508Y7909D02*
X43609Y8113D01*
X43508Y8316D01*
X43711Y8214D01*
X43914Y8316D01*
X43812Y8113D01*
X43914Y7909D01*
X43711Y8011D01*
X43508Y7909D01*
X44789Y8609D02*
X44891Y8812D01*
X44789Y9015D01*
X44992Y8914D01*
X45195Y9015D01*
X45094Y8812D01*
X45195Y8609D01*
X44992Y8711D01*
X44789Y8609D01*
X46216Y8918D02*
X46317Y9121D01*
X46216Y9325D01*
X46419Y9223D01*
X46622Y9325D01*
X46521Y9121D01*
X46622Y8918D01*
X46419Y9020D01*
X46216Y8918D01*
X47611Y9348D02*
X47713Y9551D01*
X47611Y9754D01*
X47814Y9653D01*
X48018Y9754D01*
X47916Y9551D01*
X48018Y9348D01*
X47814Y9449D01*
X47611Y9348D01*
X48701Y10319D02*
X48803Y10522D01*
X48701Y10726D01*
X48904Y10624D01*
X49107Y10726D01*
X49006Y10522D01*
X49107Y10319D01*
X48904Y10421D01*
X48701Y10319D01*
X49287Y11656D02*
X49389Y11860D01*
X49287Y12063D01*
X49491Y11961D01*
X49694Y12063D01*
X49592Y11860D01*
X49694Y11656D01*
X49491Y11758D01*
X49287Y11656D01*
X49365Y13114D02*
X49467Y13317D01*
X49365Y13521D01*
X49569Y13419D01*
X49772Y13521D01*
X49670Y13317D01*
X49772Y13114D01*
X49569Y13216D01*
X49365Y13114D01*
Y14574D02*
X49467Y14777D01*
X49365Y14981D01*
X49569Y14879D01*
X49772Y14981D01*
X49670Y14777D01*
X49772Y14574D01*
X49569Y14676D01*
X49365Y14574D01*
Y16034D02*
X49467Y16237D01*
X49365Y16441D01*
X49569Y16339D01*
X49772Y16441D01*
X49670Y16237D01*
X49772Y16034D01*
X49569Y16136D01*
X49365Y16034D01*
Y17494D02*
X49467Y17697D01*
X49365Y17901D01*
X49569Y17799D01*
X49772Y17901D01*
X49670Y17697D01*
X49772Y17494D01*
X49569Y17596D01*
X49365Y17494D01*
Y18954D02*
X49467Y19157D01*
X49365Y19361D01*
X49569Y19259D01*
X49772Y19361D01*
X49670Y19157D01*
X49772Y18954D01*
X49569Y19056D01*
X49365Y18954D01*
Y20414D02*
X49467Y20617D01*
X49365Y20821D01*
X49569Y20719D01*
X49772Y20821D01*
X49670Y20617D01*
X49772Y20414D01*
X49569Y20516D01*
X49365Y20414D01*
Y21874D02*
X49467Y22077D01*
X49365Y22281D01*
X49569Y22179D01*
X49772Y22281D01*
X49670Y22077D01*
X49772Y21874D01*
X49569Y21976D01*
X49365Y21874D01*
Y23334D02*
X49467Y23537D01*
X49365Y23741D01*
X49569Y23639D01*
X49772Y23741D01*
X49670Y23537D01*
X49772Y23334D01*
X49569Y23436D01*
X49365Y23334D01*
Y24794D02*
X49467Y24997D01*
X49365Y25201D01*
X49569Y25099D01*
X49772Y25201D01*
X49670Y24997D01*
X49772Y24794D01*
X49569Y24896D01*
X49365Y24794D01*
Y26254D02*
X49467Y26457D01*
X49365Y26661D01*
X49569Y26559D01*
X49772Y26661D01*
X49670Y26457D01*
X49772Y26254D01*
X49569Y26356D01*
X49365Y26254D01*
Y27714D02*
X49467Y27917D01*
X49365Y28121D01*
X49569Y28019D01*
X49772Y28121D01*
X49670Y27917D01*
X49772Y27714D01*
X49569Y27816D01*
X49365Y27714D01*
Y29174D02*
X49467Y29377D01*
X49365Y29581D01*
X49569Y29479D01*
X49772Y29581D01*
X49670Y29377D01*
X49772Y29174D01*
X49569Y29276D01*
X49365Y29174D01*
Y30634D02*
X49467Y30837D01*
X49365Y31041D01*
X49569Y30939D01*
X49772Y31041D01*
X49670Y30837D01*
X49772Y30634D01*
X49569Y30736D01*
X49365Y30634D01*
Y33554D02*
X49467Y33757D01*
X49365Y33961D01*
X49569Y33859D01*
X49772Y33961D01*
X49670Y33757D01*
X49772Y33554D01*
X49569Y33656D01*
X49365Y33554D01*
Y37934D02*
X49467Y38137D01*
X49365Y38341D01*
X49569Y38239D01*
X49772Y38341D01*
X49670Y38137D01*
X49772Y37934D01*
X49569Y38036D01*
X49365Y37934D01*
Y39394D02*
X49467Y39597D01*
X49365Y39801D01*
X49569Y39699D01*
X49772Y39801D01*
X49670Y39597D01*
X49772Y39394D01*
X49569Y39496D01*
X49365Y39394D01*
X51668Y40488D02*
X51769Y40691D01*
X51668Y40895D01*
X51871Y40793D01*
X52074Y40895D01*
X51972Y40691D01*
X52074Y40488D01*
X51871Y40590D01*
X51668Y40488D01*
X42084Y51684D02*
X42185Y51887D01*
X42084Y52091D01*
X42287Y51989D01*
X42490Y52091D01*
X42388Y51887D01*
X42490Y51684D01*
X42287Y51786D01*
X42084Y51684D01*
X41631Y47909D02*
X41733Y48113D01*
X41631Y48316D01*
X41834Y48214D01*
X42037Y48316D01*
X41936Y48113D01*
X42037Y47909D01*
X41834Y48011D01*
X41631Y47909D01*
X47300Y48894D02*
X47402Y49097D01*
X47300Y49300D01*
X47503Y49198D01*
X47707Y49300D01*
X47605Y49097D01*
X47707Y48894D01*
X47503Y48995D01*
X47300Y48894D01*
X48760D02*
X48862Y49097D01*
X48760Y49300D01*
X48963Y49198D01*
X49167Y49300D01*
X49065Y49097D01*
X49167Y48894D01*
X48963Y48995D01*
X48760Y48894D01*
X54530Y46384D02*
X54631Y46588D01*
X54530Y46791D01*
X54733Y46689D01*
X54936Y46791D01*
X54835Y46588D01*
X54936Y46384D01*
X54733Y46486D01*
X54530Y46384D01*
X54401Y49214D02*
X54502Y49417D01*
X54401Y49620D01*
X54604Y49519D01*
X54807Y49620D01*
X54705Y49417D01*
X54807Y49214D01*
X54604Y49315D01*
X54401Y49214D01*
X52163Y50879D02*
X52264Y51083D01*
X52163Y51286D01*
X52366Y51184D01*
X52569Y51286D01*
X52467Y51083D01*
X52569Y50879D01*
X52366Y50981D01*
X52163Y50879D01*
X49254Y50700D02*
X49355Y50903D01*
X49254Y51106D01*
X49457Y51005D01*
X49660Y51106D01*
X49558Y50903D01*
X49660Y50700D01*
X49457Y50802D01*
X49254Y50700D01*
X47794D02*
X47895Y50903D01*
X47794Y51106D01*
X47997Y51005D01*
X48200Y51106D01*
X48098Y50903D01*
X48200Y50700D01*
X47997Y50802D01*
X47794Y50700D01*
X43641Y51684D02*
X43743Y51887D01*
X43641Y52090D01*
X43844Y51989D01*
X44047Y52090D01*
X43946Y51887D01*
X44047Y51684D01*
X43844Y51785D01*
X43641Y51684D01*
X101035Y50700D02*
X101137Y50903D01*
X101035Y51106D01*
X101238Y51005D01*
X101442Y51106D01*
X101340Y50903D01*
X101442Y50700D01*
X101238Y50801D01*
X101035Y50700D01*
X99575D02*
X99677Y50903D01*
X99575Y51106D01*
X99778Y51005D01*
X99982Y51106D01*
X99880Y50903D01*
X99982Y50700D01*
X99778Y50801D01*
X99575Y50700D01*
X96696Y50350D02*
X96798Y50553D01*
X96696Y50756D01*
X96899Y50655D01*
X97103Y50756D01*
X97001Y50553D01*
X97103Y50350D01*
X96899Y50451D01*
X96696Y50350D01*
X95551Y49444D02*
X95653Y49647D01*
X95551Y49851D01*
X95754Y49749D01*
X95957Y49851D01*
X95856Y49647D01*
X95957Y49444D01*
X95754Y49546D01*
X95551Y49444D01*
X94880Y48147D02*
X94982Y48351D01*
X94880Y48554D01*
X95083Y48452D01*
X95286Y48554D01*
X95185Y48351D01*
X95286Y48147D01*
X95083Y48249D01*
X94880Y48147D01*
X94752Y46693D02*
X94853Y46896D01*
X94752Y47100D01*
X94955Y46998D01*
X95158Y47100D01*
X95056Y46896D01*
X95158Y46693D01*
X94955Y46795D01*
X94752Y46693D01*
Y45233D02*
X94853Y45436D01*
X94752Y45640D01*
X94955Y45538D01*
X95158Y45640D01*
X95056Y45436D01*
X95158Y45233D01*
X94955Y45335D01*
X94752Y45233D01*
Y43773D02*
X94853Y43976D01*
X94752Y44180D01*
X94955Y44078D01*
X95158Y44180D01*
X95056Y43976D01*
X95158Y43773D01*
X94955Y43875D01*
X94752Y43773D01*
Y42313D02*
X94853Y42516D01*
X94752Y42720D01*
X94955Y42618D01*
X95158Y42720D01*
X95056Y42516D01*
X95158Y42313D01*
X94955Y42415D01*
X94752Y42313D01*
Y40853D02*
X94853Y41056D01*
X94752Y41260D01*
X94955Y41158D01*
X95158Y41260D01*
X95056Y41056D01*
X95158Y40853D01*
X94955Y40955D01*
X94752Y40853D01*
X94314Y39460D02*
X94415Y39664D01*
X94314Y39867D01*
X94517Y39765D01*
X94720Y39867D01*
X94618Y39664D01*
X94720Y39460D01*
X94517Y39562D01*
X94314Y39460D01*
X92854D02*
X92955Y39664D01*
X92854Y39867D01*
X93057Y39765D01*
X93260Y39867D01*
X93158Y39664D01*
X93260Y39460D01*
X93057Y39562D01*
X92854Y39460D01*
X89936Y39557D02*
X90038Y39760D01*
X89936Y39963D01*
X90139Y39862D01*
X90342Y39963D01*
X90241Y39760D01*
X90342Y39557D01*
X90139Y39658D01*
X89936Y39557D01*
X91430Y37567D02*
X91532Y37770D01*
X91430Y37974D01*
X91633Y37872D01*
X91837Y37974D01*
X91735Y37770D01*
X91837Y37567D01*
X91633Y37669D01*
X91430Y37567D01*
X92888Y37655D02*
X92989Y37858D01*
X92888Y38061D01*
X93091Y37959D01*
X93294Y38061D01*
X93192Y37858D01*
X93294Y37655D01*
X93091Y37756D01*
X92888Y37655D01*
X94348D02*
X94449Y37858D01*
X94348Y38061D01*
X94551Y37959D01*
X94754Y38061D01*
X94652Y37858D01*
X94754Y37655D01*
X94551Y37756D01*
X94348Y37655D01*
X95805Y37563D02*
X95906Y37766D01*
X95805Y37970D01*
X96008Y37868D01*
X96211Y37970D01*
X96109Y37766D01*
X96211Y37563D01*
X96008Y37665D01*
X95805Y37563D01*
X97262Y37655D02*
X97363Y37858D01*
X97262Y38061D01*
X97465Y37959D01*
X97668Y38061D01*
X97567Y37858D01*
X97668Y37655D01*
X97465Y37756D01*
X97262Y37655D01*
X99739Y36520D02*
X99841Y36723D01*
X99739Y36927D01*
X99943Y36825D01*
X100146Y36927D01*
X100044Y36723D01*
X100146Y36520D01*
X99943Y36622D01*
X99739Y36520D01*
X99819Y35062D02*
X99920Y35266D01*
X99819Y35469D01*
X100022Y35367D01*
X100225Y35469D01*
X100124Y35266D01*
X100225Y35062D01*
X100022Y35164D01*
X99819Y35062D01*
Y33602D02*
X99920Y33806D01*
X99819Y34009D01*
X100022Y33907D01*
X100225Y34009D01*
X100124Y33806D01*
X100225Y33602D01*
X100022Y33704D01*
X99819Y33602D01*
Y29222D02*
X99920Y29426D01*
X99819Y29629D01*
X100022Y29527D01*
X100225Y29629D01*
X100124Y29426D01*
X100225Y29222D01*
X100022Y29324D01*
X99819Y29222D01*
Y27762D02*
X99920Y27966D01*
X99819Y28169D01*
X100022Y28067D01*
X100225Y28169D01*
X100124Y27966D01*
X100225Y27762D01*
X100022Y27864D01*
X99819Y27762D01*
Y26302D02*
X99920Y26506D01*
X99819Y26709D01*
X100022Y26607D01*
X100225Y26709D01*
X100124Y26506D01*
X100225Y26302D01*
X100022Y26404D01*
X99819Y26302D01*
Y24842D02*
X99920Y25046D01*
X99819Y25249D01*
X100022Y25147D01*
X100225Y25249D01*
X100124Y25046D01*
X100225Y24842D01*
X100022Y24944D01*
X99819Y24842D01*
Y23382D02*
X99920Y23586D01*
X99819Y23789D01*
X100022Y23687D01*
X100225Y23789D01*
X100124Y23586D01*
X100225Y23382D01*
X100022Y23484D01*
X99819Y23382D01*
Y21922D02*
X99920Y22126D01*
X99819Y22329D01*
X100022Y22227D01*
X100225Y22329D01*
X100124Y22126D01*
X100225Y21922D01*
X100022Y22024D01*
X99819Y21922D01*
X99506Y20496D02*
X99607Y20700D01*
X99506Y20903D01*
X99709Y20801D01*
X99912Y20903D01*
X99810Y20700D01*
X99912Y20496D01*
X99709Y20598D01*
X99506Y20496D01*
X99819Y16145D02*
X99920Y16349D01*
X99819Y16552D01*
X100022Y16450D01*
X100225Y16552D01*
X100124Y16349D01*
X100225Y16145D01*
X100022Y16247D01*
X99819Y16145D01*
Y14685D02*
X99920Y14889D01*
X99819Y15092D01*
X100022Y14990D01*
X100225Y15092D01*
X100124Y14889D01*
X100225Y14685D01*
X100022Y14787D01*
X99819Y14685D01*
Y13225D02*
X99920Y13429D01*
X99819Y13632D01*
X100022Y13530D01*
X100225Y13632D01*
X100124Y13429D01*
X100225Y13225D01*
X100022Y13327D01*
X99819Y13225D01*
X99874Y11766D02*
X99975Y11970D01*
X99874Y12173D01*
X100077Y12071D01*
X100280Y12173D01*
X100179Y11970D01*
X100280Y11766D01*
X100077Y11868D01*
X99874Y11766D01*
X100418Y10412D02*
X100519Y10615D01*
X100418Y10818D01*
X100621Y10716D01*
X100824Y10818D01*
X100723Y10615D01*
X100824Y10412D01*
X100621Y10513D01*
X100418Y10412D01*
X101477Y9407D02*
X101579Y9610D01*
X101477Y9813D01*
X101680Y9712D01*
X101883Y9813D01*
X101782Y9610D01*
X101883Y9407D01*
X101680Y9508D01*
X101477Y9407D01*
X102856Y8927D02*
X102958Y9130D01*
X102856Y9334D01*
X103059Y9232D01*
X103262Y9334D01*
X103161Y9130D01*
X103262Y8927D01*
X103059Y9029D01*
X102856Y8927D01*
X104313Y8838D02*
X104415Y9041D01*
X104313Y9244D01*
X104516Y9142D01*
X104720Y9244D01*
X104618Y9041D01*
X104720Y8838D01*
X104516Y8939D01*
X104313Y8838D01*
X105689Y8349D02*
X105791Y8552D01*
X105689Y8756D01*
X105892Y8654D01*
X106096Y8756D01*
X105994Y8552D01*
X106096Y8349D01*
X105892Y8451D01*
X105689Y8349D01*
X107081Y7909D02*
X107183Y8113D01*
X107081Y8316D01*
X107285Y8214D01*
X107488Y8316D01*
X107386Y8113D01*
X107488Y7909D01*
X107285Y8011D01*
X107081Y7909D01*
X108541Y7909D02*
X108643Y8113D01*
X108541Y8316D01*
X108745Y8214D01*
X108948Y8316D01*
X108846Y8113D01*
X108948Y7909D01*
X108745Y8011D01*
X108541Y7909D01*
X107870Y11684D02*
X107972Y11887D01*
X107870Y12091D01*
X108073Y11989D01*
X108276Y12091D01*
X108175Y11887D01*
X108276Y11684D01*
X108073Y11786D01*
X107870Y11684D01*
X106410Y11679D02*
X106512Y11882D01*
X106410Y12085D01*
X106613Y11983D01*
X106816Y12085D01*
X106715Y11882D01*
X106816Y11679D01*
X106613Y11780D01*
X106410Y11679D01*
X105166Y10915D02*
X105267Y11118D01*
X105166Y11321D01*
X105369Y11220D01*
X105572Y11321D01*
X105471Y11118D01*
X105572Y10915D01*
X105369Y11017D01*
X105166Y10915D01*
X102271Y11033D02*
X102373Y11236D01*
X102271Y11439D01*
X102474Y11338D01*
X102678Y11439D01*
X102576Y11236D01*
X102678Y11033D01*
X102474Y11134D01*
X102271Y11033D01*
X101625Y12342D02*
X101726Y12545D01*
X101625Y12748D01*
X101828Y12647D01*
X102031Y12748D01*
X101930Y12545D01*
X102031Y12342D01*
X101828Y12444D01*
X101625Y12342D01*
Y13802D02*
X101726Y14005D01*
X101625Y14208D01*
X101828Y14107D01*
X102031Y14208D01*
X101930Y14005D01*
X102031Y13802D01*
X101828Y13904D01*
X101625Y13802D01*
Y15262D02*
X101726Y15465D01*
X101625Y15668D01*
X101828Y15567D01*
X102031Y15668D01*
X101930Y15465D01*
X102031Y15262D01*
X101828Y15364D01*
X101625Y15262D01*
Y21021D02*
X101726Y21224D01*
X101625Y21427D01*
X101828Y21326D01*
X102031Y21427D01*
X101930Y21224D01*
X102031Y21021D01*
X101828Y21123D01*
X101625Y21021D01*
Y22481D02*
X101726Y22684D01*
X101625Y22887D01*
X101828Y22786D01*
X102031Y22887D01*
X101930Y22684D01*
X102031Y22481D01*
X101828Y22583D01*
X101625Y22481D01*
Y23941D02*
X101726Y24144D01*
X101625Y24347D01*
X101828Y24246D01*
X102031Y24347D01*
X101930Y24144D01*
X102031Y23941D01*
X101828Y24043D01*
X101625Y23941D01*
Y25401D02*
X101726Y25604D01*
X101625Y25807D01*
X101828Y25706D01*
X102031Y25807D01*
X101930Y25604D01*
X102031Y25401D01*
X101828Y25503D01*
X101625Y25401D01*
Y26861D02*
X101726Y27064D01*
X101625Y27267D01*
X101828Y27166D01*
X102031Y27267D01*
X101930Y27064D01*
X102031Y26861D01*
X101828Y26963D01*
X101625Y26861D01*
Y31241D02*
X101726Y31444D01*
X101625Y31647D01*
X101828Y31546D01*
X102031Y31647D01*
X101930Y31444D01*
X102031Y31241D01*
X101828Y31343D01*
X101625Y31241D01*
Y32701D02*
X101726Y32904D01*
X101625Y33107D01*
X101828Y33006D01*
X102031Y33107D01*
X101930Y32904D01*
X102031Y32701D01*
X101828Y32803D01*
X101625Y32701D01*
Y34161D02*
X101726Y34364D01*
X101625Y34567D01*
X101828Y34466D01*
X102031Y34567D01*
X101930Y34364D01*
X102031Y34161D01*
X101828Y34263D01*
X101625Y34161D01*
Y35621D02*
X101726Y35824D01*
X101625Y36027D01*
X101828Y35926D01*
X102031Y36027D01*
X101930Y35824D01*
X102031Y35621D01*
X101828Y35723D01*
X101625Y35621D01*
X101451Y37071D02*
X101552Y37274D01*
X101451Y37477D01*
X101654Y37375D01*
X101857Y37477D01*
X101755Y37274D01*
X101857Y37071D01*
X101654Y37172D01*
X101451Y37071D01*
X100716Y38333D02*
X100818Y38536D01*
X100716Y38739D01*
X100920Y38637D01*
X101123Y38739D01*
X101021Y38536D01*
X101123Y38333D01*
X100920Y38434D01*
X100716Y38333D01*
X99524Y39175D02*
X99626Y39378D01*
X99524Y39581D01*
X99727Y39480D01*
X99930Y39581D01*
X99829Y39378D01*
X99930Y39175D01*
X99727Y39277D01*
X99524Y39175D01*
X96649Y39681D02*
X96751Y39884D01*
X96649Y40087D01*
X96852Y39986D01*
X97055Y40087D01*
X96954Y39884D01*
X97055Y39681D01*
X96852Y39783D01*
X96649Y39681D01*
X96558Y41138D02*
X96659Y41341D01*
X96558Y41544D01*
X96761Y41443D01*
X96964Y41544D01*
X96862Y41341D01*
X96964Y41138D01*
X96761Y41240D01*
X96558Y41138D01*
Y42598D02*
X96659Y42801D01*
X96558Y43004D01*
X96761Y42903D01*
X96964Y43004D01*
X96862Y42801D01*
X96964Y42598D01*
X96761Y42700D01*
X96558Y42598D01*
Y44058D02*
X96659Y44261D01*
X96558Y44464D01*
X96761Y44363D01*
X96964Y44464D01*
X96862Y44261D01*
X96964Y44058D01*
X96761Y44160D01*
X96558Y44058D01*
Y45518D02*
X96659Y45721D01*
X96558Y45924D01*
X96761Y45823D01*
X96964Y45924D01*
X96862Y45721D01*
X96964Y45518D01*
X96761Y45620D01*
X96558Y45518D01*
Y46978D02*
X96659Y47181D01*
X96558Y47384D01*
X96761Y47283D01*
X96964Y47384D01*
X96862Y47181D01*
X96964Y46978D01*
X96761Y47080D01*
X96558Y46978D01*
X96993Y48372D02*
X97094Y48575D01*
X96993Y48778D01*
X97196Y48677D01*
X97399Y48778D01*
X97297Y48575D01*
X97399Y48372D01*
X97196Y48473D01*
X96993Y48372D01*
X99816Y48894D02*
X99918Y49097D01*
X99816Y49300D01*
X100019Y49199D01*
X100222Y49300D01*
X100121Y49097D01*
X100222Y48894D01*
X100019Y48995D01*
X99816Y48894D01*
X101276D02*
X101378Y49097D01*
X101276Y49300D01*
X101479Y49199D01*
X101682Y49300D01*
X101581Y49097D01*
X101682Y48894D01*
X101479Y48995D01*
X101276Y48894D01*
X105599Y48420D02*
X105701Y48623D01*
X105599Y48826D01*
X105803Y48724D01*
X106006Y48826D01*
X105904Y48623D01*
X106006Y48420D01*
X105803Y48521D01*
X105599Y48420D01*
X106967Y47909D02*
X107069Y48113D01*
X106967Y48316D01*
X107171Y48214D01*
X107374Y48316D01*
X107272Y48113D01*
X107374Y47909D01*
X107171Y48011D01*
X106967Y47909D01*
X108072Y51684D02*
X108173Y51887D01*
X108072Y52091D01*
X108275Y51989D01*
X108478Y52091D01*
X108377Y51887D01*
X108478Y51684D01*
X108275Y51786D01*
X108072Y51684D01*
X103381Y48845D02*
X103482Y49048D01*
X103381Y49251D01*
X103584Y49150D01*
X103787Y49251D01*
X103686Y49048D01*
X103787Y48845D01*
X103584Y48947D01*
X103381Y48845D01*
X85997Y57867D02*
X86099Y58070D01*
X85997Y58273D01*
X86201Y58172D01*
X86404Y58273D01*
X86302Y58070D01*
X86404Y57867D01*
X86201Y57968D01*
X85997Y57867D01*
X63805Y41007D02*
X63907Y41211D01*
X63805Y41414D01*
X64008Y41312D01*
X64212Y41414D01*
X64110Y41211D01*
X64212Y41007D01*
X64008Y41109D01*
X63805Y41007D01*
X85111Y55472D02*
X85212Y55675D01*
X85111Y55878D01*
X85314Y55777D01*
X85517Y55878D01*
X85415Y55675D01*
X85517Y55472D01*
X85314Y55573D01*
X85111Y55472D01*
X82980Y40257D02*
X83082Y40461D01*
X82980Y40664D01*
X83183Y40562D01*
X83387Y40664D01*
X83285Y40461D01*
X83387Y40257D01*
X83183Y40359D01*
X82980Y40257D01*
X79555Y36407D02*
X79657Y36611D01*
X79555Y36814D01*
X79758Y36712D01*
X79962Y36814D01*
X79860Y36611D01*
X79962Y36407D01*
X79758Y36509D01*
X79555Y36407D01*
X84622Y44472D02*
X84723Y44675D01*
X84622Y44878D01*
X84825Y44777D01*
X85028Y44878D01*
X84927Y44675D01*
X85028Y44472D01*
X84825Y44573D01*
X84622Y44472D01*
X80109Y41238D02*
X80211Y41442D01*
X80109Y41645D01*
X80312Y41543D01*
X80516Y41645D01*
X80414Y41442D01*
X80516Y41238D01*
X80312Y41340D01*
X80109Y41238D01*
X81709Y41822D02*
X81811Y42025D01*
X81709Y42228D01*
X81912Y42127D01*
X82116Y42228D01*
X82014Y42025D01*
X82116Y41822D01*
X81912Y41923D01*
X81709Y41822D01*
X94447Y53049D02*
X94549Y53252D01*
X94447Y53455D01*
X94650Y53354D01*
X94854Y53455D01*
X94752Y53252D01*
X94854Y53049D01*
X94650Y53151D01*
X94447Y53049D01*
X68976Y59647D02*
X69077Y59850D01*
X68976Y60053D01*
X69179Y59952D01*
X69382Y60053D01*
X69281Y59850D01*
X69382Y59647D01*
X69179Y59748D01*
X68976Y59647D01*
X83897Y61422D02*
X83999Y61625D01*
X83897Y61828D01*
X84100Y61727D01*
X84304Y61828D01*
X84202Y61625D01*
X84304Y61422D01*
X84100Y61523D01*
X83897Y61422D01*
X89822Y59522D02*
X89924Y59725D01*
X89822Y59928D01*
X90025Y59827D01*
X90229Y59928D01*
X90127Y59725D01*
X90229Y59522D01*
X90025Y59623D01*
X89822Y59522D01*
X78847Y44472D02*
X78948Y44675D01*
X78847Y44878D01*
X79050Y44777D01*
X79253Y44878D01*
X79152Y44675D01*
X79253Y44472D01*
X79050Y44573D01*
X78847Y44472D01*
X78147Y47122D02*
X78248Y47325D01*
X78147Y47528D01*
X78350Y47427D01*
X78553Y47528D01*
X78452Y47325D01*
X78553Y47122D01*
X78350Y47223D01*
X78147Y47122D01*
X90497Y36947D02*
X90598Y37150D01*
X90497Y37353D01*
X90700Y37252D01*
X90903Y37353D01*
X90802Y37150D01*
X90903Y36947D01*
X90700Y37048D01*
X90497Y36947D01*
X64472Y48637D02*
X64573Y48840D01*
X64472Y49043D01*
X64675Y48942D01*
X64878Y49043D01*
X64777Y48840D01*
X64878Y48637D01*
X64675Y48738D01*
X64472Y48637D01*
X88844Y35372D02*
X88946Y35575D01*
X88844Y35778D01*
X89048Y35677D01*
X89251Y35778D01*
X89149Y35575D01*
X89251Y35372D01*
X89048Y35473D01*
X88844Y35372D01*
X88247Y36972D02*
X88348Y37175D01*
X88247Y37378D01*
X88450Y37277D01*
X88653Y37378D01*
X88552Y37175D01*
X88653Y36972D01*
X88450Y37073D01*
X88247Y36972D01*
X84647Y59247D02*
X84749Y59450D01*
X84647Y59653D01*
X84850Y59552D01*
X85054Y59653D01*
X84952Y59450D01*
X85054Y59247D01*
X84850Y59348D01*
X84647Y59247D01*
X89572Y54822D02*
X89674Y55025D01*
X89572Y55228D01*
X89775Y55127D01*
X89979Y55228D01*
X89877Y55025D01*
X89979Y54822D01*
X89775Y54923D01*
X89572Y54822D01*
X91222Y53572D02*
X91324Y53775D01*
X91222Y53978D01*
X91425Y53877D01*
X91629Y53978D01*
X91527Y53775D01*
X91629Y53572D01*
X91425Y53673D01*
X91222Y53572D01*
X92272Y53822D02*
X92374Y54025D01*
X92272Y54228D01*
X92475Y54127D01*
X92679Y54228D01*
X92577Y54025D01*
X92679Y53822D01*
X92475Y53923D01*
X92272Y53822D01*
X92272Y55197D02*
X92374Y55400D01*
X92272Y55603D01*
X92475Y55502D01*
X92679Y55603D01*
X92577Y55400D01*
X92679Y55197D01*
X92475Y55298D01*
X92272Y55197D01*
X89222Y58922D02*
X89324Y59125D01*
X89222Y59328D01*
X89425Y59227D01*
X89629Y59328D01*
X89527Y59125D01*
X89629Y58922D01*
X89425Y59023D01*
X89222Y58922D01*
X103847Y11272D02*
X103948Y11475D01*
X103847Y11678D01*
X104050Y11577D01*
X104253Y11678D01*
X104152Y11475D01*
X104253Y11272D01*
X104050Y11373D01*
X103847Y11272D01*
X56273Y54348D02*
X56375Y54551D01*
X56273Y54754D01*
X56477Y54653D01*
X56680Y54754D01*
X56578Y54551D01*
X56680Y54348D01*
X56477Y54449D01*
X56273Y54348D01*
X57688Y52899D02*
X57789Y53102D01*
X57688Y53305D01*
X57891Y53203D01*
X58094Y53305D01*
X57992Y53102D01*
X58094Y52899D01*
X57891Y53000D01*
X57688Y52899D01*
X56530Y47907D02*
X56632Y48111D01*
X56530Y48314D01*
X56734Y48212D01*
X56937Y48314D01*
X56835Y48111D01*
X56937Y47907D01*
X56734Y48009D01*
X56530Y47907D01*
X63380Y38754D02*
X63482Y38958D01*
X63380Y39161D01*
X63583Y39059D01*
X63787Y39161D01*
X63685Y38958D01*
X63787Y38754D01*
X63583Y38856D01*
X63380Y38754D01*
X62601Y39557D02*
X62702Y39761D01*
X62601Y39964D01*
X62804Y39862D01*
X63007Y39964D01*
X62906Y39761D01*
X63007Y39557D01*
X62804Y39659D01*
X62601Y39557D01*
X62005Y41532D02*
X62107Y41736D01*
X62005Y41939D01*
X62208Y41837D01*
X62412Y41939D01*
X62310Y41736D01*
X62412Y41532D01*
X62208Y41634D01*
X62005Y41532D01*
X60405Y40957D02*
X60507Y41161D01*
X60405Y41364D01*
X60609Y41262D01*
X60812Y41364D01*
X60710Y41161D01*
X60812Y40957D01*
X60609Y41059D01*
X60405Y40957D01*
X85580Y39857D02*
X85682Y40061D01*
X85580Y40264D01*
X85784Y40162D01*
X85987Y40264D01*
X85885Y40061D01*
X85987Y39857D01*
X85784Y39959D01*
X85580Y39857D01*
Y34132D02*
X85682Y34336D01*
X85580Y34539D01*
X85784Y34437D01*
X85987Y34539D01*
X85885Y34336D01*
X85987Y34132D01*
X85784Y34234D01*
X85580Y34132D01*
X68080Y46382D02*
X68182Y46586D01*
X68080Y46789D01*
X68284Y46687D01*
X68487Y46789D01*
X68385Y46586D01*
X68487Y46382D01*
X68284Y46484D01*
X68080Y46382D01*
X60405Y47557D02*
X60507Y47761D01*
X60405Y47964D01*
X60609Y47862D01*
X60812Y47964D01*
X60710Y47761D01*
X60812Y47557D01*
X60609Y47659D01*
X60405Y47557D01*
X67495Y43507D02*
X67597Y43711D01*
X67495Y43914D01*
X67699Y43812D01*
X67902Y43914D01*
X67800Y43711D01*
X67902Y43507D01*
X67699Y43609D01*
X67495Y43507D01*
X63065D02*
X63167Y43711D01*
X63065Y43914D01*
X63268Y43812D01*
X63472Y43914D01*
X63370Y43711D01*
X63472Y43507D01*
X63268Y43609D01*
X63065Y43507D01*
X39819Y65987D02*
X39921Y66190D01*
X39819Y66393D01*
X40022Y66292D01*
X40225Y66393D01*
X40124Y66190D01*
X40225Y65987D01*
X40022Y66088D01*
X39819Y65987D01*
X40687D02*
X40788Y66190D01*
X40687Y66393D01*
X40890Y66292D01*
X41093Y66393D01*
X40992Y66190D01*
X41093Y65987D01*
X40890Y66088D01*
X40687Y65987D01*
X63580Y75132D02*
X63682Y75335D01*
X63580Y75538D01*
X63784Y75437D01*
X63987Y75538D01*
X63885Y75335D01*
X63987Y75132D01*
X63784Y75234D01*
X63580Y75132D01*
X66968Y64013D02*
X67069Y64216D01*
X66968Y64419D01*
X67171Y64318D01*
X67374Y64419D01*
X67273Y64216D01*
X67374Y64013D01*
X67171Y64114D01*
X66968Y64013D01*
X80362Y67539D02*
X80463Y67742D01*
X80362Y67945D01*
X80565Y67843D01*
X80768Y67945D01*
X80666Y67742D01*
X80768Y67539D01*
X80565Y67640D01*
X80362Y67539D01*
X58195Y77452D02*
X58296Y77655D01*
X58195Y77858D01*
X58398Y77757D01*
X58601Y77858D01*
X58499Y77655D01*
X58601Y77452D01*
X58398Y77554D01*
X58195Y77452D01*
X58172Y75189D02*
X58273Y75392D01*
X58172Y75595D01*
X58375Y75493D01*
X58578Y75595D01*
X58477Y75392D01*
X58578Y75189D01*
X58375Y75290D01*
X58172Y75189D01*
Y72572D02*
X58273Y72775D01*
X58172Y72978D01*
X58375Y72877D01*
X58578Y72978D01*
X58477Y72775D01*
X58578Y72572D01*
X58375Y72673D01*
X58172Y72572D01*
X63580Y76622D02*
X63682Y76825D01*
X63580Y77028D01*
X63784Y76927D01*
X63987Y77028D01*
X63885Y76825D01*
X63987Y76622D01*
X63784Y76723D01*
X63580Y76622D01*
X63578Y72572D02*
X63680Y72775D01*
X63578Y72978D01*
X63781Y72877D01*
X63984Y72978D01*
X63883Y72775D01*
X63984Y72572D01*
X63781Y72673D01*
X63578Y72572D01*
X79794D02*
X79896Y72775D01*
X79794Y72978D01*
X79997Y72877D01*
X80201Y72978D01*
X80099Y72775D01*
X80201Y72572D01*
X79997Y72673D01*
X79794Y72572D01*
X68984Y73722D02*
X69086Y73925D01*
X68984Y74128D01*
X69188Y74027D01*
X69391Y74128D01*
X69289Y73925D01*
X69391Y73722D01*
X69188Y73823D01*
X68984Y73722D01*
X74391Y74512D02*
X74492Y74715D01*
X74391Y74918D01*
X74594Y74817D01*
X74797Y74918D01*
X74695Y74715D01*
X74797Y74512D01*
X74594Y74613D01*
X74391Y74512D01*
X112297Y46010D02*
X112398Y46214D01*
X112297Y46417D01*
X112500Y46315D01*
X112703Y46417D01*
X112602Y46214D01*
X112703Y46010D01*
X112500Y46112D01*
X112297Y46010D01*
X111413Y46894D02*
X111515Y47097D01*
X111413Y47301D01*
X111616Y47199D01*
X111819Y47301D01*
X111718Y47097D01*
X111819Y46894D01*
X111616Y46996D01*
X111413Y46894D01*
X113181D02*
X113282Y47097D01*
X113181Y47301D01*
X113384Y47199D01*
X113587Y47301D01*
X113485Y47097D01*
X113587Y46894D01*
X113384Y46996D01*
X113181Y46894D01*
X113181Y45127D02*
X113282Y45330D01*
X113181Y45533D01*
X113384Y45431D01*
X113587Y45533D01*
X113485Y45330D01*
X113587Y45127D01*
X113384Y45228D01*
X113181Y45127D01*
X111413D02*
X111515Y45330D01*
X111413Y45533D01*
X111616Y45431D01*
X111819Y45533D01*
X111718Y45330D01*
X111819Y45127D01*
X111616Y45228D01*
X111413Y45127D01*
X112297Y53583D02*
X112398Y53786D01*
X112297Y53990D01*
X112500Y53888D01*
X112703Y53990D01*
X112602Y53786D01*
X112703Y53583D01*
X112500Y53685D01*
X112297Y53583D01*
X111413Y54467D02*
X111515Y54670D01*
X111413Y54873D01*
X111616Y54772D01*
X111819Y54873D01*
X111718Y54670D01*
X111819Y54467D01*
X111616Y54569D01*
X111413Y54467D01*
X113181D02*
X113282Y54670D01*
X113181Y54873D01*
X113384Y54772D01*
X113587Y54873D01*
X113485Y54670D01*
X113587Y54467D01*
X113384Y54569D01*
X113181Y54467D01*
X113181Y52699D02*
X113282Y52903D01*
X113181Y53106D01*
X113384Y53004D01*
X113587Y53106D01*
X113485Y52903D01*
X113587Y52699D01*
X113384Y52801D01*
X113181Y52699D01*
X111413D02*
X111515Y52903D01*
X111413Y53106D01*
X111616Y53004D01*
X111819Y53106D01*
X111718Y52903D01*
X111819Y52699D01*
X111616Y52801D01*
X111413Y52699D01*
X37797Y46010D02*
X37898Y46214D01*
X37797Y46417D01*
X38000Y46315D01*
X38203Y46417D01*
X38102Y46214D01*
X38203Y46010D01*
X38000Y46112D01*
X37797Y46010D01*
X36913Y46894D02*
X37015Y47097D01*
X36913Y47301D01*
X37116Y47199D01*
X37319Y47301D01*
X37218Y47097D01*
X37319Y46894D01*
X37116Y46996D01*
X36913Y46894D01*
X38681D02*
X38782Y47097D01*
X38681Y47301D01*
X38884Y47199D01*
X39087Y47301D01*
X38985Y47097D01*
X39087Y46894D01*
X38884Y46996D01*
X38681Y46894D01*
X38681Y45127D02*
X38782Y45330D01*
X38681Y45533D01*
X38884Y45431D01*
X39087Y45533D01*
X38985Y45330D01*
X39087Y45127D01*
X38884Y45228D01*
X38681Y45127D01*
X36913D02*
X37015Y45330D01*
X36913Y45533D01*
X37116Y45431D01*
X37319Y45533D01*
X37218Y45330D01*
X37319Y45127D01*
X37116Y45228D01*
X36913Y45127D01*
X37797Y53583D02*
X37898Y53786D01*
X37797Y53990D01*
X38000Y53888D01*
X38203Y53990D01*
X38102Y53786D01*
X38203Y53583D01*
X38000Y53685D01*
X37797Y53583D01*
X36913Y54467D02*
X37015Y54670D01*
X36913Y54873D01*
X37116Y54772D01*
X37319Y54873D01*
X37218Y54670D01*
X37319Y54467D01*
X37116Y54569D01*
X36913Y54467D01*
X38681D02*
X38782Y54670D01*
X38681Y54873D01*
X38884Y54772D01*
X39087Y54873D01*
X38985Y54670D01*
X39087Y54467D01*
X38884Y54569D01*
X38681Y54467D01*
X38681Y52699D02*
X38782Y52903D01*
X38681Y53106D01*
X38884Y53004D01*
X39087Y53106D01*
X38985Y52903D01*
X39087Y52699D01*
X38884Y52801D01*
X38681Y52699D01*
X36913D02*
X37015Y52903D01*
X36913Y53106D01*
X37116Y53004D01*
X37319Y53106D01*
X37218Y52903D01*
X37319Y52699D01*
X37116Y52801D01*
X36913Y52699D01*
X112297Y13583D02*
X112398Y13786D01*
X112297Y13990D01*
X112500Y13888D01*
X112703Y13990D01*
X112602Y13786D01*
X112703Y13583D01*
X112500Y13685D01*
X112297Y13583D01*
X111413Y14467D02*
X111515Y14670D01*
X111413Y14873D01*
X111616Y14772D01*
X111819Y14873D01*
X111718Y14670D01*
X111819Y14467D01*
X111616Y14569D01*
X111413Y14467D01*
X113181D02*
X113282Y14670D01*
X113181Y14873D01*
X113384Y14772D01*
X113587Y14873D01*
X113485Y14670D01*
X113587Y14467D01*
X113384Y14569D01*
X113181Y14467D01*
X113181Y12699D02*
X113282Y12903D01*
X113181Y13106D01*
X113384Y13004D01*
X113587Y13106D01*
X113485Y12903D01*
X113587Y12699D01*
X113384Y12801D01*
X113181Y12699D01*
X111413D02*
X111515Y12903D01*
X111413Y13106D01*
X111616Y13004D01*
X111819Y13106D01*
X111718Y12903D01*
X111819Y12699D01*
X111616Y12801D01*
X111413Y12699D01*
X112297Y6010D02*
X112398Y6214D01*
X112297Y6417D01*
X112500Y6315D01*
X112703Y6417D01*
X112602Y6214D01*
X112703Y6010D01*
X112500Y6112D01*
X112297Y6010D01*
X111413Y6894D02*
X111515Y7097D01*
X111413Y7301D01*
X111616Y7199D01*
X111819Y7301D01*
X111718Y7097D01*
X111819Y6894D01*
X111616Y6996D01*
X111413Y6894D01*
X113181D02*
X113282Y7097D01*
X113181Y7301D01*
X113384Y7199D01*
X113587Y7301D01*
X113485Y7097D01*
X113587Y6894D01*
X113384Y6996D01*
X113181Y6894D01*
X113181Y5127D02*
X113282Y5330D01*
X113181Y5533D01*
X113384Y5431D01*
X113587Y5533D01*
X113485Y5330D01*
X113587Y5127D01*
X113384Y5228D01*
X113181Y5127D01*
X111413D02*
X111515Y5330D01*
X111413Y5533D01*
X111616Y5431D01*
X111819Y5533D01*
X111718Y5330D01*
X111819Y5127D01*
X111616Y5228D01*
X111413Y5127D01*
X37797Y6010D02*
X37898Y6214D01*
X37797Y6417D01*
X38000Y6315D01*
X38203Y6417D01*
X38102Y6214D01*
X38203Y6010D01*
X38000Y6112D01*
X37797Y6010D01*
X36913Y6894D02*
X37015Y7097D01*
X36913Y7301D01*
X37116Y7199D01*
X37319Y7301D01*
X37218Y7097D01*
X37319Y6894D01*
X37116Y6996D01*
X36913Y6894D01*
X38681D02*
X38782Y7097D01*
X38681Y7301D01*
X38884Y7199D01*
X39087Y7301D01*
X38985Y7097D01*
X39087Y6894D01*
X38884Y6996D01*
X38681Y6894D01*
X38681Y5127D02*
X38782Y5330D01*
X38681Y5533D01*
X38884Y5431D01*
X39087Y5533D01*
X38985Y5330D01*
X39087Y5127D01*
X38884Y5228D01*
X38681Y5127D01*
X36913D02*
X37015Y5330D01*
X36913Y5533D01*
X37116Y5431D01*
X37319Y5533D01*
X37218Y5330D01*
X37319Y5127D01*
X37116Y5228D01*
X36913Y5127D01*
X37797Y13583D02*
X37898Y13786D01*
X37797Y13990D01*
X38000Y13888D01*
X38203Y13990D01*
X38102Y13786D01*
X38203Y13583D01*
X38000Y13685D01*
X37797Y13583D01*
X36913Y14467D02*
X37015Y14670D01*
X36913Y14873D01*
X37116Y14772D01*
X37319Y14873D01*
X37218Y14670D01*
X37319Y14467D01*
X37116Y14569D01*
X36913Y14467D01*
X38681D02*
X38782Y14670D01*
X38681Y14873D01*
X38884Y14772D01*
X39087Y14873D01*
X38985Y14670D01*
X39087Y14467D01*
X38884Y14569D01*
X38681Y14467D01*
X38681Y12699D02*
X38782Y12903D01*
X38681Y13106D01*
X38884Y13004D01*
X39087Y13106D01*
X38985Y12903D01*
X39087Y12699D01*
X38884Y12801D01*
X38681Y12699D01*
X36913D02*
X37015Y12903D01*
X36913Y13106D01*
X37116Y13004D01*
X37319Y13106D01*
X37218Y12903D01*
X37319Y12699D01*
X37116Y12801D01*
X36913Y12699D01*
X45542Y67539D02*
X45644Y67742D01*
X45542Y67945D01*
X45746Y67843D01*
X45949Y67945D01*
X45847Y67742D01*
X45949Y67539D01*
X45746Y67640D01*
X45542Y67539D01*
X44578D02*
X44680Y67742D01*
X44578Y67945D01*
X44781Y67843D01*
X44985Y67945D01*
X44883Y67742D01*
X44985Y67539D01*
X44781Y67640D01*
X44578Y67539D01*
X50347Y62053D02*
X50448Y62256D01*
X50347Y62459D01*
X50550Y62357D01*
X50753Y62459D01*
X50652Y62256D01*
X50753Y62053D01*
X50550Y62154D01*
X50347Y62053D01*
X100772Y62522D02*
X100873Y62726D01*
X100772Y62929D01*
X100975Y62827D01*
X101178Y62929D01*
X101077Y62726D01*
X101178Y62522D01*
X100975Y62624D01*
X100772Y62522D01*
X106772Y25972D02*
X106873Y26175D01*
X106772Y26378D01*
X106975Y26277D01*
X107178Y26378D01*
X107077Y26175D01*
X107178Y25972D01*
X106975Y26073D01*
X106772Y25972D01*
X40696Y25996D02*
X40797Y26199D01*
X40696Y26402D01*
X40899Y26300D01*
X41102Y26402D01*
X41000Y26199D01*
X41102Y25996D01*
X40899Y26097D01*
X40696Y25996D01*
X106822Y66497D02*
X106923Y66700D01*
X106822Y66903D01*
X107025Y66802D01*
X107228Y66903D01*
X107127Y66700D01*
X107228Y66497D01*
X107025Y66598D01*
X106822Y66497D01*
X67868Y64013D02*
X67969Y64216D01*
X67868Y64419D01*
X68071Y64318D01*
X68274Y64419D01*
X68173Y64216D01*
X68274Y64013D01*
X68071Y64114D01*
X67868Y64013D01*
X79022Y63872D02*
X79123Y64075D01*
X79022Y64278D01*
X79225Y64177D01*
X79428Y64278D01*
X79327Y64075D01*
X79428Y63872D01*
X79225Y63973D01*
X79022Y63872D01*
X65497Y65013D02*
X65598Y65217D01*
X65497Y65420D01*
X65700Y65318D01*
X65903Y65420D01*
X65801Y65217D01*
X65903Y65013D01*
X65700Y65115D01*
X65497Y65013D01*
X64268Y64997D02*
X64369Y65200D01*
X64268Y65403D01*
X64471Y65302D01*
X64674Y65403D01*
X64572Y65200D01*
X64674Y64997D01*
X64471Y65098D01*
X64268Y64997D01*
X67368Y61822D02*
X67469Y62025D01*
X67368Y62228D01*
X67571Y62127D01*
X67774Y62228D01*
X67673Y62025D01*
X67774Y61822D01*
X67571Y61923D01*
X67368Y61822D01*
X66793Y60422D02*
X66894Y60625D01*
X66793Y60828D01*
X66996Y60727D01*
X67199Y60828D01*
X67098Y60625D01*
X67199Y60422D01*
X66996Y60523D01*
X66793Y60422D01*
X64196Y53111D02*
X64298Y53315D01*
X64196Y53518D01*
X64399Y53416D01*
X64602Y53518D01*
X64501Y53315D01*
X64602Y53111D01*
X64399Y53213D01*
X64196Y53111D01*
X78372Y66447D02*
X78473Y66650D01*
X78372Y66853D01*
X78575Y66752D01*
X78778Y66853D01*
X78677Y66650D01*
X78778Y66447D01*
X78575Y66548D01*
X78372Y66447D01*
X77522D02*
X77623Y66650D01*
X77522Y66853D01*
X77725Y66752D01*
X77928Y66853D01*
X77827Y66650D01*
X77928Y66447D01*
X77725Y66548D01*
X77522Y66447D01*
X79772Y62447D02*
X79873Y62650D01*
X79772Y62853D01*
X79975Y62752D01*
X80178Y62853D01*
X80077Y62650D01*
X80178Y62447D01*
X79975Y62548D01*
X79772Y62447D01*
X101647Y67539D02*
X101748Y67742D01*
X101647Y67945D01*
X101850Y67843D01*
X102053Y67945D01*
X101952Y67742D01*
X102053Y67539D01*
X101850Y67640D01*
X101647Y67539D01*
X100772D02*
X100873Y67742D01*
X100772Y67945D01*
X100975Y67843D01*
X101178Y67945D01*
X101077Y67742D01*
X101178Y67539D01*
X100975Y67640D01*
X100772Y67539D01*
X107725Y66507D02*
X107827Y66710D01*
X107725Y66913D01*
X107929Y66812D01*
X108132Y66913D01*
X108030Y66710D01*
X108132Y66507D01*
X107929Y66608D01*
X107725Y66507D01*
X100772Y63397D02*
X100873Y63600D01*
X100772Y63803D01*
X100975Y63702D01*
X101178Y63803D01*
X101077Y63600D01*
X101178Y63397D01*
X100975Y63498D01*
X100772Y63397D01*
X50347Y62847D02*
X50448Y63050D01*
X50347Y63253D01*
X50550Y63152D01*
X50753Y63253D01*
X50652Y63050D01*
X50753Y62847D01*
X50550Y62948D01*
X50347Y62847D01*
X41736Y63944D02*
X41837Y64147D01*
X41736Y64351D01*
X41939Y64249D01*
X42142Y64351D01*
X42040Y64147D01*
X42142Y63944D01*
X41939Y64046D01*
X41736Y63944D01*
X105373Y59945D02*
X105475Y60148D01*
X105373Y60352D01*
X105577Y60250D01*
X105780Y60352D01*
X105678Y60148D01*
X105780Y59945D01*
X105577Y60047D01*
X105373Y59945D01*
X111513Y66507D02*
X111614Y66710D01*
X111513Y66913D01*
X111716Y66812D01*
X111919Y66913D01*
X111817Y66710D01*
X111919Y66507D01*
X111716Y66608D01*
X111513Y66507D01*
X111535Y71587D02*
X111637Y71790D01*
X111535Y71993D01*
X111739Y71892D01*
X111942Y71993D01*
X111840Y71790D01*
X111942Y71587D01*
X111739Y71688D01*
X111535Y71587D01*
X111527Y69047D02*
X111629Y69250D01*
X111527Y69453D01*
X111730Y69352D01*
X111933Y69453D01*
X111832Y69250D01*
X111933Y69047D01*
X111730Y69148D01*
X111527Y69047D01*
X106797Y60472D02*
X106898Y60675D01*
X106797Y60878D01*
X107000Y60777D01*
X107203Y60878D01*
X107102Y60675D01*
X107203Y60472D01*
X107000Y60573D01*
X106797Y60472D01*
X105547Y62147D02*
X105648Y62350D01*
X105547Y62553D01*
X105750Y62452D01*
X105953Y62553D01*
X105852Y62350D01*
X105953Y62147D01*
X105750Y62248D01*
X105547Y62147D01*
X107713Y31067D02*
X107814Y31270D01*
X107713Y31473D01*
X107916Y31372D01*
X108119Y31473D01*
X108018Y31270D01*
X108119Y31067D01*
X107916Y31168D01*
X107713Y31067D01*
X107703Y33607D02*
X107805Y33810D01*
X107703Y34013D01*
X107907Y33912D01*
X108110Y34013D01*
X108008Y33810D01*
X108110Y33607D01*
X107907Y33708D01*
X107703Y33607D01*
X39816Y28527D02*
X39918Y28730D01*
X39816Y28933D01*
X40020Y28832D01*
X40223Y28933D01*
X40121Y28730D01*
X40223Y28527D01*
X40020Y28628D01*
X39816Y28527D01*
X107725Y25987D02*
X107827Y26190D01*
X107725Y26393D01*
X107929Y26292D01*
X108132Y26393D01*
X108030Y26190D01*
X108132Y25987D01*
X107929Y26088D01*
X107725Y25987D01*
X111563Y33607D02*
X111665Y33810D01*
X111563Y34013D01*
X111766Y33912D01*
X111970Y34013D01*
X111868Y33810D01*
X111970Y33607D01*
X111766Y33708D01*
X111563Y33607D01*
X114327Y66507D02*
X114428Y66710D01*
X114327Y66913D01*
X114530Y66812D01*
X114733Y66913D01*
X114631Y66710D01*
X114733Y66507D01*
X114530Y66608D01*
X114327Y66507D01*
Y69047D02*
X114428Y69250D01*
X114327Y69453D01*
X114530Y69352D01*
X114733Y69453D01*
X114631Y69250D01*
X114733Y69047D01*
X114530Y69148D01*
X114327Y69047D01*
X107728D02*
X107830Y69250D01*
X107728Y69453D01*
X107931Y69352D01*
X108134Y69453D01*
X108033Y69250D01*
X108134Y69047D01*
X107931Y69148D01*
X107728Y69047D01*
X43072Y60157D02*
X43174Y60361D01*
X43072Y60564D01*
X43275Y60462D01*
X43479Y60564D01*
X43377Y60361D01*
X43479Y60157D01*
X43275Y60259D01*
X43072Y60157D01*
X42422Y61906D02*
X42523Y62109D01*
X42422Y62312D01*
X42625Y62211D01*
X42828Y62312D01*
X42727Y62109D01*
X42828Y61906D01*
X42625Y62007D01*
X42422Y61906D01*
X114314Y25987D02*
X114415Y26190D01*
X114314Y26393D01*
X114517Y26292D01*
X114720Y26393D01*
X114619Y26190D01*
X114720Y25987D01*
X114517Y26088D01*
X114314Y25987D01*
Y28527D02*
X114415Y28730D01*
X114314Y28933D01*
X114517Y28832D01*
X114720Y28933D01*
X114619Y28730D01*
X114720Y28527D01*
X114517Y28628D01*
X114314Y28527D01*
X39832Y71067D02*
X39933Y71270D01*
X39832Y71473D01*
X40035Y71372D01*
X40238Y71473D01*
X40136Y71270D01*
X40238Y71067D01*
X40035Y71168D01*
X39832Y71067D01*
X32807Y68527D02*
X32908Y68730D01*
X32807Y68933D01*
X33010Y68832D01*
X33213Y68933D01*
X33112Y68730D01*
X33213Y68527D01*
X33010Y68628D01*
X32807Y68527D01*
Y65987D02*
X32908Y66190D01*
X32807Y66393D01*
X33010Y66292D01*
X33213Y66393D01*
X33112Y66190D01*
X33213Y65987D01*
X33010Y66088D01*
X32807Y65987D01*
X39841Y33607D02*
X39943Y33810D01*
X39841Y34013D01*
X40044Y33912D01*
X40248Y34013D01*
X40146Y33810D01*
X40248Y33607D01*
X40044Y33708D01*
X39841Y33607D01*
X35981D02*
X36083Y33810D01*
X35981Y34013D01*
X36184Y33912D01*
X36388Y34013D01*
X36286Y33810D01*
X36388Y33607D01*
X36184Y33708D01*
X35981Y33607D01*
X36032Y65987D02*
X36133Y66190D01*
X36032Y66393D01*
X36235Y66292D01*
X36438Y66393D01*
X36337Y66190D01*
X36438Y65987D01*
X36235Y66088D01*
X36032Y65987D01*
X107728Y28527D02*
X107830Y28730D01*
X107728Y28933D01*
X107931Y28832D01*
X108134Y28933D01*
X108033Y28730D01*
X108134Y28527D01*
X107931Y28628D01*
X107728Y28527D01*
X111513Y25987D02*
X111614Y26190D01*
X111513Y26393D01*
X111716Y26292D01*
X111919Y26393D01*
X111817Y26190D01*
X111919Y25987D01*
X111716Y26088D01*
X111513Y25987D01*
X111535Y31067D02*
X111637Y31270D01*
X111535Y31473D01*
X111739Y31372D01*
X111942Y31473D01*
X111840Y31270D01*
X111942Y31067D01*
X111739Y31168D01*
X111535Y31067D01*
X111527Y28527D02*
X111629Y28730D01*
X111527Y28933D01*
X111730Y28832D01*
X111933Y28933D01*
X111832Y28730D01*
X111933Y28527D01*
X111730Y28628D01*
X111527Y28527D01*
X107713Y71587D02*
X107814Y71790D01*
X107713Y71993D01*
X107916Y71892D01*
X108119Y71993D01*
X108018Y71790D01*
X108119Y71587D01*
X107916Y71688D01*
X107713Y71587D01*
X111563Y74127D02*
X111665Y74330D01*
X111563Y74533D01*
X111766Y74432D01*
X111970Y74533D01*
X111868Y74330D01*
X111970Y74127D01*
X111766Y74228D01*
X111563Y74127D01*
X39816Y68527D02*
X39918Y68730D01*
X39816Y68933D01*
X40020Y68832D01*
X40223Y68933D01*
X40121Y68730D01*
X40223Y68527D01*
X40020Y68628D01*
X39816Y68527D01*
X35981Y73607D02*
X36083Y73810D01*
X35981Y74013D01*
X36184Y73912D01*
X36388Y74013D01*
X36286Y73810D01*
X36388Y73607D01*
X36184Y73708D01*
X35981Y73607D01*
X36009Y71067D02*
X36111Y71270D01*
X36009Y71473D01*
X36212Y71372D01*
X36415Y71473D01*
X36314Y71270D01*
X36415Y71067D01*
X36212Y71168D01*
X36009Y71067D01*
X36017Y68527D02*
X36119Y68730D01*
X36017Y68933D01*
X36221Y68832D01*
X36424Y68933D01*
X36322Y68730D01*
X36424Y68527D01*
X36221Y68628D01*
X36017Y68527D01*
X32807Y28527D02*
X32908Y28730D01*
X32807Y28933D01*
X33010Y28832D01*
X33213Y28933D01*
X33112Y28730D01*
X33213Y28527D01*
X33010Y28628D01*
X32807Y28527D01*
Y25987D02*
X32908Y26190D01*
X32807Y26393D01*
X33010Y26292D01*
X33213Y26393D01*
X33112Y26190D01*
X33213Y25987D01*
X33010Y26088D01*
X32807Y25987D01*
X36017Y28527D02*
X36119Y28730D01*
X36017Y28933D01*
X36221Y28832D01*
X36424Y28933D01*
X36322Y28730D01*
X36424Y28527D01*
X36221Y28628D01*
X36017Y28527D01*
X36009Y31067D02*
X36111Y31270D01*
X36009Y31473D01*
X36212Y31372D01*
X36415Y31473D01*
X36314Y31270D01*
X36415Y31067D01*
X36212Y31168D01*
X36009Y31067D01*
X36032Y25987D02*
X36133Y26190D01*
X36032Y26393D01*
X36235Y26292D01*
X36438Y26393D01*
X36337Y26190D01*
X36438Y25987D01*
X36235Y26088D01*
X36032Y25987D01*
X39832Y31067D02*
X39933Y31270D01*
X39832Y31473D01*
X40035Y31372D01*
X40238Y31473D01*
X40136Y31270D01*
X40238Y31067D01*
X40035Y31168D01*
X39832Y31067D01*
X39819Y25987D02*
X39921Y26190D01*
X39819Y26393D01*
X40022Y26292D01*
X40225Y26393D01*
X40124Y26190D01*
X40225Y25987D01*
X40022Y26088D01*
X39819Y25987D01*
X102943Y18297D02*
X103045Y18500D01*
X102943Y18703D01*
X103147Y18602D01*
X103350Y18703D01*
X103248Y18500D01*
X103350Y18297D01*
X103147Y18398D01*
X102943Y18297D01*
X98510D02*
X98612Y18500D01*
X98510Y18703D01*
X98713Y18602D01*
X98916Y18703D01*
X98815Y18500D01*
X98916Y18297D01*
X98713Y18398D01*
X98510Y18297D01*
M02*
