G04*
G04 #@! TF.GenerationSoftware,Altium Limited,Altium Designer,23.0.1 (38)*
G04*
G04 Layer_Physical_Order=1*
G04 Layer_Color=255*
%FSLAX43Y43*%
%MOMM*%
G71*
G04*
G04 #@! TF.SameCoordinates,FAF874D6-A3D7-43DF-AC77-E53A54121317*
G04*
G04*
G04 #@! TF.FilePolarity,Positive*
G04*
G01*
G75*
%ADD11C,0.200*%
%ADD15C,0.200*%
%ADD16R,3.700X1.500*%
%ADD17R,0.500X0.500*%
%ADD18R,0.900X0.900*%
%ADD19R,0.900X0.900*%
%ADD20R,0.500X0.500*%
%ADD21R,1.400X0.950*%
%ADD22R,1.000X2.000*%
%ADD23R,0.650X2.000*%
%ADD24P,0.707X4X90.0*%
%ADD25P,1.697X4X270.0*%
G04:AMPARAMS|DCode=26|XSize=1.6mm|YSize=1.5mm|CornerRadius=0mm|HoleSize=0mm|Usage=FLASHONLY|Rotation=225.000|XOffset=0mm|YOffset=0mm|HoleType=Round|Shape=Rectangle|*
%AMROTATEDRECTD26*
4,1,4,0.035,1.096,1.096,0.035,-0.035,-1.096,-1.096,-0.035,0.035,1.096,0.0*
%
%ADD26ROTATEDRECTD26*%

%ADD27R,1.450X2.700*%
%ADD28R,0.800X0.900*%
%ADD29R,1.050X2.200*%
%ADD30R,1.000X1.000*%
%ADD31R,1.250X3.250*%
%ADD32R,2.000X1.000*%
%ADD33R,2.000X0.650*%
G04:AMPARAMS|DCode=34|XSize=1mm|YSize=2.5mm|CornerRadius=0.25mm|HoleSize=0mm|Usage=FLASHONLY|Rotation=90.000|XOffset=0mm|YOffset=0mm|HoleType=Round|Shape=RoundedRectangle|*
%AMROUNDEDRECTD34*
21,1,1.000,2.000,0,0,90.0*
21,1,0.500,2.500,0,0,90.0*
1,1,0.500,1.000,0.250*
1,1,0.500,1.000,-0.250*
1,1,0.500,-1.000,-0.250*
1,1,0.500,-1.000,0.250*
%
%ADD34ROUNDEDRECTD34*%
%ADD35R,0.900X0.600*%
G04:AMPARAMS|DCode=36|XSize=1mm|YSize=2mm|CornerRadius=0.25mm|HoleSize=0mm|Usage=FLASHONLY|Rotation=90.000|XOffset=0mm|YOffset=0mm|HoleType=Round|Shape=RoundedRectangle|*
%AMROUNDEDRECTD36*
21,1,1.000,1.500,0,0,90.0*
21,1,0.500,2.000,0,0,90.0*
1,1,0.500,0.750,0.250*
1,1,0.500,0.750,-0.250*
1,1,0.500,-0.750,-0.250*
1,1,0.500,-0.750,0.250*
%
%ADD36ROUNDEDRECTD36*%
%ADD37R,2.200X1.050*%
%ADD38R,1.000X1.000*%
%ADD42C,1.100*%
%ADD66C,0.293*%
%ADD67C,0.500*%
%ADD68C,0.293*%
%ADD69C,1.000*%
%ADD70R,5.080X4.000*%
%ADD71R,8.382X2.286*%
%ADD72C,1.000*%
%ADD73C,0.300*%
%ADD74C,0.450*%
G36*
X58565Y77814D02*
X58571Y77812D01*
X58580Y77811D01*
X58591Y77809D01*
X58620Y77807D01*
X58710Y77805D01*
Y77505D01*
X58684Y77505D01*
X58571Y77498D01*
X58565Y77496D01*
X58562Y77494D01*
Y77816D01*
X58565Y77814D01*
D02*
G37*
G36*
X58233Y77494D02*
X58230Y77496D01*
X58224Y77498D01*
X58216Y77500D01*
X58205Y77501D01*
X58175Y77504D01*
X58085Y77505D01*
Y77805D01*
X58112Y77805D01*
X58224Y77812D01*
X58230Y77814D01*
X58233Y77816D01*
Y77494D01*
D02*
G37*
G36*
X63951Y76984D02*
X63957Y76982D01*
X63966Y76980D01*
X63977Y76979D01*
X64006Y76977D01*
X64096Y76975D01*
Y76675D01*
X64070Y76675D01*
X63957Y76668D01*
X63951Y76666D01*
X63948Y76664D01*
X63784Y76825D01*
X63948Y76986D01*
X63951Y76984D01*
D02*
G37*
G36*
X63784Y76825D02*
X63619Y76664D01*
X63616Y76666D01*
X63610Y76668D01*
X63497Y76675D01*
X63471Y76675D01*
Y76975D01*
X63561Y76977D01*
X63590Y76979D01*
X63601Y76980D01*
X63610Y76982D01*
X63616Y76984D01*
X63619Y76986D01*
X63784Y76825D01*
D02*
G37*
G36*
X80447Y75900D02*
X80390Y75897D01*
X80339Y75888D01*
X80294Y75873D01*
X80255Y75852D01*
X80222Y75825D01*
X80195Y75792D01*
X80174Y75753D01*
X80159Y75708D01*
X80150Y75657D01*
X80147Y75600D01*
X79847D01*
X79844Y75657D01*
X79835Y75708D01*
X79820Y75753D01*
X79799Y75792D01*
X79772Y75825D01*
X79739Y75852D01*
X79700Y75873D01*
X79655Y75888D01*
X79604Y75897D01*
X79547Y75900D01*
X79997Y76200D01*
X80447Y75900D01*
D02*
G37*
G36*
X58534Y75224D02*
X58532Y75218D01*
X58530Y75210D01*
X58529Y75199D01*
X58527Y75169D01*
X58525Y75080D01*
X58225D01*
X58225Y75106D01*
X58218Y75218D01*
X58216Y75224D01*
X58214Y75228D01*
X58536D01*
X58534Y75224D01*
D02*
G37*
G36*
X63944Y75170D02*
X63942Y75167D01*
X63940Y75161D01*
X63938Y75152D01*
X63937Y75141D01*
X63934Y75111D01*
X63932Y75022D01*
X63632Y75024D01*
X63632Y75050D01*
X63626Y75162D01*
X63624Y75168D01*
X63622Y75172D01*
X63944Y75170D01*
D02*
G37*
G36*
X112111Y74031D02*
X112108Y74059D01*
X112099Y74084D01*
X112083Y74107D01*
X112061Y74126D01*
X112033Y74143D01*
X111998Y74156D01*
X111958Y74167D01*
X111933Y74170D01*
X111931Y74169D01*
Y74171D01*
X111911Y74174D01*
X111858Y74179D01*
X111798Y74180D01*
Y74480D01*
X111858Y74481D01*
X111911Y74486D01*
X111931Y74489D01*
Y74491D01*
X111933Y74490D01*
X111958Y74493D01*
X111998Y74504D01*
X112033Y74517D01*
X112061Y74534D01*
X112083Y74553D01*
X112099Y74576D01*
X112108Y74601D01*
X112111Y74629D01*
Y74031D01*
D02*
G37*
G36*
X111670Y74638D02*
X111755Y74564D01*
X111760Y74561D01*
X111764Y74560D01*
X111536Y74332D01*
X111536Y74336D01*
X111533Y74342D01*
X111528Y74349D01*
X111521Y74358D01*
X111502Y74380D01*
X111440Y74445D01*
X111652Y74657D01*
X111670Y74638D01*
D02*
G37*
G36*
X108613Y74031D02*
X108610Y74059D01*
X108600Y74084D01*
X108585Y74107D01*
X108563Y74126D01*
X108535Y74143D01*
X108500Y74156D01*
X108459Y74167D01*
X108412Y74174D01*
X108359Y74179D01*
X108300Y74180D01*
Y74480D01*
X108359Y74481D01*
X108412Y74486D01*
X108459Y74493D01*
X108500Y74504D01*
X108535Y74517D01*
X108563Y74534D01*
X108585Y74553D01*
X108600Y74576D01*
X108610Y74601D01*
X108613Y74629D01*
Y74031D01*
D02*
G37*
G36*
X36334Y74096D02*
X36341Y73984D01*
X36343Y73978D01*
X36345Y73974D01*
X36026D01*
X36036Y73972D01*
X36080Y73965D01*
X36129Y73961D01*
X36184Y73960D01*
Y73660D01*
X36129Y73659D01*
X36080Y73655D01*
X36036Y73648D01*
X35998Y73639D01*
X35966Y73627D01*
X35940Y73613D01*
X35919Y73596D01*
X35905Y73576D01*
X35896Y73554D01*
X35893Y73529D01*
Y73660D01*
X35872Y73660D01*
Y73960D01*
X35893Y73960D01*
Y74091D01*
X35896Y74066D01*
X35905Y74044D01*
X35919Y74024D01*
X35940Y74007D01*
X35966Y73993D01*
X35998Y73981D01*
X36024Y73975D01*
X36025Y73978D01*
X36027Y73984D01*
X36029Y73992D01*
X36030Y74003D01*
X36033Y74033D01*
X36034Y74122D01*
X36334D01*
X36334Y74096D01*
D02*
G37*
G36*
X40469Y74022D02*
X40430Y73980D01*
X40401Y73937D01*
X40379Y73895D01*
X40367Y73852D01*
X40362Y73810D01*
X40367Y73768D01*
X40379Y73725D01*
X40401Y73683D01*
X40430Y73640D01*
X40469Y73598D01*
X40194Y73448D01*
X40151Y73488D01*
X40106Y73524D01*
X40059Y73556D01*
X40011Y73584D01*
X39960Y73607D01*
X39908Y73626D01*
X39854Y73641D01*
X39799Y73652D01*
X39783Y73653D01*
X39741Y73647D01*
X39701Y73636D01*
X39666Y73623D01*
X39638Y73606D01*
X39616Y73587D01*
X39601Y73564D01*
X39591Y73539D01*
X39588Y73511D01*
Y74109D01*
X39591Y74081D01*
X39601Y74056D01*
X39616Y74033D01*
X39638Y74014D01*
X39666Y73997D01*
X39701Y73984D01*
X39741Y73973D01*
X39783Y73967D01*
X39799Y73968D01*
X39854Y73979D01*
X39908Y73994D01*
X39960Y74013D01*
X40011Y74036D01*
X40059Y74064D01*
X40106Y74096D01*
X40151Y74132D01*
X40194Y74172D01*
X40469Y74022D01*
D02*
G37*
G36*
X110472Y73880D02*
X110447Y73867D01*
X110424Y73848D01*
X110405Y73822D01*
X110389Y73790D01*
X110375Y73751D01*
X110365Y73705D01*
X110358Y73653D01*
X110353Y73594D01*
X110352Y73528D01*
X110052D01*
X110050Y73588D01*
X110046Y73642D01*
X110038Y73689D01*
X110028Y73729D01*
X110014Y73762D01*
X109998Y73789D01*
X109978Y73810D01*
X109956Y73824D01*
X109930Y73831D01*
X109902Y73831D01*
X110500Y73886D01*
X110472Y73880D01*
D02*
G37*
G36*
X58527Y73501D02*
X58531Y73452D01*
X58539Y73407D01*
X58549Y73365D01*
X58562Y73325D01*
X58579Y73289D01*
X58598Y73256D01*
X58621Y73226D01*
X58646Y73199D01*
X58675Y73175D01*
X58075D01*
X58104Y73199D01*
X58129Y73226D01*
X58152Y73256D01*
X58171Y73289D01*
X58188Y73325D01*
X58201Y73365D01*
X58211Y73407D01*
X58219Y73452D01*
X58223Y73501D01*
X58225Y73552D01*
X58525D01*
X58527Y73501D01*
D02*
G37*
G36*
X63932Y73552D02*
X63934Y73500D01*
X63938Y73452D01*
X63946Y73407D01*
X63956Y73364D01*
X63970Y73325D01*
X63986Y73289D01*
X64006Y73256D01*
X64028Y73226D01*
X64054Y73198D01*
X64082Y73174D01*
X63482Y73176D01*
X63511Y73200D01*
X63536Y73227D01*
X63559Y73257D01*
X63578Y73290D01*
X63595Y73326D01*
X63608Y73365D01*
X63619Y73407D01*
X63626Y73453D01*
X63631Y73501D01*
X63632Y73552D01*
X63932Y73552D01*
D02*
G37*
G36*
X80149Y73501D02*
X80153Y73453D01*
X80161Y73408D01*
X80171Y73366D01*
X80185Y73326D01*
X80202Y73290D01*
X80221Y73257D01*
X80244Y73227D01*
X80269Y73200D01*
X80298Y73177D01*
X79698Y73173D01*
X79726Y73198D01*
X79752Y73225D01*
X79774Y73255D01*
X79794Y73288D01*
X79810Y73325D01*
X79823Y73364D01*
X79834Y73406D01*
X79841Y73451D01*
X79846Y73500D01*
X79847Y73551D01*
X80147Y73553D01*
X80149Y73501D01*
D02*
G37*
G36*
X80148Y73061D02*
X80154Y72949D01*
X80156Y72943D01*
X80158Y72939D01*
X79836D01*
X79838Y72943D01*
X79840Y72949D01*
X79842Y72957D01*
X79843Y72968D01*
X79846Y72998D01*
X79847Y73087D01*
X80147D01*
X80148Y73061D01*
D02*
G37*
G36*
X58525D02*
X58532Y72949D01*
X58534Y72943D01*
X58536Y72939D01*
X58214D01*
X58216Y72943D01*
X58218Y72949D01*
X58220Y72957D01*
X58221Y72968D01*
X58223Y72998D01*
X58225Y73087D01*
X58525D01*
X58525Y73061D01*
D02*
G37*
G36*
X63932Y73086D02*
X63933Y73060D01*
X63939Y72948D01*
X63941Y72942D01*
X63943Y72938D01*
X63621Y72940D01*
X63623Y72944D01*
X63625Y72950D01*
X63627Y72958D01*
X63628Y72969D01*
X63631Y72999D01*
X63632Y73088D01*
X63932Y73086D01*
D02*
G37*
G36*
X112111Y71491D02*
X112108Y71519D01*
X112099Y71544D01*
X112083Y71567D01*
X112061Y71586D01*
X112033Y71603D01*
X111998Y71616D01*
X111958Y71627D01*
X111916Y71633D01*
X111912Y71633D01*
X111906Y71631D01*
X111903Y71629D01*
Y71635D01*
X111858Y71639D01*
X111798Y71640D01*
Y71940D01*
X111858Y71941D01*
X111903Y71945D01*
Y71951D01*
X111906Y71949D01*
X111912Y71947D01*
X111915Y71947D01*
X111958Y71953D01*
X111998Y71964D01*
X112033Y71977D01*
X112061Y71994D01*
X112083Y72013D01*
X112099Y72036D01*
X112108Y72061D01*
X112111Y72089D01*
Y71491D01*
D02*
G37*
G36*
X108084Y71949D02*
X108090Y71947D01*
X108098Y71945D01*
X108109Y71944D01*
X108139Y71942D01*
X108228Y71940D01*
Y71640D01*
X108202Y71640D01*
X108090Y71633D01*
X108084Y71631D01*
X108080Y71629D01*
Y71951D01*
X108084Y71949D01*
D02*
G37*
G36*
X114092Y72061D02*
X114101Y72036D01*
X114117Y72013D01*
X114139Y71994D01*
X114167Y71977D01*
X114202Y71964D01*
X114242Y71953D01*
X114289Y71946D01*
X114342Y71941D01*
X114402Y71940D01*
Y71640D01*
X114342Y71639D01*
X114289Y71634D01*
X114242Y71627D01*
X114202Y71616D01*
X114167Y71603D01*
X114139Y71586D01*
X114117Y71567D01*
X114101Y71544D01*
X114092Y71519D01*
X114089Y71491D01*
Y72089D01*
X114092Y72061D01*
D02*
G37*
G36*
X108613Y71491D02*
X108610Y71519D01*
X108600Y71544D01*
X108585Y71567D01*
X108563Y71586D01*
X108535Y71603D01*
X108500Y71616D01*
X108459Y71627D01*
X108412Y71634D01*
X108359Y71639D01*
X108300Y71640D01*
Y71940D01*
X108359Y71941D01*
X108412Y71946D01*
X108459Y71953D01*
X108500Y71964D01*
X108535Y71977D01*
X108563Y71994D01*
X108585Y72013D01*
X108600Y72036D01*
X108610Y72061D01*
X108613Y72089D01*
Y71491D01*
D02*
G37*
G36*
X107914Y71560D02*
X107910Y71559D01*
X107904Y71556D01*
X107897Y71551D01*
X107888Y71545D01*
X107866Y71525D01*
X107801Y71463D01*
X107589Y71675D01*
X107608Y71694D01*
X107682Y71778D01*
X107685Y71784D01*
X107686Y71788D01*
X107914Y71560D01*
D02*
G37*
G36*
X39591Y71541D02*
X39601Y71516D01*
X39616Y71493D01*
X39638Y71474D01*
X39666Y71457D01*
X39701Y71444D01*
X39741Y71433D01*
X39788Y71426D01*
X39812Y71424D01*
X39861Y71427D01*
X39867Y71429D01*
X39871Y71431D01*
Y71421D01*
X39901Y71420D01*
Y71120D01*
X39871Y71119D01*
Y71109D01*
X39867Y71111D01*
X39861Y71113D01*
X39853Y71115D01*
X39842Y71116D01*
X39826Y71117D01*
X39788Y71114D01*
X39741Y71107D01*
X39701Y71096D01*
X39666Y71083D01*
X39638Y71066D01*
X39616Y71047D01*
X39601Y71024D01*
X39591Y70999D01*
X39588Y70971D01*
Y71569D01*
X39591Y71541D01*
D02*
G37*
G36*
X35893D02*
X35902Y71516D01*
X35918Y71493D01*
X35940Y71474D01*
X35968Y71457D01*
X36002Y71444D01*
X36043Y71433D01*
X36090Y71426D01*
X36143Y71421D01*
X36203Y71420D01*
Y71120D01*
X36143Y71119D01*
X36090Y71114D01*
X36043Y71107D01*
X36002Y71096D01*
X35968Y71083D01*
X35940Y71066D01*
X35918Y71047D01*
X35902Y71024D01*
X35893Y70999D01*
X35890Y70971D01*
Y71569D01*
X35893Y71541D01*
D02*
G37*
G36*
X33412Y70971D02*
X33409Y70999D01*
X33399Y71024D01*
X33384Y71047D01*
X33362Y71066D01*
X33334Y71083D01*
X33299Y71096D01*
X33259Y71107D01*
X33212Y71114D01*
X33158Y71119D01*
X33099Y71120D01*
Y71420D01*
X33158Y71421D01*
X33212Y71426D01*
X33259Y71433D01*
X33299Y71444D01*
X33334Y71457D01*
X33362Y71474D01*
X33384Y71493D01*
X33399Y71516D01*
X33409Y71541D01*
X33412Y71569D01*
Y70971D01*
D02*
G37*
G36*
X40266Y71264D02*
X40269Y71258D01*
X40273Y71251D01*
X40280Y71242D01*
X40300Y71220D01*
X40362Y71155D01*
X40150Y70943D01*
X40131Y70962D01*
X40047Y71036D01*
X40041Y71039D01*
X40037Y71040D01*
X40265Y71268D01*
X40266Y71264D01*
D02*
G37*
G36*
X108099Y69409D02*
X108105Y69407D01*
X108113Y69405D01*
X108124Y69404D01*
X108154Y69402D01*
X108244Y69400D01*
Y69100D01*
X108217Y69100D01*
X108105Y69093D01*
X108099Y69091D01*
X108096Y69089D01*
Y69411D01*
X108099Y69409D01*
D02*
G37*
G36*
X108613Y68951D02*
X108610Y68979D01*
X108600Y69004D01*
X108585Y69027D01*
X108563Y69046D01*
X108535Y69063D01*
X108500Y69076D01*
X108459Y69087D01*
X108412Y69094D01*
X108359Y69099D01*
X108300Y69100D01*
Y69400D01*
X108359Y69401D01*
X108412Y69406D01*
X108459Y69413D01*
X108500Y69424D01*
X108535Y69437D01*
X108563Y69454D01*
X108585Y69473D01*
X108600Y69496D01*
X108610Y69521D01*
X108613Y69549D01*
Y68951D01*
D02*
G37*
G36*
X107929Y69020D02*
X107925Y69019D01*
X107920Y69016D01*
X107912Y69011D01*
X107904Y69005D01*
X107881Y68985D01*
X107816Y68923D01*
X107604Y69135D01*
X107623Y69154D01*
X107697Y69238D01*
X107700Y69244D01*
X107701Y69248D01*
X107929Y69020D01*
D02*
G37*
G36*
X112134Y68884D02*
X112130Y68906D01*
X112118Y68926D01*
X112098Y68943D01*
X112070Y68958D01*
X112033Y68971D01*
X111989Y68981D01*
X111936Y68990D01*
X111876Y68995D01*
X111730Y69000D01*
Y69500D01*
X111807Y69501D01*
X111936Y69510D01*
X111989Y69519D01*
X112033Y69529D01*
X112070Y69542D01*
X112098Y69557D01*
X112118Y69575D01*
X112130Y69594D01*
X112134Y69616D01*
Y68884D01*
D02*
G37*
G36*
X114054Y69644D02*
X114086Y69614D01*
X114123Y69587D01*
X114165Y69564D01*
X114213Y69545D01*
X114266Y69528D01*
X114324Y69516D01*
X114387Y69507D01*
X114456Y69502D01*
X114530Y69500D01*
Y69000D01*
X114456Y68998D01*
X114387Y68993D01*
X114324Y68984D01*
X114266Y68972D01*
X114213Y68955D01*
X114165Y68936D01*
X114123Y68913D01*
X114086Y68886D01*
X114054Y68856D01*
X114028Y68822D01*
Y69678D01*
X114054Y69644D01*
D02*
G37*
G36*
X39591Y69001D02*
X39601Y68976D01*
X39616Y68953D01*
X39638Y68934D01*
X39666Y68917D01*
X39701Y68904D01*
X39741Y68893D01*
X39788Y68886D01*
X39805Y68885D01*
X39846Y68887D01*
X39852Y68889D01*
X39855Y68891D01*
Y68881D01*
X39901Y68880D01*
Y68580D01*
X39855Y68579D01*
Y68569D01*
X39852Y68571D01*
X39846Y68573D01*
X39837Y68575D01*
X39826Y68576D01*
X39819Y68577D01*
X39788Y68574D01*
X39741Y68567D01*
X39701Y68556D01*
X39666Y68543D01*
X39638Y68526D01*
X39616Y68507D01*
X39601Y68484D01*
X39591Y68459D01*
X39588Y68431D01*
Y69029D01*
X39591Y69001D01*
D02*
G37*
G36*
X35889Y69035D02*
X35899Y69023D01*
X35916Y69013D01*
X35940Y69004D01*
X35970Y68997D01*
X36007Y68991D01*
X36050Y68986D01*
X36157Y68981D01*
X36221Y68980D01*
Y68480D01*
X36157Y68479D01*
X36007Y68469D01*
X35970Y68463D01*
X35940Y68456D01*
X35916Y68447D01*
X35899Y68437D01*
X35889Y68425D01*
X35886Y68412D01*
Y69048D01*
X35889Y69035D01*
D02*
G37*
G36*
X40250Y68724D02*
X40253Y68718D01*
X40258Y68711D01*
X40265Y68702D01*
X40284Y68680D01*
X40346Y68615D01*
X40134Y68403D01*
X40116Y68422D01*
X40031Y68496D01*
X40026Y68499D01*
X40022Y68500D01*
X40250Y68728D01*
X40250Y68724D01*
D02*
G37*
G36*
X33449Y68343D02*
X33445Y68369D01*
X33432Y68392D01*
X33410Y68413D01*
X33379Y68431D01*
X33339Y68446D01*
X33291Y68458D01*
X33234Y68468D01*
X33168Y68475D01*
X33010Y68480D01*
Y68980D01*
X33093Y68981D01*
X33234Y68992D01*
X33291Y69002D01*
X33339Y69014D01*
X33379Y69029D01*
X33410Y69047D01*
X33432Y69068D01*
X33445Y69091D01*
X33449Y69117D01*
Y68343D01*
D02*
G37*
G36*
X78825Y66596D02*
X78838Y66389D01*
X78842Y66375D01*
X78846Y66367D01*
X78851Y66364D01*
X78289Y66361D01*
X78296Y66364D01*
X78302Y66372D01*
X78307Y66387D01*
X78312Y66407D01*
X78316Y66433D01*
X78322Y66503D01*
X78325Y66650D01*
X78825D01*
X78825Y66596D01*
D02*
G37*
G36*
X77975Y66595D02*
X77988Y66407D01*
X77993Y66387D01*
X77998Y66372D01*
X78004Y66364D01*
X78011Y66361D01*
X77457Y66364D01*
X77461Y66367D01*
X77464Y66375D01*
X77466Y66389D01*
X77469Y66410D01*
X77473Y66504D01*
X77475Y66650D01*
X77975D01*
X77975Y66595D01*
D02*
G37*
G36*
X112144Y66329D02*
X112140Y66354D01*
X112127Y66376D01*
X112105Y66396D01*
X112075Y66413D01*
X112037Y66427D01*
X111990Y66439D01*
X111934Y66448D01*
X111870Y66455D01*
X111716Y66460D01*
Y66960D01*
X111797Y66961D01*
X111934Y66972D01*
X111990Y66981D01*
X112037Y66993D01*
X112075Y67007D01*
X112105Y67024D01*
X112127Y67044D01*
X112140Y67066D01*
X112144Y67091D01*
Y66329D01*
D02*
G37*
G36*
X114054Y67104D02*
X114086Y67074D01*
X114123Y67047D01*
X114165Y67024D01*
X114213Y67005D01*
X114266Y66988D01*
X114324Y66976D01*
X114387Y66967D01*
X114456Y66962D01*
X114530Y66960D01*
Y66460D01*
X114456Y66458D01*
X114387Y66453D01*
X114324Y66444D01*
X114266Y66432D01*
X114213Y66415D01*
X114165Y66396D01*
X114123Y66373D01*
X114086Y66346D01*
X114054Y66316D01*
X114028Y66282D01*
Y67138D01*
X114054Y67104D01*
D02*
G37*
G36*
X52050Y67242D02*
X51860Y67232D01*
X51690Y67202D01*
X51540Y67152D01*
X51410Y67082D01*
X51300Y66992D01*
X51210Y66882D01*
X51140Y66752D01*
X51090Y66602D01*
X51060Y66432D01*
X51050Y66242D01*
X50050D01*
X50040Y66432D01*
X50010Y66602D01*
X49960Y66752D01*
X49890Y66882D01*
X49800Y66992D01*
X49690Y67082D01*
X49560Y67152D01*
X49410Y67202D01*
X49240Y67232D01*
X49050Y67242D01*
X50550Y68242D01*
X52050Y67242D01*
D02*
G37*
G36*
X35887Y66506D02*
X35897Y66492D01*
X35915Y66480D01*
X35939Y66469D01*
X35971Y66460D01*
X36010Y66453D01*
X36056Y66447D01*
X36168Y66441D01*
X36235Y66440D01*
Y65940D01*
X36168Y65939D01*
X36010Y65927D01*
X35971Y65920D01*
X35939Y65911D01*
X35915Y65900D01*
X35897Y65888D01*
X35887Y65874D01*
X35883Y65858D01*
Y66522D01*
X35887Y66506D01*
D02*
G37*
G36*
X33449Y65803D02*
X33445Y65829D01*
X33432Y65852D01*
X33410Y65873D01*
X33379Y65891D01*
X33339Y65906D01*
X33291Y65918D01*
X33234Y65928D01*
X33168Y65935D01*
X33010Y65940D01*
Y66440D01*
X33093Y66441D01*
X33234Y66452D01*
X33291Y66462D01*
X33339Y66474D01*
X33379Y66489D01*
X33410Y66507D01*
X33432Y66528D01*
X33445Y66551D01*
X33449Y66577D01*
Y65803D01*
D02*
G37*
G36*
X76749Y66240D02*
X76714Y66225D01*
X76683Y66200D01*
X76657Y66165D01*
X76634Y66120D01*
X76616Y66065D01*
X76601Y66000D01*
X76591Y65925D01*
X76585Y65840D01*
X76583Y65745D01*
X76083D01*
X76081Y65840D01*
X76066Y66000D01*
X76053Y66065D01*
X76035Y66120D01*
X76015Y66165D01*
X75990Y66200D01*
X75962Y66225D01*
X75930Y66240D01*
X75894Y66245D01*
X76788D01*
X76749Y66240D01*
D02*
G37*
G36*
X68318Y65702D02*
X68333Y65660D01*
X68358Y65622D01*
X68393Y65590D01*
X68438Y65562D01*
X68493Y65540D01*
X68558Y65522D01*
X68633Y65510D01*
X68718Y65503D01*
X68813Y65500D01*
Y65498D01*
X69010Y65497D01*
Y64903D01*
X69005Y64921D01*
X68990Y64938D01*
X68965Y64952D01*
X68930Y64965D01*
X68885Y64976D01*
X68830Y64984D01*
X68765Y64991D01*
X68682Y64995D01*
X68558Y64985D01*
X68493Y64972D01*
X68438Y64957D01*
X68393Y64938D01*
X68358Y64916D01*
X68333Y64890D01*
X68318Y64861D01*
X68313Y64828D01*
Y65750D01*
X68318Y65702D01*
D02*
G37*
G36*
X42089Y64433D02*
X42096Y64321D01*
X42098Y64315D01*
X42100Y64312D01*
X41778D01*
X41780Y64315D01*
X41782Y64321D01*
X41783Y64329D01*
X41785Y64340D01*
X41787Y64370D01*
X41789Y64460D01*
X42089D01*
X42089Y64433D01*
D02*
G37*
G36*
X68313Y63922D02*
X67777Y63919D01*
X67784Y63922D01*
X67791Y63931D01*
X67797Y63945D01*
X67802Y63966D01*
X67806Y63992D01*
X67810Y64024D01*
X67815Y64155D01*
X67816Y64211D01*
X68316D01*
X68313Y63922D01*
D02*
G37*
G36*
X67421Y64160D02*
X67432Y63993D01*
X67437Y63967D01*
X67443Y63946D01*
X67449Y63931D01*
X67457Y63922D01*
X67465Y63919D01*
X66919Y63922D01*
X66919Y63925D01*
X66920Y63934D01*
X66921Y64216D01*
X67421D01*
X67421Y64160D01*
D02*
G37*
G36*
X76583Y65003D02*
X76584Y64918D01*
X76595Y64762D01*
X76605Y64692D01*
X76618Y64626D01*
X76633Y64566D01*
X76652Y64511D01*
X76673Y64461D01*
X76687Y64434D01*
X76716Y64419D01*
X76766Y64397D01*
X76822Y64378D01*
X76882Y64362D01*
X76947Y64348D01*
X77017Y64338D01*
X77173Y64326D01*
X77258Y64325D01*
Y63825D01*
X77173Y63824D01*
X77017Y63812D01*
X76947Y63802D01*
X76882Y63788D01*
X76822Y63772D01*
X76766Y63753D01*
X76716Y63731D01*
X76670Y63707D01*
X76630Y63679D01*
Y64378D01*
X75931Y64383D01*
X75960Y64424D01*
X75986Y64470D01*
X76008Y64521D01*
X76028Y64577D01*
X76045Y64637D01*
X76059Y64703D01*
X76069Y64773D01*
X76081Y64928D01*
X76083Y65012D01*
X76583Y65003D01*
D02*
G37*
G36*
X77878Y63502D02*
X77885Y63417D01*
X77897Y63342D01*
X77915Y63277D01*
X77938Y63222D01*
X77965Y63177D01*
X77997Y63142D01*
X78035Y63117D01*
X78077Y63102D01*
X78125Y63097D01*
X77353D01*
X77357Y63102D01*
X77361Y63117D01*
X77364Y63142D01*
X77370Y63222D01*
X77375Y63597D01*
X77875D01*
X77878Y63502D01*
D02*
G37*
G36*
X105900Y62636D02*
X105907Y62524D01*
X105909Y62518D01*
X105911Y62514D01*
X105589D01*
X105591Y62518D01*
X105593Y62524D01*
X105595Y62532D01*
X105596Y62543D01*
X105598Y62573D01*
X105600Y62662D01*
X105900D01*
X105900Y62636D01*
D02*
G37*
G36*
X79647Y62963D02*
X79657Y62950D01*
X79674Y62938D01*
X79697Y62928D01*
X79727Y62920D01*
X79763Y62912D01*
X79806Y62907D01*
X79912Y62901D01*
X79975Y62900D01*
Y62400D01*
X79912Y62399D01*
X79763Y62388D01*
X79727Y62380D01*
X79697Y62372D01*
X79674Y62362D01*
X79657Y62350D01*
X79647Y62337D01*
X79644Y62322D01*
Y62978D01*
X79647Y62963D01*
D02*
G37*
G36*
X42775Y62395D02*
X42782Y62283D01*
X42784Y62277D01*
X42786Y62273D01*
X42464D01*
X42466Y62277D01*
X42468Y62283D01*
X42470Y62291D01*
X42471Y62302D01*
X42473Y62332D01*
X42475Y62421D01*
X42775D01*
X42775Y62395D01*
D02*
G37*
G36*
X70380Y61646D02*
X70342Y61671D01*
X70299Y61693D01*
X70250Y61712D01*
X70196Y61729D01*
X70136Y61743D01*
X70071Y61754D01*
X69925Y61770D01*
X69844Y61774D01*
X69757Y61775D01*
X69728Y62275D01*
X69812Y62277D01*
X69966Y62290D01*
X70036Y62301D01*
X70101Y62316D01*
X70162Y62334D01*
X70219Y62355D01*
X70270Y62380D01*
X70318Y62407D01*
X70360Y62438D01*
X70380Y61646D01*
D02*
G37*
G36*
X69402Y61477D02*
X69418Y61317D01*
X69432Y61252D01*
X69449Y61197D01*
X69471Y61152D01*
X69497Y61117D01*
X69526Y61092D01*
X69560Y61077D01*
X69597Y61072D01*
X68703D01*
X68740Y61077D01*
X68774Y61092D01*
X68803Y61117D01*
X68829Y61152D01*
X68851Y61197D01*
X68868Y61252D01*
X68882Y61317D01*
X68892Y61392D01*
X68898Y61477D01*
X68900Y61572D01*
X69400D01*
X69402Y61477D01*
D02*
G37*
G36*
X107327Y60790D02*
X107308Y60771D01*
X107234Y60687D01*
X107231Y60681D01*
X107230Y60677D01*
X107002Y60905D01*
X107006Y60906D01*
X107012Y60909D01*
X107019Y60914D01*
X107028Y60920D01*
X107050Y60940D01*
X107115Y61002D01*
X107327Y60790D01*
D02*
G37*
G36*
X43426Y60647D02*
X43433Y60534D01*
X43434Y60528D01*
X43436Y60525D01*
X43114D01*
X43117Y60528D01*
X43118Y60534D01*
X43120Y60543D01*
X43122Y60554D01*
X43124Y60583D01*
X43125Y60673D01*
X43425D01*
X43426Y60647D01*
D02*
G37*
G36*
X67306Y60318D02*
X67303Y60329D01*
X67294Y60339D01*
X67278Y60347D01*
X67256Y60354D01*
X67229Y60361D01*
X67194Y60366D01*
X67108Y60373D01*
X66996Y60375D01*
Y60875D01*
X67055Y60876D01*
X67229Y60889D01*
X67256Y60896D01*
X67278Y60903D01*
X67294Y60911D01*
X67303Y60921D01*
X67306Y60932D01*
Y60318D01*
D02*
G37*
G36*
X105480Y60457D02*
X105565Y60382D01*
X105571Y60379D01*
X105574Y60378D01*
X105347Y60151D01*
X105346Y60154D01*
X105343Y60160D01*
X105338Y60167D01*
X105331Y60176D01*
X105312Y60199D01*
X105250Y60263D01*
X105462Y60475D01*
X105480Y60457D01*
D02*
G37*
G36*
X69497Y60175D02*
X69483Y60165D01*
X69470Y60148D01*
X69459Y60125D01*
X69450Y60094D01*
X69443Y60058D01*
X69437Y60014D01*
X69430Y59907D01*
X69429Y59844D01*
X68929D01*
X68928Y59907D01*
X68916Y60058D01*
X68908Y60094D01*
X68899Y60125D01*
X68888Y60148D01*
X68875Y60165D01*
X68861Y60175D01*
X68845Y60178D01*
X69513D01*
X69497Y60175D01*
D02*
G37*
G36*
X61185Y54301D02*
X61090Y54296D01*
X61005Y54281D01*
X60930Y54256D01*
X60865Y54221D01*
X60810Y54176D01*
X60765Y54121D01*
X60730Y54056D01*
X60705Y53981D01*
X60690Y53896D01*
X60685Y53801D01*
X60185D01*
X60180Y53896D01*
X60165Y53981D01*
X60140Y54056D01*
X60105Y54121D01*
X60060Y54176D01*
X60005Y54221D01*
X59940Y54256D01*
X59865Y54281D01*
X59780Y54296D01*
X59685Y54301D01*
X60435Y54801D01*
X61185Y54301D01*
D02*
G37*
G36*
X55326Y53046D02*
X55260Y52977D01*
X55205Y52911D01*
X55160Y52849D01*
X55126Y52790D01*
X55103Y52735D01*
X55090Y52684D01*
X55088Y52636D01*
X55097Y52592D01*
X55117Y52551D01*
X55147Y52514D01*
X54439Y53221D01*
X54477Y53191D01*
X54517Y53172D01*
X54562Y53163D01*
X54610Y53165D01*
X54661Y53177D01*
X54716Y53201D01*
X54775Y53234D01*
X54837Y53279D01*
X54903Y53334D01*
X54972Y53400D01*
X55326Y53046D01*
D02*
G37*
G36*
X64650Y53250D02*
X64663Y53097D01*
X64671Y53060D01*
X64680Y53029D01*
X64692Y53005D01*
X64705Y52988D01*
X64720Y52978D01*
X64736Y52975D01*
X64062D01*
X64079Y52978D01*
X64093Y52988D01*
X64106Y53005D01*
X64118Y53029D01*
X64127Y53060D01*
X64135Y53097D01*
X64141Y53141D01*
X64148Y53250D01*
X64149Y53315D01*
X64649D01*
X64650Y53250D01*
D02*
G37*
G36*
X108275Y52124D02*
X114842D01*
Y51651D01*
X108325D01*
X108275Y51661D01*
X106658Y51661D01*
X106656Y51661D01*
X106655Y51661D01*
X106606Y51651D01*
X106150D01*
Y51372D01*
X105993Y51234D01*
X105780Y51083D01*
X105554Y50953D01*
X105317Y50846D01*
X105070Y50763D01*
X104935Y50732D01*
X104808Y50758D01*
Y50758D01*
X103292D01*
Y50660D01*
X98398D01*
Y50664D01*
X97897Y50625D01*
X97408Y50508D01*
X96943Y50315D01*
X96514Y50052D01*
X96132Y49726D01*
X95805Y49343D01*
X95543Y48915D01*
X95350Y48450D01*
X95233Y47961D01*
X95193Y47460D01*
X95198D01*
Y40419D01*
X95100D01*
Y39942D01*
X95093Y39908D01*
X95100Y39873D01*
Y39850D01*
X95099Y39829D01*
X95100Y39827D01*
Y39421D01*
X92673D01*
Y39519D01*
X92365D01*
Y39847D01*
X92492Y39929D01*
X92559Y39901D01*
X94626Y39901D01*
X94636Y39984D01*
X94635Y40015D01*
X94646Y40057D01*
X94660Y40165D01*
X94690Y40237D01*
X94696Y40264D01*
X94715Y40297D01*
X94718Y40305D01*
Y47460D01*
X94726Y47519D01*
X94725Y47537D01*
X94726Y47557D01*
Y47588D01*
X94730Y47601D01*
X94758Y47959D01*
X94774Y48034D01*
X94782Y48111D01*
X94881Y48522D01*
X94908Y48594D01*
X94928Y48668D01*
X95090Y49059D01*
X95129Y49126D01*
X95160Y49196D01*
X95381Y49557D01*
X95429Y49617D01*
X95471Y49681D01*
X95746Y50003D01*
X95803Y50055D01*
X95855Y50112D01*
X96176Y50386D01*
X96241Y50428D01*
X96301Y50477D01*
X96662Y50698D01*
X96732Y50729D01*
X96799Y50768D01*
X97189Y50930D01*
X97264Y50950D01*
X97336Y50977D01*
X97747Y51076D01*
X97824Y51084D01*
X97899Y51100D01*
X98257Y51128D01*
X98270Y51132D01*
X98300D01*
X98321Y51133D01*
X98339Y51132D01*
X98398Y51140D01*
X103406D01*
X103413Y51143D01*
X103447Y51162D01*
X103474Y51168D01*
X103546Y51198D01*
X103654Y51212D01*
X103696Y51223D01*
X103727Y51222D01*
X103800Y51231D01*
X104300D01*
X104373Y51222D01*
X104404Y51223D01*
X104446Y51212D01*
X104554Y51198D01*
X104626Y51168D01*
X104653Y51162D01*
X104669Y51153D01*
X104734Y51161D01*
X104944Y51210D01*
X105147Y51278D01*
X105343Y51367D01*
X105530Y51474D01*
X105705Y51599D01*
X105876Y51748D01*
X105960Y51833D01*
X105962Y51835D01*
X105964Y51837D01*
X105964D01*
Y51837D01*
X106064Y51913D01*
X106162Y51990D01*
X106165Y51991D01*
X106167Y51993D01*
X106283Y52041D01*
X106398Y52090D01*
X106401Y52090D01*
X106404Y52091D01*
X106528Y52107D01*
X106652Y52124D01*
X106655Y52124D01*
X106658Y52124D01*
X108275Y52124D01*
D02*
G37*
G36*
X97325Y61550D02*
X97325Y53644D01*
X95681Y52000D01*
X83975Y52000D01*
X82225Y53750D01*
X82225Y62200D01*
X83800Y63775D01*
X95100D01*
X97325Y61550D01*
D02*
G37*
G36*
X56757Y51615D02*
X56691Y51545D01*
X56636Y51479D01*
X56592Y51417D01*
X56558Y51359D01*
X56535Y51304D01*
X56522Y51252D01*
X56520Y51204D01*
X56529Y51160D01*
X56548Y51119D01*
X56578Y51082D01*
X55871Y51789D01*
X55908Y51759D01*
X55949Y51740D01*
X55993Y51731D01*
X56041Y51733D01*
X56093Y51746D01*
X56148Y51769D01*
X56206Y51803D01*
X56269Y51847D01*
X56334Y51902D01*
X56404Y51968D01*
X56757Y51615D01*
D02*
G37*
G36*
X66677Y51506D02*
X66692Y51464D01*
X66717Y51427D01*
X66752Y51395D01*
X66797Y51367D01*
X66852Y51345D01*
X66917Y51328D01*
X66992Y51315D01*
X67077Y51308D01*
X67172Y51306D01*
Y50806D01*
X67077Y50803D01*
X66992Y50796D01*
X66917Y50783D01*
X66852Y50766D01*
X66797Y50744D01*
X66752Y50717D01*
X66717Y50685D01*
X66692Y50648D01*
X66677Y50606D01*
X66672Y50559D01*
Y51553D01*
X66677Y51506D01*
D02*
G37*
G36*
X65678Y50559D02*
X65673Y50606D01*
X65658Y50648D01*
X65633Y50685D01*
X65598Y50717D01*
X65553Y50744D01*
X65498Y50766D01*
X65433Y50783D01*
X65358Y50796D01*
X65273Y50803D01*
X65178Y50806D01*
Y51306D01*
X65273Y51308D01*
X65358Y51315D01*
X65433Y51328D01*
X65498Y51345D01*
X65553Y51367D01*
X65598Y51395D01*
X65633Y51427D01*
X65658Y51464D01*
X65673Y51506D01*
X65678Y51553D01*
Y50559D01*
D02*
G37*
G36*
X51964Y49959D02*
X52014Y49943D01*
X52060Y49931D01*
X52104Y49924D01*
X52144Y49922D01*
X52180Y49924D01*
X52214Y49930D01*
X52244Y49941D01*
X52271Y49956D01*
X52294Y49976D01*
X51846Y49527D01*
X51864Y49549D01*
X51874Y49571D01*
X51877Y49592D01*
X51872Y49614D01*
X51860Y49636D01*
X51840Y49658D01*
X51813Y49680D01*
X51778Y49702D01*
X51736Y49725D01*
X51686Y49747D01*
X51911Y49979D01*
X51964Y49959D01*
D02*
G37*
G36*
X43951Y51032D02*
X44186Y50828D01*
X44439Y50647D01*
X44709Y50492D01*
X44993Y50364D01*
X45288Y50265D01*
X45592Y50195D01*
X45900Y50155D01*
X46056Y50146D01*
X46821D01*
Y49856D01*
X46056Y49854D01*
X45901Y49846D01*
X45592Y49806D01*
X45289Y49736D01*
X44994Y49636D01*
X44710Y49508D01*
X44440Y49353D01*
X44186Y49173D01*
X43951Y48968D01*
X43842Y48857D01*
X42225Y48857D01*
Y51143D01*
X43842D01*
X43951Y51032D01*
D02*
G37*
G36*
X108275Y51143D02*
Y48857D01*
X106658Y48857D01*
X106549Y48968D01*
X106314Y49172D01*
X106061Y49353D01*
X105791Y49508D01*
X105507Y49636D01*
X105212Y49735D01*
X104908Y49805D01*
X104808Y49818D01*
Y49858D01*
X103679D01*
Y50143D01*
X104444Y50146D01*
X104599Y50154D01*
X104908Y50194D01*
X105211Y50264D01*
X105506Y50364D01*
X105790Y50492D01*
X106060Y50647D01*
X106314Y50827D01*
X106549Y51032D01*
X106658Y51143D01*
X108275Y51143D01*
D02*
G37*
G36*
X64960Y49134D02*
X64953Y49125D01*
X64946Y49110D01*
X64941Y49089D01*
X64936Y49063D01*
X64932Y49030D01*
X64927Y48947D01*
X64925Y48840D01*
X64425D01*
X64425Y48896D01*
X64414Y49063D01*
X64409Y49089D01*
X64404Y49110D01*
X64397Y49125D01*
X64390Y49134D01*
X64381Y49137D01*
X64969D01*
X64960Y49134D01*
D02*
G37*
G36*
X53349Y48918D02*
X53335Y48892D01*
X53325Y48862D01*
X53320Y48830D01*
X53320Y48793D01*
X53324Y48754D01*
X53333Y48711D01*
X53347Y48666D01*
X53365Y48616D01*
X53388Y48564D01*
X53161Y48342D01*
X53136Y48392D01*
X53111Y48434D01*
X53087Y48468D01*
X53063Y48495D01*
X53040Y48515D01*
X53017Y48527D01*
X52994Y48532D01*
X52972Y48529D01*
X52950Y48519D01*
X52928Y48501D01*
X53369Y48942D01*
X53349Y48918D01*
D02*
G37*
G36*
X98398Y49340D02*
X103292D01*
Y49242D01*
X103546D01*
Y49227D01*
X104050D01*
X104554D01*
Y49242D01*
X104808D01*
Y49242D01*
X104935Y49268D01*
X105070Y49236D01*
X105317Y49153D01*
X105555Y49046D01*
X105781Y48917D01*
X105993Y48765D01*
X106150Y48628D01*
Y48349D01*
X106606D01*
X106655Y48339D01*
X106657Y48339D01*
X106658Y48339D01*
X108275Y48339D01*
X108325Y48349D01*
X114842D01*
Y47876D01*
X108275D01*
X106658Y47876D01*
X106655Y47876D01*
X106652Y47876D01*
X106528Y47893D01*
X106404Y47909D01*
X106401Y47910D01*
X106398Y47910D01*
X106283Y47959D01*
X106167Y48007D01*
X106165Y48009D01*
X106162Y48010D01*
X106063Y48087D01*
X105964Y48163D01*
X105962Y48165D01*
X105960Y48167D01*
X105876Y48252D01*
X105705Y48401D01*
X105530Y48526D01*
X105344Y48633D01*
X105148Y48721D01*
X104944Y48790D01*
X104735Y48838D01*
X104682Y48845D01*
X104670Y48848D01*
X104609Y48877D01*
X104578Y48903D01*
X104554Y48939D01*
Y48973D01*
X104050D01*
X103546D01*
Y48939D01*
X103522Y48903D01*
X103501Y48885D01*
X103419Y48854D01*
X103413Y48857D01*
X103406Y48860D01*
X98398D01*
X98371Y48863D01*
X98123Y48839D01*
X97860Y48759D01*
X97617Y48629D01*
X97404Y48454D01*
X97229Y48241D01*
X97099Y47998D01*
X97019Y47734D01*
X96994Y47487D01*
X96998Y47460D01*
Y40305D01*
X97001Y40297D01*
X97019Y40264D01*
X97026Y40237D01*
X97056Y40165D01*
X97070Y40057D01*
X97080Y40015D01*
X97080Y39984D01*
X97089Y39901D01*
X97171Y39901D01*
X98385D01*
X98444Y39893D01*
X98462Y39894D01*
X98482Y39892D01*
X98513D01*
X98526Y39889D01*
X98884Y39861D01*
X98959Y39845D01*
X99036Y39837D01*
X99447Y39738D01*
X99519Y39710D01*
X99593Y39690D01*
X99984Y39529D01*
X100051Y39490D01*
X100121Y39459D01*
X100482Y39238D01*
X100542Y39189D01*
X100606Y39147D01*
X100928Y38873D01*
X100980Y38815D01*
X101037Y38764D01*
X101311Y38442D01*
X101353Y38377D01*
X101402Y38317D01*
X101623Y37957D01*
X101654Y37886D01*
X101693Y37820D01*
X101855Y37429D01*
X101875Y37355D01*
X101902Y37283D01*
X102001Y36871D01*
X102009Y36795D01*
X102025Y36719D01*
X102053Y36362D01*
X102057Y36349D01*
Y36318D01*
X102058Y36298D01*
X102057Y36279D01*
X102065Y36221D01*
Y21235D01*
X102119Y21194D01*
X102275Y20991D01*
X102373Y20754D01*
X102406Y20500D01*
Y19854D01*
X101933D01*
Y21008D01*
X101585D01*
Y36221D01*
X101589D01*
X101550Y36722D01*
X101433Y37211D01*
X101240Y37675D01*
X100977Y38104D01*
X100651Y38487D01*
X100268Y38813D01*
X99840Y39076D01*
X99375Y39268D01*
X98886Y39386D01*
X98385Y39425D01*
Y39421D01*
X96616D01*
Y39827D01*
X96617Y39829D01*
X96616Y39850D01*
Y39873D01*
X96623Y39908D01*
X96616Y39942D01*
Y40419D01*
X96518D01*
Y47460D01*
X96517Y47469D01*
X96552Y47827D01*
X96659Y48180D01*
X96833Y48506D01*
X97067Y48791D01*
X97352Y49025D01*
X97678Y49199D01*
X98031Y49306D01*
X98389Y49341D01*
X98398Y49340D01*
D02*
G37*
G36*
X60859Y47707D02*
X60872Y47505D01*
X60876Y47491D01*
X60881Y47482D01*
X60887Y47480D01*
X60330D01*
X60336Y47482D01*
X60341Y47491D01*
X60345Y47505D01*
X60348Y47525D01*
X60351Y47550D01*
X60356Y47617D01*
X60359Y47761D01*
X60859D01*
X60859Y47707D01*
D02*
G37*
G36*
X59711Y47887D02*
X59718Y47802D01*
X59731Y47726D01*
X59748Y47661D01*
X59771Y47606D01*
X59798Y47560D01*
X59831Y47525D01*
X59868Y47500D01*
X59911Y47485D01*
X59958Y47480D01*
X58987Y47483D01*
X59029Y47488D01*
X59066Y47503D01*
X59100Y47528D01*
X59129Y47563D01*
X59153Y47608D01*
X59173Y47663D01*
X59188Y47728D01*
X59200Y47803D01*
X59206Y47888D01*
X59208Y47983D01*
X59708D01*
X59711Y47887D01*
D02*
G37*
G36*
X80077Y46701D02*
X80085Y46616D01*
X80097Y46540D01*
X80115Y46475D01*
X80137Y46420D01*
X80165Y46374D01*
X80197Y46339D01*
X80235Y46314D01*
X80277Y46299D01*
X80325Y46294D01*
X79325D01*
X79372Y46299D01*
X79415Y46314D01*
X79452Y46339D01*
X79485Y46374D01*
X79512Y46420D01*
X79535Y46475D01*
X79552Y46540D01*
X79565Y46616D01*
X79572Y46701D01*
X79575Y46797D01*
X80075D01*
X80077Y46701D01*
D02*
G37*
G36*
X63554Y46954D02*
X63599Y46929D01*
X63650Y46907D01*
X63705Y46888D01*
X63766Y46872D01*
X63831Y46859D01*
X63901Y46849D01*
X64056Y46837D01*
X64142Y46836D01*
Y46336D01*
X64056Y46334D01*
X63901Y46323D01*
X63831Y46312D01*
X63766Y46299D01*
X63705Y46283D01*
X63650Y46264D01*
X63599Y46242D01*
X63554Y46217D01*
X63514Y46190D01*
X63209Y46586D01*
X63514Y46982D01*
X63554Y46954D01*
D02*
G37*
G36*
X62232Y47038D02*
X62248Y46996D01*
X62273Y46958D01*
X62308Y46926D01*
X62353Y46898D01*
X62409Y46876D01*
X62474Y46858D01*
X62524Y46850D01*
X62586Y46859D01*
X62652Y46872D01*
X62712Y46888D01*
X62767Y46907D01*
X62818Y46929D01*
X62863Y46954D01*
X62904Y46982D01*
X63209Y46586D01*
X62904Y46190D01*
X62863Y46217D01*
X62818Y46242D01*
X62767Y46264D01*
X62712Y46283D01*
X62652Y46299D01*
X62586Y46312D01*
X62524Y46322D01*
X62474Y46313D01*
X62409Y46296D01*
X62353Y46273D01*
X62308Y46246D01*
X62273Y46213D01*
X62248Y46176D01*
X62232Y46133D01*
X62227Y46086D01*
Y47086D01*
X62232Y47038D01*
D02*
G37*
G36*
X79316Y46056D02*
X79373Y46051D01*
X79458Y46050D01*
Y45550D01*
X79373Y45549D01*
X79316Y45544D01*
Y45303D01*
X79311Y45350D01*
X79296Y45392D01*
X79271Y45429D01*
X79236Y45461D01*
X79191Y45488D01*
X79136Y45510D01*
X79106Y45518D01*
X79082Y45513D01*
X79022Y45497D01*
X78966Y45478D01*
X78916Y45456D01*
X78870Y45432D01*
X78830Y45404D01*
Y45550D01*
X78816Y45550D01*
Y46050D01*
X78830Y46050D01*
Y46196D01*
X78870Y46168D01*
X78916Y46144D01*
X78966Y46122D01*
X79022Y46103D01*
X79082Y46087D01*
X79106Y46082D01*
X79136Y46090D01*
X79191Y46112D01*
X79236Y46139D01*
X79271Y46171D01*
X79296Y46208D01*
X79311Y46250D01*
X79316Y46297D01*
Y46056D01*
D02*
G37*
G36*
X43845Y52124D02*
X43848Y52124D01*
X43972Y52107D01*
X44096Y52091D01*
X44099Y52090D01*
X44102Y52090D01*
X44217Y52041D01*
X44333Y51993D01*
X44335Y51991D01*
X44338Y51990D01*
X44436Y51913D01*
X44536Y51837D01*
X44538Y51835D01*
X44540Y51833D01*
X44624Y51748D01*
X44795Y51599D01*
X44970Y51474D01*
X45156Y51367D01*
X45352Y51279D01*
X45556Y51210D01*
X45765Y51162D01*
X45933Y51140D01*
X50989D01*
X50993Y51141D01*
X51041Y51134D01*
X51089Y51136D01*
X51600Y51086D01*
X51693Y51064D01*
X51788Y51048D01*
X51931Y51005D01*
X52106Y51179D01*
X52309Y51335D01*
X52546Y51433D01*
X52800Y51467D01*
X53054Y51433D01*
X53290Y51335D01*
X53494Y51179D01*
X54554Y50119D01*
X54710Y49915D01*
X54808Y49679D01*
X54842Y49425D01*
X54808Y49171D01*
X54710Y48934D01*
X54554Y48731D01*
X54420Y48596D01*
X54498Y48338D01*
X54514Y48243D01*
X54536Y48150D01*
X54586Y47639D01*
X54584Y47591D01*
X54591Y47543D01*
X54588Y47520D01*
X54607Y47319D01*
X54673Y47104D01*
X54779Y46906D01*
X54921Y46732D01*
X55095Y46589D01*
X55293Y46483D01*
X55353Y46465D01*
X55427Y46475D01*
X55472Y46485D01*
X55497Y46484D01*
X55559Y46492D01*
X56059D01*
X56284Y46463D01*
Y46186D01*
X56324D01*
Y46019D01*
X55596D01*
X55562Y46026D01*
X55527Y46019D01*
X55194D01*
X55111Y46044D01*
X54831Y46194D01*
X54585Y46396D01*
X54383Y46642D01*
X54233Y46922D01*
X54141Y47227D01*
X54122Y47419D01*
X54114Y47543D01*
X54114D01*
X54076Y48031D01*
X53962Y48508D01*
X53878Y48710D01*
X53876Y48722D01*
X54579Y49425D01*
X52800Y51204D01*
X52064Y50468D01*
X52060Y50469D01*
X51958Y50512D01*
X51481Y50626D01*
X50993Y50664D01*
Y50660D01*
X46841D01*
X46821Y50664D01*
X46070D01*
X45948Y50671D01*
X45683Y50705D01*
X45430Y50764D01*
X45183Y50847D01*
X44945Y50954D01*
X44719Y51083D01*
X44507Y51235D01*
X44350Y51372D01*
Y51651D01*
X43894D01*
X43845Y51661D01*
X43843Y51661D01*
X43842Y51661D01*
X42225D01*
X42175Y51651D01*
X35658D01*
Y52124D01*
X43842D01*
X43845Y52124D01*
D02*
G37*
G36*
X65736Y46113D02*
X65743Y46028D01*
X65756Y45953D01*
X65773Y45888D01*
X65795Y45833D01*
X65822Y45788D01*
X65854Y45753D01*
X65892Y45728D01*
X65934Y45713D01*
X65980Y45708D01*
X64987D01*
X65033Y45713D01*
X65075Y45728D01*
X65112Y45753D01*
X65145Y45788D01*
X65172Y45833D01*
X65194Y45888D01*
X65211Y45953D01*
X65224Y46028D01*
X65231Y46113D01*
X65233Y46208D01*
X65733D01*
X65736Y46113D01*
D02*
G37*
G36*
X84950Y45800D02*
X84866Y45798D01*
X84791Y45792D01*
X84724Y45783D01*
X84666Y45770D01*
X84618Y45752D01*
X84578Y45731D01*
X84547Y45707D01*
X84524Y45678D01*
X84511Y45646D01*
X84506Y45609D01*
X84509Y46297D01*
X84514Y46298D01*
X84527Y46298D01*
X84950Y46300D01*
Y45800D01*
D02*
G37*
G36*
X55562Y45014D02*
X55559Y45034D01*
X55550Y45053D01*
X55535Y45070D01*
X55515Y45087D01*
X55489Y45102D01*
X55457Y45116D01*
X55419Y45128D01*
X55376Y45139D01*
X55326Y45150D01*
X55271Y45158D01*
X55272Y45458D01*
X55327Y45451D01*
X55420Y45445D01*
X55457Y45446D01*
X55489Y45450D01*
X55515Y45456D01*
X55536Y45465D01*
X55550Y45477D01*
X55559Y45491D01*
X55562Y45508D01*
Y45014D01*
D02*
G37*
G36*
X61782Y45486D02*
X61772Y45476D01*
X61763Y45461D01*
X61755Y45439D01*
X61749Y45411D01*
X61743Y45377D01*
X61739Y45337D01*
X61734Y45237D01*
X61734Y45178D01*
X61234D01*
X61237Y45489D01*
X61794D01*
X61782Y45486D01*
D02*
G37*
G36*
X52689Y47615D02*
X52729Y47575D01*
X52792Y47474D01*
X52823Y47082D01*
X52930Y46633D01*
X53107Y46206D01*
X53349Y45811D01*
X53649Y45460D01*
X54001Y45160D01*
X54395Y44918D01*
X54822Y44741D01*
X55051Y44686D01*
Y44503D01*
X55527D01*
X55562Y44496D01*
X55596Y44503D01*
X55606D01*
X55636Y44501D01*
X55640Y44503D01*
X56324D01*
Y44261D01*
X56324Y44261D01*
X56325Y44258D01*
X56245Y44139D01*
X56133Y44233D01*
Y44336D01*
X54557D01*
X54513Y44349D01*
X54426Y44389D01*
X54336Y44423D01*
X54209Y44490D01*
X54208Y44491D01*
X54208D01*
X54056Y44572D01*
X54089Y44493D01*
X54132Y44384D01*
X54165Y44136D01*
Y41436D01*
X54132Y41182D01*
X54033Y40945D01*
X53878Y40742D01*
X53674Y40586D01*
X53438Y40488D01*
X53183Y40454D01*
X51734D01*
X51479Y40488D01*
X51243Y40586D01*
X51039Y40742D01*
X50884Y40945D01*
X50785Y41182D01*
X50764Y41345D01*
X50755Y41438D01*
X50752Y41463D01*
Y41570D01*
X50667Y41545D01*
X50625Y41522D01*
X50424Y41415D01*
X50211Y41240D01*
X50036Y41027D01*
X49906Y40784D01*
X49826Y40520D01*
X49802Y40272D01*
X49806Y40246D01*
Y12540D01*
X49798Y12481D01*
X49799Y12463D01*
X49797Y12443D01*
Y12412D01*
X49794Y12399D01*
X49766Y12041D01*
X49750Y11966D01*
X49742Y11889D01*
X49643Y11478D01*
X49615Y11406D01*
X49595Y11332D01*
X49433Y10941D01*
X49395Y10874D01*
X49363Y10804D01*
X49143Y10443D01*
X49094Y10383D01*
X49052Y10319D01*
X48777Y9997D01*
X48720Y9945D01*
X48668Y9888D01*
X48347Y9613D01*
X48282Y9571D01*
X48222Y9523D01*
X47862Y9302D01*
X47791Y9271D01*
X47724Y9232D01*
X47334Y9070D01*
X47259Y9050D01*
X47187Y9023D01*
X46776Y8924D01*
X46699Y8916D01*
X46624Y8900D01*
X46266Y8872D01*
X46254Y8868D01*
X46223D01*
X46202Y8867D01*
X46184Y8868D01*
X46125Y8860D01*
X45930D01*
X45766Y8839D01*
X45556Y8790D01*
X45353Y8722D01*
X45157Y8633D01*
X44970Y8526D01*
X44795Y8401D01*
X44624Y8252D01*
X44540Y8167D01*
X44538Y8165D01*
X44536Y8163D01*
X44436Y8087D01*
X44338Y8010D01*
X44335Y8009D01*
X44333Y8007D01*
X44217Y7959D01*
X44102Y7910D01*
X44099Y7910D01*
X44096Y7909D01*
X43972Y7893D01*
X43848Y7876D01*
X43845Y7876D01*
X43842Y7876D01*
X42225Y7876D01*
X35658D01*
Y8349D01*
X42175D01*
X42225Y8339D01*
X43842Y8339D01*
X43844Y8339D01*
X43845Y8339D01*
X43894Y8349D01*
X44350D01*
Y8628D01*
X44507Y8766D01*
X44720Y8917D01*
X44945Y9047D01*
X45183Y9154D01*
X45430Y9237D01*
X45684Y9295D01*
X45948Y9330D01*
X46000Y9332D01*
X46125Y9335D01*
X46125Y9335D01*
X46627Y9375D01*
X47116Y9492D01*
X47580Y9685D01*
X48009Y9947D01*
X48391Y10274D01*
X48718Y10656D01*
X48981Y11085D01*
X49173Y11550D01*
X49291Y12039D01*
X49330Y12540D01*
X49326D01*
Y40246D01*
X49325Y40254D01*
X49360Y40613D01*
X49467Y40966D01*
X49641Y41291D01*
X49875Y41576D01*
X50160Y41810D01*
X50485Y41984D01*
X50838Y42091D01*
X51098Y42117D01*
X51225Y42009D01*
Y40928D01*
X53692D01*
Y44644D01*
X51225D01*
Y43569D01*
X51205Y43450D01*
X50704Y43411D01*
X50215Y43293D01*
X49751Y43101D01*
X49322Y42838D01*
X48939Y42512D01*
X48613Y42129D01*
X48350Y41701D01*
X48158Y41236D01*
X48040Y40747D01*
X48001Y40246D01*
X48005D01*
Y12540D01*
X48006Y12531D01*
X47971Y12173D01*
X47864Y11820D01*
X47690Y11495D01*
X47456Y11209D01*
X47171Y10975D01*
X46845Y10802D01*
X46492Y10694D01*
X46145Y10660D01*
X46125Y10664D01*
X46070D01*
X45948Y10671D01*
X45683Y10705D01*
X45430Y10764D01*
X45183Y10847D01*
X44945Y10954D01*
X44719Y11083D01*
X44507Y11235D01*
X44350Y11372D01*
Y11651D01*
X43894D01*
X43845Y11661D01*
X43843Y11661D01*
X43842Y11661D01*
X42225Y11661D01*
X42175Y11651D01*
X35658D01*
Y12124D01*
X43842D01*
X43845Y12124D01*
X43848Y12124D01*
X43971Y12107D01*
X44096Y12091D01*
X44099Y12090D01*
X44101Y12090D01*
X44216Y12041D01*
X44333Y11993D01*
X44335Y11991D01*
X44338Y11990D01*
X44436Y11914D01*
X44536Y11837D01*
X44538Y11835D01*
X44540Y11833D01*
X44624Y11748D01*
X44795Y11599D01*
X44970Y11474D01*
X45156Y11367D01*
X45352Y11279D01*
X45556Y11210D01*
X45765Y11162D01*
X45933Y11140D01*
X46125D01*
X46152Y11137D01*
X46400Y11161D01*
X46663Y11241D01*
X46906Y11371D01*
X47120Y11546D01*
X47294Y11759D01*
X47424Y12002D01*
X47504Y12266D01*
X47529Y12513D01*
X47525Y12540D01*
Y40246D01*
X47533Y40305D01*
X47532Y40323D01*
X47534Y40343D01*
Y40374D01*
X47537Y40387D01*
X47565Y40744D01*
X47581Y40820D01*
X47589Y40896D01*
X47688Y41308D01*
X47716Y41380D01*
X47736Y41454D01*
X47897Y41845D01*
X47936Y41912D01*
X47967Y41982D01*
X48188Y42343D01*
X48237Y42403D01*
X48279Y42467D01*
X48553Y42789D01*
X48611Y42840D01*
X48662Y42898D01*
X48984Y43172D01*
X49049Y43214D01*
X49108Y43263D01*
X49469Y43484D01*
X49540Y43515D01*
X49606Y43554D01*
X49997Y43716D01*
X50071Y43736D01*
X50143Y43763D01*
X50555Y43862D01*
X50631Y43870D01*
X50707Y43886D01*
X50752Y43890D01*
Y44136D01*
X50785Y44390D01*
X50884Y44626D01*
X51039Y44830D01*
X51243Y44986D01*
X51479Y45084D01*
X51734Y45117D01*
X53147D01*
X53183Y45117D01*
X53349Y45095D01*
X53318Y45129D01*
X53248Y45195D01*
X53209Y45242D01*
X52944Y45564D01*
X52893Y45646D01*
X52837Y45724D01*
X52612Y46146D01*
X52578Y46236D01*
X52538Y46324D01*
X52399Y46782D01*
X52384Y46877D01*
X52362Y46971D01*
X52318Y47410D01*
X52238Y47443D01*
X52035Y47599D01*
X50974Y48660D01*
X50821Y48860D01*
X45930D01*
X45766Y48839D01*
X45556Y48790D01*
X45353Y48722D01*
X45157Y48633D01*
X44970Y48526D01*
X44795Y48401D01*
X44624Y48252D01*
X44540Y48167D01*
X44538Y48165D01*
X44536Y48163D01*
X44536D01*
Y48163D01*
X44437Y48087D01*
X44338Y48010D01*
X44335Y48009D01*
X44333Y48007D01*
X44217Y47959D01*
X44102Y47910D01*
X44099Y47910D01*
X44096Y47909D01*
X43972Y47893D01*
X43848Y47876D01*
X43845Y47876D01*
X43842Y47876D01*
X42225Y47876D01*
X35658D01*
Y48349D01*
X42175D01*
X42225Y48339D01*
X43842Y48339D01*
X43844Y48339D01*
X43845Y48339D01*
X43894Y48349D01*
X44350D01*
Y48628D01*
X44507Y48766D01*
X44720Y48917D01*
X44945Y49047D01*
X45183Y49154D01*
X45430Y49237D01*
X45684Y49295D01*
X45948Y49330D01*
X46071Y49336D01*
X46823Y49339D01*
X46828Y49340D01*
X50964D01*
X52689Y47615D01*
D02*
G37*
G36*
X85922Y44928D02*
X85892Y44925D01*
X85857Y44914D01*
X85818Y44896D01*
X85775Y44871D01*
X85728Y44840D01*
X85677Y44801D01*
X85561Y44702D01*
X85428Y44575D01*
X85074Y44928D01*
X85142Y44997D01*
X85340Y45228D01*
X85371Y45276D01*
X85396Y45319D01*
X85414Y45357D01*
X85424Y45392D01*
X85428Y45422D01*
X85922Y44928D01*
D02*
G37*
G36*
X79316Y44409D02*
X79313Y44412D01*
X79305Y44415D01*
X79292Y44417D01*
X79273Y44419D01*
X79185Y44424D01*
X79050Y44425D01*
Y44925D01*
X79100Y44925D01*
X79313Y44938D01*
X79316Y44941D01*
Y44409D01*
D02*
G37*
G36*
X84510Y44978D02*
X84519Y44967D01*
X84535Y44957D01*
X84557Y44949D01*
X84586Y44941D01*
X84621Y44935D01*
X84662Y44931D01*
X84764Y44926D01*
X84825Y44925D01*
Y44425D01*
X84764Y44424D01*
X84621Y44415D01*
X84586Y44409D01*
X84557Y44401D01*
X84535Y44393D01*
X84519Y44383D01*
X84510Y44372D01*
X84506Y44359D01*
Y44991D01*
X84510Y44978D01*
D02*
G37*
G36*
X65934Y44709D02*
X65892Y44694D01*
X65854Y44669D01*
X65822Y44634D01*
X65795Y44589D01*
X65773Y44534D01*
X65756Y44469D01*
X65743Y44394D01*
X65736Y44309D01*
X65733Y44214D01*
X65233D01*
X65231Y44309D01*
X65224Y44394D01*
X65211Y44469D01*
X65194Y44534D01*
X65172Y44589D01*
X65145Y44634D01*
X65112Y44669D01*
X65075Y44694D01*
X65033Y44709D01*
X64987Y44714D01*
X65980D01*
X65934Y44709D01*
D02*
G37*
G36*
X67405Y43996D02*
X67414Y43988D01*
X67429Y43982D01*
X67450Y43976D01*
X67476Y43971D01*
X67509Y43968D01*
X67592Y43962D01*
X67699Y43961D01*
Y43461D01*
X67642Y43460D01*
X67476Y43450D01*
X67450Y43445D01*
X67429Y43440D01*
X67414Y43433D01*
X67405Y43426D01*
X67402Y43418D01*
Y44004D01*
X67405Y43996D01*
D02*
G37*
G36*
X63565Y43418D02*
X63562Y43426D01*
X63553Y43433D01*
X63538Y43440D01*
X63517Y43445D01*
X63491Y43450D01*
X63458Y43454D01*
X63375Y43459D01*
X63268Y43461D01*
Y43961D01*
X63325Y43961D01*
X63491Y43971D01*
X63517Y43976D01*
X63538Y43982D01*
X63553Y43988D01*
X63562Y43996D01*
X63565Y44004D01*
Y43418D01*
D02*
G37*
G36*
X84510Y43620D02*
X84520Y43605D01*
X84537Y43592D01*
X84561Y43581D01*
X84591Y43571D01*
X84629Y43564D01*
X84673Y43558D01*
X84781Y43551D01*
X84845Y43550D01*
Y43050D01*
X84509Y43053D01*
X84506Y43636D01*
X84510Y43620D01*
D02*
G37*
G36*
X80765Y43051D02*
X80722Y43036D01*
X80685Y43011D01*
X80652Y42976D01*
X80625Y42930D01*
X80602Y42875D01*
X80585Y42810D01*
X80572Y42734D01*
X80565Y42649D01*
X80562Y42553D01*
X80062D01*
X80060Y42649D01*
X80052Y42734D01*
X80040Y42810D01*
X80022Y42875D01*
X80000Y42930D01*
X79972Y42976D01*
X79940Y43011D01*
X79902Y43036D01*
X79860Y43051D01*
X79812Y43056D01*
X80812D01*
X80765Y43051D01*
D02*
G37*
G36*
X51737Y42492D02*
X51734Y42520D01*
X51725Y42545D01*
X51710Y42567D01*
X51690Y42586D01*
X51663Y42602D01*
X51631Y42616D01*
X51593Y42626D01*
X51549Y42633D01*
X51499Y42638D01*
X51443Y42639D01*
Y42932D01*
X51499Y42934D01*
X51549Y42938D01*
X51593Y42946D01*
X51631Y42956D01*
X51663Y42969D01*
X51690Y42985D01*
X51710Y43004D01*
X51725Y43026D01*
X51734Y43051D01*
X51737Y43079D01*
Y42492D01*
D02*
G37*
G36*
X58987Y42289D02*
X58982Y42336D01*
X58967Y42378D01*
X58942Y42415D01*
X58907Y42447D01*
X58862Y42474D01*
X58807Y42496D01*
X58742Y42513D01*
X58667Y42526D01*
X58582Y42533D01*
X58487Y42536D01*
Y43036D01*
X58582Y43038D01*
X58667Y43046D01*
X58743Y43058D01*
X58808Y43076D01*
X58863Y43098D01*
X58909Y43126D01*
X58944Y43158D01*
X58969Y43196D01*
X58984Y43238D01*
X58990Y43286D01*
X58987Y42289D01*
D02*
G37*
G36*
X55932Y43238D02*
X55948Y43196D01*
X55973Y43158D01*
X56008Y43126D01*
X56053Y43098D01*
X56109Y43076D01*
X56174Y43058D01*
X56249Y43046D01*
X56335Y43038D01*
X56430Y43036D01*
Y42536D01*
X56335Y42533D01*
X56249Y42526D01*
X56174Y42513D01*
X56109Y42496D01*
X56053Y42473D01*
X56008Y42446D01*
X55973Y42413D01*
X55948Y42376D01*
X55932Y42333D01*
X55927Y42286D01*
Y43286D01*
X55932Y43238D01*
D02*
G37*
G36*
X62061Y42284D02*
X62019Y42269D01*
X61981Y42244D01*
X61949Y42209D01*
X61921Y42164D01*
X61898Y42109D01*
X61881Y42044D01*
X61868Y41969D01*
X61861Y41884D01*
X61859Y41789D01*
X61359D01*
X61357Y41884D01*
X61339Y42109D01*
X61328Y42164D01*
X61315Y42209D01*
X61299Y42244D01*
X61280Y42269D01*
X61260Y42284D01*
X61237Y42289D01*
X62109D01*
X62061Y42284D01*
D02*
G37*
G36*
X60917D02*
X60905Y42269D01*
X60894Y42244D01*
X60884Y42209D01*
X60876Y42164D01*
X60870Y42109D01*
X60861Y41969D01*
X60859Y41789D01*
X60359D01*
X60358Y41884D01*
X60341Y42164D01*
X60333Y42209D01*
X60323Y42244D01*
X60312Y42269D01*
X60300Y42284D01*
X60287Y42289D01*
X60930D01*
X60917Y42284D01*
D02*
G37*
G36*
X58160Y41923D02*
X58173Y41770D01*
X58185Y41700D01*
X58199Y41634D01*
X58217Y41573D01*
X58239Y41517D01*
X58263Y41465D01*
X58291Y41418D01*
X58322Y41375D01*
X57530Y41356D01*
X57554Y41394D01*
X57576Y41437D01*
X57595Y41486D01*
X57612Y41540D01*
X57626Y41599D01*
X57638Y41664D01*
X57653Y41811D01*
X57657Y41892D01*
X57659Y41978D01*
X58159Y42007D01*
X58160Y41923D01*
D02*
G37*
G36*
X65735Y40613D02*
X65747Y40453D01*
X65757Y40388D01*
X65770Y40333D01*
X65786Y40288D01*
X65805Y40253D01*
X65828Y40228D01*
X65853Y40213D01*
X65880Y40208D01*
X65087D01*
X65114Y40213D01*
X65139Y40228D01*
X65161Y40253D01*
X65181Y40288D01*
X65197Y40333D01*
X65210Y40388D01*
X65220Y40453D01*
X65228Y40528D01*
X65233Y40708D01*
X65733D01*
X65735Y40613D01*
D02*
G37*
G36*
X96005Y40145D02*
X96013Y40051D01*
X96020Y40013D01*
X96029Y39981D01*
X96040Y39955D01*
X96054Y39934D01*
X96069Y39919D01*
X96086Y39911D01*
X96105Y39908D01*
X95611D01*
X95630Y39911D01*
X95647Y39919D01*
X95662Y39934D01*
X95675Y39955D01*
X95686Y39981D01*
X95695Y40013D01*
X95702Y40051D01*
X95707Y40095D01*
X95710Y40145D01*
X95711Y40201D01*
X96004D01*
X96005Y40145D01*
D02*
G37*
G36*
X84911Y40188D02*
X84918Y40103D01*
X84931Y40028D01*
X84948Y39963D01*
X84970Y39908D01*
X84997Y39863D01*
X85030Y39828D01*
X85067Y39803D01*
X85109Y39788D01*
X85155Y39783D01*
X84162D01*
X84208Y39788D01*
X84250Y39803D01*
X84287Y39828D01*
X84320Y39863D01*
X84347Y39908D01*
X84369Y39963D01*
X84386Y40028D01*
X84399Y40103D01*
X84406Y40188D01*
X84409Y40283D01*
X84909D01*
X84911Y40188D01*
D02*
G37*
G36*
X90740Y39993D02*
X90773Y39995D01*
X90836Y39983D01*
X90852Y39981D01*
X90950D01*
X91204Y39948D01*
X91294Y39911D01*
X91338Y39929D01*
X91465Y39847D01*
Y39519D01*
X91157D01*
Y39508D01*
X90840D01*
X90708Y39525D01*
X90708Y39525D01*
X89534D01*
X89484Y39519D01*
X88683D01*
X88633Y39525D01*
X88595D01*
X88539Y39639D01*
X88589Y39705D01*
X88793Y39861D01*
X89029Y39959D01*
X89284Y39992D01*
X89496D01*
X89534Y39997D01*
X90708D01*
X90740Y39993D01*
D02*
G37*
G36*
X63190Y39378D02*
X63186Y39403D01*
X63174Y39426D01*
X63155Y39446D01*
X63128Y39463D01*
X63093Y39478D01*
X63051Y39489D01*
X63001Y39499D01*
X62943Y39505D01*
X62877Y39509D01*
X62804Y39511D01*
Y40011D01*
X62877Y40012D01*
X63001Y40023D01*
X63051Y40032D01*
X63093Y40044D01*
X63128Y40058D01*
X63155Y40076D01*
X63174Y40095D01*
X63186Y40118D01*
X63190Y40143D01*
Y39378D01*
D02*
G37*
G36*
X84165Y38286D02*
X84160Y38333D01*
X84144Y38376D01*
X84119Y38413D01*
X84084Y38446D01*
X84039Y38473D01*
X83983Y38496D01*
X83918Y38513D01*
X83843Y38526D01*
X83757Y38533D01*
X83704Y38535D01*
X83688Y38534D01*
X83532Y38523D01*
X83462Y38514D01*
X83337Y38487D01*
X83282Y38469D01*
X83233Y38449D01*
X83188Y38425D01*
X83149Y38399D01*
X83161Y39192D01*
X83202Y39162D01*
X83249Y39136D01*
X83300Y39112D01*
X83356Y39092D01*
X83417Y39075D01*
X83482Y39061D01*
X83552Y39050D01*
X83707Y39037D01*
X83715Y39037D01*
X83757Y39038D01*
X83843Y39046D01*
X83918Y39058D01*
X83983Y39076D01*
X84039Y39098D01*
X84084Y39126D01*
X84119Y39158D01*
X84144Y39196D01*
X84160Y39238D01*
X84165Y39286D01*
Y38286D01*
D02*
G37*
G36*
X63919Y39310D02*
X63901Y39299D01*
X63885Y39282D01*
X63872Y39257D01*
X63860Y39225D01*
X63850Y39186D01*
X63843Y39139D01*
X63838Y39086D01*
X63833Y38958D01*
X63333D01*
X63332Y39025D01*
X63324Y39139D01*
X63317Y39186D01*
X63307Y39225D01*
X63295Y39257D01*
X63282Y39282D01*
X63266Y39299D01*
X63248Y39310D01*
X63227Y39314D01*
X63940D01*
X63919Y39310D01*
D02*
G37*
G36*
X90896Y38932D02*
X90916Y38927D01*
X90945Y38922D01*
X91032Y38915D01*
X91316Y38908D01*
X91411Y38907D01*
Y38614D01*
X91316Y38614D01*
X90896Y38590D01*
X90885Y38584D01*
Y38938D01*
X90896Y38932D01*
D02*
G37*
G36*
X87407Y39213D02*
X87423Y39171D01*
X87448Y39133D01*
X87483Y39101D01*
X87528Y39073D01*
X87584Y39051D01*
X87649Y39033D01*
X87724Y39021D01*
X87810Y39013D01*
X87905Y39011D01*
Y38511D01*
X87810Y38508D01*
X87724Y38501D01*
X87649Y38488D01*
X87584Y38471D01*
X87528Y38448D01*
X87483Y38421D01*
X87448Y38388D01*
X87423Y38351D01*
X87407Y38308D01*
X87402Y38261D01*
Y39261D01*
X87407Y39213D01*
D02*
G37*
G36*
X98752Y38066D02*
X99105Y37959D01*
X99431Y37785D01*
X99716Y37551D01*
X99950Y37266D01*
X100124Y36941D01*
X100231Y36588D01*
X100266Y36229D01*
X100265Y36221D01*
Y21008D01*
X99917D01*
Y19854D01*
X99444D01*
Y20500D01*
X99477Y20754D01*
X99575Y20991D01*
X99731Y21194D01*
X99785Y21235D01*
Y36221D01*
X99788Y36247D01*
X99764Y36495D01*
X99684Y36759D01*
X99554Y37002D01*
X99379Y37215D01*
X99166Y37390D01*
X98923Y37520D01*
X98659Y37600D01*
X98412Y37624D01*
X98385Y37621D01*
X96502D01*
X96362Y37563D01*
X96108Y37529D01*
X95608D01*
X95354Y37563D01*
X95214Y37621D01*
X92559D01*
X92419Y37563D01*
X92165Y37529D01*
X91665D01*
X91411Y37563D01*
X91320Y37600D01*
X91291Y37623D01*
X90700D01*
X90196D01*
Y37524D01*
X89534D01*
X89496Y37529D01*
X89284D01*
X89029Y37563D01*
X88793Y37661D01*
X88589Y37817D01*
X88539Y37882D01*
X88595Y37996D01*
X88633D01*
X88683Y38003D01*
X89484D01*
X89534Y37996D01*
X89942D01*
Y37992D01*
X90196D01*
Y37877D01*
X90700D01*
X91204D01*
Y37992D01*
X91458D01*
Y38003D01*
X92673D01*
Y38101D01*
X95100D01*
Y38003D01*
X96616D01*
Y38101D01*
X98385D01*
X98394Y38102D01*
X98752Y38066D01*
D02*
G37*
G36*
X65073Y37397D02*
X65111Y36837D01*
X65128Y36747D01*
X65149Y36677D01*
X65173Y36627D01*
X65200Y36597D01*
X65230Y36587D01*
X63987D01*
X64003Y36597D01*
X64017Y36627D01*
X64030Y36677D01*
X64041Y36747D01*
X64050Y36837D01*
X64068Y37227D01*
X64071Y37587D01*
X65071D01*
X65073Y37397D01*
D02*
G37*
G36*
X87407Y36028D02*
X87423Y35985D01*
X87448Y35947D01*
X87483Y35915D01*
X87528Y35888D01*
X87584Y35865D01*
X87649Y35847D01*
X87724Y35835D01*
X87810Y35827D01*
X87905Y35825D01*
Y35325D01*
X87810Y35322D01*
X87724Y35315D01*
X87649Y35303D01*
X87584Y35285D01*
X87528Y35263D01*
X87483Y35235D01*
X87448Y35202D01*
X87423Y35165D01*
X87407Y35123D01*
X87402Y35075D01*
Y36075D01*
X87407Y36028D01*
D02*
G37*
G36*
X76639Y35358D02*
X76671Y35338D01*
X76707Y35320D01*
X76746Y35304D01*
X76788Y35291D01*
X76833Y35280D01*
X76881Y35272D01*
X76932Y35266D01*
X77044Y35261D01*
X77091Y34761D01*
X77033Y34759D01*
X76979Y34755D01*
X76929Y34747D01*
X76882Y34737D01*
X76839Y34724D01*
X76799Y34708D01*
X76762Y34689D01*
X76729Y34667D01*
X76699Y34642D01*
X76673Y34614D01*
X76609Y35381D01*
X76639Y35358D01*
D02*
G37*
G36*
X112111Y33511D02*
X112108Y33539D01*
X112099Y33564D01*
X112083Y33587D01*
X112061Y33606D01*
X112033Y33623D01*
X111998Y33636D01*
X111958Y33647D01*
X111933Y33650D01*
X111931Y33649D01*
Y33651D01*
X111911Y33654D01*
X111858Y33659D01*
X111798Y33660D01*
Y33960D01*
X111858Y33961D01*
X111911Y33966D01*
X111931Y33969D01*
Y33971D01*
X111933Y33970D01*
X111958Y33973D01*
X111998Y33984D01*
X112033Y33997D01*
X112061Y34014D01*
X112083Y34033D01*
X112099Y34056D01*
X112108Y34081D01*
X112111Y34109D01*
Y33511D01*
D02*
G37*
G36*
X71140Y35870D02*
X71170Y35785D01*
X71220Y35710D01*
X71290Y35645D01*
X71380Y35590D01*
X71490Y35545D01*
X71620Y35510D01*
X71770Y35485D01*
X71940Y35470D01*
X72130Y35465D01*
Y34465D01*
X71940Y34460D01*
X71770Y34445D01*
X71620Y34420D01*
X71490Y34385D01*
X71380Y34340D01*
X71290Y34285D01*
X71220Y34220D01*
X71170Y34145D01*
X71140Y34060D01*
X71130Y33965D01*
Y35965D01*
X71140Y35870D01*
D02*
G37*
G36*
X108074Y33969D02*
X108080Y33967D01*
X108089Y33965D01*
X108100Y33964D01*
X108129Y33962D01*
X108219Y33960D01*
Y33660D01*
X108193Y33660D01*
X108080Y33653D01*
X108074Y33651D01*
X108071Y33649D01*
Y33971D01*
X108074Y33969D01*
D02*
G37*
G36*
X39591Y34081D02*
X39601Y34056D01*
X39616Y34033D01*
X39638Y34014D01*
X39666Y33997D01*
X39701Y33984D01*
X39741Y33973D01*
X39788Y33966D01*
X39816Y33964D01*
X39871Y33967D01*
X39877Y33969D01*
X39880Y33971D01*
Y33961D01*
X39901Y33960D01*
Y33660D01*
X39880Y33659D01*
Y33649D01*
X39877Y33651D01*
X39871Y33653D01*
X39862Y33655D01*
X39851Y33656D01*
X39830Y33658D01*
X39788Y33654D01*
X39741Y33647D01*
X39701Y33636D01*
X39666Y33623D01*
X39638Y33606D01*
X39616Y33587D01*
X39601Y33564D01*
X39591Y33539D01*
X39588Y33511D01*
Y34109D01*
X39591Y34081D01*
D02*
G37*
G36*
X35896Y34066D02*
X35905Y34044D01*
X35919Y34024D01*
X35940Y34007D01*
X35966Y33993D01*
X35998Y33981D01*
X36036Y33972D01*
X36080Y33965D01*
X36129Y33961D01*
X36184Y33960D01*
Y33660D01*
X36129Y33659D01*
X36080Y33655D01*
X36036Y33648D01*
X35998Y33639D01*
X35966Y33627D01*
X35940Y33613D01*
X35919Y33596D01*
X35905Y33576D01*
X35896Y33554D01*
X35893Y33529D01*
Y33660D01*
X35872Y33660D01*
Y33960D01*
X35893Y33960D01*
Y34091D01*
X35896Y34066D01*
D02*
G37*
G36*
X108613Y33511D02*
X108610Y33539D01*
X108600Y33564D01*
X108585Y33587D01*
X108563Y33606D01*
X108535Y33623D01*
X108500Y33636D01*
X108459Y33647D01*
X108412Y33654D01*
X108359Y33659D01*
X108300Y33660D01*
Y33960D01*
X108359Y33961D01*
X108412Y33966D01*
X108459Y33973D01*
X108500Y33984D01*
X108535Y33997D01*
X108563Y34014D01*
X108585Y34033D01*
X108600Y34056D01*
X108610Y34081D01*
X108613Y34109D01*
Y33511D01*
D02*
G37*
G36*
X112111Y30971D02*
X112108Y30999D01*
X112099Y31024D01*
X112083Y31047D01*
X112061Y31066D01*
X112033Y31083D01*
X111998Y31096D01*
X111958Y31107D01*
X111916Y31113D01*
X111912Y31113D01*
X111906Y31111D01*
X111903Y31109D01*
Y31115D01*
X111858Y31119D01*
X111798Y31120D01*
Y31420D01*
X111858Y31421D01*
X111903Y31425D01*
Y31431D01*
X111906Y31429D01*
X111912Y31427D01*
X111915Y31427D01*
X111958Y31433D01*
X111998Y31444D01*
X112033Y31457D01*
X112061Y31474D01*
X112083Y31493D01*
X112099Y31516D01*
X112108Y31541D01*
X112111Y31569D01*
Y30971D01*
D02*
G37*
G36*
X108084Y31429D02*
X108090Y31427D01*
X108098Y31425D01*
X108109Y31424D01*
X108139Y31422D01*
X108228Y31420D01*
Y31120D01*
X108202Y31120D01*
X108090Y31113D01*
X108084Y31111D01*
X108080Y31109D01*
Y31431D01*
X108084Y31429D01*
D02*
G37*
G36*
X39591Y31541D02*
X39601Y31516D01*
X39616Y31493D01*
X39638Y31474D01*
X39666Y31457D01*
X39701Y31444D01*
X39741Y31433D01*
X39788Y31426D01*
X39812Y31424D01*
X39861Y31427D01*
X39867Y31429D01*
X39871Y31431D01*
Y31421D01*
X39901Y31420D01*
Y31120D01*
X39871Y31119D01*
Y31109D01*
X39867Y31111D01*
X39861Y31113D01*
X39853Y31115D01*
X39842Y31116D01*
X39826Y31117D01*
X39788Y31114D01*
X39741Y31107D01*
X39701Y31096D01*
X39666Y31083D01*
X39638Y31066D01*
X39616Y31047D01*
X39601Y31024D01*
X39591Y30999D01*
X39588Y30971D01*
Y31569D01*
X39591Y31541D01*
D02*
G37*
G36*
X108613Y30971D02*
X108610Y30999D01*
X108600Y31024D01*
X108585Y31047D01*
X108563Y31066D01*
X108535Y31083D01*
X108500Y31096D01*
X108459Y31107D01*
X108412Y31114D01*
X108359Y31119D01*
X108300Y31120D01*
Y31420D01*
X108359Y31421D01*
X108412Y31426D01*
X108459Y31433D01*
X108500Y31444D01*
X108535Y31457D01*
X108563Y31474D01*
X108585Y31493D01*
X108600Y31516D01*
X108610Y31541D01*
X108613Y31569D01*
Y30971D01*
D02*
G37*
G36*
X35893Y31541D02*
X35902Y31516D01*
X35918Y31493D01*
X35940Y31474D01*
X35968Y31457D01*
X36002Y31444D01*
X36043Y31433D01*
X36090Y31426D01*
X36143Y31421D01*
X36203Y31420D01*
Y31120D01*
X36143Y31119D01*
X36090Y31114D01*
X36043Y31107D01*
X36002Y31096D01*
X35968Y31083D01*
X35940Y31066D01*
X35918Y31047D01*
X35902Y31024D01*
X35893Y30999D01*
X35890Y30971D01*
Y31569D01*
X35893Y31541D01*
D02*
G37*
G36*
X108099Y28889D02*
X108105Y28887D01*
X108113Y28885D01*
X108124Y28884D01*
X108154Y28882D01*
X108244Y28880D01*
Y28580D01*
X108217Y28580D01*
X108105Y28573D01*
X108099Y28571D01*
X108096Y28569D01*
Y28891D01*
X108099Y28889D01*
D02*
G37*
G36*
X39591Y29001D02*
X39601Y28976D01*
X39616Y28953D01*
X39638Y28934D01*
X39666Y28917D01*
X39701Y28904D01*
X39741Y28893D01*
X39788Y28886D01*
X39805Y28885D01*
X39846Y28887D01*
X39852Y28889D01*
X39855Y28891D01*
Y28881D01*
X39901Y28880D01*
Y28580D01*
X39855Y28579D01*
Y28569D01*
X39852Y28571D01*
X39846Y28573D01*
X39837Y28575D01*
X39826Y28576D01*
X39819Y28577D01*
X39788Y28574D01*
X39741Y28567D01*
X39701Y28556D01*
X39666Y28543D01*
X39638Y28526D01*
X39616Y28507D01*
X39601Y28484D01*
X39591Y28459D01*
X39588Y28431D01*
Y29029D01*
X39591Y29001D01*
D02*
G37*
G36*
X108613Y28431D02*
X108610Y28459D01*
X108600Y28484D01*
X108585Y28507D01*
X108563Y28526D01*
X108535Y28543D01*
X108500Y28556D01*
X108459Y28567D01*
X108412Y28574D01*
X108359Y28579D01*
X108300Y28580D01*
Y28880D01*
X108359Y28881D01*
X108412Y28886D01*
X108459Y28893D01*
X108500Y28904D01*
X108535Y28917D01*
X108563Y28934D01*
X108585Y28953D01*
X108600Y28976D01*
X108610Y29001D01*
X108613Y29029D01*
Y28431D01*
D02*
G37*
G36*
X35889Y29035D02*
X35899Y29023D01*
X35916Y29013D01*
X35940Y29004D01*
X35970Y28997D01*
X36007Y28991D01*
X36050Y28986D01*
X36157Y28981D01*
X36221Y28980D01*
Y28480D01*
X36157Y28479D01*
X36007Y28469D01*
X35970Y28463D01*
X35940Y28456D01*
X35916Y28447D01*
X35899Y28437D01*
X35889Y28425D01*
X35886Y28413D01*
Y29048D01*
X35889Y29035D01*
D02*
G37*
G36*
X112134Y28364D02*
X112130Y28386D01*
X112118Y28406D01*
X112098Y28423D01*
X112070Y28438D01*
X112033Y28451D01*
X111989Y28461D01*
X111936Y28470D01*
X111876Y28475D01*
X111730Y28480D01*
Y28980D01*
X111807Y28981D01*
X111936Y28990D01*
X111989Y28999D01*
X112033Y29009D01*
X112070Y29022D01*
X112098Y29037D01*
X112118Y29055D01*
X112130Y29074D01*
X112134Y29096D01*
Y28364D01*
D02*
G37*
G36*
X33449Y28343D02*
X33445Y28369D01*
X33432Y28392D01*
X33410Y28413D01*
X33379Y28431D01*
X33339Y28446D01*
X33291Y28458D01*
X33234Y28468D01*
X33168Y28475D01*
X33010Y28480D01*
Y28980D01*
X33093Y28981D01*
X33234Y28992D01*
X33291Y29002D01*
X33339Y29014D01*
X33379Y29029D01*
X33410Y29047D01*
X33432Y29068D01*
X33445Y29091D01*
X33449Y29117D01*
Y28343D01*
D02*
G37*
G36*
X114039Y29112D02*
X114053Y29085D01*
X114078Y29060D01*
X114111Y29039D01*
X114155Y29021D01*
X114208Y29006D01*
X114271Y28995D01*
X114343Y28987D01*
X114425Y28982D01*
X114517Y28980D01*
Y28480D01*
X114425Y28478D01*
X114271Y28465D01*
X114208Y28454D01*
X114155Y28439D01*
X114111Y28421D01*
X114078Y28400D01*
X114053Y28375D01*
X114039Y28348D01*
X114034Y28317D01*
Y29143D01*
X114039Y29112D01*
D02*
G37*
G36*
X35887Y26506D02*
X35897Y26492D01*
X35915Y26480D01*
X35939Y26469D01*
X35971Y26460D01*
X36010Y26453D01*
X36056Y26447D01*
X36168Y26441D01*
X36235Y26440D01*
Y25940D01*
X36168Y25939D01*
X36010Y25927D01*
X35971Y25920D01*
X35939Y25911D01*
X35915Y25900D01*
X35897Y25888D01*
X35887Y25874D01*
X35883Y25858D01*
Y26522D01*
X35887Y26506D01*
D02*
G37*
G36*
X112144Y25809D02*
X112140Y25834D01*
X112127Y25856D01*
X112105Y25876D01*
X112075Y25893D01*
X112037Y25907D01*
X111990Y25919D01*
X111934Y25928D01*
X111870Y25935D01*
X111716Y25940D01*
Y26440D01*
X111797Y26441D01*
X111934Y26452D01*
X111990Y26461D01*
X112037Y26473D01*
X112075Y26487D01*
X112105Y26504D01*
X112127Y26524D01*
X112140Y26546D01*
X112144Y26571D01*
Y25809D01*
D02*
G37*
G36*
X33449Y25803D02*
X33445Y25829D01*
X33432Y25852D01*
X33410Y25873D01*
X33379Y25891D01*
X33339Y25906D01*
X33291Y25918D01*
X33234Y25928D01*
X33168Y25935D01*
X33010Y25940D01*
Y26440D01*
X33093Y26441D01*
X33234Y26452D01*
X33291Y26462D01*
X33339Y26474D01*
X33379Y26489D01*
X33410Y26507D01*
X33432Y26528D01*
X33445Y26551D01*
X33449Y26577D01*
Y25803D01*
D02*
G37*
G36*
X114039Y26572D02*
X114053Y26545D01*
X114078Y26520D01*
X114111Y26499D01*
X114155Y26481D01*
X114208Y26466D01*
X114271Y26455D01*
X114343Y26447D01*
X114425Y26442D01*
X114517Y26440D01*
Y25940D01*
X114425Y25938D01*
X114271Y25925D01*
X114208Y25914D01*
X114155Y25899D01*
X114111Y25881D01*
X114078Y25860D01*
X114053Y25835D01*
X114039Y25808D01*
X114034Y25777D01*
Y26603D01*
X114039Y26572D01*
D02*
G37*
G36*
X101073Y20734D02*
X101077Y20683D01*
X101085Y20639D01*
X101095Y20600D01*
X101108Y20568D01*
X101124Y20541D01*
X101143Y20521D01*
X101165Y20506D01*
X101190Y20497D01*
X101218Y20494D01*
X100632D01*
X100660Y20497D01*
X100685Y20506D01*
X100707Y20521D01*
X100726Y20541D01*
X100742Y20568D01*
X100755Y20600D01*
X100765Y20639D01*
X100773Y20683D01*
X100777Y20734D01*
X100779Y20790D01*
X101072D01*
X101073Y20734D01*
D02*
G37*
G36*
X101190Y19503D02*
X101165Y19494D01*
X101143Y19479D01*
X101124Y19459D01*
X101108Y19432D01*
X101095Y19400D01*
X101085Y19361D01*
X101077Y19317D01*
X101073Y19266D01*
X101072Y19210D01*
X100779D01*
X100777Y19266D01*
X100773Y19317D01*
X100765Y19361D01*
X100755Y19400D01*
X100742Y19432D01*
X100726Y19459D01*
X100707Y19479D01*
X100685Y19494D01*
X100660Y19503D01*
X100632Y19506D01*
X101218D01*
X101190Y19503D01*
D02*
G37*
G36*
X99006Y18210D02*
X99003Y18218D01*
X98994Y18225D01*
X98980Y18230D01*
X98959Y18236D01*
X98933Y18240D01*
X98901Y18244D01*
X98819Y18248D01*
X98713Y18250D01*
Y18750D01*
X98769Y18750D01*
X98959Y18764D01*
X98980Y18770D01*
X98994Y18775D01*
X99003Y18782D01*
X99006Y18790D01*
Y18210D01*
D02*
G37*
G36*
X102847Y18790D02*
X102856Y18782D01*
X102871Y18774D01*
X102892Y18768D01*
X102920Y18762D01*
X102953Y18758D01*
X103038Y18752D01*
X103147Y18750D01*
Y18250D01*
X103089Y18250D01*
X102920Y18238D01*
X102892Y18232D01*
X102871Y18226D01*
X102856Y18218D01*
X102847Y18210D01*
X102844Y18200D01*
Y18800D01*
X102847Y18790D01*
D02*
G37*
G36*
X102065Y12540D02*
X102062Y12513D01*
X102086Y12266D01*
X102166Y12002D01*
X102296Y11759D01*
X102471Y11546D01*
X102684Y11371D01*
X102927Y11241D01*
X103191Y11161D01*
X103405Y11140D01*
X103419Y11145D01*
X103546Y11061D01*
Y11027D01*
X104050D01*
X104554D01*
Y11061D01*
X104668Y11151D01*
X104682Y11155D01*
X104734Y11161D01*
X104944Y11210D01*
X105147Y11278D01*
X105343Y11367D01*
X105530Y11474D01*
X105705Y11599D01*
X105876Y11748D01*
X105960Y11833D01*
X105962Y11835D01*
X105964Y11837D01*
X106064Y11913D01*
X106162Y11990D01*
X106165Y11991D01*
X106167Y11993D01*
X106283Y12041D01*
X106398Y12090D01*
X106401Y12090D01*
X106404Y12091D01*
X106528Y12107D01*
X106652Y12124D01*
X106655Y12124D01*
X106658Y12124D01*
X108275Y12124D01*
X114842D01*
Y11651D01*
X108325D01*
X108275Y11661D01*
X106658Y11661D01*
X106656Y11661D01*
X106655Y11661D01*
X106606Y11651D01*
X106150D01*
Y11372D01*
X105992Y11234D01*
X105780Y11083D01*
X105555Y10953D01*
X105317Y10846D01*
X105070Y10763D01*
X104935Y10732D01*
X104808Y10758D01*
Y10758D01*
X104554D01*
Y10773D01*
X104050D01*
X103546D01*
Y10758D01*
X103292D01*
Y10758D01*
X103210Y10683D01*
X103098Y10694D01*
X102745Y10801D01*
X102419Y10975D01*
X102134Y11209D01*
X101900Y11494D01*
X101726Y11820D01*
X101619Y12173D01*
X101584Y12531D01*
X101585Y12540D01*
Y17146D01*
X102065D01*
Y12540D01*
D02*
G37*
G36*
X108275Y11143D02*
Y8857D01*
X106658Y8857D01*
X106549Y8968D01*
X106314Y9172D01*
X106061Y9353D01*
X105791Y9508D01*
X105507Y9636D01*
X105212Y9735D01*
X104908Y9805D01*
X104600Y9845D01*
X104444Y9854D01*
X104444Y9854D01*
X104444Y10142D01*
X104808D01*
Y10181D01*
X104908Y10194D01*
X105211Y10264D01*
X105506Y10364D01*
X105790Y10492D01*
X106060Y10647D01*
X106314Y10827D01*
X106549Y11032D01*
X106658Y11143D01*
Y11143D01*
X108275Y11143D01*
D02*
G37*
G36*
X43842Y11143D02*
X43951Y11032D01*
X44186Y10828D01*
X44439Y10647D01*
X44709Y10492D01*
X44993Y10364D01*
X45288Y10265D01*
X45592Y10195D01*
X45900Y10155D01*
X46056Y10146D01*
X46125D01*
Y9854D01*
X46056Y9854D01*
X45901Y9846D01*
X45592Y9806D01*
X45289Y9736D01*
X44994Y9636D01*
X44710Y9508D01*
X44440Y9353D01*
X44186Y9173D01*
X43951Y8968D01*
X43842Y8857D01*
X42225Y8857D01*
Y11143D01*
X43842Y11143D01*
D02*
G37*
G36*
X100265Y12540D02*
X100261D01*
X100300Y12039D01*
X100417Y11550D01*
X100610Y11085D01*
X100873Y10657D01*
X101199Y10274D01*
X101582Y9948D01*
X102010Y9685D01*
X102475Y9492D01*
X102964Y9375D01*
X103292Y9349D01*
Y9242D01*
X104808D01*
Y9242D01*
X104935Y9268D01*
X105070Y9236D01*
X105317Y9153D01*
X105555Y9046D01*
X105781Y8917D01*
X105993Y8765D01*
X106150Y8628D01*
Y8349D01*
X106606D01*
X106655Y8339D01*
X106657Y8339D01*
X106658Y8339D01*
X108275Y8339D01*
X108325Y8349D01*
X114842D01*
Y7876D01*
X108275D01*
X106658Y7876D01*
X106655Y7876D01*
X106652Y7876D01*
X106528Y7893D01*
X106404Y7909D01*
X106401Y7910D01*
X106398Y7910D01*
X106283Y7959D01*
X106167Y8007D01*
X106165Y8009D01*
X106162Y8010D01*
X106063Y8087D01*
X105964Y8163D01*
X105962Y8165D01*
X105960Y8167D01*
X105876Y8252D01*
X105705Y8401D01*
X105530Y8526D01*
X105344Y8633D01*
X105148Y8721D01*
X104944Y8790D01*
X104735Y8838D01*
X104663Y8847D01*
X104554Y8802D01*
X104300Y8769D01*
X103800D01*
X103546Y8802D01*
X103389Y8867D01*
X103388Y8867D01*
X103368Y8868D01*
X103337D01*
X103324Y8872D01*
X102966Y8900D01*
X102891Y8916D01*
X102814Y8924D01*
X102403Y9023D01*
X102331Y9050D01*
X102257Y9070D01*
X101866Y9232D01*
X101799Y9271D01*
X101729Y9302D01*
X101368Y9523D01*
X101308Y9572D01*
X101244Y9614D01*
X100922Y9888D01*
X100870Y9945D01*
X100813Y9997D01*
X100539Y10319D01*
X100497Y10383D01*
X100448Y10443D01*
X100227Y10804D01*
X100196Y10874D01*
X100157Y10941D01*
X99995Y11332D01*
X99975Y11406D01*
X99948Y11478D01*
X99849Y11889D01*
X99841Y11966D01*
X99825Y12041D01*
X99797Y12399D01*
X99793Y12412D01*
Y12443D01*
X99792Y12463D01*
X99793Y12481D01*
X99785Y12540D01*
Y17146D01*
X100265D01*
Y12540D01*
D02*
G37*
%LPC*%
G36*
X87317Y63300D02*
X87133D01*
X86955Y63252D01*
X86795Y63160D01*
X86665Y63030D01*
X86573Y62870D01*
X86525Y62692D01*
Y62508D01*
X86573Y62330D01*
X86665Y62170D01*
X86795Y62040D01*
X86955Y61948D01*
X87133Y61900D01*
X87181D01*
X87192Y61897D01*
X87244Y61893D01*
X87288Y61885D01*
X87292Y61884D01*
X87329Y61795D01*
X87328Y61740D01*
X86887Y61300D01*
X85875D01*
Y61234D01*
X85199D01*
X85195Y61241D01*
X85193Y61242D01*
X85192Y61244D01*
X85160Y61265D01*
X85129Y61287D01*
X85127Y61287D01*
X85125Y61288D01*
X85088Y61296D01*
X85052Y61304D01*
X84962Y61306D01*
X84888Y61311D01*
X84827Y61319D01*
X84780Y61329D01*
X84750Y61338D01*
Y61500D01*
X84599D01*
X84579Y61530D01*
Y61720D01*
X84507Y61896D01*
X84372Y62031D01*
X84196Y62104D01*
X84005D01*
X83829Y62031D01*
X83694Y61896D01*
X83621Y61720D01*
Y61530D01*
X83602Y61500D01*
X83450D01*
X83450Y60259D01*
X83396Y60154D01*
X83396Y60095D01*
Y59577D01*
X84100D01*
X84547D01*
Y59753D01*
X84550Y59743D01*
X84560Y59734D01*
X84575Y59726D01*
X84596Y59719D01*
X84623Y59713D01*
X84657Y59708D01*
X84741Y59702D01*
X84804Y59701D01*
Y60154D01*
X84758Y60243D01*
X84769Y60303D01*
X84795Y60374D01*
X84824Y60380D01*
X84965Y60394D01*
X85052Y60396D01*
X85088Y60404D01*
X85125Y60412D01*
X85127Y60413D01*
X85129Y60413D01*
X85160Y60435D01*
X85192Y60456D01*
X85193Y60458D01*
X85195Y60459D01*
X85199Y60466D01*
X85875D01*
Y60400D01*
X86607D01*
X86660Y60273D01*
X86521Y60134D01*
X86471Y60135D01*
X86354Y60179D01*
X86354Y60179D01*
X86354Y60179D01*
X85777D01*
Y59475D01*
X85650D01*
Y59348D01*
X85207D01*
Y59097D01*
X85203Y59117D01*
X85192Y59134D01*
X85175Y59150D01*
X85150Y59163D01*
X85118Y59174D01*
X85078Y59184D01*
X85032Y59191D01*
X84979Y59196D01*
X84946Y59197D01*
Y58771D01*
X85278D01*
X85327Y58654D01*
X84212Y57539D01*
X84162Y57463D01*
X84144Y57375D01*
Y55676D01*
X84135Y55670D01*
X84134Y55668D01*
X84131Y55666D01*
X84111Y55635D01*
X84089Y55605D01*
X84089Y55602D01*
X84087Y55600D01*
X84080Y55564D01*
X84072Y55527D01*
X84072Y55525D01*
X83926D01*
Y54625D01*
X84972D01*
X84972Y54623D01*
X84980Y54587D01*
X84987Y54550D01*
X84989Y54548D01*
X84989Y54545D01*
X85009Y54517D01*
X85014Y54498D01*
X85018Y54477D01*
X85025Y54433D01*
X85012Y54375D01*
X85009Y54362D01*
X84988Y54332D01*
X84988Y54330D01*
X84987Y54328D01*
X84979Y54292D01*
X84972Y54258D01*
X84845Y54185D01*
X84715Y54055D01*
X84623Y53895D01*
X84575Y53717D01*
Y53533D01*
X84623Y53355D01*
X84715Y53195D01*
X84845Y53065D01*
X85005Y52973D01*
X85183Y52925D01*
X85367D01*
X85545Y52973D01*
X85705Y53065D01*
X85835Y53195D01*
X85927Y53355D01*
X85975Y53533D01*
Y53717D01*
X85927Y53895D01*
X85835Y54055D01*
X85705Y54185D01*
X85578Y54259D01*
X85571Y54290D01*
X85563Y54328D01*
X85563Y54329D01*
X85563Y54330D01*
X85541Y54361D01*
X85540Y54368D01*
X85525Y54436D01*
X85539Y54509D01*
X85541Y54516D01*
X85562Y54545D01*
X85562Y54548D01*
X85564Y54550D01*
X85571Y54587D01*
X85579Y54623D01*
X85579Y54625D01*
X85726D01*
Y55418D01*
X85793Y55580D01*
Y55770D01*
X85720Y55946D01*
X85585Y56081D01*
X85409Y56154D01*
X85218D01*
X85042Y56081D01*
X84908Y55946D01*
X84835Y55770D01*
Y55580D01*
X84805Y55535D01*
X84679Y55527D01*
X84671Y55564D01*
X84664Y55600D01*
X84662Y55602D01*
X84662Y55605D01*
X84640Y55635D01*
X84620Y55666D01*
X84618Y55668D01*
X84616Y55670D01*
X84607Y55676D01*
Y57279D01*
X85751Y58423D01*
X86230D01*
X86272Y58388D01*
Y58202D01*
X86776D01*
Y58075D01*
X86903D01*
Y57571D01*
X87280D01*
X87280Y57571D01*
X87399Y57553D01*
X87400Y57550D01*
X87401Y57548D01*
X87402Y57545D01*
X87423Y57515D01*
X87444Y57484D01*
X87446Y57482D01*
X87448Y57480D01*
X87457Y57475D01*
Y57275D01*
X87448Y57270D01*
X87446Y57268D01*
X87444Y57266D01*
X87423Y57235D01*
X87402Y57205D01*
X87401Y57202D01*
X87400Y57200D01*
X87392Y57163D01*
X87384Y57127D01*
X87384Y57125D01*
X87250D01*
Y56225D01*
X88296D01*
X88296Y56223D01*
X88305Y56186D01*
X88312Y56150D01*
X88313Y56148D01*
X88314Y56145D01*
X88335Y56115D01*
X88356Y56084D01*
X88358Y56082D01*
X88360Y56080D01*
X88369Y56074D01*
Y55682D01*
X88362Y55680D01*
X88336Y55661D01*
X88308Y55643D01*
X88286Y55623D01*
X88271Y55610D01*
X88259Y55601D01*
X88250Y55596D01*
X88250Y55596D01*
X88142Y55625D01*
X87958D01*
X87780Y55577D01*
X87620Y55485D01*
X87490Y55355D01*
X87398Y55195D01*
X87350Y55017D01*
Y54833D01*
X87398Y54655D01*
X87490Y54495D01*
X87620Y54365D01*
X87780Y54273D01*
X87958Y54225D01*
X88142D01*
X88320Y54273D01*
X88480Y54365D01*
X88610Y54495D01*
X88702Y54655D01*
X88750Y54833D01*
Y55017D01*
X88707Y55178D01*
X88712Y55184D01*
X88724Y55199D01*
X88744Y55220D01*
X88745Y55222D01*
X88746Y55223D01*
X88766Y55255D01*
X88786Y55288D01*
X88787Y55289D01*
X88788Y55291D01*
X88793Y55328D01*
X88800Y55366D01*
X88799Y55368D01*
X88800Y55369D01*
X88795Y55389D01*
X88814Y55417D01*
X88832Y55506D01*
Y56074D01*
X88841Y56080D01*
X88842Y56082D01*
X88845Y56084D01*
X88865Y56115D01*
X88887Y56145D01*
X88887Y56148D01*
X88889Y56150D01*
X88896Y56186D01*
X88904Y56223D01*
X88904Y56225D01*
X89050D01*
Y56346D01*
X89053Y56346D01*
X89089Y56354D01*
X89125Y56362D01*
X89128Y56363D01*
X89130Y56364D01*
X89161Y56385D01*
X89188Y56403D01*
X89215Y56385D01*
X89246Y56364D01*
X89248Y56363D01*
X89250Y56362D01*
X89251Y56362D01*
X89317Y56295D01*
X89315Y56246D01*
X89271Y56129D01*
X89271Y56129D01*
X89271Y56129D01*
Y55752D01*
X89775D01*
X90279D01*
Y55942D01*
X90397Y55990D01*
X90525Y55862D01*
Y55750D01*
X90706D01*
X90725Y55746D01*
X92375D01*
X92444Y55760D01*
X92457Y55759D01*
X92571Y55688D01*
Y55527D01*
X93075D01*
Y55400D01*
X93202D01*
Y54896D01*
X93579D01*
X93579Y54896D01*
X93579Y54896D01*
X93626Y54896D01*
X93663Y54831D01*
X93607Y54729D01*
X93377D01*
Y54025D01*
Y53321D01*
X93954D01*
Y53321D01*
X94000Y53375D01*
X94153D01*
X94171Y53348D01*
Y53157D01*
X94244Y52981D01*
X94379Y52846D01*
X94555Y52773D01*
X94746D01*
X94922Y52846D01*
X95057Y52981D01*
X95129Y53157D01*
Y53348D01*
X95148Y53375D01*
X95300D01*
Y54675D01*
X94827D01*
X94806Y54784D01*
X94722Y54909D01*
X94722Y54909D01*
X94525Y55105D01*
Y55850D01*
X94460D01*
Y55977D01*
X94460Y55977D01*
X94433Y56114D01*
X94435Y56132D01*
X94500Y56236D01*
X94506Y56241D01*
X95141D01*
X95145Y56233D01*
X95147Y56232D01*
X95148Y56231D01*
X95179Y56210D01*
X95211Y56188D01*
X95212Y56188D01*
X95214Y56187D01*
X95251Y56179D01*
X95288Y56171D01*
X95368Y56170D01*
X95510Y56159D01*
X95568Y56151D01*
X95622Y56140D01*
X95669Y56127D01*
X95710Y56113D01*
X95744Y56098D01*
X95773Y56083D01*
X95788Y56072D01*
X95795Y56065D01*
X95955Y55973D01*
X96133Y55925D01*
X96317D01*
X96495Y55973D01*
X96655Y56065D01*
X96785Y56195D01*
X96877Y56355D01*
X96925Y56533D01*
Y56717D01*
X96877Y56895D01*
X96785Y57055D01*
X96655Y57185D01*
X96495Y57277D01*
X96317Y57325D01*
X96133D01*
X95955Y57277D01*
X95795Y57185D01*
X95788Y57178D01*
X95773Y57167D01*
X95744Y57152D01*
X95710Y57137D01*
X95669Y57123D01*
X95622Y57110D01*
X95568Y57099D01*
X95510Y57091D01*
X95368Y57080D01*
X95288Y57079D01*
X95251Y57071D01*
X95214Y57063D01*
X95212Y57062D01*
X95211Y57062D01*
X95179Y57040D01*
X95148Y57019D01*
X95147Y57018D01*
X95145Y57017D01*
X95141Y57009D01*
X94400D01*
Y57075D01*
X93389D01*
X92935Y57529D01*
X92984Y57646D01*
X94175D01*
X94175Y57646D01*
X94195Y57650D01*
X94375D01*
Y57777D01*
X94389Y57797D01*
X94389Y57797D01*
X94404Y57875D01*
X94404Y59350D01*
X94389Y59428D01*
X94375Y59448D01*
Y59550D01*
X94220D01*
X94200Y59554D01*
X90401D01*
X90328Y59554D01*
X90328Y59554D01*
X90275Y59550D01*
Y59543D01*
X90250Y59538D01*
X90184Y59494D01*
X90181Y59492D01*
X90080Y59450D01*
X90071D01*
X90071Y59450D01*
X90056Y59447D01*
X89929Y59533D01*
Y59598D01*
X89425D01*
Y59852D01*
X89929D01*
Y60229D01*
X89384D01*
X89335Y60346D01*
X89735Y60746D01*
X94157D01*
X94157Y60746D01*
X94177Y60750D01*
X94375D01*
Y60948D01*
X94379Y60968D01*
Y62450D01*
X94375Y62470D01*
Y62650D01*
X94195D01*
X94175Y62654D01*
X88325D01*
X88247Y62638D01*
X88181Y62594D01*
X88169Y62584D01*
X88021Y62600D01*
X88014Y62606D01*
X87953Y62685D01*
X87933Y62715D01*
X87919Y62740D01*
X87913Y62754D01*
X87907Y62773D01*
X87900Y62786D01*
X87877Y62870D01*
X87785Y63030D01*
X87655Y63160D01*
X87495Y63252D01*
X87317Y63300D01*
D02*
G37*
G36*
X85523Y60179D02*
X84946D01*
Y59703D01*
X85032Y59709D01*
X85078Y59716D01*
X85118Y59726D01*
X85150Y59737D01*
X85175Y59750D01*
X85192Y59766D01*
X85203Y59783D01*
X85207Y59803D01*
Y59602D01*
X85523D01*
Y60179D01*
D02*
G37*
G36*
X84547Y59323D02*
X84227D01*
Y58746D01*
X84804D01*
Y59200D01*
X84793Y59199D01*
X84623Y59187D01*
X84596Y59181D01*
X84575Y59174D01*
X84560Y59166D01*
X84550Y59157D01*
X84547Y59147D01*
Y59323D01*
D02*
G37*
G36*
X83973D02*
X83396D01*
Y58746D01*
X83973D01*
Y59323D01*
D02*
G37*
G36*
X86649Y57948D02*
X86272D01*
Y57571D01*
X86649D01*
Y57948D01*
D02*
G37*
G36*
X90279Y55498D02*
X89902D01*
Y55121D01*
X90279D01*
Y55498D01*
D02*
G37*
G36*
X89648D02*
X89271D01*
Y55121D01*
X89648D01*
Y55498D01*
D02*
G37*
G36*
X92948Y55273D02*
X92571D01*
Y54896D01*
X92948D01*
Y55273D01*
D02*
G37*
G36*
X92379Y55304D02*
X91552D01*
Y54702D01*
X92379D01*
Y55304D01*
D02*
G37*
G36*
X91298D02*
X90471D01*
Y54702D01*
X91298D01*
Y55304D01*
D02*
G37*
G36*
X93123Y54729D02*
X92546D01*
Y54276D01*
X92687Y54287D01*
X92724Y54295D01*
X92754Y54303D01*
X92777Y54313D01*
X92793Y54325D01*
X92803Y54338D01*
X92807Y54353D01*
Y54152D01*
X93123D01*
Y54729D01*
D02*
G37*
G36*
X92379Y54448D02*
X91552D01*
Y54106D01*
X91754D01*
X91739Y54103D01*
X91725Y54093D01*
X91714Y54076D01*
X91704Y54053D01*
X91695Y54023D01*
X91688Y53987D01*
X91682Y53944D01*
X91677Y53846D01*
X92379D01*
Y54448D01*
D02*
G37*
G36*
X91298D02*
X90471D01*
Y53846D01*
X91174D01*
X91163Y53987D01*
X91156Y54023D01*
X91147Y54053D01*
X91137Y54076D01*
X91126Y54093D01*
X91112Y54103D01*
X91097Y54106D01*
X91298D01*
Y54448D01*
D02*
G37*
G36*
X93123Y53898D02*
X92807D01*
Y53697D01*
X92803Y53712D01*
X92793Y53725D01*
X92777Y53737D01*
X92754Y53747D01*
X92724Y53755D01*
X92687Y53763D01*
X92644Y53768D01*
X92546Y53774D01*
Y53321D01*
X93123D01*
Y53898D01*
D02*
G37*
%LPD*%
G36*
X84351Y61562D02*
X84363Y61413D01*
X84370Y61377D01*
X84379Y61347D01*
X84389Y61324D01*
X84400Y61307D01*
X84414Y61297D01*
X84429Y61294D01*
X83772D01*
X83787Y61297D01*
X83801Y61307D01*
X83812Y61324D01*
X83822Y61347D01*
X83831Y61377D01*
X83838Y61413D01*
X83843Y61456D01*
X83850Y61562D01*
X83850Y61625D01*
X84350D01*
X84351Y61562D01*
D02*
G37*
G36*
X84552Y61260D02*
X84567Y61226D01*
X84592Y61197D01*
X84627Y61171D01*
X84672Y61149D01*
X84727Y61132D01*
X84792Y61118D01*
X84867Y61108D01*
X84952Y61102D01*
X85047Y61100D01*
Y60600D01*
X84952Y60598D01*
X84792Y60582D01*
X84727Y60568D01*
X84672Y60551D01*
X84627Y60529D01*
X84592Y60503D01*
X84567Y60474D01*
X84552Y60440D01*
X84547Y60403D01*
Y61297D01*
X84552Y61260D01*
D02*
G37*
G36*
X87722Y62682D02*
X87737Y62647D01*
X87759Y62609D01*
X87787Y62567D01*
X87860Y62472D01*
X87906Y62418D01*
X88078Y62235D01*
X88024Y62148D01*
X88325Y62450D01*
X94175D01*
Y60968D01*
X94157Y60950D01*
X89650D01*
X88675Y59975D01*
Y59475D01*
X88595D01*
X88589Y59473D01*
X88574Y59463D01*
X88561Y59449D01*
X88550Y59430D01*
X88541Y59408D01*
X88534Y59382D01*
X88529Y59351D01*
X88526Y59317D01*
X88525Y59278D01*
X88325D01*
X88324Y59317D01*
X88321Y59351D01*
X88316Y59382D01*
X88309Y59408D01*
X88300Y59430D01*
X88289Y59449D01*
X88276Y59463D01*
X88261Y59473D01*
X88256Y59475D01*
X88175D01*
X87725Y59025D01*
X86775D01*
X86751Y59011D01*
X86718Y58988D01*
X86683Y58960D01*
X86604Y58887D01*
X86462Y59028D01*
X86502Y59069D01*
X86564Y59143D01*
X86587Y59175D01*
X86600Y59199D01*
Y59925D01*
X86975Y60300D01*
Y61100D01*
X87739Y61863D01*
X87689Y61905D01*
X87631Y61949D01*
X87571Y61988D01*
X87512Y62020D01*
X87452Y62047D01*
X87392Y62069D01*
X87331Y62085D01*
X87270Y62095D01*
X87208Y62100D01*
X87712Y62712D01*
X87722Y62682D01*
D02*
G37*
G36*
X89600Y59541D02*
X89584Y59512D01*
X89571Y59481D01*
X89625D01*
X89606Y59479D01*
X89589Y59473D01*
X89574Y59463D01*
X89561Y59449D01*
X89560Y59446D01*
X89559Y59442D01*
X89548Y59400D01*
X89542Y59362D01*
X89547Y59347D01*
X89555Y59331D01*
X89564Y59316D01*
X89575Y59302D01*
X89586Y59289D01*
X89533D01*
X89529Y59248D01*
X89526Y59189D01*
X89525Y59125D01*
X89325D01*
X89325Y59189D01*
X89316Y59289D01*
X89264D01*
X89276Y59302D01*
X89286Y59316D01*
X89296Y59331D01*
X89303Y59347D01*
X89309Y59362D01*
X89302Y59400D01*
X89292Y59442D01*
X89291Y59446D01*
X89289Y59449D01*
X89276Y59463D01*
X89261Y59473D01*
X89244Y59479D01*
X89225Y59481D01*
X89279D01*
X89267Y59512D01*
X89251Y59541D01*
X89233Y59565D01*
X89617D01*
X89600Y59541D01*
D02*
G37*
G36*
X87922Y58256D02*
X87928Y58239D01*
X87938Y58224D01*
X87952Y58211D01*
X87970Y58200D01*
X87993Y58191D01*
X88019Y58184D01*
X88049Y58179D01*
X88084Y58176D01*
X88123Y58175D01*
Y57975D01*
X88084Y57974D01*
X88049Y57971D01*
X88019Y57966D01*
X87993Y57959D01*
X87970Y57950D01*
X87952Y57939D01*
X87938Y57926D01*
X87928Y57911D01*
X87922Y57894D01*
X87919Y57875D01*
Y58275D01*
X87922Y58256D01*
D02*
G37*
G36*
X94200Y57875D02*
X94175Y57850D01*
X90475Y57850D01*
X90175Y58150D01*
X89125D01*
Y58350D01*
X89185D01*
X89295Y58396D01*
X89380Y58480D01*
X89425Y58590D01*
Y58600D01*
X89471Y58646D01*
X89521D01*
X89697Y58719D01*
X89832Y58854D01*
X89904Y59030D01*
Y59079D01*
X90071Y59246D01*
X90121D01*
X90297Y59319D01*
X90328Y59350D01*
X94200D01*
X94200Y57875D01*
D02*
G37*
G36*
X87869Y57826D02*
X87852Y57820D01*
X87837Y57810D01*
X87824Y57796D01*
X87813Y57778D01*
X87804Y57756D01*
X87797Y57730D01*
X87792Y57700D01*
X87789Y57666D01*
X87788Y57628D01*
X87588D01*
X87587Y57666D01*
X87584Y57700D01*
X87579Y57730D01*
X87572Y57756D01*
X87563Y57778D01*
X87552Y57796D01*
X87539Y57810D01*
X87524Y57820D01*
X87507Y57826D01*
X87488Y57828D01*
X87888D01*
X87869Y57826D01*
D02*
G37*
G36*
X87789Y57084D02*
X87792Y57050D01*
X87797Y57020D01*
X87804Y56994D01*
X87813Y56972D01*
X87824Y56954D01*
X87837Y56940D01*
X87852Y56930D01*
X87869Y56924D01*
X87888Y56922D01*
X87488D01*
X87507Y56924D01*
X87524Y56930D01*
X87539Y56940D01*
X87552Y56954D01*
X87563Y56972D01*
X87572Y56994D01*
X87579Y57020D01*
X87584Y57050D01*
X87587Y57084D01*
X87588Y57122D01*
X87788D01*
X87789Y57084D01*
D02*
G37*
G36*
X88846Y56831D02*
X88852Y56814D01*
X88863Y56799D01*
X88877Y56786D01*
X88895Y56775D01*
X88917Y56766D01*
X88944Y56759D01*
X88974Y56754D01*
X89009Y56751D01*
X89047Y56750D01*
Y56550D01*
X89009Y56549D01*
X88974Y56546D01*
X88944Y56541D01*
X88917Y56534D01*
X88895Y56525D01*
X88877Y56514D01*
X88863Y56501D01*
X88852Y56486D01*
X88846Y56469D01*
X88844Y56450D01*
Y56850D01*
X88846Y56831D01*
D02*
G37*
G36*
X95920Y56229D02*
X95880Y56257D01*
X95834Y56281D01*
X95784Y56303D01*
X95728Y56322D01*
X95668Y56338D01*
X95603Y56352D01*
X95533Y56362D01*
X95377Y56374D01*
X95292Y56375D01*
X95292Y56875D01*
X95377Y56876D01*
X95533Y56888D01*
X95603Y56898D01*
X95668Y56912D01*
X95728Y56928D01*
X95784Y56947D01*
X95834Y56969D01*
X95880Y56993D01*
X95920Y57021D01*
X95920Y56229D01*
D02*
G37*
G36*
X88781Y56429D02*
X88764Y56423D01*
X88749Y56413D01*
X88736Y56399D01*
X88725Y56380D01*
X88716Y56358D01*
X88709Y56332D01*
X88704Y56301D01*
X88701Y56267D01*
X88700Y56228D01*
X88500D01*
X88499Y56267D01*
X88496Y56301D01*
X88491Y56332D01*
X88484Y56358D01*
X88475Y56380D01*
X88464Y56399D01*
X88451Y56413D01*
X88436Y56423D01*
X88419Y56429D01*
X88400Y56431D01*
X88800D01*
X88781Y56429D01*
D02*
G37*
G36*
X89125Y57946D02*
X89902D01*
X90298Y57550D01*
X92625D01*
X93300Y56875D01*
Y56375D01*
X92800D01*
X92375Y55950D01*
X90725D01*
X90300Y56375D01*
X89525D01*
X89351Y56549D01*
X89329Y56550D01*
Y56572D01*
X89104Y56796D01*
Y57179D01*
X89025D01*
Y57850D01*
X89122Y57947D01*
X89125Y57946D01*
D02*
G37*
G36*
X88596Y55360D02*
X88571Y55334D01*
X88550Y55308D01*
X88532Y55283D01*
X88518Y55259D01*
X88507Y55236D01*
X88500Y55213D01*
X88497Y55190D01*
X88497Y55169D01*
X88500Y55148D01*
X88507Y55128D01*
X88212Y55398D01*
X88233Y55393D01*
X88255Y55391D01*
X88277Y55392D01*
X88300Y55397D01*
X88323Y55405D01*
X88347Y55416D01*
X88371Y55431D01*
X88396Y55449D01*
X88422Y55471D01*
X88448Y55495D01*
X88596Y55360D01*
D02*
G37*
G36*
X85195Y55520D02*
X85195Y55522D01*
X85395D01*
X85395Y55503D01*
X85461Y55498D01*
X85448Y55486D01*
X85437Y55473D01*
X85427Y55459D01*
X85418Y55444D01*
X85411Y55427D01*
X85406Y55410D01*
X85411Y55392D01*
X85420Y55370D01*
X85431Y55351D01*
X85444Y55337D01*
X85459Y55327D01*
X85476Y55321D01*
X85495Y55319D01*
X85095D01*
X85114Y55321D01*
X85131Y55327D01*
X85146Y55337D01*
X85159Y55351D01*
X85170Y55370D01*
X85179Y55392D01*
X85186Y55418D01*
X85187Y55424D01*
X85186Y55428D01*
X85181Y55447D01*
X85175Y55465D01*
X85168Y55481D01*
X85159Y55497D01*
X85150Y55511D01*
X85140Y55525D01*
X85195Y55520D01*
D02*
G37*
G36*
X84477Y55483D02*
X84480Y55449D01*
X84485Y55418D01*
X84492Y55392D01*
X84501Y55370D01*
X84512Y55351D01*
X84525Y55337D01*
X84540Y55327D01*
X84557Y55321D01*
X84576Y55319D01*
X84176D01*
X84195Y55321D01*
X84212Y55327D01*
X84227Y55337D01*
X84240Y55351D01*
X84251Y55370D01*
X84260Y55392D01*
X84267Y55418D01*
X84272Y55449D01*
X84275Y55483D01*
X84276Y55522D01*
X84476D01*
X84477Y55483D01*
D02*
G37*
G36*
X85457Y54826D02*
X85440Y54820D01*
X85425Y54810D01*
X85412Y54796D01*
X85401Y54778D01*
X85392Y54756D01*
X85385Y54730D01*
X85380Y54700D01*
X85377Y54666D01*
X85376Y54628D01*
X85176D01*
X85175Y54666D01*
X85172Y54700D01*
X85167Y54730D01*
X85160Y54756D01*
X85151Y54778D01*
X85140Y54796D01*
X85127Y54810D01*
X85112Y54820D01*
X85095Y54826D01*
X85076Y54828D01*
X85476D01*
X85457Y54826D01*
D02*
G37*
G36*
X85375Y54225D02*
X85381Y54148D01*
X85384Y54135D01*
X85387Y54125D01*
X85391Y54117D01*
X85396Y54112D01*
X85400Y54109D01*
X85150D01*
X85154Y54112D01*
X85159Y54117D01*
X85163Y54125D01*
X85166Y54135D01*
X85169Y54148D01*
X85171Y54163D01*
X85174Y54202D01*
X85175Y54250D01*
X85375D01*
X85375Y54225D01*
D02*
G37*
G36*
X94962Y53575D02*
X94949Y53565D01*
X94938Y53549D01*
X94928Y53526D01*
X94919Y53497D01*
X94913Y53461D01*
X94907Y53418D01*
X94901Y53314D01*
X94900Y53252D01*
X94400D01*
X94400Y53314D01*
X94388Y53461D01*
X94382Y53497D01*
X94373Y53526D01*
X94363Y53549D01*
X94352Y53565D01*
X94339Y53575D01*
X94325Y53578D01*
X94976D01*
X94962Y53575D01*
D02*
G37*
D11*
X88382Y57447D02*
Y57507D01*
X88725Y57850D01*
X85655Y58654D02*
X86230D01*
X87050Y59475D01*
X84376Y57375D02*
X85655Y58654D01*
X84376Y55075D02*
Y57375D01*
X85275Y53625D02*
Y54250D01*
X85276Y54250D01*
Y55075D01*
X85295Y55094D02*
Y55656D01*
X85276Y55075D02*
X85295Y55094D01*
Y55656D02*
X85314Y55675D01*
X88050Y54956D02*
X88600Y55506D01*
X88050Y54925D02*
Y54956D01*
X88600Y55506D02*
Y56675D01*
X88400Y58250D02*
X88725D01*
X88226Y58075D02*
X88400Y58250D01*
X87676Y58075D02*
X88226D01*
X88625Y56650D02*
X89751D01*
X88600Y56675D02*
X88625Y56650D01*
X89751D02*
X89775Y56625D01*
X88425Y58950D02*
Y59725D01*
Y58950D02*
X88725Y58650D01*
X89425Y59125D02*
Y59725D01*
Y58950D02*
Y59125D01*
X89125Y58650D02*
X89425Y58950D01*
X87688Y56687D02*
Y58063D01*
X87676Y58075D02*
X87688Y58063D01*
Y56687D02*
X87700Y56675D01*
D15*
X89125Y57850D02*
D03*
X88725D02*
D03*
X89125Y58250D02*
D03*
X88725D02*
D03*
X89125Y58650D02*
D03*
X88725D02*
D03*
D16*
X92325Y58600D02*
D03*
Y61700D02*
D03*
D17*
X89425Y59725D02*
D03*
X88425D02*
D03*
X87225Y60850D02*
D03*
X86325D02*
D03*
X86776Y58075D02*
D03*
X87676D02*
D03*
X84376Y55075D02*
D03*
X85276D02*
D03*
X88600Y56675D02*
D03*
X87700D02*
D03*
X93950Y56625D02*
D03*
X93050D02*
D03*
X93075Y55400D02*
D03*
X94075D02*
D03*
X56709Y45261D02*
D03*
X55809D02*
D03*
X57909Y42786D02*
D03*
X57009D02*
D03*
X66684Y46586D02*
D03*
X67684D02*
D03*
X79825Y47325D02*
D03*
X78925D02*
D03*
X81858Y35011D02*
D03*
X80958D02*
D03*
X61609Y41736D02*
D03*
X60609D02*
D03*
X89534Y38761D02*
D03*
X88633D02*
D03*
X84658Y40461D02*
D03*
X83758D02*
D03*
X80312Y42025D02*
D03*
X81312D02*
D03*
X65483Y46586D02*
D03*
X64584D02*
D03*
X65483Y41211D02*
D03*
X64584D02*
D03*
X81900Y47325D02*
D03*
X81000D02*
D03*
X78625Y64075D02*
D03*
X77625D02*
D03*
X68150Y62025D02*
D03*
X69150D02*
D03*
D18*
X84100Y60850D02*
D03*
Y59450D02*
D03*
D19*
X87050Y59475D02*
D03*
X85650D02*
D03*
X94650Y54025D02*
D03*
X93250D02*
D03*
X77800Y62650D02*
D03*
X79200D02*
D03*
X69150Y60625D02*
D03*
X67750D02*
D03*
D20*
X89775Y55625D02*
D03*
Y56625D02*
D03*
X56734Y47536D02*
D03*
Y46636D02*
D03*
X57909Y44886D02*
D03*
Y43986D02*
D03*
X95858Y38761D02*
D03*
Y39661D02*
D03*
X86900Y46075D02*
D03*
Y45175D02*
D03*
X85675Y45175D02*
D03*
Y46175D02*
D03*
X88450Y35575D02*
D03*
Y36575D02*
D03*
X91915Y39661D02*
D03*
Y38761D02*
D03*
X83084Y36111D02*
D03*
Y37111D02*
D03*
X81859Y36211D02*
D03*
Y37111D02*
D03*
X59458Y48986D02*
D03*
Y48086D02*
D03*
X90700Y38750D02*
D03*
Y37750D02*
D03*
X85700Y43975D02*
D03*
Y42975D02*
D03*
X86900Y43975D02*
D03*
Y42975D02*
D03*
X79758Y35011D02*
D03*
Y36011D02*
D03*
X104050Y10900D02*
D03*
Y10000D02*
D03*
Y49100D02*
D03*
Y50000D02*
D03*
D21*
X91425Y56425D02*
D03*
Y54575D02*
D03*
X78154Y67742D02*
D03*
Y65892D02*
D03*
X67616Y65300D02*
D03*
Y63450D02*
D03*
D22*
X61734Y46486D02*
D03*
X59484Y43286D02*
D03*
Y46486D02*
D03*
X61734Y43286D02*
D03*
X86909Y38786D02*
D03*
X84659Y35586D02*
D03*
Y38786D02*
D03*
X86909Y35586D02*
D03*
D23*
X60609Y46486D02*
D03*
Y43286D02*
D03*
X85784Y38786D02*
D03*
Y35586D02*
D03*
D24*
X56848Y52059D02*
D03*
X57484Y52695D02*
D03*
X56070Y54144D02*
D03*
X55434Y53508D02*
D03*
D25*
X54391Y52430D02*
D03*
X55805Y51016D02*
D03*
D26*
X52764Y49389D02*
D03*
D27*
X52458Y42786D02*
D03*
X55208D02*
D03*
D28*
X64534Y37761D02*
D03*
X63583Y39761D02*
D03*
X65483D02*
D03*
D29*
X64084Y43711D02*
D03*
X66883D02*
D03*
X99525Y18500D02*
D03*
X102325D02*
D03*
D30*
X65483Y45211D02*
D03*
X100925Y20000D02*
D03*
D31*
X64608Y34965D02*
D03*
X70508D02*
D03*
D32*
X80312Y43550D02*
D03*
X83512Y45800D02*
D03*
X80312D02*
D03*
X83512Y43550D02*
D03*
D33*
X80312Y44675D02*
D03*
X83512D02*
D03*
D34*
X34651Y66190D02*
D03*
Y68730D02*
D03*
Y71270D02*
D03*
Y73810D02*
D03*
X38349Y66190D02*
D03*
Y68730D02*
D03*
Y71270D02*
D03*
Y73810D02*
D03*
X34651Y26190D02*
D03*
Y28730D02*
D03*
Y31270D02*
D03*
Y33810D02*
D03*
X38349Y26190D02*
D03*
Y28730D02*
D03*
Y31270D02*
D03*
Y33810D02*
D03*
D35*
X76341Y66542D02*
D03*
Y67742D02*
D03*
X69456Y64000D02*
D03*
Y65200D02*
D03*
D36*
X113100Y26190D02*
D03*
Y28730D02*
D03*
Y31270D02*
D03*
Y33810D02*
D03*
X109602D02*
D03*
Y31270D02*
D03*
Y28730D02*
D03*
Y26190D02*
D03*
X113100Y66710D02*
D03*
Y69250D02*
D03*
Y71790D02*
D03*
Y74330D02*
D03*
X109602D02*
D03*
Y71790D02*
D03*
Y69250D02*
D03*
Y66710D02*
D03*
D37*
X64675Y52456D02*
D03*
Y49656D02*
D03*
D38*
X66175Y51056D02*
D03*
D42*
X74250Y34965D02*
D03*
X76250D02*
D03*
X75250Y33965D02*
D03*
D66*
X90675Y38794D02*
G03*
X90708Y38761I33J0D01*
G01*
X100925Y36221D02*
G03*
X98385Y38761I-2540J0D01*
G01*
X100925Y12540D02*
G03*
X103465Y10000I2540J0D01*
G01*
X98398Y50000D02*
G03*
X95858Y47460I0J-2540D01*
G01*
Y39661D02*
Y47460D01*
X90708Y38761D02*
X98385D01*
X100925Y12540D02*
Y20000D01*
Y36221D01*
X110849Y10000D02*
X112500D01*
X104050D02*
X110849D01*
X103465D02*
X104050D01*
X98398Y50000D02*
X104050D01*
X112500D01*
D67*
X70650Y62025D02*
G03*
X70675Y62050I0J25D01*
G01*
X69456Y64000D02*
G03*
X69150Y63694I0J-306D01*
G01*
X86201Y58070D02*
X86206Y58075D01*
X86776D01*
X64008Y41211D02*
X64584D01*
X83183Y40461D02*
X83758D01*
X79758Y36011D02*
Y36611D01*
X83512Y44675D02*
X84825D01*
X80312Y42025D02*
Y43550D01*
Y41442D02*
Y42025D01*
X81312D02*
X81912D01*
X94650Y53252D02*
Y54025D01*
X69150Y60625D02*
X69179Y60596D01*
Y59844D02*
Y60596D01*
X63886Y54551D02*
X69179Y59844D01*
X81293Y40461D02*
X83183D01*
X80312Y41442D02*
X81293Y40461D01*
X60435Y54551D02*
X63886D01*
X56477D02*
X60435D01*
X56734Y49659D02*
X60435Y53360D01*
Y54551D01*
X56734Y48111D02*
Y49659D01*
X79644Y51056D02*
X81900Y48800D01*
X66175Y51056D02*
X79644D01*
X81900Y47325D02*
Y48800D01*
X89525Y43975D02*
X91915Y41585D01*
X86900Y43975D02*
X89525D01*
X91915Y39661D02*
Y41585D01*
X90708Y38761D02*
X90708Y38761D01*
X89534Y38761D02*
X90708D01*
X82850Y38786D02*
X84659D01*
X82850D02*
Y38800D01*
X69150Y62025D02*
Y63694D01*
Y62025D02*
X70650D01*
X69150Y60625D02*
Y62025D01*
X55805Y51016D02*
Y51016D01*
X56848Y52059D01*
X54391Y52465D02*
X55434Y53508D01*
X54391Y52430D02*
Y52465D01*
X83512Y43550D02*
X83762Y43300D01*
X59458Y49683D02*
X60831Y51056D01*
X66175D01*
X59458Y48986D02*
Y49683D01*
X84100Y60850D02*
Y61625D01*
X96225Y56625D02*
X96225Y56625D01*
X93950Y56625D02*
X96225D01*
X87360Y62600D02*
X88110Y61850D01*
X87225Y62600D02*
X87360D01*
X94075Y55012D02*
X94450Y54637D01*
Y54225D02*
Y54637D01*
Y54225D02*
X94650Y54025D01*
X94075Y55012D02*
Y55400D01*
X93950Y56102D02*
X94075Y55977D01*
Y55400D02*
Y55977D01*
X93950Y56102D02*
Y56625D01*
X89425Y59725D02*
X90025D01*
X85170Y42975D02*
X85725D01*
X84845Y43300D02*
X85170Y42975D01*
X83762Y43300D02*
X84845D01*
X86900Y45175D02*
X86900Y45175D01*
X86900Y43975D02*
Y45175D01*
X85675Y46175D02*
X86275D01*
X86375Y46075D02*
X86900D01*
X86275Y46175D02*
X86375Y46075D01*
X85675Y46175D02*
X85675Y46175D01*
X85075Y46175D02*
X85675D01*
X83762Y46050D02*
X84950D01*
X85075Y46175D01*
X83512Y45800D02*
X83762Y46050D01*
X84825Y44675D02*
X85175D01*
X85675Y45175D01*
X85700Y43975D02*
X85700Y43975D01*
X86900D01*
X85725Y42975D02*
X85725Y42975D01*
X86900D01*
X80075Y45800D02*
X80075Y45800D01*
X79825Y46050D02*
X80075Y45800D01*
X78525D02*
X80075D01*
X80312Y43550D02*
X80312Y43550D01*
X79050Y44675D02*
X80312D01*
X79825Y46050D02*
Y47325D01*
X80075Y45800D02*
X80312D01*
X78350Y47325D02*
X78925D01*
X79825D02*
X81000D01*
X81900Y44188D02*
X82287Y43800D01*
X81900Y44188D02*
Y47325D01*
X82287Y43800D02*
X83262D01*
X83512Y43550D01*
X90700Y37150D02*
Y37750D01*
X64675Y48840D02*
Y49656D01*
X88450Y35575D02*
X89048D01*
X86909Y35586D02*
X86919Y35575D01*
X88450D01*
Y36575D02*
Y37175D01*
X84850Y59450D02*
X85625D01*
X85650Y59475D01*
X84100Y59450D02*
X84850D01*
X86325Y60850D02*
X86325Y60850D01*
X84100Y60850D02*
X86325D01*
X89775Y55025D02*
Y55625D01*
X91425Y53775D02*
Y54575D01*
X92475Y54025D02*
X93250D01*
X92475Y55400D02*
X93075D01*
X104050Y10900D02*
Y11475D01*
X86909Y38786D02*
X86934Y38761D01*
X88633D01*
X57484Y52695D02*
X57891Y53102D01*
X56070Y54144D02*
X56477Y54551D01*
X56734Y47536D02*
Y48111D01*
X56709Y46611D02*
X56734Y46636D01*
X56709Y45261D02*
Y46611D01*
Y44261D02*
X57009Y43961D01*
Y42786D02*
Y43961D01*
X57909Y42786D02*
Y43986D01*
X56709Y44261D02*
Y45261D01*
X59458Y46511D02*
X59484Y46486D01*
X59458Y46511D02*
Y48086D01*
X59458Y46461D02*
X59484Y46486D01*
X63583Y38958D02*
Y39761D01*
X62804D02*
X63583D01*
X61609Y41736D02*
X62208D01*
X61609Y43161D02*
X61734Y43286D01*
X61609Y41736D02*
Y43161D01*
X60609Y41161D02*
Y43286D01*
X84659Y38786D02*
Y40461D01*
X76250Y34965D02*
X76296Y35011D01*
X79758D01*
X85784Y38786D02*
Y40061D01*
Y34336D02*
Y35586D01*
X79759Y35011D02*
X80958D01*
X79758Y35011D02*
X79759Y35011D01*
X81858Y36011D02*
X81958Y36111D01*
X83084D02*
X84409D01*
X81958D02*
X83084D01*
X81858Y35011D02*
Y36011D01*
X81859Y36211D02*
X81958Y36111D01*
X84409D02*
X84659Y35861D01*
Y35586D02*
Y35861D01*
X86146Y37111D02*
X86659Y37623D01*
Y38536D02*
X86909Y38786D01*
X83084Y37111D02*
X86146D01*
X86659Y37623D02*
Y38536D01*
X83083Y37111D02*
X83084Y37111D01*
X81859Y37111D02*
X83083D01*
X67684Y46586D02*
X68284D01*
X65483Y46586D02*
X65484Y46586D01*
X66684D01*
X57909Y41086D02*
Y42786D01*
Y41086D02*
X57933Y41061D01*
X61834Y46586D02*
X64584D01*
X61734Y46486D02*
X61834Y46586D01*
X55208Y42786D02*
X55209Y42786D01*
X57009D01*
X59234D02*
X59484Y43036D01*
X57909Y42786D02*
X59234D01*
X59484Y43036D02*
Y43286D01*
X61484Y45178D02*
Y46236D01*
X61734Y46486D01*
X61191Y44886D02*
X61484Y45178D01*
X57909Y44886D02*
X61191D01*
X60609Y46486D02*
Y47761D01*
X65483Y45211D02*
Y46586D01*
X66883Y43711D02*
X67699D01*
X63268D02*
X64084D01*
X64534Y37761D02*
X64571Y37723D01*
Y35002D02*
X64608Y34965D01*
X65483Y39761D02*
Y41211D01*
Y45211D01*
X67841Y63450D02*
X68066Y63675D01*
Y64211D01*
X68071Y64216D01*
X67171Y63675D02*
Y64216D01*
X40890Y26190D02*
X40899Y26199D01*
X67171Y63675D02*
X67396Y63450D01*
X78625Y64075D02*
X79225D01*
X67396Y63450D02*
X67841D01*
X66996Y60625D02*
X67750D01*
X67571Y62025D02*
X67571Y62025D01*
X67750Y60625D02*
X67750Y60625D01*
X67571Y62025D02*
X68150D01*
X64399Y52731D02*
Y53315D01*
X64674Y52456D02*
X64675D01*
X64399Y52731D02*
X64674Y52456D01*
X67666Y65250D02*
X69406D01*
X69456Y65200D01*
X67616Y65300D02*
X67666Y65250D01*
X77625Y62825D02*
X77800Y62650D01*
X77625Y62825D02*
Y64075D01*
X76325D02*
X77625D01*
X76333Y64083D02*
Y66534D01*
X76341Y66542D01*
X76325Y64075D02*
X76333Y64083D01*
X78575Y66117D02*
Y66650D01*
X78154Y65892D02*
X78350D01*
X78575Y66117D01*
X77725D02*
X77950Y65892D01*
X78154D01*
X77725Y66117D02*
Y66650D01*
X79200Y62650D02*
X79975D01*
X111730Y69250D02*
X113100D01*
X111716Y66710D02*
X113100D01*
X114530D01*
X113100Y69250D02*
X114530D01*
X113100Y26190D02*
X114517D01*
X111716D02*
X113100D01*
Y28730D02*
X114517D01*
X111730D02*
X113100D01*
X34651Y26190D02*
X36235D01*
X33010D02*
X34651D01*
Y28730D02*
X36221D01*
X33010D02*
X34651D01*
Y66190D02*
X36235D01*
X33010D02*
X34651D01*
Y68730D02*
X36221D01*
X33010D02*
X34651D01*
X102325Y18500D02*
X103147D01*
X98713D02*
X99525D01*
D68*
X53450Y47543D02*
G03*
X55732Y45261I2282J0D01*
G01*
X53450Y47543D02*
G03*
X50993Y50000I-2457J0D01*
G01*
X51205Y42786D02*
G03*
X48665Y40246I0J-2540D01*
G01*
X46125Y10000D02*
G03*
X48665Y12540I0J2540D01*
G01*
X55732Y45261D02*
X55809D01*
X39651Y50000D02*
X50993D01*
X38000D02*
X39651D01*
X51205Y42786D02*
X52458D01*
X48665Y12540D02*
Y40246D01*
X39651Y10000D02*
X46125D01*
X38000D02*
X39651D01*
D69*
X85275Y53625D02*
D03*
X88050Y54925D02*
D03*
X96225Y56625D02*
D03*
X57933Y41061D02*
D03*
X87225Y62600D02*
D03*
X82850Y38800D02*
D03*
X69188Y73925D02*
D03*
X74594Y74715D02*
D03*
X76325Y64075D02*
D03*
X64471Y65200D02*
D03*
X70675Y62050D02*
D03*
X58375Y72775D02*
D03*
X80000D02*
D03*
X63781D02*
D03*
X80565Y67742D02*
D03*
X78525Y45800D02*
D03*
X63209Y46586D02*
D03*
D70*
X38000Y53786D02*
D03*
Y46214D02*
D03*
Y6214D02*
D03*
Y13786D02*
D03*
X112500D02*
D03*
Y6214D02*
D03*
Y46214D02*
D03*
Y53786D02*
D03*
D71*
X39651Y50000D02*
D03*
Y10000D02*
D03*
X110849D02*
D03*
Y50000D02*
D03*
D72*
X64571Y35002D02*
Y37723D01*
X70508Y34965D02*
X70508Y34965D01*
X74250D01*
X100975Y63600D02*
Y67742D01*
Y62726D02*
Y63600D01*
Y67742D02*
X101850D01*
X50550D02*
X76341D01*
X45746D02*
X50550D01*
Y63050D02*
Y67742D01*
X40022Y66190D02*
X40890D01*
X38349D02*
X40022D01*
X65780Y65297D02*
X67416D01*
X65683Y65200D02*
X65780Y65297D01*
X44781Y67742D02*
X45746D01*
X50550Y62256D02*
Y63050D01*
X76341Y67742D02*
X78154D01*
X80565D02*
X100975D01*
X78154D02*
X80565D01*
X106990Y26190D02*
X109602D01*
X106975Y26175D02*
X106990Y26190D01*
X38349D02*
X40890D01*
X107035Y66710D02*
X109602D01*
X107025Y66700D02*
X107035Y66710D01*
X64471Y65200D02*
X65683D01*
D73*
X63782Y72776D02*
Y75334D01*
X63784Y75335D01*
X63781Y72775D02*
X63782Y72776D01*
X58398Y77655D02*
X113329D01*
X115400Y75584D01*
X37755Y77655D02*
X58398D01*
X35700Y75600D02*
X37755Y77655D01*
X58375Y72775D02*
Y75392D01*
X42284Y76050D02*
X79997D01*
X40044Y73810D02*
X42284Y76050D01*
X38300Y76825D02*
X109271D01*
X79997Y72775D02*
Y76050D01*
X106187D01*
X79997Y72775D02*
X80000D01*
X41939Y64147D02*
Y66811D01*
X40020Y68730D02*
X41939Y66811D01*
X104400Y61325D02*
X105577Y60148D01*
X109859Y74330D02*
X110202Y73988D01*
Y73348D02*
X111025Y72525D01*
X109602Y74330D02*
X109859D01*
X110202Y73348D02*
Y73988D01*
X111025Y64700D02*
Y72525D01*
X107000Y60675D02*
X111025Y64700D01*
X113100Y71790D02*
X114590D01*
X111739D02*
X113100D01*
X105750Y62350D02*
Y67069D01*
X107931Y69250D01*
X104400Y61325D02*
Y68274D01*
X107916Y71790D01*
Y31270D02*
X109602D01*
X107907Y33810D02*
X109602D01*
X38349Y28730D02*
X40020D01*
X111766Y33810D02*
X113100D01*
X113300D01*
X113100Y31270D02*
X113300D01*
X111739D02*
X113100D01*
X107931Y69250D02*
X109602D01*
X43275Y60361D02*
Y70579D01*
X42625Y62109D02*
Y68680D01*
X106187Y76050D02*
X107907Y74330D01*
X33350Y75600D02*
X35700D01*
X36184Y73810D02*
Y74709D01*
X38300Y76825D01*
X113100Y74330D02*
X113300D01*
X111766D02*
X113100D01*
X109271Y76825D02*
X111766Y74330D01*
X107907D02*
X109602D01*
X114590Y71790D02*
X115400Y72600D01*
Y75584D01*
X32525Y74775D02*
X33350Y75600D01*
X32525Y71700D02*
Y74775D01*
Y71700D02*
X32955Y71270D01*
X34651D01*
X40035D02*
X42625Y68680D01*
X40044Y73810D02*
X43275Y70579D01*
X38349Y71270D02*
X40035D01*
X38349Y33810D02*
X40044D01*
X34651D02*
X36184D01*
X107931Y28730D02*
X109602D01*
X107916Y71790D02*
X109602D01*
X38349Y68730D02*
X40020D01*
X38349Y73810D02*
X40044D01*
X34651D02*
X36184D01*
X34651Y71270D02*
X36212D01*
X34651Y31270D02*
X36212D01*
X38349D02*
X40035D01*
D74*
X88382Y57447D02*
D03*
X95993Y62358D02*
D03*
X84523Y52365D02*
D03*
X92241Y63201D02*
D03*
X97026Y54026D02*
D03*
X82574Y57454D02*
D03*
X87442Y52324D02*
D03*
X88902D02*
D03*
X90362D02*
D03*
X90781Y63201D02*
D03*
X82574Y58914D02*
D03*
X86401Y63201D02*
D03*
X97026Y59866D02*
D03*
X93701Y63201D02*
D03*
X95161D02*
D03*
X97026Y55486D02*
D03*
X83491Y53398D02*
D03*
X89321Y63201D02*
D03*
X82574Y54534D02*
D03*
X97026Y58406D02*
D03*
X82574Y60374D02*
D03*
Y55994D02*
D03*
X91822Y52324D02*
D03*
X85982D02*
D03*
X96077Y52916D02*
D03*
X84941Y63201D02*
D03*
X97026Y61326D02*
D03*
X82574Y61834D02*
D03*
X49286Y43094D02*
D03*
X48279Y42037D02*
D03*
X47796Y40659D02*
D03*
X47762Y39199D02*
D03*
Y37739D02*
D03*
Y36279D02*
D03*
Y28979D02*
D03*
Y27519D02*
D03*
Y26059D02*
D03*
Y24599D02*
D03*
Y23139D02*
D03*
Y21679D02*
D03*
Y20219D02*
D03*
Y18759D02*
D03*
Y17299D02*
D03*
Y15839D02*
D03*
Y14379D02*
D03*
Y12919D02*
D03*
X47394Y11506D02*
D03*
X46064Y10903D02*
D03*
X44686Y11385D02*
D03*
X43315Y11887D02*
D03*
X41855D02*
D03*
X42251Y8113D02*
D03*
X43711Y8113D02*
D03*
X44992Y8812D02*
D03*
X46419Y9121D02*
D03*
X47814Y9551D02*
D03*
X48904Y10522D02*
D03*
X49491Y11860D02*
D03*
X49569Y13317D02*
D03*
Y14777D02*
D03*
Y16237D02*
D03*
Y17697D02*
D03*
Y19157D02*
D03*
Y20617D02*
D03*
Y22077D02*
D03*
Y23537D02*
D03*
Y24997D02*
D03*
Y26457D02*
D03*
Y27917D02*
D03*
Y29377D02*
D03*
Y30837D02*
D03*
Y33757D02*
D03*
Y38137D02*
D03*
Y39597D02*
D03*
X51871Y40691D02*
D03*
X42287Y51887D02*
D03*
X41834Y48113D02*
D03*
X47503Y49097D02*
D03*
X48963D02*
D03*
X54733Y46588D02*
D03*
X54604Y49417D02*
D03*
X52366Y51083D02*
D03*
X49457Y50903D02*
D03*
X47997D02*
D03*
X43844Y51887D02*
D03*
X101238Y50903D02*
D03*
X99778D02*
D03*
X96899Y50553D02*
D03*
X95754Y49647D02*
D03*
X95083Y48351D02*
D03*
X94955Y46896D02*
D03*
Y45436D02*
D03*
Y43976D02*
D03*
Y42516D02*
D03*
Y41056D02*
D03*
X94517Y39664D02*
D03*
X93057D02*
D03*
X90139Y39760D02*
D03*
X91633Y37770D02*
D03*
X93091Y37858D02*
D03*
X94551D02*
D03*
X96008Y37766D02*
D03*
X97465Y37858D02*
D03*
X99943Y36723D02*
D03*
X100022Y35266D02*
D03*
Y33806D02*
D03*
Y29426D02*
D03*
Y27966D02*
D03*
Y26506D02*
D03*
Y25046D02*
D03*
Y23586D02*
D03*
Y22126D02*
D03*
X99709Y20700D02*
D03*
X100022Y16349D02*
D03*
Y14889D02*
D03*
Y13429D02*
D03*
X100077Y11970D02*
D03*
X100621Y10615D02*
D03*
X101680Y9610D02*
D03*
X103059Y9130D02*
D03*
X104516Y9041D02*
D03*
X105892Y8552D02*
D03*
X107285Y8113D02*
D03*
X108745Y8113D02*
D03*
X108073Y11887D02*
D03*
X106613Y11882D02*
D03*
X105369Y11118D02*
D03*
X102474Y11236D02*
D03*
X101828Y12545D02*
D03*
Y14005D02*
D03*
Y15465D02*
D03*
Y21224D02*
D03*
Y22684D02*
D03*
Y24144D02*
D03*
Y25604D02*
D03*
Y27064D02*
D03*
Y31444D02*
D03*
Y32904D02*
D03*
Y34364D02*
D03*
Y35824D02*
D03*
X101654Y37274D02*
D03*
X100920Y38536D02*
D03*
X99727Y39378D02*
D03*
X96852Y39884D02*
D03*
X96761Y41341D02*
D03*
Y42801D02*
D03*
Y44261D02*
D03*
Y45721D02*
D03*
Y47181D02*
D03*
X97196Y48575D02*
D03*
X100019Y49097D02*
D03*
X101479D02*
D03*
X105803Y48623D02*
D03*
X107171Y48113D02*
D03*
X108275Y51887D02*
D03*
X103584Y49048D02*
D03*
X86201Y58070D02*
D03*
X64008Y41211D02*
D03*
X85314Y55675D02*
D03*
X83183Y40461D02*
D03*
X79758Y36611D02*
D03*
X84825Y44675D02*
D03*
X80312Y41442D02*
D03*
X81912Y42025D02*
D03*
X94650Y53252D02*
D03*
X69179Y59850D02*
D03*
X84100Y61625D02*
D03*
X90025Y59725D02*
D03*
X79050Y44675D02*
D03*
X78350Y47325D02*
D03*
X90700Y37150D02*
D03*
X64675Y48840D02*
D03*
X89048Y35575D02*
D03*
X88450Y37175D02*
D03*
X84850Y59450D02*
D03*
X89775Y55025D02*
D03*
X91425Y53775D02*
D03*
X92475Y54025D02*
D03*
X92475Y55400D02*
D03*
X89425Y59125D02*
D03*
X104050Y11475D02*
D03*
X56477Y54551D02*
D03*
X57891Y53102D02*
D03*
X56734Y48111D02*
D03*
X63583Y38958D02*
D03*
X62804Y39761D02*
D03*
X62208Y41736D02*
D03*
X60609Y41161D02*
D03*
X85784Y40061D02*
D03*
Y34336D02*
D03*
X68284Y46586D02*
D03*
X60609Y47761D02*
D03*
X67699Y43711D02*
D03*
X63268D02*
D03*
X40022Y66190D02*
D03*
X40890D02*
D03*
X63784Y75335D02*
D03*
X67171Y64216D02*
D03*
X80565Y67742D02*
D03*
X58398Y77655D02*
D03*
X58375Y75392D02*
D03*
Y72775D02*
D03*
X63784Y76825D02*
D03*
X63781Y72775D02*
D03*
X79997D02*
D03*
X69188Y73925D02*
D03*
X74594Y74715D02*
D03*
X112500Y46214D02*
D03*
X111616Y47097D02*
D03*
X113384D02*
D03*
X113384Y45330D02*
D03*
X111616D02*
D03*
X112500Y53786D02*
D03*
X111616Y54670D02*
D03*
X113384D02*
D03*
X113384Y52903D02*
D03*
X111616D02*
D03*
X38000Y46214D02*
D03*
X37116Y47097D02*
D03*
X38884D02*
D03*
X38884Y45330D02*
D03*
X37116D02*
D03*
X38000Y53786D02*
D03*
X37116Y54670D02*
D03*
X38884D02*
D03*
X38884Y52903D02*
D03*
X37116D02*
D03*
X112500Y13786D02*
D03*
X111616Y14670D02*
D03*
X113384D02*
D03*
X113384Y12903D02*
D03*
X111616D02*
D03*
X112500Y6214D02*
D03*
X111616Y7097D02*
D03*
X113384D02*
D03*
X113384Y5330D02*
D03*
X111616D02*
D03*
X38000Y6214D02*
D03*
X37116Y7097D02*
D03*
X38884D02*
D03*
X38884Y5330D02*
D03*
X37116D02*
D03*
X38000Y13786D02*
D03*
X37116Y14670D02*
D03*
X38884D02*
D03*
X38884Y12903D02*
D03*
X37116D02*
D03*
X45746Y67742D02*
D03*
X44781D02*
D03*
X50550Y62256D02*
D03*
X100975Y62726D02*
D03*
X106975Y26175D02*
D03*
X40899Y26199D02*
D03*
X107025Y66700D02*
D03*
X68071Y64216D02*
D03*
X79225Y64075D02*
D03*
X65700Y65217D02*
D03*
X64471Y65200D02*
D03*
X67571Y62025D02*
D03*
X66996Y60625D02*
D03*
X64399Y53315D02*
D03*
X78575Y66650D02*
D03*
X77725D02*
D03*
X79975Y62650D02*
D03*
X101850Y67742D02*
D03*
X100975D02*
D03*
X107929Y66710D02*
D03*
X100975Y63600D02*
D03*
X50550Y63050D02*
D03*
X41939Y64147D02*
D03*
X105577Y60148D02*
D03*
X111716Y66710D02*
D03*
X111739Y71790D02*
D03*
X111730Y69250D02*
D03*
X107000Y60675D02*
D03*
X105750Y62350D02*
D03*
X107916Y31270D02*
D03*
X107907Y33810D02*
D03*
X40020Y28730D02*
D03*
X107929Y26190D02*
D03*
X111766Y33810D02*
D03*
X114530Y66710D02*
D03*
Y69250D02*
D03*
X107931D02*
D03*
X43275Y60361D02*
D03*
X42625Y62109D02*
D03*
X114517Y26190D02*
D03*
Y28730D02*
D03*
X40035Y71270D02*
D03*
X33010Y68730D02*
D03*
Y66190D02*
D03*
X40044Y33810D02*
D03*
X36184D02*
D03*
X36235Y66190D02*
D03*
X107931Y28730D02*
D03*
X111716Y26190D02*
D03*
X111739Y31270D02*
D03*
X111730Y28730D02*
D03*
X107916Y71790D02*
D03*
X111766Y74330D02*
D03*
X40020Y68730D02*
D03*
X36184Y73810D02*
D03*
X36212Y71270D02*
D03*
X36221Y68730D02*
D03*
X33010Y28730D02*
D03*
Y26190D02*
D03*
X36221Y28730D02*
D03*
X36212Y31270D02*
D03*
X36235Y26190D02*
D03*
X40035Y31270D02*
D03*
X40022Y26190D02*
D03*
X103147Y18500D02*
D03*
X98713D02*
D03*
M02*
