M48
;Layer_Color=9474304
;FILE_FORMAT=4:3
METRIC,TZ
;TYPE=PLATED
T1F00S00C0.300
T2F00S00C0.600
%
T01
X36000Y2463
X37116Y5330
X38000Y6214
X38884Y5330
X38884Y7097
X37116Y7097
X37116Y12903
X38000Y13786
X38884Y12903
X42000Y6463
X40000Y2463
X44000Y2463
X48000Y2463
X52000Y2463
X56000Y2463
X60000Y2463
X64000Y2463
X68000Y2463
X72000Y2463
X76000Y2463
X79050Y2279
X77557Y5475
X77129Y6625
X78050Y9380
X78050Y10350
X78050Y11320
X79020Y10350
X77080Y10350
X73475Y7200
X71393Y7936
X69979Y9350
X69979Y11350
X71393Y12764
X66000Y6463
X62000Y6463
X60822Y7158
X59389Y7892
X61600Y9581
X54675Y11325
X52000Y10463
X49328Y11274
X46556Y10974
X47176Y9256
X47758Y13668
X50000Y6463
X82000Y6463
X83293Y6522
X83675Y8825
X86121Y9350
X86121Y11350
X88000Y10463
X92000Y10463
X96000Y10463
X98864Y11528
X100707Y12251
X101040Y9535
X103956Y9093
X104050Y11475
X106000Y6463
X104000Y2463
X108000Y2463
X112000Y2463
X111616Y5330
X112500Y6214
X113384Y5330
X113384Y7097
X111616Y7097
X111616Y12903
X112500Y13786
X113384Y12903
X98000Y6463
X95800Y4512
X94038Y4512
X92054Y4512
X91304Y3825
X93044Y3000
X94919Y3000
X100000Y2463
X88000Y2463
X84000Y2463
X87150Y6960
X84707Y12764
X83293Y14178
X82000Y14463
X81878Y15593
X80464Y17007
X81900Y20475
X85013Y20475
X84000Y18463
X88000Y18463
X88435Y21957
X90277Y22681
X90521Y19872
X92363Y20595
X92607Y17786
X94449Y18509
X96000Y18463
X97296Y16358
X98621Y14337
X95317Y14379
X90000Y14463
X86000Y14463
X86302Y23996
X88191Y24767
X88000Y26463
X85526Y26033
X81925Y26525
X82000Y30463
X86000Y30463
X87483Y34336
X90150Y32875
X92000Y34463
X92400Y37150
X90150Y37175
X91755Y39668
X92000Y42463
X94458Y43559
X97258Y43559
X96757Y41097
X94630Y40330
X95349Y38504
X98000Y38463
X102000Y38463
X104000Y42463
X102000Y46463
X98000Y46463
X96765Y46997
X94951Y46212
X94000Y46463
X90000Y46463
X86000Y46463
X85650Y49625
X85982Y52324
X87442Y52324
X88902Y52324
X90362Y52324
X91822Y52324
X93282Y52324
X92000Y50463
X91425Y53775
X96077Y52916
X96000Y50463
X95383Y49131
X98225Y50925
X104336Y50907
X104050Y48525
X111616Y47097
X112500Y46214
X113384Y45330
X111616Y45330
X112000Y42463
X114000Y38463
X116000Y34463
X111766Y33810
X111739Y31270
X109625Y32175
X109575Y29650
X112550Y27850
X113875Y27875
X113950Y25350
X112575Y25250
X114000Y22463
X110000Y22463
X106000Y22463
X102000Y22463
X98000Y22463
X94000Y22463
X92000Y26463
X96000Y26463
X100000Y26463
X98000Y30463
X94000Y30463
X96000Y34463
X104000Y34463
X109500Y34625
X107929Y26190
X106975Y26175
X108000Y18463
X112000Y18463
X111616Y14670
X113384Y14670
X106000Y14463
X102000Y14463
X100000Y18463
X104000Y18463
X116000Y26463
X118000Y30463
X113384Y47097
X113384Y52903
X112500Y53786
X111616Y52903
X88000Y50463
X84523Y52365
X83491Y53398
X80000Y50463
X80312Y41442
X83900Y40975
X84000Y42463
X88000Y42463
X87483Y40061
X82400Y36675
X80084Y33502
X79344Y35432
X78000Y38463
X74000Y38463
X73720Y36778
X70771Y36868
X70348Y38682
X71464Y38679
X70766Y41740
X68375Y41725
X65936Y41385
X66350Y43700
X63550Y43700
X62208Y41736
X60609Y41161
X60938Y38856
X60846Y37033
X61569Y37033
X60000Y34463
X64000Y34463
X68000Y34463
X72000Y34463
X72000Y26463
X74050Y27275
X76600Y27275
X79089Y27080
X79125Y28300
X77870Y22832
X78475Y21018
X75525Y21043
X76000Y18463
X77050Y18421
X75636Y17007
X74222Y15593
X74000Y14463
X72807Y14178
X70000Y14463
X66000Y14463
X64000Y18463
X61575Y19675
X60075Y21075
X60075Y18275
X58400Y15075
X53125Y15100
X49573Y14214
X49573Y17164
X47758Y16618
X46000Y14463
X42000Y14463
X40000Y18463
X44000Y18463
X47758Y21300
X49575Y21275
X49575Y23925
X47758Y23750
X47758Y26400
X49575Y26575
X49573Y28964
X50000Y30463
X49573Y31914
X47758Y31368
X46000Y30463
X42625Y30175
X40035Y31270
X40044Y33810
X40020Y28730
X40022Y26190
X40899Y26199
X44000Y26463
X47758Y28418
X47758Y34318
X49573Y34864
X49573Y37814
X50000Y38463
X49573Y40764
X47758Y40218
X47758Y37268
X47758Y43168
X49573Y43714
X48467Y46032
X51243Y47382
X49842Y49093
X49825Y50900
X46875Y50900
X46892Y49093
X55400Y50150
X56825Y51525
X59625Y51525
X60609Y47761
X64074Y47569
X64000Y50463
X68000Y50463
X72000Y50463
X76000Y50463
X78000Y46463
X74000Y46463
X70000Y46463
X66000Y46463
X57524Y41350
X56000Y42463
X57524Y38550
X54000Y38463
X56000Y34463
X58000Y30463
X62000Y30463
X66000Y30463
X64000Y26463
X68000Y26463
X66000Y22463
X62000Y22463
X58000Y22463
X56425Y22850
X54925Y24250
X54925Y21450
X52000Y18463
X56000Y26463
X60000Y26463
X54000Y30463
X40000Y42463
X68000Y18463
X72000Y18463
X36000Y18463
X37116Y14670
X38884Y14670
X38000Y22463
X35453Y25327
X34338Y25318
X34218Y27694
X35393Y27694
X36212Y31270
X36184Y33810
X32000Y34463
X38000Y38463
X36000Y42463
X37116Y45330
X38000Y46214
X38884Y45330
X38884Y47097
X37116Y47097
X37116Y52903
X38000Y53786
X38884Y52903
X38884Y54670
X37116Y54670
X36000Y58463
X35350Y65425
X34350Y65425
X34300Y67875
X35447Y67875
X34800Y70400
X34825Y72925
X40035Y71270
X40020Y68730
X40022Y66190
X40890Y66190
X41939Y64147
X42625Y62109
X43046Y60361
X45850Y61850
X45850Y62825
X50000Y62463
X54000Y62463
X58000Y62463
X62000Y62463
X66000Y62463
X67571Y62025
X66996Y60625
X69179Y59850
X68000Y58463
X72000Y58463
X76000Y58463
X78000Y54463
X70000Y54463
X66000Y54463
X62000Y54463
X58000Y54463
X54000Y54463
X50000Y54463
X48000Y58463
X56000Y58463
X60000Y58463
X64000Y58463
X64471Y65200
X65700Y65217
X67171Y64216
X68071Y64216
X68000Y66463
X72000Y66463
X77725Y66650
X78575Y66650
X79225Y64075
X74000Y62463
X74000Y70463
X78000Y70463
X74594Y74715
X69188Y73925
X70000Y70463
X66000Y70463
X62000Y70463
X58000Y70463
X58375Y72775
X58375Y75392
X58398Y77655
X63784Y76825
X63784Y75335
X63781Y72775
X64000Y66463
X60000Y66463
X56000Y66463
X52000Y66463
X48000Y66463
X45746Y67742
X44781Y67742
X50000Y70463
X54000Y70463
X40000Y58463
X80000Y58463
X82574Y58914
X82574Y57454
X82574Y55994
X82574Y54534
X82000Y54463
X85314Y55675
X86689Y54966
X89775Y55025
X90000Y54463
X92475Y54025
X92475Y55400
X97026Y55486
X97026Y54026
X98000Y54463
X102000Y54463
X104000Y58463
X106870Y59589
X107475Y61425
X107025Y66700
X107929Y66710
X107931Y69250
X107916Y71790
X110000Y70463
X112800Y70000
X113975Y70025
X113825Y67575
X112850Y67600
X111376Y63812
X114000Y62463
X112000Y58463
X111616Y54670
X113384Y54670
X114972Y72172
X118000Y70463
X111766Y74330
X104000Y66463
X101850Y67742
X100975Y67742
X100975Y63600
X100975Y62726
X102000Y62463
X98000Y62463
X95993Y62358
X95161Y63201
X93701Y63201
X92241Y63201
X90781Y63201
X89321Y63201
X86401Y63201
X86000Y62463
X84941Y63201
X84100Y61625
X82574Y61834
X82000Y62463
X79975Y62650
X80000Y66463
X80565Y67742
X82000Y70463
X86000Y70463
X90000Y70463
X94000Y70463
X98000Y70463
X96000Y66463
X92000Y66463
X88000Y66463
X84000Y66463
X82574Y60374
X84850Y59450
X84000Y58463
X86201Y58070
X88382Y57447
X89425Y59125
X90025Y59725
X97026Y59866
X97026Y58406
X96000Y58463
X97026Y61326
X79997Y72775
T02
X75250Y33965
X74250Y34965
X76250Y34965
M30
