M48
;Layer_Color=9474304
;FILE_FORMAT=4:3
METRIC,TZ
;TYPE=PLATED
T1F00S00C0.300
T2F00S00C0.600
%
T01
X37116Y5330
X38000Y6214
X38884Y5330
X38884Y7097
X37116Y7097
X37116Y12903
X38000Y13786
X38884Y12903
X41855Y11887
X43315Y11887
X44686Y11385
X46064Y10903
X47394Y11506
X47762Y12919
X49569Y13317
X49491Y11860
X48904Y10522
X47814Y9551
X46419Y9121
X44992Y8812
X43711Y8113
X42251Y8113
X100621Y10615
X100077Y11970
X100022Y13429
X101828Y14005
X101828Y12545
X102474Y11236
X104050Y11475
X105369Y11118
X106613Y11882
X108073Y11887
X108745Y8113
X107285Y8113
X105892Y8552
X104516Y9041
X103059Y9130
X101680Y9610
X111616Y7097
X112500Y6214
X113384Y5330
X111616Y5330
X113384Y7097
X113384Y12903
X112500Y13786
X111616Y12903
X111616Y14670
X113384Y14670
X101828Y15465
X100022Y14889
X100022Y16349
X98713Y18500
X99709Y20700
X100022Y22126
X100022Y23586
X100022Y25046
X100022Y26506
X100022Y27966
X100022Y29426
X101828Y31444
X101828Y32904
X101828Y34364
X101828Y35824
X101654Y37274
X100920Y38536
X99727Y39378
X99943Y36723
X100022Y35266
X100022Y33806
X97465Y37858
X96008Y37766
X94551Y37858
X93091Y37858
X91633Y37770
X90700Y37150
X88450Y37175
X89048Y35575
X85784Y34336
X85784Y40061
X83183Y40461
X81912Y42025
X80312Y41442
X79758Y36611
X84825Y44675
X84523Y52365
X85982Y52324
X87442Y52324
X88902Y52324
X90362Y52324
X91822Y52324
X91425Y53775
X94650Y53252
X96077Y52916
X96899Y50553
X95754Y49647
X95083Y48351
X94955Y46896
X94955Y45436
X94955Y43976
X94955Y42516
X94955Y41056
X94517Y39664
X93057Y39664
X90139Y39760
X96852Y39884
X96761Y41341
X96761Y42801
X96761Y44261
X96761Y45721
X96761Y47181
X97196Y48575
X100019Y49097
X101479Y49097
X101238Y50903
X99778Y50903
X103584Y49048
X105803Y48623
X107171Y48113
X108275Y51887
X111616Y52903
X112500Y53786
X113384Y52903
X113384Y47097
X112500Y46214
X113384Y45330
X111616Y45330
X111616Y47097
X111766Y33810
X111739Y31270
X111730Y28730
X111716Y26190
X114517Y26190
X114517Y28730
X107931Y28730
X107929Y26190
X106975Y26175
X101828Y25604
X101828Y24144
X101828Y22684
X101828Y21224
X103147Y18500
X101828Y27064
X107916Y31270
X107907Y33810
X83491Y53398
X78350Y47325
X79050Y44675
X67699Y43711
X68284Y46586
X64675Y48840
X64399Y53315
X57891Y53102
X56734Y48111
X54604Y49417
X54733Y46588
X52366Y51083
X49457Y50903
X47997Y50903
X47503Y49097
X48963Y49097
X49286Y43094
X48279Y42037
X47796Y40659
X47762Y39199
X47762Y37739
X47762Y36279
X49569Y38137
X49569Y39597
X51871Y40691
X60609Y41161
X62208Y41736
X64008Y41211
X62804Y39761
X63583Y38958
X63268Y43711
X60609Y47761
X41834Y48113
X42287Y51887
X43844Y51887
X40044Y33810
X40035Y31270
X40020Y28730
X40022Y26190
X40899Y26199
X47762Y26059
X47762Y27519
X47762Y28979
X49569Y29377
X49569Y27917
X49569Y26457
X49569Y24997
X49569Y23537
X49569Y22077
X49569Y20617
X49569Y19157
X49569Y17697
X49569Y16237
X49569Y14777
X47762Y14379
X47762Y15839
X47762Y17299
X47762Y18759
X47762Y20219
X47762Y21679
X47762Y23139
X47762Y24599
X49569Y30837
X49569Y33757
X36184Y33810
X36212Y31270
X36221Y28730
X36235Y26190
X33010Y26190
X33010Y28730
X37116Y14670
X38884Y14670
X38884Y45330
X38000Y46214
X37116Y45330
X37116Y47097
X38884Y47097
X38884Y52903
X38000Y53786
X37116Y52903
X37116Y54670
X38884Y54670
X36235Y66190
X36221Y68730
X36212Y71270
X36184Y73810
X33010Y68730
X33010Y66190
X40022Y66190
X40890Y66190
X41939Y64147
X42625Y62109
X43275Y60361
X44781Y67742
X45746Y67742
X40020Y68730
X40035Y71270
X50550Y63050
X50550Y62256
X56477Y54551
X66996Y60625
X67571Y62025
X67171Y64216
X68071Y64216
X65700Y65217
X64471Y65200
X63781Y72775
X63784Y75335
X63784Y76825
X58398Y77655
X58375Y75392
X58375Y72775
X69188Y73925
X74594Y74715
X77725Y66650
X78575Y66650
X79225Y64075
X69179Y59850
X79975Y62650
X82574Y61834
X82574Y60374
X82574Y58914
X82574Y57454
X82574Y55994
X82574Y54534
X85314Y55675
X86201Y58070
X84850Y59450
X84100Y61625
X84941Y63201
X86401Y63201
X89321Y63201
X90781Y63201
X92241Y63201
X93701Y63201
X95161Y63201
X95993Y62358
X97026Y61326
X97026Y59866
X97026Y58406
X97026Y55486
X97026Y54026
X92475Y54025
X92475Y55400
X89775Y55025
X88382Y57447
X89425Y59125
X90025Y59725
X100975Y62726
X100975Y63600
X100975Y67742
X101850Y67742
X107025Y66700
X107929Y66710
X107931Y69250
X107916Y71790
X111739Y71790
X111730Y69250
X111716Y66710
X114530Y66710
X114530Y69250
X111766Y74330
X105750Y62350
X105577Y60148
X107000Y60675
X111616Y54670
X113384Y54670
X80565Y67742
X79997Y72775
T02
X75250Y33965
X74250Y34965
X76250Y34965
M30
