G04*
G04 #@! TF.GenerationSoftware,Altium Limited,Altium Designer,23.0.1 (38)*
G04*
G04 Layer_Color=2752767*
%FSLAX43Y43*%
%MOMM*%
G71*
G04*
G04 #@! TF.SameCoordinates,A2A41917-8E72-4AF7-8591-51E6FC7DF103*
G04*
G04*
G04 #@! TF.FilePolarity,Positive*
G04*
G01*
G75*
%ADD169C,0.051*%
%ADD170C,0.068*%
%ADD171C,0.034*%
D169*
X80477Y95730D02*
X80578D01*
X80680Y95831D01*
X80782Y95730D01*
X80883D01*
Y95831D01*
X80782Y95933D01*
X80883Y96035D01*
Y96136D01*
X80782D01*
X80680Y96035D01*
X80578Y96136D01*
X80477D01*
Y96035D01*
X80578Y95933D01*
X80477Y95831D01*
Y95730D01*
X65477D02*
X65578D01*
X65680Y95831D01*
X65782Y95730D01*
X65883D01*
Y95831D01*
X65782Y95933D01*
X65883Y96035D01*
Y96136D01*
X65782D01*
X65680Y96035D01*
X65578Y96136D01*
X65477D01*
Y96035D01*
X65578Y95933D01*
X65477Y95831D01*
Y95730D01*
X80578Y91831D02*
Y91730D01*
X80782D01*
Y91831D01*
X80883D01*
Y92035D01*
X80782D01*
Y92136D01*
X80578D01*
Y92035D01*
X80477D01*
Y91831D01*
X80578D01*
X65578D02*
Y91730D01*
X65782D01*
Y91831D01*
X65883D01*
Y92035D01*
X65782D01*
Y92136D01*
X65578D01*
Y92035D01*
X65477D01*
Y91831D01*
X65578D01*
X71207Y93000D02*
X71308Y93203D01*
X71207Y93406D01*
X71410Y93305D01*
X71613Y93406D01*
X71512Y93203D01*
X71613Y93000D01*
X71410Y93101D01*
X71207Y93000D01*
X74747D02*
X74848Y93203D01*
X74747Y93406D01*
X74950Y93305D01*
X75153Y93406D01*
X75052Y93203D01*
X75153Y93000D01*
X74950Y93101D01*
X74747Y93000D01*
Y90460D02*
X74848Y90663D01*
X74747Y90866D01*
X74950Y90765D01*
X75153Y90866D01*
X75052Y90663D01*
X75153Y90460D01*
X74950Y90561D01*
X74747Y90460D01*
X72977Y87920D02*
X73078Y88123D01*
X72977Y88326D01*
X73180Y88225D01*
X73383Y88326D01*
X73282Y88123D01*
X73383Y87920D01*
X73180Y88021D01*
X72977Y87920D01*
X71207Y90460D02*
X71308Y90663D01*
X71207Y90866D01*
X71410Y90765D01*
X71613Y90866D01*
X71512Y90663D01*
X71613Y90460D01*
X71410Y90561D01*
X71207Y90460D01*
X56309Y95730D02*
X56411D01*
X56513Y95831D01*
X56614Y95730D01*
X56716D01*
Y95831D01*
X56614Y95933D01*
X56716Y96035D01*
Y96136D01*
X56614D01*
X56513Y96035D01*
X56411Y96136D01*
X56309D01*
Y96035D01*
X56411Y95933D01*
X56309Y95831D01*
Y95730D01*
X41309D02*
X41411D01*
X41513Y95831D01*
X41614Y95730D01*
X41716D01*
Y95831D01*
X41614Y95933D01*
X41716Y96035D01*
Y96136D01*
X41614D01*
X41513Y96035D01*
X41411Y96136D01*
X41309D01*
Y96035D01*
X41411Y95933D01*
X41309Y95831D01*
Y95730D01*
X56411Y91831D02*
Y91730D01*
X56614D01*
Y91831D01*
X56716D01*
Y92035D01*
X56614D01*
Y92136D01*
X56411D01*
Y92035D01*
X56309D01*
Y91831D01*
X56411D01*
X41411D02*
Y91730D01*
X41614D01*
Y91831D01*
X41716D01*
Y92035D01*
X41614D01*
Y92136D01*
X41411D01*
Y92035D01*
X41309D01*
Y91831D01*
X41411D01*
X47039Y93000D02*
X47141Y93203D01*
X47039Y93406D01*
X47243Y93305D01*
X47446Y93406D01*
X47344Y93203D01*
X47446Y93000D01*
X47243Y93101D01*
X47039Y93000D01*
X50579D02*
X50681Y93203D01*
X50579Y93406D01*
X50783Y93305D01*
X50986Y93406D01*
X50884Y93203D01*
X50986Y93000D01*
X50783Y93101D01*
X50579Y93000D01*
Y90460D02*
X50681Y90663D01*
X50579Y90866D01*
X50783Y90765D01*
X50986Y90866D01*
X50884Y90663D01*
X50986Y90460D01*
X50783Y90561D01*
X50579Y90460D01*
X48809Y87920D02*
X48911Y88123D01*
X48809Y88326D01*
X49013Y88225D01*
X49216Y88326D01*
X49114Y88123D01*
X49216Y87920D01*
X49013Y88021D01*
X48809Y87920D01*
X47039Y90460D02*
X47141Y90663D01*
X47039Y90866D01*
X47243Y90765D01*
X47446Y90866D01*
X47344Y90663D01*
X47446Y90460D01*
X47243Y90561D01*
X47039Y90460D01*
X32142Y95730D02*
X32243D01*
X32345Y95831D01*
X32447Y95730D01*
X32548D01*
Y95831D01*
X32447Y95933D01*
X32548Y96035D01*
Y96136D01*
X32447D01*
X32345Y96035D01*
X32243Y96136D01*
X32142D01*
Y96035D01*
X32243Y95933D01*
X32142Y95831D01*
Y95730D01*
X17142D02*
X17243D01*
X17345Y95831D01*
X17447Y95730D01*
X17548D01*
Y95831D01*
X17447Y95933D01*
X17548Y96035D01*
Y96136D01*
X17447D01*
X17345Y96035D01*
X17243Y96136D01*
X17142D01*
Y96035D01*
X17243Y95933D01*
X17142Y95831D01*
Y95730D01*
X32243Y91831D02*
Y91730D01*
X32447D01*
Y91831D01*
X32548D01*
Y92035D01*
X32447D01*
Y92136D01*
X32243D01*
Y92035D01*
X32142D01*
Y91831D01*
X32243D01*
X17243D02*
Y91730D01*
X17447D01*
Y91831D01*
X17548D01*
Y92035D01*
X17447D01*
Y92136D01*
X17243D01*
Y92035D01*
X17142D01*
Y91831D01*
X17243D01*
X22872Y93000D02*
X22973Y93203D01*
X22872Y93406D01*
X23075Y93305D01*
X23278Y93406D01*
X23177Y93203D01*
X23278Y93000D01*
X23075Y93101D01*
X22872Y93000D01*
X26412D02*
X26513Y93203D01*
X26412Y93406D01*
X26615Y93305D01*
X26818Y93406D01*
X26717Y93203D01*
X26818Y93000D01*
X26615Y93101D01*
X26412Y93000D01*
Y90460D02*
X26513Y90663D01*
X26412Y90866D01*
X26615Y90765D01*
X26818Y90866D01*
X26717Y90663D01*
X26818Y90460D01*
X26615Y90561D01*
X26412Y90460D01*
X24642Y87920D02*
X24743Y88123D01*
X24642Y88326D01*
X24845Y88225D01*
X25048Y88326D01*
X24947Y88123D01*
X25048Y87920D01*
X24845Y88021D01*
X24642Y87920D01*
X22872Y90460D02*
X22973Y90663D01*
X22872Y90866D01*
X23075Y90765D01*
X23278Y90866D01*
X23177Y90663D01*
X23278Y90460D01*
X23075Y90561D01*
X22872Y90460D01*
X10824Y71842D02*
Y72248D01*
X11230D01*
Y71842D01*
X10824D01*
Y60417D02*
Y60823D01*
X11230D01*
Y60417D01*
X10824D01*
X6875Y72863D02*
Y72762D01*
X7079D01*
Y72863D01*
X7180D01*
Y73067D01*
X7079D01*
Y73168D01*
X6875D01*
Y73067D01*
X6774D01*
Y72863D01*
X6875D01*
X6926Y72914D02*
Y72863D01*
X7028D01*
Y72914D01*
X7079D01*
Y73016D01*
X7028D01*
Y73067D01*
X6926D01*
Y73016D01*
X6875D01*
Y72914D01*
X6926D01*
X6865Y70323D02*
Y70222D01*
X7069D01*
Y70323D01*
X7170D01*
Y70527D01*
X7069D01*
Y70628D01*
X6865D01*
Y70527D01*
X6764D01*
Y70323D01*
X6865D01*
X6916Y70374D02*
Y70323D01*
X7018D01*
Y70374D01*
X7069D01*
Y70476D01*
X7018D01*
Y70527D01*
X6916D01*
Y70476D01*
X6865D01*
Y70374D01*
X6916D01*
X6865Y59603D02*
Y59502D01*
X7069D01*
Y59603D01*
X7170D01*
Y59807D01*
X7069D01*
Y59908D01*
X6865D01*
Y59807D01*
X6764D01*
Y59603D01*
X6865D01*
X6916Y59654D02*
Y59603D01*
X7018D01*
Y59654D01*
X7069D01*
Y59756D01*
X7018D01*
Y59807D01*
X6916D01*
Y59756D01*
X6865D01*
Y59654D01*
X6916D01*
X6865Y62143D02*
Y62042D01*
X7069D01*
Y62143D01*
X7170D01*
Y62347D01*
X7069D01*
Y62448D01*
X6865D01*
Y62347D01*
X6764D01*
Y62143D01*
X6865D01*
X6916Y62194D02*
Y62143D01*
X7018D01*
Y62194D01*
X7069D01*
Y62296D01*
X7018D01*
Y62347D01*
X6916D01*
Y62296D01*
X6865D01*
Y62194D01*
X6916D01*
X13874Y74007D02*
X13975Y74210D01*
X13874Y74413D01*
X14077Y74312D01*
X14280Y74413D01*
X14179Y74210D01*
X14280Y74007D01*
X14077Y74108D01*
X13874Y74007D01*
X13975Y74108D02*
X14026Y74210D01*
X13975Y74312D01*
X14077Y74261D01*
X14179Y74312D01*
X14128Y74210D01*
X14179Y74108D01*
X14077Y74159D01*
X13975Y74108D01*
X13874Y58257D02*
X13975Y58460D01*
X13874Y58663D01*
X14077Y58562D01*
X14280Y58663D01*
X14179Y58460D01*
X14280Y58257D01*
X14077Y58358D01*
X13874Y58257D01*
X13975Y58358D02*
X14026Y58460D01*
X13975Y58562D01*
X14077Y58511D01*
X14179Y58562D01*
X14128Y58460D01*
X14179Y58358D01*
X14077Y58409D01*
X13975Y58358D01*
X19917Y61890D02*
Y62229D01*
X20086Y62398D01*
X20256Y62229D01*
Y61890D01*
Y62144D01*
X19917D01*
Y64430D02*
Y64769D01*
X20086Y64938D01*
X20256Y64769D01*
Y64430D01*
Y64684D01*
X19917D01*
Y66970D02*
Y67309D01*
X20086Y67478D01*
X20256Y67309D01*
Y66970D01*
Y67224D01*
X19917D01*
Y69510D02*
Y69849D01*
X20086Y70018D01*
X20256Y69849D01*
Y69510D01*
Y69764D01*
X19917D01*
X17377Y63160D02*
Y63499D01*
X17546Y63668D01*
X17716Y63499D01*
Y63160D01*
Y63414D01*
X17377D01*
Y65700D02*
Y66039D01*
X17546Y66208D01*
X17716Y66039D01*
Y65700D01*
Y65954D01*
X17377D01*
Y68240D02*
Y68579D01*
X17546Y68748D01*
X17716Y68579D01*
Y68240D01*
Y68494D01*
X17377D01*
Y70780D02*
Y71119D01*
X17546Y71288D01*
X17716Y71119D01*
Y70780D01*
Y71034D01*
X17377D01*
X5000Y94797D02*
X4797Y95203D01*
X5203D01*
X5000Y94797D01*
X95000Y94797D02*
X94797Y95203D01*
X95203D01*
X95000Y94797D01*
X89722Y70388D02*
X89925Y70591D01*
X90128Y70388D01*
X89925Y70185D01*
X89722Y70388D01*
X92272Y72735D02*
Y73141D01*
X92678D01*
Y72735D01*
X92272D01*
X92373Y72836D02*
Y73040D01*
X92577D01*
Y72836D01*
X92373D01*
X87172Y72735D02*
Y73141D01*
X87578D01*
Y72735D01*
X87172D01*
X87273Y72836D02*
Y73040D01*
X87477D01*
Y72836D01*
X87273D01*
X87172Y67635D02*
Y68041D01*
X87578D01*
Y67635D01*
X87172D01*
X87273Y67736D02*
Y67940D01*
X87477D01*
Y67736D01*
X87273D01*
X92272Y67635D02*
Y68041D01*
X92678D01*
Y67635D01*
X92272D01*
X92373Y67736D02*
Y67940D01*
X92577D01*
Y67736D01*
X92373D01*
X89722Y60100D02*
X89925Y60304D01*
X90128Y60100D01*
X89925Y59897D01*
X89722Y60100D01*
X92272Y62447D02*
Y62854D01*
X92678D01*
Y62447D01*
X92272D01*
X92373Y62549D02*
Y62752D01*
X92577D01*
Y62549D01*
X92373D01*
X87172Y62447D02*
Y62854D01*
X87578D01*
Y62447D01*
X87172D01*
X87273Y62549D02*
Y62752D01*
X87477D01*
Y62549D01*
X87273D01*
X87172Y57347D02*
Y57754D01*
X87578D01*
Y57347D01*
X87172D01*
X87273Y57449D02*
Y57652D01*
X87477D01*
Y57449D01*
X87273D01*
X92272Y57347D02*
Y57754D01*
X92678D01*
Y57347D01*
X92272D01*
X92373Y57449D02*
Y57652D01*
X92577D01*
Y57449D01*
X92373D01*
X54377Y59858D02*
X54173Y60265D01*
X54580D01*
X54377Y59858D01*
Y59960D02*
X54275Y60163D01*
X54478D01*
X54377Y59960D01*
Y61888D02*
X54173Y62295D01*
X54580D01*
X54377Y61888D01*
Y61990D02*
X54275Y62193D01*
X54478D01*
X54377Y61990D01*
X52472Y63413D02*
X52573Y63515D01*
X52675D01*
X52573Y63616D01*
X52675Y63718D01*
X52573D01*
X52472Y63820D01*
X52370Y63718D01*
X52268D01*
X52370Y63616D01*
X52268Y63515D01*
X52370D01*
X52472Y63413D01*
Y63515D02*
X52522Y63566D01*
X52573D01*
X52522Y63616D01*
X52573Y63667D01*
X52522D01*
X52472Y63718D01*
X52421Y63667D01*
X52370D01*
X52421Y63616D01*
X52370Y63566D01*
X52421D01*
X52472Y63515D01*
Y58333D02*
X52573Y58435D01*
X52675D01*
X52573Y58536D01*
X52675Y58638D01*
X52573D01*
X52472Y58740D01*
X52370Y58638D01*
X52268D01*
X52370Y58536D01*
X52268Y58435D01*
X52370D01*
X52472Y58333D01*
Y58435D02*
X52522Y58486D01*
X52573D01*
X52522Y58536D01*
X52573Y58587D01*
X52522D01*
X52472Y58638D01*
X52421Y58587D01*
X52370D01*
X52421Y58536D01*
X52370Y58486D01*
X52421D01*
X52472Y58435D01*
X46757Y58333D02*
X46858Y58435D01*
X46960D01*
X46858Y58536D01*
X46960Y58638D01*
X46858D01*
X46757Y58740D01*
X46655Y58638D01*
X46553D01*
X46655Y58536D01*
X46553Y58435D01*
X46655D01*
X46757Y58333D01*
Y58435D02*
X46807Y58486D01*
X46858D01*
X46807Y58536D01*
X46858Y58587D01*
X46807D01*
X46757Y58638D01*
X46706Y58587D01*
X46655D01*
X46706Y58536D01*
X46655Y58486D01*
X46706D01*
X46757Y58435D01*
X46757Y63413D02*
X46858Y63515D01*
X46960D01*
X46858Y63616D01*
X46960Y63718D01*
X46858D01*
X46757Y63820D01*
X46655Y63718D01*
X46553D01*
X46655Y63616D01*
X46553Y63515D01*
X46655D01*
X46757Y63413D01*
Y63515D02*
X46807Y63566D01*
X46858D01*
X46807Y63616D01*
X46858Y63667D01*
X46807D01*
X46757Y63718D01*
X46706Y63667D01*
X46655D01*
X46706Y63616D01*
X46655Y63566D01*
X46706D01*
X46757Y63515D01*
X46757Y60873D02*
X46553Y61280D01*
X46960D01*
X46757Y60873D01*
Y60975D02*
X46655Y61178D01*
X46858D01*
X46757Y60975D01*
X89722Y49813D02*
X89925Y50016D01*
X90128Y49813D01*
X89925Y49610D01*
X89722Y49813D01*
X92272Y52160D02*
Y52566D01*
X92678D01*
Y52160D01*
X92272D01*
X92373Y52261D02*
Y52465D01*
X92577D01*
Y52261D01*
X92373D01*
X87172Y52160D02*
Y52566D01*
X87578D01*
Y52160D01*
X87172D01*
X87273Y52261D02*
Y52465D01*
X87477D01*
Y52261D01*
X87273D01*
X87172Y47060D02*
Y47466D01*
X87578D01*
Y47060D01*
X87172D01*
X87273Y47161D02*
Y47365D01*
X87477D01*
Y47161D01*
X87273D01*
X92272Y47060D02*
Y47466D01*
X92678D01*
Y47060D01*
X92272D01*
X92373Y47161D02*
Y47365D01*
X92577D01*
Y47161D01*
X92373D01*
X95000Y4797D02*
X94797Y5203D01*
X95203D01*
X95000Y4797D01*
X5000D02*
X4797Y5203D01*
X5203D01*
X5000Y4797D01*
X64684Y30561D02*
X64785Y30663D01*
X64887D01*
X64785Y30765D01*
X64887Y30866D01*
X64785D01*
X64684Y30968D01*
X64582Y30866D01*
X64480D01*
X64582Y30765D01*
X64480Y30663D01*
X64582D01*
X64684Y30561D01*
X33402Y67522D02*
X33504Y67623D01*
X33605D01*
X33504Y67725D01*
X33605Y67827D01*
X33504D01*
X33402Y67928D01*
X33300Y67827D01*
X33199D01*
X33300Y67725D01*
X33199Y67623D01*
X33300D01*
X33402Y67522D01*
X34502D02*
X34604Y67623D01*
X34705D01*
X34604Y67725D01*
X34705Y67827D01*
X34604D01*
X34502Y67928D01*
X34400Y67827D01*
X34299D01*
X34400Y67725D01*
X34299Y67623D01*
X34400D01*
X34502Y67522D01*
X33402Y66422D02*
X33504Y66523D01*
X33605D01*
X33504Y66625D01*
X33605Y66727D01*
X33504D01*
X33402Y66828D01*
X33300Y66727D01*
X33199D01*
X33300Y66625D01*
X33199Y66523D01*
X33300D01*
X33402Y66422D01*
X34502D02*
X34604Y66523D01*
X34705D01*
X34604Y66625D01*
X34705Y66727D01*
X34604D01*
X34502Y66828D01*
X34400Y66727D01*
X34299D01*
X34400Y66625D01*
X34299Y66523D01*
X34400D01*
X34502Y66422D01*
X87500Y79260D02*
X87602Y79361D01*
X87703D01*
X87602Y79463D01*
X87703Y79565D01*
X87602D01*
X87500Y79666D01*
X87398Y79565D01*
X87297D01*
X87398Y79463D01*
X87297Y79361D01*
X87398D01*
X87500Y79260D01*
X27950Y13060D02*
X28052Y13161D01*
X28153D01*
X28052Y13263D01*
X28153Y13365D01*
X28052D01*
X27950Y13466D01*
X27848Y13365D01*
X27747D01*
X27848Y13263D01*
X27747Y13161D01*
X27848D01*
X27950Y13060D01*
X28950D02*
X29052Y13161D01*
X29153D01*
X29052Y13263D01*
X29153Y13365D01*
X29052D01*
X28950Y13466D01*
X28848Y13365D01*
X28747D01*
X28848Y13263D01*
X28747Y13161D01*
X28848D01*
X28950Y13060D01*
X10475Y30760D02*
X10577Y30861D01*
X10678D01*
X10577Y30963D01*
X10678Y31065D01*
X10577D01*
X10475Y31166D01*
X10373Y31065D01*
X10272D01*
X10373Y30963D01*
X10272Y30861D01*
X10373D01*
X10475Y30760D01*
Y29760D02*
X10577Y29861D01*
X10678D01*
X10577Y29963D01*
X10678Y30065D01*
X10577D01*
X10475Y30166D01*
X10373Y30065D01*
X10272D01*
X10373Y29963D01*
X10272Y29861D01*
X10373D01*
X10475Y29760D01*
X11475Y30760D02*
X11577Y30861D01*
X11678D01*
X11577Y30963D01*
X11678Y31065D01*
X11577D01*
X11475Y31166D01*
X11373Y31065D01*
X11272D01*
X11373Y30963D01*
X11272Y30861D01*
X11373D01*
X11475Y30760D01*
X12475D02*
X12577Y30861D01*
X12678D01*
X12577Y30963D01*
X12678Y31065D01*
X12577D01*
X12475Y31166D01*
X12373Y31065D01*
X12272D01*
X12373Y30963D01*
X12272Y30861D01*
X12373D01*
X12475Y30760D01*
X11475Y29760D02*
X11577Y29861D01*
X11678D01*
X11577Y29963D01*
X11678Y30065D01*
X11577D01*
X11475Y30166D01*
X11373Y30065D01*
X11272D01*
X11373Y29963D01*
X11272Y29861D01*
X11373D01*
X11475Y29760D01*
X30375Y8560D02*
X30477Y8661D01*
X30578D01*
X30477Y8763D01*
X30578Y8865D01*
X30477D01*
X30375Y8966D01*
X30273Y8865D01*
X30172D01*
X30273Y8763D01*
X30172Y8661D01*
X30273D01*
X30375Y8560D01*
Y7560D02*
X30477Y7661D01*
X30578D01*
X30477Y7763D01*
X30578Y7865D01*
X30477D01*
X30375Y7966D01*
X30273Y7865D01*
X30172D01*
X30273Y7763D01*
X30172Y7661D01*
X30273D01*
X30375Y7560D01*
X31375Y8560D02*
X31477Y8661D01*
X31578D01*
X31477Y8763D01*
X31578Y8865D01*
X31477D01*
X31375Y8966D01*
X31273Y8865D01*
X31172D01*
X31273Y8763D01*
X31172Y8661D01*
X31273D01*
X31375Y8560D01*
X32375D02*
X32477Y8661D01*
X32578D01*
X32477Y8763D01*
X32578Y8865D01*
X32477D01*
X32375Y8966D01*
X32273Y8865D01*
X32172D01*
X32273Y8763D01*
X32172Y8661D01*
X32273D01*
X32375Y8560D01*
X39600Y3859D02*
X39701Y3961D01*
X39803D01*
X39701Y4063D01*
X39803Y4164D01*
X39701D01*
X39600Y4266D01*
X39498Y4164D01*
X39396D01*
X39498Y4063D01*
X39396Y3961D01*
X39498D01*
X39600Y3859D01*
X83625Y38885D02*
X83727Y38986D01*
X83828D01*
X83727Y39088D01*
X83828Y39190D01*
X83727D01*
X83625Y39291D01*
X83523Y39190D01*
X83422D01*
X83523Y39088D01*
X83422Y38986D01*
X83523D01*
X83625Y38885D01*
X86050Y39235D02*
X86152Y39336D01*
X86253D01*
X86152Y39438D01*
X86253Y39540D01*
X86152D01*
X86050Y39641D01*
X85948Y39540D01*
X85847D01*
X85948Y39438D01*
X85847Y39336D01*
X85948D01*
X86050Y39235D01*
X23525Y78610D02*
X23627Y78711D01*
X23728D01*
X23627Y78813D01*
X23728Y78915D01*
X23627D01*
X23525Y79016D01*
X23423Y78915D01*
X23322D01*
X23423Y78813D01*
X23322Y78711D01*
X23423D01*
X23525Y78610D01*
X71100Y70360D02*
X71202Y70461D01*
X71303D01*
X71202Y70563D01*
X71303Y70665D01*
X71202D01*
X71100Y70766D01*
X70998Y70665D01*
X70897D01*
X70998Y70563D01*
X70897Y70461D01*
X70998D01*
X71100Y70360D01*
X66050Y70060D02*
X66152Y70161D01*
X66253D01*
X66152Y70263D01*
X66253Y70365D01*
X66152D01*
X66050Y70466D01*
X65948Y70365D01*
X65847D01*
X65948Y70263D01*
X65847Y70161D01*
X65948D01*
X66050Y70060D01*
X84550Y5960D02*
X84652Y6061D01*
X84753D01*
X84652Y6163D01*
X84753Y6265D01*
X84652D01*
X84550Y6366D01*
X84448Y6265D01*
X84347D01*
X84448Y6163D01*
X84347Y6061D01*
X84448D01*
X84550Y5960D01*
X23325Y59960D02*
X23427Y60061D01*
X23528D01*
X23427Y60163D01*
X23528Y60265D01*
X23427D01*
X23325Y60366D01*
X23223Y60265D01*
X23122D01*
X23223Y60163D01*
X23122Y60061D01*
X23223D01*
X23325Y59960D01*
X82200Y4610D02*
X82302Y4711D01*
X82403D01*
X82302Y4813D01*
X82403Y4915D01*
X82302D01*
X82200Y5016D01*
X82098Y4915D01*
X81997D01*
X82098Y4813D01*
X81997Y4711D01*
X82098D01*
X82200Y4610D01*
X79950Y5960D02*
X80052Y6061D01*
X80153D01*
X80052Y6163D01*
X80153Y6265D01*
X80052D01*
X79950Y6366D01*
X79848Y6265D01*
X79747D01*
X79848Y6163D01*
X79747Y6061D01*
X79848D01*
X79950Y5960D01*
X25675Y61285D02*
X25777Y61386D01*
X25878D01*
X25777Y61488D01*
X25878Y61590D01*
X25777D01*
X25675Y61691D01*
X25573Y61590D01*
X25472D01*
X25573Y61488D01*
X25472Y61386D01*
X25573D01*
X25675Y61285D01*
X23525Y75935D02*
X23627Y76036D01*
X23728D01*
X23627Y76138D01*
X23728Y76240D01*
X23627D01*
X23525Y76341D01*
X23423Y76240D01*
X23322D01*
X23423Y76138D01*
X23322Y76036D01*
X23423D01*
X23525Y75935D01*
X3150Y46310D02*
X3252Y46411D01*
X3353D01*
X3252Y46513D01*
X3353Y46615D01*
X3252D01*
X3150Y46716D01*
X3048Y46615D01*
X2947D01*
X3048Y46513D01*
X2947Y46411D01*
X3048D01*
X3150Y46310D01*
X25875Y77285D02*
X25977Y77386D01*
X26078D01*
X25977Y77488D01*
X26078Y77590D01*
X25977D01*
X25875Y77691D01*
X25773Y77590D01*
X25672D01*
X25773Y77488D01*
X25672Y77386D01*
X25773D01*
X25875Y77285D01*
X82200Y7285D02*
X82302Y7386D01*
X82403D01*
X82302Y7488D01*
X82403Y7590D01*
X82302D01*
X82200Y7691D01*
X82098Y7590D01*
X81997D01*
X82098Y7488D01*
X81997Y7386D01*
X82098D01*
X82200Y7285D01*
X73450Y69035D02*
X73552Y69136D01*
X73653D01*
X73552Y69238D01*
X73653Y69340D01*
X73552D01*
X73450Y69441D01*
X73348Y69340D01*
X73247D01*
X73348Y69238D01*
X73247Y69136D01*
X73348D01*
X73450Y69035D01*
X25675Y58610D02*
X25777Y58711D01*
X25878D01*
X25777Y58813D01*
X25878Y58915D01*
X25777D01*
X25675Y59016D01*
X25573Y58915D01*
X25472D01*
X25573Y58813D01*
X25472Y58711D01*
X25573D01*
X25675Y58610D01*
X21275Y77285D02*
X21377Y77386D01*
X21478D01*
X21377Y77488D01*
X21478Y77590D01*
X21377D01*
X21275Y77691D01*
X21173Y77590D01*
X21072D01*
X21173Y77488D01*
X21072Y77386D01*
X21173D01*
X21275Y77285D01*
X27925Y59960D02*
X28027Y60061D01*
X28128D01*
X28027Y60163D01*
X28128Y60265D01*
X28027D01*
X27925Y60366D01*
X27823Y60265D01*
X27722D01*
X27823Y60163D01*
X27722Y60061D01*
X27823D01*
X27925Y59960D01*
X51575Y54785D02*
X51677Y54886D01*
X51778D01*
X51677Y54988D01*
X51778Y55090D01*
X51677D01*
X51575Y55191D01*
X51473Y55090D01*
X51372D01*
X51473Y54988D01*
X51372Y54886D01*
X51473D01*
X51575Y54785D01*
X68850Y69035D02*
X68952Y69136D01*
X69053D01*
X68952Y69238D01*
X69053Y69340D01*
X68952D01*
X68850Y69441D01*
X68748Y69340D01*
X68647D01*
X68748Y69238D01*
X68647Y69136D01*
X68748D01*
X68850Y69035D01*
X71100Y67685D02*
X71202Y67786D01*
X71303D01*
X71202Y67888D01*
X71303Y67990D01*
X71202D01*
X71100Y68091D01*
X70998Y67990D01*
X70897D01*
X70998Y67888D01*
X70897Y67786D01*
X70998D01*
X71100Y67685D01*
X45000Y94260D02*
X45102Y94361D01*
X45203D01*
X45102Y94463D01*
X45203Y94565D01*
X45102D01*
X45000Y94666D01*
X44898Y94565D01*
X44797D01*
X44898Y94463D01*
X44797Y94361D01*
X44898D01*
X45000Y94260D01*
X47500Y79260D02*
X47602Y79361D01*
X47703D01*
X47602Y79463D01*
X47703Y79565D01*
X47602D01*
X47500Y79666D01*
X47398Y79565D01*
X47297D01*
X47398Y79463D01*
X47297Y79361D01*
X47398D01*
X47500Y79260D01*
Y29260D02*
X47602Y29361D01*
X47703D01*
X47602Y29463D01*
X47703Y29565D01*
X47602D01*
X47500Y29666D01*
X47398Y29565D01*
X47297D01*
X47398Y29463D01*
X47297Y29361D01*
X47398D01*
X47500Y29260D01*
X45000Y24260D02*
X45102Y24361D01*
X45203D01*
X45102Y24463D01*
X45203Y24565D01*
X45102D01*
X45000Y24666D01*
X44898Y24565D01*
X44797D01*
X44898Y24463D01*
X44797Y24361D01*
X44898D01*
X45000Y24260D01*
X47500Y19260D02*
X47602Y19361D01*
X47703D01*
X47602Y19463D01*
X47703Y19565D01*
X47602D01*
X47500Y19666D01*
X47398Y19565D01*
X47297D01*
X47398Y19463D01*
X47297Y19361D01*
X47398D01*
X47500Y19260D01*
X45000Y14260D02*
X45102Y14361D01*
X45203D01*
X45102Y14463D01*
X45203Y14565D01*
X45102D01*
X45000Y14666D01*
X44898Y14565D01*
X44797D01*
X44898Y14463D01*
X44797Y14361D01*
X44898D01*
X45000Y14260D01*
X47500Y9260D02*
X47602Y9361D01*
X47703D01*
X47602Y9463D01*
X47703Y9565D01*
X47602D01*
X47500Y9666D01*
X47398Y9565D01*
X47297D01*
X47398Y9463D01*
X47297Y9361D01*
X47398D01*
X47500Y9260D01*
X42500Y89260D02*
X42602Y89361D01*
X42703D01*
X42602Y89463D01*
X42703Y89565D01*
X42602D01*
X42500Y89666D01*
X42398Y89565D01*
X42297D01*
X42398Y89463D01*
X42297Y89361D01*
X42398D01*
X42500Y89260D01*
X40000Y84260D02*
X40102Y84361D01*
X40203D01*
X40102Y84463D01*
X40203Y84565D01*
X40102D01*
X40000Y84666D01*
X39898Y84565D01*
X39797D01*
X39898Y84463D01*
X39797Y84361D01*
X39898D01*
X40000Y84260D01*
X42500Y19260D02*
X42602Y19361D01*
X42703D01*
X42602Y19463D01*
X42703Y19565D01*
X42602D01*
X42500Y19666D01*
X42398Y19565D01*
X42297D01*
X42398Y19463D01*
X42297Y19361D01*
X42398D01*
X42500Y19260D01*
X40000Y14260D02*
X40102Y14361D01*
X40203D01*
X40102Y14463D01*
X40203Y14565D01*
X40102D01*
X40000Y14666D01*
X39898Y14565D01*
X39797D01*
X39898Y14463D01*
X39797Y14361D01*
X39898D01*
X40000Y14260D01*
X42500Y9260D02*
X42602Y9361D01*
X42703D01*
X42602Y9463D01*
X42703Y9565D01*
X42602D01*
X42500Y9666D01*
X42398Y9565D01*
X42297D01*
X42398Y9463D01*
X42297Y9361D01*
X42398D01*
X42500Y9260D01*
X35000Y94260D02*
X35102Y94361D01*
X35203D01*
X35102Y94463D01*
X35203Y94565D01*
X35102D01*
X35000Y94666D01*
X34898Y94565D01*
X34797D01*
X34898Y94463D01*
X34797Y94361D01*
X34898D01*
X35000Y94260D01*
X37500Y89260D02*
X37602Y89361D01*
X37703D01*
X37602Y89463D01*
X37703Y89565D01*
X37602D01*
X37500Y89666D01*
X37398Y89565D01*
X37297D01*
X37398Y89463D01*
X37297Y89361D01*
X37398D01*
X37500Y89260D01*
X35000Y84260D02*
X35102Y84361D01*
X35203D01*
X35102Y84463D01*
X35203Y84565D01*
X35102D01*
X35000Y84666D01*
X34898Y84565D01*
X34797D01*
X34898Y84463D01*
X34797Y84361D01*
X34898D01*
X35000Y84260D01*
Y24260D02*
X35102Y24361D01*
X35203D01*
X35102Y24463D01*
X35203Y24565D01*
X35102D01*
X35000Y24666D01*
X34898Y24565D01*
X34797D01*
X34898Y24463D01*
X34797Y24361D01*
X34898D01*
X35000Y24260D01*
X37500Y19260D02*
X37602Y19361D01*
X37703D01*
X37602Y19463D01*
X37703Y19565D01*
X37602D01*
X37500Y19666D01*
X37398Y19565D01*
X37297D01*
X37398Y19463D01*
X37297Y19361D01*
X37398D01*
X37500Y19260D01*
X35000Y14260D02*
X35102Y14361D01*
X35203D01*
X35102Y14463D01*
X35203Y14565D01*
X35102D01*
X35000Y14666D01*
X34898Y14565D01*
X34797D01*
X34898Y14463D01*
X34797Y14361D01*
X34898D01*
X35000Y14260D01*
X37500Y9260D02*
X37602Y9361D01*
X37703D01*
X37602Y9463D01*
X37703Y9565D01*
X37602D01*
X37500Y9666D01*
X37398Y9565D01*
X37297D01*
X37398Y9463D01*
X37297Y9361D01*
X37398D01*
X37500Y9260D01*
X35000Y4260D02*
X35102Y4361D01*
X35203D01*
X35102Y4463D01*
X35203Y4565D01*
X35102D01*
X35000Y4666D01*
X34898Y4565D01*
X34797D01*
X34898Y4463D01*
X34797Y4361D01*
X34898D01*
X35000Y4260D01*
X30000Y94260D02*
X30102Y94361D01*
X30203D01*
X30102Y94463D01*
X30203Y94565D01*
X30102D01*
X30000Y94666D01*
X29898Y94565D01*
X29797D01*
X29898Y94463D01*
X29797Y94361D01*
X29898D01*
X30000Y94260D01*
X32500Y89260D02*
X32602Y89361D01*
X32703D01*
X32602Y89463D01*
X32703Y89565D01*
X32602D01*
X32500Y89666D01*
X32398Y89565D01*
X32297D01*
X32398Y89463D01*
X32297Y89361D01*
X32398D01*
X32500Y89260D01*
X30000Y84260D02*
X30102Y84361D01*
X30203D01*
X30102Y84463D01*
X30203Y84565D01*
X30102D01*
X30000Y84666D01*
X29898Y84565D01*
X29797D01*
X29898Y84463D01*
X29797Y84361D01*
X29898D01*
X30000Y84260D01*
X32500Y79260D02*
X32602Y79361D01*
X32703D01*
X32602Y79463D01*
X32703Y79565D01*
X32602D01*
X32500Y79666D01*
X32398Y79565D01*
X32297D01*
X32398Y79463D01*
X32297Y79361D01*
X32398D01*
X32500Y79260D01*
X30000Y64260D02*
X30102Y64361D01*
X30203D01*
X30102Y64463D01*
X30203Y64565D01*
X30102D01*
X30000Y64666D01*
X29898Y64565D01*
X29797D01*
X29898Y64463D01*
X29797Y64361D01*
X29898D01*
X30000Y64260D01*
Y54260D02*
X30102Y54361D01*
X30203D01*
X30102Y54463D01*
X30203Y54565D01*
X30102D01*
X30000Y54666D01*
X29898Y54565D01*
X29797D01*
X29898Y54463D01*
X29797Y54361D01*
X29898D01*
X30000Y54260D01*
X32500Y19260D02*
X32602Y19361D01*
X32703D01*
X32602Y19463D01*
X32703Y19565D01*
X32602D01*
X32500Y19666D01*
X32398Y19565D01*
X32297D01*
X32398Y19463D01*
X32297Y19361D01*
X32398D01*
X32500Y19260D01*
X30000Y4260D02*
X30102Y4361D01*
X30203D01*
X30102Y4463D01*
X30203Y4565D01*
X30102D01*
X30000Y4666D01*
X29898Y4565D01*
X29797D01*
X29898Y4463D01*
X29797Y4361D01*
X29898D01*
X30000Y4260D01*
X25000Y84260D02*
X25102Y84361D01*
X25203D01*
X25102Y84463D01*
X25203Y84565D01*
X25102D01*
X25000Y84666D01*
X24898Y84565D01*
X24797D01*
X24898Y84463D01*
X24797Y84361D01*
X24898D01*
X25000Y84260D01*
X27500Y79260D02*
X27602Y79361D01*
X27703D01*
X27602Y79463D01*
X27703Y79565D01*
X27602D01*
X27500Y79666D01*
X27398Y79565D01*
X27297D01*
X27398Y79463D01*
X27297Y79361D01*
X27398D01*
X27500Y79260D01*
X25000Y64260D02*
X25102Y64361D01*
X25203D01*
X25102Y64463D01*
X25203Y64565D01*
X25102D01*
X25000Y64666D01*
X24898Y64565D01*
X24797D01*
X24898Y64463D01*
X24797Y64361D01*
X24898D01*
X25000Y64260D01*
Y54260D02*
X25102Y54361D01*
X25203D01*
X25102Y54463D01*
X25203Y54565D01*
X25102D01*
X25000Y54666D01*
X24898Y54565D01*
X24797D01*
X24898Y54463D01*
X24797Y54361D01*
X24898D01*
X25000Y54260D01*
X27500Y49260D02*
X27602Y49361D01*
X27703D01*
X27602Y49463D01*
X27703Y49565D01*
X27602D01*
X27500Y49666D01*
X27398Y49565D01*
X27297D01*
X27398Y49463D01*
X27297Y49361D01*
X27398D01*
X27500Y49260D01*
Y29260D02*
X27602Y29361D01*
X27703D01*
X27602Y29463D01*
X27703Y29565D01*
X27602D01*
X27500Y29666D01*
X27398Y29565D01*
X27297D01*
X27398Y29463D01*
X27297Y29361D01*
X27398D01*
X27500Y29260D01*
Y19260D02*
X27602Y19361D01*
X27703D01*
X27602Y19463D01*
X27703Y19565D01*
X27602D01*
X27500Y19666D01*
X27398Y19565D01*
X27297D01*
X27398Y19463D01*
X27297Y19361D01*
X27398D01*
X27500Y19260D01*
X25000Y4260D02*
X25102Y4361D01*
X25203D01*
X25102Y4463D01*
X25203Y4565D01*
X25102D01*
X25000Y4666D01*
X24898Y4565D01*
X24797D01*
X24898Y4463D01*
X24797Y4361D01*
X24898D01*
X25000Y4260D01*
X20000Y94260D02*
X20102Y94361D01*
X20203D01*
X20102Y94463D01*
X20203Y94565D01*
X20102D01*
X20000Y94666D01*
X19898Y94565D01*
X19797D01*
X19898Y94463D01*
X19797Y94361D01*
X19898D01*
X20000Y94260D01*
Y84260D02*
X20102Y84361D01*
X20203D01*
X20102Y84463D01*
X20203Y84565D01*
X20102D01*
X20000Y84666D01*
X19898Y84565D01*
X19797D01*
X19898Y84463D01*
X19797Y84361D01*
X19898D01*
X20000Y84260D01*
X22500Y79260D02*
X22602Y79361D01*
X22703D01*
X22602Y79463D01*
X22703Y79565D01*
X22602D01*
X22500Y79666D01*
X22398Y79565D01*
X22297D01*
X22398Y79463D01*
X22297Y79361D01*
X22398D01*
X22500Y79260D01*
Y69260D02*
X22602Y69361D01*
X22703D01*
X22602Y69463D01*
X22703Y69565D01*
X22602D01*
X22500Y69666D01*
X22398Y69565D01*
X22297D01*
X22398Y69463D01*
X22297Y69361D01*
X22398D01*
X22500Y69260D01*
Y59260D02*
X22602Y59361D01*
X22703D01*
X22602Y59463D01*
X22703Y59565D01*
X22602D01*
X22500Y59666D01*
X22398Y59565D01*
X22297D01*
X22398Y59463D01*
X22297Y59361D01*
X22398D01*
X22500Y59260D01*
X20000Y54260D02*
X20102Y54361D01*
X20203D01*
X20102Y54463D01*
X20203Y54565D01*
X20102D01*
X20000Y54666D01*
X19898Y54565D01*
X19797D01*
X19898Y54463D01*
X19797Y54361D01*
X19898D01*
X20000Y54260D01*
X15000Y94260D02*
X15102Y94361D01*
X15203D01*
X15102Y94463D01*
X15203Y94565D01*
X15102D01*
X15000Y94666D01*
X14898Y94565D01*
X14797D01*
X14898Y94463D01*
X14797Y94361D01*
X14898D01*
X15000Y94260D01*
X17500Y89260D02*
X17602Y89361D01*
X17703D01*
X17602Y89463D01*
X17703Y89565D01*
X17602D01*
X17500Y89666D01*
X17398Y89565D01*
X17297D01*
X17398Y89463D01*
X17297Y89361D01*
X17398D01*
X17500Y89260D01*
X15000Y84260D02*
X15102Y84361D01*
X15203D01*
X15102Y84463D01*
X15203Y84565D01*
X15102D01*
X15000Y84666D01*
X14898Y84565D01*
X14797D01*
X14898Y84463D01*
X14797Y84361D01*
X14898D01*
X15000Y84260D01*
X17500Y79260D02*
X17602Y79361D01*
X17703D01*
X17602Y79463D01*
X17703Y79565D01*
X17602D01*
X17500Y79666D01*
X17398Y79565D01*
X17297D01*
X17398Y79463D01*
X17297Y79361D01*
X17398D01*
X17500Y79260D01*
Y59260D02*
X17602Y59361D01*
X17703D01*
X17602Y59463D01*
X17703Y59565D01*
X17602D01*
X17500Y59666D01*
X17398Y59565D01*
X17297D01*
X17398Y59463D01*
X17297Y59361D01*
X17398D01*
X17500Y59260D01*
X15000Y54260D02*
X15102Y54361D01*
X15203D01*
X15102Y54463D01*
X15203Y54565D01*
X15102D01*
X15000Y54666D01*
X14898Y54565D01*
X14797D01*
X14898Y54463D01*
X14797Y54361D01*
X14898D01*
X15000Y54260D01*
X17500Y49260D02*
X17602Y49361D01*
X17703D01*
X17602Y49463D01*
X17703Y49565D01*
X17602D01*
X17500Y49666D01*
X17398Y49565D01*
X17297D01*
X17398Y49463D01*
X17297Y49361D01*
X17398D01*
X17500Y49260D01*
X15000Y44260D02*
X15102Y44361D01*
X15203D01*
X15102Y44463D01*
X15203Y44565D01*
X15102D01*
X15000Y44666D01*
X14898Y44565D01*
X14797D01*
X14898Y44463D01*
X14797Y44361D01*
X14898D01*
X15000Y44260D01*
Y34260D02*
X15102Y34361D01*
X15203D01*
X15102Y34463D01*
X15203Y34565D01*
X15102D01*
X15000Y34666D01*
X14898Y34565D01*
X14797D01*
X14898Y34463D01*
X14797Y34361D01*
X14898D01*
X15000Y34260D01*
Y4260D02*
X15102Y4361D01*
X15203D01*
X15102Y4463D01*
X15203Y4565D01*
X15102D01*
X15000Y4666D01*
X14898Y4565D01*
X14797D01*
X14898Y4463D01*
X14797Y4361D01*
X14898D01*
X15000Y4260D01*
X10000Y94260D02*
X10102Y94361D01*
X10203D01*
X10102Y94463D01*
X10203Y94565D01*
X10102D01*
X10000Y94666D01*
X9898Y94565D01*
X9797D01*
X9898Y94463D01*
X9797Y94361D01*
X9898D01*
X10000Y94260D01*
X12500Y89260D02*
X12602Y89361D01*
X12703D01*
X12602Y89463D01*
X12703Y89565D01*
X12602D01*
X12500Y89666D01*
X12398Y89565D01*
X12297D01*
X12398Y89463D01*
X12297Y89361D01*
X12398D01*
X12500Y89260D01*
X10000Y84260D02*
X10102Y84361D01*
X10203D01*
X10102Y84463D01*
X10203Y84565D01*
X10102D01*
X10000Y84666D01*
X9898Y84565D01*
X9797D01*
X9898Y84463D01*
X9797Y84361D01*
X9898D01*
X10000Y84260D01*
X22500Y49260D02*
X22602Y49361D01*
X22703D01*
X22602Y49463D01*
X22703Y49565D01*
X22602D01*
X22500Y49666D01*
X22398Y49565D01*
X22297D01*
X22398Y49463D01*
X22297Y49361D01*
X22398D01*
X22500Y49260D01*
X20000Y14260D02*
X20102Y14361D01*
X20203D01*
X20102Y14463D01*
X20203Y14565D01*
X20102D01*
X20000Y14666D01*
X19898Y14565D01*
X19797D01*
X19898Y14463D01*
X19797Y14361D01*
X19898D01*
X20000Y14260D01*
X22500Y9260D02*
X22602Y9361D01*
X22703D01*
X22602Y9463D01*
X22703Y9565D01*
X22602D01*
X22500Y9666D01*
X22398Y9565D01*
X22297D01*
X22398Y9463D01*
X22297Y9361D01*
X22398D01*
X22500Y9260D01*
X20000Y4260D02*
X20102Y4361D01*
X20203D01*
X20102Y4463D01*
X20203Y4565D01*
X20102D01*
X20000Y4666D01*
X19898Y4565D01*
X19797D01*
X19898Y4463D01*
X19797Y4361D01*
X19898D01*
X20000Y4260D01*
X5000Y84260D02*
X5102Y84361D01*
X5203D01*
X5102Y84463D01*
X5203Y84565D01*
X5102D01*
X5000Y84666D01*
X4898Y84565D01*
X4797D01*
X4898Y84463D01*
X4797Y84361D01*
X4898D01*
X5000Y84260D01*
X7500Y79260D02*
X7602Y79361D01*
X7703D01*
X7602Y79463D01*
X7703Y79565D01*
X7602D01*
X7500Y79666D01*
X7398Y79565D01*
X7297D01*
X7398Y79463D01*
X7297Y79361D01*
X7398D01*
X7500Y79260D01*
X12500D02*
X12602Y79361D01*
X12703D01*
X12602Y79463D01*
X12703Y79565D01*
X12602D01*
X12500Y79666D01*
X12398Y79565D01*
X12297D01*
X12398Y79463D01*
X12297Y79361D01*
X12398D01*
X12500Y79260D01*
X7500Y89260D02*
X7602Y89361D01*
X7703D01*
X7602Y89463D01*
X7703Y89565D01*
X7602D01*
X7500Y89666D01*
X7398Y89565D01*
X7297D01*
X7398Y89463D01*
X7297Y89361D01*
X7398D01*
X7500Y89260D01*
X10000Y4260D02*
X10102Y4361D01*
X10203D01*
X10102Y4463D01*
X10203Y4565D01*
X10102D01*
X10000Y4666D01*
X9898Y4565D01*
X9797D01*
X9898Y4463D01*
X9797Y4361D01*
X9898D01*
X10000Y4260D01*
Y54260D02*
X10102Y54361D01*
X10203D01*
X10102Y54463D01*
X10203Y54565D01*
X10102D01*
X10000Y54666D01*
X9898Y54565D01*
X9797D01*
X9898Y54463D01*
X9797Y54361D01*
X9898D01*
X10000Y54260D01*
Y64260D02*
X10102Y64361D01*
X10203D01*
X10102Y64463D01*
X10203Y64565D01*
X10102D01*
X10000Y64666D01*
X9898Y64565D01*
X9797D01*
X9898Y64463D01*
X9797Y64361D01*
X9898D01*
X10000Y64260D01*
X12500Y39260D02*
X12602Y39361D01*
X12703D01*
X12602Y39463D01*
X12703Y39565D01*
X12602D01*
X12500Y39666D01*
X12398Y39565D01*
X12297D01*
X12398Y39463D01*
X12297Y39361D01*
X12398D01*
X12500Y39260D01*
X10000Y24260D02*
X10102Y24361D01*
X10203D01*
X10102Y24463D01*
X10203Y24565D01*
X10102D01*
X10000Y24666D01*
X9898Y24565D01*
X9797D01*
X9898Y24463D01*
X9797Y24361D01*
X9898D01*
X10000Y24260D01*
Y44260D02*
X10102Y44361D01*
X10203D01*
X10102Y44463D01*
X10203Y44565D01*
X10102D01*
X10000Y44666D01*
X9898Y44565D01*
X9797D01*
X9898Y44463D01*
X9797Y44361D01*
X9898D01*
X10000Y44260D01*
X12500Y49260D02*
X12602Y49361D01*
X12703D01*
X12602Y49463D01*
X12703Y49565D01*
X12602D01*
X12500Y49666D01*
X12398Y49565D01*
X12297D01*
X12398Y49463D01*
X12297Y49361D01*
X12398D01*
X12500Y49260D01*
X60000Y34260D02*
X60102Y34361D01*
X60203D01*
X60102Y34463D01*
X60203Y34565D01*
X60102D01*
X60000Y34666D01*
X59898Y34565D01*
X59797D01*
X59898Y34463D01*
X59797Y34361D01*
X59898D01*
X60000Y34260D01*
Y24260D02*
X60102Y24361D01*
X60203D01*
X60102Y24463D01*
X60203Y24565D01*
X60102D01*
X60000Y24666D01*
X59898Y24565D01*
X59797D01*
X59898Y24463D01*
X59797Y24361D01*
X59898D01*
X60000Y24260D01*
Y14260D02*
X60102Y14361D01*
X60203D01*
X60102Y14463D01*
X60203Y14565D01*
X60102D01*
X60000Y14666D01*
X59898Y14565D01*
X59797D01*
X59898Y14463D01*
X59797Y14361D01*
X59898D01*
X60000Y14260D01*
Y4260D02*
X60102Y4361D01*
X60203D01*
X60102Y4463D01*
X60203Y4565D01*
X60102D01*
X60000Y4666D01*
X59898Y4565D01*
X59797D01*
X59898Y4463D01*
X59797Y4361D01*
X59898D01*
X60000Y4260D01*
X57500Y89260D02*
X57602Y89361D01*
X57703D01*
X57602Y89463D01*
X57703Y89565D01*
X57602D01*
X57500Y89666D01*
X57398Y89565D01*
X57297D01*
X57398Y89463D01*
X57297Y89361D01*
X57398D01*
X57500Y89260D01*
X55000Y84260D02*
X55102Y84361D01*
X55203D01*
X55102Y84463D01*
X55203Y84565D01*
X55102D01*
X55000Y84666D01*
X54898Y84565D01*
X54797D01*
X54898Y84463D01*
X54797Y84361D01*
X54898D01*
X55000Y84260D01*
Y64260D02*
X55102Y64361D01*
X55203D01*
X55102Y64463D01*
X55203Y64565D01*
X55102D01*
X55000Y64666D01*
X54898Y64565D01*
X54797D01*
X54898Y64463D01*
X54797Y64361D01*
X54898D01*
X55000Y64260D01*
Y24260D02*
X55102Y24361D01*
X55203D01*
X55102Y24463D01*
X55203Y24565D01*
X55102D01*
X55000Y24666D01*
X54898Y24565D01*
X54797D01*
X54898Y24463D01*
X54797Y24361D01*
X54898D01*
X55000Y24260D01*
X57500Y19260D02*
X57602Y19361D01*
X57703D01*
X57602Y19463D01*
X57703Y19565D01*
X57602D01*
X57500Y19666D01*
X57398Y19565D01*
X57297D01*
X57398Y19463D01*
X57297Y19361D01*
X57398D01*
X57500Y19260D01*
X55000Y14260D02*
X55102Y14361D01*
X55203D01*
X55102Y14463D01*
X55203Y14565D01*
X55102D01*
X55000Y14666D01*
X54898Y14565D01*
X54797D01*
X54898Y14463D01*
X54797Y14361D01*
X54898D01*
X55000Y14260D01*
X57500Y9260D02*
X57602Y9361D01*
X57703D01*
X57602Y9463D01*
X57703Y9565D01*
X57602D01*
X57500Y9666D01*
X57398Y9565D01*
X57297D01*
X57398Y9463D01*
X57297Y9361D01*
X57398D01*
X57500Y9260D01*
X55000Y4260D02*
X55102Y4361D01*
X55203D01*
X55102Y4463D01*
X55203Y4565D01*
X55102D01*
X55000Y4666D01*
X54898Y4565D01*
X54797D01*
X54898Y4463D01*
X54797Y4361D01*
X54898D01*
X55000Y4260D01*
X50000Y84260D02*
X50102Y84361D01*
X50203D01*
X50102Y84463D01*
X50203Y84565D01*
X50102D01*
X50000Y84666D01*
X49898Y84565D01*
X49797D01*
X49898Y84463D01*
X49797Y84361D01*
X49898D01*
X50000Y84260D01*
X52500Y79260D02*
X52602Y79361D01*
X52703D01*
X52602Y79463D01*
X52703Y79565D01*
X52602D01*
X52500Y79666D01*
X52398Y79565D01*
X52297D01*
X52398Y79463D01*
X52297Y79361D01*
X52398D01*
X52500Y79260D01*
X50000Y64260D02*
X50102Y64361D01*
X50203D01*
X50102Y64463D01*
X50203Y64565D01*
X50102D01*
X50000Y64666D01*
X49898Y64565D01*
X49797D01*
X49898Y64463D01*
X49797Y64361D01*
X49898D01*
X50000Y64260D01*
Y24260D02*
X50102Y24361D01*
X50203D01*
X50102Y24463D01*
X50203Y24565D01*
X50102D01*
X50000Y24666D01*
X49898Y24565D01*
X49797D01*
X49898Y24463D01*
X49797Y24361D01*
X49898D01*
X50000Y24260D01*
X52500Y19260D02*
X52602Y19361D01*
X52703D01*
X52602Y19463D01*
X52703Y19565D01*
X52602D01*
X52500Y19666D01*
X52398Y19565D01*
X52297D01*
X52398Y19463D01*
X52297Y19361D01*
X52398D01*
X52500Y19260D01*
X50000Y14260D02*
X50102Y14361D01*
X50203D01*
X50102Y14463D01*
X50203Y14565D01*
X50102D01*
X50000Y14666D01*
X49898Y14565D01*
X49797D01*
X49898Y14463D01*
X49797Y14361D01*
X49898D01*
X50000Y14260D01*
X52500Y9260D02*
X52602Y9361D01*
X52703D01*
X52602Y9463D01*
X52703Y9565D01*
X52602D01*
X52500Y9666D01*
X52398Y9565D01*
X52297D01*
X52398Y9463D01*
X52297Y9361D01*
X52398D01*
X52500Y9260D01*
X50000Y4260D02*
X50102Y4361D01*
X50203D01*
X50102Y4463D01*
X50203Y4565D01*
X50102D01*
X50000Y4666D01*
X49898Y4565D01*
X49797D01*
X49898Y4463D01*
X49797Y4361D01*
X49898D01*
X50000Y4260D01*
X17625Y22360D02*
X17727Y22461D01*
X17828D01*
X17727Y22563D01*
X17828Y22665D01*
X17727D01*
X17625Y22766D01*
X17523Y22665D01*
X17422D01*
X17523Y22563D01*
X17422Y22461D01*
X17523D01*
X17625Y22360D01*
X50150Y31635D02*
X50252Y31736D01*
X50353D01*
X50252Y31838D01*
X50353Y31940D01*
X50252D01*
X50150Y32041D01*
X50048Y31940D01*
X49947D01*
X50048Y31838D01*
X49947Y31736D01*
X50048D01*
X50150Y31635D01*
X85825Y87410D02*
X85927Y87511D01*
X86028D01*
X85927Y87613D01*
X86028Y87715D01*
X85927D01*
X85825Y87816D01*
X85723Y87715D01*
X85622D01*
X85723Y87613D01*
X85622Y87511D01*
X85723D01*
X85825Y87410D01*
X53530Y50986D02*
X53632Y51087D01*
X53734D01*
X53632Y51189D01*
X53734Y51291D01*
X53632D01*
X53530Y51392D01*
X53429Y51291D01*
X53327D01*
X53429Y51189D01*
X53327Y51087D01*
X53429D01*
X53530Y50986D01*
X62271Y6364D02*
X62372Y6466D01*
X62474D01*
X62372Y6567D01*
X62474Y6669D01*
X62372D01*
X62271Y6771D01*
X62169Y6669D01*
X62067D01*
X62169Y6567D01*
X62067Y6466D01*
X62169D01*
X62271Y6364D01*
X59750Y86435D02*
X59852Y86536D01*
X59953D01*
X59852Y86638D01*
X59953Y86740D01*
X59852D01*
X59750Y86841D01*
X59648Y86740D01*
X59547D01*
X59648Y86638D01*
X59547Y86536D01*
X59648D01*
X59750Y86435D01*
X87325Y87635D02*
X87427Y87736D01*
X87528D01*
X87427Y87838D01*
X87528Y87940D01*
X87427D01*
X87325Y88041D01*
X87223Y87940D01*
X87122D01*
X87223Y87838D01*
X87122Y87736D01*
X87223D01*
X87325Y87635D01*
X87525Y86485D02*
X87627Y86586D01*
X87728D01*
X87627Y86688D01*
X87728Y86790D01*
X87627D01*
X87525Y86891D01*
X87423Y86790D01*
X87322D01*
X87423Y86688D01*
X87322Y86586D01*
X87423D01*
X87525Y86485D01*
X3275Y31910D02*
X3377Y32011D01*
X3478D01*
X3377Y32113D01*
X3478Y32215D01*
X3377D01*
X3275Y32316D01*
X3173Y32215D01*
X3072D01*
X3173Y32113D01*
X3072Y32011D01*
X3173D01*
X3275Y31910D01*
X49973Y44634D02*
X50075Y44736D01*
X50176D01*
X50075Y44837D01*
X50176Y44939D01*
X50075D01*
X49973Y45040D01*
X49872Y44939D01*
X49770D01*
X49872Y44837D01*
X49770Y44736D01*
X49872D01*
X49973Y44634D01*
X5000Y64260D02*
X5102Y64361D01*
X5203D01*
X5102Y64463D01*
X5203Y64565D01*
X5102D01*
X5000Y64666D01*
X4898Y64565D01*
X4797D01*
X4898Y64463D01*
X4797Y64361D01*
X4898D01*
X5000Y64260D01*
X39608Y49818D02*
X39709Y49920D01*
X39811D01*
X39709Y50021D01*
X39811Y50123D01*
X39709D01*
X39608Y50225D01*
X39506Y50123D01*
X39404D01*
X39506Y50021D01*
X39404Y49920D01*
X39506D01*
X39608Y49818D01*
X38938Y48328D02*
X39040Y48430D01*
X39142D01*
X39040Y48531D01*
X39142Y48633D01*
X39040D01*
X38938Y48735D01*
X38837Y48633D01*
X38735D01*
X38837Y48531D01*
X38735Y48430D01*
X38837D01*
X38938Y48328D01*
X37078Y63860D02*
X37180Y63961D01*
X37282D01*
X37180Y64063D01*
X37282Y64165D01*
X37180D01*
X37078Y64266D01*
X36977Y64165D01*
X36875D01*
X36977Y64063D01*
X36875Y63961D01*
X36977D01*
X37078Y63860D01*
X37760Y65565D02*
X37862Y65666D01*
X37963D01*
X37862Y65768D01*
X37963Y65869D01*
X37862D01*
X37760Y65971D01*
X37658Y65869D01*
X37557D01*
X37658Y65768D01*
X37557Y65666D01*
X37658D01*
X37760Y65565D01*
X37176Y67029D02*
X37277Y67131D01*
X37379D01*
X37277Y67232D01*
X37379Y67334D01*
X37277D01*
X37176Y67435D01*
X37074Y67334D01*
X36973D01*
X37074Y67232D01*
X36973Y67131D01*
X37074D01*
X37176Y67029D01*
X29328Y67832D02*
X29429Y67934D01*
X29531D01*
X29429Y68035D01*
X29531Y68137D01*
X29429D01*
X29328Y68239D01*
X29226Y68137D01*
X29124D01*
X29226Y68035D01*
X29124Y67934D01*
X29226D01*
X29328Y67832D01*
X29300Y68835D02*
X29402Y68936D01*
X29503D01*
X29402Y69038D01*
X29503Y69140D01*
X29402D01*
X29300Y69241D01*
X29198Y69140D01*
X29097D01*
X29198Y69038D01*
X29097Y68936D01*
X29198D01*
X29300Y68835D01*
X29025Y69860D02*
X29127Y69961D01*
X29228D01*
X29127Y70063D01*
X29228Y70165D01*
X29127D01*
X29025Y70266D01*
X28923Y70165D01*
X28822D01*
X28923Y70063D01*
X28822Y69961D01*
X28923D01*
X29025Y69860D01*
X31261Y67765D02*
X31363Y67866D01*
X31464D01*
X31363Y67968D01*
X31464Y68069D01*
X31363D01*
X31261Y68171D01*
X31160Y68069D01*
X31058D01*
X31160Y67968D01*
X31058Y67866D01*
X31160D01*
X31261Y67765D01*
X36571Y66283D02*
X36673Y66385D01*
X36774D01*
X36673Y66487D01*
X36774Y66588D01*
X36673D01*
X36571Y66690D01*
X36470Y66588D01*
X36368D01*
X36470Y66487D01*
X36368Y66385D01*
X36470D01*
X36571Y66283D01*
X33773Y64082D02*
X33874Y64184D01*
X33976D01*
X33874Y64286D01*
X33976Y64387D01*
X33874D01*
X33773Y64489D01*
X33671Y64387D01*
X33570D01*
X33671Y64286D01*
X33570Y64184D01*
X33671D01*
X33773Y64082D01*
X33225Y63060D02*
X33327Y63161D01*
X33428D01*
X33327Y63263D01*
X33428Y63365D01*
X33327D01*
X33225Y63466D01*
X33123Y63365D01*
X33022D01*
X33123Y63263D01*
X33022Y63161D01*
X33123D01*
X33225Y63060D01*
X31675Y69860D02*
X31777Y69961D01*
X31878D01*
X31777Y70063D01*
X31878Y70165D01*
X31777D01*
X31675Y70266D01*
X31573Y70165D01*
X31472D01*
X31573Y70063D01*
X31472Y69961D01*
X31573D01*
X31675Y69860D01*
X17326Y72935D02*
X17428Y73036D01*
X17529D01*
X17428Y73138D01*
X17529Y73240D01*
X17428D01*
X17326Y73341D01*
X17224Y73240D01*
X17123D01*
X17224Y73138D01*
X17123Y73036D01*
X17224D01*
X17326Y72935D01*
X42862Y46223D02*
X42963Y46325D01*
X43065D01*
X42963Y46426D01*
X43065Y46528D01*
X42963D01*
X42862Y46630D01*
X42760Y46528D01*
X42658D01*
X42760Y46426D01*
X42658Y46325D01*
X42760D01*
X42862Y46223D01*
X58323Y36458D02*
X58425Y36559D01*
X58526D01*
X58425Y36661D01*
X58526Y36762D01*
X58425D01*
X58323Y36864D01*
X58221Y36762D01*
X58120D01*
X58221Y36661D01*
X58120Y36559D01*
X58221D01*
X58323Y36458D01*
X51925Y35897D02*
X52027Y35999D01*
X52128D01*
X52027Y36101D01*
X52128Y36202D01*
X52027D01*
X51925Y36304D01*
X51823Y36202D01*
X51722D01*
X51823Y36101D01*
X51722Y35999D01*
X51823D01*
X51925Y35897D01*
X46750Y53792D02*
X46852Y53893D01*
X46953D01*
X46852Y53995D01*
X46953Y54097D01*
X46852D01*
X46750Y54198D01*
X46648Y54097D01*
X46547D01*
X46648Y53995D01*
X46547Y53893D01*
X46648D01*
X46750Y53792D01*
X43400Y37685D02*
X43502Y37786D01*
X43603D01*
X43502Y37888D01*
X43603Y37990D01*
X43502D01*
X43400Y38091D01*
X43298Y37990D01*
X43197D01*
X43298Y37888D01*
X43197Y37786D01*
X43298D01*
X43400Y37685D01*
X43369Y35885D02*
X43470Y35986D01*
X43572D01*
X43470Y36088D01*
X43572Y36190D01*
X43470D01*
X43369Y36291D01*
X43267Y36190D01*
X43166D01*
X43267Y36088D01*
X43166Y35986D01*
X43267D01*
X43369Y35885D01*
X44420Y37423D02*
X44522Y37524D01*
X44623D01*
X44522Y37626D01*
X44623Y37727D01*
X44522D01*
X44420Y37829D01*
X44318Y37727D01*
X44217D01*
X44318Y37626D01*
X44217Y37524D01*
X44318D01*
X44420Y37423D01*
X42500Y36985D02*
X42602Y37086D01*
X42703D01*
X42602Y37188D01*
X42703Y37290D01*
X42602D01*
X42500Y37391D01*
X42398Y37290D01*
X42297D01*
X42398Y37188D01*
X42297Y37086D01*
X42398D01*
X42500Y36985D01*
X50825Y39402D02*
X50927Y39504D01*
X51028D01*
X50927Y39605D01*
X51028Y39707D01*
X50927D01*
X50825Y39809D01*
X50723Y39707D01*
X50622D01*
X50723Y39605D01*
X50622Y39504D01*
X50723D01*
X50825Y39402D01*
X87100Y27360D02*
X87202Y27461D01*
X87303D01*
X87202Y27563D01*
X87303Y27665D01*
X87202D01*
X87100Y27766D01*
X86998Y27665D01*
X86897D01*
X86998Y27563D01*
X86897Y27461D01*
X86998D01*
X87100Y27360D01*
X43975Y68885D02*
X44077Y68986D01*
X44178D01*
X44077Y69088D01*
X44178Y69190D01*
X44077D01*
X43975Y69291D01*
X43873Y69190D01*
X43772D01*
X43873Y69088D01*
X43772Y68986D01*
X43873D01*
X43975Y68885D01*
X64375Y61510D02*
X64477Y61611D01*
X64578D01*
X64477Y61713D01*
X64578Y61815D01*
X64477D01*
X64375Y61916D01*
X64273Y61815D01*
X64172D01*
X64273Y61713D01*
X64172Y61611D01*
X64273D01*
X64375Y61510D01*
X48575Y69986D02*
X48677Y70087D01*
X48778D01*
X48677Y70189D01*
X48778Y70290D01*
X48677D01*
X48575Y70392D01*
X48473Y70290D01*
X48372D01*
X48473Y70189D01*
X48372Y70087D01*
X48473D01*
X48575Y69986D01*
X63175Y53498D02*
X63277Y53600D01*
X63378D01*
X63277Y53701D01*
X63378Y53803D01*
X63277D01*
X63175Y53905D01*
X63074Y53803D01*
X62972D01*
X63074Y53701D01*
X62972Y53600D01*
X63074D01*
X63175Y53498D01*
X63175Y61510D02*
X63277Y61611D01*
X63378D01*
X63277Y61713D01*
X63378Y61815D01*
X63277D01*
X63175Y61916D01*
X63073Y61815D01*
X62972D01*
X63073Y61713D01*
X62972Y61611D01*
X63073D01*
X63175Y61510D01*
X50350Y53128D02*
X50452Y53229D01*
X50553D01*
X50452Y53331D01*
X50553Y53432D01*
X50452D01*
X50350Y53534D01*
X50248Y53432D01*
X50147D01*
X50248Y53331D01*
X50147Y53229D01*
X50248D01*
X50350Y53128D01*
X56225Y52301D02*
X56327Y52402D01*
X56428D01*
X56327Y52504D01*
X56428Y52606D01*
X56327D01*
X56225Y52707D01*
X56123Y52606D01*
X56022D01*
X56123Y52504D01*
X56022Y52402D01*
X56123D01*
X56225Y52301D01*
X50475Y54769D02*
X50577Y54870D01*
X50678D01*
X50577Y54972D01*
X50678Y55074D01*
X50577D01*
X50475Y55175D01*
X50373Y55074D01*
X50272D01*
X50373Y54972D01*
X50272Y54870D01*
X50373D01*
X50475Y54769D01*
X58900Y74685D02*
X59002Y74786D01*
X59103D01*
X59002Y74888D01*
X59103Y74990D01*
X59002D01*
X58900Y75091D01*
X58798Y74990D01*
X58697D01*
X58798Y74888D01*
X58697Y74786D01*
X58798D01*
X58900Y74685D01*
X42862Y42973D02*
X42963Y43075D01*
X43065D01*
X42963Y43176D01*
X43065Y43278D01*
X42963D01*
X42862Y43380D01*
X42760Y43278D01*
X42658D01*
X42760Y43176D01*
X42658Y43075D01*
X42760D01*
X42862Y42973D01*
X40262Y46223D02*
X40363Y46325D01*
X40465D01*
X40363Y46426D01*
X40465Y46528D01*
X40363D01*
X40262Y46630D01*
X40160Y46528D01*
X40058D01*
X40160Y46426D01*
X40058Y46325D01*
X40160D01*
X40262Y46223D01*
X42212Y48173D02*
X42313Y48275D01*
X42415D01*
X42313Y48376D01*
X42415Y48478D01*
X42313D01*
X42212Y48580D01*
X42110Y48478D01*
X42008D01*
X42110Y48376D01*
X42008Y48275D01*
X42110D01*
X42212Y48173D01*
X45462D02*
X45563Y48275D01*
X45665D01*
X45563Y48376D01*
X45665Y48478D01*
X45563D01*
X45462Y48580D01*
X45360Y48478D01*
X45258D01*
X45360Y48376D01*
X45258Y48275D01*
X45360D01*
X45462Y48173D01*
X7016Y21435D02*
X7117Y21536D01*
X7219D01*
X7117Y21638D01*
X7219Y21740D01*
X7117D01*
X7016Y21841D01*
X6914Y21740D01*
X6812D01*
X6914Y21638D01*
X6812Y21536D01*
X6914D01*
X7016Y21435D01*
Y22473D02*
X7117Y22575D01*
X7219D01*
X7117Y22676D01*
X7219Y22778D01*
X7117D01*
X7016Y22879D01*
X6914Y22778D01*
X6812D01*
X6914Y22676D01*
X6812Y22575D01*
X6914D01*
X7016Y22473D01*
X7600Y22460D02*
X7702Y22561D01*
X7803D01*
X7702Y22663D01*
X7803Y22765D01*
X7702D01*
X7600Y22866D01*
X7498Y22765D01*
X7397D01*
X7498Y22663D01*
X7397Y22561D01*
X7498D01*
X7600Y22460D01*
X7550Y21435D02*
X7652Y21536D01*
X7753D01*
X7652Y21638D01*
X7753Y21740D01*
X7652D01*
X7550Y21841D01*
X7448Y21740D01*
X7347D01*
X7448Y21638D01*
X7347Y21536D01*
X7448D01*
X7550Y21435D01*
X7016Y15733D02*
X7117Y15834D01*
X7219D01*
X7117Y15936D01*
X7219Y16037D01*
X7117D01*
X7016Y16139D01*
X6914Y16037D01*
X6812D01*
X6914Y15936D01*
X6812Y15834D01*
X6914D01*
X7016Y15733D01*
X7600Y16685D02*
X7702Y16786D01*
X7803D01*
X7702Y16888D01*
X7803Y16990D01*
X7702D01*
X7600Y17091D01*
X7498Y16990D01*
X7397D01*
X7498Y16888D01*
X7397Y16786D01*
X7498D01*
X7600Y16685D01*
X7650Y15710D02*
X7752Y15811D01*
X7853D01*
X7752Y15913D01*
X7853Y16015D01*
X7752D01*
X7650Y16116D01*
X7548Y16015D01*
X7447D01*
X7548Y15913D01*
X7447Y15811D01*
X7548D01*
X7650Y15710D01*
X5000Y10910D02*
X5102Y11011D01*
X5203D01*
X5102Y11113D01*
X5203Y11215D01*
X5102D01*
X5000Y11316D01*
X4898Y11215D01*
X4797D01*
X4898Y11113D01*
X4797Y11011D01*
X4898D01*
X5000Y10910D01*
X5600Y10935D02*
X5702Y11036D01*
X5803D01*
X5702Y11138D01*
X5803Y11240D01*
X5702D01*
X5600Y11341D01*
X5498Y11240D01*
X5397D01*
X5498Y11138D01*
X5397Y11036D01*
X5498D01*
X5600Y10935D01*
X26800Y17550D02*
X26902Y17651D01*
X27003D01*
X26902Y17753D01*
X27003Y17855D01*
X26902D01*
X26800Y17956D01*
X26698Y17855D01*
X26597D01*
X26698Y17753D01*
X26597Y17651D01*
X26698D01*
X26800Y17550D01*
Y18510D02*
X26902Y18611D01*
X27003D01*
X26902Y18713D01*
X27003Y18815D01*
X26902D01*
X26800Y18916D01*
X26698Y18815D01*
X26597D01*
X26698Y18713D01*
X26597Y18611D01*
X26698D01*
X26800Y18510D01*
X17534Y36197D02*
X17636Y36298D01*
X17738D01*
X17636Y36400D01*
X17738Y36502D01*
X17636D01*
X17534Y36603D01*
X17433Y36502D01*
X17331D01*
X17433Y36400D01*
X17331Y36298D01*
X17433D01*
X17534Y36197D01*
X19750Y39435D02*
X19852Y39536D01*
X19953D01*
X19852Y39638D01*
X19953Y39740D01*
X19852D01*
X19750Y39841D01*
X19648Y39740D01*
X19547D01*
X19648Y39638D01*
X19547Y39536D01*
X19648D01*
X19750Y39435D01*
X45462Y42973D02*
X45563Y43075D01*
X45665D01*
X45563Y43176D01*
X45665Y43278D01*
X45563D01*
X45462Y43380D01*
X45360Y43278D01*
X45258D01*
X45360Y43176D01*
X45258Y43075D01*
X45360D01*
X45462Y42973D01*
X63775Y62986D02*
X63877Y63087D01*
X63978D01*
X63877Y63189D01*
X63978Y63290D01*
X63877D01*
X63775Y63392D01*
X63673Y63290D01*
X63572D01*
X63673Y63189D01*
X63572Y63087D01*
X63673D01*
X63775Y62986D01*
X63775Y60042D02*
X63877Y60144D01*
X63978D01*
X63877Y60245D01*
X63978Y60347D01*
X63877D01*
X63775Y60448D01*
X63673Y60347D01*
X63572D01*
X63673Y60245D01*
X63572Y60144D01*
X63673D01*
X63775Y60042D01*
X41562Y44923D02*
X41663Y45025D01*
X41765D01*
X41663Y45126D01*
X41765Y45228D01*
X41663D01*
X41562Y45330D01*
X41460Y45228D01*
X41358D01*
X41460Y45126D01*
X41358Y45025D01*
X41460D01*
X41562Y44923D01*
X42212Y45573D02*
X42313Y45675D01*
X42415D01*
X42313Y45776D01*
X42415Y45878D01*
X42313D01*
X42212Y45980D01*
X42110Y45878D01*
X42008D01*
X42110Y45776D01*
X42008Y45675D01*
X42110D01*
X42212Y45573D01*
X41562D02*
X41663Y45675D01*
X41765D01*
X41663Y45776D01*
X41765Y45878D01*
X41663D01*
X41562Y45980D01*
X41460Y45878D01*
X41358D01*
X41460Y45776D01*
X41358Y45675D01*
X41460D01*
X41562Y45573D01*
X44162Y46873D02*
X44263Y46975D01*
X44365D01*
X44263Y47076D01*
X44365Y47178D01*
X44263D01*
X44162Y47280D01*
X44060Y47178D01*
X43958D01*
X44060Y47076D01*
X43958Y46975D01*
X44060D01*
X44162Y46873D01*
X43512D02*
X43613Y46975D01*
X43715D01*
X43613Y47076D01*
X43715Y47178D01*
X43613D01*
X43512Y47280D01*
X43410Y47178D01*
X43308D01*
X43410Y47076D01*
X43308Y46975D01*
X43410D01*
X43512Y46873D01*
Y47523D02*
X43613Y47625D01*
X43715D01*
X43613Y47726D01*
X43715Y47828D01*
X43613D01*
X43512Y47930D01*
X43410Y47828D01*
X43308D01*
X43410Y47726D01*
X43308Y47625D01*
X43410D01*
X43512Y47523D01*
X44162D02*
X44263Y47625D01*
X44365D01*
X44263Y47726D01*
X44365Y47828D01*
X44263D01*
X44162Y47930D01*
X44060Y47828D01*
X43958D01*
X44060Y47726D01*
X43958Y47625D01*
X44060D01*
X44162Y47523D01*
X44812Y48173D02*
X44913Y48275D01*
X45015D01*
X44913Y48376D01*
X45015Y48478D01*
X44913D01*
X44812Y48580D01*
X44710Y48478D01*
X44608D01*
X44710Y48376D01*
X44608Y48275D01*
X44710D01*
X44812Y48173D01*
X44162Y46223D02*
X44263Y46325D01*
X44365D01*
X44263Y46426D01*
X44365Y46528D01*
X44263D01*
X44162Y46630D01*
X44060Y46528D01*
X43958D01*
X44060Y46426D01*
X43958Y46325D01*
X44060D01*
X44162Y46223D01*
X46112Y46873D02*
X46213Y46975D01*
X46315D01*
X46213Y47076D01*
X46315Y47178D01*
X46213D01*
X46112Y47280D01*
X46010Y47178D01*
X45908D01*
X46010Y47076D01*
X45908Y46975D01*
X46010D01*
X46112Y46873D01*
X40912Y47523D02*
X41013Y47625D01*
X41115D01*
X41013Y47726D01*
X41115Y47828D01*
X41013D01*
X40912Y47930D01*
X40810Y47828D01*
X40708D01*
X40810Y47726D01*
X40708Y47625D01*
X40810D01*
X40912Y47523D01*
X41562D02*
X41663Y47625D01*
X41765D01*
X41663Y47726D01*
X41765Y47828D01*
X41663D01*
X41562Y47930D01*
X41460Y47828D01*
X41358D01*
X41460Y47726D01*
X41358Y47625D01*
X41460D01*
X41562Y47523D01*
X42212D02*
X42313Y47625D01*
X42415D01*
X42313Y47726D01*
X42415Y47828D01*
X42313D01*
X42212Y47930D01*
X42110Y47828D01*
X42008D01*
X42110Y47726D01*
X42008Y47625D01*
X42110D01*
X42212Y47523D01*
X47087Y46592D02*
X47188Y46693D01*
X47290D01*
X47188Y46795D01*
X47290Y46896D01*
X47188D01*
X47087Y46998D01*
X46985Y46896D01*
X46883D01*
X46985Y46795D01*
X46883Y46693D01*
X46985D01*
X47087Y46592D01*
X18175Y40660D02*
X18277Y40761D01*
X18378D01*
X18277Y40863D01*
X18378Y40965D01*
X18277D01*
X18175Y41066D01*
X18073Y40965D01*
X17972D01*
X18073Y40863D01*
X17972Y40761D01*
X18073D01*
X18175Y40660D01*
X19275Y36997D02*
X19377Y37098D01*
X19478D01*
X19377Y37200D01*
X19478Y37302D01*
X19377D01*
X19275Y37403D01*
X19173Y37302D01*
X19072D01*
X19173Y37200D01*
X19072Y37098D01*
X19173D01*
X19275Y36997D01*
X32375Y7560D02*
X32477Y7661D01*
X32578D01*
X32477Y7763D01*
X32578Y7865D01*
X32477D01*
X32375Y7966D01*
X32273Y7865D01*
X32172D01*
X32273Y7763D01*
X32172Y7661D01*
X32273D01*
X32375Y7560D01*
X31375D02*
X31477Y7661D01*
X31578D01*
X31477Y7763D01*
X31578Y7865D01*
X31477D01*
X31375Y7966D01*
X31273Y7865D01*
X31172D01*
X31273Y7763D01*
X31172Y7661D01*
X31273D01*
X31375Y7560D01*
X44275Y58235D02*
X44377Y58336D01*
X44478D01*
X44377Y58438D01*
X44478Y58540D01*
X44377D01*
X44275Y58641D01*
X44173Y58540D01*
X44072D01*
X44173Y58438D01*
X44072Y58336D01*
X44173D01*
X44275Y58235D01*
X53625Y40548D02*
X53727Y40650D01*
X53828D01*
X53727Y40752D01*
X53828Y40853D01*
X53727D01*
X53625Y40955D01*
X53523Y40853D01*
X53422D01*
X53523Y40752D01*
X53422Y40650D01*
X53523D01*
X53625Y40548D01*
X10350Y66835D02*
X10452Y66936D01*
X10553D01*
X10452Y67038D01*
X10553Y67140D01*
X10452D01*
X10350Y67241D01*
X10248Y67140D01*
X10147D01*
X10248Y67038D01*
X10147Y66936D01*
X10248D01*
X10350Y66835D01*
X38125Y59035D02*
X38227Y59136D01*
X38328D01*
X38227Y59238D01*
X38328Y59340D01*
X38227D01*
X38125Y59441D01*
X38023Y59340D01*
X37922D01*
X38023Y59238D01*
X37922Y59136D01*
X38023D01*
X38125Y59035D01*
X34350Y63135D02*
X34452Y63236D01*
X34553D01*
X34452Y63338D01*
X34553Y63440D01*
X34452D01*
X34350Y63541D01*
X34248Y63440D01*
X34147D01*
X34248Y63338D01*
X34147Y63236D01*
X34248D01*
X34350Y63135D01*
X41690Y65975D02*
X41792Y66077D01*
X41894D01*
X41792Y66178D01*
X41894Y66280D01*
X41792D01*
X41690Y66381D01*
X41589Y66280D01*
X41487D01*
X41589Y66178D01*
X41487Y66077D01*
X41589D01*
X41690Y65975D01*
X38856Y46544D02*
X38958Y46645D01*
X39060D01*
X38958Y46747D01*
X39060Y46848D01*
X38958D01*
X38856Y46950D01*
X38755Y46848D01*
X38653D01*
X38755Y46747D01*
X38653Y46645D01*
X38755D01*
X38856Y46544D01*
X35753Y73137D02*
X35854Y73238D01*
X35956D01*
X35854Y73340D01*
X35956Y73441D01*
X35854D01*
X35753Y73543D01*
X35651Y73441D01*
X35550D01*
X35651Y73340D01*
X35550Y73238D01*
X35651D01*
X35753Y73137D01*
X36925Y73385D02*
X37027Y73486D01*
X37128D01*
X37027Y73588D01*
X37128Y73690D01*
X37027D01*
X36925Y73791D01*
X36823Y73690D01*
X36722D01*
X36823Y73588D01*
X36722Y73486D01*
X36823D01*
X36925Y73385D01*
X36527Y68436D02*
X36629Y68537D01*
X36730D01*
X36629Y68639D01*
X36730Y68740D01*
X36629D01*
X36527Y68842D01*
X36425Y68740D01*
X36324D01*
X36425Y68639D01*
X36324Y68537D01*
X36425D01*
X36527Y68436D01*
X33494Y69535D02*
X33596Y69636D01*
X33697D01*
X33596Y69738D01*
X33697Y69839D01*
X33596D01*
X33494Y69941D01*
X33393Y69839D01*
X33291D01*
X33393Y69738D01*
X33291Y69636D01*
X33393D01*
X33494Y69535D01*
X37626Y62235D02*
X37728Y62336D01*
X37830D01*
X37728Y62438D01*
X37830Y62540D01*
X37728D01*
X37626Y62641D01*
X37525Y62540D01*
X37423D01*
X37525Y62438D01*
X37423Y62336D01*
X37525D01*
X37626Y62235D01*
X22475Y36997D02*
X22577Y37098D01*
X22678D01*
X22577Y37200D01*
X22678Y37302D01*
X22577D01*
X22475Y37403D01*
X22373Y37302D01*
X22272D01*
X22373Y37200D01*
X22272Y37098D01*
X22373D01*
X22475Y36997D01*
X44162Y42973D02*
X44263Y43075D01*
X44365D01*
X44263Y43176D01*
X44365Y43278D01*
X44263D01*
X44162Y43380D01*
X44060Y43278D01*
X43958D01*
X44060Y43176D01*
X43958Y43075D01*
X44060D01*
X44162Y42973D01*
X24075Y37797D02*
X24177Y37898D01*
X24278D01*
X24177Y38000D01*
X24278Y38102D01*
X24177D01*
X24075Y38203D01*
X23973Y38102D01*
X23872D01*
X23973Y38000D01*
X23872Y37898D01*
X23973D01*
X24075Y37797D01*
X43512Y42323D02*
X43613Y42425D01*
X43715D01*
X43613Y42526D01*
X43715Y42628D01*
X43613D01*
X43512Y42730D01*
X43410Y42628D01*
X43308D01*
X43410Y42526D01*
X43308Y42425D01*
X43410D01*
X43512Y42323D01*
X24075Y42597D02*
X24177Y42698D01*
X24278D01*
X24177Y42800D01*
X24278Y42902D01*
X24177D01*
X24075Y43003D01*
X23973Y42902D01*
X23872D01*
X23973Y42800D01*
X23872Y42698D01*
X23973D01*
X24075Y42597D01*
X42862Y42323D02*
X42963Y42425D01*
X43065D01*
X42963Y42526D01*
X43065Y42628D01*
X42963D01*
X42862Y42730D01*
X42760Y42628D01*
X42658D01*
X42760Y42526D01*
X42658Y42425D01*
X42760D01*
X42862Y42323D01*
X24075Y36997D02*
X24177Y37098D01*
X24278D01*
X24177Y37200D01*
X24278Y37302D01*
X24177D01*
X24075Y37403D01*
X23973Y37302D01*
X23872D01*
X23973Y37200D01*
X23872Y37098D01*
X23973D01*
X24075Y36997D01*
X42862Y41673D02*
X42963Y41775D01*
X43065D01*
X42963Y41876D01*
X43065Y41978D01*
X42963D01*
X42862Y42080D01*
X42760Y41978D01*
X42658D01*
X42760Y41876D01*
X42658Y41775D01*
X42760D01*
X42862Y41673D01*
X24875Y37797D02*
X24977Y37898D01*
X25078D01*
X24977Y38000D01*
X25078Y38102D01*
X24977D01*
X24875Y38203D01*
X24773Y38102D01*
X24672D01*
X24773Y38000D01*
X24672Y37898D01*
X24773D01*
X24875Y37797D01*
X42212Y41673D02*
X42313Y41775D01*
X42415D01*
X42313Y41876D01*
X42415Y41978D01*
X42313D01*
X42212Y42080D01*
X42110Y41978D01*
X42008D01*
X42110Y41876D01*
X42008Y41775D01*
X42110D01*
X42212Y41673D01*
X18475Y42597D02*
X18577Y42698D01*
X18678D01*
X18577Y42800D01*
X18678Y42902D01*
X18577D01*
X18475Y43003D01*
X18373Y42902D01*
X18272D01*
X18373Y42800D01*
X18272Y42698D01*
X18373D01*
X18475Y42597D01*
X43512Y41023D02*
X43613Y41125D01*
X43715D01*
X43613Y41226D01*
X43715Y41328D01*
X43613D01*
X43512Y41430D01*
X43410Y41328D01*
X43308D01*
X43410Y41226D01*
X43308Y41125D01*
X43410D01*
X43512Y41023D01*
X28300Y41234D02*
X28402Y41335D01*
X28503D01*
X28402Y41437D01*
X28503Y41538D01*
X28402D01*
X28300Y41640D01*
X28198Y41538D01*
X28097D01*
X28198Y41437D01*
X28097Y41335D01*
X28198D01*
X28300Y41234D01*
X20075Y36997D02*
X20177Y37098D01*
X20278D01*
X20177Y37200D01*
X20278Y37302D01*
X20177D01*
X20075Y37403D01*
X19973Y37302D01*
X19872D01*
X19973Y37200D01*
X19872Y37098D01*
X19973D01*
X20075Y36997D01*
X24875D02*
X24977Y37098D01*
X25078D01*
X24977Y37200D01*
X25078Y37302D01*
X24977D01*
X24875Y37403D01*
X24773Y37302D01*
X24672D01*
X24773Y37200D01*
X24672Y37098D01*
X24773D01*
X24875Y36997D01*
X60850Y42735D02*
X60952Y42836D01*
X61053D01*
X60952Y42938D01*
X61053Y43040D01*
X60952D01*
X60850Y43141D01*
X60748Y43040D01*
X60647D01*
X60748Y42938D01*
X60647Y42836D01*
X60748D01*
X60850Y42735D01*
X47412Y42973D02*
X47513Y43075D01*
X47615D01*
X47513Y43176D01*
X47615Y43278D01*
X47513D01*
X47412Y43380D01*
X47310Y43278D01*
X47208D01*
X47310Y43176D01*
X47208Y43075D01*
X47310D01*
X47412Y42973D01*
X44162Y44273D02*
X44263Y44375D01*
X44365D01*
X44263Y44476D01*
X44365Y44578D01*
X44263D01*
X44162Y44680D01*
X44060Y44578D01*
X43958D01*
X44060Y44476D01*
X43958Y44375D01*
X44060D01*
X44162Y44273D01*
X43512D02*
X43613Y44375D01*
X43715D01*
X43613Y44476D01*
X43715Y44578D01*
X43613D01*
X43512Y44680D01*
X43410Y44578D01*
X43308D01*
X43410Y44476D01*
X43308Y44375D01*
X43410D01*
X43512Y44273D01*
Y44923D02*
X43613Y45025D01*
X43715D01*
X43613Y45126D01*
X43715Y45228D01*
X43613D01*
X43512Y45330D01*
X43410Y45228D01*
X43308D01*
X43410Y45126D01*
X43308Y45025D01*
X43410D01*
X43512Y44923D01*
X44162D02*
X44263Y45025D01*
X44365D01*
X44263Y45126D01*
X44365Y45228D01*
X44263D01*
X44162Y45330D01*
X44060Y45228D01*
X43958D01*
X44060Y45126D01*
X43958Y45025D01*
X44060D01*
X44162Y44923D01*
X44812D02*
X44913Y45025D01*
X45015D01*
X44913Y45126D01*
X45015Y45228D01*
X44913D01*
X44812Y45330D01*
X44710Y45228D01*
X44608D01*
X44710Y45126D01*
X44608Y45025D01*
X44710D01*
X44812Y44923D01*
Y44273D02*
X44913Y44375D01*
X45015D01*
X44913Y44476D01*
X45015Y44578D01*
X44913D01*
X44812Y44680D01*
X44710Y44578D01*
X44608D01*
X44710Y44476D01*
X44608Y44375D01*
X44710D01*
X44812Y44273D01*
X45462Y45573D02*
X45563Y45675D01*
X45665D01*
X45563Y45776D01*
X45665Y45878D01*
X45563D01*
X45462Y45980D01*
X45360Y45878D01*
X45258D01*
X45360Y45776D01*
X45258Y45675D01*
X45360D01*
X45462Y45573D01*
X46112D02*
X46213Y45675D01*
X46315D01*
X46213Y45776D01*
X46315Y45878D01*
X46213D01*
X46112Y45980D01*
X46010Y45878D01*
X45908D01*
X46010Y45776D01*
X45908Y45675D01*
X46010D01*
X46112Y45573D01*
X47412Y44923D02*
X47513Y45025D01*
X47615D01*
X47513Y45126D01*
X47615Y45228D01*
X47513D01*
X47412Y45330D01*
X47310Y45228D01*
X47208D01*
X47310Y45126D01*
X47208Y45025D01*
X47310D01*
X47412Y44923D01*
X44812Y45573D02*
X44913Y45675D01*
X45015D01*
X44913Y45776D01*
X45015Y45878D01*
X44913D01*
X44812Y45980D01*
X44710Y45878D01*
X44608D01*
X44710Y45776D01*
X44608Y45675D01*
X44710D01*
X44812Y45573D01*
X44162D02*
X44263Y45675D01*
X44365D01*
X44263Y45776D01*
X44365Y45878D01*
X44263D01*
X44162Y45980D01*
X44060Y45878D01*
X43958D01*
X44060Y45776D01*
X43958Y45675D01*
X44060D01*
X44162Y45573D01*
X43512D02*
X43613Y45675D01*
X43715D01*
X43613Y45776D01*
X43715Y45878D01*
X43613D01*
X43512Y45980D01*
X43410Y45878D01*
X43308D01*
X43410Y45776D01*
X43308Y45675D01*
X43410D01*
X43512Y45573D01*
X42862D02*
X42963Y45675D01*
X43065D01*
X42963Y45776D01*
X43065Y45878D01*
X42963D01*
X42862Y45980D01*
X42760Y45878D01*
X42658D01*
X42760Y45776D01*
X42658Y45675D01*
X42760D01*
X42862Y45573D01*
Y44923D02*
X42963Y45025D01*
X43065D01*
X42963Y45126D01*
X43065Y45228D01*
X42963D01*
X42862Y45330D01*
X42760Y45228D01*
X42658D01*
X42760Y45126D01*
X42658Y45025D01*
X42760D01*
X42862Y44923D01*
Y44273D02*
X42963Y44375D01*
X43065D01*
X42963Y44476D01*
X43065Y44578D01*
X42963D01*
X42862Y44680D01*
X42760Y44578D01*
X42658D01*
X42760Y44476D01*
X42658Y44375D01*
X42760D01*
X42862Y44273D01*
Y43623D02*
X42963Y43725D01*
X43065D01*
X42963Y43826D01*
X43065Y43928D01*
X42963D01*
X42862Y44030D01*
X42760Y43928D01*
X42658D01*
X42760Y43826D01*
X42658Y43725D01*
X42760D01*
X42862Y43623D01*
X43512D02*
X43613Y43725D01*
X43715D01*
X43613Y43826D01*
X43715Y43928D01*
X43613D01*
X43512Y44030D01*
X43410Y43928D01*
X43308D01*
X43410Y43826D01*
X43308Y43725D01*
X43410D01*
X43512Y43623D01*
X44162D02*
X44263Y43725D01*
X44365D01*
X44263Y43826D01*
X44365Y43928D01*
X44263D01*
X44162Y44030D01*
X44060Y43928D01*
X43958D01*
X44060Y43826D01*
X43958Y43725D01*
X44060D01*
X44162Y43623D01*
X48062Y41023D02*
X48163Y41125D01*
X48265D01*
X48163Y41226D01*
X48265Y41328D01*
X48163D01*
X48062Y41430D01*
X47960Y41328D01*
X47858D01*
X47960Y41226D01*
X47858Y41125D01*
X47960D01*
X48062Y41023D01*
X46112Y44923D02*
X46213Y45025D01*
X46315D01*
X46213Y45126D01*
X46315Y45228D01*
X46213D01*
X46112Y45330D01*
X46010Y45228D01*
X45908D01*
X46010Y45126D01*
X45908Y45025D01*
X46010D01*
X46112Y44923D01*
X46762D02*
X46863Y45025D01*
X46965D01*
X46863Y45126D01*
X46965Y45228D01*
X46863D01*
X46762Y45330D01*
X46660Y45228D01*
X46558D01*
X46660Y45126D01*
X46558Y45025D01*
X46660D01*
X46762Y44923D01*
X42819Y34485D02*
X42920Y34586D01*
X43022D01*
X42920Y34688D01*
X43022Y34790D01*
X42920D01*
X42819Y34891D01*
X42717Y34790D01*
X42616D01*
X42717Y34688D01*
X42616Y34586D01*
X42717D01*
X42819Y34485D01*
X45144Y31635D02*
X45245Y31736D01*
X45347D01*
X45245Y31838D01*
X45347Y31940D01*
X45245D01*
X45144Y32041D01*
X45042Y31940D01*
X44940D01*
X45042Y31838D01*
X44940Y31736D01*
X45042D01*
X45144Y31635D01*
X18481Y36997D02*
X18583Y37098D01*
X18684D01*
X18583Y37200D01*
X18684Y37302D01*
X18583D01*
X18481Y37403D01*
X18380Y37302D01*
X18278D01*
X18380Y37200D01*
X18278Y37098D01*
X18380D01*
X18481Y36997D01*
X46762Y42973D02*
X46863Y43075D01*
X46965D01*
X46863Y43176D01*
X46965Y43278D01*
X46863D01*
X46762Y43380D01*
X46660Y43278D01*
X46558D01*
X46660Y43176D01*
X46558Y43075D01*
X46660D01*
X46762Y42973D01*
X46112D02*
X46213Y43075D01*
X46315D01*
X46213Y43176D01*
X46315Y43278D01*
X46213D01*
X46112Y43380D01*
X46010Y43278D01*
X45908D01*
X46010Y43176D01*
X45908Y43075D01*
X46010D01*
X46112Y42973D01*
X45462Y46223D02*
X45563Y46325D01*
X45665D01*
X45563Y46426D01*
X45665Y46528D01*
X45563D01*
X45462Y46630D01*
X45360Y46528D01*
X45258D01*
X45360Y46426D01*
X45258Y46325D01*
X45360D01*
X45462Y46223D01*
X44812Y47523D02*
X44913Y47625D01*
X45015D01*
X44913Y47726D01*
X45015Y47828D01*
X44913D01*
X44812Y47930D01*
X44710Y47828D01*
X44608D01*
X44710Y47726D01*
X44608Y47625D01*
X44710D01*
X44812Y47523D01*
X39612Y48823D02*
X39713Y48925D01*
X39815D01*
X39713Y49026D01*
X39815Y49128D01*
X39713D01*
X39612Y49230D01*
X39510Y49128D01*
X39408D01*
X39510Y49026D01*
X39408Y48925D01*
X39510D01*
X39612Y48823D01*
X44812Y41673D02*
X44913Y41775D01*
X45015D01*
X44913Y41876D01*
X45015Y41978D01*
X44913D01*
X44812Y42080D01*
X44710Y41978D01*
X44608D01*
X44710Y41876D01*
X44608Y41775D01*
X44710D01*
X44812Y41673D01*
X56025Y25335D02*
X56127Y25436D01*
X56228D01*
X56127Y25538D01*
X56228Y25640D01*
X56127D01*
X56025Y25741D01*
X55923Y25640D01*
X55822D01*
X55923Y25538D01*
X55822Y25436D01*
X55923D01*
X56025Y25335D01*
X54975Y26175D02*
X55077Y26277D01*
X55178D01*
X55077Y26379D01*
X55178Y26480D01*
X55077D01*
X54975Y26582D01*
X54873Y26480D01*
X54772D01*
X54873Y26379D01*
X54772Y26277D01*
X54873D01*
X54975Y26175D01*
X65889Y29946D02*
X65990Y30048D01*
X66092D01*
X65990Y30149D01*
X66092Y30251D01*
X65990D01*
X65889Y30353D01*
X65787Y30251D01*
X65686D01*
X65787Y30149D01*
X65686Y30048D01*
X65787D01*
X65889Y29946D01*
X54400Y29485D02*
X54502Y29586D01*
X54603D01*
X54502Y29688D01*
X54603Y29790D01*
X54502D01*
X54400Y29891D01*
X54298Y29790D01*
X54197D01*
X54298Y29688D01*
X54197Y29586D01*
X54298D01*
X54400Y29485D01*
X54150Y28135D02*
X54252Y28236D01*
X54353D01*
X54252Y28338D01*
X54353Y28440D01*
X54252D01*
X54150Y28541D01*
X54048Y28440D01*
X53947D01*
X54048Y28338D01*
X53947Y28236D01*
X54048D01*
X54150Y28135D01*
X54975Y27508D02*
X55077Y27610D01*
X55178D01*
X55077Y27711D01*
X55178Y27813D01*
X55077D01*
X54975Y27915D01*
X54873Y27813D01*
X54772D01*
X54873Y27711D01*
X54772Y27610D01*
X54873D01*
X54975Y27508D01*
X61669Y26235D02*
X61771Y26336D01*
X61872D01*
X61771Y26438D01*
X61872Y26540D01*
X61771D01*
X61669Y26641D01*
X61568Y26540D01*
X61466D01*
X61568Y26438D01*
X61466Y26336D01*
X61568D01*
X61669Y26235D01*
X57213Y28707D02*
X57314Y28808D01*
X57416D01*
X57314Y28910D01*
X57416Y29011D01*
X57314D01*
X57213Y29113D01*
X57111Y29011D01*
X57009D01*
X57111Y28910D01*
X57009Y28808D01*
X57111D01*
X57213Y28707D01*
X57550Y31635D02*
X57652Y31736D01*
X57753D01*
X57652Y31838D01*
X57753Y31940D01*
X57652D01*
X57550Y32041D01*
X57449Y31940D01*
X57347D01*
X57449Y31838D01*
X57347Y31736D01*
X57449D01*
X57550Y31635D01*
X44812Y42973D02*
X44913Y43075D01*
X45015D01*
X44913Y43176D01*
X45015Y43278D01*
X44913D01*
X44812Y43380D01*
X44710Y43278D01*
X44608D01*
X44710Y43176D01*
X44608Y43075D01*
X44710D01*
X44812Y42973D01*
X45462Y43623D02*
X45563Y43725D01*
X45665D01*
X45563Y43826D01*
X45665Y43928D01*
X45563D01*
X45462Y44030D01*
X45360Y43928D01*
X45258D01*
X45360Y43826D01*
X45258Y43725D01*
X45360D01*
X45462Y43623D01*
X44812D02*
X44913Y43725D01*
X45015D01*
X44913Y43826D01*
X45015Y43928D01*
X44913D01*
X44812Y44030D01*
X44710Y43928D01*
X44608D01*
X44710Y43826D01*
X44608Y43725D01*
X44710D01*
X44812Y43623D01*
X42212D02*
X42313Y43725D01*
X42415D01*
X42313Y43826D01*
X42415Y43928D01*
X42313D01*
X42212Y44030D01*
X42110Y43928D01*
X42008D01*
X42110Y43826D01*
X42008Y43725D01*
X42110D01*
X42212Y43623D01*
X13250Y65560D02*
X13352Y65661D01*
X13453D01*
X13352Y65763D01*
X13453Y65865D01*
X13352D01*
X13250Y65966D01*
X13148Y65865D01*
X13047D01*
X13148Y65763D01*
X13047Y65661D01*
X13148D01*
X13250Y65560D01*
X13275Y66960D02*
X13377Y67061D01*
X13478D01*
X13377Y67163D01*
X13478Y67265D01*
X13377D01*
X13275Y67366D01*
X13173Y67265D01*
X13072D01*
X13173Y67163D01*
X13072Y67061D01*
X13173D01*
X13275Y66960D01*
X40262Y42973D02*
X40363Y43075D01*
X40465D01*
X40363Y43176D01*
X40465Y43278D01*
X40363D01*
X40262Y43380D01*
X40160Y43278D01*
X40058D01*
X40160Y43176D01*
X40058Y43075D01*
X40160D01*
X40262Y42973D01*
X39275Y40060D02*
X39377Y40161D01*
X39478D01*
X39377Y40263D01*
X39478Y40365D01*
X39377D01*
X39275Y40466D01*
X39173Y40365D01*
X39072D01*
X39173Y40263D01*
X39072Y40161D01*
X39173D01*
X39275Y40060D01*
X42212Y41023D02*
X42313Y41125D01*
X42415D01*
X42313Y41226D01*
X42415Y41328D01*
X42313D01*
X42212Y41430D01*
X42110Y41328D01*
X42008D01*
X42110Y41226D01*
X42008Y41125D01*
X42110D01*
X42212Y41023D01*
X41562Y43623D02*
X41663Y43725D01*
X41765D01*
X41663Y43826D01*
X41765Y43928D01*
X41663D01*
X41562Y44030D01*
X41460Y43928D01*
X41358D01*
X41460Y43826D01*
X41358Y43725D01*
X41460D01*
X41562Y43623D01*
X45462Y41023D02*
X45563Y41125D01*
X45665D01*
X45563Y41226D01*
X45665Y41328D01*
X45563D01*
X45462Y41430D01*
X45360Y41328D01*
X45258D01*
X45360Y41226D01*
X45258Y41125D01*
X45360D01*
X45462Y41023D01*
X44162Y41673D02*
X44263Y41775D01*
X44365D01*
X44263Y41876D01*
X44365Y41978D01*
X44263D01*
X44162Y42080D01*
X44060Y41978D01*
X43958D01*
X44060Y41876D01*
X43958Y41775D01*
X44060D01*
X44162Y41673D01*
X42212Y46873D02*
X42313Y46975D01*
X42415D01*
X42313Y47076D01*
X42415Y47178D01*
X42313D01*
X42212Y47280D01*
X42110Y47178D01*
X42008D01*
X42110Y47076D01*
X42008Y46975D01*
X42110D01*
X42212Y46873D01*
X41562Y46223D02*
X41663Y46325D01*
X41765D01*
X41663Y46426D01*
X41765Y46528D01*
X41663D01*
X41562Y46630D01*
X41460Y46528D01*
X41358D01*
X41460Y46426D01*
X41358Y46325D01*
X41460D01*
X41562Y46223D01*
X40912Y46873D02*
X41013Y46975D01*
X41115D01*
X41013Y47076D01*
X41115Y47178D01*
X41013D01*
X40912Y47280D01*
X40810Y47178D01*
X40708D01*
X40810Y47076D01*
X40708Y46975D01*
X40810D01*
X40912Y46873D01*
X40262D02*
X40363Y46975D01*
X40465D01*
X40363Y47076D01*
X40465Y47178D01*
X40363D01*
X40262Y47280D01*
X40160Y47178D01*
X40058D01*
X40160Y47076D01*
X40058Y46975D01*
X40160D01*
X40262Y46873D01*
X23275Y38597D02*
X23377Y38698D01*
X23478D01*
X23377Y38800D01*
X23478Y38902D01*
X23377D01*
X23275Y39003D01*
X23173Y38902D01*
X23072D01*
X23173Y38800D01*
X23072Y38698D01*
X23173D01*
X23275Y38597D01*
X22475D02*
X22577Y38698D01*
X22678D01*
X22577Y38800D01*
X22678Y38902D01*
X22577D01*
X22475Y39003D01*
X22373Y38902D01*
X22272D01*
X22373Y38800D01*
X22272Y38698D01*
X22373D01*
X22475Y38597D01*
X24075D02*
X24177Y38698D01*
X24278D01*
X24177Y38800D01*
X24278Y38902D01*
X24177D01*
X24075Y39003D01*
X23973Y38902D01*
X23872D01*
X23973Y38800D01*
X23872Y38698D01*
X23973D01*
X24075Y38597D01*
X24875D02*
X24977Y38698D01*
X25078D01*
X24977Y38800D01*
X25078Y38902D01*
X24977D01*
X24875Y39003D01*
X24773Y38902D01*
X24672D01*
X24773Y38800D01*
X24672Y38698D01*
X24773D01*
X24875Y38597D01*
X21675D02*
X21777Y38698D01*
X21878D01*
X21777Y38800D01*
X21878Y38902D01*
X21777D01*
X21675Y39003D01*
X21573Y38902D01*
X21472D01*
X21573Y38800D01*
X21472Y38698D01*
X21573D01*
X21675Y38597D01*
X21662Y39258D02*
X21764Y39360D01*
X21865D01*
X21764Y39461D01*
X21865Y39563D01*
X21764D01*
X21662Y39665D01*
X21561Y39563D01*
X21459D01*
X21561Y39461D01*
X21459Y39360D01*
X21561D01*
X21662Y39258D01*
X25985Y37034D02*
X26087Y37135D01*
X26188D01*
X26087Y37237D01*
X26188Y37338D01*
X26087D01*
X25985Y37440D01*
X25883Y37338D01*
X25782D01*
X25883Y37237D01*
X25782Y37135D01*
X25883D01*
X25985Y37034D01*
X22475Y41797D02*
X22577Y41898D01*
X22678D01*
X22577Y42000D01*
X22678Y42102D01*
X22577D01*
X22475Y42203D01*
X22373Y42102D01*
X22272D01*
X22373Y42000D01*
X22272Y41898D01*
X22373D01*
X22475Y41797D01*
X23275D02*
X23377Y41898D01*
X23478D01*
X23377Y42000D01*
X23478Y42102D01*
X23377D01*
X23275Y42203D01*
X23173Y42102D01*
X23072D01*
X23173Y42000D01*
X23072Y41898D01*
X23173D01*
X23275Y41797D01*
X24075D02*
X24177Y41898D01*
X24278D01*
X24177Y42000D01*
X24278Y42102D01*
X24177D01*
X24075Y42203D01*
X23973Y42102D01*
X23872D01*
X23973Y42000D01*
X23872Y41898D01*
X23973D01*
X24075Y41797D01*
X24875D02*
X24977Y41898D01*
X25078D01*
X24977Y42000D01*
X25078Y42102D01*
X24977D01*
X24875Y42203D01*
X24773Y42102D01*
X24672D01*
X24773Y42000D01*
X24672Y41898D01*
X24773D01*
X24875Y41797D01*
X20875Y43397D02*
X20977Y43498D01*
X21078D01*
X20977Y43600D01*
X21078Y43702D01*
X20977D01*
X20875Y43803D01*
X20773Y43702D01*
X20672D01*
X20773Y43600D01*
X20672Y43498D01*
X20773D01*
X20875Y43397D01*
X18475D02*
X18577Y43498D01*
X18678D01*
X18577Y43600D01*
X18678Y43702D01*
X18577D01*
X18475Y43803D01*
X18373Y43702D01*
X18272D01*
X18373Y43600D01*
X18272Y43498D01*
X18373D01*
X18475Y43397D01*
X20875Y42597D02*
X20977Y42698D01*
X21078D01*
X20977Y42800D01*
X21078Y42902D01*
X20977D01*
X20875Y43003D01*
X20773Y42902D01*
X20672D01*
X20773Y42800D01*
X20672Y42698D01*
X20773D01*
X20875Y42597D01*
X21675Y41797D02*
X21777Y41898D01*
X21878D01*
X21777Y42000D01*
X21878Y42102D01*
X21777D01*
X21675Y42203D01*
X21573Y42102D01*
X21472D01*
X21573Y42000D01*
X21472Y41898D01*
X21573D01*
X21675Y41797D01*
X24875Y43397D02*
X24977Y43498D01*
X25078D01*
X24977Y43600D01*
X25078Y43702D01*
X24977D01*
X24875Y43803D01*
X24773Y43702D01*
X24672D01*
X24773Y43600D01*
X24672Y43498D01*
X24773D01*
X24875Y43397D01*
X20875Y36997D02*
X20977Y37098D01*
X21078D01*
X20977Y37200D01*
X21078Y37302D01*
X20977D01*
X20875Y37403D01*
X20773Y37302D01*
X20672D01*
X20773Y37200D01*
X20672Y37098D01*
X20773D01*
X20875Y36997D01*
X21675Y37797D02*
X21777Y37898D01*
X21878D01*
X21777Y38000D01*
X21878Y38102D01*
X21777D01*
X21675Y38203D01*
X21573Y38102D01*
X21472D01*
X21573Y38000D01*
X21472Y37898D01*
X21573D01*
X21675Y37797D01*
X41562Y40373D02*
X41663Y40475D01*
X41765D01*
X41663Y40576D01*
X41765Y40678D01*
X41663D01*
X41562Y40780D01*
X41460Y40678D01*
X41358D01*
X41460Y40576D01*
X41358Y40475D01*
X41460D01*
X41562Y40373D01*
X42212D02*
X42313Y40475D01*
X42415D01*
X42313Y40576D01*
X42415Y40678D01*
X42313D01*
X42212Y40780D01*
X42110Y40678D01*
X42008D01*
X42110Y40576D01*
X42008Y40475D01*
X42110D01*
X42212Y40373D01*
X27328Y41118D02*
X27429Y41219D01*
X27531D01*
X27429Y41321D01*
X27531Y41422D01*
X27429D01*
X27328Y41524D01*
X27226Y41422D01*
X27125D01*
X27226Y41321D01*
X27125Y41219D01*
X27226D01*
X27328Y41118D01*
X46112Y41023D02*
X46213Y41125D01*
X46315D01*
X46213Y41226D01*
X46315Y41328D01*
X46213D01*
X46112Y41430D01*
X46010Y41328D01*
X45908D01*
X46010Y41226D01*
X45908Y41125D01*
X46010D01*
X46112Y41023D01*
X47412D02*
X47513Y41125D01*
X47615D01*
X47513Y41226D01*
X47615Y41328D01*
X47513D01*
X47412Y41430D01*
X47310Y41328D01*
X47208D01*
X47310Y41226D01*
X47208Y41125D01*
X47310D01*
X47412Y41023D01*
Y40373D02*
X47513Y40475D01*
X47615D01*
X47513Y40576D01*
X47615Y40678D01*
X47513D01*
X47412Y40780D01*
X47310Y40678D01*
X47208D01*
X47310Y40576D01*
X47208Y40475D01*
X47310D01*
X47412Y40373D01*
X48062D02*
X48163Y40475D01*
X48265D01*
X48163Y40576D01*
X48265Y40678D01*
X48163D01*
X48062Y40780D01*
X47960Y40678D01*
X47858D01*
X47960Y40576D01*
X47858Y40475D01*
X47960D01*
X48062Y40373D01*
X22475Y37797D02*
X22577Y37898D01*
X22678D01*
X22577Y38000D01*
X22678Y38102D01*
X22577D01*
X22475Y38203D01*
X22373Y38102D01*
X22272D01*
X22373Y38000D01*
X22272Y37898D01*
X22373D01*
X22475Y37797D01*
X42212Y42323D02*
X42313Y42425D01*
X42415D01*
X42313Y42526D01*
X42415Y42628D01*
X42313D01*
X42212Y42730D01*
X42110Y42628D01*
X42008D01*
X42110Y42526D01*
X42008Y42425D01*
X42110D01*
X42212Y42323D01*
X23276Y37798D02*
X23378Y37900D01*
X23480D01*
X23378Y38001D01*
X23480Y38103D01*
X23378D01*
X23276Y38204D01*
X23175Y38103D01*
X23073D01*
X23175Y38001D01*
X23073Y37900D01*
X23175D01*
X23276Y37798D01*
X24075Y43397D02*
X24177Y43498D01*
X24278D01*
X24177Y43600D01*
X24278Y43702D01*
X24177D01*
X24075Y43803D01*
X23973Y43702D01*
X23872D01*
X23973Y43600D01*
X23872Y43498D01*
X23973D01*
X24075Y43397D01*
X42212Y42973D02*
X42313Y43075D01*
X42415D01*
X42313Y43176D01*
X42415Y43278D01*
X42313D01*
X42212Y43380D01*
X42110Y43278D01*
X42008D01*
X42110Y43176D01*
X42008Y43075D01*
X42110D01*
X42212Y42973D01*
X24875Y42597D02*
X24977Y42698D01*
X25078D01*
X24977Y42800D01*
X25078Y42902D01*
X24977D01*
X24875Y43003D01*
X24773Y42902D01*
X24672D01*
X24773Y42800D01*
X24672Y42698D01*
X24773D01*
X24875Y42597D01*
X41562Y42323D02*
X41663Y42425D01*
X41765D01*
X41663Y42526D01*
X41765Y42628D01*
X41663D01*
X41562Y42730D01*
X41460Y42628D01*
X41358D01*
X41460Y42526D01*
X41358Y42425D01*
X41460D01*
X41562Y42323D01*
X22475Y42597D02*
X22577Y42698D01*
X22678D01*
X22577Y42800D01*
X22678Y42902D01*
X22577D01*
X22475Y43003D01*
X22373Y42902D01*
X22272D01*
X22373Y42800D01*
X22272Y42698D01*
X22373D01*
X22475Y42597D01*
X40912Y42323D02*
X41013Y42425D01*
X41115D01*
X41013Y42526D01*
X41115Y42628D01*
X41013D01*
X40912Y42730D01*
X40810Y42628D01*
X40708D01*
X40810Y42526D01*
X40708Y42425D01*
X40810D01*
X40912Y42323D01*
X23275Y43397D02*
X23377Y43498D01*
X23478D01*
X23377Y43600D01*
X23478Y43702D01*
X23377D01*
X23275Y43803D01*
X23173Y43702D01*
X23072D01*
X23173Y43600D01*
X23072Y43498D01*
X23173D01*
X23275Y43397D01*
X41562Y42973D02*
X41663Y43075D01*
X41765D01*
X41663Y43176D01*
X41765Y43278D01*
X41663D01*
X41562Y43380D01*
X41460Y43278D01*
X41358D01*
X41460Y43176D01*
X41358Y43075D01*
X41460D01*
X41562Y42973D01*
X21675Y43397D02*
X21777Y43498D01*
X21878D01*
X21777Y43600D01*
X21878Y43702D01*
X21777D01*
X21675Y43803D01*
X21573Y43702D01*
X21472D01*
X21573Y43600D01*
X21472Y43498D01*
X21573D01*
X21675Y43397D01*
X40912Y42973D02*
X41013Y43075D01*
X41115D01*
X41013Y43176D01*
X41115Y43278D01*
X41013D01*
X40912Y43380D01*
X40810Y43278D01*
X40708D01*
X40810Y43176D01*
X40708Y43075D01*
X40810D01*
X40912Y42973D01*
X22475Y43397D02*
X22577Y43498D01*
X22678D01*
X22577Y43600D01*
X22678Y43702D01*
X22577D01*
X22475Y43803D01*
X22373Y43702D01*
X22272D01*
X22373Y43600D01*
X22272Y43498D01*
X22373D01*
X22475Y43397D01*
X40912Y43623D02*
X41013Y43725D01*
X41115D01*
X41013Y43826D01*
X41115Y43928D01*
X41013D01*
X40912Y44030D01*
X40810Y43928D01*
X40708D01*
X40810Y43826D01*
X40708Y43725D01*
X40810D01*
X40912Y43623D01*
X23275Y36997D02*
X23377Y37098D01*
X23478D01*
X23377Y37200D01*
X23478Y37302D01*
X23377D01*
X23275Y37403D01*
X23173Y37302D01*
X23072D01*
X23173Y37200D01*
X23072Y37098D01*
X23173D01*
X23275Y36997D01*
X44162Y42323D02*
X44263Y42425D01*
X44365D01*
X44263Y42526D01*
X44365Y42628D01*
X44263D01*
X44162Y42730D01*
X44060Y42628D01*
X43958D01*
X44060Y42526D01*
X43958Y42425D01*
X44060D01*
X44162Y42323D01*
X33268Y46234D02*
X33369Y46336D01*
X33471D01*
X33369Y46438D01*
X33471Y46539D01*
X33369D01*
X33268Y46641D01*
X33166Y46539D01*
X33064D01*
X33166Y46438D01*
X33064Y46336D01*
X33166D01*
X33268Y46234D01*
X58768Y86451D02*
X58870Y86552D01*
X58972D01*
X58870Y86654D01*
X58972Y86755D01*
X58870D01*
X58768Y86857D01*
X58667Y86755D01*
X58565D01*
X58667Y86654D01*
X58565Y86552D01*
X58667D01*
X58768Y86451D01*
X53875Y56135D02*
X53977Y56236D01*
X54078D01*
X53977Y56338D01*
X54078Y56440D01*
X53977D01*
X53875Y56541D01*
X53773Y56440D01*
X53672D01*
X53773Y56338D01*
X53672Y56236D01*
X53773D01*
X53875Y56135D01*
X44812Y46223D02*
X44913Y46325D01*
X45015D01*
X44913Y46426D01*
X45015Y46528D01*
X44913D01*
X44812Y46630D01*
X44710Y46528D01*
X44608D01*
X44710Y46426D01*
X44608Y46325D01*
X44710D01*
X44812Y46223D01*
X57169Y39940D02*
X57270Y40041D01*
X57372D01*
X57270Y40143D01*
X57372Y40244D01*
X57270D01*
X57169Y40346D01*
X57067Y40244D01*
X56965D01*
X57067Y40143D01*
X56965Y40041D01*
X57067D01*
X57169Y39940D01*
X24475Y26960D02*
X24577Y27061D01*
X24678D01*
X24577Y27163D01*
X24678Y27265D01*
X24577D01*
X24475Y27366D01*
X24373Y27265D01*
X24272D01*
X24373Y27163D01*
X24272Y27061D01*
X24373D01*
X24475Y26960D01*
X32818Y49828D02*
X32920Y49930D01*
X33022D01*
X32920Y50031D01*
X33022Y50133D01*
X32920D01*
X32818Y50235D01*
X32717Y50133D01*
X32615D01*
X32717Y50031D01*
X32615Y49930D01*
X32717D01*
X32818Y49828D01*
X5248Y46020D02*
X5350Y46121D01*
X5451D01*
X5350Y46223D01*
X5451Y46325D01*
X5350D01*
X5248Y46426D01*
X5146Y46325D01*
X5045D01*
X5146Y46223D01*
X5045Y46121D01*
X5146D01*
X5248Y46020D01*
X27831Y72041D02*
X27933Y72143D01*
X28034D01*
X27933Y72244D01*
X28034Y72346D01*
X27933D01*
X27831Y72447D01*
X27730Y72346D01*
X27628D01*
X27730Y72244D01*
X27628Y72143D01*
X27730D01*
X27831Y72041D01*
X56585Y80360D02*
X56686Y80461D01*
X56788D01*
X56686Y80563D01*
X56788Y80665D01*
X56686D01*
X56585Y80766D01*
X56483Y80665D01*
X56381D01*
X56483Y80563D01*
X56381Y80461D01*
X56483D01*
X56585Y80360D01*
X49131Y40838D02*
X49233Y40940D01*
X49334D01*
X49233Y41041D01*
X49334Y41143D01*
X49233D01*
X49131Y41245D01*
X49030Y41143D01*
X48928D01*
X49030Y41041D01*
X48928Y40940D01*
X49030D01*
X49131Y40838D01*
X33375Y50385D02*
X33477Y50486D01*
X33578D01*
X33477Y50588D01*
X33578Y50690D01*
X33477D01*
X33375Y50791D01*
X33273Y50690D01*
X33172D01*
X33273Y50588D01*
X33172Y50486D01*
X33273D01*
X33375Y50385D01*
X21075Y18885D02*
X21177Y18986D01*
X21278D01*
X21177Y19088D01*
X21278Y19190D01*
X21177D01*
X21075Y19291D01*
X20973Y19190D01*
X20872D01*
X20973Y19088D01*
X20872Y18986D01*
X20973D01*
X21075Y18885D01*
X56585Y76510D02*
X56686Y76611D01*
X56788D01*
X56686Y76713D01*
X56788Y76815D01*
X56686D01*
X56585Y76916D01*
X56483Y76815D01*
X56381D01*
X56483Y76713D01*
X56381Y76611D01*
X56483D01*
X56585Y76510D01*
X31218Y46151D02*
X31319Y46252D01*
X31421D01*
X31319Y46354D01*
X31421Y46456D01*
X31319D01*
X31218Y46557D01*
X31116Y46456D01*
X31014D01*
X31116Y46354D01*
X31014Y46252D01*
X31116D01*
X31218Y46151D01*
X26825Y28310D02*
X26927Y28411D01*
X27028D01*
X26927Y28513D01*
X27028Y28615D01*
X26927D01*
X26825Y28716D01*
X26723Y28615D01*
X26622D01*
X26723Y28513D01*
X26622Y28411D01*
X26723D01*
X26825Y28310D01*
X22225D02*
X22327Y28411D01*
X22428D01*
X22327Y28513D01*
X22428Y28615D01*
X22327D01*
X22225Y28716D01*
X22123Y28615D01*
X22022D01*
X22123Y28513D01*
X22022Y28411D01*
X22123D01*
X22225Y28310D01*
X47150Y33985D02*
X47252Y34086D01*
X47353D01*
X47252Y34188D01*
X47353Y34290D01*
X47252D01*
X47150Y34391D01*
X47048Y34290D01*
X46947D01*
X47048Y34188D01*
X46947Y34086D01*
X47048D01*
X47150Y33985D01*
X23525Y19910D02*
X23627Y20011D01*
X23728D01*
X23627Y20113D01*
X23728Y20215D01*
X23627D01*
X23525Y20316D01*
X23423Y20215D01*
X23322D01*
X23423Y20113D01*
X23322Y20011D01*
X23423D01*
X23525Y19910D01*
X2225Y29260D02*
X2327Y29361D01*
X2428D01*
X2327Y29463D01*
X2428Y29565D01*
X2327D01*
X2225Y29666D01*
X2123Y29565D01*
X2022D01*
X2123Y29463D01*
X2022Y29361D01*
X2123D01*
X2225Y29260D01*
X49950Y46285D02*
X50052Y46386D01*
X50153D01*
X50052Y46488D01*
X50153Y46590D01*
X50052D01*
X49950Y46691D01*
X49848Y46590D01*
X49747D01*
X49848Y46488D01*
X49747Y46386D01*
X49848D01*
X49950Y46285D01*
X58900Y70010D02*
X59002Y70111D01*
X59103D01*
X59002Y70213D01*
X59103Y70315D01*
X59002D01*
X58900Y70416D01*
X58798Y70315D01*
X58697D01*
X58798Y70213D01*
X58697Y70111D01*
X58798D01*
X58900Y70010D01*
X43175Y51935D02*
X43277Y52036D01*
X43378D01*
X43277Y52138D01*
X43378Y52240D01*
X43277D01*
X43175Y52341D01*
X43073Y52240D01*
X42972D01*
X43073Y52138D01*
X42972Y52036D01*
X43073D01*
X43175Y51935D01*
X44425Y53610D02*
X44527Y53711D01*
X44628D01*
X44527Y53813D01*
X44628Y53915D01*
X44527D01*
X44425Y54016D01*
X44323Y53915D01*
X44222D01*
X44323Y53813D01*
X44222Y53711D01*
X44323D01*
X44425Y53610D01*
X3275Y32585D02*
X3377Y32686D01*
X3478D01*
X3377Y32788D01*
X3478Y32890D01*
X3377D01*
X3275Y32991D01*
X3173Y32890D01*
X3072D01*
X3173Y32788D01*
X3072Y32686D01*
X3173D01*
X3275Y32585D01*
X46600Y50559D02*
X46701Y50661D01*
X46803D01*
X46701Y50763D01*
X46803Y50864D01*
X46701D01*
X46600Y50966D01*
X46498Y50864D01*
X46396D01*
X46498Y50763D01*
X46396Y50661D01*
X46498D01*
X46600Y50559D01*
X58191Y79078D02*
X58293Y79180D01*
X58394D01*
X58293Y79281D01*
X58394Y79383D01*
X58293D01*
X58191Y79484D01*
X58089Y79383D01*
X57988D01*
X58089Y79281D01*
X57988Y79180D01*
X58089D01*
X58191Y79078D01*
X5125Y28510D02*
X5227Y28611D01*
X5328D01*
X5227Y28713D01*
X5328Y28815D01*
X5227D01*
X5125Y28916D01*
X5023Y28815D01*
X4922D01*
X5023Y28713D01*
X4922Y28611D01*
X5023D01*
X5125Y28510D01*
X8150Y30985D02*
X8252Y31086D01*
X8353D01*
X8252Y31188D01*
X8353Y31290D01*
X8252D01*
X8150Y31391D01*
X8048Y31290D01*
X7947D01*
X8048Y31188D01*
X7947Y31086D01*
X8048D01*
X8150Y30985D01*
X10625Y28203D02*
X10727Y28305D01*
X10828D01*
X10727Y28406D01*
X10828Y28508D01*
X10727D01*
X10625Y28610D01*
X10523Y28508D01*
X10422D01*
X10523Y28406D01*
X10422Y28305D01*
X10523D01*
X10625Y28203D01*
X12475Y29760D02*
X12577Y29861D01*
X12678D01*
X12577Y29963D01*
X12678Y30065D01*
X12577D01*
X12475Y30166D01*
X12373Y30065D01*
X12272D01*
X12373Y29963D01*
X12272Y29861D01*
X12373D01*
X12475Y29760D01*
X8825Y31313D02*
X8927Y31414D01*
X9028D01*
X8927Y31516D01*
X9028Y31618D01*
X8927D01*
X8825Y31719D01*
X8723Y31618D01*
X8622D01*
X8723Y31516D01*
X8622Y31414D01*
X8723D01*
X8825Y31313D01*
X51025Y51960D02*
X51127Y52061D01*
X51228D01*
X51127Y52163D01*
X51228Y52264D01*
X51127D01*
X51025Y52366D01*
X50923Y52264D01*
X50822D01*
X50923Y52163D01*
X50822Y52061D01*
X50923D01*
X51025Y51960D01*
X47950Y33985D02*
X48052Y34086D01*
X48153D01*
X48052Y34188D01*
X48153Y34290D01*
X48052D01*
X47950Y34391D01*
X47848Y34290D01*
X47747D01*
X47848Y34188D01*
X47747Y34086D01*
X47848D01*
X47950Y33985D01*
X38300Y83135D02*
X38402Y83236D01*
X38503D01*
X38402Y83338D01*
X38503Y83440D01*
X38402D01*
X38300Y83541D01*
X38198Y83440D01*
X38097D01*
X38198Y83338D01*
X38097Y83236D01*
X38198D01*
X38300Y83135D01*
X14775Y32135D02*
X14877Y32236D01*
X14978D01*
X14877Y32338D01*
X14978Y32440D01*
X14877D01*
X14775Y32541D01*
X14673Y32440D01*
X14572D01*
X14673Y32338D01*
X14572Y32236D01*
X14673D01*
X14775Y32135D01*
X29950Y13060D02*
X30052Y13161D01*
X30153D01*
X30052Y13263D01*
X30153Y13365D01*
X30052D01*
X29950Y13466D01*
X29848Y13365D01*
X29747D01*
X29848Y13263D01*
X29747Y13161D01*
X29848D01*
X29950Y13060D01*
X4950Y29710D02*
X5052Y29811D01*
X5153D01*
X5052Y29913D01*
X5153Y30015D01*
X5052D01*
X4950Y30116D01*
X4848Y30015D01*
X4747D01*
X4848Y29913D01*
X4747Y29811D01*
X4848D01*
X4950Y29710D01*
X5125Y26460D02*
X5227Y26561D01*
X5328D01*
X5227Y26663D01*
X5328Y26765D01*
X5227D01*
X5125Y26866D01*
X5023Y26765D01*
X4922D01*
X5023Y26663D01*
X4922Y26561D01*
X5023D01*
X5125Y26460D01*
X45025Y68135D02*
X45127Y68236D01*
X45228D01*
X45127Y68338D01*
X45228Y68440D01*
X45127D01*
X45025Y68541D01*
X44923Y68440D01*
X44822D01*
X44923Y68338D01*
X44822Y68236D01*
X44923D01*
X45025Y68135D01*
X7700Y28160D02*
X7802Y28261D01*
X7903D01*
X7802Y28363D01*
X7903Y28465D01*
X7802D01*
X7700Y28566D01*
X7598Y28465D01*
X7497D01*
X7598Y28363D01*
X7497Y28261D01*
X7598D01*
X7700Y28160D01*
X34450Y33010D02*
X34552Y33111D01*
X34653D01*
X34552Y33213D01*
X34653Y33315D01*
X34552D01*
X34450Y33416D01*
X34348Y33315D01*
X34247D01*
X34348Y33213D01*
X34247Y33111D01*
X34348D01*
X34450Y33010D01*
X14770Y33635D02*
X14871Y33736D01*
X14973D01*
X14871Y33838D01*
X14973Y33940D01*
X14871D01*
X14770Y34041D01*
X14668Y33940D01*
X14566D01*
X14668Y33838D01*
X14566Y33736D01*
X14668D01*
X14770Y33635D01*
X47559Y51360D02*
X47661Y51461D01*
X47762D01*
X47661Y51563D01*
X47762Y51665D01*
X47661D01*
X47559Y51766D01*
X47457Y51665D01*
X47356D01*
X47457Y51563D01*
X47356Y51461D01*
X47457D01*
X47559Y51360D01*
X57698Y37963D02*
X57799Y38065D01*
X57901D01*
X57799Y38166D01*
X57901Y38268D01*
X57799D01*
X57698Y38369D01*
X57596Y38268D01*
X57494D01*
X57596Y38166D01*
X57494Y38065D01*
X57596D01*
X57698Y37963D01*
X50977Y48751D02*
X51079Y48853D01*
X51180D01*
X51079Y48954D01*
X51180Y49056D01*
X51079D01*
X50977Y49157D01*
X50875Y49056D01*
X50774D01*
X50875Y48954D01*
X50774Y48853D01*
X50875D01*
X50977Y48751D01*
X64371Y53536D02*
X64473Y53637D01*
X64574D01*
X64473Y53739D01*
X64574Y53840D01*
X64473D01*
X64371Y53942D01*
X64270Y53840D01*
X64168D01*
X64270Y53739D01*
X64168Y53637D01*
X64270D01*
X64371Y53536D01*
X46762Y45573D02*
X46863Y45675D01*
X46965D01*
X46863Y45776D01*
X46965Y45878D01*
X46863D01*
X46762Y45980D01*
X46660Y45878D01*
X46558D01*
X46660Y45776D01*
X46558Y45675D01*
X46660D01*
X46762Y45573D01*
X58191Y77610D02*
X58293Y77711D01*
X58394D01*
X58293Y77813D01*
X58394Y77915D01*
X58293D01*
X58191Y78016D01*
X58089Y77915D01*
X57988D01*
X58089Y77813D01*
X57988Y77711D01*
X58089D01*
X58191Y77610D01*
X95725Y32885D02*
X95827Y32986D01*
X95928D01*
X95827Y33088D01*
X95928Y33190D01*
X95827D01*
X95725Y33291D01*
X95623Y33190D01*
X95522D01*
X95623Y33088D01*
X95522Y32986D01*
X95623D01*
X95725Y32885D01*
X13350Y22298D02*
X13452Y22400D01*
X13553D01*
X13452Y22501D01*
X13553Y22603D01*
X13452D01*
X13350Y22705D01*
X13248Y22603D01*
X13147D01*
X13248Y22501D01*
X13147Y22400D01*
X13248D01*
X13350Y22298D01*
X13350Y20735D02*
X13452Y20836D01*
X13553D01*
X13452Y20938D01*
X13553Y21040D01*
X13452D01*
X13350Y21141D01*
X13248Y21040D01*
X13147D01*
X13248Y20938D01*
X13147Y20836D01*
X13248D01*
X13350Y20735D01*
X15525Y21557D02*
X15627Y21659D01*
X15728D01*
X15627Y21760D01*
X15728Y21862D01*
X15627D01*
X15525Y21964D01*
X15423Y21862D01*
X15322D01*
X15423Y21760D01*
X15322Y21659D01*
X15423D01*
X15525Y21557D01*
X43757Y82191D02*
X43859Y82292D01*
X43960D01*
X43859Y82394D01*
X43960Y82496D01*
X43859D01*
X43757Y82597D01*
X43656Y82496D01*
X43554D01*
X43656Y82394D01*
X43554Y82292D01*
X43656D01*
X43757Y82191D01*
X25225Y22285D02*
X25327Y22386D01*
X25428D01*
X25327Y22488D01*
X25428Y22590D01*
X25327D01*
X25225Y22691D01*
X25123Y22590D01*
X25022D01*
X25123Y22488D01*
X25022Y22386D01*
X25123D01*
X25225Y22285D01*
X5000Y44260D02*
X5102Y44361D01*
X5203D01*
X5102Y44463D01*
X5203Y44565D01*
X5102D01*
X5000Y44666D01*
X4898Y44565D01*
X4797D01*
X4898Y44463D01*
X4797Y44361D01*
X4898D01*
X5000Y44260D01*
X52025Y40548D02*
X52126Y40650D01*
X52228D01*
X52126Y40752D01*
X52228Y40853D01*
X52126D01*
X52025Y40955D01*
X51923Y40853D01*
X51822D01*
X51923Y40752D01*
X51822Y40650D01*
X51923D01*
X52025Y40548D01*
X7016Y16711D02*
X7117Y16812D01*
X7219D01*
X7117Y16914D01*
X7219Y17016D01*
X7117D01*
X7016Y17117D01*
X6914Y17016D01*
X6812D01*
X6914Y16914D01*
X6812Y16812D01*
X6914D01*
X7016Y16711D01*
X4300Y29260D02*
X4402Y29361D01*
X4503D01*
X4402Y29463D01*
X4503Y29565D01*
X4402D01*
X4300Y29666D01*
X4198Y29565D01*
X4097D01*
X4198Y29463D01*
X4097Y29361D01*
X4198D01*
X4300Y29260D01*
X11475Y20985D02*
X11577Y21086D01*
X11678D01*
X11577Y21188D01*
X11678Y21290D01*
X11577D01*
X11475Y21391D01*
X11373Y21290D01*
X11272D01*
X11373Y21188D01*
X11272Y21086D01*
X11373D01*
X11475Y20985D01*
X18750Y21860D02*
X18852Y21961D01*
X18953D01*
X18852Y22063D01*
X18953Y22165D01*
X18852D01*
X18750Y22266D01*
X18648Y22165D01*
X18547D01*
X18648Y22063D01*
X18547Y21961D01*
X18648D01*
X18750Y21860D01*
X19750Y20360D02*
X19852Y20461D01*
X19953D01*
X19852Y20563D01*
X19953Y20665D01*
X19852D01*
X19750Y20766D01*
X19648Y20665D01*
X19547D01*
X19648Y20563D01*
X19547Y20461D01*
X19648D01*
X19750Y20360D01*
X20250Y21360D02*
X20352Y21461D01*
X20453D01*
X20352Y21563D01*
X20453Y21665D01*
X20352D01*
X20250Y21766D01*
X20148Y21665D01*
X20047D01*
X20148Y21563D01*
X20047Y21461D01*
X20148D01*
X20250Y21360D01*
X8132Y32240D02*
X8234Y32341D01*
X8335D01*
X8234Y32443D01*
X8335Y32545D01*
X8234D01*
X8132Y32646D01*
X8030Y32545D01*
X7929D01*
X8030Y32443D01*
X7929Y32341D01*
X8030D01*
X8132Y32240D01*
X58831Y68920D02*
X58933Y69022D01*
X59034D01*
X58933Y69123D01*
X59034Y69225D01*
X58933D01*
X58831Y69326D01*
X58730Y69225D01*
X58628D01*
X58730Y69123D01*
X58628Y69022D01*
X58730D01*
X58831Y68920D01*
X22266Y19283D02*
X22368Y19385D01*
X22470D01*
X22368Y19486D01*
X22470Y19588D01*
X22368D01*
X22266Y19689D01*
X22165Y19588D01*
X22063D01*
X22165Y19486D01*
X22063Y19385D01*
X22165D01*
X22266Y19283D01*
X34600Y49135D02*
X34702Y49236D01*
X34803D01*
X34702Y49338D01*
X34803Y49440D01*
X34702D01*
X34600Y49541D01*
X34498Y49440D01*
X34397D01*
X34498Y49338D01*
X34397Y49236D01*
X34498D01*
X34600Y49135D01*
X16550Y21485D02*
X16652Y21586D01*
X16753D01*
X16652Y21688D01*
X16753Y21790D01*
X16652D01*
X16550Y21891D01*
X16448Y21790D01*
X16347D01*
X16448Y21688D01*
X16347Y21586D01*
X16448D01*
X16550Y21485D01*
X60000Y39410D02*
X60102Y39511D01*
X60203D01*
X60102Y39613D01*
X60203Y39715D01*
X60102D01*
X60000Y39816D01*
X59898Y39715D01*
X59797D01*
X59898Y39613D01*
X59797Y39511D01*
X59898D01*
X60000Y39410D01*
X44643Y38591D02*
X44744Y38693D01*
X44846D01*
X44744Y38795D01*
X44846Y38896D01*
X44744D01*
X44643Y38998D01*
X44541Y38896D01*
X44439D01*
X44541Y38795D01*
X44439Y38693D01*
X44541D01*
X44643Y38591D01*
X45603Y38763D02*
X45704Y38865D01*
X45806D01*
X45704Y38966D01*
X45806Y39068D01*
X45704D01*
X45603Y39169D01*
X45501Y39068D01*
X45399D01*
X45501Y38966D01*
X45399Y38865D01*
X45501D01*
X45603Y38763D01*
X5349Y80135D02*
X5450Y80236D01*
X5552D01*
X5450Y80338D01*
X5552Y80440D01*
X5450D01*
X5349Y80541D01*
X5247Y80440D01*
X5145D01*
X5247Y80338D01*
X5145Y80236D01*
X5247D01*
X5349Y80135D01*
X93025Y82685D02*
X93127Y82786D01*
X93228D01*
X93127Y82888D01*
X93228Y82990D01*
X93127D01*
X93025Y83091D01*
X92923Y82990D01*
X92822D01*
X92923Y82888D01*
X92822Y82786D01*
X92923D01*
X93025Y82685D01*
X9350Y18307D02*
X9452Y18409D01*
X9553D01*
X9452Y18510D01*
X9553Y18612D01*
X9452D01*
X9350Y18713D01*
X9248Y18612D01*
X9147D01*
X9248Y18510D01*
X9147Y18409D01*
X9248D01*
X9350Y18307D01*
X85024Y24809D02*
X85126Y24910D01*
X85227D01*
X85126Y25012D01*
X85227Y25114D01*
X85126D01*
X85024Y25215D01*
X84922Y25114D01*
X84821D01*
X84922Y25012D01*
X84821Y24910D01*
X84922D01*
X85024Y24809D01*
X48725Y39260D02*
X48827Y39361D01*
X48928D01*
X48827Y39463D01*
X48928Y39565D01*
X48827D01*
X48725Y39666D01*
X48623Y39565D01*
X48522D01*
X48623Y39463D01*
X48522Y39361D01*
X48623D01*
X48725Y39260D01*
X91425Y81570D02*
X91527Y81671D01*
X91628D01*
X91527Y81773D01*
X91628Y81875D01*
X91527D01*
X91425Y81976D01*
X91323Y81875D01*
X91222D01*
X91323Y81773D01*
X91222Y81671D01*
X91323D01*
X91425Y81570D01*
X37250Y79385D02*
X37352Y79486D01*
X37453D01*
X37352Y79588D01*
X37453Y79690D01*
X37352D01*
X37250Y79791D01*
X37148Y79690D01*
X37047D01*
X37148Y79588D01*
X37047Y79486D01*
X37148D01*
X37250Y79385D01*
X37675Y46685D02*
X37777Y46786D01*
X37878D01*
X37777Y46888D01*
X37878Y46990D01*
X37777D01*
X37675Y47091D01*
X37573Y46990D01*
X37472D01*
X37573Y46888D01*
X37472Y46786D01*
X37573D01*
X37675Y46685D01*
X10950Y17696D02*
X11052Y17798D01*
X11153D01*
X11052Y17899D01*
X11153Y18001D01*
X11052D01*
X10950Y18102D01*
X10848Y18001D01*
X10747D01*
X10848Y17899D01*
X10747Y17798D01*
X10848D01*
X10950Y17696D01*
X85024Y39911D02*
X85126Y40012D01*
X85227D01*
X85126Y40114D01*
X85227Y40216D01*
X85126D01*
X85024Y40317D01*
X84922Y40216D01*
X84821D01*
X84922Y40114D01*
X84821Y40012D01*
X84922D01*
X85024Y39911D01*
X2300Y47785D02*
X2402Y47886D01*
X2503D01*
X2402Y47988D01*
X2503Y48090D01*
X2402D01*
X2300Y48191D01*
X2198Y48090D01*
X2097D01*
X2198Y47988D01*
X2097Y47886D01*
X2198D01*
X2300Y47785D01*
X90000Y14260D02*
X90102Y14361D01*
X90203D01*
X90102Y14463D01*
X90203Y14565D01*
X90102D01*
X90000Y14666D01*
X89898Y14565D01*
X89797D01*
X89898Y14463D01*
X89797Y14361D01*
X89898D01*
X90000Y14260D01*
X92500Y9260D02*
X92602Y9361D01*
X92703D01*
X92602Y9463D01*
X92703Y9565D01*
X92602D01*
X92500Y9666D01*
X92398Y9565D01*
X92297D01*
X92398Y9463D01*
X92297Y9361D01*
X92398D01*
X92500Y9260D01*
X90000Y4260D02*
X90102Y4361D01*
X90203D01*
X90102Y4463D01*
X90203Y4565D01*
X90102D01*
X90000Y4666D01*
X89898Y4565D01*
X89797D01*
X89898Y4463D01*
X89797Y4361D01*
X89898D01*
X90000Y4260D01*
X85000Y94260D02*
X85102Y94361D01*
X85203D01*
X85102Y94463D01*
X85203Y94565D01*
X85102D01*
X85000Y94666D01*
X84898Y94565D01*
X84797D01*
X84898Y94463D01*
X84797Y94361D01*
X84898D01*
X85000Y94260D01*
X87500Y89260D02*
X87602Y89361D01*
X87703D01*
X87602Y89463D01*
X87703Y89565D01*
X87602D01*
X87500Y89666D01*
X87398Y89565D01*
X87297D01*
X87398Y89463D01*
X87297Y89361D01*
X87398D01*
X87500Y89260D01*
X85000Y84260D02*
X85102Y84361D01*
X85203D01*
X85102Y84463D01*
X85203Y84565D01*
X85102D01*
X85000Y84666D01*
X84898Y84565D01*
X84797D01*
X84898Y84463D01*
X84797Y84361D01*
X84898D01*
X85000Y84260D01*
Y64260D02*
X85102Y64361D01*
X85203D01*
X85102Y64463D01*
X85203Y64565D01*
X85102D01*
X85000Y64666D01*
X84898Y64565D01*
X84797D01*
X84898Y64463D01*
X84797Y64361D01*
X84898D01*
X85000Y64260D01*
Y54260D02*
X85102Y54361D01*
X85203D01*
X85102Y54463D01*
X85203Y54565D01*
X85102D01*
X85000Y54666D01*
X84898Y54565D01*
X84797D01*
X84898Y54463D01*
X84797Y54361D01*
X84898D01*
X85000Y54260D01*
X87500Y19260D02*
X87602Y19361D01*
X87703D01*
X87602Y19463D01*
X87703Y19565D01*
X87602D01*
X87500Y19666D01*
X87398Y19565D01*
X87297D01*
X87398Y19463D01*
X87297Y19361D01*
X87398D01*
X87500Y19260D01*
X85000Y14260D02*
X85102Y14361D01*
X85203D01*
X85102Y14463D01*
X85203Y14565D01*
X85102D01*
X85000Y14666D01*
X84898Y14565D01*
X84797D01*
X84898Y14463D01*
X84797Y14361D01*
X84898D01*
X85000Y14260D01*
X87500Y9260D02*
X87602Y9361D01*
X87703D01*
X87602Y9463D01*
X87703Y9565D01*
X87602D01*
X87500Y9666D01*
X87398Y9565D01*
X87297D01*
X87398Y9463D01*
X87297Y9361D01*
X87398D01*
X87500Y9260D01*
X85000Y4260D02*
X85102Y4361D01*
X85203D01*
X85102Y4463D01*
X85203Y4565D01*
X85102D01*
X85000Y4666D01*
X84898Y4565D01*
X84797D01*
X84898Y4463D01*
X84797Y4361D01*
X84898D01*
X85000Y4260D01*
X82500Y89260D02*
X82602Y89361D01*
X82703D01*
X82602Y89463D01*
X82703Y89565D01*
X82602D01*
X82500Y89666D01*
X82398Y89565D01*
X82297D01*
X82398Y89463D01*
X82297Y89361D01*
X82398D01*
X82500Y89260D01*
X80000Y84260D02*
X80102Y84361D01*
X80203D01*
X80102Y84463D01*
X80203Y84565D01*
X80102D01*
X80000Y84666D01*
X79898Y84565D01*
X79797D01*
X79898Y84463D01*
X79797Y84361D01*
X79898D01*
X80000Y84260D01*
X82500Y79260D02*
X82602Y79361D01*
X82703D01*
X82602Y79463D01*
X82703Y79565D01*
X82602D01*
X82500Y79666D01*
X82398Y79565D01*
X82297D01*
X82398Y79463D01*
X82297Y79361D01*
X82398D01*
X82500Y79260D01*
Y59260D02*
X82602Y59361D01*
X82703D01*
X82602Y59463D01*
X82703Y59565D01*
X82602D01*
X82500Y59666D01*
X82398Y59565D01*
X82297D01*
X82398Y59463D01*
X82297Y59361D01*
X82398D01*
X82500Y59260D01*
X80000Y54260D02*
X80102Y54361D01*
X80203D01*
X80102Y54463D01*
X80203Y54565D01*
X80102D01*
X80000Y54666D01*
X79898Y54565D01*
X79797D01*
X79898Y54463D01*
X79797Y54361D01*
X79898D01*
X80000Y54260D01*
Y34260D02*
X80102Y34361D01*
X80203D01*
X80102Y34463D01*
X80203Y34565D01*
X80102D01*
X80000Y34666D01*
X79898Y34565D01*
X79797D01*
X79898Y34463D01*
X79797Y34361D01*
X79898D01*
X80000Y34260D01*
Y24260D02*
X80102Y24361D01*
X80203D01*
X80102Y24463D01*
X80203Y24565D01*
X80102D01*
X80000Y24666D01*
X79898Y24565D01*
X79797D01*
X79898Y24463D01*
X79797Y24361D01*
X79898D01*
X80000Y24260D01*
X82500Y19260D02*
X82602Y19361D01*
X82703D01*
X82602Y19463D01*
X82703Y19565D01*
X82602D01*
X82500Y19666D01*
X82398Y19565D01*
X82297D01*
X82398Y19463D01*
X82297Y19361D01*
X82398D01*
X82500Y19260D01*
X80000Y14260D02*
X80102Y14361D01*
X80203D01*
X80102Y14463D01*
X80203Y14565D01*
X80102D01*
X80000Y14666D01*
X79898Y14565D01*
X79797D01*
X79898Y14463D01*
X79797Y14361D01*
X79898D01*
X80000Y14260D01*
X82500Y9260D02*
X82602Y9361D01*
X82703D01*
X82602Y9463D01*
X82703Y9565D01*
X82602D01*
X82500Y9666D01*
X82398Y9565D01*
X82297D01*
X82398Y9463D01*
X82297Y9361D01*
X82398D01*
X82500Y9260D01*
X80000Y4260D02*
X80102Y4361D01*
X80203D01*
X80102Y4463D01*
X80203Y4565D01*
X80102D01*
X80000Y4666D01*
X79898Y4565D01*
X79797D01*
X79898Y4463D01*
X79797Y4361D01*
X79898D01*
X80000Y4260D01*
X77500Y89260D02*
X77602Y89361D01*
X77703D01*
X77602Y89463D01*
X77703Y89565D01*
X77602D01*
X77500Y89666D01*
X77398Y89565D01*
X77297D01*
X77398Y89463D01*
X77297Y89361D01*
X77398D01*
X77500Y89260D01*
X75000Y84260D02*
X75102Y84361D01*
X75203D01*
X75102Y84463D01*
X75203Y84565D01*
X75102D01*
X75000Y84666D01*
X74898Y84565D01*
X74797D01*
X74898Y84463D01*
X74797Y84361D01*
X74898D01*
X75000Y84260D01*
X77500Y79260D02*
X77602Y79361D01*
X77703D01*
X77602Y79463D01*
X77703Y79565D01*
X77602D01*
X77500Y79666D01*
X77398Y79565D01*
X77297D01*
X77398Y79463D01*
X77297Y79361D01*
X77398D01*
X77500Y79260D01*
X75000Y74260D02*
X75102Y74361D01*
X75203D01*
X75102Y74463D01*
X75203Y74565D01*
X75102D01*
X75000Y74666D01*
X74898Y74565D01*
X74797D01*
X74898Y74463D01*
X74797Y74361D01*
X74898D01*
X75000Y74260D01*
X77500Y69260D02*
X77602Y69361D01*
X77703D01*
X77602Y69463D01*
X77703Y69565D01*
X77602D01*
X77500Y69666D01*
X77398Y69565D01*
X77297D01*
X77398Y69463D01*
X77297Y69361D01*
X77398D01*
X77500Y69260D01*
X75000Y64260D02*
X75102Y64361D01*
X75203D01*
X75102Y64463D01*
X75203Y64565D01*
X75102D01*
X75000Y64666D01*
X74898Y64565D01*
X74797D01*
X74898Y64463D01*
X74797Y64361D01*
X74898D01*
X75000Y64260D01*
X77500Y59260D02*
X77602Y59361D01*
X77703D01*
X77602Y59463D01*
X77703Y59565D01*
X77602D01*
X77500Y59666D01*
X77398Y59565D01*
X77297D01*
X77398Y59463D01*
X77297Y59361D01*
X77398D01*
X77500Y59260D01*
X75000Y54260D02*
X75102Y54361D01*
X75203D01*
X75102Y54463D01*
X75203Y54565D01*
X75102D01*
X75000Y54666D01*
X74898Y54565D01*
X74797D01*
X74898Y54463D01*
X74797Y54361D01*
X74898D01*
X75000Y54260D01*
X77500Y39260D02*
X77602Y39361D01*
X77703D01*
X77602Y39463D01*
X77703Y39565D01*
X77602D01*
X77500Y39666D01*
X77398Y39565D01*
X77297D01*
X77398Y39463D01*
X77297Y39361D01*
X77398D01*
X77500Y39260D01*
X75000Y34260D02*
X75102Y34361D01*
X75203D01*
X75102Y34463D01*
X75203Y34565D01*
X75102D01*
X75000Y34666D01*
X74898Y34565D01*
X74797D01*
X74898Y34463D01*
X74797Y34361D01*
X74898D01*
X75000Y34260D01*
X77500Y29260D02*
X77602Y29361D01*
X77703D01*
X77602Y29463D01*
X77703Y29565D01*
X77602D01*
X77500Y29666D01*
X77398Y29565D01*
X77297D01*
X77398Y29463D01*
X77297Y29361D01*
X77398D01*
X77500Y29260D01*
X75000Y24260D02*
X75102Y24361D01*
X75203D01*
X75102Y24463D01*
X75203Y24565D01*
X75102D01*
X75000Y24666D01*
X74898Y24565D01*
X74797D01*
X74898Y24463D01*
X74797Y24361D01*
X74898D01*
X75000Y24260D01*
X77500Y19260D02*
X77602Y19361D01*
X77703D01*
X77602Y19463D01*
X77703Y19565D01*
X77602D01*
X77500Y19666D01*
X77398Y19565D01*
X77297D01*
X77398Y19463D01*
X77297Y19361D01*
X77398D01*
X77500Y19260D01*
X75000Y14260D02*
X75102Y14361D01*
X75203D01*
X75102Y14463D01*
X75203Y14565D01*
X75102D01*
X75000Y14666D01*
X74898Y14565D01*
X74797D01*
X74898Y14463D01*
X74797Y14361D01*
X74898D01*
X75000Y14260D01*
X77500Y9260D02*
X77602Y9361D01*
X77703D01*
X77602Y9463D01*
X77703Y9565D01*
X77602D01*
X77500Y9666D01*
X77398Y9565D01*
X77297D01*
X77398Y9463D01*
X77297Y9361D01*
X77398D01*
X77500Y9260D01*
X75000Y4260D02*
X75102Y4361D01*
X75203D01*
X75102Y4463D01*
X75203Y4565D01*
X75102D01*
X75000Y4666D01*
X74898Y4565D01*
X74797D01*
X74898Y4463D01*
X74797Y4361D01*
X74898D01*
X75000Y4260D01*
X47934Y54069D02*
X48036Y54170D01*
X48137D01*
X48036Y54272D01*
X48137Y54374D01*
X48036D01*
X47934Y54475D01*
X47832Y54374D01*
X47731D01*
X47832Y54272D01*
X47731Y54170D01*
X47832D01*
X47934Y54069D01*
X32971Y59789D02*
X33073Y59890D01*
X33174D01*
X33073Y59992D01*
X33174Y60093D01*
X33073D01*
X32971Y60195D01*
X32870Y60093D01*
X32768D01*
X32870Y59992D01*
X32768Y59890D01*
X32870D01*
X32971Y59789D01*
X52375Y48435D02*
X52477Y48536D01*
X52578D01*
X52477Y48638D01*
X52578Y48740D01*
X52477D01*
X52375Y48841D01*
X52273Y48740D01*
X52172D01*
X52273Y48638D01*
X52172Y48536D01*
X52273D01*
X52375Y48435D01*
X19475Y24310D02*
X19577Y24411D01*
X19678D01*
X19577Y24513D01*
X19678Y24615D01*
X19577D01*
X19475Y24716D01*
X19373Y24615D01*
X19272D01*
X19373Y24513D01*
X19272Y24411D01*
X19373D01*
X19475Y24310D01*
X36000Y46460D02*
X36102Y46561D01*
X36203D01*
X36102Y46663D01*
X36203Y46765D01*
X36102D01*
X36000Y46866D01*
X35898Y46765D01*
X35797D01*
X35898Y46663D01*
X35797Y46561D01*
X35898D01*
X36000Y46460D01*
X45178Y49636D02*
X45279Y49737D01*
X45381D01*
X45279Y49839D01*
X45381Y49941D01*
X45279D01*
X45178Y50042D01*
X45076Y49941D01*
X44974D01*
X45076Y49839D01*
X44974Y49737D01*
X45076D01*
X45178Y49636D01*
X87377Y84012D02*
X87478Y84113D01*
X87580D01*
X87478Y84215D01*
X87580Y84316D01*
X87478D01*
X87377Y84418D01*
X87275Y84316D01*
X87174D01*
X87275Y84215D01*
X87174Y84113D01*
X87275D01*
X87377Y84012D01*
X45957Y51388D02*
X46059Y51490D01*
X46161D01*
X46059Y51591D01*
X46161Y51693D01*
X46059D01*
X45957Y51795D01*
X45856Y51693D01*
X45754D01*
X45856Y51591D01*
X45754Y51490D01*
X45856D01*
X45957Y51388D01*
X56400Y43610D02*
X56502Y43711D01*
X56603D01*
X56502Y43813D01*
X56603Y43915D01*
X56502D01*
X56400Y44016D01*
X56298Y43915D01*
X56197D01*
X56298Y43813D01*
X56197Y43711D01*
X56298D01*
X56400Y43610D01*
X5000Y34260D02*
X5102Y34361D01*
X5203D01*
X5102Y34463D01*
X5203Y34565D01*
X5102D01*
X5000Y34666D01*
X4898Y34565D01*
X4797D01*
X4898Y34463D01*
X4797Y34361D01*
X4898D01*
X5000Y34260D01*
X85483Y70227D02*
X85585Y70328D01*
X85687D01*
X85585Y70430D01*
X85687Y70531D01*
X85585D01*
X85483Y70633D01*
X85382Y70531D01*
X85280D01*
X85382Y70430D01*
X85280Y70328D01*
X85382D01*
X85483Y70227D01*
X84550Y70535D02*
X84652Y70636D01*
X84753D01*
X84652Y70738D01*
X84753Y70840D01*
X84652D01*
X84550Y70941D01*
X84448Y70840D01*
X84347D01*
X84448Y70738D01*
X84347Y70636D01*
X84448D01*
X84550Y70535D01*
X92325Y85844D02*
X92427Y85945D01*
X92528D01*
X92427Y86047D01*
X92528Y86149D01*
X92427D01*
X92325Y86250D01*
X92223Y86149D01*
X92122D01*
X92223Y86047D01*
X92122Y85945D01*
X92223D01*
X92325Y85844D01*
X43200Y53610D02*
X43302Y53711D01*
X43403D01*
X43302Y53813D01*
X43403Y53915D01*
X43302D01*
X43200Y54016D01*
X43098Y53915D01*
X42997D01*
X43098Y53813D01*
X42997Y53711D01*
X43098D01*
X43200Y53610D01*
X60100Y38285D02*
X60202Y38386D01*
X60303D01*
X60202Y38488D01*
X60303Y38590D01*
X60202D01*
X60100Y38691D01*
X59998Y38590D01*
X59897D01*
X59998Y38488D01*
X59897Y38386D01*
X59998D01*
X60100Y38285D01*
X20080Y23259D02*
X20181Y23361D01*
X20283D01*
X20181Y23462D01*
X20283Y23564D01*
X20181D01*
X20080Y23665D01*
X19978Y23564D01*
X19877D01*
X19978Y23462D01*
X19877Y23361D01*
X19978D01*
X20080Y23259D01*
X56425Y47485D02*
X56527Y47586D01*
X56628D01*
X56527Y47688D01*
X56628Y47790D01*
X56527D01*
X56425Y47891D01*
X56323Y47790D01*
X56222D01*
X56323Y47688D01*
X56222Y47586D01*
X56323D01*
X56425Y47485D01*
X90725Y38860D02*
X90827Y38961D01*
X90928D01*
X90827Y39063D01*
X90928Y39165D01*
X90827D01*
X90725Y39266D01*
X90623Y39165D01*
X90522D01*
X90623Y39063D01*
X90522Y38961D01*
X90623D01*
X90725Y38860D01*
X83400Y70535D02*
X83502Y70636D01*
X83603D01*
X83502Y70738D01*
X83603Y70840D01*
X83502D01*
X83400Y70941D01*
X83298Y70840D01*
X83197D01*
X83298Y70738D01*
X83197Y70636D01*
X83298D01*
X83400Y70535D01*
X83650Y18835D02*
X83752Y18936D01*
X83853D01*
X83752Y19038D01*
X83853Y19140D01*
X83752D01*
X83650Y19241D01*
X83548Y19140D01*
X83447D01*
X83548Y19038D01*
X83447Y18936D01*
X83548D01*
X83650Y18835D01*
X45605Y50495D02*
X45707Y50597D01*
X45808D01*
X45707Y50698D01*
X45808Y50800D01*
X45707D01*
X45605Y50902D01*
X45504Y50800D01*
X45402D01*
X45504Y50698D01*
X45402Y50597D01*
X45504D01*
X45605Y50495D01*
X82375Y39410D02*
X82477Y39511D01*
X82578D01*
X82477Y39613D01*
X82578Y39715D01*
X82477D01*
X82375Y39816D01*
X82273Y39715D01*
X82172D01*
X82273Y39613D01*
X82172Y39511D01*
X82273D01*
X82375Y39410D01*
Y22510D02*
X82477Y22611D01*
X82578D01*
X82477Y22713D01*
X82578Y22815D01*
X82477D01*
X82375Y22916D01*
X82273Y22815D01*
X82172D01*
X82273Y22713D01*
X82172Y22611D01*
X82273D01*
X82375Y22510D01*
X48450Y49235D02*
X48552Y49336D01*
X48653D01*
X48552Y49438D01*
X48653Y49540D01*
X48552D01*
X48450Y49641D01*
X48348Y49540D01*
X48247D01*
X48348Y49438D01*
X48247Y49336D01*
X48348D01*
X48450Y49235D01*
X12597Y77813D02*
X12699Y77914D01*
X12800D01*
X12699Y78016D01*
X12800Y78117D01*
X12699D01*
X12597Y78219D01*
X12496Y78117D01*
X12394D01*
X12496Y78016D01*
X12394Y77914D01*
X12496D01*
X12597Y77813D01*
X36725Y47685D02*
X36827Y47786D01*
X36928D01*
X36827Y47888D01*
X36928Y47990D01*
X36827D01*
X36725Y48091D01*
X36623Y47990D01*
X36522D01*
X36623Y47888D01*
X36522Y47786D01*
X36623D01*
X36725Y47685D01*
X55304Y50977D02*
X55406Y51079D01*
X55507D01*
X55406Y51180D01*
X55507Y51282D01*
X55406D01*
X55304Y51383D01*
X55203Y51282D01*
X55101D01*
X55203Y51180D01*
X55101Y51079D01*
X55203D01*
X55304Y50977D01*
X47635Y38645D02*
X47737Y38747D01*
X47839D01*
X47737Y38848D01*
X47839Y38950D01*
X47737D01*
X47635Y39052D01*
X47534Y38950D01*
X47432D01*
X47534Y38848D01*
X47432Y38747D01*
X47534D01*
X47635Y38645D01*
X43250Y2760D02*
X43352Y2861D01*
X43453D01*
X43352Y2963D01*
X43453Y3065D01*
X43352D01*
X43250Y3166D01*
X43148Y3065D01*
X43047D01*
X43148Y2963D01*
X43047Y2861D01*
X43148D01*
X43250Y2760D01*
X42400Y50669D02*
X42502Y50770D01*
X42603D01*
X42502Y50872D01*
X42603Y50974D01*
X42502D01*
X42400Y51075D01*
X42298Y50974D01*
X42197D01*
X42298Y50872D01*
X42197Y50770D01*
X42298D01*
X42400Y50669D01*
X46350Y84260D02*
X46452Y84361D01*
X46553D01*
X46452Y84463D01*
X46553Y84565D01*
X46452D01*
X46350Y84666D01*
X46248Y84565D01*
X46147D01*
X46248Y84463D01*
X46147Y84361D01*
X46248D01*
X46350Y84260D01*
X7500Y49260D02*
X7602Y49361D01*
X7703D01*
X7602Y49463D01*
X7703Y49565D01*
X7602D01*
X7500Y49666D01*
X7398Y49565D01*
X7297D01*
X7398Y49463D01*
X7297Y49361D01*
X7398D01*
X7500Y49260D01*
X18575Y33335D02*
X18677Y33436D01*
X18778D01*
X18677Y33538D01*
X18778Y33640D01*
X18677D01*
X18575Y33741D01*
X18473Y33640D01*
X18372D01*
X18473Y33538D01*
X18372Y33436D01*
X18473D01*
X18575Y33335D01*
X34450Y46685D02*
X34552Y46786D01*
X34653D01*
X34552Y46888D01*
X34653Y46990D01*
X34552D01*
X34450Y47091D01*
X34348Y46990D01*
X34247D01*
X34348Y46888D01*
X34247Y46786D01*
X34348D01*
X34450Y46685D01*
X43150Y7310D02*
X43252Y7411D01*
X43353D01*
X43252Y7513D01*
X43353Y7615D01*
X43252D01*
X43150Y7716D01*
X43048Y7615D01*
X42947D01*
X43048Y7513D01*
X42947Y7411D01*
X43048D01*
X43150Y7310D01*
X89020Y30350D02*
X89121Y30451D01*
X89223D01*
X89121Y30553D01*
X89223Y30654D01*
X89121D01*
X89020Y30756D01*
X88918Y30654D01*
X88817D01*
X88918Y30553D01*
X88817Y30451D01*
X88918D01*
X89020Y30350D01*
X57178Y85860D02*
X57280Y85962D01*
X57381D01*
X57280Y86063D01*
X57381Y86165D01*
X57280D01*
X57178Y86267D01*
X57076Y86165D01*
X56975D01*
X57076Y86063D01*
X56975Y85962D01*
X57076D01*
X57178Y85860D01*
X66050Y67385D02*
X66152Y67486D01*
X66253D01*
X66152Y67588D01*
X66253Y67690D01*
X66152D01*
X66050Y67791D01*
X65948Y67690D01*
X65847D01*
X65948Y67588D01*
X65847Y67486D01*
X65948D01*
X66050Y67385D01*
X63700Y68735D02*
X63802Y68836D01*
X63903D01*
X63802Y68938D01*
X63903Y69040D01*
X63802D01*
X63700Y69141D01*
X63598Y69040D01*
X63497D01*
X63598Y68938D01*
X63497Y68836D01*
X63598D01*
X63700Y68735D01*
X24475Y29635D02*
X24577Y29736D01*
X24678D01*
X24577Y29838D01*
X24678Y29940D01*
X24577D01*
X24475Y30041D01*
X24373Y29940D01*
X24272D01*
X24373Y29838D01*
X24272Y29736D01*
X24373D01*
X24475Y29635D01*
X69611Y82375D02*
X69712Y82476D01*
X69814D01*
X69712Y82578D01*
X69814Y82679D01*
X69712D01*
X69611Y82781D01*
X69509Y82679D01*
X69407D01*
X69509Y82578D01*
X69407Y82476D01*
X69509D01*
X69611Y82375D01*
X19525Y82885D02*
X19627Y82986D01*
X19728D01*
X19627Y83088D01*
X19728Y83190D01*
X19627D01*
X19525Y83291D01*
X19423Y83190D01*
X19322D01*
X19423Y83088D01*
X19322Y82986D01*
X19423D01*
X19525Y82885D01*
X23825D02*
X23927Y82986D01*
X24028D01*
X23927Y83088D01*
X24028Y83190D01*
X23927D01*
X23825Y83291D01*
X23723Y83190D01*
X23622D01*
X23723Y83088D01*
X23622Y82986D01*
X23723D01*
X23825Y82885D01*
X64975Y40310D02*
X65077Y40411D01*
X65178D01*
X65077Y40513D01*
X65178Y40615D01*
X65077D01*
X64975Y40716D01*
X64873Y40615D01*
X64772D01*
X64873Y40513D01*
X64772Y40411D01*
X64873D01*
X64975Y40310D01*
Y37635D02*
X65077Y37736D01*
X65178D01*
X65077Y37838D01*
X65178Y37940D01*
X65077D01*
X64975Y38041D01*
X64873Y37940D01*
X64772D01*
X64873Y37838D01*
X64772Y37736D01*
X64873D01*
X64975Y37635D01*
X62625Y38985D02*
X62727Y39086D01*
X62828D01*
X62727Y39188D01*
X62828Y39290D01*
X62727D01*
X62625Y39391D01*
X62523Y39290D01*
X62422D01*
X62523Y39188D01*
X62422Y39086D01*
X62523D01*
X62625Y38985D01*
X67225D02*
X67327Y39086D01*
X67428D01*
X67327Y39188D01*
X67428Y39290D01*
X67327D01*
X67225Y39391D01*
X67123Y39290D01*
X67022D01*
X67123Y39188D01*
X67022Y39086D01*
X67123D01*
X67225Y38985D01*
X95700Y30360D02*
X95802Y30461D01*
X95903D01*
X95802Y30563D01*
X95903Y30665D01*
X95802D01*
X95700Y30766D01*
X95598Y30665D01*
X95497D01*
X95598Y30563D01*
X95497Y30461D01*
X95598D01*
X95700Y30360D01*
X30250Y27335D02*
X30352Y27436D01*
X30453D01*
X30352Y27538D01*
X30453Y27640D01*
X30352D01*
X30250Y27741D01*
X30148Y27640D01*
X30047D01*
X30148Y27538D01*
X30047Y27436D01*
X30148D01*
X30250Y27335D01*
X24150Y20985D02*
X24252Y21086D01*
X24353D01*
X24252Y21188D01*
X24353Y21290D01*
X24252D01*
X24150Y21391D01*
X24048Y21290D01*
X23947D01*
X24048Y21188D01*
X23947Y21086D01*
X24048D01*
X24150Y20985D01*
X30250Y24660D02*
X30352Y24761D01*
X30453D01*
X30352Y24863D01*
X30453Y24965D01*
X30352D01*
X30250Y25066D01*
X30148Y24965D01*
X30047D01*
X30148Y24863D01*
X30047Y24761D01*
X30148D01*
X30250Y24660D01*
X92250Y35435D02*
X92352Y35536D01*
X92453D01*
X92352Y35638D01*
X92453Y35740D01*
X92352D01*
X92250Y35841D01*
X92148Y35740D01*
X92047D01*
X92148Y35638D01*
X92047Y35536D01*
X92148D01*
X92250Y35435D01*
X27900Y26010D02*
X28002Y26111D01*
X28103D01*
X28002Y26213D01*
X28103Y26315D01*
X28002D01*
X27900Y26416D01*
X27798Y26315D01*
X27697D01*
X27798Y26213D01*
X27697Y26111D01*
X27798D01*
X27900Y26010D01*
X32500D02*
X32602Y26111D01*
X32703D01*
X32602Y26213D01*
X32703Y26315D01*
X32602D01*
X32500Y26416D01*
X32398Y26315D01*
X32297D01*
X32398Y26213D01*
X32297Y26111D01*
X32398D01*
X32500Y26010D01*
X95650Y35435D02*
X95752Y35536D01*
X95853D01*
X95752Y35638D01*
X95853Y35740D01*
X95752D01*
X95650Y35841D01*
X95548Y35740D01*
X95447D01*
X95548Y35638D01*
X95447Y35536D01*
X95548D01*
X95650Y35435D01*
X92200Y32960D02*
X92302Y33061D01*
X92403D01*
X92302Y33163D01*
X92403Y33265D01*
X92302D01*
X92200Y33366D01*
X92098Y33265D01*
X91997D01*
X92098Y33163D01*
X91997Y33061D01*
X92098D01*
X92200Y32960D01*
X48100Y82185D02*
X48202Y82286D01*
X48303D01*
X48202Y82388D01*
X48303Y82490D01*
X48202D01*
X48100Y82591D01*
X47998Y82490D01*
X47897D01*
X47998Y82388D01*
X47897Y82286D01*
X47998D01*
X48100Y82185D01*
X73919Y82387D02*
X74021Y82489D01*
X74122D01*
X74021Y82591D01*
X74122Y82692D01*
X74021D01*
X73919Y82794D01*
X73818Y82692D01*
X73716D01*
X73818Y82591D01*
X73716Y82489D01*
X73818D01*
X73919Y82387D01*
X97500Y89260D02*
X97602Y89361D01*
X97703D01*
X97602Y89463D01*
X97703Y89565D01*
X97602D01*
X97500Y89666D01*
X97398Y89565D01*
X97297D01*
X97398Y89463D01*
X97297Y89361D01*
X97398D01*
X97500Y89260D01*
X95000Y84260D02*
X95102Y84361D01*
X95203D01*
X95102Y84463D01*
X95203Y84565D01*
X95102D01*
X95000Y84666D01*
X94898Y84565D01*
X94797D01*
X94898Y84463D01*
X94797Y84361D01*
X94898D01*
X95000Y84260D01*
X97500Y79260D02*
X97602Y79361D01*
X97703D01*
X97602Y79463D01*
X97703Y79565D01*
X97602D01*
X97500Y79666D01*
X97398Y79565D01*
X97297D01*
X97398Y79463D01*
X97297Y79361D01*
X97398D01*
X97500Y79260D01*
X95000Y74260D02*
X95102Y74361D01*
X95203D01*
X95102Y74463D01*
X95203Y74565D01*
X95102D01*
X95000Y74666D01*
X94898Y74565D01*
X94797D01*
X94898Y74463D01*
X94797Y74361D01*
X94898D01*
X95000Y74260D01*
X97500Y69260D02*
X97602Y69361D01*
X97703D01*
X97602Y69463D01*
X97703Y69565D01*
X97602D01*
X97500Y69666D01*
X97398Y69565D01*
X97297D01*
X97398Y69463D01*
X97297Y69361D01*
X97398D01*
X97500Y69260D01*
X95000Y64260D02*
X95102Y64361D01*
X95203D01*
X95102Y64463D01*
X95203Y64565D01*
X95102D01*
X95000Y64666D01*
X94898Y64565D01*
X94797D01*
X94898Y64463D01*
X94797Y64361D01*
X94898D01*
X95000Y64260D01*
X97500Y59260D02*
X97602Y59361D01*
X97703D01*
X97602Y59463D01*
X97703Y59565D01*
X97602D01*
X97500Y59666D01*
X97398Y59565D01*
X97297D01*
X97398Y59463D01*
X97297Y59361D01*
X97398D01*
X97500Y59260D01*
X95000Y54260D02*
X95102Y54361D01*
X95203D01*
X95102Y54463D01*
X95203Y54565D01*
X95102D01*
X95000Y54666D01*
X94898Y54565D01*
X94797D01*
X94898Y54463D01*
X94797Y54361D01*
X94898D01*
X95000Y54260D01*
X97500Y49260D02*
X97602Y49361D01*
X97703D01*
X97602Y49463D01*
X97703Y49565D01*
X97602D01*
X97500Y49666D01*
X97398Y49565D01*
X97297D01*
X97398Y49463D01*
X97297Y49361D01*
X97398D01*
X97500Y49260D01*
X95000Y44260D02*
X95102Y44361D01*
X95203D01*
X95102Y44463D01*
X95203Y44565D01*
X95102D01*
X95000Y44666D01*
X94898Y44565D01*
X94797D01*
X94898Y44463D01*
X94797Y44361D01*
X94898D01*
X95000Y44260D01*
X97500Y39260D02*
X97602Y39361D01*
X97703D01*
X97602Y39463D01*
X97703Y39565D01*
X97602D01*
X97500Y39666D01*
X97398Y39565D01*
X97297D01*
X97398Y39463D01*
X97297Y39361D01*
X97398D01*
X97500Y39260D01*
X95000Y34260D02*
X95102Y34361D01*
X95203D01*
X95102Y34463D01*
X95203Y34565D01*
X95102D01*
X95000Y34666D01*
X94898Y34565D01*
X94797D01*
X94898Y34463D01*
X94797Y34361D01*
X94898D01*
X95000Y34260D01*
X97500Y29260D02*
X97602Y29361D01*
X97703D01*
X97602Y29463D01*
X97703Y29565D01*
X97602D01*
X97500Y29666D01*
X97398Y29565D01*
X97297D01*
X97398Y29463D01*
X97297Y29361D01*
X97398D01*
X97500Y29260D01*
Y19260D02*
X97602Y19361D01*
X97703D01*
X97602Y19463D01*
X97703Y19565D01*
X97602D01*
X97500Y19666D01*
X97398Y19565D01*
X97297D01*
X97398Y19463D01*
X97297Y19361D01*
X97398D01*
X97500Y19260D01*
X95000Y14260D02*
X95102Y14361D01*
X95203D01*
X95102Y14463D01*
X95203Y14565D01*
X95102D01*
X95000Y14666D01*
X94898Y14565D01*
X94797D01*
X94898Y14463D01*
X94797Y14361D01*
X94898D01*
X95000Y14260D01*
X97500Y9260D02*
X97602Y9361D01*
X97703D01*
X97602Y9463D01*
X97703Y9565D01*
X97602D01*
X97500Y9666D01*
X97398Y9565D01*
X97297D01*
X97398Y9463D01*
X97297Y9361D01*
X97398D01*
X97500Y9260D01*
X90000Y94260D02*
X90102Y94361D01*
X90203D01*
X90102Y94463D01*
X90203Y94565D01*
X90102D01*
X90000Y94666D01*
X89898Y94565D01*
X89797D01*
X89898Y94463D01*
X89797Y94361D01*
X89898D01*
X90000Y94260D01*
X92500Y89260D02*
X92602Y89361D01*
X92703D01*
X92602Y89463D01*
X92703Y89565D01*
X92602D01*
X92500Y89666D01*
X92398Y89565D01*
X92297D01*
X92398Y89463D01*
X92297Y89361D01*
X92398D01*
X92500Y89260D01*
Y79260D02*
X92602Y79361D01*
X92703D01*
X92602Y79463D01*
X92703Y79565D01*
X92602D01*
X92500Y79666D01*
X92398Y79565D01*
X92297D01*
X92398Y79463D01*
X92297Y79361D01*
X92398D01*
X92500Y79260D01*
X90000Y74260D02*
X90102Y74361D01*
X90203D01*
X90102Y74463D01*
X90203Y74565D01*
X90102D01*
X90000Y74666D01*
X89898Y74565D01*
X89797D01*
X89898Y74463D01*
X89797Y74361D01*
X89898D01*
X90000Y74260D01*
Y44260D02*
X90102Y44361D01*
X90203D01*
X90102Y44463D01*
X90203Y44565D01*
X90102D01*
X90000Y44666D01*
X89898Y44565D01*
X89797D01*
X89898Y44463D01*
X89797Y44361D01*
X89898D01*
X90000Y44260D01*
Y34260D02*
X90102Y34361D01*
X90203D01*
X90102Y34463D01*
X90203Y34565D01*
X90102D01*
X90000Y34666D01*
X89898Y34565D01*
X89797D01*
X89898Y34463D01*
X89797Y34361D01*
X89898D01*
X90000Y34260D01*
X92500Y29260D02*
X92602Y29361D01*
X92703D01*
X92602Y29463D01*
X92703Y29565D01*
X92602D01*
X92500Y29666D01*
X92398Y29565D01*
X92297D01*
X92398Y29463D01*
X92297Y29361D01*
X92398D01*
X92500Y29260D01*
X59175Y44310D02*
X59276Y44412D01*
X59378D01*
X59276Y44513D01*
X59378Y44615D01*
X59276D01*
X59175Y44717D01*
X59073Y44615D01*
X58971D01*
X59073Y44513D01*
X58971Y44412D01*
X59073D01*
X59175Y44310D01*
X31750Y29910D02*
X31852Y30011D01*
X31953D01*
X31852Y30113D01*
X31953Y30214D01*
X31852D01*
X31750Y30316D01*
X31649Y30214D01*
X31547D01*
X31649Y30113D01*
X31547Y30011D01*
X31649D01*
X31750Y29910D01*
X60075Y41960D02*
X60177Y42061D01*
X60278D01*
X60177Y42163D01*
X60278Y42265D01*
X60177D01*
X60075Y42366D01*
X59973Y42265D01*
X59872D01*
X59973Y42163D01*
X59872Y42061D01*
X59973D01*
X60075Y41960D01*
X91275Y80320D02*
X91377Y80421D01*
X91478D01*
X91377Y80523D01*
X91478Y80625D01*
X91377D01*
X91275Y80726D01*
X91173Y80625D01*
X91072D01*
X91173Y80523D01*
X91072Y80421D01*
X91173D01*
X91275Y80320D01*
X51455Y43024D02*
X51557Y43125D01*
X51659D01*
X51557Y43227D01*
X51659Y43329D01*
X51557D01*
X51455Y43430D01*
X51354Y43329D01*
X51252D01*
X51354Y43227D01*
X51252Y43125D01*
X51354D01*
X51455Y43024D01*
X51050Y41560D02*
X51152Y41661D01*
X51253D01*
X51152Y41763D01*
X51253Y41865D01*
X51152D01*
X51050Y41966D01*
X50948Y41865D01*
X50847D01*
X50948Y41763D01*
X50847Y41661D01*
X50948D01*
X51050Y41560D01*
X4325Y47085D02*
X4427Y47186D01*
X4528D01*
X4427Y47288D01*
X4528Y47390D01*
X4427D01*
X4325Y47491D01*
X4223Y47390D01*
X4122D01*
X4223Y47288D01*
X4122Y47186D01*
X4223D01*
X4325Y47085D01*
X49953Y47938D02*
X50054Y48040D01*
X50156D01*
X50054Y48142D01*
X50156Y48243D01*
X50054D01*
X49953Y48345D01*
X49851Y48243D01*
X49750D01*
X49851Y48142D01*
X49750Y48040D01*
X49851D01*
X49953Y47938D01*
X41850Y36060D02*
X41952Y36161D01*
X42053D01*
X41952Y36263D01*
X42053Y36365D01*
X41952D01*
X41850Y36466D01*
X41748Y36365D01*
X41647D01*
X41748Y36263D01*
X41647Y36161D01*
X41748D01*
X41850Y36060D01*
X95672Y18657D02*
X95774Y18758D01*
X95875D01*
X95774Y18860D01*
X95875Y18962D01*
X95774D01*
X95672Y19063D01*
X95570Y18962D01*
X95469D01*
X95570Y18860D01*
X95469Y18758D01*
X95570D01*
X95672Y18657D01*
X86100Y26310D02*
X86202Y26411D01*
X86303D01*
X86202Y26513D01*
X86303Y26615D01*
X86202D01*
X86100Y26716D01*
X85998Y26615D01*
X85897D01*
X85998Y26513D01*
X85897Y26411D01*
X85998D01*
X86100Y26310D01*
X51350Y47510D02*
X51452Y47611D01*
X51553D01*
X51452Y47713D01*
X51553Y47815D01*
X51452D01*
X51350Y47916D01*
X51248Y47815D01*
X51147D01*
X51248Y47713D01*
X51147Y47611D01*
X51248D01*
X51350Y47510D01*
X56025Y49026D02*
X56127Y49127D01*
X56228D01*
X56127Y49229D01*
X56228Y49331D01*
X56127D01*
X56025Y49432D01*
X55923Y49331D01*
X55822D01*
X55923Y49229D01*
X55822Y49127D01*
X55923D01*
X56025Y49026D01*
X19304Y34000D02*
X19405Y34101D01*
X19507D01*
X19405Y34203D01*
X19507Y34304D01*
X19405D01*
X19304Y34406D01*
X19202Y34304D01*
X19100D01*
X19202Y34203D01*
X19100Y34101D01*
X19202D01*
X19304Y34000D01*
X88075Y23760D02*
X88177Y23861D01*
X88278D01*
X88177Y23963D01*
X88278Y24065D01*
X88177D01*
X88075Y24166D01*
X87973Y24065D01*
X87872D01*
X87973Y23963D01*
X87872Y23861D01*
X87973D01*
X88075Y23760D01*
X46517Y68135D02*
X46619Y68236D01*
X46721D01*
X46619Y68338D01*
X46721Y68440D01*
X46619D01*
X46517Y68541D01*
X46416Y68440D01*
X46314D01*
X46416Y68338D01*
X46314Y68236D01*
X46416D01*
X46517Y68135D01*
X22075Y85010D02*
X22177Y85111D01*
X22278D01*
X22177Y85213D01*
X22278Y85315D01*
X22177D01*
X22075Y85416D01*
X21973Y85315D01*
X21872D01*
X21973Y85213D01*
X21872Y85111D01*
X21973D01*
X22075Y85010D01*
X87057Y39878D02*
X87158Y39979D01*
X87260D01*
X87158Y40081D01*
X87260Y40183D01*
X87158D01*
X87057Y40284D01*
X86955Y40183D01*
X86853D01*
X86955Y40081D01*
X86853Y39979D01*
X86955D01*
X87057Y39878D01*
X88001Y39708D02*
X88103Y39810D01*
X88205D01*
X88103Y39911D01*
X88205Y40013D01*
X88103D01*
X88001Y40114D01*
X87900Y40013D01*
X87798D01*
X87900Y39911D01*
X87798Y39810D01*
X87900D01*
X88001Y39708D01*
X27266Y42720D02*
X27367Y42822D01*
X27469D01*
X27367Y42923D01*
X27469Y43025D01*
X27367D01*
X27266Y43126D01*
X27164Y43025D01*
X27063D01*
X27164Y42923D01*
X27063Y42822D01*
X27164D01*
X27266Y42720D01*
X72150Y84760D02*
X72252Y84861D01*
X72353D01*
X72252Y84963D01*
X72353Y85065D01*
X72252D01*
X72150Y85166D01*
X72048Y85065D01*
X71947D01*
X72048Y84963D01*
X71947Y84861D01*
X72048D01*
X72150Y84760D01*
X50065Y51943D02*
X50167Y52044D01*
X50268D01*
X50167Y52146D01*
X50268Y52248D01*
X50167D01*
X50065Y52349D01*
X49964Y52248D01*
X49862D01*
X49964Y52146D01*
X49862Y52044D01*
X49964D01*
X50065Y51943D01*
X92925Y38110D02*
X93027Y38211D01*
X93128D01*
X93027Y38313D01*
X93128Y38415D01*
X93027D01*
X92925Y38516D01*
X92823Y38415D01*
X92722D01*
X92823Y38313D01*
X92722Y38211D01*
X92823D01*
X92925Y38110D01*
X32333Y33460D02*
X32435Y33561D01*
X32536D01*
X32435Y33663D01*
X32536Y33765D01*
X32435D01*
X32333Y33866D01*
X32231Y33765D01*
X32130D01*
X32231Y33663D01*
X32130Y33561D01*
X32231D01*
X32333Y33460D01*
X45462Y46873D02*
X45563Y46975D01*
X45665D01*
X45563Y47076D01*
X45665Y47178D01*
X45563D01*
X45462Y47280D01*
X45360Y47178D01*
X45258D01*
X45360Y47076D01*
X45258Y46975D01*
X45360D01*
X45462Y46873D01*
X45550Y84260D02*
X45652Y84361D01*
X45753D01*
X45652Y84463D01*
X45753Y84565D01*
X45652D01*
X45550Y84666D01*
X45448Y84565D01*
X45347D01*
X45448Y84463D01*
X45347Y84361D01*
X45448D01*
X45550Y84260D01*
X71350Y84760D02*
X71452Y84861D01*
X71553D01*
X71452Y84963D01*
X71553Y85065D01*
X71452D01*
X71350Y85166D01*
X71248Y85065D01*
X71147D01*
X71248Y84963D01*
X71147Y84861D01*
X71248D01*
X71350Y84760D01*
X92212Y21197D02*
X92314Y21298D01*
X92415D01*
X92314Y21400D01*
X92415Y21502D01*
X92314D01*
X92212Y21603D01*
X92110Y21502D01*
X92009D01*
X92110Y21400D01*
X92009Y21298D01*
X92110D01*
X92212Y21197D01*
X20725Y16060D02*
X20827Y16161D01*
X20928D01*
X20827Y16263D01*
X20928Y16365D01*
X20827D01*
X20725Y16466D01*
X20623Y16365D01*
X20522D01*
X20623Y16263D01*
X20522Y16161D01*
X20623D01*
X20725Y16060D01*
X52400Y55632D02*
X52502Y55733D01*
X52603D01*
X52502Y55835D01*
X52603Y55936D01*
X52502D01*
X52400Y56038D01*
X52298Y55936D01*
X52197D01*
X52298Y55835D01*
X52197Y55733D01*
X52298D01*
X52400Y55632D01*
X17746Y34584D02*
X17848Y34685D01*
X17949D01*
X17848Y34787D01*
X17949Y34888D01*
X17848D01*
X17746Y34990D01*
X17644Y34888D01*
X17543D01*
X17644Y34787D01*
X17543Y34685D01*
X17644D01*
X17746Y34584D01*
X49563Y31635D02*
X49665Y31736D01*
X49766D01*
X49665Y31838D01*
X49766Y31940D01*
X49665D01*
X49563Y32041D01*
X49461Y31940D01*
X49360D01*
X49461Y31838D01*
X49360Y31736D01*
X49461D01*
X49563Y31635D01*
X89238Y21197D02*
X89340Y21298D01*
X89441D01*
X89340Y21400D01*
X89441Y21502D01*
X89340D01*
X89238Y21603D01*
X89136Y21502D01*
X89035D01*
X89136Y21400D01*
X89035Y21298D01*
X89136D01*
X89238Y21197D01*
X35375Y47435D02*
X35477Y47536D01*
X35578D01*
X35477Y47638D01*
X35578Y47740D01*
X35477D01*
X35375Y47841D01*
X35273Y47740D01*
X35172D01*
X35273Y47638D01*
X35172Y47536D01*
X35273D01*
X35375Y47435D01*
X92828Y18657D02*
X92930Y18758D01*
X93031D01*
X92930Y18860D01*
X93031Y18962D01*
X92930D01*
X92828Y19063D01*
X92726Y18962D01*
X92625D01*
X92726Y18860D01*
X92625Y18758D01*
X92726D01*
X92828Y18657D01*
X27164Y21549D02*
X27266Y21651D01*
X27367D01*
X27266Y21752D01*
X27367Y21854D01*
X27266D01*
X27164Y21955D01*
X27063Y21854D01*
X26961D01*
X27063Y21752D01*
X26961Y21651D01*
X27063D01*
X27164Y21549D01*
X7500Y39260D02*
X7602Y39361D01*
X7703D01*
X7602Y39463D01*
X7703Y39565D01*
X7602D01*
X7500Y39666D01*
X7398Y39565D01*
X7297D01*
X7398Y39463D01*
X7297Y39361D01*
X7398D01*
X7500Y39260D01*
X37847Y80563D02*
X37948Y80665D01*
X38050D01*
X37948Y80766D01*
X38050Y80868D01*
X37948D01*
X37847Y80969D01*
X37745Y80868D01*
X37644D01*
X37745Y80766D01*
X37644Y80665D01*
X37745D01*
X37847Y80563D01*
X88075Y85585D02*
X88177Y85686D01*
X88278D01*
X88177Y85788D01*
X88278Y85890D01*
X88177D01*
X88075Y85991D01*
X87973Y85890D01*
X87872D01*
X87973Y85788D01*
X87872Y85686D01*
X87973D01*
X88075Y85585D01*
X93700Y85210D02*
X93802Y85311D01*
X93903D01*
X93802Y85413D01*
X93903Y85515D01*
X93802D01*
X93700Y85616D01*
X93598Y85515D01*
X93497D01*
X93598Y85413D01*
X93497Y85311D01*
X93598D01*
X93700Y85210D01*
X90325Y83285D02*
X90427Y83386D01*
X90528D01*
X90427Y83488D01*
X90528Y83590D01*
X90427D01*
X90325Y83691D01*
X90223Y83590D01*
X90122D01*
X90223Y83488D01*
X90122Y83386D01*
X90223D01*
X90325Y83285D01*
X10300Y80135D02*
X10402Y80236D01*
X10503D01*
X10402Y80338D01*
X10503Y80440D01*
X10402D01*
X10300Y80541D01*
X10199Y80440D01*
X10097D01*
X10199Y80338D01*
X10097Y80236D01*
X10199D01*
X10300Y80135D01*
X50609Y43845D02*
X50710Y43946D01*
X50812D01*
X50710Y44048D01*
X50812Y44150D01*
X50710D01*
X50609Y44251D01*
X50507Y44150D01*
X50406D01*
X50507Y44048D01*
X50406Y43946D01*
X50507D01*
X50609Y43845D01*
X21375Y84994D02*
X21477Y85096D01*
X21579D01*
X21477Y85198D01*
X21579Y85299D01*
X21477D01*
X21375Y85401D01*
X21274Y85299D01*
X21172D01*
X21274Y85198D01*
X21172Y85096D01*
X21274D01*
X21375Y84994D01*
X5349Y87335D02*
X5450Y87436D01*
X5552D01*
X5450Y87538D01*
X5552Y87640D01*
X5450D01*
X5349Y87741D01*
X5247Y87640D01*
X5145D01*
X5247Y87538D01*
X5145Y87436D01*
X5247D01*
X5349Y87335D01*
X90647Y88810D02*
X90748Y88911D01*
X90850D01*
X90748Y89013D01*
X90850Y89115D01*
X90748D01*
X90647Y89216D01*
X90545Y89115D01*
X90443D01*
X90545Y89013D01*
X90443Y88911D01*
X90545D01*
X90647Y88810D01*
X51884Y44300D02*
X51985Y44402D01*
X52087D01*
X51985Y44504D01*
X52087Y44605D01*
X51985D01*
X51884Y44707D01*
X51782Y44605D01*
X51680D01*
X51782Y44504D01*
X51680Y44402D01*
X51782D01*
X51884Y44300D01*
X59284Y41260D02*
X59386Y41361D01*
X59487D01*
X59386Y41463D01*
X59487Y41565D01*
X59386D01*
X59284Y41666D01*
X59182Y41565D01*
X59081D01*
X59182Y41463D01*
X59081Y41361D01*
X59182D01*
X59284Y41260D01*
X37850Y82060D02*
X37952Y82161D01*
X38053D01*
X37952Y82263D01*
X38053Y82365D01*
X37952D01*
X37850Y82466D01*
X37748Y82365D01*
X37647D01*
X37748Y82263D01*
X37647Y82161D01*
X37748D01*
X37850Y82060D01*
X51235Y45008D02*
X51336Y45110D01*
X51438D01*
X51336Y45211D01*
X51438Y45313D01*
X51336D01*
X51235Y45414D01*
X51133Y45313D01*
X51032D01*
X51133Y45211D01*
X51032Y45110D01*
X51133D01*
X51235Y45008D01*
X48700Y34760D02*
X48802Y34861D01*
X48903D01*
X48802Y34963D01*
X48903Y35065D01*
X48802D01*
X48700Y35166D01*
X48598Y35065D01*
X48497D01*
X48598Y34963D01*
X48497Y34861D01*
X48598D01*
X48700Y34760D01*
X5000Y54260D02*
X5102Y54361D01*
X5203D01*
X5102Y54463D01*
X5203Y54565D01*
X5102D01*
X5000Y54666D01*
X4898Y54565D01*
X4797D01*
X4898Y54463D01*
X4797Y54361D01*
X4898D01*
X5000Y54260D01*
X89175Y89410D02*
X89277Y89511D01*
X89378D01*
X89277Y89613D01*
X89378Y89715D01*
X89277D01*
X89175Y89816D01*
X89073Y89715D01*
X88972D01*
X89073Y89613D01*
X88972Y89511D01*
X89073D01*
X89175Y89410D01*
X70000Y74260D02*
X70102Y74361D01*
X70203D01*
X70102Y74463D01*
X70203Y74565D01*
X70102D01*
X70000Y74666D01*
X69898Y74565D01*
X69797D01*
X69898Y74463D01*
X69797Y74361D01*
X69898D01*
X70000Y74260D01*
Y64260D02*
X70102Y64361D01*
X70203D01*
X70102Y64463D01*
X70203Y64565D01*
X70102D01*
X70000Y64666D01*
X69898Y64565D01*
X69797D01*
X69898Y64463D01*
X69797Y64361D01*
X69898D01*
X70000Y64260D01*
X72500Y39260D02*
X72602Y39361D01*
X72703D01*
X72602Y39463D01*
X72703Y39565D01*
X72602D01*
X72500Y39666D01*
X72398Y39565D01*
X72297D01*
X72398Y39463D01*
X72297Y39361D01*
X72398D01*
X72500Y39260D01*
X70000Y34260D02*
X70102Y34361D01*
X70203D01*
X70102Y34463D01*
X70203Y34565D01*
X70102D01*
X70000Y34666D01*
X69898Y34565D01*
X69797D01*
X69898Y34463D01*
X69797Y34361D01*
X69898D01*
X70000Y34260D01*
X72500Y29260D02*
X72602Y29361D01*
X72703D01*
X72602Y29463D01*
X72703Y29565D01*
X72602D01*
X72500Y29666D01*
X72398Y29565D01*
X72297D01*
X72398Y29463D01*
X72297Y29361D01*
X72398D01*
X72500Y29260D01*
X70000Y24260D02*
X70102Y24361D01*
X70203D01*
X70102Y24463D01*
X70203Y24565D01*
X70102D01*
X70000Y24666D01*
X69898Y24565D01*
X69797D01*
X69898Y24463D01*
X69797Y24361D01*
X69898D01*
X70000Y24260D01*
X72500Y19260D02*
X72602Y19361D01*
X72703D01*
X72602Y19463D01*
X72703Y19565D01*
X72602D01*
X72500Y19666D01*
X72398Y19565D01*
X72297D01*
X72398Y19463D01*
X72297Y19361D01*
X72398D01*
X72500Y19260D01*
X70000Y14260D02*
X70102Y14361D01*
X70203D01*
X70102Y14463D01*
X70203Y14565D01*
X70102D01*
X70000Y14666D01*
X69898Y14565D01*
X69797D01*
X69898Y14463D01*
X69797Y14361D01*
X69898D01*
X70000Y14260D01*
X72500Y9260D02*
X72602Y9361D01*
X72703D01*
X72602Y9463D01*
X72703Y9565D01*
X72602D01*
X72500Y9666D01*
X72398Y9565D01*
X72297D01*
X72398Y9463D01*
X72297Y9361D01*
X72398D01*
X72500Y9260D01*
X70000Y4260D02*
X70102Y4361D01*
X70203D01*
X70102Y4463D01*
X70203Y4565D01*
X70102D01*
X70000Y4666D01*
X69898Y4565D01*
X69797D01*
X69898Y4463D01*
X69797Y4361D01*
X69898D01*
X70000Y4260D01*
X67500Y89260D02*
X67602Y89361D01*
X67703D01*
X67602Y89463D01*
X67703Y89565D01*
X67602D01*
X67500Y89666D01*
X67398Y89565D01*
X67297D01*
X67398Y89463D01*
X67297Y89361D01*
X67398D01*
X67500Y89260D01*
X65000Y84260D02*
X65102Y84361D01*
X65203D01*
X65102Y84463D01*
X65203Y84565D01*
X65102D01*
X65000Y84666D01*
X64898Y84565D01*
X64797D01*
X64898Y84463D01*
X64797Y84361D01*
X64898D01*
X65000Y84260D01*
Y74260D02*
X65102Y74361D01*
X65203D01*
X65102Y74463D01*
X65203Y74565D01*
X65102D01*
X65000Y74666D01*
X64898Y74565D01*
X64797D01*
X64898Y74463D01*
X64797Y74361D01*
X64898D01*
X65000Y74260D01*
Y64260D02*
X65102Y64361D01*
X65203D01*
X65102Y64463D01*
X65203Y64565D01*
X65102D01*
X65000Y64666D01*
X64898Y64565D01*
X64797D01*
X64898Y64463D01*
X64797Y64361D01*
X64898D01*
X65000Y64260D01*
X67500Y59260D02*
X67602Y59361D01*
X67703D01*
X67602Y59463D01*
X67703Y59565D01*
X67602D01*
X67500Y59666D01*
X67398Y59565D01*
X67297D01*
X67398Y59463D01*
X67297Y59361D01*
X67398D01*
X67500Y59260D01*
X65000Y34260D02*
X65102Y34361D01*
X65203D01*
X65102Y34463D01*
X65203Y34565D01*
X65102D01*
X65000Y34666D01*
X64898Y34565D01*
X64797D01*
X64898Y34463D01*
X64797Y34361D01*
X64898D01*
X65000Y34260D01*
X67500Y29260D02*
X67602Y29361D01*
X67703D01*
X67602Y29463D01*
X67703Y29565D01*
X67602D01*
X67500Y29666D01*
X67398Y29565D01*
X67297D01*
X67398Y29463D01*
X67297Y29361D01*
X67398D01*
X67500Y29260D01*
X65000Y24260D02*
X65102Y24361D01*
X65203D01*
X65102Y24463D01*
X65203Y24565D01*
X65102D01*
X65000Y24666D01*
X64898Y24565D01*
X64797D01*
X64898Y24463D01*
X64797Y24361D01*
X64898D01*
X65000Y24260D01*
X67500Y19260D02*
X67602Y19361D01*
X67703D01*
X67602Y19463D01*
X67703Y19565D01*
X67602D01*
X67500Y19666D01*
X67398Y19565D01*
X67297D01*
X67398Y19463D01*
X67297Y19361D01*
X67398D01*
X67500Y19260D01*
X65000Y14260D02*
X65102Y14361D01*
X65203D01*
X65102Y14463D01*
X65203Y14565D01*
X65102D01*
X65000Y14666D01*
X64898Y14565D01*
X64797D01*
X64898Y14463D01*
X64797Y14361D01*
X64898D01*
X65000Y14260D01*
X67500Y9260D02*
X67602Y9361D01*
X67703D01*
X67602Y9463D01*
X67703Y9565D01*
X67602D01*
X67500Y9666D01*
X67398Y9565D01*
X67297D01*
X67398Y9463D01*
X67297Y9361D01*
X67398D01*
X67500Y9260D01*
X65000Y4260D02*
X65102Y4361D01*
X65203D01*
X65102Y4463D01*
X65203Y4565D01*
X65102D01*
X65000Y4666D01*
X64898Y4565D01*
X64797D01*
X64898Y4463D01*
X64797Y4361D01*
X64898D01*
X65000Y4260D01*
X60000Y94260D02*
X60102Y94361D01*
X60203D01*
X60102Y94463D01*
X60203Y94565D01*
X60102D01*
X60000Y94666D01*
X59898Y94565D01*
X59797D01*
X59898Y94463D01*
X59797Y94361D01*
X59898D01*
X60000Y94260D01*
X62500Y89260D02*
X62602Y89361D01*
X62703D01*
X62602Y89463D01*
X62703Y89565D01*
X62602D01*
X62500Y89666D01*
X62398Y89565D01*
X62297D01*
X62398Y89463D01*
X62297Y89361D01*
X62398D01*
X62500Y89260D01*
Y79260D02*
X62602Y79361D01*
X62703D01*
X62602Y79463D01*
X62703Y79565D01*
X62602D01*
X62500Y79666D01*
X62398Y79565D01*
X62297D01*
X62398Y79463D01*
X62297Y79361D01*
X62398D01*
X62500Y79260D01*
Y69260D02*
X62602Y69361D01*
X62703D01*
X62602Y69463D01*
X62703Y69565D01*
X62602D01*
X62500Y69666D01*
X62398Y69565D01*
X62297D01*
X62398Y69463D01*
X62297Y69361D01*
X62398D01*
X62500Y69260D01*
Y59260D02*
X62602Y59361D01*
X62703D01*
X62602Y59463D01*
X62703Y59565D01*
X62602D01*
X62500Y59666D01*
X62398Y59565D01*
X62297D01*
X62398Y59463D01*
X62297Y59361D01*
X62398D01*
X62500Y59260D01*
X53075Y43560D02*
X53177Y43661D01*
X53278D01*
X53177Y43763D01*
X53278Y43865D01*
X53177D01*
X53075Y43966D01*
X52973Y43865D01*
X52872D01*
X52973Y43763D01*
X52872Y43661D01*
X52973D01*
X53075Y43560D01*
D170*
X5269Y22165D02*
G03*
X5269Y22165I-203J0D01*
G01*
Y16385D02*
G03*
X5269Y16385I-203J0D01*
G01*
X50770Y61711D02*
G03*
X50770Y61711I-203J0D01*
G01*
X53310D02*
G03*
X53310Y61711I-203J0D01*
G01*
X48230D02*
G03*
X48230Y61711I-203J0D01*
G01*
X53310Y60441D02*
G03*
X53310Y60441I-203J0D01*
G01*
X52040D02*
G03*
X52040Y60441I-203J0D01*
G01*
X49500D02*
G03*
X49500Y60441I-203J0D01*
G01*
Y61711D02*
G03*
X49500Y61711I-203J0D01*
G01*
D171*
X5167Y22165D02*
G03*
X5167Y22165I-102J0D01*
G01*
Y16385D02*
G03*
X5167Y16385I-102J0D01*
G01*
M02*
