G04*
G04 #@! TF.GenerationSoftware,Altium Limited,Altium Designer,23.0.1 (38)*
G04*
G04 Layer_Color=65535*
%FSLAX43Y43*%
%MOMM*%
G71*
G04*
G04 #@! TF.SameCoordinates,05D2ED34-A1BA-4F44-98ED-29CC40A3A522*
G04*
G04*
G04 #@! TF.FilePolarity,Positive*
G04*
G01*
G75*
%ADD10C,0.250*%
%ADD11C,0.600*%
%ADD12C,0.100*%
%ADD13C,0.200*%
%ADD14C,0.254*%
%ADD15C,0.150*%
G36*
X25675Y43656D02*
X24931Y44400D01*
X25675D01*
Y43656D01*
D02*
G37*
G36*
X38837Y40609D02*
X39644Y39801D01*
X38837D01*
Y40609D01*
D02*
G37*
G36*
X60613Y4514D02*
X60535D01*
Y4604D01*
X60613D01*
Y4514D01*
D02*
G37*
G36*
X60966Y4437D02*
X60976Y4436D01*
X60988Y4435D01*
X61001Y4432D01*
X61015Y4428D01*
X61028Y4422D01*
X61029Y4422D01*
X61033Y4420D01*
X61040Y4417D01*
X61047Y4412D01*
X61056Y4407D01*
X61065Y4399D01*
X61073Y4392D01*
X61080Y4383D01*
X61081Y4382D01*
X61083Y4378D01*
X61086Y4373D01*
X61090Y4367D01*
X61094Y4358D01*
X61098Y4349D01*
X61103Y4337D01*
X61105Y4325D01*
Y4324D01*
X61106Y4321D01*
X61107Y4315D01*
X61108Y4308D01*
Y4297D01*
X61109Y4284D01*
X61110Y4268D01*
Y4249D01*
Y3964D01*
X61031D01*
Y4245D01*
Y4246D01*
Y4247D01*
Y4253D01*
Y4262D01*
X61030Y4272D01*
X61029Y4284D01*
X61028Y4296D01*
X61025Y4307D01*
X61022Y4317D01*
Y4318D01*
X61020Y4321D01*
X61017Y4325D01*
X61015Y4331D01*
X61010Y4337D01*
X61005Y4343D01*
X60997Y4349D01*
X60989Y4355D01*
X60988Y4356D01*
X60985Y4358D01*
X60980Y4360D01*
X60973Y4362D01*
X60966Y4365D01*
X60956Y4368D01*
X60945Y4369D01*
X60934Y4370D01*
X60930D01*
X60926Y4369D01*
X60917Y4368D01*
X60905Y4366D01*
X60892Y4361D01*
X60877Y4356D01*
X60862Y4349D01*
X60848Y4337D01*
X60846Y4336D01*
X60843Y4331D01*
X60840Y4327D01*
X60837Y4323D01*
X60833Y4317D01*
X60831Y4311D01*
X60827Y4303D01*
X60823Y4294D01*
X60821Y4284D01*
X60818Y4273D01*
X60816Y4261D01*
X60814Y4248D01*
X60812Y4232D01*
Y4216D01*
Y3964D01*
X60734D01*
Y4428D01*
X60804D01*
Y4361D01*
X60805Y4362D01*
X60807Y4365D01*
X60809Y4369D01*
X60813Y4373D01*
X60819Y4379D01*
X60825Y4385D01*
X60833Y4393D01*
X60842Y4400D01*
X60851Y4407D01*
X60862Y4414D01*
X60874Y4421D01*
X60887Y4426D01*
X60902Y4431D01*
X60917Y4435D01*
X60933Y4437D01*
X60951Y4438D01*
X60958D01*
X60966Y4437D01*
D02*
G37*
G36*
X63752D02*
X63762Y4435D01*
X63774Y4432D01*
X63787Y4427D01*
X63802Y4421D01*
X63818Y4412D01*
X63789Y4340D01*
X63788Y4341D01*
X63785Y4343D01*
X63779Y4346D01*
X63772Y4349D01*
X63763Y4351D01*
X63753Y4354D01*
X63743Y4356D01*
X63733Y4357D01*
X63728D01*
X63724Y4356D01*
X63717Y4355D01*
X63711Y4353D01*
X63702Y4350D01*
X63694Y4347D01*
X63687Y4341D01*
X63686Y4340D01*
X63683Y4338D01*
X63680Y4335D01*
X63676Y4330D01*
X63671Y4324D01*
X63666Y4316D01*
X63662Y4308D01*
X63658Y4298D01*
X63657Y4296D01*
X63656Y4290D01*
X63654Y4282D01*
X63652Y4271D01*
X63649Y4257D01*
X63647Y4241D01*
X63646Y4225D01*
X63645Y4206D01*
Y3964D01*
X63566D01*
Y4428D01*
X63638D01*
Y4358D01*
X63639Y4359D01*
X63642Y4365D01*
X63647Y4373D01*
X63654Y4384D01*
X63662Y4394D01*
X63670Y4405D01*
X63678Y4414D01*
X63687Y4422D01*
X63688Y4422D01*
X63690Y4424D01*
X63696Y4427D01*
X63701Y4430D01*
X63709Y4433D01*
X63718Y4435D01*
X63727Y4437D01*
X63737Y4438D01*
X63744D01*
X63752Y4437D01*
D02*
G37*
G36*
X61994Y3964D02*
X61909D01*
Y4265D01*
X61578D01*
Y3964D01*
X61493D01*
Y4604D01*
X61578D01*
Y4341D01*
X61909D01*
Y4604D01*
X61994D01*
Y3964D01*
D02*
G37*
G36*
X59249Y4344D02*
X59529Y3964D01*
X59417D01*
X59190Y4287D01*
X59085Y4186D01*
Y3964D01*
X59000D01*
Y4604D01*
X59085D01*
Y4286D01*
X59401Y4604D01*
X59517D01*
X59249Y4344D01*
D02*
G37*
G36*
X60288Y3964D02*
X60213D01*
X60038Y4428D01*
X60122D01*
X60221Y4150D01*
Y4149D01*
X60222Y4148D01*
X60223Y4145D01*
X60224Y4142D01*
X60227Y4133D01*
X60231Y4121D01*
X60235Y4107D01*
X60241Y4091D01*
X60245Y4074D01*
X60251Y4056D01*
X60252Y4058D01*
X60253Y4063D01*
X60256Y4070D01*
X60258Y4081D01*
X60263Y4093D01*
X60268Y4109D01*
X60274Y4126D01*
X60281Y4144D01*
X60383Y4428D01*
X60465D01*
X60288Y3964D01*
D02*
G37*
G36*
X62826Y3957D02*
Y3956D01*
X62825Y3953D01*
X62823Y3949D01*
X62821Y3944D01*
X62818Y3938D01*
X62816Y3931D01*
X62809Y3915D01*
X62803Y3897D01*
X62795Y3880D01*
X62788Y3864D01*
X62784Y3858D01*
X62782Y3851D01*
X62781Y3849D01*
X62778Y3845D01*
X62773Y3838D01*
X62768Y3830D01*
X62760Y3821D01*
X62752Y3811D01*
X62744Y3802D01*
X62733Y3795D01*
X62733Y3794D01*
X62729Y3792D01*
X62723Y3789D01*
X62715Y3785D01*
X62706Y3782D01*
X62695Y3779D01*
X62683Y3777D01*
X62669Y3776D01*
X62665D01*
X62660Y3777D01*
X62654D01*
X62647Y3779D01*
X62638Y3781D01*
X62629Y3783D01*
X62619Y3786D01*
X62610Y3859D01*
X62611D01*
X62615Y3859D01*
X62620Y3858D01*
X62625Y3856D01*
X62640Y3853D01*
X62655Y3852D01*
X62659D01*
X62664Y3853D01*
X62670D01*
X62683Y3856D01*
X62690Y3859D01*
X62696Y3861D01*
X62697D01*
X62699Y3863D01*
X62702Y3865D01*
X62706Y3868D01*
X62714Y3875D01*
X62721Y3885D01*
Y3886D01*
X62723Y3888D01*
X62725Y3892D01*
X62727Y3897D01*
X62731Y3905D01*
X62734Y3916D01*
X62740Y3929D01*
X62745Y3944D01*
Y3945D01*
X62747Y3949D01*
X62749Y3956D01*
X62753Y3964D01*
X62577Y4428D01*
X62660D01*
X62757Y4159D01*
Y4158D01*
X62758Y4157D01*
X62759Y4154D01*
X62760Y4150D01*
X62762Y4145D01*
X62764Y4140D01*
X62769Y4127D01*
X62774Y4111D01*
X62780Y4092D01*
X62785Y4073D01*
X62791Y4052D01*
Y4053D01*
X62792Y4055D01*
X62793Y4057D01*
X62794Y4061D01*
X62794Y4066D01*
X62796Y4071D01*
X62800Y4085D01*
X62805Y4101D01*
X62811Y4119D01*
X62817Y4138D01*
X62824Y4157D01*
X62924Y4428D01*
X63002D01*
X62826Y3957D01*
D02*
G37*
G36*
X60613Y3964D02*
X60535D01*
Y4428D01*
X60613D01*
Y3964D01*
D02*
G37*
G36*
X63275Y4437D02*
X63283Y4436D01*
X63292Y4435D01*
X63302Y4433D01*
X63314Y4430D01*
X63325Y4427D01*
X63338Y4422D01*
X63350Y4418D01*
X63363Y4411D01*
X63376Y4404D01*
X63389Y4396D01*
X63401Y4385D01*
X63412Y4374D01*
X63413Y4373D01*
X63415Y4372D01*
X63418Y4368D01*
X63421Y4362D01*
X63426Y4356D01*
X63431Y4349D01*
X63436Y4339D01*
X63442Y4328D01*
X63447Y4316D01*
X63453Y4303D01*
X63457Y4288D01*
X63462Y4273D01*
X63466Y4255D01*
X63468Y4237D01*
X63470Y4217D01*
X63471Y4196D01*
Y4195D01*
Y4191D01*
Y4185D01*
X63470Y4176D01*
X63124D01*
Y4175D01*
Y4172D01*
X63125Y4168D01*
Y4163D01*
X63125Y4156D01*
X63127Y4149D01*
X63130Y4132D01*
X63136Y4114D01*
X63143Y4093D01*
X63153Y4075D01*
X63166Y4058D01*
X63167D01*
X63168Y4056D01*
X63174Y4052D01*
X63182Y4045D01*
X63193Y4039D01*
X63208Y4031D01*
X63224Y4025D01*
X63243Y4020D01*
X63253Y4019D01*
X63264Y4018D01*
X63272D01*
X63280Y4019D01*
X63290Y4021D01*
X63301Y4024D01*
X63314Y4028D01*
X63326Y4033D01*
X63338Y4041D01*
X63339Y4042D01*
X63344Y4045D01*
X63349Y4051D01*
X63356Y4058D01*
X63363Y4068D01*
X63371Y4081D01*
X63380Y4096D01*
X63387Y4114D01*
X63468Y4104D01*
Y4103D01*
X63468Y4101D01*
X63467Y4097D01*
X63465Y4091D01*
X63462Y4086D01*
X63459Y4079D01*
X63452Y4063D01*
X63443Y4045D01*
X63430Y4027D01*
X63415Y4009D01*
X63396Y3993D01*
X63395D01*
X63394Y3991D01*
X63391Y3989D01*
X63387Y3986D01*
X63382Y3983D01*
X63376Y3981D01*
X63369Y3977D01*
X63360Y3973D01*
X63351Y3969D01*
X63342Y3966D01*
X63319Y3960D01*
X63293Y3956D01*
X63264Y3954D01*
X63254D01*
X63247Y3955D01*
X63239Y3956D01*
X63229Y3957D01*
X63218Y3959D01*
X63206Y3961D01*
X63180Y3969D01*
X63166Y3974D01*
X63153Y3980D01*
X63139Y3987D01*
X63126Y3995D01*
X63114Y4005D01*
X63102Y4016D01*
X63101Y4017D01*
X63100Y4018D01*
X63097Y4022D01*
X63093Y4028D01*
X63088Y4034D01*
X63084Y4042D01*
X63078Y4051D01*
X63073Y4061D01*
X63067Y4073D01*
X63062Y4086D01*
X63057Y4101D01*
X63052Y4116D01*
X63049Y4133D01*
X63046Y4152D01*
X63044Y4171D01*
X63043Y4191D01*
Y4192D01*
Y4197D01*
Y4202D01*
X63044Y4211D01*
X63045Y4221D01*
X63046Y4232D01*
X63048Y4245D01*
X63051Y4258D01*
X63058Y4287D01*
X63063Y4302D01*
X63068Y4318D01*
X63076Y4333D01*
X63084Y4347D01*
X63093Y4361D01*
X63103Y4373D01*
X63104Y4374D01*
X63106Y4376D01*
X63110Y4379D01*
X63114Y4384D01*
X63120Y4388D01*
X63127Y4394D01*
X63136Y4400D01*
X63146Y4406D01*
X63156Y4412D01*
X63168Y4418D01*
X63181Y4423D01*
X63195Y4428D01*
X63210Y4433D01*
X63225Y4435D01*
X63242Y4437D01*
X63260Y4438D01*
X63269D01*
X63275Y4437D01*
D02*
G37*
G36*
X62330D02*
X62338Y4436D01*
X62347Y4435D01*
X62357Y4433D01*
X62369Y4430D01*
X62380Y4427D01*
X62393Y4422D01*
X62405Y4418D01*
X62418Y4411D01*
X62431Y4404D01*
X62444Y4396D01*
X62456Y4385D01*
X62467Y4374D01*
X62468Y4373D01*
X62470Y4372D01*
X62473Y4368D01*
X62476Y4362D01*
X62481Y4356D01*
X62486Y4349D01*
X62491Y4339D01*
X62497Y4328D01*
X62502Y4316D01*
X62508Y4303D01*
X62512Y4288D01*
X62517Y4273D01*
X62521Y4255D01*
X62524Y4237D01*
X62525Y4217D01*
X62526Y4196D01*
Y4195D01*
Y4191D01*
Y4185D01*
X62525Y4176D01*
X62179D01*
Y4175D01*
Y4172D01*
X62180Y4168D01*
Y4163D01*
X62181Y4156D01*
X62182Y4149D01*
X62185Y4132D01*
X62191Y4114D01*
X62198Y4093D01*
X62208Y4075D01*
X62221Y4058D01*
X62222D01*
X62223Y4056D01*
X62229Y4052D01*
X62237Y4045D01*
X62248Y4039D01*
X62263Y4031D01*
X62279Y4025D01*
X62298Y4020D01*
X62308Y4019D01*
X62319Y4018D01*
X62327D01*
X62335Y4019D01*
X62345Y4021D01*
X62356Y4024D01*
X62369Y4028D01*
X62381Y4033D01*
X62393Y4041D01*
X62394Y4042D01*
X62399Y4045D01*
X62404Y4051D01*
X62411Y4058D01*
X62418Y4068D01*
X62426Y4081D01*
X62435Y4096D01*
X62442Y4114D01*
X62524Y4104D01*
Y4103D01*
X62523Y4101D01*
X62522Y4097D01*
X62520Y4091D01*
X62517Y4086D01*
X62514Y4079D01*
X62507Y4063D01*
X62498Y4045D01*
X62485Y4027D01*
X62470Y4009D01*
X62451Y3993D01*
X62451D01*
X62449Y3991D01*
X62446Y3989D01*
X62442Y3986D01*
X62437Y3983D01*
X62431Y3981D01*
X62424Y3977D01*
X62415Y3973D01*
X62406Y3969D01*
X62397Y3966D01*
X62374Y3960D01*
X62348Y3956D01*
X62319Y3954D01*
X62309D01*
X62303Y3955D01*
X62294Y3956D01*
X62284Y3957D01*
X62273Y3959D01*
X62261Y3961D01*
X62235Y3969D01*
X62221Y3974D01*
X62208Y3980D01*
X62194Y3987D01*
X62181Y3995D01*
X62169Y4005D01*
X62157Y4016D01*
X62157Y4017D01*
X62155Y4018D01*
X62152Y4022D01*
X62148Y4028D01*
X62144Y4034D01*
X62139Y4042D01*
X62133Y4051D01*
X62128Y4061D01*
X62122Y4073D01*
X62117Y4086D01*
X62112Y4101D01*
X62107Y4116D01*
X62104Y4133D01*
X62101Y4152D01*
X62099Y4171D01*
X62098Y4191D01*
Y4192D01*
Y4197D01*
Y4202D01*
X62099Y4211D01*
X62100Y4221D01*
X62101Y4232D01*
X62103Y4245D01*
X62106Y4258D01*
X62113Y4287D01*
X62118Y4302D01*
X62123Y4318D01*
X62131Y4333D01*
X62139Y4347D01*
X62148Y4361D01*
X62158Y4373D01*
X62159Y4374D01*
X62161Y4376D01*
X62165Y4379D01*
X62169Y4384D01*
X62175Y4388D01*
X62182Y4394D01*
X62191Y4400D01*
X62201Y4406D01*
X62211Y4412D01*
X62223Y4418D01*
X62236Y4423D01*
X62250Y4428D01*
X62265Y4433D01*
X62280Y4435D01*
X62297Y4437D01*
X62315Y4438D01*
X62324D01*
X62330Y4437D01*
D02*
G37*
G36*
X59795D02*
X59803Y4436D01*
X59812Y4435D01*
X59822Y4433D01*
X59834Y4430D01*
X59845Y4427D01*
X59858Y4422D01*
X59870Y4418D01*
X59883Y4411D01*
X59896Y4404D01*
X59909Y4396D01*
X59921Y4385D01*
X59932Y4374D01*
X59933Y4373D01*
X59935Y4372D01*
X59938Y4368D01*
X59941Y4362D01*
X59946Y4356D01*
X59951Y4349D01*
X59956Y4339D01*
X59962Y4328D01*
X59967Y4316D01*
X59973Y4303D01*
X59977Y4288D01*
X59982Y4273D01*
X59986Y4255D01*
X59988Y4237D01*
X59990Y4217D01*
X59991Y4196D01*
Y4195D01*
Y4191D01*
Y4185D01*
X59990Y4176D01*
X59644D01*
Y4175D01*
Y4172D01*
X59644Y4168D01*
Y4163D01*
X59645Y4156D01*
X59647Y4149D01*
X59650Y4132D01*
X59656Y4114D01*
X59663Y4093D01*
X59673Y4075D01*
X59686Y4058D01*
X59687D01*
X59688Y4056D01*
X59693Y4052D01*
X59702Y4045D01*
X59713Y4039D01*
X59728Y4031D01*
X59744Y4025D01*
X59763Y4020D01*
X59773Y4019D01*
X59784Y4018D01*
X59791D01*
X59800Y4019D01*
X59810Y4021D01*
X59821Y4024D01*
X59834Y4028D01*
X59846Y4033D01*
X59858Y4041D01*
X59859Y4042D01*
X59864Y4045D01*
X59869Y4051D01*
X59876Y4058D01*
X59883Y4068D01*
X59891Y4081D01*
X59900Y4096D01*
X59907Y4114D01*
X59988Y4104D01*
Y4103D01*
X59987Y4101D01*
X59987Y4097D01*
X59985Y4091D01*
X59982Y4086D01*
X59979Y4079D01*
X59972Y4063D01*
X59963Y4045D01*
X59950Y4027D01*
X59935Y4009D01*
X59916Y3993D01*
X59915D01*
X59914Y3991D01*
X59911Y3989D01*
X59907Y3986D01*
X59902Y3983D01*
X59896Y3981D01*
X59889Y3977D01*
X59880Y3973D01*
X59871Y3969D01*
X59862Y3966D01*
X59839Y3960D01*
X59813Y3956D01*
X59784Y3954D01*
X59774D01*
X59767Y3955D01*
X59759Y3956D01*
X59749Y3957D01*
X59738Y3959D01*
X59726Y3961D01*
X59700Y3969D01*
X59686Y3974D01*
X59673Y3980D01*
X59659Y3987D01*
X59646Y3995D01*
X59634Y4005D01*
X59622Y4016D01*
X59621Y4017D01*
X59620Y4018D01*
X59617Y4022D01*
X59613Y4028D01*
X59608Y4034D01*
X59604Y4042D01*
X59598Y4051D01*
X59593Y4061D01*
X59587Y4073D01*
X59582Y4086D01*
X59577Y4101D01*
X59572Y4116D01*
X59569Y4133D01*
X59566Y4152D01*
X59564Y4171D01*
X59563Y4191D01*
Y4192D01*
Y4197D01*
Y4202D01*
X59564Y4211D01*
X59565Y4221D01*
X59566Y4232D01*
X59568Y4245D01*
X59571Y4258D01*
X59578Y4287D01*
X59583Y4302D01*
X59588Y4318D01*
X59595Y4333D01*
X59604Y4347D01*
X59613Y4361D01*
X59623Y4373D01*
X59624Y4374D01*
X59626Y4376D01*
X59630Y4379D01*
X59634Y4384D01*
X59640Y4388D01*
X59647Y4394D01*
X59656Y4400D01*
X59666Y4406D01*
X59676Y4412D01*
X59688Y4418D01*
X59701Y4423D01*
X59715Y4428D01*
X59730Y4433D01*
X59745Y4435D01*
X59762Y4437D01*
X59779Y4438D01*
X59789D01*
X59795Y4437D01*
D02*
G37*
G36*
X62017Y3647D02*
X62029Y3645D01*
X62044Y3643D01*
X62060Y3638D01*
X62077Y3633D01*
X62094Y3625D01*
X62095D01*
X62095Y3624D01*
X62101Y3621D01*
X62109Y3616D01*
X62119Y3609D01*
X62130Y3600D01*
X62141Y3590D01*
X62152Y3578D01*
X62161Y3564D01*
X62162Y3562D01*
X62165Y3558D01*
X62169Y3549D01*
X62173Y3539D01*
X62178Y3527D01*
X62181Y3513D01*
X62184Y3498D01*
X62185Y3482D01*
Y3480D01*
Y3474D01*
X62184Y3467D01*
X62182Y3457D01*
X62180Y3445D01*
X62175Y3432D01*
X62169Y3419D01*
X62162Y3406D01*
X62161Y3404D01*
X62158Y3400D01*
X62153Y3394D01*
X62145Y3387D01*
X62136Y3378D01*
X62125Y3369D01*
X62112Y3361D01*
X62096Y3352D01*
X62097D01*
X62099Y3351D01*
X62102Y3351D01*
X62106Y3350D01*
X62116Y3346D01*
X62129Y3340D01*
X62144Y3333D01*
X62158Y3324D01*
X62172Y3312D01*
X62185Y3298D01*
X62186Y3296D01*
X62190Y3290D01*
X62195Y3281D01*
X62201Y3269D01*
X62206Y3254D01*
X62212Y3237D01*
X62216Y3216D01*
X62217Y3194D01*
Y3193D01*
Y3191D01*
Y3186D01*
X62216Y3180D01*
X62215Y3173D01*
X62213Y3165D01*
X62211Y3155D01*
X62209Y3145D01*
X62202Y3123D01*
X62196Y3111D01*
X62191Y3100D01*
X62183Y3088D01*
X62175Y3076D01*
X62166Y3064D01*
X62155Y3053D01*
X62154Y3052D01*
X62152Y3050D01*
X62148Y3047D01*
X62144Y3044D01*
X62138Y3039D01*
X62131Y3034D01*
X62122Y3029D01*
X62112Y3024D01*
X62102Y3019D01*
X62090Y3013D01*
X62078Y3008D01*
X62064Y3004D01*
X62049Y3000D01*
X62034Y2997D01*
X62018Y2996D01*
X62000Y2995D01*
X61992D01*
X61986Y2996D01*
X61979Y2996D01*
X61971Y2997D01*
X61961Y2999D01*
X61951Y3001D01*
X61929Y3007D01*
X61906Y3016D01*
X61894Y3021D01*
X61883Y3028D01*
X61872Y3036D01*
X61861Y3045D01*
X61860Y3045D01*
X61858Y3047D01*
X61855Y3050D01*
X61852Y3054D01*
X61848Y3058D01*
X61843Y3065D01*
X61838Y3071D01*
X61832Y3080D01*
X61826Y3089D01*
X61821Y3098D01*
X61811Y3120D01*
X61802Y3146D01*
X61800Y3160D01*
X61798Y3175D01*
X61876Y3185D01*
Y3184D01*
X61877Y3182D01*
X61878Y3179D01*
X61879Y3174D01*
X61880Y3168D01*
X61882Y3162D01*
X61887Y3148D01*
X61893Y3131D01*
X61901Y3116D01*
X61911Y3101D01*
X61922Y3088D01*
X61924Y3087D01*
X61927Y3083D01*
X61935Y3079D01*
X61944Y3074D01*
X61955Y3069D01*
X61969Y3064D01*
X61985Y3060D01*
X62001Y3059D01*
X62007D01*
X62010Y3060D01*
X62021Y3061D01*
X62034Y3064D01*
X62048Y3069D01*
X62064Y3075D01*
X62080Y3084D01*
X62095Y3097D01*
X62096Y3099D01*
X62101Y3105D01*
X62107Y3113D01*
X62114Y3124D01*
X62121Y3138D01*
X62127Y3154D01*
X62132Y3172D01*
X62133Y3192D01*
Y3193D01*
Y3195D01*
Y3198D01*
X62132Y3202D01*
X62132Y3212D01*
X62129Y3224D01*
X62125Y3239D01*
X62119Y3253D01*
X62109Y3268D01*
X62097Y3282D01*
X62095Y3284D01*
X62091Y3288D01*
X62083Y3293D01*
X62073Y3300D01*
X62060Y3306D01*
X62045Y3312D01*
X62027Y3315D01*
X62008Y3317D01*
X61999D01*
X61993Y3316D01*
X61985Y3315D01*
X61975Y3314D01*
X61964Y3312D01*
X61952Y3309D01*
X61961Y3378D01*
X61966D01*
X61970Y3377D01*
X61982D01*
X61992Y3379D01*
X62004Y3381D01*
X62018Y3384D01*
X62034Y3388D01*
X62048Y3395D01*
X62064Y3403D01*
X62065D01*
X62066Y3404D01*
X62071Y3408D01*
X62077Y3414D01*
X62084Y3423D01*
X62092Y3435D01*
X62098Y3449D01*
X62103Y3464D01*
X62105Y3474D01*
Y3484D01*
Y3485D01*
Y3486D01*
Y3491D01*
X62103Y3498D01*
X62101Y3509D01*
X62097Y3520D01*
X62093Y3532D01*
X62085Y3544D01*
X62075Y3555D01*
X62074Y3556D01*
X62070Y3559D01*
X62063Y3564D01*
X62055Y3570D01*
X62044Y3574D01*
X62031Y3579D01*
X62016Y3583D01*
X61999Y3584D01*
X61992D01*
X61984Y3582D01*
X61973Y3580D01*
X61960Y3576D01*
X61948Y3572D01*
X61936Y3564D01*
X61924Y3555D01*
X61923Y3554D01*
X61919Y3549D01*
X61913Y3543D01*
X61907Y3534D01*
X61900Y3522D01*
X61894Y3507D01*
X61888Y3489D01*
X61885Y3469D01*
X61806Y3483D01*
Y3484D01*
X61807Y3486D01*
X61808Y3490D01*
X61809Y3496D01*
X61811Y3502D01*
X61813Y3510D01*
X61819Y3527D01*
X61828Y3547D01*
X61839Y3568D01*
X61853Y3587D01*
X61871Y3605D01*
X61872Y3606D01*
X61874Y3607D01*
X61876Y3609D01*
X61880Y3611D01*
X61885Y3615D01*
X61891Y3619D01*
X61898Y3622D01*
X61906Y3627D01*
X61924Y3634D01*
X61946Y3642D01*
X61971Y3646D01*
X61984Y3648D01*
X62007D01*
X62017Y3647D01*
D02*
G37*
G36*
X60724D02*
X60736Y3645D01*
X60751Y3643D01*
X60768Y3638D01*
X60784Y3633D01*
X60801Y3625D01*
X60802D01*
X60803Y3624D01*
X60808Y3621D01*
X60817Y3616D01*
X60826Y3609D01*
X60837Y3600D01*
X60848Y3590D01*
X60859Y3578D01*
X60869Y3564D01*
X60870Y3562D01*
X60872Y3558D01*
X60876Y3549D01*
X60881Y3539D01*
X60885Y3527D01*
X60889Y3513D01*
X60892Y3498D01*
X60893Y3482D01*
Y3480D01*
Y3474D01*
X60892Y3467D01*
X60890Y3457D01*
X60887Y3445D01*
X60882Y3432D01*
X60877Y3419D01*
X60870Y3406D01*
X60869Y3404D01*
X60866Y3400D01*
X60860Y3394D01*
X60853Y3387D01*
X60844Y3378D01*
X60833Y3369D01*
X60820Y3361D01*
X60804Y3352D01*
X60805D01*
X60807Y3351D01*
X60809Y3351D01*
X60813Y3350D01*
X60823Y3346D01*
X60836Y3340D01*
X60851Y3333D01*
X60866Y3324D01*
X60880Y3312D01*
X60893Y3298D01*
X60894Y3296D01*
X60897Y3290D01*
X60903Y3281D01*
X60908Y3269D01*
X60914Y3254D01*
X60919Y3237D01*
X60923Y3216D01*
X60924Y3194D01*
Y3193D01*
Y3191D01*
Y3186D01*
X60923Y3180D01*
X60922Y3173D01*
X60920Y3165D01*
X60919Y3155D01*
X60917Y3145D01*
X60909Y3123D01*
X60904Y3111D01*
X60898Y3100D01*
X60891Y3088D01*
X60882Y3076D01*
X60873Y3064D01*
X60862Y3053D01*
X60861Y3052D01*
X60859Y3050D01*
X60856Y3047D01*
X60851Y3044D01*
X60845Y3039D01*
X60838Y3034D01*
X60830Y3029D01*
X60820Y3024D01*
X60809Y3019D01*
X60797Y3013D01*
X60785Y3008D01*
X60772Y3004D01*
X60757Y3000D01*
X60741Y2997D01*
X60725Y2996D01*
X60708Y2995D01*
X60699D01*
X60694Y2996D01*
X60686Y2996D01*
X60678Y2997D01*
X60669Y2999D01*
X60659Y3001D01*
X60637Y3007D01*
X60613Y3016D01*
X60601Y3021D01*
X60590Y3028D01*
X60579Y3036D01*
X60568Y3045D01*
X60567Y3045D01*
X60565Y3047D01*
X60563Y3050D01*
X60560Y3054D01*
X60555Y3058D01*
X60551Y3065D01*
X60545Y3071D01*
X60539Y3080D01*
X60534Y3089D01*
X60528Y3098D01*
X60518Y3120D01*
X60510Y3146D01*
X60507Y3160D01*
X60505Y3175D01*
X60584Y3185D01*
Y3184D01*
X60585Y3182D01*
X60586Y3179D01*
X60587Y3174D01*
X60588Y3168D01*
X60589Y3162D01*
X60594Y3148D01*
X60600Y3131D01*
X60609Y3116D01*
X60618Y3101D01*
X60629Y3088D01*
X60631Y3087D01*
X60635Y3083D01*
X60642Y3079D01*
X60651Y3074D01*
X60662Y3069D01*
X60676Y3064D01*
X60692Y3060D01*
X60709Y3059D01*
X60714D01*
X60718Y3060D01*
X60728Y3061D01*
X60741Y3064D01*
X60756Y3069D01*
X60772Y3075D01*
X60787Y3084D01*
X60802Y3097D01*
X60804Y3099D01*
X60808Y3105D01*
X60814Y3113D01*
X60821Y3124D01*
X60829Y3138D01*
X60834Y3154D01*
X60839Y3172D01*
X60841Y3192D01*
Y3193D01*
Y3195D01*
Y3198D01*
X60840Y3202D01*
X60839Y3212D01*
X60836Y3224D01*
X60833Y3239D01*
X60826Y3253D01*
X60817Y3268D01*
X60805Y3282D01*
X60803Y3284D01*
X60798Y3288D01*
X60791Y3293D01*
X60781Y3300D01*
X60768Y3306D01*
X60752Y3312D01*
X60735Y3315D01*
X60715Y3317D01*
X60707D01*
X60700Y3316D01*
X60692Y3315D01*
X60683Y3314D01*
X60672Y3312D01*
X60660Y3309D01*
X60669Y3378D01*
X60674D01*
X60677Y3377D01*
X60689D01*
X60699Y3379D01*
X60711Y3381D01*
X60725Y3384D01*
X60741Y3388D01*
X60756Y3395D01*
X60772Y3403D01*
X60772D01*
X60773Y3404D01*
X60778Y3408D01*
X60784Y3414D01*
X60792Y3423D01*
X60799Y3435D01*
X60806Y3449D01*
X60810Y3464D01*
X60812Y3474D01*
Y3484D01*
Y3485D01*
Y3486D01*
Y3491D01*
X60810Y3498D01*
X60808Y3509D01*
X60805Y3520D01*
X60800Y3532D01*
X60793Y3544D01*
X60783Y3555D01*
X60782Y3556D01*
X60777Y3559D01*
X60771Y3564D01*
X60762Y3570D01*
X60751Y3574D01*
X60738Y3579D01*
X60723Y3583D01*
X60707Y3584D01*
X60699D01*
X60691Y3582D01*
X60680Y3580D01*
X60668Y3576D01*
X60656Y3572D01*
X60643Y3564D01*
X60631Y3555D01*
X60630Y3554D01*
X60626Y3549D01*
X60621Y3543D01*
X60614Y3534D01*
X60608Y3522D01*
X60601Y3507D01*
X60596Y3489D01*
X60592Y3469D01*
X60514Y3483D01*
Y3484D01*
X60514Y3486D01*
X60515Y3490D01*
X60516Y3496D01*
X60518Y3502D01*
X60521Y3510D01*
X60527Y3527D01*
X60536Y3547D01*
X60547Y3568D01*
X60561Y3587D01*
X60578Y3605D01*
X60579Y3606D01*
X60581Y3607D01*
X60584Y3609D01*
X60588Y3611D01*
X60592Y3615D01*
X60599Y3619D01*
X60605Y3622D01*
X60613Y3627D01*
X60632Y3634D01*
X60653Y3642D01*
X60678Y3646D01*
X60691Y3648D01*
X60714D01*
X60724Y3647D01*
D02*
G37*
G36*
X62528Y3198D02*
X62285D01*
Y3277D01*
X62528D01*
Y3198D01*
D02*
G37*
G36*
X61236D02*
X60992D01*
Y3277D01*
X61236D01*
Y3198D01*
D02*
G37*
G36*
X63317Y3647D02*
X63324Y3646D01*
X63333Y3645D01*
X63344Y3644D01*
X63354Y3642D01*
X63378Y3635D01*
X63402Y3626D01*
X63414Y3621D01*
X63426Y3614D01*
X63437Y3606D01*
X63447Y3596D01*
X63448Y3596D01*
X63450Y3595D01*
X63452Y3591D01*
X63456Y3587D01*
X63460Y3583D01*
X63465Y3576D01*
X63469Y3570D01*
X63475Y3561D01*
X63484Y3544D01*
X63493Y3522D01*
X63497Y3510D01*
X63499Y3498D01*
X63501Y3485D01*
X63502Y3471D01*
Y3469D01*
Y3464D01*
X63501Y3457D01*
X63500Y3447D01*
X63498Y3436D01*
X63494Y3423D01*
X63491Y3409D01*
X63485Y3395D01*
X63484Y3393D01*
X63482Y3388D01*
X63479Y3381D01*
X63473Y3371D01*
X63466Y3360D01*
X63456Y3346D01*
X63445Y3332D01*
X63432Y3316D01*
X63431Y3314D01*
X63426Y3309D01*
X63421Y3304D01*
X63417Y3300D01*
X63411Y3294D01*
X63404Y3287D01*
X63396Y3279D01*
X63387Y3271D01*
X63378Y3262D01*
X63367Y3252D01*
X63355Y3241D01*
X63342Y3229D01*
X63327Y3217D01*
X63312Y3204D01*
X63311Y3204D01*
X63309Y3202D01*
X63306Y3199D01*
X63301Y3195D01*
X63296Y3190D01*
X63289Y3184D01*
X63274Y3172D01*
X63259Y3158D01*
X63244Y3144D01*
X63231Y3132D01*
X63225Y3128D01*
X63221Y3123D01*
X63220Y3122D01*
X63217Y3119D01*
X63213Y3116D01*
X63209Y3110D01*
X63204Y3104D01*
X63198Y3097D01*
X63187Y3082D01*
X63503D01*
Y3006D01*
X63078D01*
Y3007D01*
Y3010D01*
Y3016D01*
X63079Y3023D01*
X63080Y3032D01*
X63082Y3041D01*
X63084Y3050D01*
X63088Y3060D01*
Y3061D01*
X63088Y3062D01*
X63090Y3068D01*
X63094Y3076D01*
X63100Y3087D01*
X63107Y3100D01*
X63116Y3115D01*
X63126Y3130D01*
X63139Y3145D01*
Y3146D01*
X63141Y3147D01*
X63146Y3153D01*
X63154Y3161D01*
X63166Y3173D01*
X63180Y3187D01*
X63198Y3204D01*
X63219Y3222D01*
X63242Y3241D01*
X63243Y3242D01*
X63247Y3245D01*
X63252Y3250D01*
X63259Y3255D01*
X63267Y3263D01*
X63277Y3271D01*
X63287Y3280D01*
X63299Y3290D01*
X63322Y3313D01*
X63345Y3335D01*
X63357Y3346D01*
X63367Y3357D01*
X63376Y3367D01*
X63383Y3377D01*
Y3378D01*
X63385Y3379D01*
X63387Y3382D01*
X63389Y3386D01*
X63395Y3396D01*
X63403Y3408D01*
X63409Y3423D01*
X63416Y3438D01*
X63419Y3456D01*
X63421Y3473D01*
Y3474D01*
Y3474D01*
X63420Y3480D01*
X63419Y3489D01*
X63417Y3499D01*
X63413Y3512D01*
X63407Y3525D01*
X63398Y3538D01*
X63387Y3551D01*
X63385Y3553D01*
X63381Y3557D01*
X63374Y3561D01*
X63364Y3568D01*
X63351Y3573D01*
X63336Y3579D01*
X63319Y3583D01*
X63299Y3584D01*
X63294D01*
X63290Y3583D01*
X63279Y3582D01*
X63266Y3579D01*
X63252Y3575D01*
X63236Y3569D01*
X63222Y3560D01*
X63208Y3549D01*
X63206Y3547D01*
X63202Y3543D01*
X63197Y3535D01*
X63191Y3524D01*
X63185Y3511D01*
X63179Y3495D01*
X63175Y3476D01*
X63174Y3455D01*
X63093Y3463D01*
Y3464D01*
X63094Y3467D01*
Y3472D01*
X63095Y3478D01*
X63097Y3486D01*
X63099Y3494D01*
X63101Y3504D01*
X63104Y3514D01*
X63112Y3536D01*
X63123Y3559D01*
X63129Y3570D01*
X63137Y3581D01*
X63146Y3591D01*
X63155Y3600D01*
X63156Y3601D01*
X63158Y3602D01*
X63161Y3605D01*
X63165Y3608D01*
X63171Y3611D01*
X63177Y3615D01*
X63185Y3620D01*
X63194Y3624D01*
X63204Y3629D01*
X63215Y3633D01*
X63227Y3637D01*
X63240Y3641D01*
X63254Y3644D01*
X63269Y3646D01*
X63284Y3647D01*
X63301Y3648D01*
X63310D01*
X63317Y3647D01*
D02*
G37*
G36*
X62888Y3006D02*
X62809D01*
Y3506D01*
X62808Y3505D01*
X62804Y3501D01*
X62798Y3496D01*
X62789Y3489D01*
X62779Y3481D01*
X62766Y3472D01*
X62751Y3461D01*
X62734Y3451D01*
X62733D01*
X62733Y3450D01*
X62727Y3447D01*
X62718Y3442D01*
X62707Y3437D01*
X62694Y3430D01*
X62680Y3424D01*
X62666Y3417D01*
X62652Y3412D01*
Y3487D01*
X62653D01*
X62655Y3489D01*
X62659Y3490D01*
X62663Y3493D01*
X62669Y3496D01*
X62675Y3499D01*
X62691Y3509D01*
X62709Y3519D01*
X62728Y3532D01*
X62747Y3547D01*
X62767Y3562D01*
X62768Y3563D01*
X62769Y3564D01*
X62771Y3567D01*
X62775Y3570D01*
X62783Y3579D01*
X62794Y3590D01*
X62806Y3603D01*
X62818Y3618D01*
X62828Y3633D01*
X62837Y3648D01*
X62888D01*
Y3006D01*
D02*
G37*
G36*
X60234Y3647D02*
X60242Y3646D01*
X60251Y3645D01*
X60261Y3644D01*
X60271Y3642D01*
X60295Y3635D01*
X60319Y3626D01*
X60331Y3621D01*
X60343Y3614D01*
X60355Y3606D01*
X60365Y3596D01*
X60366Y3596D01*
X60367Y3595D01*
X60369Y3591D01*
X60373Y3587D01*
X60378Y3583D01*
X60382Y3576D01*
X60387Y3570D01*
X60392Y3561D01*
X60402Y3544D01*
X60411Y3522D01*
X60415Y3510D01*
X60416Y3498D01*
X60418Y3485D01*
X60419Y3471D01*
Y3469D01*
Y3464D01*
X60418Y3457D01*
X60417Y3447D01*
X60416Y3436D01*
X60412Y3423D01*
X60408Y3409D01*
X60403Y3395D01*
X60402Y3393D01*
X60400Y3388D01*
X60396Y3381D01*
X60391Y3371D01*
X60383Y3360D01*
X60374Y3346D01*
X60363Y3332D01*
X60350Y3316D01*
X60348Y3314D01*
X60343Y3309D01*
X60339Y3304D01*
X60334Y3300D01*
X60329Y3294D01*
X60321Y3287D01*
X60314Y3279D01*
X60305Y3271D01*
X60295Y3262D01*
X60284Y3252D01*
X60272Y3241D01*
X60259Y3229D01*
X60245Y3217D01*
X60230Y3204D01*
X60229Y3204D01*
X60227Y3202D01*
X60223Y3199D01*
X60219Y3195D01*
X60213Y3190D01*
X60207Y3184D01*
X60192Y3172D01*
X60176Y3158D01*
X60161Y3144D01*
X60148Y3132D01*
X60143Y3128D01*
X60138Y3123D01*
X60137Y3122D01*
X60134Y3119D01*
X60131Y3116D01*
X60126Y3110D01*
X60122Y3104D01*
X60116Y3097D01*
X60105Y3082D01*
X60420D01*
Y3006D01*
X59996D01*
Y3007D01*
Y3010D01*
Y3016D01*
X59997Y3023D01*
X59998Y3032D01*
X60000Y3041D01*
X60001Y3050D01*
X60005Y3060D01*
Y3061D01*
X60006Y3062D01*
X60008Y3068D01*
X60012Y3076D01*
X60017Y3087D01*
X60024Y3100D01*
X60034Y3115D01*
X60044Y3130D01*
X60057Y3145D01*
Y3146D01*
X60059Y3147D01*
X60063Y3153D01*
X60072Y3161D01*
X60084Y3173D01*
X60098Y3187D01*
X60115Y3204D01*
X60136Y3222D01*
X60159Y3241D01*
X60160Y3242D01*
X60164Y3245D01*
X60170Y3250D01*
X60176Y3255D01*
X60184Y3263D01*
X60195Y3271D01*
X60205Y3280D01*
X60217Y3290D01*
X60240Y3313D01*
X60263Y3335D01*
X60274Y3346D01*
X60284Y3357D01*
X60294Y3367D01*
X60301Y3377D01*
Y3378D01*
X60303Y3379D01*
X60305Y3382D01*
X60306Y3386D01*
X60313Y3396D01*
X60320Y3408D01*
X60327Y3423D01*
X60333Y3438D01*
X60337Y3456D01*
X60339Y3473D01*
Y3474D01*
Y3474D01*
X60338Y3480D01*
X60337Y3489D01*
X60334Y3499D01*
X60331Y3512D01*
X60324Y3525D01*
X60316Y3538D01*
X60305Y3551D01*
X60303Y3553D01*
X60298Y3557D01*
X60292Y3561D01*
X60282Y3568D01*
X60269Y3573D01*
X60254Y3579D01*
X60236Y3583D01*
X60217Y3584D01*
X60211D01*
X60208Y3583D01*
X60196Y3582D01*
X60183Y3579D01*
X60170Y3575D01*
X60154Y3569D01*
X60139Y3560D01*
X60125Y3549D01*
X60123Y3547D01*
X60120Y3543D01*
X60114Y3535D01*
X60109Y3524D01*
X60102Y3511D01*
X60097Y3495D01*
X60093Y3476D01*
X60091Y3455D01*
X60011Y3463D01*
Y3464D01*
X60012Y3467D01*
Y3472D01*
X60012Y3478D01*
X60014Y3486D01*
X60016Y3494D01*
X60019Y3504D01*
X60022Y3514D01*
X60029Y3536D01*
X60040Y3559D01*
X60047Y3570D01*
X60055Y3581D01*
X60063Y3591D01*
X60073Y3600D01*
X60073Y3601D01*
X60075Y3602D01*
X60078Y3605D01*
X60083Y3608D01*
X60088Y3611D01*
X60095Y3615D01*
X60102Y3620D01*
X60111Y3624D01*
X60122Y3629D01*
X60133Y3633D01*
X60145Y3637D01*
X60158Y3641D01*
X60171Y3644D01*
X60186Y3646D01*
X60202Y3647D01*
X60219Y3648D01*
X60228D01*
X60234Y3647D01*
D02*
G37*
G36*
X59240D02*
X59247Y3646D01*
X59256Y3645D01*
X59266Y3644D01*
X59277Y3642D01*
X59301Y3635D01*
X59325Y3626D01*
X59337Y3621D01*
X59349Y3614D01*
X59360Y3606D01*
X59370Y3596D01*
X59371Y3596D01*
X59373Y3595D01*
X59375Y3591D01*
X59378Y3587D01*
X59383Y3583D01*
X59387Y3576D01*
X59392Y3570D01*
X59398Y3561D01*
X59407Y3544D01*
X59416Y3522D01*
X59420Y3510D01*
X59422Y3498D01*
X59424Y3485D01*
X59424Y3471D01*
Y3469D01*
Y3464D01*
X59424Y3457D01*
X59423Y3447D01*
X59421Y3436D01*
X59417Y3423D01*
X59413Y3409D01*
X59408Y3395D01*
X59407Y3393D01*
X59405Y3388D01*
X59401Y3381D01*
X59396Y3371D01*
X59388Y3360D01*
X59379Y3346D01*
X59368Y3332D01*
X59355Y3316D01*
X59353Y3314D01*
X59349Y3309D01*
X59344Y3304D01*
X59339Y3300D01*
X59334Y3294D01*
X59326Y3287D01*
X59319Y3279D01*
X59310Y3271D01*
X59301Y3262D01*
X59289Y3252D01*
X59277Y3241D01*
X59264Y3229D01*
X59250Y3217D01*
X59235Y3204D01*
X59234Y3204D01*
X59232Y3202D01*
X59228Y3199D01*
X59224Y3195D01*
X59218Y3190D01*
X59212Y3184D01*
X59197Y3172D01*
X59181Y3158D01*
X59166Y3144D01*
X59154Y3132D01*
X59148Y3128D01*
X59143Y3123D01*
X59142Y3122D01*
X59140Y3119D01*
X59136Y3116D01*
X59131Y3110D01*
X59127Y3104D01*
X59121Y3097D01*
X59110Y3082D01*
X59425D01*
Y3006D01*
X59001D01*
Y3007D01*
Y3010D01*
Y3016D01*
X59002Y3023D01*
X59003Y3032D01*
X59005Y3041D01*
X59007Y3050D01*
X59010Y3060D01*
Y3061D01*
X59011Y3062D01*
X59013Y3068D01*
X59017Y3076D01*
X59022Y3087D01*
X59030Y3100D01*
X59039Y3115D01*
X59049Y3130D01*
X59062Y3145D01*
Y3146D01*
X59064Y3147D01*
X59068Y3153D01*
X59077Y3161D01*
X59089Y3173D01*
X59103Y3187D01*
X59120Y3204D01*
X59142Y3222D01*
X59165Y3241D01*
X59166Y3242D01*
X59169Y3245D01*
X59175Y3250D01*
X59181Y3255D01*
X59190Y3263D01*
X59200Y3271D01*
X59210Y3280D01*
X59222Y3290D01*
X59245Y3313D01*
X59268Y3335D01*
X59279Y3346D01*
X59289Y3357D01*
X59299Y3367D01*
X59306Y3377D01*
Y3378D01*
X59308Y3379D01*
X59310Y3382D01*
X59312Y3386D01*
X59318Y3396D01*
X59326Y3408D01*
X59332Y3423D01*
X59338Y3438D01*
X59342Y3456D01*
X59344Y3473D01*
Y3474D01*
Y3474D01*
X59343Y3480D01*
X59342Y3489D01*
X59339Y3499D01*
X59336Y3512D01*
X59329Y3525D01*
X59321Y3538D01*
X59310Y3551D01*
X59308Y3553D01*
X59303Y3557D01*
X59297Y3561D01*
X59287Y3568D01*
X59274Y3573D01*
X59259Y3579D01*
X59241Y3583D01*
X59222Y3584D01*
X59216D01*
X59213Y3583D01*
X59202Y3582D01*
X59189Y3579D01*
X59175Y3575D01*
X59159Y3569D01*
X59144Y3560D01*
X59130Y3549D01*
X59129Y3547D01*
X59125Y3543D01*
X59119Y3535D01*
X59114Y3524D01*
X59107Y3511D01*
X59102Y3495D01*
X59098Y3476D01*
X59096Y3455D01*
X59016Y3463D01*
Y3464D01*
X59017Y3467D01*
Y3472D01*
X59018Y3478D01*
X59019Y3486D01*
X59021Y3494D01*
X59024Y3504D01*
X59027Y3514D01*
X59034Y3536D01*
X59045Y3559D01*
X59052Y3570D01*
X59060Y3581D01*
X59068Y3591D01*
X59078Y3600D01*
X59079Y3601D01*
X59080Y3602D01*
X59083Y3605D01*
X59088Y3608D01*
X59093Y3611D01*
X59100Y3615D01*
X59107Y3620D01*
X59117Y3624D01*
X59127Y3629D01*
X59138Y3633D01*
X59150Y3637D01*
X59163Y3641D01*
X59177Y3644D01*
X59191Y3646D01*
X59207Y3647D01*
X59224Y3648D01*
X59233D01*
X59240Y3647D01*
D02*
G37*
G36*
X61527D02*
X61539Y3645D01*
X61553Y3643D01*
X61568Y3639D01*
X61583Y3634D01*
X61598Y3627D01*
X61599D01*
X61600Y3626D01*
X61605Y3623D01*
X61612Y3619D01*
X61621Y3612D01*
X61631Y3603D01*
X61642Y3593D01*
X61653Y3581D01*
X61663Y3567D01*
X61664Y3565D01*
X61667Y3560D01*
X61671Y3552D01*
X61678Y3540D01*
X61683Y3526D01*
X61691Y3510D01*
X61697Y3492D01*
X61703Y3472D01*
Y3471D01*
X61703Y3469D01*
X61704Y3466D01*
X61705Y3461D01*
X61706Y3456D01*
X61707Y3449D01*
X61709Y3441D01*
X61710Y3432D01*
X61712Y3422D01*
X61713Y3411D01*
X61714Y3398D01*
X61715Y3385D01*
X61716Y3370D01*
Y3355D01*
X61717Y3339D01*
Y3321D01*
Y3320D01*
Y3316D01*
Y3310D01*
Y3302D01*
X61716Y3292D01*
Y3281D01*
X61715Y3269D01*
X61715Y3256D01*
X61712Y3227D01*
X61707Y3196D01*
X61702Y3167D01*
X61698Y3153D01*
X61693Y3139D01*
Y3138D01*
X61692Y3136D01*
X61691Y3132D01*
X61689Y3128D01*
X61687Y3121D01*
X61683Y3115D01*
X61676Y3099D01*
X61666Y3082D01*
X61654Y3064D01*
X61641Y3047D01*
X61624Y3032D01*
X61623D01*
X61622Y3030D01*
X61619Y3028D01*
X61616Y3026D01*
X61611Y3023D01*
X61606Y3020D01*
X61593Y3013D01*
X61576Y3007D01*
X61556Y3000D01*
X61533Y2996D01*
X61508Y2995D01*
X61499D01*
X61493Y2996D01*
X61485Y2996D01*
X61476Y2998D01*
X61466Y3000D01*
X61455Y3003D01*
X61444Y3007D01*
X61432Y3010D01*
X61420Y3016D01*
X61408Y3022D01*
X61396Y3030D01*
X61384Y3039D01*
X61372Y3049D01*
X61362Y3060D01*
X61361Y3061D01*
X61360Y3064D01*
X61357Y3069D01*
X61352Y3076D01*
X61348Y3084D01*
X61343Y3095D01*
X61336Y3108D01*
X61331Y3123D01*
X61325Y3140D01*
X61320Y3159D01*
X61314Y3180D01*
X61310Y3204D01*
X61305Y3230D01*
X61302Y3258D01*
X61300Y3289D01*
X61299Y3321D01*
Y3322D01*
Y3326D01*
Y3332D01*
Y3339D01*
X61300Y3350D01*
Y3361D01*
X61301Y3373D01*
X61302Y3387D01*
X61305Y3415D01*
X61310Y3446D01*
X61315Y3476D01*
X61319Y3490D01*
X61323Y3504D01*
Y3505D01*
X61323Y3507D01*
X61325Y3510D01*
X61327Y3515D01*
X61329Y3522D01*
X61333Y3528D01*
X61340Y3544D01*
X61349Y3560D01*
X61361Y3578D01*
X61375Y3596D01*
X61392Y3610D01*
X61393D01*
X61394Y3612D01*
X61397Y3614D01*
X61400Y3616D01*
X61405Y3620D01*
X61410Y3622D01*
X61424Y3630D01*
X61441Y3636D01*
X61460Y3643D01*
X61483Y3646D01*
X61508Y3648D01*
X61517D01*
X61527Y3647D01*
D02*
G37*
G36*
X59737D02*
X59749Y3645D01*
X59763Y3643D01*
X59778Y3639D01*
X59793Y3634D01*
X59808Y3627D01*
X59809D01*
X59810Y3626D01*
X59815Y3623D01*
X59822Y3619D01*
X59831Y3612D01*
X59841Y3603D01*
X59853Y3593D01*
X59863Y3581D01*
X59873Y3567D01*
X59874Y3565D01*
X59877Y3560D01*
X59881Y3552D01*
X59888Y3540D01*
X59893Y3526D01*
X59901Y3510D01*
X59907Y3492D01*
X59913Y3472D01*
Y3471D01*
X59914Y3469D01*
X59914Y3466D01*
X59915Y3461D01*
X59916Y3456D01*
X59917Y3449D01*
X59919Y3441D01*
X59920Y3432D01*
X59922Y3422D01*
X59923Y3411D01*
X59924Y3398D01*
X59926Y3385D01*
X59926Y3370D01*
Y3355D01*
X59927Y3339D01*
Y3321D01*
Y3320D01*
Y3316D01*
Y3310D01*
Y3302D01*
X59926Y3292D01*
Y3281D01*
X59926Y3269D01*
X59925Y3256D01*
X59922Y3227D01*
X59917Y3196D01*
X59912Y3167D01*
X59908Y3153D01*
X59903Y3139D01*
Y3138D01*
X59902Y3136D01*
X59901Y3132D01*
X59899Y3128D01*
X59897Y3121D01*
X59893Y3115D01*
X59886Y3099D01*
X59877Y3082D01*
X59865Y3064D01*
X59851Y3047D01*
X59834Y3032D01*
X59833D01*
X59832Y3030D01*
X59829Y3028D01*
X59826Y3026D01*
X59821Y3023D01*
X59816Y3020D01*
X59803Y3013D01*
X59786Y3007D01*
X59767Y3000D01*
X59743Y2996D01*
X59718Y2995D01*
X59709D01*
X59703Y2996D01*
X59695Y2996D01*
X59686Y2998D01*
X59676Y3000D01*
X59665Y3003D01*
X59654Y3007D01*
X59642Y3010D01*
X59630Y3016D01*
X59618Y3022D01*
X59606Y3030D01*
X59594Y3039D01*
X59583Y3049D01*
X59572Y3060D01*
X59571Y3061D01*
X59570Y3064D01*
X59567Y3069D01*
X59562Y3076D01*
X59558Y3084D01*
X59553Y3095D01*
X59546Y3108D01*
X59541Y3123D01*
X59535Y3140D01*
X59530Y3159D01*
X59524Y3180D01*
X59520Y3204D01*
X59515Y3230D01*
X59512Y3258D01*
X59510Y3289D01*
X59509Y3321D01*
Y3322D01*
Y3326D01*
Y3332D01*
Y3339D01*
X59510Y3350D01*
Y3361D01*
X59511Y3373D01*
X59512Y3387D01*
X59515Y3415D01*
X59520Y3446D01*
X59525Y3476D01*
X59529Y3490D01*
X59533Y3504D01*
Y3505D01*
X59534Y3507D01*
X59535Y3510D01*
X59537Y3515D01*
X59539Y3522D01*
X59543Y3528D01*
X59550Y3544D01*
X59559Y3560D01*
X59571Y3578D01*
X59585Y3596D01*
X59602Y3610D01*
X59603D01*
X59604Y3612D01*
X59607Y3614D01*
X59610Y3616D01*
X59615Y3620D01*
X59620Y3622D01*
X59634Y3630D01*
X59651Y3636D01*
X59670Y3643D01*
X59693Y3646D01*
X59718Y3648D01*
X59727D01*
X59737Y3647D01*
D02*
G37*
G36*
X61435Y2560D02*
X61675Y2224D01*
X61570D01*
X61409Y2452D01*
X61408Y2452D01*
X61406Y2455D01*
X61404Y2459D01*
X61400Y2464D01*
X61392Y2476D01*
X61383Y2490D01*
X61382Y2489D01*
X61379Y2486D01*
X61375Y2480D01*
X61371Y2473D01*
X61360Y2458D01*
X61356Y2452D01*
X61352Y2446D01*
X61190Y2224D01*
X61089D01*
X61335Y2555D01*
X61117Y2864D01*
X61218D01*
X61335Y2699D01*
Y2698D01*
X61336Y2697D01*
X61338Y2695D01*
X61341Y2691D01*
X61347Y2682D01*
X61355Y2671D01*
X61363Y2658D01*
X61372Y2645D01*
X61379Y2633D01*
X61385Y2622D01*
X61386Y2623D01*
X61389Y2627D01*
X61394Y2635D01*
X61400Y2644D01*
X61408Y2654D01*
X61417Y2667D01*
X61426Y2680D01*
X61437Y2694D01*
X61565Y2864D01*
X61657D01*
X61435Y2560D01*
D02*
G37*
G36*
X59336Y2224D02*
X59247D01*
X58999Y2864D01*
X59092D01*
X59258Y2399D01*
Y2398D01*
X59259Y2396D01*
X59260Y2393D01*
X59262Y2390D01*
X59263Y2384D01*
X59264Y2378D01*
X59269Y2365D01*
X59275Y2349D01*
X59280Y2331D01*
X59291Y2294D01*
Y2295D01*
X59292Y2297D01*
X59293Y2300D01*
X59294Y2304D01*
X59297Y2314D01*
X59301Y2328D01*
X59306Y2343D01*
X59312Y2361D01*
X59318Y2379D01*
X59326Y2399D01*
X59499Y2864D01*
X59585D01*
X59336Y2224D01*
D02*
G37*
G36*
X61007D02*
X60918D01*
Y2314D01*
X61007D01*
Y2224D01*
D02*
G37*
G36*
X60261D02*
X60171D01*
Y2314D01*
X60261D01*
Y2224D01*
D02*
G37*
G36*
X60603Y2866D02*
X60615Y2864D01*
X60629Y2861D01*
X60644Y2857D01*
X60660Y2853D01*
X60674Y2845D01*
X60675D01*
X60676Y2844D01*
X60681Y2842D01*
X60688Y2837D01*
X60698Y2831D01*
X60708Y2821D01*
X60719Y2811D01*
X60729Y2799D01*
X60739Y2785D01*
X60740Y2783D01*
X60744Y2779D01*
X60747Y2770D01*
X60754Y2758D01*
X60759Y2745D01*
X60767Y2729D01*
X60773Y2710D01*
X60779Y2690D01*
Y2689D01*
X60780Y2687D01*
X60781Y2684D01*
X60782Y2680D01*
X60783Y2674D01*
X60784Y2668D01*
X60785Y2660D01*
X60786Y2650D01*
X60788Y2640D01*
X60789Y2629D01*
X60790Y2616D01*
X60792Y2603D01*
X60793Y2588D01*
Y2574D01*
X60794Y2557D01*
Y2539D01*
Y2538D01*
Y2535D01*
Y2528D01*
Y2521D01*
X60793Y2511D01*
Y2500D01*
X60792Y2488D01*
X60791Y2475D01*
X60788Y2445D01*
X60784Y2415D01*
X60778Y2385D01*
X60774Y2371D01*
X60770Y2357D01*
Y2356D01*
X60769Y2354D01*
X60767Y2351D01*
X60765Y2346D01*
X60763Y2340D01*
X60759Y2333D01*
X60752Y2317D01*
X60743Y2301D01*
X60731Y2282D01*
X60717Y2266D01*
X60700Y2250D01*
X60699D01*
X60698Y2248D01*
X60696Y2246D01*
X60692Y2244D01*
X60687Y2242D01*
X60683Y2238D01*
X60669Y2231D01*
X60652Y2225D01*
X60633Y2219D01*
X60610Y2215D01*
X60585Y2213D01*
X60576D01*
X60569Y2214D01*
X60562Y2215D01*
X60552Y2217D01*
X60542Y2219D01*
X60531Y2221D01*
X60520Y2225D01*
X60508Y2229D01*
X60496Y2234D01*
X60484Y2241D01*
X60472Y2248D01*
X60460Y2257D01*
X60449Y2268D01*
X60439Y2279D01*
X60438Y2280D01*
X60436Y2282D01*
X60433Y2287D01*
X60429Y2294D01*
X60424Y2303D01*
X60419Y2314D01*
X60413Y2327D01*
X60407Y2341D01*
X60402Y2358D01*
X60396Y2378D01*
X60391Y2399D01*
X60386Y2423D01*
X60381Y2449D01*
X60379Y2476D01*
X60377Y2507D01*
X60376Y2539D01*
Y2540D01*
Y2544D01*
Y2550D01*
Y2558D01*
X60377Y2568D01*
Y2579D01*
X60378Y2591D01*
X60379Y2605D01*
X60381Y2634D01*
X60386Y2664D01*
X60392Y2695D01*
X60395Y2709D01*
X60399Y2722D01*
Y2723D01*
X60400Y2725D01*
X60402Y2729D01*
X60404Y2734D01*
X60405Y2740D01*
X60409Y2746D01*
X60416Y2762D01*
X60426Y2779D01*
X60438Y2796D01*
X60452Y2814D01*
X60468Y2829D01*
X60469D01*
X60470Y2831D01*
X60473Y2832D01*
X60477Y2834D01*
X60481Y2838D01*
X60487Y2841D01*
X60501Y2848D01*
X60517Y2855D01*
X60537Y2861D01*
X60560Y2865D01*
X60585Y2867D01*
X60593D01*
X60603Y2866D01*
D02*
G37*
G36*
X59857D02*
X59869Y2864D01*
X59883Y2861D01*
X59898Y2857D01*
X59914Y2853D01*
X59928Y2845D01*
X59929D01*
X59930Y2844D01*
X59935Y2842D01*
X59942Y2837D01*
X59951Y2831D01*
X59962Y2821D01*
X59973Y2811D01*
X59983Y2799D01*
X59993Y2785D01*
X59994Y2783D01*
X59998Y2779D01*
X60001Y2770D01*
X60008Y2758D01*
X60013Y2745D01*
X60021Y2729D01*
X60027Y2710D01*
X60033Y2690D01*
Y2689D01*
X60034Y2687D01*
X60035Y2684D01*
X60036Y2680D01*
X60036Y2674D01*
X60037Y2668D01*
X60039Y2660D01*
X60040Y2650D01*
X60042Y2640D01*
X60043Y2629D01*
X60044Y2616D01*
X60046Y2603D01*
X60047Y2588D01*
Y2574D01*
X60048Y2557D01*
Y2539D01*
Y2538D01*
Y2535D01*
Y2528D01*
Y2521D01*
X60047Y2511D01*
Y2500D01*
X60046Y2488D01*
X60045Y2475D01*
X60042Y2445D01*
X60037Y2415D01*
X60032Y2385D01*
X60028Y2371D01*
X60024Y2357D01*
Y2356D01*
X60023Y2354D01*
X60021Y2351D01*
X60019Y2346D01*
X60017Y2340D01*
X60013Y2333D01*
X60006Y2317D01*
X59997Y2301D01*
X59985Y2282D01*
X59971Y2266D01*
X59954Y2250D01*
X59953D01*
X59952Y2248D01*
X59950Y2246D01*
X59946Y2244D01*
X59941Y2242D01*
X59937Y2238D01*
X59923Y2231D01*
X59906Y2225D01*
X59887Y2219D01*
X59864Y2215D01*
X59839Y2213D01*
X59829D01*
X59823Y2214D01*
X59816Y2215D01*
X59806Y2217D01*
X59796Y2219D01*
X59785Y2221D01*
X59774Y2225D01*
X59762Y2229D01*
X59750Y2234D01*
X59738Y2241D01*
X59726Y2248D01*
X59714Y2257D01*
X59703Y2268D01*
X59693Y2279D01*
X59692Y2280D01*
X59690Y2282D01*
X59687Y2287D01*
X59682Y2294D01*
X59678Y2303D01*
X59673Y2314D01*
X59667Y2327D01*
X59661Y2341D01*
X59656Y2358D01*
X59650Y2378D01*
X59644Y2399D01*
X59640Y2423D01*
X59635Y2449D01*
X59632Y2476D01*
X59631Y2507D01*
X59630Y2539D01*
Y2540D01*
Y2544D01*
Y2550D01*
Y2558D01*
X59631Y2568D01*
Y2579D01*
X59632Y2591D01*
X59632Y2605D01*
X59635Y2634D01*
X59640Y2664D01*
X59645Y2695D01*
X59649Y2709D01*
X59653Y2722D01*
Y2723D01*
X59654Y2725D01*
X59656Y2729D01*
X59657Y2734D01*
X59659Y2740D01*
X59663Y2746D01*
X59670Y2762D01*
X59680Y2779D01*
X59692Y2796D01*
X59706Y2814D01*
X59722Y2829D01*
X59723D01*
X59724Y2831D01*
X59727Y2832D01*
X59730Y2834D01*
X59735Y2838D01*
X59741Y2841D01*
X59755Y2848D01*
X59771Y2855D01*
X59791Y2861D01*
X59814Y2865D01*
X59839Y2867D01*
X59847D01*
X59857Y2866D01*
D02*
G37*
G36*
X82967Y84903D02*
X76259D01*
Y86874D01*
X82967D01*
Y84903D01*
D02*
G37*
G36*
X58785Y84893D02*
X52358D01*
Y86864D01*
X58785D01*
Y84893D01*
D02*
G37*
G36*
X34634Y84883D02*
X26272D01*
Y86854D01*
X34634D01*
Y84883D01*
D02*
G37*
G36*
X12185Y80187D02*
X10214D01*
Y88544D01*
X12185D01*
Y80187D01*
D02*
G37*
G36*
X94126Y15361D02*
X88995D01*
Y17332D01*
X94126D01*
Y15361D01*
D02*
G37*
G36*
X94309Y39689D02*
X89020D01*
Y41660D01*
X94309D01*
Y39689D01*
D02*
G37*
G36*
X94498Y53877D02*
X88247D01*
Y55486D01*
X94498D01*
Y53877D01*
D02*
G37*
G36*
X94500Y64152D02*
X88247D01*
Y65761D01*
X94500D01*
Y64152D01*
D02*
G37*
G36*
X94509Y74452D02*
X88447D01*
Y76061D01*
X94509D01*
Y74452D01*
D02*
G37*
G36*
X61701Y6274D02*
X61714D01*
X61749Y6270D01*
X61788Y6265D01*
X61828Y6255D01*
X61873Y6244D01*
X61914Y6229D01*
X61916D01*
X61919Y6228D01*
X61925Y6224D01*
X61932Y6220D01*
X61951Y6211D01*
X61975Y6194D01*
X62003Y6176D01*
X62030Y6152D01*
X62056Y6124D01*
X62080Y6092D01*
Y6091D01*
X62082Y6089D01*
X62086Y6083D01*
X62090Y6078D01*
X62099Y6059D01*
X62110Y6035D01*
X62123Y6005D01*
X62132Y5970D01*
X62141Y5933D01*
X62145Y5892D01*
X61982Y5880D01*
Y5881D01*
Y5885D01*
X61980Y5891D01*
X61978Y5900D01*
X61973Y5920D01*
X61965Y5948D01*
X61954Y5978D01*
X61938Y6007D01*
X61917Y6035D01*
X61891Y6061D01*
X61888Y6063D01*
X61878Y6070D01*
X61860Y6081D01*
X61836Y6092D01*
X61804Y6104D01*
X61767Y6115D01*
X61721Y6122D01*
X61669Y6124D01*
X61643D01*
X61632Y6122D01*
X61617Y6120D01*
X61584Y6117D01*
X61547Y6109D01*
X61510Y6100D01*
X61475Y6085D01*
X61460Y6076D01*
X61445Y6067D01*
X61441Y6065D01*
X61434Y6057D01*
X61423Y6044D01*
X61412Y6030D01*
X61399Y6009D01*
X61388Y5987D01*
X61380Y5961D01*
X61377Y5931D01*
Y5928D01*
Y5920D01*
X61379Y5907D01*
X61382Y5892D01*
X61388Y5874D01*
X61397Y5855D01*
X61408Y5837D01*
X61425Y5818D01*
X61427Y5817D01*
X61436Y5811D01*
X61443Y5805D01*
X61451Y5802D01*
X61462Y5796D01*
X61475Y5789D01*
X61491Y5783D01*
X61510Y5776D01*
X61530Y5768D01*
X61554Y5759D01*
X61580Y5752D01*
X61610Y5742D01*
X61643Y5735D01*
X61680Y5726D01*
X61682D01*
X61690Y5724D01*
X61701Y5722D01*
X61714Y5718D01*
X61730Y5715D01*
X61751Y5709D01*
X61771Y5704D01*
X61793Y5698D01*
X61841Y5685D01*
X61888Y5672D01*
X61910Y5665D01*
X61930Y5657D01*
X61949Y5652D01*
X61964Y5644D01*
X61965D01*
X61969Y5643D01*
X61975Y5639D01*
X61982Y5635D01*
X62003Y5624D01*
X62027Y5609D01*
X62054Y5589D01*
X62082Y5567D01*
X62108Y5541D01*
X62130Y5513D01*
X62132Y5509D01*
X62140Y5500D01*
X62147Y5483D01*
X62158Y5461D01*
X62167Y5435D01*
X62177Y5404D01*
X62182Y5368D01*
X62184Y5331D01*
Y5330D01*
Y5328D01*
Y5322D01*
Y5315D01*
X62180Y5294D01*
X62177Y5268D01*
X62169Y5239D01*
X62160Y5207D01*
X62145Y5174D01*
X62125Y5139D01*
Y5137D01*
X62123Y5135D01*
X62114Y5124D01*
X62101Y5107D01*
X62082Y5089D01*
X62058Y5067D01*
X62028Y5043D01*
X61995Y5020D01*
X61956Y5000D01*
X61954D01*
X61951Y4998D01*
X61945Y4996D01*
X61938Y4993D01*
X61927Y4989D01*
X61914Y4983D01*
X61884Y4976D01*
X61849Y4967D01*
X61806Y4957D01*
X61760Y4952D01*
X61710Y4950D01*
X61680D01*
X61666Y4952D01*
X61649D01*
X61630Y4954D01*
X61608Y4956D01*
X61562Y4963D01*
X61514Y4970D01*
X61466Y4983D01*
X61419Y5000D01*
X61417D01*
X61414Y5002D01*
X61408Y5006D01*
X61401Y5009D01*
X61379Y5020D01*
X61353Y5037D01*
X61323Y5059D01*
X61291Y5085D01*
X61262Y5117D01*
X61234Y5152D01*
Y5154D01*
X61230Y5157D01*
X61229Y5163D01*
X61223Y5170D01*
X61219Y5180D01*
X61214Y5191D01*
X61201Y5218D01*
X61188Y5254D01*
X61177Y5293D01*
X61169Y5337D01*
X61166Y5383D01*
X61325Y5398D01*
Y5396D01*
Y5394D01*
X61327Y5389D01*
Y5381D01*
X61330Y5365D01*
X61336Y5341D01*
X61343Y5317D01*
X61351Y5289D01*
X61364Y5263D01*
X61377Y5239D01*
X61379Y5237D01*
X61384Y5230D01*
X61393Y5217D01*
X61408Y5204D01*
X61427Y5187D01*
X61447Y5170D01*
X61475Y5154D01*
X61504Y5139D01*
X61506D01*
X61508Y5137D01*
X61514Y5135D01*
X61519Y5133D01*
X61538Y5128D01*
X61562Y5120D01*
X61591Y5113D01*
X61625Y5107D01*
X61662Y5104D01*
X61703Y5102D01*
X61719D01*
X61738Y5104D01*
X61760Y5106D01*
X61786Y5109D01*
X61816Y5113D01*
X61845Y5120D01*
X61873Y5130D01*
X61877Y5131D01*
X61886Y5135D01*
X61899Y5143D01*
X61916Y5150D01*
X61932Y5163D01*
X61951Y5176D01*
X61969Y5191D01*
X61984Y5209D01*
X61986Y5211D01*
X61990Y5218D01*
X61995Y5228D01*
X62003Y5243D01*
X62010Y5257D01*
X62015Y5276D01*
X62019Y5296D01*
X62021Y5318D01*
Y5320D01*
Y5330D01*
X62019Y5341D01*
X62017Y5356D01*
X62012Y5370D01*
X62006Y5389D01*
X61997Y5407D01*
X61984Y5424D01*
X61982Y5426D01*
X61977Y5431D01*
X61969Y5439D01*
X61956Y5450D01*
X61941Y5461D01*
X61921Y5474D01*
X61897Y5487D01*
X61869Y5498D01*
X61867Y5500D01*
X61858Y5502D01*
X61843Y5507D01*
X61834Y5509D01*
X61821Y5513D01*
X61808Y5518D01*
X61791Y5522D01*
X61773Y5528D01*
X61751Y5533D01*
X61728Y5539D01*
X61703Y5546D01*
X61673Y5554D01*
X61641Y5561D01*
X61640D01*
X61634Y5563D01*
X61625Y5565D01*
X61614Y5568D01*
X61599Y5572D01*
X61582Y5576D01*
X61545Y5587D01*
X61504Y5600D01*
X61462Y5613D01*
X61425Y5626D01*
X61408Y5633D01*
X61393Y5641D01*
X61391D01*
X61390Y5643D01*
X61379Y5650D01*
X61362Y5659D01*
X61343Y5674D01*
X61321Y5691D01*
X61299Y5711D01*
X61277Y5735D01*
X61258Y5761D01*
X61256Y5765D01*
X61251Y5774D01*
X61243Y5789D01*
X61236Y5807D01*
X61229Y5831D01*
X61221Y5859D01*
X61216Y5889D01*
X61214Y5920D01*
Y5922D01*
Y5924D01*
Y5930D01*
Y5937D01*
X61217Y5955D01*
X61221Y5980D01*
X61227Y6007D01*
X61236Y6039D01*
X61249Y6070D01*
X61267Y6102D01*
Y6104D01*
X61269Y6105D01*
X61279Y6117D01*
X61291Y6131D01*
X61308Y6150D01*
X61330Y6170D01*
X61358Y6192D01*
X61391Y6213D01*
X61429Y6231D01*
X61430D01*
X61434Y6233D01*
X61440Y6235D01*
X61447Y6239D01*
X61456Y6242D01*
X61469Y6246D01*
X61497Y6254D01*
X61532Y6261D01*
X61573Y6268D01*
X61616Y6274D01*
X61664Y6276D01*
X61688D01*
X61701Y6274D01*
D02*
G37*
G36*
X73648D02*
X73664Y6272D01*
X73685Y6270D01*
X73705Y6268D01*
X73729Y6263D01*
X73779Y6252D01*
X73835Y6235D01*
X73862Y6224D01*
X73888Y6211D01*
X73914Y6194D01*
X73940Y6178D01*
X73942Y6176D01*
X73946Y6174D01*
X73953Y6168D01*
X73962Y6159D01*
X73972Y6150D01*
X73985Y6137D01*
X73998Y6122D01*
X74012Y6107D01*
X74027Y6089D01*
X74042Y6067D01*
X74059Y6044D01*
X74074Y6020D01*
X74086Y5992D01*
X74101Y5965D01*
X74112Y5935D01*
X74123Y5902D01*
X73957Y5863D01*
Y5865D01*
X73955Y5868D01*
X73951Y5876D01*
X73948Y5885D01*
X73944Y5896D01*
X73938Y5911D01*
X73924Y5941D01*
X73905Y5974D01*
X73883Y6007D01*
X73855Y6039D01*
X73825Y6067D01*
X73822Y6070D01*
X73811Y6078D01*
X73792Y6087D01*
X73768Y6100D01*
X73737Y6111D01*
X73701Y6122D01*
X73659Y6129D01*
X73612Y6131D01*
X73598D01*
X73588Y6129D01*
X73575D01*
X73561Y6128D01*
X73525Y6122D01*
X73487Y6115D01*
X73446Y6102D01*
X73403Y6083D01*
X73364Y6059D01*
X73362D01*
X73361Y6055D01*
X73348Y6046D01*
X73331Y6031D01*
X73311Y6009D01*
X73287Y5981D01*
X73264Y5950D01*
X73244Y5911D01*
X73225Y5868D01*
Y5867D01*
X73224Y5863D01*
X73222Y5857D01*
X73220Y5848D01*
X73216Y5837D01*
X73212Y5824D01*
X73207Y5793D01*
X73200Y5755D01*
X73192Y5715D01*
X73188Y5670D01*
X73187Y5622D01*
Y5620D01*
Y5615D01*
Y5605D01*
Y5594D01*
X73188Y5581D01*
Y5565D01*
X73190Y5546D01*
X73192Y5526D01*
X73198Y5481D01*
X73207Y5433D01*
X73218Y5385D01*
X73233Y5337D01*
Y5335D01*
X73235Y5331D01*
X73238Y5326D01*
X73242Y5317D01*
X73253Y5294D01*
X73270Y5268D01*
X73290Y5239D01*
X73316Y5207D01*
X73346Y5180D01*
X73381Y5154D01*
X73383D01*
X73387Y5152D01*
X73392Y5148D01*
X73399Y5144D01*
X73409Y5141D01*
X73420Y5135D01*
X73446Y5124D01*
X73479Y5113D01*
X73516Y5104D01*
X73557Y5096D01*
X73599Y5094D01*
X73612D01*
X73624Y5096D01*
X73637D01*
X73649Y5098D01*
X73683Y5106D01*
X73722Y5115D01*
X73761Y5130D01*
X73801Y5150D01*
X73822Y5161D01*
X73840Y5176D01*
X73842Y5178D01*
X73844Y5180D01*
X73849Y5185D01*
X73857Y5191D01*
X73864Y5200D01*
X73874Y5211D01*
X73885Y5222D01*
X73894Y5237D01*
X73905Y5254D01*
X73918Y5272D01*
X73929Y5291D01*
X73940Y5313D01*
X73949Y5337D01*
X73959Y5363D01*
X73968Y5391D01*
X73975Y5420D01*
X74146Y5378D01*
Y5376D01*
X74144Y5368D01*
X74140Y5357D01*
X74135Y5343D01*
X74129Y5326D01*
X74122Y5306D01*
X74112Y5283D01*
X74101Y5259D01*
X74075Y5207D01*
X74042Y5156D01*
X74022Y5130D01*
X74001Y5104D01*
X73979Y5081D01*
X73953Y5059D01*
X73951Y5057D01*
X73948Y5054D01*
X73938Y5050D01*
X73929Y5043D01*
X73914Y5033D01*
X73899Y5024D01*
X73879Y5015D01*
X73859Y5006D01*
X73835Y4994D01*
X73809Y4985D01*
X73781Y4976D01*
X73751Y4967D01*
X73720Y4959D01*
X73687Y4956D01*
X73651Y4952D01*
X73614Y4950D01*
X73594D01*
X73579Y4952D01*
X73562D01*
X73542Y4954D01*
X73520Y4957D01*
X73494Y4961D01*
X73440Y4970D01*
X73385Y4985D01*
X73329Y5006D01*
X73303Y5018D01*
X73277Y5033D01*
X73275Y5035D01*
X73272Y5037D01*
X73264Y5043D01*
X73257Y5050D01*
X73246Y5057D01*
X73233Y5069D01*
X73218Y5081D01*
X73203Y5096D01*
X73188Y5113D01*
X73172Y5130D01*
X73138Y5172D01*
X73107Y5222D01*
X73079Y5278D01*
Y5280D01*
X73075Y5285D01*
X73074Y5294D01*
X73068Y5306D01*
X73064Y5320D01*
X73059Y5339D01*
X73051Y5359D01*
X73046Y5381D01*
X73040Y5405D01*
X73033Y5433D01*
X73024Y5491D01*
X73016Y5555D01*
X73012Y5622D01*
Y5624D01*
Y5631D01*
Y5643D01*
X73014Y5655D01*
Y5674D01*
X73016Y5693D01*
X73018Y5717D01*
X73022Y5741D01*
X73031Y5794D01*
X73044Y5854D01*
X73062Y5913D01*
X73088Y5970D01*
X73090Y5972D01*
X73092Y5978D01*
X73096Y5985D01*
X73103Y5994D01*
X73111Y6007D01*
X73120Y6022D01*
X73144Y6055D01*
X73175Y6092D01*
X73212Y6129D01*
X73255Y6167D01*
X73305Y6198D01*
X73307Y6200D01*
X73312Y6202D01*
X73320Y6205D01*
X73329Y6211D01*
X73344Y6217D01*
X73359Y6222D01*
X73377Y6229D01*
X73398Y6237D01*
X73420Y6244D01*
X73444Y6252D01*
X73496Y6263D01*
X73555Y6272D01*
X73616Y6276D01*
X73635D01*
X73648Y6274D01*
D02*
G37*
G36*
X72787Y4972D02*
X72624D01*
Y6044D01*
X72250Y4972D01*
X72098D01*
X71727Y6063D01*
Y4972D01*
X71564D01*
Y6254D01*
X71818D01*
X72122Y5344D01*
Y5343D01*
X72124Y5339D01*
X72126Y5333D01*
X72129Y5324D01*
X72137Y5302D01*
X72146Y5274D01*
X72155Y5243D01*
X72166Y5211D01*
X72176Y5181D01*
X72183Y5156D01*
X72185Y5159D01*
X72187Y5168D01*
X72192Y5185D01*
X72200Y5207D01*
X72209Y5237D01*
X72222Y5272D01*
X72235Y5313D01*
X72251Y5361D01*
X72559Y6254D01*
X72787D01*
Y4972D01*
D02*
G37*
G36*
X75364Y5513D02*
Y5511D01*
Y5504D01*
Y5494D01*
Y5481D01*
X75362Y5465D01*
Y5446D01*
X75360Y5424D01*
X75359Y5402D01*
X75353Y5352D01*
X75346Y5300D01*
X75334Y5250D01*
X75327Y5226D01*
X75320Y5204D01*
Y5202D01*
X75318Y5198D01*
X75314Y5193D01*
X75310Y5185D01*
X75299Y5165D01*
X75283Y5139D01*
X75260Y5109D01*
X75234Y5080D01*
X75201Y5048D01*
X75160Y5020D01*
X75159D01*
X75155Y5017D01*
X75149Y5015D01*
X75140Y5009D01*
X75129Y5004D01*
X75114Y4998D01*
X75099Y4993D01*
X75081Y4985D01*
X75060Y4978D01*
X75038Y4972D01*
X75014Y4967D01*
X74986Y4961D01*
X74959Y4957D01*
X74929Y4954D01*
X74862Y4950D01*
X74846D01*
X74833Y4952D01*
X74818D01*
X74799Y4954D01*
X74779Y4956D01*
X74759Y4957D01*
X74712Y4965D01*
X74662Y4976D01*
X74614Y4991D01*
X74568Y5011D01*
X74566D01*
X74562Y5015D01*
X74557Y5018D01*
X74549Y5022D01*
X74529Y5037D01*
X74505Y5057D01*
X74477Y5083D01*
X74451Y5113D01*
X74425Y5150D01*
X74405Y5191D01*
Y5193D01*
X74403Y5196D01*
X74401Y5204D01*
X74398Y5213D01*
X74394Y5224D01*
X74390Y5239D01*
X74385Y5256D01*
X74381Y5276D01*
X74377Y5298D01*
X74372Y5322D01*
X74368Y5348D01*
X74364Y5376D01*
X74361Y5407D01*
X74359Y5441D01*
X74357Y5476D01*
Y5513D01*
Y6254D01*
X74527D01*
Y5513D01*
Y5511D01*
Y5505D01*
Y5496D01*
Y5485D01*
X74529Y5472D01*
Y5456D01*
X74531Y5420D01*
X74535Y5380D01*
X74540Y5339D01*
X74548Y5300D01*
X74551Y5283D01*
X74557Y5267D01*
X74559Y5263D01*
X74562Y5254D01*
X74572Y5241D01*
X74583Y5222D01*
X74596Y5204D01*
X74614Y5183D01*
X74636Y5163D01*
X74662Y5146D01*
X74666Y5144D01*
X74675Y5139D01*
X74692Y5133D01*
X74714Y5126D01*
X74740Y5117D01*
X74773Y5111D01*
X74809Y5106D01*
X74847Y5104D01*
X74866D01*
X74877Y5106D01*
X74894D01*
X74910Y5107D01*
X74951Y5115D01*
X74996Y5124D01*
X75038Y5139D01*
X75079Y5159D01*
X75097Y5172D01*
X75114Y5187D01*
X75116Y5189D01*
X75118Y5191D01*
X75122Y5196D01*
X75127Y5204D01*
X75133Y5215D01*
X75140Y5226D01*
X75147Y5243D01*
X75155Y5259D01*
X75162Y5280D01*
X75168Y5304D01*
X75175Y5331D01*
X75181Y5361D01*
X75186Y5394D01*
X75190Y5430D01*
X75194Y5470D01*
Y5513D01*
Y6254D01*
X75364D01*
Y5513D01*
D02*
G37*
G36*
X70807Y6102D02*
X70050D01*
Y5711D01*
X70759D01*
Y5559D01*
X70050D01*
Y5124D01*
X70837D01*
Y4972D01*
X69879D01*
Y6254D01*
X70807D01*
Y6102D01*
D02*
G37*
G36*
X69111Y6252D02*
X69148Y6250D01*
X69185Y6246D01*
X69222Y6241D01*
X69254Y6235D01*
X69255D01*
X69259Y6233D01*
X69265D01*
X69272Y6229D01*
X69293Y6224D01*
X69318Y6215D01*
X69348Y6202D01*
X69380Y6185D01*
X69411Y6167D01*
X69441Y6142D01*
X69442Y6141D01*
X69444Y6139D01*
X69450Y6133D01*
X69457Y6128D01*
X69476Y6109D01*
X69498Y6083D01*
X69522Y6052D01*
X69548Y6015D01*
X69572Y5972D01*
X69592Y5924D01*
Y5922D01*
X69594Y5918D01*
X69598Y5911D01*
X69600Y5900D01*
X69605Y5887D01*
X69609Y5872D01*
X69613Y5855D01*
X69618Y5835D01*
X69624Y5815D01*
X69628Y5791D01*
X69637Y5739D01*
X69642Y5681D01*
X69644Y5618D01*
Y5617D01*
Y5613D01*
Y5604D01*
Y5594D01*
X69642Y5581D01*
Y5567D01*
X69641Y5531D01*
X69635Y5491D01*
X69630Y5448D01*
X69620Y5404D01*
X69609Y5359D01*
Y5357D01*
X69607Y5354D01*
X69605Y5348D01*
X69604Y5341D01*
X69596Y5320D01*
X69585Y5294D01*
X69574Y5265D01*
X69559Y5235D01*
X69541Y5204D01*
X69522Y5174D01*
X69520Y5170D01*
X69513Y5161D01*
X69502Y5148D01*
X69487Y5131D01*
X69470Y5113D01*
X69450Y5094D01*
X69430Y5074D01*
X69405Y5057D01*
X69402Y5056D01*
X69394Y5050D01*
X69381Y5043D01*
X69363Y5033D01*
X69341Y5022D01*
X69315Y5013D01*
X69285Y5002D01*
X69252Y4993D01*
X69248D01*
X69243Y4991D01*
X69237Y4989D01*
X69218Y4987D01*
X69193Y4983D01*
X69163Y4980D01*
X69128Y4976D01*
X69089Y4974D01*
X69046Y4972D01*
X68585D01*
Y6254D01*
X69078D01*
X69111Y6252D01*
D02*
G37*
G36*
X66893Y4972D02*
X66722D01*
Y6254D01*
X66893D01*
Y4972D01*
D02*
G37*
G36*
X65928Y6252D02*
X65965Y6250D01*
X66002Y6246D01*
X66039Y6241D01*
X66071Y6235D01*
X66072D01*
X66076Y6233D01*
X66082D01*
X66089Y6229D01*
X66110Y6224D01*
X66135Y6215D01*
X66165Y6202D01*
X66197Y6185D01*
X66228Y6167D01*
X66258Y6142D01*
X66259Y6141D01*
X66261Y6139D01*
X66267Y6133D01*
X66274Y6128D01*
X66293Y6109D01*
X66315Y6083D01*
X66339Y6052D01*
X66365Y6015D01*
X66389Y5972D01*
X66409Y5924D01*
Y5922D01*
X66411Y5918D01*
X66415Y5911D01*
X66417Y5900D01*
X66422Y5887D01*
X66426Y5872D01*
X66430Y5855D01*
X66435Y5835D01*
X66441Y5815D01*
X66445Y5791D01*
X66454Y5739D01*
X66459Y5681D01*
X66461Y5618D01*
Y5617D01*
Y5613D01*
Y5604D01*
Y5594D01*
X66459Y5581D01*
Y5567D01*
X66458Y5531D01*
X66452Y5491D01*
X66447Y5448D01*
X66437Y5404D01*
X66426Y5359D01*
Y5357D01*
X66424Y5354D01*
X66422Y5348D01*
X66421Y5341D01*
X66413Y5320D01*
X66402Y5294D01*
X66391Y5265D01*
X66376Y5235D01*
X66358Y5204D01*
X66339Y5174D01*
X66337Y5170D01*
X66330Y5161D01*
X66319Y5148D01*
X66304Y5131D01*
X66287Y5113D01*
X66267Y5094D01*
X66247Y5074D01*
X66222Y5057D01*
X66219Y5056D01*
X66211Y5050D01*
X66198Y5043D01*
X66180Y5033D01*
X66158Y5022D01*
X66132Y5013D01*
X66102Y5002D01*
X66069Y4993D01*
X66065D01*
X66060Y4991D01*
X66054Y4989D01*
X66035Y4987D01*
X66010Y4983D01*
X65980Y4980D01*
X65945Y4976D01*
X65906Y4974D01*
X65863Y4972D01*
X65402D01*
Y6254D01*
X65895D01*
X65928Y6252D01*
D02*
G37*
G36*
X64223D02*
X64239D01*
X64278Y6250D01*
X64319Y6244D01*
X64363Y6239D01*
X64404Y6229D01*
X64424Y6224D01*
X64441Y6218D01*
X64443D01*
X64445Y6217D01*
X64456Y6211D01*
X64473Y6204D01*
X64493Y6191D01*
X64515Y6174D01*
X64539Y6152D01*
X64562Y6126D01*
X64584Y6096D01*
Y6094D01*
X64586Y6092D01*
X64593Y6081D01*
X64600Y6063D01*
X64612Y6039D01*
X64621Y6011D01*
X64630Y5978D01*
X64636Y5942D01*
X64637Y5904D01*
Y5902D01*
Y5898D01*
Y5891D01*
X64636Y5881D01*
Y5868D01*
X64634Y5855D01*
X64626Y5824D01*
X64615Y5787D01*
X64600Y5748D01*
X64578Y5709D01*
X64563Y5691D01*
X64549Y5672D01*
X64547Y5670D01*
X64545Y5668D01*
X64539Y5663D01*
X64532Y5657D01*
X64523Y5650D01*
X64512Y5643D01*
X64497Y5633D01*
X64482Y5622D01*
X64463Y5613D01*
X64443Y5604D01*
X64421Y5593D01*
X64397Y5583D01*
X64369Y5576D01*
X64341Y5567D01*
X64310Y5561D01*
X64276Y5555D01*
X64280Y5554D01*
X64287Y5550D01*
X64299Y5543D01*
X64313Y5535D01*
X64347Y5515D01*
X64363Y5502D01*
X64378Y5491D01*
X64382Y5487D01*
X64391Y5478D01*
X64406Y5463D01*
X64424Y5444D01*
X64445Y5418D01*
X64469Y5391D01*
X64493Y5357D01*
X64519Y5320D01*
X64739Y4972D01*
X64528D01*
X64360Y5239D01*
Y5241D01*
X64356Y5244D01*
X64352Y5250D01*
X64347Y5257D01*
X64334Y5278D01*
X64317Y5304D01*
X64297Y5331D01*
X64276Y5361D01*
X64256Y5389D01*
X64237Y5415D01*
X64236Y5417D01*
X64230Y5424D01*
X64221Y5435D01*
X64208Y5448D01*
X64180Y5476D01*
X64165Y5489D01*
X64150Y5500D01*
X64149Y5502D01*
X64145Y5504D01*
X64137Y5507D01*
X64126Y5513D01*
X64115Y5518D01*
X64102Y5524D01*
X64073Y5533D01*
X64071D01*
X64067Y5535D01*
X64060D01*
X64050Y5537D01*
X64037Y5539D01*
X64023D01*
X64002Y5541D01*
X63784D01*
Y4972D01*
X63613D01*
Y6254D01*
X64208D01*
X64223Y6252D01*
D02*
G37*
G36*
X63347Y6102D02*
X62590D01*
Y5711D01*
X63299D01*
Y5559D01*
X62590D01*
Y5124D01*
X63376D01*
Y4972D01*
X62419D01*
Y6254D01*
X63347D01*
Y6102D01*
D02*
G37*
G36*
X61086Y4972D02*
X60893D01*
X60743Y5361D01*
X60206D01*
X60068Y4972D01*
X59888D01*
X60377Y6254D01*
X60562D01*
X61086Y4972D01*
D02*
G37*
G36*
X59195Y5124D02*
X59827D01*
Y4972D01*
X59025D01*
Y6254D01*
X59195D01*
Y5124D01*
D02*
G37*
G36*
X67783Y6274D02*
X67800D01*
X67817Y6272D01*
X67839Y6268D01*
X67861Y6265D01*
X67909Y6255D01*
X67965Y6241D01*
X68019Y6218D01*
X68046Y6205D01*
X68074Y6191D01*
X68076Y6189D01*
X68080Y6187D01*
X68087Y6181D01*
X68098Y6176D01*
X68109Y6167D01*
X68124Y6155D01*
X68156Y6129D01*
X68189Y6096D01*
X68226Y6055D01*
X68261Y6007D01*
X68291Y5954D01*
Y5952D01*
X68294Y5946D01*
X68298Y5939D01*
X68302Y5928D01*
X68309Y5913D01*
X68315Y5896D01*
X68322Y5876D01*
X68330Y5854D01*
X68335Y5830D01*
X68343Y5804D01*
X68350Y5774D01*
X68356Y5744D01*
X68363Y5680D01*
X68367Y5609D01*
Y5607D01*
Y5600D01*
Y5591D01*
X68365Y5576D01*
Y5559D01*
X68363Y5539D01*
X68359Y5517D01*
X68357Y5493D01*
X68348Y5439D01*
X68333Y5380D01*
X68313Y5320D01*
X68302Y5291D01*
X68287Y5261D01*
Y5259D01*
X68283Y5254D01*
X68280Y5246D01*
X68272Y5235D01*
X68265Y5222D01*
X68256Y5209D01*
X68230Y5174D01*
X68198Y5137D01*
X68161Y5098D01*
X68117Y5061D01*
X68065Y5028D01*
X68063D01*
X68059Y5024D01*
X68050Y5020D01*
X68039Y5015D01*
X68026Y5009D01*
X68011Y5004D01*
X67993Y4996D01*
X67972Y4989D01*
X67950Y4981D01*
X67926Y4974D01*
X67872Y4963D01*
X67815Y4954D01*
X67754Y4950D01*
X67735D01*
X67724Y4952D01*
X67707D01*
X67689Y4956D01*
X67669Y4957D01*
X67645Y4961D01*
X67595Y4972D01*
X67541Y4987D01*
X67485Y5009D01*
X67458Y5022D01*
X67430Y5037D01*
X67428Y5039D01*
X67424Y5041D01*
X67417Y5046D01*
X67406Y5054D01*
X67395Y5061D01*
X67382Y5072D01*
X67350Y5100D01*
X67315Y5133D01*
X67278Y5174D01*
X67245Y5220D01*
X67213Y5274D01*
Y5276D01*
X67209Y5281D01*
X67206Y5289D01*
X67202Y5300D01*
X67196Y5315D01*
X67191Y5331D01*
X67183Y5350D01*
X67178Y5370D01*
X67171Y5394D01*
X67163Y5418D01*
X67152Y5474D01*
X67145Y5531D01*
X67141Y5594D01*
Y5596D01*
Y5598D01*
Y5609D01*
X67143Y5626D01*
Y5648D01*
X67146Y5674D01*
X67150Y5705D01*
X67156Y5741D01*
X67163Y5778D01*
X67171Y5817D01*
X67182Y5857D01*
X67196Y5898D01*
X67213Y5941D01*
X67232Y5981D01*
X67256Y6022D01*
X67282Y6059D01*
X67311Y6094D01*
X67313Y6096D01*
X67319Y6102D01*
X67330Y6111D01*
X67343Y6122D01*
X67359Y6137D01*
X67380Y6152D01*
X67404Y6168D01*
X67432Y6185D01*
X67461Y6202D01*
X67495Y6218D01*
X67532Y6233D01*
X67570Y6248D01*
X67613Y6259D01*
X67658Y6268D01*
X67704Y6274D01*
X67754Y6276D01*
X67770D01*
X67783Y6274D01*
D02*
G37*
%LPC*%
G36*
X63260Y4373D02*
X63255D01*
X63251Y4373D01*
X63241Y4372D01*
X63229Y4369D01*
X63214Y4364D01*
X63198Y4358D01*
X63184Y4349D01*
X63169Y4337D01*
X63167Y4335D01*
X63163Y4330D01*
X63157Y4322D01*
X63150Y4311D01*
X63143Y4298D01*
X63137Y4281D01*
X63131Y4262D01*
X63128Y4240D01*
X63388D01*
Y4241D01*
Y4243D01*
X63387Y4246D01*
Y4250D01*
X63385Y4261D01*
X63382Y4273D01*
X63378Y4287D01*
X63373Y4301D01*
X63366Y4315D01*
X63358Y4327D01*
Y4328D01*
X63356Y4329D01*
X63351Y4335D01*
X63343Y4342D01*
X63332Y4350D01*
X63318Y4359D01*
X63301Y4366D01*
X63282Y4372D01*
X63272Y4373D01*
X63260Y4373D01*
D02*
G37*
G36*
X62316D02*
X62310D01*
X62306Y4373D01*
X62296Y4372D01*
X62284Y4369D01*
X62269Y4364D01*
X62254Y4358D01*
X62239Y4349D01*
X62224Y4337D01*
X62222Y4335D01*
X62218Y4330D01*
X62212Y4322D01*
X62206Y4311D01*
X62198Y4298D01*
X62192Y4281D01*
X62186Y4262D01*
X62183Y4240D01*
X62443D01*
Y4241D01*
Y4243D01*
X62442Y4246D01*
Y4250D01*
X62440Y4261D01*
X62438Y4273D01*
X62433Y4287D01*
X62428Y4301D01*
X62421Y4315D01*
X62413Y4327D01*
Y4328D01*
X62411Y4329D01*
X62406Y4335D01*
X62398Y4342D01*
X62387Y4350D01*
X62373Y4359D01*
X62356Y4366D01*
X62337Y4372D01*
X62327Y4373D01*
X62316Y4373D01*
D02*
G37*
G36*
X59780D02*
X59775D01*
X59771Y4373D01*
X59761Y4372D01*
X59749Y4369D01*
X59734Y4364D01*
X59718Y4358D01*
X59704Y4349D01*
X59689Y4337D01*
X59687Y4335D01*
X59683Y4330D01*
X59677Y4322D01*
X59670Y4311D01*
X59663Y4298D01*
X59656Y4281D01*
X59651Y4262D01*
X59648Y4240D01*
X59908D01*
Y4241D01*
Y4243D01*
X59907Y4246D01*
Y4250D01*
X59905Y4261D01*
X59902Y4273D01*
X59898Y4287D01*
X59893Y4301D01*
X59886Y4315D01*
X59877Y4327D01*
Y4328D01*
X59876Y4329D01*
X59871Y4335D01*
X59863Y4342D01*
X59852Y4350D01*
X59838Y4359D01*
X59821Y4366D01*
X59802Y4372D01*
X59791Y4373D01*
X59780Y4373D01*
D02*
G37*
G36*
X61507Y3584D02*
X61502D01*
X61498Y3583D01*
X61488Y3581D01*
X61476Y3578D01*
X61462Y3572D01*
X61447Y3564D01*
X61440Y3559D01*
X61433Y3553D01*
X61426Y3546D01*
X61420Y3537D01*
Y3536D01*
X61418Y3535D01*
X61416Y3531D01*
X61413Y3526D01*
X61410Y3519D01*
X61407Y3510D01*
X61404Y3500D01*
X61400Y3488D01*
X61397Y3474D01*
X61393Y3459D01*
X61389Y3441D01*
X61386Y3422D01*
X61384Y3400D01*
X61382Y3376D01*
X61381Y3350D01*
X61380Y3321D01*
Y3319D01*
Y3314D01*
Y3306D01*
X61381Y3295D01*
Y3283D01*
X61382Y3268D01*
X61383Y3253D01*
X61384Y3236D01*
X61389Y3200D01*
X61392Y3182D01*
X61396Y3166D01*
X61399Y3150D01*
X61405Y3135D01*
X61410Y3122D01*
X61417Y3111D01*
Y3110D01*
X61419Y3109D01*
X61423Y3103D01*
X61432Y3094D01*
X61442Y3085D01*
X61456Y3076D01*
X61471Y3068D01*
X61489Y3061D01*
X61498Y3060D01*
X61508Y3059D01*
X61514D01*
X61518Y3060D01*
X61527Y3062D01*
X61540Y3066D01*
X61554Y3072D01*
X61569Y3082D01*
X61577Y3087D01*
X61584Y3094D01*
X61592Y3102D01*
X61599Y3111D01*
Y3112D01*
X61601Y3114D01*
X61603Y3117D01*
X61605Y3121D01*
X61608Y3128D01*
X61611Y3136D01*
X61615Y3145D01*
X61618Y3156D01*
X61621Y3170D01*
X61625Y3185D01*
X61629Y3203D01*
X61631Y3221D01*
X61633Y3243D01*
X61635Y3266D01*
X61637Y3292D01*
Y3321D01*
Y3322D01*
Y3323D01*
Y3327D01*
Y3336D01*
X61636Y3347D01*
Y3359D01*
X61635Y3374D01*
X61634Y3389D01*
X61632Y3407D01*
X61628Y3442D01*
X61625Y3460D01*
X61621Y3476D01*
X61617Y3492D01*
X61612Y3507D01*
X61606Y3520D01*
X61600Y3531D01*
Y3532D01*
X61598Y3533D01*
X61596Y3535D01*
X61593Y3539D01*
X61585Y3547D01*
X61575Y3558D01*
X61561Y3567D01*
X61545Y3575D01*
X61537Y3579D01*
X61528Y3582D01*
X61518Y3583D01*
X61507Y3584D01*
D02*
G37*
G36*
X59718D02*
X59712D01*
X59708Y3583D01*
X59698Y3581D01*
X59686Y3578D01*
X59672Y3572D01*
X59657Y3564D01*
X59650Y3559D01*
X59643Y3553D01*
X59636Y3546D01*
X59630Y3537D01*
Y3536D01*
X59628Y3535D01*
X59626Y3531D01*
X59623Y3526D01*
X59620Y3519D01*
X59617Y3510D01*
X59614Y3500D01*
X59610Y3488D01*
X59607Y3474D01*
X59603Y3459D01*
X59599Y3441D01*
X59596Y3422D01*
X59594Y3400D01*
X59592Y3376D01*
X59591Y3350D01*
X59590Y3321D01*
Y3319D01*
Y3314D01*
Y3306D01*
X59591Y3295D01*
Y3283D01*
X59592Y3268D01*
X59593Y3253D01*
X59595Y3236D01*
X59599Y3200D01*
X59602Y3182D01*
X59606Y3166D01*
X59609Y3150D01*
X59615Y3135D01*
X59620Y3122D01*
X59627Y3111D01*
Y3110D01*
X59629Y3109D01*
X59633Y3103D01*
X59642Y3094D01*
X59652Y3085D01*
X59666Y3076D01*
X59681Y3068D01*
X59699Y3061D01*
X59708Y3060D01*
X59718Y3059D01*
X59724D01*
X59728Y3060D01*
X59737Y3062D01*
X59750Y3066D01*
X59764Y3072D01*
X59779Y3082D01*
X59787Y3087D01*
X59794Y3094D01*
X59802Y3102D01*
X59809Y3111D01*
Y3112D01*
X59811Y3114D01*
X59813Y3117D01*
X59815Y3121D01*
X59818Y3128D01*
X59821Y3136D01*
X59825Y3145D01*
X59828Y3156D01*
X59831Y3170D01*
X59835Y3185D01*
X59839Y3203D01*
X59841Y3221D01*
X59843Y3243D01*
X59845Y3266D01*
X59847Y3292D01*
Y3321D01*
Y3322D01*
Y3323D01*
Y3327D01*
Y3336D01*
X59846Y3347D01*
Y3359D01*
X59845Y3374D01*
X59844Y3389D01*
X59842Y3407D01*
X59838Y3442D01*
X59835Y3460D01*
X59831Y3476D01*
X59828Y3492D01*
X59822Y3507D01*
X59816Y3520D01*
X59810Y3531D01*
Y3532D01*
X59808Y3533D01*
X59806Y3535D01*
X59804Y3539D01*
X59795Y3547D01*
X59785Y3558D01*
X59771Y3567D01*
X59755Y3575D01*
X59747Y3579D01*
X59738Y3582D01*
X59728Y3583D01*
X59718Y3584D01*
D02*
G37*
G36*
X60584Y2802D02*
X60578D01*
X60575Y2801D01*
X60564Y2799D01*
X60552Y2796D01*
X60539Y2791D01*
X60524Y2783D01*
X60516Y2777D01*
X60509Y2771D01*
X60502Y2764D01*
X60496Y2756D01*
Y2755D01*
X60494Y2753D01*
X60492Y2749D01*
X60490Y2745D01*
X60487Y2737D01*
X60483Y2729D01*
X60480Y2719D01*
X60477Y2707D01*
X60473Y2693D01*
X60469Y2677D01*
X60465Y2660D01*
X60463Y2640D01*
X60460Y2618D01*
X60458Y2594D01*
X60457Y2568D01*
X60456Y2539D01*
Y2537D01*
Y2533D01*
Y2525D01*
X60457Y2513D01*
Y2501D01*
X60458Y2487D01*
X60459Y2471D01*
X60461Y2454D01*
X60465Y2418D01*
X60468Y2401D01*
X60472Y2384D01*
X60476Y2368D01*
X60481Y2353D01*
X60487Y2341D01*
X60493Y2329D01*
Y2329D01*
X60495Y2328D01*
X60500Y2321D01*
X60508Y2313D01*
X60518Y2304D01*
X60532Y2294D01*
X60548Y2286D01*
X60565Y2280D01*
X60575Y2279D01*
X60585Y2278D01*
X60590D01*
X60594Y2279D01*
X60603Y2280D01*
X60616Y2284D01*
X60630Y2291D01*
X60646Y2300D01*
X60653Y2305D01*
X60661Y2313D01*
X60668Y2320D01*
X60675Y2329D01*
Y2330D01*
X60677Y2332D01*
X60679Y2335D01*
X60681Y2340D01*
X60685Y2346D01*
X60687Y2354D01*
X60691Y2364D01*
X60695Y2375D01*
X60698Y2389D01*
X60701Y2403D01*
X60705Y2421D01*
X60708Y2439D01*
X60710Y2462D01*
X60711Y2485D01*
X60713Y2511D01*
Y2539D01*
Y2540D01*
Y2541D01*
Y2546D01*
Y2554D01*
X60712Y2565D01*
Y2577D01*
X60711Y2592D01*
X60710Y2608D01*
X60709Y2625D01*
X60704Y2660D01*
X60701Y2678D01*
X60698Y2695D01*
X60694Y2710D01*
X60688Y2725D01*
X60683Y2738D01*
X60676Y2749D01*
Y2750D01*
X60674Y2751D01*
X60673Y2754D01*
X60670Y2758D01*
X60661Y2766D01*
X60651Y2776D01*
X60637Y2785D01*
X60622Y2794D01*
X60613Y2797D01*
X60604Y2800D01*
X60594Y2801D01*
X60584Y2802D01*
D02*
G37*
G36*
X59838D02*
X59832D01*
X59828Y2801D01*
X59818Y2799D01*
X59806Y2796D01*
X59792Y2791D01*
X59778Y2783D01*
X59770Y2777D01*
X59763Y2771D01*
X59756Y2764D01*
X59750Y2756D01*
Y2755D01*
X59748Y2753D01*
X59746Y2749D01*
X59743Y2745D01*
X59741Y2737D01*
X59737Y2729D01*
X59734Y2719D01*
X59730Y2707D01*
X59727Y2693D01*
X59723Y2677D01*
X59719Y2660D01*
X59717Y2640D01*
X59714Y2618D01*
X59712Y2594D01*
X59711Y2568D01*
X59710Y2539D01*
Y2537D01*
Y2533D01*
Y2525D01*
X59711Y2513D01*
Y2501D01*
X59712Y2487D01*
X59713Y2471D01*
X59715Y2454D01*
X59719Y2418D01*
X59722Y2401D01*
X59726Y2384D01*
X59730Y2368D01*
X59735Y2353D01*
X59741Y2341D01*
X59747Y2329D01*
Y2329D01*
X59749Y2328D01*
X59754Y2321D01*
X59762Y2313D01*
X59772Y2304D01*
X59786Y2294D01*
X59802Y2286D01*
X59819Y2280D01*
X59828Y2279D01*
X59839Y2278D01*
X59844D01*
X59848Y2279D01*
X59857Y2280D01*
X59870Y2284D01*
X59884Y2291D01*
X59900Y2300D01*
X59907Y2305D01*
X59914Y2313D01*
X59922Y2320D01*
X59929Y2329D01*
Y2330D01*
X59931Y2332D01*
X59933Y2335D01*
X59935Y2340D01*
X59938Y2346D01*
X59941Y2354D01*
X59945Y2364D01*
X59949Y2375D01*
X59951Y2389D01*
X59955Y2403D01*
X59959Y2421D01*
X59962Y2439D01*
X59963Y2462D01*
X59965Y2485D01*
X59967Y2511D01*
Y2539D01*
Y2540D01*
Y2541D01*
Y2546D01*
Y2554D01*
X59966Y2565D01*
Y2577D01*
X59965Y2592D01*
X59964Y2608D01*
X59963Y2625D01*
X59958Y2660D01*
X59955Y2678D01*
X59951Y2695D01*
X59948Y2710D01*
X59942Y2725D01*
X59937Y2738D01*
X59930Y2749D01*
Y2750D01*
X59928Y2751D01*
X59926Y2754D01*
X59924Y2758D01*
X59915Y2766D01*
X59905Y2776D01*
X59891Y2785D01*
X59876Y2794D01*
X59867Y2797D01*
X59858Y2800D01*
X59848Y2801D01*
X59838Y2802D01*
D02*
G37*
G36*
X77256Y86674D02*
X77228D01*
X77161Y86672D01*
X77098Y86666D01*
X77039Y86655D01*
X76984Y86644D01*
X76934Y86627D01*
X76887Y86610D01*
X76842Y86591D01*
X76806Y86574D01*
X76770Y86555D01*
X76742Y86535D01*
X76717Y86519D01*
X76695Y86502D01*
X76681Y86491D01*
X76667Y86480D01*
X76662Y86474D01*
X76659Y86472D01*
X76623Y86433D01*
X76592Y86388D01*
X76567Y86344D01*
X76542Y86297D01*
X76523Y86247D01*
X76509Y86200D01*
X76495Y86152D01*
X76484Y86105D01*
X76476Y86061D01*
X76470Y86022D01*
X76465Y85986D01*
X76462Y85952D01*
Y85928D01*
X76459Y85908D01*
Y85891D01*
X76465Y85791D01*
X76470Y85744D01*
X76476Y85700D01*
X76487Y85658D01*
X76495Y85619D01*
X76506Y85583D01*
X76517Y85553D01*
X76526Y85522D01*
X76537Y85497D01*
X76548Y85475D01*
X76556Y85458D01*
X76562Y85444D01*
X76567Y85433D01*
X76573Y85428D01*
Y85425D01*
X76617Y85361D01*
X76662Y85308D01*
X76709Y85267D01*
X76751Y85231D01*
X76787Y85206D01*
X76817Y85186D01*
X76828Y85181D01*
X76837Y85175D01*
X76839Y85172D01*
X76842D01*
X76906Y85150D01*
X76973Y85134D01*
X77042Y85120D01*
X77106Y85111D01*
X77136Y85109D01*
X77164Y85106D01*
X77186D01*
X77209Y85103D01*
X77250D01*
X77322Y85106D01*
X77389Y85111D01*
X77447Y85122D01*
X77495Y85134D01*
X77533Y85142D01*
X77564Y85153D01*
X77572Y85156D01*
X77581Y85158D01*
X77583Y85161D01*
X77586D01*
X77633Y85186D01*
X77678Y85214D01*
X77714Y85242D01*
X77747Y85270D01*
X77772Y85297D01*
X77792Y85317D01*
X77806Y85331D01*
X77808Y85336D01*
X77842Y85383D01*
X77867Y85431D01*
X77892Y85478D01*
X77908Y85525D01*
X77925Y85564D01*
X77933Y85597D01*
X77936Y85608D01*
X77939Y85617D01*
X77942Y85622D01*
Y85625D01*
X77531Y85753D01*
X77517Y85700D01*
X77500Y85655D01*
X77483Y85617D01*
X77467Y85586D01*
X77453Y85561D01*
X77439Y85544D01*
X77431Y85533D01*
X77428Y85531D01*
X77400Y85506D01*
X77367Y85486D01*
X77334Y85475D01*
X77300Y85464D01*
X77270Y85458D01*
X77245Y85456D01*
X77223D01*
X77173Y85458D01*
X77131Y85469D01*
X77092Y85483D01*
X77062Y85503D01*
X77039Y85519D01*
X77020Y85533D01*
X77009Y85544D01*
X77006Y85547D01*
X76992Y85567D01*
X76981Y85589D01*
X76962Y85642D01*
X76950Y85700D01*
X76939Y85755D01*
X76934Y85808D01*
Y85833D01*
X76931Y85853D01*
Y85869D01*
Y85883D01*
Y85891D01*
Y85894D01*
X76934Y85966D01*
X76942Y86027D01*
X76950Y86077D01*
X76964Y86119D01*
X76975Y86150D01*
X76984Y86175D01*
X76992Y86186D01*
X76995Y86191D01*
X77012Y86213D01*
X77028Y86236D01*
X77067Y86266D01*
X77109Y86291D01*
X77148Y86305D01*
X77184Y86316D01*
X77214Y86319D01*
X77223Y86322D01*
X77264D01*
X77289Y86316D01*
X77311Y86313D01*
X77331Y86308D01*
X77345Y86302D01*
X77359Y86297D01*
X77364Y86294D01*
X77367Y86291D01*
X77406Y86266D01*
X77436Y86238D01*
X77447Y86227D01*
X77459Y86216D01*
X77461Y86211D01*
X77464Y86208D01*
X77472Y86194D01*
X77481Y86180D01*
X77497Y86147D01*
X77503Y86133D01*
X77508Y86119D01*
X77511Y86111D01*
Y86108D01*
X77928Y86200D01*
X77911Y86244D01*
X77894Y86286D01*
X77875Y86322D01*
X77855Y86358D01*
X77836Y86391D01*
X77814Y86419D01*
X77794Y86447D01*
X77775Y86469D01*
X77756Y86491D01*
X77739Y86508D01*
X77722Y86524D01*
X77708Y86535D01*
X77697Y86547D01*
X77689Y86552D01*
X77683Y86558D01*
X77681D01*
X77647Y86577D01*
X77614Y86597D01*
X77542Y86624D01*
X77467Y86647D01*
X77392Y86660D01*
X77359Y86666D01*
X77328Y86669D01*
X77300Y86672D01*
X77275D01*
X77256Y86674D01*
D02*
G37*
G36*
X81284Y86649D02*
X80840D01*
Y85805D01*
X80262Y86649D01*
X79827D01*
Y85128D01*
X80268D01*
Y85966D01*
X80840Y85128D01*
X81284D01*
Y86649D01*
D02*
G37*
G36*
X82175Y86674D02*
X82139D01*
X82064Y86672D01*
X81998Y86666D01*
X81939Y86658D01*
X81892Y86647D01*
X81853Y86635D01*
X81825Y86627D01*
X81809Y86622D01*
X81806Y86619D01*
X81803D01*
X81759Y86597D01*
X81723Y86572D01*
X81689Y86547D01*
X81664Y86522D01*
X81642Y86499D01*
X81626Y86483D01*
X81617Y86472D01*
X81615Y86466D01*
X81592Y86424D01*
X81573Y86380D01*
X81559Y86336D01*
X81545Y86291D01*
X81537Y86250D01*
X81531Y86219D01*
X81528Y86205D01*
X81526Y86197D01*
Y86191D01*
Y86188D01*
X81950Y86155D01*
X81959Y86200D01*
X81967Y86236D01*
X81978Y86266D01*
X81989Y86291D01*
X82000Y86311D01*
X82009Y86325D01*
X82014Y86330D01*
X82017Y86333D01*
X82039Y86349D01*
X82061Y86363D01*
X82084Y86372D01*
X82103Y86380D01*
X82123Y86383D01*
X82136Y86386D01*
X82150D01*
X82178Y86383D01*
X82203Y86377D01*
X82225Y86369D01*
X82245Y86361D01*
X82261Y86352D01*
X82272Y86344D01*
X82278Y86338D01*
X82281Y86336D01*
X82297Y86316D01*
X82311Y86297D01*
X82320Y86277D01*
X82328Y86258D01*
X82331Y86241D01*
X82334Y86227D01*
Y86219D01*
Y86216D01*
X82331Y86191D01*
X82325Y86169D01*
X82317Y86144D01*
X82309Y86125D01*
X82297Y86105D01*
X82289Y86091D01*
X82284Y86083D01*
X82281Y86080D01*
X82270Y86066D01*
X82256Y86050D01*
X82222Y86016D01*
X82181Y85983D01*
X82142Y85947D01*
X82103Y85916D01*
X82073Y85891D01*
X82059Y85883D01*
X82050Y85875D01*
X82045Y85872D01*
X82042Y85869D01*
X81987Y85828D01*
X81937Y85789D01*
X81889Y85750D01*
X81848Y85714D01*
X81809Y85678D01*
X81776Y85647D01*
X81745Y85617D01*
X81720Y85589D01*
X81698Y85564D01*
X81676Y85542D01*
X81662Y85522D01*
X81648Y85508D01*
X81637Y85494D01*
X81631Y85486D01*
X81628Y85481D01*
X81626Y85478D01*
X81590Y85417D01*
X81559Y85353D01*
X81537Y85295D01*
X81520Y85242D01*
X81506Y85195D01*
X81503Y85175D01*
X81501Y85158D01*
X81498Y85147D01*
X81495Y85136D01*
Y85128D01*
X82767D01*
Y85472D01*
X82103D01*
X82145Y85508D01*
X82175Y85539D01*
X82186Y85547D01*
X82195Y85555D01*
X82200Y85558D01*
X82203Y85561D01*
X82222Y85578D01*
X82247Y85597D01*
X82278Y85617D01*
X82306Y85636D01*
X82334Y85655D01*
X82356Y85672D01*
X82370Y85683D01*
X82375Y85686D01*
X82414Y85714D01*
X82450Y85742D01*
X82483Y85769D01*
X82514Y85794D01*
X82539Y85819D01*
X82564Y85841D01*
X82606Y85883D01*
X82636Y85916D01*
X82656Y85941D01*
X82669Y85958D01*
X82672Y85964D01*
X82700Y86011D01*
X82719Y86058D01*
X82736Y86105D01*
X82744Y86144D01*
X82750Y86180D01*
X82756Y86208D01*
Y86216D01*
Y86225D01*
Y86227D01*
Y86230D01*
X82753Y86277D01*
X82744Y86322D01*
X82733Y86363D01*
X82719Y86397D01*
X82706Y86427D01*
X82694Y86447D01*
X82686Y86461D01*
X82683Y86466D01*
X82656Y86502D01*
X82622Y86535D01*
X82589Y86560D01*
X82558Y86583D01*
X82531Y86599D01*
X82506Y86613D01*
X82492Y86619D01*
X82489Y86622D01*
X82486D01*
X82436Y86638D01*
X82381Y86652D01*
X82322Y86660D01*
X82267Y86669D01*
X82217Y86672D01*
X82195D01*
X82175Y86674D01*
D02*
G37*
G36*
X79102Y86649D02*
X78586D01*
X78017Y85128D01*
X78497D01*
X78572Y85378D01*
X79105D01*
X79180Y85128D01*
X79674D01*
X79102Y86649D01*
D02*
G37*
%LPD*%
G36*
X79005Y85708D02*
X78672D01*
X78838Y86252D01*
X79005Y85708D01*
D02*
G37*
%LPC*%
G36*
X53355Y86664D02*
X53327D01*
X53260Y86662D01*
X53197Y86656D01*
X53138Y86645D01*
X53083Y86634D01*
X53033Y86617D01*
X52986Y86600D01*
X52941Y86581D01*
X52905Y86564D01*
X52869Y86545D01*
X52841Y86525D01*
X52816Y86509D01*
X52794Y86492D01*
X52780Y86481D01*
X52766Y86470D01*
X52761Y86464D01*
X52758Y86462D01*
X52722Y86423D01*
X52691Y86378D01*
X52666Y86334D01*
X52641Y86287D01*
X52622Y86237D01*
X52608Y86190D01*
X52594Y86142D01*
X52583Y86095D01*
X52575Y86051D01*
X52569Y86012D01*
X52564Y85976D01*
X52561Y85942D01*
Y85918D01*
X52558Y85898D01*
Y85881D01*
X52564Y85781D01*
X52569Y85734D01*
X52575Y85690D01*
X52586Y85648D01*
X52594Y85609D01*
X52605Y85573D01*
X52616Y85543D01*
X52625Y85512D01*
X52636Y85487D01*
X52647Y85465D01*
X52655Y85448D01*
X52661Y85434D01*
X52666Y85423D01*
X52672Y85418D01*
Y85415D01*
X52716Y85351D01*
X52761Y85298D01*
X52808Y85257D01*
X52850Y85221D01*
X52886Y85196D01*
X52916Y85176D01*
X52927Y85171D01*
X52936Y85165D01*
X52938Y85162D01*
X52941D01*
X53005Y85140D01*
X53072Y85124D01*
X53141Y85110D01*
X53205Y85101D01*
X53235Y85099D01*
X53263Y85096D01*
X53285D01*
X53308Y85093D01*
X53349D01*
X53421Y85096D01*
X53488Y85101D01*
X53546Y85112D01*
X53594Y85124D01*
X53632Y85132D01*
X53663Y85143D01*
X53671Y85146D01*
X53680Y85148D01*
X53682Y85151D01*
X53685D01*
X53732Y85176D01*
X53777Y85204D01*
X53813Y85232D01*
X53846Y85260D01*
X53871Y85287D01*
X53891Y85307D01*
X53905Y85321D01*
X53907Y85326D01*
X53941Y85373D01*
X53966Y85421D01*
X53991Y85468D01*
X54007Y85515D01*
X54024Y85554D01*
X54032Y85587D01*
X54035Y85598D01*
X54038Y85607D01*
X54041Y85612D01*
Y85615D01*
X53630Y85743D01*
X53616Y85690D01*
X53599Y85645D01*
X53582Y85607D01*
X53566Y85576D01*
X53552Y85551D01*
X53538Y85534D01*
X53530Y85523D01*
X53527Y85521D01*
X53499Y85496D01*
X53466Y85476D01*
X53433Y85465D01*
X53399Y85454D01*
X53369Y85448D01*
X53344Y85446D01*
X53322D01*
X53272Y85448D01*
X53230Y85459D01*
X53191Y85473D01*
X53160Y85493D01*
X53138Y85509D01*
X53119Y85523D01*
X53108Y85534D01*
X53105Y85537D01*
X53091Y85557D01*
X53080Y85579D01*
X53061Y85632D01*
X53049Y85690D01*
X53038Y85745D01*
X53033Y85798D01*
Y85823D01*
X53030Y85843D01*
Y85859D01*
Y85873D01*
Y85881D01*
Y85884D01*
X53033Y85956D01*
X53041Y86017D01*
X53049Y86067D01*
X53063Y86109D01*
X53074Y86140D01*
X53083Y86165D01*
X53091Y86176D01*
X53094Y86181D01*
X53111Y86203D01*
X53127Y86226D01*
X53166Y86256D01*
X53208Y86281D01*
X53247Y86295D01*
X53283Y86306D01*
X53313Y86309D01*
X53322Y86312D01*
X53363D01*
X53388Y86306D01*
X53410Y86303D01*
X53430Y86298D01*
X53444Y86292D01*
X53458Y86287D01*
X53463Y86284D01*
X53466Y86281D01*
X53505Y86256D01*
X53535Y86228D01*
X53546Y86217D01*
X53557Y86206D01*
X53560Y86201D01*
X53563Y86198D01*
X53571Y86184D01*
X53580Y86170D01*
X53596Y86137D01*
X53602Y86123D01*
X53607Y86109D01*
X53610Y86101D01*
Y86098D01*
X54027Y86190D01*
X54010Y86234D01*
X53993Y86276D01*
X53974Y86312D01*
X53954Y86348D01*
X53935Y86381D01*
X53913Y86409D01*
X53893Y86437D01*
X53874Y86459D01*
X53855Y86481D01*
X53838Y86498D01*
X53821Y86514D01*
X53807Y86525D01*
X53796Y86537D01*
X53788Y86542D01*
X53782Y86548D01*
X53780D01*
X53746Y86567D01*
X53713Y86587D01*
X53641Y86614D01*
X53566Y86637D01*
X53491Y86650D01*
X53458Y86656D01*
X53427Y86659D01*
X53399Y86662D01*
X53374D01*
X53355Y86664D01*
D02*
G37*
G36*
X57383Y86639D02*
X56939D01*
Y85795D01*
X56361Y86639D01*
X55926D01*
Y85118D01*
X56367D01*
Y85956D01*
X56939Y85118D01*
X57383D01*
Y86639D01*
D02*
G37*
G36*
X58585Y86664D02*
X58235D01*
X58208Y86612D01*
X58177Y86564D01*
X58147Y86523D01*
X58116Y86489D01*
X58088Y86459D01*
X58066Y86437D01*
X58052Y86426D01*
X58049Y86420D01*
X58047D01*
X57999Y86384D01*
X57944Y86353D01*
X57888Y86326D01*
X57836Y86301D01*
X57788Y86281D01*
X57766Y86273D01*
X57750Y86265D01*
X57733Y86262D01*
X57722Y86256D01*
X57716Y86253D01*
X57713D01*
Y85909D01*
X57766Y85926D01*
X57813Y85940D01*
X57852Y85956D01*
X57888Y85970D01*
X57916Y85981D01*
X57938Y85990D01*
X57949Y85995D01*
X57955Y85998D01*
X57991Y86017D01*
X58027Y86040D01*
X58063Y86062D01*
X58094Y86081D01*
X58119Y86101D01*
X58141Y86115D01*
X58152Y86126D01*
X58158Y86129D01*
Y85118D01*
X58585D01*
Y86664D01*
D02*
G37*
G36*
X55201Y86639D02*
X54685D01*
X54116Y85118D01*
X54596D01*
X54671Y85368D01*
X55204D01*
X55279Y85118D01*
X55773D01*
X55201Y86639D01*
D02*
G37*
%LPD*%
G36*
X55104Y85698D02*
X54771D01*
X54937Y86242D01*
X55104Y85698D01*
D02*
G37*
%LPC*%
G36*
X27269Y86654D02*
X27241D01*
X27174Y86652D01*
X27111Y86646D01*
X27052Y86635D01*
X26997Y86624D01*
X26947Y86607D01*
X26900Y86590D01*
X26855Y86571D01*
X26819Y86554D01*
X26783Y86535D01*
X26755Y86516D01*
X26730Y86499D01*
X26708Y86482D01*
X26694Y86471D01*
X26680Y86460D01*
X26675Y86454D01*
X26672Y86452D01*
X26636Y86413D01*
X26605Y86368D01*
X26580Y86324D01*
X26555Y86277D01*
X26536Y86227D01*
X26522Y86180D01*
X26508Y86132D01*
X26497Y86085D01*
X26489Y86041D01*
X26483Y86002D01*
X26478Y85966D01*
X26475Y85932D01*
Y85908D01*
X26472Y85888D01*
Y85871D01*
X26478Y85771D01*
X26483Y85724D01*
X26489Y85680D01*
X26500Y85638D01*
X26508Y85599D01*
X26519Y85563D01*
X26530Y85533D01*
X26539Y85502D01*
X26550Y85477D01*
X26561Y85455D01*
X26569Y85438D01*
X26575Y85424D01*
X26580Y85413D01*
X26586Y85408D01*
Y85405D01*
X26630Y85341D01*
X26675Y85288D01*
X26722Y85247D01*
X26764Y85211D01*
X26800Y85186D01*
X26830Y85166D01*
X26841Y85161D01*
X26850Y85155D01*
X26852Y85152D01*
X26855D01*
X26919Y85130D01*
X26986Y85114D01*
X27055Y85100D01*
X27119Y85091D01*
X27149Y85089D01*
X27177Y85086D01*
X27199D01*
X27222Y85083D01*
X27263D01*
X27335Y85086D01*
X27402Y85091D01*
X27460Y85102D01*
X27508Y85114D01*
X27546Y85122D01*
X27577Y85133D01*
X27585Y85136D01*
X27594Y85138D01*
X27596Y85141D01*
X27599D01*
X27646Y85166D01*
X27691Y85194D01*
X27727Y85222D01*
X27760Y85250D01*
X27785Y85277D01*
X27805Y85297D01*
X27819Y85311D01*
X27821Y85316D01*
X27855Y85363D01*
X27880Y85411D01*
X27905Y85458D01*
X27921Y85505D01*
X27938Y85544D01*
X27946Y85577D01*
X27949Y85588D01*
X27952Y85597D01*
X27955Y85602D01*
Y85605D01*
X27544Y85733D01*
X27530Y85680D01*
X27513Y85635D01*
X27496Y85597D01*
X27480Y85566D01*
X27466Y85541D01*
X27452Y85524D01*
X27444Y85513D01*
X27441Y85510D01*
X27413Y85486D01*
X27380Y85466D01*
X27347Y85455D01*
X27313Y85444D01*
X27283Y85438D01*
X27258Y85436D01*
X27236D01*
X27186Y85438D01*
X27144Y85449D01*
X27105Y85463D01*
X27074Y85483D01*
X27052Y85499D01*
X27033Y85513D01*
X27022Y85524D01*
X27019Y85527D01*
X27005Y85547D01*
X26994Y85569D01*
X26975Y85622D01*
X26963Y85680D01*
X26952Y85735D01*
X26947Y85788D01*
Y85813D01*
X26944Y85833D01*
Y85849D01*
Y85863D01*
Y85871D01*
Y85874D01*
X26947Y85946D01*
X26955Y86007D01*
X26963Y86057D01*
X26977Y86099D01*
X26988Y86130D01*
X26997Y86155D01*
X27005Y86166D01*
X27008Y86171D01*
X27025Y86193D01*
X27041Y86216D01*
X27080Y86246D01*
X27122Y86271D01*
X27161Y86285D01*
X27197Y86296D01*
X27227Y86299D01*
X27236Y86302D01*
X27277D01*
X27302Y86296D01*
X27324Y86293D01*
X27344Y86288D01*
X27358Y86282D01*
X27372Y86277D01*
X27377Y86274D01*
X27380Y86271D01*
X27419Y86246D01*
X27449Y86218D01*
X27460Y86207D01*
X27471Y86196D01*
X27474Y86191D01*
X27477Y86188D01*
X27485Y86174D01*
X27494Y86160D01*
X27510Y86127D01*
X27516Y86113D01*
X27521Y86099D01*
X27524Y86091D01*
Y86088D01*
X27941Y86180D01*
X27924Y86224D01*
X27907Y86266D01*
X27888Y86302D01*
X27868Y86338D01*
X27849Y86371D01*
X27827Y86399D01*
X27807Y86427D01*
X27788Y86449D01*
X27769Y86471D01*
X27752Y86488D01*
X27735Y86504D01*
X27721Y86516D01*
X27710Y86527D01*
X27702Y86532D01*
X27696Y86538D01*
X27694D01*
X27660Y86557D01*
X27627Y86577D01*
X27555Y86604D01*
X27480Y86627D01*
X27405Y86640D01*
X27372Y86646D01*
X27341Y86649D01*
X27313Y86652D01*
X27288D01*
X27269Y86654D01*
D02*
G37*
G36*
X31297Y86629D02*
X30853D01*
Y85785D01*
X30275Y86629D01*
X29840D01*
Y85108D01*
X30281D01*
Y85946D01*
X30853Y85108D01*
X31297D01*
Y86629D01*
D02*
G37*
G36*
X33762D02*
X33032D01*
Y85108D01*
X33729D01*
X33779Y85111D01*
X33826Y85114D01*
X33876Y85119D01*
X33918Y85127D01*
X33957Y85136D01*
X33987Y85141D01*
X33998Y85144D01*
X34007D01*
X34009Y85147D01*
X34012D01*
X34054Y85161D01*
X34093Y85180D01*
X34126Y85200D01*
X34159Y85219D01*
X34184Y85238D01*
X34204Y85255D01*
X34215Y85266D01*
X34220Y85269D01*
X34257Y85305D01*
X34287Y85344D01*
X34315Y85380D01*
X34337Y85416D01*
X34354Y85447D01*
X34365Y85472D01*
X34373Y85488D01*
X34376Y85491D01*
Y85494D01*
X34395Y85549D01*
X34409Y85610D01*
X34420Y85674D01*
X34426Y85733D01*
X34431Y85788D01*
Y85810D01*
X34434Y85833D01*
Y85871D01*
X34431Y85930D01*
X34429Y85982D01*
X34423Y86032D01*
X34415Y86077D01*
X34406Y86113D01*
X34401Y86141D01*
X34398Y86152D01*
Y86160D01*
X34395Y86163D01*
Y86166D01*
X34379Y86216D01*
X34362Y86263D01*
X34343Y86304D01*
X34323Y86341D01*
X34304Y86371D01*
X34290Y86391D01*
X34279Y86404D01*
X34276Y86410D01*
X34243Y86446D01*
X34209Y86479D01*
X34173Y86507D01*
X34140Y86529D01*
X34109Y86549D01*
X34087Y86560D01*
X34071Y86568D01*
X34068Y86571D01*
X34065D01*
X34015Y86590D01*
X33960Y86604D01*
X33904Y86615D01*
X33848Y86621D01*
X33801Y86627D01*
X33782D01*
X33762Y86629D01*
D02*
G37*
G36*
X32774D02*
X31611D01*
Y85108D01*
X32083D01*
Y85730D01*
X32674D01*
Y86038D01*
X32083D01*
Y86302D01*
X32774D01*
Y86629D01*
D02*
G37*
G36*
X29115D02*
X28599D01*
X28030Y85108D01*
X28510D01*
X28585Y85358D01*
X29118D01*
X29193Y85108D01*
X29687D01*
X29115Y86629D01*
D02*
G37*
%LPD*%
G36*
X33682Y86282D02*
X33737Y86271D01*
X33782Y86257D01*
X33818Y86241D01*
X33846Y86221D01*
X33865Y86207D01*
X33879Y86196D01*
X33882Y86193D01*
X33896Y86174D01*
X33910Y86155D01*
X33929Y86105D01*
X33943Y86049D01*
X33951Y85996D01*
X33960Y85944D01*
Y85921D01*
X33962Y85902D01*
Y85885D01*
Y85874D01*
Y85866D01*
Y85863D01*
X33960Y85799D01*
X33957Y85746D01*
X33951Y85699D01*
X33946Y85663D01*
X33937Y85635D01*
X33932Y85616D01*
X33929Y85602D01*
X33926Y85599D01*
X33912Y85572D01*
X33896Y85547D01*
X33879Y85527D01*
X33862Y85513D01*
X33848Y85499D01*
X33837Y85491D01*
X33829Y85488D01*
X33826Y85486D01*
X33798Y85474D01*
X33768Y85469D01*
X33732Y85463D01*
X33699Y85458D01*
X33665D01*
X33640Y85455D01*
X33501D01*
Y86285D01*
X33618D01*
X33682Y86282D01*
D02*
G37*
G36*
X29018Y85688D02*
X28685D01*
X28851Y86232D01*
X29018Y85688D01*
D02*
G37*
%LPC*%
G36*
X11960Y88344D02*
D01*
Y87652D01*
X11338D01*
Y88244D01*
X11030D01*
Y87652D01*
X10766D01*
Y88344D01*
X11960D01*
X10439D01*
Y87180D01*
X11960D01*
Y88344D01*
D02*
G37*
G36*
Y86925D02*
D01*
Y86234D01*
X11338D01*
Y86825D01*
X11030D01*
Y86234D01*
X10766D01*
Y86925D01*
X11960D01*
X10439D01*
Y85762D01*
X11960D01*
Y86925D01*
D02*
G37*
G36*
X11233Y85506D02*
X10414D01*
Y83929D01*
D01*
Y84715D01*
X10417Y84648D01*
X10422Y84585D01*
X10433Y84524D01*
X10447Y84468D01*
X10461Y84415D01*
X10480Y84368D01*
X10497Y84324D01*
X10516Y84285D01*
X10536Y84251D01*
X10555Y84221D01*
X10575Y84196D01*
X10589Y84174D01*
X10603Y84157D01*
X10614Y84146D01*
X10619Y84138D01*
X10622Y84135D01*
X10664Y84099D01*
X10705Y84068D01*
X10752Y84040D01*
X10800Y84015D01*
X10850Y83996D01*
X10897Y83979D01*
X10944Y83966D01*
X10991Y83954D01*
X11033Y83946D01*
X11074Y83941D01*
X11111Y83935D01*
X11141Y83932D01*
X11166D01*
X11186Y83929D01*
X10414D01*
X11985D01*
X11202D01*
X11297Y83935D01*
X11383Y83946D01*
X11424Y83954D01*
X11460Y83963D01*
X11494Y83971D01*
X11524Y83982D01*
X11552Y83991D01*
X11577Y83999D01*
X11596Y84007D01*
X11613Y84015D01*
X11627Y84024D01*
X11638Y84027D01*
X11644Y84032D01*
X11646D01*
X11707Y84074D01*
X11760Y84121D01*
X11807Y84165D01*
X11841Y84210D01*
X11868Y84249D01*
X11888Y84279D01*
X11896Y84290D01*
X11902Y84299D01*
X11905Y84304D01*
Y84307D01*
X11932Y84374D01*
X11952Y84446D01*
X11966Y84515D01*
X11974Y84582D01*
X11980Y84615D01*
Y84643D01*
X11982Y84668D01*
X11985Y84690D01*
Y84732D01*
X11982Y84823D01*
X11971Y84907D01*
X11955Y84979D01*
X11946Y85009D01*
X11938Y85040D01*
X11930Y85068D01*
X11921Y85090D01*
X11913Y85109D01*
X11905Y85126D01*
X11899Y85140D01*
X11893Y85148D01*
X11891Y85154D01*
Y85157D01*
X11852Y85218D01*
X11810Y85268D01*
X11766Y85312D01*
X11724Y85348D01*
X11685Y85379D01*
X11655Y85398D01*
X11644Y85406D01*
X11635Y85412D01*
X11630Y85415D01*
X11627D01*
X11558Y85445D01*
X11485Y85467D01*
X11413Y85484D01*
X11344Y85495D01*
X11310Y85498D01*
X11283Y85501D01*
X11255Y85504D01*
X11233Y85506D01*
D02*
G37*
G36*
X11960Y83677D02*
X10439D01*
Y82219D01*
X11960D01*
Y82661D01*
X11122D01*
X11960Y83233D01*
Y83677D01*
D02*
G37*
G36*
X11233Y81964D02*
X10414D01*
X11188D01*
X11122Y81961D01*
X11058Y81956D01*
X11000Y81944D01*
X10944Y81931D01*
X10894Y81917D01*
X10847Y81897D01*
X10805Y81881D01*
X10766Y81861D01*
X10733Y81842D01*
X10702Y81822D01*
X10677Y81803D01*
X10655Y81789D01*
X10641Y81775D01*
X10627Y81764D01*
X10622Y81758D01*
X10619Y81756D01*
X10583Y81714D01*
X10553Y81672D01*
X10525Y81625D01*
X10500Y81578D01*
X10480Y81531D01*
X10464Y81481D01*
X10450Y81434D01*
X10439Y81386D01*
X10430Y81345D01*
X10425Y81303D01*
X10419Y81267D01*
X10417Y81234D01*
X10414Y81209D01*
Y81173D01*
X10417Y81106D01*
X10422Y81042D01*
X10433Y80981D01*
X10447Y80926D01*
X10461Y80873D01*
X10480Y80826D01*
X10497Y80781D01*
X10516Y80742D01*
X10536Y80709D01*
X10555Y80678D01*
X10575Y80653D01*
X10589Y80631D01*
X10603Y80615D01*
X10614Y80604D01*
X10619Y80595D01*
X10622Y80592D01*
X10664Y80556D01*
X10705Y80526D01*
X10752Y80498D01*
X10800Y80473D01*
X10850Y80454D01*
X10897Y80437D01*
X10944Y80423D01*
X10991Y80412D01*
X11033Y80404D01*
X11074Y80398D01*
X11111Y80393D01*
X11141Y80390D01*
X11166D01*
X11186Y80387D01*
X10414D01*
X11985D01*
Y81189D01*
X11982Y81281D01*
X11971Y81364D01*
X11955Y81436D01*
X11946Y81467D01*
X11938Y81497D01*
X11930Y81525D01*
X11921Y81547D01*
X11913Y81567D01*
X11905Y81584D01*
X11899Y81597D01*
X11893Y81606D01*
X11891Y81611D01*
Y81614D01*
X11852Y81675D01*
X11810Y81725D01*
X11766Y81770D01*
X11724Y81806D01*
X11685Y81836D01*
X11655Y81856D01*
X11644Y81864D01*
X11635Y81869D01*
X11630Y81872D01*
X11627D01*
X11558Y81903D01*
X11485Y81925D01*
X11413Y81942D01*
X11344Y81953D01*
X11310Y81956D01*
X11283Y81958D01*
X11255Y81961D01*
X11233Y81964D01*
D02*
G37*
%LPD*%
G36*
X11122Y85504D02*
X11058Y85498D01*
X11000Y85487D01*
X10944Y85473D01*
X10894Y85459D01*
X10847Y85440D01*
X10805Y85423D01*
X10766Y85404D01*
X10733Y85384D01*
X10702Y85365D01*
X10677Y85345D01*
X10655Y85331D01*
X10641Y85318D01*
X10627Y85306D01*
X10622Y85301D01*
X10619Y85298D01*
X10583Y85256D01*
X10553Y85215D01*
X10525Y85168D01*
X10500Y85120D01*
X10480Y85073D01*
X10464Y85023D01*
X10450Y84976D01*
X10439Y84929D01*
X10430Y84887D01*
X10425Y84846D01*
X10419Y84809D01*
X10417Y84776D01*
X10414Y84751D01*
Y85506D01*
X11188D01*
X11122Y85504D01*
D02*
G37*
G36*
X11272Y85034D02*
X11310Y85029D01*
X11347Y85023D01*
X11377Y85018D01*
X11408Y85009D01*
X11433Y85001D01*
X11455Y84995D01*
X11474Y84987D01*
X11491Y84979D01*
X11505Y84971D01*
X11516Y84965D01*
X11530Y84954D01*
X11535Y84951D01*
X11569Y84918D01*
X11591Y84879D01*
X11608Y84840D01*
X11621Y84804D01*
X11627Y84771D01*
X11630Y84743D01*
X11632Y84732D01*
Y84718D01*
X11627Y84665D01*
X11616Y84618D01*
X11602Y84576D01*
X11583Y84543D01*
X11563Y84518D01*
X11549Y84499D01*
X11538Y84485D01*
X11533Y84482D01*
X11513Y84468D01*
X11491Y84454D01*
X11438Y84435D01*
X11383Y84418D01*
X11330Y84410D01*
X11280Y84404D01*
X11258Y84401D01*
X11238D01*
X11224Y84399D01*
X11213D01*
X11205D01*
X11202D01*
X11161D01*
X11122Y84401D01*
X11086Y84407D01*
X11052Y84412D01*
X11024Y84418D01*
X10997Y84426D01*
X10972Y84435D01*
X10950Y84443D01*
X10916Y84457D01*
X10891Y84471D01*
X10877Y84482D01*
X10872Y84485D01*
X10838Y84518D01*
X10814Y84557D01*
X10794Y84596D01*
X10783Y84632D01*
X10775Y84662D01*
X10772Y84690D01*
X10769Y84707D01*
Y84712D01*
X10775Y84765D01*
X10786Y84812D01*
X10800Y84854D01*
X10819Y84887D01*
X10838Y84912D01*
X10852Y84932D01*
X10863Y84946D01*
X10869Y84948D01*
X10911Y84979D01*
X10961Y85001D01*
X11013Y85015D01*
X11063Y85026D01*
X11111Y85032D01*
X11130Y85034D01*
X11147Y85037D01*
X11163D01*
X11174D01*
X11180D01*
X11183D01*
X11230D01*
X11272Y85034D01*
D02*
G37*
G36*
X10439Y82655D02*
Y83233D01*
X11283D01*
X10439Y82655D01*
D02*
G37*
G36*
X11272Y81492D02*
X11310Y81486D01*
X11347Y81481D01*
X11377Y81475D01*
X11408Y81467D01*
X11433Y81459D01*
X11455Y81453D01*
X11474Y81445D01*
X11491Y81436D01*
X11505Y81428D01*
X11516Y81423D01*
X11530Y81411D01*
X11535Y81409D01*
X11569Y81375D01*
X11591Y81336D01*
X11608Y81298D01*
X11621Y81261D01*
X11627Y81228D01*
X11630Y81200D01*
X11632Y81189D01*
Y81175D01*
X11627Y81123D01*
X11616Y81075D01*
X11602Y81034D01*
X11583Y81001D01*
X11563Y80976D01*
X11549Y80956D01*
X11538Y80942D01*
X11533Y80939D01*
X11513Y80926D01*
X11491Y80912D01*
X11438Y80892D01*
X11383Y80876D01*
X11330Y80867D01*
X11280Y80862D01*
X11258Y80859D01*
X11238D01*
X11224Y80856D01*
X11213D01*
X11205D01*
X11202D01*
X11161D01*
X11122Y80859D01*
X11086Y80864D01*
X11052Y80870D01*
X11024Y80876D01*
X10997Y80884D01*
X10972Y80892D01*
X10950Y80901D01*
X10916Y80914D01*
X10891Y80928D01*
X10877Y80939D01*
X10872Y80942D01*
X10838Y80976D01*
X10814Y81014D01*
X10794Y81053D01*
X10783Y81089D01*
X10775Y81120D01*
X10772Y81148D01*
X10769Y81164D01*
Y81170D01*
X10775Y81223D01*
X10786Y81270D01*
X10800Y81311D01*
X10819Y81345D01*
X10838Y81370D01*
X10852Y81389D01*
X10863Y81403D01*
X10869Y81406D01*
X10911Y81436D01*
X10961Y81459D01*
X11013Y81472D01*
X11063Y81484D01*
X11111Y81489D01*
X11130Y81492D01*
X11147Y81495D01*
X11163D01*
X11174D01*
X11180D01*
X11183D01*
X11230D01*
X11272Y81492D01*
D02*
G37*
G36*
X11985Y80387D02*
X11202D01*
X11297Y80393D01*
X11383Y80404D01*
X11424Y80412D01*
X11460Y80420D01*
X11494Y80429D01*
X11524Y80440D01*
X11552Y80448D01*
X11577Y80456D01*
X11596Y80465D01*
X11613Y80473D01*
X11627Y80481D01*
X11638Y80484D01*
X11644Y80490D01*
X11646D01*
X11707Y80531D01*
X11760Y80579D01*
X11807Y80623D01*
X11841Y80667D01*
X11868Y80706D01*
X11888Y80737D01*
X11896Y80748D01*
X11902Y80756D01*
X11905Y80762D01*
Y80765D01*
X11932Y80831D01*
X11952Y80903D01*
X11966Y80973D01*
X11974Y81039D01*
X11980Y81073D01*
Y81100D01*
X11982Y81125D01*
X11985Y81148D01*
Y80387D01*
D02*
G37*
%LPC*%
G36*
X93240Y17132D02*
X93212D01*
X93145Y17130D01*
X93082Y17124D01*
X93023Y17113D01*
X92968Y17102D01*
X92918Y17085D01*
X92871Y17068D01*
X92826Y17049D01*
X92790Y17032D01*
X92754Y17013D01*
X92726Y16994D01*
X92701Y16977D01*
X92679Y16960D01*
X92665Y16949D01*
X92651Y16938D01*
X92646Y16932D01*
X92643Y16930D01*
X92607Y16891D01*
X92576Y16846D01*
X92551Y16802D01*
X92526Y16755D01*
X92507Y16705D01*
X92493Y16658D01*
X92479Y16610D01*
X92468Y16563D01*
X92460Y16519D01*
X92454Y16480D01*
X92449Y16444D01*
X92446Y16411D01*
Y16386D01*
X92443Y16366D01*
Y16349D01*
X92449Y16250D01*
X92454Y16202D01*
X92460Y16158D01*
X92471Y16116D01*
X92479Y16077D01*
X92490Y16041D01*
X92501Y16011D01*
X92510Y15980D01*
X92521Y15955D01*
X92532Y15933D01*
X92540Y15916D01*
X92546Y15902D01*
X92551Y15891D01*
X92557Y15886D01*
Y15883D01*
X92601Y15819D01*
X92646Y15766D01*
X92693Y15725D01*
X92735Y15689D01*
X92771Y15664D01*
X92801Y15644D01*
X92812Y15639D01*
X92821Y15633D01*
X92823Y15630D01*
X92826D01*
X92890Y15608D01*
X92957Y15592D01*
X93026Y15578D01*
X93090Y15569D01*
X93120Y15567D01*
X93148Y15564D01*
X93170D01*
X93193Y15561D01*
X93234D01*
X93306Y15564D01*
X93373Y15569D01*
X93431Y15580D01*
X93479Y15592D01*
X93517Y15600D01*
X93548Y15611D01*
X93556Y15614D01*
X93565Y15617D01*
X93567Y15619D01*
X93570D01*
X93617Y15644D01*
X93662Y15672D01*
X93698Y15700D01*
X93731Y15728D01*
X93756Y15755D01*
X93776Y15775D01*
X93790Y15789D01*
X93792Y15794D01*
X93826Y15841D01*
X93851Y15889D01*
X93876Y15936D01*
X93892Y15983D01*
X93909Y16022D01*
X93917Y16055D01*
X93920Y16066D01*
X93923Y16075D01*
X93926Y16080D01*
Y16083D01*
X93515Y16211D01*
X93501Y16158D01*
X93484Y16113D01*
X93467Y16075D01*
X93451Y16044D01*
X93437Y16019D01*
X93423Y16002D01*
X93415Y15991D01*
X93412Y15989D01*
X93384Y15964D01*
X93351Y15944D01*
X93318Y15933D01*
X93284Y15922D01*
X93254Y15916D01*
X93229Y15914D01*
X93206D01*
X93157Y15916D01*
X93115Y15927D01*
X93076Y15941D01*
X93045Y15961D01*
X93023Y15977D01*
X93004Y15991D01*
X92993Y16002D01*
X92990Y16005D01*
X92976Y16025D01*
X92965Y16047D01*
X92946Y16100D01*
X92934Y16158D01*
X92923Y16213D01*
X92918Y16266D01*
Y16291D01*
X92915Y16311D01*
Y16327D01*
Y16341D01*
Y16349D01*
Y16352D01*
X92918Y16424D01*
X92926Y16485D01*
X92934Y16535D01*
X92948Y16577D01*
X92959Y16608D01*
X92968Y16633D01*
X92976Y16644D01*
X92979Y16649D01*
X92996Y16671D01*
X93012Y16694D01*
X93051Y16724D01*
X93093Y16749D01*
X93132Y16763D01*
X93168Y16774D01*
X93198Y16777D01*
X93206Y16780D01*
X93248D01*
X93273Y16774D01*
X93295Y16771D01*
X93315Y16766D01*
X93329Y16760D01*
X93343Y16755D01*
X93348Y16752D01*
X93351Y16749D01*
X93390Y16724D01*
X93420Y16696D01*
X93431Y16685D01*
X93442Y16674D01*
X93445Y16669D01*
X93448Y16666D01*
X93456Y16652D01*
X93465Y16638D01*
X93481Y16605D01*
X93487Y16591D01*
X93492Y16577D01*
X93495Y16569D01*
Y16566D01*
X93912Y16658D01*
X93895Y16702D01*
X93878Y16744D01*
X93859Y16780D01*
X93839Y16816D01*
X93820Y16849D01*
X93798Y16877D01*
X93778Y16905D01*
X93759Y16927D01*
X93740Y16949D01*
X93723Y16966D01*
X93706Y16982D01*
X93692Y16994D01*
X93681Y17005D01*
X93673Y17010D01*
X93667Y17016D01*
X93665D01*
X93631Y17035D01*
X93598Y17055D01*
X93526Y17082D01*
X93451Y17105D01*
X93376Y17118D01*
X93343Y17124D01*
X93312Y17127D01*
X93284Y17130D01*
X93259D01*
X93240Y17132D01*
D02*
G37*
G36*
X91777Y17107D02*
X91260D01*
X90691Y15586D01*
X91172D01*
X91246Y15836D01*
X91780D01*
X91854Y15586D01*
X92349D01*
X91777Y17107D01*
D02*
G37*
G36*
X89925D02*
X89195D01*
Y15586D01*
X89892D01*
X89942Y15589D01*
X89989Y15592D01*
X90039Y15597D01*
X90080Y15605D01*
X90119Y15614D01*
X90150Y15619D01*
X90161Y15622D01*
X90169D01*
X90172Y15625D01*
X90175D01*
X90217Y15639D01*
X90255Y15658D01*
X90289Y15678D01*
X90322Y15697D01*
X90347Y15716D01*
X90366Y15733D01*
X90378Y15744D01*
X90383Y15747D01*
X90419Y15783D01*
X90450Y15822D01*
X90477Y15858D01*
X90500Y15894D01*
X90516Y15925D01*
X90527Y15950D01*
X90536Y15966D01*
X90539Y15969D01*
Y15972D01*
X90558Y16027D01*
X90572Y16088D01*
X90583Y16152D01*
X90589Y16211D01*
X90594Y16266D01*
Y16288D01*
X90597Y16311D01*
Y16349D01*
X90594Y16408D01*
X90591Y16460D01*
X90586Y16510D01*
X90577Y16555D01*
X90569Y16591D01*
X90564Y16619D01*
X90561Y16630D01*
Y16638D01*
X90558Y16641D01*
Y16644D01*
X90541Y16694D01*
X90525Y16741D01*
X90505Y16783D01*
X90486Y16819D01*
X90466Y16849D01*
X90452Y16869D01*
X90441Y16882D01*
X90439Y16888D01*
X90405Y16924D01*
X90372Y16957D01*
X90336Y16985D01*
X90303Y17007D01*
X90272Y17027D01*
X90250Y17038D01*
X90233Y17046D01*
X90230Y17049D01*
X90228D01*
X90178Y17068D01*
X90122Y17082D01*
X90067Y17093D01*
X90011Y17099D01*
X89964Y17105D01*
X89944D01*
X89925Y17107D01*
D02*
G37*
%LPD*%
G36*
X91680Y16166D02*
X91346D01*
X91513Y16710D01*
X91680Y16166D01*
D02*
G37*
G36*
X89844Y16760D02*
X89900Y16749D01*
X89944Y16735D01*
X89981Y16719D01*
X90008Y16699D01*
X90028Y16685D01*
X90042Y16674D01*
X90044Y16671D01*
X90058Y16652D01*
X90072Y16633D01*
X90092Y16583D01*
X90105Y16527D01*
X90114Y16474D01*
X90122Y16422D01*
Y16399D01*
X90125Y16380D01*
Y16363D01*
Y16352D01*
Y16344D01*
Y16341D01*
X90122Y16277D01*
X90119Y16225D01*
X90114Y16177D01*
X90108Y16141D01*
X90100Y16113D01*
X90094Y16094D01*
X90092Y16080D01*
X90089Y16077D01*
X90075Y16050D01*
X90058Y16025D01*
X90042Y16005D01*
X90025Y15991D01*
X90011Y15977D01*
X90000Y15969D01*
X89992Y15966D01*
X89989Y15964D01*
X89961Y15952D01*
X89931Y15947D01*
X89894Y15941D01*
X89861Y15936D01*
X89828D01*
X89803Y15933D01*
X89664D01*
Y16763D01*
X89781D01*
X89844Y16760D01*
D02*
G37*
%LPC*%
G36*
X93423Y41460D02*
X93395D01*
X93329Y41458D01*
X93265Y41452D01*
X93207Y41441D01*
X93151Y41430D01*
X93101Y41413D01*
X93054Y41396D01*
X93009Y41377D01*
X92973Y41360D01*
X92937Y41341D01*
X92909Y41322D01*
X92884Y41305D01*
X92862Y41288D01*
X92848Y41277D01*
X92835Y41266D01*
X92829Y41260D01*
X92826Y41258D01*
X92790Y41219D01*
X92760Y41174D01*
X92735Y41130D01*
X92710Y41083D01*
X92690Y41033D01*
X92676Y40986D01*
X92662Y40938D01*
X92651Y40891D01*
X92643Y40847D01*
X92637Y40808D01*
X92632Y40772D01*
X92629Y40739D01*
Y40714D01*
X92626Y40694D01*
Y40677D01*
X92632Y40577D01*
X92637Y40530D01*
X92643Y40486D01*
X92654Y40444D01*
X92662Y40405D01*
X92673Y40369D01*
X92685Y40339D01*
X92693Y40308D01*
X92704Y40283D01*
X92715Y40261D01*
X92723Y40244D01*
X92729Y40230D01*
X92735Y40219D01*
X92740Y40214D01*
Y40211D01*
X92785Y40147D01*
X92829Y40094D01*
X92876Y40053D01*
X92918Y40017D01*
X92954Y39992D01*
X92984Y39972D01*
X92996Y39967D01*
X93004Y39961D01*
X93007Y39958D01*
X93009D01*
X93073Y39936D01*
X93140Y39920D01*
X93209Y39906D01*
X93273Y39897D01*
X93304Y39895D01*
X93331Y39892D01*
X93354D01*
X93376Y39889D01*
X93418D01*
X93490Y39892D01*
X93556Y39897D01*
X93615Y39908D01*
X93662Y39920D01*
X93701Y39928D01*
X93731Y39939D01*
X93740Y39942D01*
X93748Y39945D01*
X93751Y39947D01*
X93753D01*
X93801Y39972D01*
X93845Y40000D01*
X93881Y40028D01*
X93914Y40056D01*
X93939Y40083D01*
X93959Y40103D01*
X93973Y40117D01*
X93976Y40122D01*
X94009Y40169D01*
X94034Y40217D01*
X94059Y40264D01*
X94075Y40311D01*
X94092Y40350D01*
X94100Y40383D01*
X94103Y40394D01*
X94106Y40403D01*
X94109Y40408D01*
Y40411D01*
X93698Y40539D01*
X93684Y40486D01*
X93667Y40441D01*
X93651Y40403D01*
X93634Y40372D01*
X93620Y40347D01*
X93606Y40330D01*
X93598Y40319D01*
X93595Y40317D01*
X93567Y40292D01*
X93534Y40272D01*
X93501Y40261D01*
X93467Y40250D01*
X93437Y40244D01*
X93412Y40242D01*
X93390D01*
X93340Y40244D01*
X93298Y40255D01*
X93259Y40269D01*
X93229Y40289D01*
X93207Y40305D01*
X93187Y40319D01*
X93176Y40330D01*
X93173Y40333D01*
X93159Y40353D01*
X93148Y40375D01*
X93129Y40428D01*
X93118Y40486D01*
X93107Y40541D01*
X93101Y40594D01*
Y40619D01*
X93098Y40639D01*
Y40655D01*
Y40669D01*
Y40677D01*
Y40680D01*
X93101Y40752D01*
X93109Y40813D01*
X93118Y40863D01*
X93132Y40905D01*
X93143Y40936D01*
X93151Y40961D01*
X93159Y40972D01*
X93162Y40977D01*
X93179Y40999D01*
X93195Y41022D01*
X93234Y41052D01*
X93276Y41077D01*
X93315Y41091D01*
X93351Y41102D01*
X93381Y41105D01*
X93390Y41108D01*
X93431D01*
X93456Y41102D01*
X93479Y41099D01*
X93498Y41094D01*
X93512Y41088D01*
X93526Y41083D01*
X93531Y41080D01*
X93534Y41077D01*
X93573Y41052D01*
X93604Y41024D01*
X93615Y41013D01*
X93626Y41002D01*
X93629Y40997D01*
X93631Y40994D01*
X93640Y40980D01*
X93648Y40966D01*
X93665Y40933D01*
X93670Y40919D01*
X93676Y40905D01*
X93678Y40897D01*
Y40894D01*
X94095Y40986D01*
X94078Y41030D01*
X94062Y41072D01*
X94042Y41108D01*
X94023Y41144D01*
X94003Y41177D01*
X93981Y41205D01*
X93962Y41233D01*
X93942Y41255D01*
X93923Y41277D01*
X93906Y41294D01*
X93889Y41310D01*
X93876Y41322D01*
X93864Y41333D01*
X93856Y41338D01*
X93851Y41344D01*
X93848D01*
X93814Y41363D01*
X93781Y41383D01*
X93709Y41410D01*
X93634Y41433D01*
X93559Y41446D01*
X93526Y41452D01*
X93495Y41455D01*
X93467Y41458D01*
X93442D01*
X93423Y41460D01*
D02*
G37*
G36*
X91763Y41435D02*
X91033D01*
Y39914D01*
X91730D01*
X91780Y39917D01*
X91827Y39920D01*
X91877Y39925D01*
X91918Y39933D01*
X91957Y39942D01*
X91988Y39947D01*
X91999Y39950D01*
X92007D01*
X92010Y39953D01*
X92013D01*
X92054Y39967D01*
X92093Y39986D01*
X92127Y40006D01*
X92160Y40025D01*
X92185Y40044D01*
X92204Y40061D01*
X92215Y40072D01*
X92221Y40075D01*
X92257Y40111D01*
X92288Y40150D01*
X92315Y40186D01*
X92338Y40222D01*
X92354Y40253D01*
X92365Y40278D01*
X92374Y40294D01*
X92376Y40297D01*
Y40300D01*
X92396Y40355D01*
X92410Y40416D01*
X92421Y40480D01*
X92426Y40539D01*
X92432Y40594D01*
Y40616D01*
X92435Y40639D01*
Y40677D01*
X92432Y40736D01*
X92429Y40788D01*
X92424Y40838D01*
X92415Y40883D01*
X92407Y40919D01*
X92401Y40947D01*
X92399Y40958D01*
Y40966D01*
X92396Y40969D01*
Y40972D01*
X92379Y41022D01*
X92363Y41069D01*
X92343Y41111D01*
X92324Y41147D01*
X92304Y41177D01*
X92290Y41197D01*
X92279Y41210D01*
X92276Y41216D01*
X92243Y41252D01*
X92210Y41285D01*
X92174Y41313D01*
X92140Y41335D01*
X92110Y41355D01*
X92088Y41366D01*
X92071Y41374D01*
X92068Y41377D01*
X92065D01*
X92016Y41396D01*
X91960Y41410D01*
X91904Y41421D01*
X91849Y41427D01*
X91802Y41433D01*
X91782D01*
X91763Y41435D01*
D02*
G37*
G36*
X90305D02*
X89789D01*
X89220Y39914D01*
X89700D01*
X89775Y40164D01*
X90308D01*
X90383Y39914D01*
X90877D01*
X90305Y41435D01*
D02*
G37*
%LPD*%
G36*
X91682Y41088D02*
X91738Y41077D01*
X91782Y41063D01*
X91818Y41047D01*
X91846Y41027D01*
X91866Y41013D01*
X91879Y41002D01*
X91882Y40999D01*
X91896Y40980D01*
X91910Y40961D01*
X91929Y40911D01*
X91943Y40855D01*
X91952Y40802D01*
X91960Y40750D01*
Y40727D01*
X91963Y40708D01*
Y40691D01*
Y40680D01*
Y40672D01*
Y40669D01*
X91960Y40605D01*
X91957Y40553D01*
X91952Y40505D01*
X91946Y40469D01*
X91938Y40441D01*
X91932Y40422D01*
X91929Y40408D01*
X91927Y40405D01*
X91913Y40378D01*
X91896Y40353D01*
X91879Y40333D01*
X91863Y40319D01*
X91849Y40305D01*
X91838Y40297D01*
X91830Y40294D01*
X91827Y40292D01*
X91799Y40280D01*
X91768Y40275D01*
X91732Y40269D01*
X91699Y40264D01*
X91666D01*
X91641Y40261D01*
X91502D01*
Y41091D01*
X91619D01*
X91682Y41088D01*
D02*
G37*
G36*
X90208Y40494D02*
X89875D01*
X90042Y41038D01*
X90208Y40494D01*
D02*
G37*
%LPC*%
G36*
X91250Y55286D02*
X91232D01*
X91188Y55284D01*
X91145Y55281D01*
X91106Y55273D01*
X91069Y55266D01*
X91036Y55255D01*
X91004Y55244D01*
X90975Y55231D01*
X90951Y55219D01*
X90926Y55206D01*
X90908Y55194D01*
X90891Y55182D01*
X90876Y55171D01*
X90867Y55164D01*
X90858Y55156D01*
X90854Y55153D01*
X90852Y55151D01*
X90828Y55125D01*
X90808Y55095D01*
X90791Y55066D01*
X90775Y55034D01*
X90762Y55001D01*
X90752Y54969D01*
X90743Y54938D01*
X90736Y54907D01*
X90730Y54877D01*
X90726Y54851D01*
X90723Y54827D01*
X90721Y54805D01*
Y54788D01*
X90719Y54775D01*
Y54764D01*
X90723Y54697D01*
X90726Y54666D01*
X90730Y54636D01*
X90738Y54608D01*
X90743Y54582D01*
X90751Y54558D01*
X90758Y54538D01*
X90763Y54518D01*
X90771Y54501D01*
X90778Y54486D01*
X90784Y54475D01*
X90788Y54466D01*
X90791Y54458D01*
X90795Y54455D01*
Y54453D01*
X90825Y54410D01*
X90854Y54375D01*
X90886Y54347D01*
X90913Y54323D01*
X90938Y54307D01*
X90958Y54294D01*
X90965Y54290D01*
X90971Y54286D01*
X90973Y54284D01*
X90975D01*
X91017Y54270D01*
X91062Y54258D01*
X91108Y54249D01*
X91150Y54244D01*
X91171Y54242D01*
X91189Y54240D01*
X91204D01*
X91219Y54238D01*
X91247D01*
X91295Y54240D01*
X91339Y54244D01*
X91378Y54251D01*
X91410Y54258D01*
X91436Y54264D01*
X91456Y54271D01*
X91462Y54273D01*
X91467Y54275D01*
X91469Y54277D01*
X91471D01*
X91502Y54294D01*
X91532Y54312D01*
X91556Y54331D01*
X91578Y54349D01*
X91595Y54368D01*
X91608Y54381D01*
X91617Y54390D01*
X91619Y54394D01*
X91641Y54425D01*
X91658Y54457D01*
X91674Y54488D01*
X91686Y54520D01*
X91697Y54545D01*
X91702Y54568D01*
X91704Y54575D01*
X91706Y54581D01*
X91708Y54584D01*
Y54586D01*
X91434Y54671D01*
X91425Y54636D01*
X91413Y54607D01*
X91402Y54581D01*
X91391Y54560D01*
X91382Y54544D01*
X91373Y54532D01*
X91367Y54525D01*
X91365Y54523D01*
X91347Y54507D01*
X91325Y54494D01*
X91302Y54486D01*
X91280Y54479D01*
X91260Y54475D01*
X91243Y54473D01*
X91228D01*
X91195Y54475D01*
X91167Y54482D01*
X91141Y54492D01*
X91121Y54505D01*
X91106Y54516D01*
X91093Y54525D01*
X91086Y54532D01*
X91084Y54534D01*
X91075Y54547D01*
X91067Y54562D01*
X91054Y54597D01*
X91047Y54636D01*
X91039Y54673D01*
X91036Y54708D01*
Y54725D01*
X91034Y54738D01*
Y54749D01*
Y54758D01*
Y54764D01*
Y54766D01*
X91036Y54814D01*
X91041Y54855D01*
X91047Y54888D01*
X91056Y54916D01*
X91063Y54936D01*
X91069Y54953D01*
X91075Y54960D01*
X91076Y54964D01*
X91088Y54979D01*
X91099Y54994D01*
X91125Y55014D01*
X91152Y55031D01*
X91178Y55040D01*
X91202Y55047D01*
X91223Y55049D01*
X91228Y55051D01*
X91256D01*
X91273Y55047D01*
X91287Y55045D01*
X91300Y55042D01*
X91310Y55038D01*
X91319Y55034D01*
X91323Y55032D01*
X91325Y55031D01*
X91350Y55014D01*
X91371Y54995D01*
X91378Y54988D01*
X91386Y54981D01*
X91387Y54977D01*
X91389Y54975D01*
X91395Y54966D01*
X91400Y54957D01*
X91412Y54934D01*
X91415Y54925D01*
X91419Y54916D01*
X91421Y54910D01*
Y54908D01*
X91699Y54969D01*
X91687Y54999D01*
X91676Y55027D01*
X91663Y55051D01*
X91650Y55075D01*
X91637Y55097D01*
X91623Y55116D01*
X91610Y55134D01*
X91597Y55149D01*
X91584Y55164D01*
X91573Y55175D01*
X91562Y55186D01*
X91552Y55194D01*
X91545Y55201D01*
X91539Y55205D01*
X91536Y55208D01*
X91534D01*
X91512Y55221D01*
X91489Y55234D01*
X91441Y55253D01*
X91391Y55268D01*
X91341Y55277D01*
X91319Y55281D01*
X91299Y55282D01*
X91280Y55284D01*
X91263D01*
X91250Y55286D01*
D02*
G37*
G36*
X94298Y55269D02*
X93474D01*
Y55031D01*
X93974D01*
X93946Y54995D01*
X93921Y54960D01*
X93896Y54925D01*
X93874Y54894D01*
X93854Y54862D01*
X93835Y54832D01*
X93819Y54805D01*
X93804Y54779D01*
X93791Y54755D01*
X93780Y54732D01*
X93771Y54714D01*
X93761Y54699D01*
X93756Y54686D01*
X93752Y54677D01*
X93748Y54671D01*
Y54669D01*
X93735Y54638D01*
X93722Y54605D01*
X93702Y54534D01*
X93684Y54466D01*
X93676Y54432D01*
X93669Y54399D01*
X93663Y54370D01*
X93658Y54342D01*
X93654Y54318D01*
X93650Y54295D01*
X93648Y54279D01*
X93647Y54266D01*
X93645Y54258D01*
Y54255D01*
X93926D01*
X93932Y54320D01*
X93941Y54377D01*
X93948Y54431D01*
X93954Y54453D01*
X93958Y54475D01*
X93961Y54495D01*
X93967Y54512D01*
X93971Y54527D01*
X93972Y54540D01*
X93976Y54549D01*
X93978Y54557D01*
X93980Y54560D01*
Y54562D01*
X94000Y54623D01*
X94022Y54681D01*
X94045Y54732D01*
X94056Y54757D01*
X94067Y54779D01*
X94078Y54797D01*
X94087Y54816D01*
X94095Y54831D01*
X94102Y54844D01*
X94109Y54855D01*
X94113Y54862D01*
X94115Y54866D01*
X94117Y54868D01*
X94145Y54908D01*
X94176Y54947D01*
X94206Y54984D01*
X94235Y55014D01*
X94259Y55040D01*
X94280Y55060D01*
X94287Y55068D01*
X94293Y55073D01*
X94296Y55075D01*
X94298Y55077D01*
Y55269D01*
D02*
G37*
G36*
X92454Y55286D02*
X92221D01*
X92202Y55251D01*
X92182Y55219D01*
X92161Y55192D01*
X92141Y55169D01*
X92123Y55149D01*
X92108Y55134D01*
X92099Y55127D01*
X92097Y55123D01*
X92095D01*
X92063Y55099D01*
X92026Y55079D01*
X91989Y55060D01*
X91954Y55044D01*
X91923Y55031D01*
X91908Y55025D01*
X91897Y55019D01*
X91886Y55018D01*
X91878Y55014D01*
X91874Y55012D01*
X91873D01*
Y54782D01*
X91908Y54794D01*
X91939Y54803D01*
X91965Y54814D01*
X91989Y54823D01*
X92008Y54831D01*
X92023Y54836D01*
X92030Y54840D01*
X92034Y54842D01*
X92058Y54855D01*
X92082Y54869D01*
X92106Y54884D01*
X92126Y54897D01*
X92143Y54910D01*
X92158Y54919D01*
X92165Y54927D01*
X92169Y54929D01*
Y54255D01*
X92454D01*
Y55286D01*
D02*
G37*
G36*
X90143Y55269D02*
X89656D01*
Y54255D01*
X90121D01*
X90154Y54257D01*
X90186Y54258D01*
X90219Y54262D01*
X90247Y54268D01*
X90273Y54273D01*
X90293Y54277D01*
X90301Y54279D01*
X90306D01*
X90308Y54281D01*
X90310D01*
X90338Y54290D01*
X90364Y54303D01*
X90386Y54316D01*
X90408Y54329D01*
X90425Y54342D01*
X90438Y54353D01*
X90445Y54360D01*
X90449Y54362D01*
X90473Y54386D01*
X90493Y54412D01*
X90512Y54436D01*
X90526Y54460D01*
X90538Y54481D01*
X90545Y54497D01*
X90551Y54508D01*
X90552Y54510D01*
Y54512D01*
X90565Y54549D01*
X90575Y54590D01*
X90582Y54632D01*
X90586Y54671D01*
X90589Y54708D01*
Y54723D01*
X90591Y54738D01*
Y54764D01*
X90589Y54803D01*
X90588Y54838D01*
X90584Y54871D01*
X90578Y54901D01*
X90573Y54925D01*
X90569Y54944D01*
X90567Y54951D01*
Y54957D01*
X90565Y54958D01*
Y54960D01*
X90554Y54994D01*
X90543Y55025D01*
X90530Y55053D01*
X90517Y55077D01*
X90504Y55097D01*
X90495Y55110D01*
X90488Y55119D01*
X90486Y55123D01*
X90464Y55147D01*
X90441Y55169D01*
X90417Y55188D01*
X90395Y55203D01*
X90375Y55216D01*
X90360Y55223D01*
X90349Y55229D01*
X90347Y55231D01*
X90345D01*
X90312Y55244D01*
X90275Y55253D01*
X90238Y55260D01*
X90201Y55264D01*
X90169Y55268D01*
X90156D01*
X90143Y55269D01*
D02*
G37*
G36*
X89171D02*
X88827D01*
X88447Y54255D01*
X88767D01*
X88817Y54421D01*
X89173D01*
X89223Y54255D01*
X89552D01*
X89171Y55269D01*
D02*
G37*
G36*
X93419Y54147D02*
X92695D01*
Y54077D01*
X93419D01*
Y54147D01*
D02*
G37*
%LPD*%
G36*
X90089Y55038D02*
X90127Y55031D01*
X90156Y55021D01*
X90180Y55010D01*
X90199Y54997D01*
X90212Y54988D01*
X90221Y54981D01*
X90223Y54979D01*
X90232Y54966D01*
X90241Y54953D01*
X90254Y54919D01*
X90264Y54882D01*
X90269Y54847D01*
X90275Y54812D01*
Y54797D01*
X90276Y54784D01*
Y54773D01*
Y54766D01*
Y54760D01*
Y54758D01*
X90275Y54716D01*
X90273Y54681D01*
X90269Y54649D01*
X90265Y54625D01*
X90260Y54607D01*
X90256Y54594D01*
X90254Y54584D01*
X90252Y54582D01*
X90243Y54564D01*
X90232Y54547D01*
X90221Y54534D01*
X90210Y54525D01*
X90201Y54516D01*
X90193Y54510D01*
X90188Y54508D01*
X90186Y54507D01*
X90167Y54499D01*
X90147Y54495D01*
X90123Y54492D01*
X90101Y54488D01*
X90078D01*
X90062Y54486D01*
X89969D01*
Y55040D01*
X90047D01*
X90089Y55038D01*
D02*
G37*
G36*
X89106Y54642D02*
X88884D01*
X88995Y55005D01*
X89106Y54642D01*
D02*
G37*
%LPC*%
G36*
X91250Y65561D02*
X91232D01*
X91188Y65559D01*
X91145Y65556D01*
X91106Y65548D01*
X91069Y65541D01*
X91036Y65530D01*
X91004Y65519D01*
X90975Y65506D01*
X90951Y65494D01*
X90926Y65481D01*
X90908Y65469D01*
X90891Y65457D01*
X90876Y65446D01*
X90867Y65439D01*
X90858Y65431D01*
X90854Y65428D01*
X90852Y65426D01*
X90828Y65400D01*
X90808Y65370D01*
X90791Y65341D01*
X90775Y65309D01*
X90762Y65276D01*
X90752Y65244D01*
X90743Y65213D01*
X90736Y65182D01*
X90730Y65152D01*
X90726Y65126D01*
X90723Y65102D01*
X90721Y65080D01*
Y65063D01*
X90719Y65050D01*
Y65039D01*
X90723Y64972D01*
X90726Y64941D01*
X90730Y64911D01*
X90738Y64883D01*
X90743Y64857D01*
X90751Y64833D01*
X90758Y64813D01*
X90763Y64793D01*
X90771Y64776D01*
X90778Y64761D01*
X90784Y64750D01*
X90788Y64741D01*
X90791Y64733D01*
X90795Y64730D01*
Y64728D01*
X90825Y64685D01*
X90854Y64650D01*
X90886Y64622D01*
X90913Y64598D01*
X90938Y64582D01*
X90958Y64569D01*
X90965Y64565D01*
X90971Y64561D01*
X90973Y64559D01*
X90975D01*
X91017Y64545D01*
X91062Y64533D01*
X91108Y64524D01*
X91150Y64519D01*
X91171Y64517D01*
X91189Y64515D01*
X91204D01*
X91219Y64513D01*
X91247D01*
X91295Y64515D01*
X91339Y64519D01*
X91378Y64526D01*
X91410Y64533D01*
X91436Y64539D01*
X91456Y64546D01*
X91462Y64548D01*
X91467Y64550D01*
X91469Y64552D01*
X91471D01*
X91502Y64569D01*
X91532Y64587D01*
X91556Y64606D01*
X91578Y64624D01*
X91595Y64643D01*
X91608Y64656D01*
X91617Y64665D01*
X91619Y64669D01*
X91641Y64700D01*
X91658Y64732D01*
X91674Y64763D01*
X91686Y64795D01*
X91697Y64820D01*
X91702Y64843D01*
X91704Y64850D01*
X91706Y64856D01*
X91708Y64859D01*
Y64861D01*
X91434Y64946D01*
X91425Y64911D01*
X91413Y64882D01*
X91402Y64856D01*
X91391Y64835D01*
X91382Y64819D01*
X91373Y64807D01*
X91367Y64800D01*
X91365Y64798D01*
X91347Y64782D01*
X91325Y64769D01*
X91302Y64761D01*
X91280Y64754D01*
X91260Y64750D01*
X91243Y64748D01*
X91228D01*
X91195Y64750D01*
X91167Y64757D01*
X91141Y64767D01*
X91121Y64780D01*
X91106Y64791D01*
X91093Y64800D01*
X91086Y64807D01*
X91084Y64809D01*
X91075Y64822D01*
X91067Y64837D01*
X91054Y64872D01*
X91047Y64911D01*
X91039Y64948D01*
X91036Y64983D01*
Y65000D01*
X91034Y65013D01*
Y65024D01*
Y65033D01*
Y65039D01*
Y65041D01*
X91036Y65089D01*
X91041Y65130D01*
X91047Y65163D01*
X91056Y65191D01*
X91063Y65211D01*
X91069Y65228D01*
X91075Y65235D01*
X91076Y65239D01*
X91088Y65254D01*
X91099Y65269D01*
X91125Y65289D01*
X91152Y65306D01*
X91178Y65315D01*
X91202Y65322D01*
X91223Y65324D01*
X91228Y65326D01*
X91256D01*
X91273Y65322D01*
X91287Y65320D01*
X91300Y65317D01*
X91310Y65313D01*
X91319Y65309D01*
X91323Y65307D01*
X91325Y65306D01*
X91350Y65289D01*
X91371Y65270D01*
X91378Y65263D01*
X91386Y65256D01*
X91387Y65252D01*
X91389Y65250D01*
X91395Y65241D01*
X91400Y65232D01*
X91412Y65209D01*
X91415Y65200D01*
X91419Y65191D01*
X91421Y65185D01*
Y65183D01*
X91699Y65244D01*
X91687Y65274D01*
X91676Y65302D01*
X91663Y65326D01*
X91650Y65350D01*
X91637Y65372D01*
X91623Y65391D01*
X91610Y65409D01*
X91597Y65424D01*
X91584Y65439D01*
X91573Y65450D01*
X91562Y65461D01*
X91552Y65469D01*
X91545Y65476D01*
X91539Y65480D01*
X91536Y65483D01*
X91534D01*
X91512Y65496D01*
X91489Y65509D01*
X91441Y65528D01*
X91391Y65543D01*
X91341Y65552D01*
X91319Y65556D01*
X91299Y65557D01*
X91280Y65559D01*
X91263D01*
X91250Y65561D01*
D02*
G37*
G36*
X92454D02*
X92221D01*
X92202Y65526D01*
X92182Y65494D01*
X92161Y65467D01*
X92141Y65444D01*
X92123Y65424D01*
X92108Y65409D01*
X92099Y65402D01*
X92097Y65398D01*
X92095D01*
X92063Y65374D01*
X92026Y65354D01*
X91989Y65335D01*
X91954Y65319D01*
X91923Y65306D01*
X91908Y65300D01*
X91897Y65294D01*
X91886Y65293D01*
X91878Y65289D01*
X91874Y65287D01*
X91873D01*
Y65057D01*
X91908Y65069D01*
X91939Y65078D01*
X91965Y65089D01*
X91989Y65098D01*
X92008Y65106D01*
X92023Y65111D01*
X92030Y65115D01*
X92034Y65117D01*
X92058Y65130D01*
X92082Y65144D01*
X92106Y65159D01*
X92126Y65172D01*
X92143Y65185D01*
X92158Y65194D01*
X92165Y65202D01*
X92169Y65204D01*
Y64530D01*
X92454D01*
Y65561D01*
D02*
G37*
G36*
X90143Y65544D02*
X89656D01*
Y64530D01*
X90121D01*
X90154Y64532D01*
X90186Y64533D01*
X90219Y64537D01*
X90247Y64543D01*
X90273Y64548D01*
X90293Y64552D01*
X90301Y64554D01*
X90306D01*
X90308Y64556D01*
X90310D01*
X90338Y64565D01*
X90364Y64578D01*
X90386Y64591D01*
X90408Y64604D01*
X90425Y64617D01*
X90438Y64628D01*
X90445Y64635D01*
X90449Y64637D01*
X90473Y64661D01*
X90493Y64687D01*
X90512Y64711D01*
X90526Y64735D01*
X90538Y64756D01*
X90545Y64772D01*
X90551Y64783D01*
X90552Y64785D01*
Y64787D01*
X90565Y64824D01*
X90575Y64865D01*
X90582Y64907D01*
X90586Y64946D01*
X90589Y64983D01*
Y64998D01*
X90591Y65013D01*
Y65039D01*
X90589Y65078D01*
X90588Y65113D01*
X90584Y65146D01*
X90578Y65176D01*
X90573Y65200D01*
X90569Y65219D01*
X90567Y65226D01*
Y65232D01*
X90565Y65233D01*
Y65235D01*
X90554Y65269D01*
X90543Y65300D01*
X90530Y65328D01*
X90517Y65352D01*
X90504Y65372D01*
X90495Y65385D01*
X90488Y65394D01*
X90486Y65398D01*
X90464Y65422D01*
X90441Y65444D01*
X90417Y65463D01*
X90395Y65478D01*
X90375Y65491D01*
X90360Y65498D01*
X90349Y65504D01*
X90347Y65506D01*
X90345D01*
X90312Y65519D01*
X90275Y65528D01*
X90238Y65535D01*
X90201Y65539D01*
X90169Y65543D01*
X90156D01*
X90143Y65544D01*
D02*
G37*
G36*
X89171D02*
X88827D01*
X88447Y64530D01*
X88767D01*
X88817Y64696D01*
X89173D01*
X89223Y64530D01*
X89552D01*
X89171Y65544D01*
D02*
G37*
G36*
X93908Y65561D02*
X93891D01*
X93852Y65559D01*
X93815Y65556D01*
X93782Y65550D01*
X93750Y65543D01*
X93722Y65533D01*
X93697Y65524D01*
X93672Y65513D01*
X93652Y65504D01*
X93634Y65493D01*
X93617Y65481D01*
X93604Y65472D01*
X93593Y65463D01*
X93584Y65456D01*
X93578Y65450D01*
X93574Y65446D01*
X93572Y65444D01*
X93554Y65420D01*
X93539Y65394D01*
X93524Y65365D01*
X93513Y65333D01*
X93495Y65267D01*
X93482Y65200D01*
X93478Y65169D01*
X93474Y65139D01*
X93472Y65111D01*
X93471Y65087D01*
X93469Y65069D01*
Y65041D01*
X93471Y64998D01*
X93472Y64957D01*
X93476Y64920D01*
X93480Y64889D01*
X93484Y64861D01*
X93485Y64841D01*
X93487Y64833D01*
X93489Y64828D01*
Y64826D01*
Y64824D01*
X93497Y64791D01*
X93506Y64759D01*
X93515Y64733D01*
X93524Y64713D01*
X93532Y64695D01*
X93539Y64683D01*
X93543Y64674D01*
X93545Y64672D01*
X93565Y64645D01*
X93587Y64620D01*
X93608Y64600D01*
X93630Y64583D01*
X93647Y64570D01*
X93661Y64561D01*
X93671Y64556D01*
X93674Y64554D01*
X93706Y64541D01*
X93741Y64530D01*
X93776Y64522D01*
X93809Y64519D01*
X93839Y64515D01*
X93850D01*
X93861Y64513D01*
X93884D01*
X93924Y64515D01*
X93963Y64519D01*
X93998Y64524D01*
X94030Y64533D01*
X94059Y64543D01*
X94085Y64554D01*
X94109Y64565D01*
X94130Y64578D01*
X94148Y64589D01*
X94163Y64600D01*
X94176Y64611D01*
X94187Y64620D01*
X94196Y64630D01*
X94202Y64635D01*
X94204Y64639D01*
X94206Y64641D01*
X94222Y64667D01*
X94237Y64695D01*
X94250Y64726D01*
X94261Y64757D01*
X94278Y64824D01*
X94289Y64891D01*
X94293Y64922D01*
X94295Y64950D01*
X94296Y64976D01*
X94298Y65000D01*
X94300Y65019D01*
Y65044D01*
X94298Y65089D01*
X94296Y65133D01*
X94291Y65172D01*
X94285Y65207D01*
X94280Y65237D01*
X94278Y65250D01*
X94276Y65259D01*
X94274Y65269D01*
X94272Y65274D01*
X94271Y65278D01*
Y65280D01*
X94265Y65302D01*
X94258Y65320D01*
X94252Y65339D01*
X94246Y65354D01*
X94241Y65367D01*
X94235Y65376D01*
X94233Y65381D01*
X94232Y65383D01*
X94211Y65417D01*
X94200Y65431D01*
X94189Y65443D01*
X94180Y65454D01*
X94172Y65461D01*
X94167Y65467D01*
X94165Y65469D01*
X94148Y65483D01*
X94132Y65496D01*
X94113Y65507D01*
X94096Y65517D01*
X94082Y65524D01*
X94069Y65531D01*
X94061Y65533D01*
X94058Y65535D01*
X94032Y65544D01*
X94004Y65550D01*
X93976Y65556D01*
X93950Y65557D01*
X93926Y65559D01*
X93908Y65561D01*
D02*
G37*
G36*
X93419Y64422D02*
X92695D01*
Y64352D01*
X93419D01*
Y64422D01*
D02*
G37*
%LPD*%
G36*
X90089Y65313D02*
X90127Y65306D01*
X90156Y65296D01*
X90180Y65285D01*
X90199Y65272D01*
X90212Y65263D01*
X90221Y65256D01*
X90223Y65254D01*
X90232Y65241D01*
X90241Y65228D01*
X90254Y65194D01*
X90264Y65157D01*
X90269Y65122D01*
X90275Y65087D01*
Y65072D01*
X90276Y65059D01*
Y65048D01*
Y65041D01*
Y65035D01*
Y65033D01*
X90275Y64991D01*
X90273Y64956D01*
X90269Y64924D01*
X90265Y64900D01*
X90260Y64882D01*
X90256Y64869D01*
X90254Y64859D01*
X90252Y64857D01*
X90243Y64839D01*
X90232Y64822D01*
X90221Y64809D01*
X90210Y64800D01*
X90201Y64791D01*
X90193Y64785D01*
X90188Y64783D01*
X90186Y64782D01*
X90167Y64774D01*
X90147Y64770D01*
X90123Y64767D01*
X90101Y64763D01*
X90078D01*
X90062Y64761D01*
X89969D01*
Y65315D01*
X90047D01*
X90089Y65313D01*
D02*
G37*
G36*
X89106Y64917D02*
X88884D01*
X88995Y65280D01*
X89106Y64917D01*
D02*
G37*
G36*
X93906Y65370D02*
X93926Y65363D01*
X93945Y65352D01*
X93959Y65339D01*
X93971Y65326D01*
X93978Y65315D01*
X93984Y65307D01*
X93985Y65304D01*
X93991Y65289D01*
X93996Y65272D01*
X94002Y65252D01*
X94006Y65232D01*
X94011Y65187D01*
X94017Y65141D01*
X94019Y65100D01*
Y65080D01*
X94021Y65065D01*
Y65050D01*
Y65041D01*
Y65033D01*
Y65032D01*
Y64983D01*
X94019Y64943D01*
X94015Y64907D01*
X94013Y64880D01*
X94009Y64857D01*
X94006Y64843D01*
X94004Y64833D01*
Y64830D01*
X93998Y64807D01*
X93991Y64787D01*
X93984Y64772D01*
X93976Y64757D01*
X93969Y64748D01*
X93963Y64741D01*
X93959Y64737D01*
X93958Y64735D01*
X93945Y64726D01*
X93932Y64719D01*
X93921Y64713D01*
X93908Y64709D01*
X93898Y64707D01*
X93889Y64706D01*
X93882D01*
X93859Y64709D01*
X93839Y64717D01*
X93822Y64728D01*
X93808Y64741D01*
X93797Y64754D01*
X93789Y64765D01*
X93784Y64772D01*
X93782Y64776D01*
X93776Y64791D01*
X93771Y64807D01*
X93767Y64826D01*
X93763Y64846D01*
X93756Y64891D01*
X93752Y64935D01*
X93750Y64976D01*
Y64994D01*
X93748Y65009D01*
Y65022D01*
Y65032D01*
Y65039D01*
Y65041D01*
Y65076D01*
X93750Y65107D01*
X93752Y65135D01*
X93754Y65163D01*
X93756Y65185D01*
X93758Y65207D01*
X93761Y65226D01*
X93765Y65243D01*
X93767Y65257D01*
X93771Y65270D01*
X93772Y65280D01*
X93774Y65287D01*
X93776Y65294D01*
X93778Y65298D01*
X93780Y65302D01*
X93793Y65326D01*
X93809Y65344D01*
X93826Y65357D01*
X93843Y65365D01*
X93858Y65370D01*
X93871Y65372D01*
X93878Y65374D01*
X93882D01*
X93906Y65370D01*
D02*
G37*
%LPC*%
G36*
X91450Y75861D02*
X91432D01*
X91388Y75859D01*
X91345Y75856D01*
X91306Y75848D01*
X91269Y75841D01*
X91236Y75830D01*
X91204Y75819D01*
X91175Y75806D01*
X91150Y75794D01*
X91126Y75781D01*
X91108Y75769D01*
X91091Y75757D01*
X91076Y75746D01*
X91067Y75739D01*
X91058Y75731D01*
X91054Y75728D01*
X91052Y75726D01*
X91028Y75700D01*
X91008Y75670D01*
X90991Y75641D01*
X90975Y75609D01*
X90962Y75576D01*
X90952Y75544D01*
X90943Y75513D01*
X90936Y75482D01*
X90930Y75452D01*
X90926Y75426D01*
X90923Y75402D01*
X90921Y75380D01*
Y75363D01*
X90919Y75350D01*
Y75339D01*
X90923Y75272D01*
X90926Y75241D01*
X90930Y75211D01*
X90938Y75183D01*
X90943Y75157D01*
X90951Y75133D01*
X90958Y75113D01*
X90963Y75093D01*
X90971Y75076D01*
X90978Y75061D01*
X90984Y75050D01*
X90988Y75041D01*
X90991Y75033D01*
X90995Y75030D01*
Y75028D01*
X91025Y74985D01*
X91054Y74950D01*
X91086Y74922D01*
X91113Y74898D01*
X91138Y74882D01*
X91158Y74869D01*
X91165Y74865D01*
X91171Y74861D01*
X91173Y74859D01*
X91175D01*
X91217Y74845D01*
X91262Y74833D01*
X91308Y74824D01*
X91350Y74819D01*
X91371Y74817D01*
X91389Y74815D01*
X91404D01*
X91419Y74813D01*
X91447D01*
X91495Y74815D01*
X91539Y74819D01*
X91578Y74826D01*
X91610Y74833D01*
X91636Y74839D01*
X91656Y74846D01*
X91662Y74848D01*
X91667Y74850D01*
X91669Y74852D01*
X91671D01*
X91702Y74869D01*
X91732Y74887D01*
X91756Y74906D01*
X91778Y74924D01*
X91795Y74943D01*
X91808Y74956D01*
X91817Y74965D01*
X91819Y74969D01*
X91841Y75000D01*
X91858Y75032D01*
X91874Y75063D01*
X91886Y75095D01*
X91897Y75120D01*
X91902Y75143D01*
X91904Y75150D01*
X91906Y75156D01*
X91908Y75159D01*
Y75161D01*
X91634Y75246D01*
X91625Y75211D01*
X91613Y75182D01*
X91602Y75156D01*
X91591Y75135D01*
X91582Y75119D01*
X91573Y75107D01*
X91567Y75100D01*
X91565Y75098D01*
X91547Y75082D01*
X91525Y75069D01*
X91502Y75061D01*
X91480Y75054D01*
X91460Y75050D01*
X91443Y75048D01*
X91428D01*
X91395Y75050D01*
X91367Y75057D01*
X91341Y75067D01*
X91321Y75080D01*
X91306Y75091D01*
X91293Y75100D01*
X91286Y75107D01*
X91284Y75109D01*
X91275Y75122D01*
X91267Y75137D01*
X91254Y75172D01*
X91247Y75211D01*
X91239Y75248D01*
X91236Y75283D01*
Y75300D01*
X91234Y75313D01*
Y75324D01*
Y75333D01*
Y75339D01*
Y75341D01*
X91236Y75389D01*
X91241Y75430D01*
X91247Y75463D01*
X91256Y75491D01*
X91263Y75511D01*
X91269Y75528D01*
X91275Y75535D01*
X91276Y75539D01*
X91288Y75554D01*
X91299Y75569D01*
X91325Y75589D01*
X91352Y75606D01*
X91378Y75615D01*
X91402Y75622D01*
X91423Y75624D01*
X91428Y75626D01*
X91456D01*
X91473Y75622D01*
X91488Y75620D01*
X91500Y75617D01*
X91510Y75613D01*
X91519Y75609D01*
X91523Y75607D01*
X91525Y75606D01*
X91550Y75589D01*
X91571Y75570D01*
X91578Y75563D01*
X91586Y75556D01*
X91587Y75552D01*
X91589Y75550D01*
X91595Y75541D01*
X91600Y75532D01*
X91612Y75509D01*
X91615Y75500D01*
X91619Y75491D01*
X91621Y75485D01*
Y75483D01*
X91899Y75544D01*
X91887Y75574D01*
X91876Y75602D01*
X91863Y75626D01*
X91850Y75650D01*
X91837Y75672D01*
X91823Y75691D01*
X91810Y75709D01*
X91797Y75724D01*
X91784Y75739D01*
X91773Y75750D01*
X91762Y75761D01*
X91752Y75769D01*
X91745Y75776D01*
X91739Y75780D01*
X91736Y75783D01*
X91734D01*
X91712Y75796D01*
X91689Y75809D01*
X91641Y75828D01*
X91591Y75843D01*
X91541Y75852D01*
X91519Y75856D01*
X91499Y75857D01*
X91480Y75859D01*
X91463D01*
X91450Y75861D01*
D02*
G37*
G36*
X94309D02*
X94076D01*
X94058Y75826D01*
X94037Y75794D01*
X94017Y75767D01*
X93996Y75744D01*
X93978Y75724D01*
X93963Y75709D01*
X93954Y75702D01*
X93952Y75698D01*
X93950D01*
X93919Y75674D01*
X93882Y75654D01*
X93845Y75635D01*
X93809Y75619D01*
X93778Y75606D01*
X93763Y75600D01*
X93752Y75594D01*
X93741Y75593D01*
X93734Y75589D01*
X93730Y75587D01*
X93728D01*
Y75357D01*
X93763Y75369D01*
X93795Y75378D01*
X93821Y75389D01*
X93845Y75398D01*
X93863Y75406D01*
X93878Y75411D01*
X93885Y75415D01*
X93889Y75417D01*
X93913Y75430D01*
X93937Y75444D01*
X93961Y75459D01*
X93982Y75472D01*
X93998Y75485D01*
X94013Y75494D01*
X94021Y75502D01*
X94024Y75504D01*
Y74830D01*
X94309D01*
Y75861D01*
D02*
G37*
G36*
X92447D02*
X92423D01*
X92373Y75859D01*
X92328Y75856D01*
X92289Y75850D01*
X92258Y75843D01*
X92232Y75835D01*
X92213Y75830D01*
X92202Y75826D01*
X92200Y75824D01*
X92199D01*
X92169Y75809D01*
X92145Y75793D01*
X92123Y75776D01*
X92106Y75759D01*
X92091Y75744D01*
X92080Y75733D01*
X92074Y75726D01*
X92073Y75722D01*
X92058Y75694D01*
X92045Y75665D01*
X92036Y75635D01*
X92026Y75606D01*
X92021Y75578D01*
X92017Y75557D01*
X92015Y75548D01*
X92013Y75543D01*
Y75539D01*
Y75537D01*
X92297Y75515D01*
X92302Y75544D01*
X92308Y75569D01*
X92315Y75589D01*
X92323Y75606D01*
X92330Y75619D01*
X92336Y75628D01*
X92339Y75632D01*
X92341Y75633D01*
X92356Y75644D01*
X92371Y75654D01*
X92386Y75659D01*
X92399Y75665D01*
X92411Y75667D01*
X92421Y75669D01*
X92430D01*
X92449Y75667D01*
X92465Y75663D01*
X92480Y75657D01*
X92493Y75652D01*
X92504Y75646D01*
X92511Y75641D01*
X92515Y75637D01*
X92517Y75635D01*
X92528Y75622D01*
X92537Y75609D01*
X92543Y75596D01*
X92549Y75583D01*
X92550Y75572D01*
X92552Y75563D01*
Y75557D01*
Y75556D01*
X92550Y75539D01*
X92547Y75524D01*
X92541Y75507D01*
X92536Y75494D01*
X92528Y75482D01*
X92523Y75472D01*
X92519Y75467D01*
X92517Y75465D01*
X92510Y75456D01*
X92500Y75444D01*
X92478Y75422D01*
X92450Y75400D01*
X92424Y75376D01*
X92399Y75356D01*
X92378Y75339D01*
X92369Y75333D01*
X92363Y75328D01*
X92360Y75326D01*
X92358Y75324D01*
X92321Y75296D01*
X92287Y75270D01*
X92256Y75244D01*
X92228Y75220D01*
X92202Y75196D01*
X92180Y75176D01*
X92160Y75156D01*
X92143Y75137D01*
X92128Y75120D01*
X92113Y75106D01*
X92104Y75093D01*
X92095Y75083D01*
X92087Y75074D01*
X92084Y75069D01*
X92082Y75065D01*
X92080Y75063D01*
X92056Y75022D01*
X92036Y74980D01*
X92021Y74941D01*
X92010Y74906D01*
X92000Y74874D01*
X91999Y74861D01*
X91997Y74850D01*
X91995Y74843D01*
X91993Y74835D01*
Y74830D01*
X92841D01*
Y75059D01*
X92399D01*
X92426Y75083D01*
X92447Y75104D01*
X92454Y75109D01*
X92460Y75115D01*
X92463Y75117D01*
X92465Y75119D01*
X92478Y75130D01*
X92495Y75143D01*
X92515Y75156D01*
X92534Y75169D01*
X92552Y75182D01*
X92567Y75193D01*
X92576Y75200D01*
X92580Y75202D01*
X92606Y75220D01*
X92630Y75239D01*
X92652Y75257D01*
X92673Y75274D01*
X92689Y75291D01*
X92706Y75306D01*
X92734Y75333D01*
X92754Y75356D01*
X92767Y75372D01*
X92776Y75383D01*
X92778Y75387D01*
X92797Y75419D01*
X92810Y75450D01*
X92821Y75482D01*
X92826Y75507D01*
X92830Y75532D01*
X92834Y75550D01*
Y75556D01*
Y75561D01*
Y75563D01*
Y75565D01*
X92832Y75596D01*
X92826Y75626D01*
X92819Y75654D01*
X92810Y75676D01*
X92800Y75696D01*
X92793Y75709D01*
X92787Y75719D01*
X92786Y75722D01*
X92767Y75746D01*
X92745Y75769D01*
X92723Y75785D01*
X92702Y75800D01*
X92684Y75811D01*
X92667Y75820D01*
X92658Y75824D01*
X92656Y75826D01*
X92654D01*
X92621Y75837D01*
X92584Y75846D01*
X92545Y75852D01*
X92508Y75857D01*
X92474Y75859D01*
X92460D01*
X92447Y75861D01*
D02*
G37*
G36*
X90343Y75844D02*
X89856D01*
Y74830D01*
X90321D01*
X90354Y74832D01*
X90386Y74833D01*
X90419Y74837D01*
X90447Y74843D01*
X90473Y74848D01*
X90493Y74852D01*
X90501Y74854D01*
X90506D01*
X90508Y74856D01*
X90510D01*
X90538Y74865D01*
X90564Y74878D01*
X90586Y74891D01*
X90608Y74904D01*
X90625Y74917D01*
X90638Y74928D01*
X90645Y74935D01*
X90649Y74937D01*
X90673Y74961D01*
X90693Y74987D01*
X90712Y75011D01*
X90726Y75035D01*
X90738Y75056D01*
X90745Y75072D01*
X90751Y75083D01*
X90752Y75085D01*
Y75087D01*
X90765Y75124D01*
X90775Y75165D01*
X90782Y75207D01*
X90786Y75246D01*
X90789Y75283D01*
Y75298D01*
X90791Y75313D01*
Y75339D01*
X90789Y75378D01*
X90788Y75413D01*
X90784Y75446D01*
X90778Y75476D01*
X90773Y75500D01*
X90769Y75519D01*
X90767Y75526D01*
Y75532D01*
X90765Y75533D01*
Y75535D01*
X90754Y75569D01*
X90743Y75600D01*
X90730Y75628D01*
X90717Y75652D01*
X90704Y75672D01*
X90695Y75685D01*
X90688Y75694D01*
X90686Y75698D01*
X90664Y75722D01*
X90641Y75744D01*
X90617Y75763D01*
X90595Y75778D01*
X90575Y75791D01*
X90560Y75798D01*
X90549Y75804D01*
X90547Y75806D01*
X90545D01*
X90512Y75819D01*
X90475Y75828D01*
X90438Y75835D01*
X90401Y75839D01*
X90369Y75843D01*
X90356D01*
X90343Y75844D01*
D02*
G37*
G36*
X89371D02*
X89027D01*
X88647Y74830D01*
X88967D01*
X89017Y74996D01*
X89373D01*
X89423Y74830D01*
X89753D01*
X89371Y75844D01*
D02*
G37*
G36*
X93619Y74722D02*
X92895D01*
Y74652D01*
X93619D01*
Y74722D01*
D02*
G37*
%LPD*%
G36*
X90289Y75613D02*
X90327Y75606D01*
X90356Y75596D01*
X90380Y75585D01*
X90399Y75572D01*
X90412Y75563D01*
X90421Y75556D01*
X90423Y75554D01*
X90432Y75541D01*
X90441Y75528D01*
X90454Y75494D01*
X90464Y75457D01*
X90469Y75422D01*
X90475Y75387D01*
Y75372D01*
X90477Y75359D01*
Y75348D01*
Y75341D01*
Y75335D01*
Y75333D01*
X90475Y75291D01*
X90473Y75256D01*
X90469Y75224D01*
X90465Y75200D01*
X90460Y75182D01*
X90456Y75169D01*
X90454Y75159D01*
X90452Y75157D01*
X90443Y75139D01*
X90432Y75122D01*
X90421Y75109D01*
X90410Y75100D01*
X90401Y75091D01*
X90393Y75085D01*
X90388Y75083D01*
X90386Y75082D01*
X90367Y75074D01*
X90347Y75070D01*
X90323Y75067D01*
X90301Y75063D01*
X90278D01*
X90262Y75061D01*
X90169D01*
Y75615D01*
X90247D01*
X90289Y75613D01*
D02*
G37*
G36*
X89306Y75217D02*
X89084D01*
X89195Y75580D01*
X89306Y75217D01*
D02*
G37*
%LPC*%
G36*
X69052Y6102D02*
X68756D01*
Y5124D01*
X69059D01*
X69072Y5126D01*
X69100Y5128D01*
X69131Y5130D01*
X69165Y5133D01*
X69198Y5139D01*
X69226Y5146D01*
X69230Y5148D01*
X69239Y5150D01*
X69252Y5156D01*
X69268Y5163D01*
X69287Y5174D01*
X69305Y5185D01*
X69324Y5198D01*
X69343Y5213D01*
X69344Y5217D01*
X69352Y5224D01*
X69363Y5237D01*
X69376Y5256D01*
X69391Y5280D01*
X69407Y5307D01*
X69422Y5339D01*
X69435Y5374D01*
Y5376D01*
X69437Y5380D01*
X69439Y5385D01*
X69441Y5393D01*
X69442Y5402D01*
X69446Y5415D01*
X69450Y5428D01*
X69454Y5443D01*
X69459Y5480D01*
X69465Y5522D01*
X69468Y5570D01*
X69470Y5622D01*
Y5624D01*
Y5631D01*
Y5641D01*
X69468Y5655D01*
Y5672D01*
X69467Y5691D01*
X69465Y5713D01*
X69463Y5735D01*
X69454Y5785D01*
X69442Y5837D01*
X69426Y5885D01*
X69415Y5909D01*
X69404Y5930D01*
Y5931D01*
X69400Y5935D01*
X69396Y5941D01*
X69393Y5948D01*
X69378Y5967D01*
X69359Y5989D01*
X69335Y6013D01*
X69307Y6037D01*
X69276Y6057D01*
X69243Y6074D01*
X69239Y6076D01*
X69230Y6078D01*
X69213Y6083D01*
X69189Y6089D01*
X69159Y6092D01*
X69122Y6098D01*
X69100Y6100D01*
X69076D01*
X69052Y6102D01*
D02*
G37*
G36*
X65869D02*
X65573D01*
Y5124D01*
X65876D01*
X65889Y5126D01*
X65917Y5128D01*
X65948Y5130D01*
X65982Y5133D01*
X66015Y5139D01*
X66043Y5146D01*
X66047Y5148D01*
X66056Y5150D01*
X66069Y5156D01*
X66085Y5163D01*
X66104Y5174D01*
X66122Y5185D01*
X66141Y5198D01*
X66160Y5213D01*
X66161Y5217D01*
X66169Y5224D01*
X66180Y5237D01*
X66193Y5256D01*
X66208Y5280D01*
X66224Y5307D01*
X66239Y5339D01*
X66252Y5374D01*
Y5376D01*
X66254Y5380D01*
X66256Y5385D01*
X66258Y5393D01*
X66259Y5402D01*
X66263Y5415D01*
X66267Y5428D01*
X66271Y5443D01*
X66276Y5480D01*
X66282Y5522D01*
X66285Y5570D01*
X66287Y5622D01*
Y5624D01*
Y5631D01*
Y5641D01*
X66285Y5655D01*
Y5672D01*
X66284Y5691D01*
X66282Y5713D01*
X66280Y5735D01*
X66271Y5785D01*
X66259Y5837D01*
X66243Y5885D01*
X66232Y5909D01*
X66221Y5930D01*
Y5931D01*
X66217Y5935D01*
X66213Y5941D01*
X66210Y5948D01*
X66195Y5967D01*
X66176Y5989D01*
X66152Y6013D01*
X66124Y6037D01*
X66093Y6057D01*
X66060Y6074D01*
X66056Y6076D01*
X66047Y6078D01*
X66030Y6083D01*
X66006Y6089D01*
X65976Y6092D01*
X65939Y6098D01*
X65917Y6100D01*
X65893D01*
X65869Y6102D01*
D02*
G37*
G36*
X64187Y6111D02*
X63784D01*
Y5687D01*
X64165D01*
X64187Y5689D01*
X64213Y5691D01*
X64243Y5693D01*
X64273Y5696D01*
X64302Y5702D01*
X64328Y5709D01*
X64332Y5711D01*
X64339Y5715D01*
X64350Y5720D01*
X64365Y5728D01*
X64382Y5739D01*
X64399Y5752D01*
X64415Y5768D01*
X64428Y5787D01*
X64430Y5789D01*
X64434Y5796D01*
X64439Y5807D01*
X64447Y5822D01*
X64452Y5839D01*
X64458Y5857D01*
X64462Y5880D01*
X64463Y5902D01*
Y5904D01*
Y5905D01*
X64462Y5917D01*
X64460Y5933D01*
X64456Y5955D01*
X64447Y5978D01*
X64436Y6004D01*
X64419Y6028D01*
X64397Y6052D01*
X64393Y6054D01*
X64384Y6061D01*
X64369Y6070D01*
X64345Y6081D01*
X64317Y6092D01*
X64280Y6102D01*
X64237Y6109D01*
X64187Y6111D01*
D02*
G37*
G36*
X60466Y6120D02*
Y6118D01*
X60464Y6115D01*
Y6107D01*
X60460Y6100D01*
X60458Y6087D01*
X60455Y6074D01*
X60447Y6042D01*
X60438Y6005D01*
X60425Y5965D01*
X60412Y5920D01*
X60395Y5874D01*
X60256Y5500D01*
X60690D01*
X60556Y5852D01*
Y5854D01*
X60555Y5859D01*
X60551Y5868D01*
X60547Y5880D01*
X60542Y5892D01*
X60536Y5909D01*
X60530Y5928D01*
X60523Y5946D01*
X60508Y5989D01*
X60493Y6033D01*
X60479Y6078D01*
X60466Y6120D01*
D02*
G37*
G36*
X67754Y6129D02*
X67737D01*
X67724Y6128D01*
X67707Y6126D01*
X67691Y6122D01*
X67670Y6118D01*
X67648Y6115D01*
X67600Y6100D01*
X67574Y6089D01*
X67548Y6078D01*
X67520Y6063D01*
X67495Y6046D01*
X67469Y6028D01*
X67445Y6005D01*
X67443Y6004D01*
X67439Y6000D01*
X67433Y5992D01*
X67424Y5981D01*
X67415Y5968D01*
X67404Y5952D01*
X67393Y5931D01*
X67380Y5907D01*
X67369Y5881D01*
X67356Y5850D01*
X67345Y5817D01*
X67335Y5780D01*
X67326Y5739D01*
X67321Y5693D01*
X67317Y5644D01*
X67315Y5593D01*
Y5591D01*
Y5583D01*
Y5570D01*
X67317Y5554D01*
X67319Y5535D01*
X67322Y5513D01*
X67326Y5487D01*
X67330Y5461D01*
X67345Y5402D01*
X67356Y5372D01*
X67367Y5341D01*
X67382Y5311D01*
X67398Y5281D01*
X67417Y5254D01*
X67439Y5228D01*
X67441Y5226D01*
X67445Y5222D01*
X67452Y5215D01*
X67461Y5207D01*
X67474Y5196D01*
X67489Y5185D01*
X67506Y5174D01*
X67524Y5161D01*
X67546Y5148D01*
X67570Y5137D01*
X67596Y5126D01*
X67624Y5115D01*
X67654Y5107D01*
X67683Y5100D01*
X67717Y5096D01*
X67752Y5094D01*
X67761D01*
X67770Y5096D01*
X67783D01*
X67800Y5098D01*
X67819Y5102D01*
X67841Y5106D01*
X67863Y5111D01*
X67889Y5118D01*
X67913Y5128D01*
X67941Y5137D01*
X67967Y5150D01*
X67993Y5167D01*
X68019Y5183D01*
X68044Y5204D01*
X68069Y5228D01*
X68070Y5230D01*
X68074Y5233D01*
X68080Y5243D01*
X68089Y5254D01*
X68098Y5267D01*
X68107Y5283D01*
X68119Y5304D01*
X68132Y5326D01*
X68143Y5352D01*
X68154Y5381D01*
X68163Y5413D01*
X68174Y5446D01*
X68182Y5483D01*
X68187Y5524D01*
X68191Y5567D01*
X68193Y5611D01*
Y5613D01*
Y5618D01*
Y5626D01*
Y5637D01*
X68191Y5650D01*
Y5667D01*
X68189Y5683D01*
X68185Y5704D01*
X68180Y5746D01*
X68170Y5791D01*
X68157Y5839D01*
X68139Y5883D01*
Y5885D01*
X68137Y5889D01*
X68133Y5894D01*
X68130Y5902D01*
X68117Y5924D01*
X68100Y5950D01*
X68078Y5980D01*
X68050Y6009D01*
X68019Y6039D01*
X67983Y6065D01*
X67982D01*
X67980Y6068D01*
X67974Y6070D01*
X67965Y6076D01*
X67956Y6080D01*
X67945Y6085D01*
X67917Y6098D01*
X67883Y6109D01*
X67845Y6120D01*
X67800Y6128D01*
X67754Y6129D01*
D02*
G37*
%LPD*%
D10*
X17466Y22968D02*
G03*
X17466Y22968I-125J0D01*
G01*
X36075Y78758D02*
G03*
X36075Y78758I-125J0D01*
G01*
X88318Y87238D02*
G03*
X88318Y87238I-125J0D01*
G01*
X60750Y81418D02*
G03*
X60750Y81418I-125J0D01*
G01*
X43195Y70313D02*
G03*
X43195Y70313I-125J0D01*
G01*
X31277Y69175D02*
G03*
X31277Y69175I-125J0D01*
G01*
X2987Y48831D02*
G03*
X2987Y48831I-125J0D01*
G01*
X25650Y45050D02*
G03*
X25650Y45050I-125J0D01*
G01*
X56200Y31018D02*
G03*
X56200Y31018I-125J0D01*
G01*
X39112Y39151D02*
G03*
X39112Y39151I-125J0D01*
G01*
D11*
X34150Y80013D02*
G03*
X34150Y80013I-300J0D01*
G01*
X63025Y80163D02*
G03*
X63025Y80163I-300J0D01*
G01*
X44625Y72413D02*
G03*
X44625Y72413I-300J0D01*
G01*
X58625Y29963D02*
G03*
X58625Y29963I-300J0D01*
G01*
D12*
X70700Y83788D02*
G03*
X70700Y83788I-50J0D01*
G01*
X44900Y83288D02*
G03*
X44900Y83288I-50J0D01*
G01*
X20625Y84038D02*
G03*
X20625Y84038I-50J0D01*
G01*
D13*
X56330Y46025D02*
G03*
X56330Y46025I-100J0D01*
G01*
X12185Y30963D02*
G03*
X12185Y30963I-710J0D01*
G01*
X22535Y24688D02*
G03*
X22535Y24688I-710J0D01*
G01*
X27874Y21752D02*
G03*
X27874Y21752I-710J0D01*
G01*
X26460Y20338D02*
G03*
X26460Y20338I-710J0D01*
G01*
X13307Y78016D02*
G03*
X13307Y78016I-710J0D01*
G01*
X66510Y61713D02*
G03*
X66510Y61713I-710J0D01*
G01*
X62356Y61663D02*
G03*
X62356Y61663I-710J0D01*
G01*
X49335Y55313D02*
G03*
X49335Y55313I-710J0D01*
G01*
X35310Y49338D02*
G03*
X35310Y49338I-710J0D01*
G01*
X21435Y16263D02*
G03*
X21435Y16263I-710J0D01*
G01*
X32160Y47938D02*
G03*
X32160Y47938I-710J0D01*
G01*
X21235Y19553D02*
Y22373D01*
X17965Y19553D02*
X21235D01*
X17765D02*
X17965D01*
X17765D02*
Y19753D01*
Y22573D01*
X21035D01*
X21235D01*
Y22373D02*
Y22573D01*
X63875Y61813D02*
X64875D01*
Y63663D01*
X63875D02*
X64875D01*
X63875Y61813D02*
Y63663D01*
X62675Y61813D02*
X63675D01*
Y63663D01*
X62675D02*
X63675D01*
X62675Y61813D02*
Y63663D01*
Y59763D02*
X63675D01*
Y61613D01*
X62675D02*
X63675D01*
X62675Y59763D02*
Y61613D01*
X63875Y59763D02*
X64875D01*
Y61613D01*
X63875D02*
X64875D01*
X63875Y59763D02*
Y61613D01*
X31650Y84013D02*
X34850D01*
X31650Y79013D02*
X34850D01*
X31650D02*
Y84013D01*
X34850Y79013D02*
Y84013D01*
X82959Y86853D02*
Y97648D01*
X63401Y86853D02*
X82959D01*
X63401D02*
Y97648D01*
X82959D01*
X58792Y86853D02*
Y97648D01*
X39234Y86853D02*
X58792D01*
X39234D02*
Y97648D01*
X58792D01*
X34624Y86853D02*
Y97648D01*
X15066Y86853D02*
X34624D01*
X15066D02*
Y97648D01*
X34624D01*
X91125Y89113D02*
Y90113D01*
X89275D02*
X91125D01*
X89275Y89113D02*
Y90113D01*
Y89113D02*
X91125D01*
X93025Y82988D02*
X93525D01*
Y84988D01*
X92525D02*
X93525D01*
X92525Y82988D02*
Y84988D01*
Y82988D02*
X93025D01*
X89415Y83283D02*
X90535D01*
X89415Y82463D02*
X90535D01*
X91325Y81773D02*
Y82273D01*
X89325D02*
X91325D01*
X89325Y81273D02*
Y82273D01*
Y81273D02*
X91325D01*
Y81773D01*
X89325Y80023D02*
X91175D01*
X89325D02*
Y81023D01*
X91175D01*
Y80023D02*
Y81023D01*
X70950Y85588D02*
X72550D01*
X70950Y83488D02*
Y85588D01*
Y83488D02*
X72550D01*
Y85588D01*
X73819Y82591D02*
Y83091D01*
X71819D02*
X73819D01*
X71819Y82091D02*
Y83091D01*
Y82091D02*
X73819D01*
Y82591D01*
X69711Y82078D02*
Y82578D01*
Y82078D02*
X71711D01*
Y83078D01*
X69711D02*
X71711D01*
X69711Y82578D02*
Y83078D01*
X70925Y78263D02*
X72575D01*
X70925D02*
Y81263D01*
X72575D01*
Y78263D02*
Y81263D01*
X61725Y76163D02*
X64925D01*
X61725Y81163D02*
X64925D01*
Y76163D02*
Y81163D01*
X61725Y76163D02*
Y81163D01*
X59085Y78003D02*
Y79123D01*
X58265Y78003D02*
Y79123D01*
X46750Y82988D02*
Y85088D01*
X45150Y82988D02*
X46750D01*
X45150D02*
Y85088D01*
X46750D01*
X48000Y82388D02*
Y82888D01*
X46000D02*
X48000D01*
X46000Y81888D02*
Y82888D01*
Y81888D02*
X48000D01*
Y82388D01*
X43857Y81894D02*
Y82394D01*
Y81894D02*
X45857D01*
Y82894D01*
X43857D02*
X45857D01*
X43857Y82394D02*
Y82894D01*
X46750Y78438D02*
Y81438D01*
X45100D02*
X46750D01*
X45100Y78438D02*
Y81438D01*
Y78438D02*
X46750D01*
X48325Y71413D02*
Y74613D01*
X43325Y71413D02*
Y74613D01*
X48325D01*
X43325Y71413D02*
X48325D01*
X45215Y68328D02*
X46335D01*
X45215Y69148D02*
X46335D01*
X22475Y83738D02*
Y85838D01*
X20875Y83738D02*
X22475D01*
X20875D02*
Y85838D01*
X22475D01*
X19625Y82588D02*
Y83088D01*
Y82588D02*
X21625D01*
Y83588D01*
X19625D02*
X21625D01*
X19625Y83088D02*
Y83588D01*
X23725Y83088D02*
Y83588D01*
X21725D02*
X23725D01*
X21725Y82588D02*
Y83588D01*
Y82588D02*
X23725D01*
Y83088D01*
X37040Y80953D02*
Y82073D01*
X37860Y80953D02*
Y82073D01*
X24300Y82413D02*
X27300D01*
X24300Y80763D02*
Y82413D01*
Y80763D02*
X27300D01*
Y82413D01*
X5425Y79338D02*
X10225D01*
X5425D02*
Y88538D01*
X10225D01*
Y79338D02*
Y88538D01*
X36425Y71638D02*
X37425D01*
Y73488D01*
X36425D02*
X37425D01*
X36425Y71638D02*
Y73488D01*
X36163Y71875D02*
Y72995D01*
X35343Y71875D02*
Y72995D01*
X31802Y65025D02*
X32187D01*
X31802D02*
Y65410D01*
X35717Y65025D02*
X36102D01*
Y65410D01*
Y68940D02*
Y69325D01*
X35717D02*
X36102D01*
X31802D02*
X32187D01*
X31802Y68940D02*
Y69325D01*
X29125Y69563D02*
Y70063D01*
Y69563D02*
X31125D01*
Y70563D01*
X29125D02*
X31125D01*
X29125Y70063D02*
Y70563D01*
X29715Y68628D02*
X30835D01*
X29715Y69448D02*
X30835D01*
X29715Y68498D02*
X30835D01*
X29715Y67678D02*
X30835D01*
X36875Y65938D02*
Y66938D01*
Y65938D02*
X38725D01*
Y66938D01*
X36875D02*
X38725D01*
X33881Y63782D02*
X34881D01*
X33881Y61932D02*
Y63782D01*
Y61932D02*
X34881D01*
Y63782D01*
X46075Y52113D02*
Y53113D01*
X44225D02*
X46075D01*
X44225Y52113D02*
Y53113D01*
Y52113D02*
X46075D01*
X44490Y51128D02*
X45610D01*
X44490Y51948D02*
X45610D01*
X43250Y7013D02*
Y7513D01*
Y7013D02*
X45250D01*
Y8013D01*
X43250D02*
X45250D01*
X43250Y7513D02*
Y8013D01*
X42475Y6863D02*
X45175D01*
X42475Y3563D02*
Y6863D01*
Y3563D02*
X45175D01*
Y6863D01*
X45350Y2963D02*
Y3463D01*
X43350D02*
X45350D01*
X43350Y2463D02*
Y3463D01*
Y2463D02*
X45350D01*
Y2963D01*
X2750Y48368D02*
X4150D01*
X2750Y46963D02*
Y48368D01*
X4150Y46963D02*
Y48364D01*
X2750Y46963D02*
X4150D01*
X17675Y36400D02*
Y44400D01*
X25675Y36400D02*
Y44400D01*
X17675Y36400D02*
X25675D01*
X17675Y44400D02*
X25675D01*
X24931D02*
X25675Y43656D01*
X46250Y52138D02*
X47250D01*
Y53988D01*
X46250D02*
X47250D01*
X46250Y52138D02*
Y53988D01*
X48400Y53638D02*
X50250D01*
Y52638D02*
Y53638D01*
X48400Y52638D02*
X50250D01*
X48400D02*
Y53638D01*
X48665Y52548D02*
X49785D01*
X48665Y51728D02*
X49785D01*
X49031Y49682D02*
X49738Y48975D01*
X51046Y50284D01*
X50339Y50991D02*
X51046Y50284D01*
X49031Y49682D02*
X50339Y50991D01*
X53853Y51585D02*
X54973D01*
X53853Y50765D02*
X54973D01*
X52725Y46438D02*
X55925D01*
X52725D02*
Y50438D01*
X55925D01*
Y46438D02*
Y50438D01*
X56100Y41763D02*
Y45763D01*
X53800D02*
X56100D01*
X53800Y41763D02*
Y45763D01*
Y41763D02*
X56100D01*
X52575Y43838D02*
X53075D01*
X52575D02*
Y45838D01*
X53575D01*
Y43838D02*
Y45838D01*
X53075Y43838D02*
X53575D01*
X53075Y43663D02*
X53575D01*
Y41663D02*
Y43663D01*
X52575Y41663D02*
X53575D01*
X52575D02*
Y43663D01*
X53075D01*
X64490Y29753D02*
X65610D01*
X64490Y30573D02*
X65610D01*
X55600Y31338D02*
Y32338D01*
Y31338D02*
X57450D01*
Y32338D01*
X55600D02*
X57450D01*
X57325Y25563D02*
Y30963D01*
X61925Y25563D02*
Y30963D01*
X57325D02*
X61925D01*
X57325Y25563D02*
X61925D01*
X53800Y40738D02*
X54300D01*
Y37988D02*
Y40738D01*
X52950Y37988D02*
X54300D01*
X52950D02*
Y40738D01*
X53800D01*
X52200Y40728D02*
X52700D01*
Y37978D02*
Y40728D01*
X51350Y37978D02*
X52700D01*
X51350D02*
Y40728D01*
X52200D01*
X51250Y38078D02*
Y39198D01*
X50430Y38078D02*
Y39198D01*
X52275Y36763D02*
Y37763D01*
Y36763D02*
X54125D01*
Y37763D01*
X52275D02*
X54125D01*
X44234Y38492D02*
X45354D01*
X44234Y37672D02*
X45354D01*
X44234Y37613D02*
X45354D01*
X44234Y36793D02*
X45354D01*
X43469Y35588D02*
Y36088D01*
Y35588D02*
X45469D01*
Y36588D01*
X43469D02*
X45469D01*
X43469Y36088D02*
Y36588D01*
X42919Y34863D02*
Y35363D01*
X45669D01*
Y34013D02*
Y35363D01*
X42919Y34013D02*
X45669D01*
X42919D02*
Y34863D01*
X45644Y31938D02*
Y33788D01*
X44644Y31938D02*
X45644D01*
X44644D02*
Y33788D01*
X45644D01*
X32450Y35088D02*
X33450D01*
X32450Y33238D02*
Y35088D01*
Y33238D02*
X33450D01*
Y35088D01*
X31250Y32288D02*
X32250D01*
Y34138D01*
X31250D02*
X32250D01*
X31250Y32288D02*
Y34138D01*
X31250Y32063D02*
X32250D01*
X31250Y30213D02*
Y32063D01*
Y30213D02*
X32250D01*
Y32063D01*
X9415Y32448D02*
X10535D01*
X9415Y31628D02*
X10535D01*
X14675Y31663D02*
Y32163D01*
X11925Y31663D02*
X14675D01*
X11925D02*
Y33013D01*
X14675D01*
Y32163D02*
Y33013D01*
X11950Y27813D02*
X12450D01*
X11950D02*
Y29813D01*
X12950D01*
Y27813D02*
Y29813D01*
X12450Y27813D02*
X12950D01*
X10725Y27938D02*
X11725D01*
Y29788D01*
X10725D02*
X11725D01*
X10725Y27938D02*
Y29788D01*
X9175Y28913D02*
X9675D01*
X9175D02*
Y30913D01*
X10175D01*
Y28913D02*
Y30913D01*
X9675Y28913D02*
X10175D01*
X6025Y28613D02*
X8725D01*
X6025D02*
Y32343D01*
X8725D01*
Y28613D02*
Y32343D01*
X7700Y28263D02*
X8200D01*
Y26263D02*
Y28263D01*
X7200Y26263D02*
X8200D01*
X7200D02*
Y28263D01*
X7700D01*
X5975Y26413D02*
X6975D01*
Y28263D01*
X5975D02*
X6975D01*
X5975Y26413D02*
Y28263D01*
X4625Y26763D02*
X5625D01*
Y28613D01*
X4625D02*
X5625D01*
X4625Y26763D02*
Y28613D01*
X4950Y32013D02*
X5450D01*
Y30013D02*
Y32013D01*
X4450Y30013D02*
X5450D01*
X4450D02*
Y32013D01*
X4950D01*
X2350Y28763D02*
X3700D01*
X2350D02*
Y32013D01*
X4200D01*
Y28763D02*
Y32013D01*
X3700Y28763D02*
X4200D01*
X22375Y19588D02*
X22875D01*
X22375D02*
Y21588D01*
X23375D01*
Y19588D02*
Y21588D01*
X22875Y19588D02*
X23375D01*
X22375Y22663D02*
Y23163D01*
X25125D01*
Y21813D02*
Y23163D01*
X22375Y21813D02*
X25125D01*
X22375D02*
Y22663D01*
X29453Y9488D02*
X30803D01*
X29453D02*
Y12738D01*
X31303D01*
Y9488D02*
Y12738D01*
X30803Y9488D02*
X31303D01*
X27378D02*
X28728D01*
X27378D02*
Y12738D01*
X29228D01*
Y9488D02*
Y12738D01*
X28728Y9488D02*
X29228D01*
X26653Y12163D02*
X27153D01*
Y10163D02*
Y12163D01*
X26153Y10163D02*
X27153D01*
X26153D02*
Y12163D01*
X26653D01*
X2650Y11288D02*
Y11788D01*
X4900D01*
Y10438D02*
Y11788D01*
X2650Y10438D02*
X4900D01*
X2650D02*
Y11288D01*
X12363Y14288D02*
Y14688D01*
X11963D02*
X12363D01*
X9043Y14488D02*
Y14688D01*
X11963D01*
X9043Y14288D02*
Y14488D01*
X12363D01*
X9043Y7888D02*
Y14288D01*
Y7888D02*
X11703D01*
X12363D01*
Y13593D01*
Y14288D01*
X9703D02*
X12363D01*
X9043D02*
X9703D01*
X12578Y9538D02*
X13928D01*
X12578D02*
Y12788D01*
X14428D01*
Y9538D02*
Y12788D01*
X13928Y9538D02*
X14428D01*
X10850Y17913D02*
Y18413D01*
X8850D02*
X10850D01*
X8850Y17413D02*
Y18413D01*
Y17413D02*
X10850D01*
Y17913D01*
X11375Y21188D02*
Y21688D01*
X9375D02*
X11375D01*
X9375Y20688D02*
Y21688D01*
Y20688D02*
X11375D01*
Y21188D01*
X16200Y21826D02*
Y22326D01*
X13450Y21826D02*
X16200D01*
X13450D02*
Y23176D01*
X16200D01*
Y22326D02*
Y23176D01*
X16200Y20263D02*
Y20763D01*
X13450Y20263D02*
X16200D01*
X13450D02*
Y21613D01*
X16200D01*
Y20763D02*
Y21613D01*
X14670Y33163D02*
Y33663D01*
X11920Y33163D02*
X14670D01*
X11920D02*
Y34513D01*
X14670D01*
Y33663D02*
Y34513D01*
X5925Y32900D02*
X11425D01*
Y38126D01*
X5925D02*
X11425D01*
X5925Y32900D02*
Y38126D01*
X21554Y76292D02*
Y78664D01*
Y76292D02*
X25496D01*
Y78664D01*
X21554D02*
X25496D01*
X69129Y68042D02*
Y70414D01*
Y68042D02*
X73071D01*
Y70414D01*
X69129D02*
X73071D01*
X22504Y27317D02*
Y29689D01*
Y27317D02*
X26446D01*
Y29689D01*
X22504D02*
X26446D01*
X80229Y4967D02*
Y7339D01*
Y4967D02*
X84171D01*
Y7339D01*
X80229D02*
X84171D01*
X38837Y40609D02*
X39644Y39801D01*
X38837D02*
X48837D01*
X38837Y49801D02*
X48837D01*
X38837Y39801D02*
Y49801D01*
X48837Y39801D02*
Y49801D01*
X94497Y45749D02*
Y53877D01*
X85861D02*
X94497D01*
X85861Y45749D02*
Y53877D01*
Y45749D02*
X94497D01*
X89020Y29021D02*
X99990D01*
X89020D02*
Y39689D01*
X99990D01*
X-1412Y25675D02*
X636D01*
X-1412Y24948D02*
Y25675D01*
Y12875D02*
Y24948D01*
Y12875D02*
X1636D01*
X6916D01*
Y16375D01*
Y25675D01*
X636D02*
X6916D01*
X89020Y17336D02*
X99990D01*
X89020D02*
Y28004D01*
X99990D01*
X53782Y59826D02*
Y62326D01*
X47732D02*
X53782D01*
X47707Y59826D02*
X53782D01*
X47357Y60176D02*
X47707Y59826D01*
X47357Y60176D02*
Y61951D01*
X47732Y62326D01*
X94497Y56036D02*
Y64164D01*
X85861D02*
X94497D01*
X85861Y56036D02*
Y64164D01*
Y56036D02*
X94497D01*
Y66324D02*
Y74452D01*
X85861D02*
X94497D01*
X85861Y66324D02*
Y74452D01*
Y66324D02*
X94497D01*
D14*
X7700Y95000D02*
G03*
X7700Y95000I-2700J0D01*
G01*
X7700Y5000D02*
G03*
X7700Y5000I-2700J0D01*
G01*
X97700Y95000D02*
G03*
X97700Y95000I-2700J0D01*
G01*
X97700Y5000D02*
G03*
X97700Y5000I-2700J0D01*
G01*
X127Y57335D02*
Y75335D01*
Y57335D02*
X22102D01*
Y75335D01*
X127D02*
X22102D01*
X25928Y7544D02*
Y14944D01*
X14528Y7544D02*
X25928D01*
X14528D02*
Y14944D01*
X25928D01*
D15*
X56725Y42038D02*
X56600Y41913D01*
Y41663D01*
X56725Y41538D01*
X57225D01*
X57350Y41663D01*
Y41913D01*
X57225Y42038D01*
X57350Y42663D02*
X56600D01*
X56975Y42288D01*
Y42788D01*
X57350Y43413D02*
X56600D01*
X56975Y43038D01*
Y43538D01*
X56725Y44638D02*
X56600Y44513D01*
Y44263D01*
X56725Y44138D01*
X57225D01*
X57350Y44263D01*
Y44513D01*
X57225Y44638D01*
X57350Y45263D02*
X56600D01*
X56975Y44888D01*
Y45388D01*
X56600Y46138D02*
Y45638D01*
X56975D01*
X56850Y45888D01*
Y46013D01*
X56975Y46138D01*
X57225D01*
X57350Y46013D01*
Y45763D01*
X57225Y45638D01*
X38713Y51489D02*
Y50864D01*
X38838Y50739D01*
X39088D01*
X39213Y50864D01*
Y51489D01*
X39963D02*
X39713Y51364D01*
X39463Y51114D01*
Y50864D01*
X39588Y50739D01*
X39838D01*
X39963Y50864D01*
Y50989D01*
X39838Y51114D01*
X39463D01*
X57925Y43363D02*
X58675Y43863D01*
X57925D02*
X58675Y43363D01*
Y44113D02*
Y44363D01*
Y44238D01*
X57925D01*
X58050Y44113D01*
X56700Y47913D02*
X57450Y48413D01*
X56700D02*
X57450Y47913D01*
Y49163D02*
Y48663D01*
X56950Y49163D01*
X56825D01*
X56700Y49038D01*
Y48788D01*
X56825Y48663D01*
X39450Y66038D02*
Y66788D01*
X39825D01*
X39950Y66663D01*
Y66413D01*
X39825Y66288D01*
X39450D01*
X39700D02*
X39950Y66038D01*
X40700D02*
X40200D01*
X40700Y66538D01*
Y66663D01*
X40575Y66788D01*
X40325D01*
X40200Y66663D01*
X41450Y66788D02*
X41200Y66663D01*
X40950Y66413D01*
Y66163D01*
X41075Y66038D01*
X41325D01*
X41450Y66163D01*
Y66288D01*
X41325Y66413D01*
X40950D01*
X37300Y74076D02*
X36550D01*
Y74451D01*
X36675Y74576D01*
X36925D01*
X37050Y74451D01*
Y74076D01*
Y74326D02*
X37300Y74576D01*
Y75325D02*
Y74826D01*
X36800Y75325D01*
X36675D01*
X36550Y75201D01*
Y74951D01*
X36675Y74826D01*
X36550Y76075D02*
Y75575D01*
X36925D01*
X36800Y75825D01*
Y75950D01*
X36925Y76075D01*
X37175D01*
X37300Y75950D01*
Y75700D01*
X37175Y75575D01*
X9350Y26088D02*
X8600D01*
Y26463D01*
X8725Y26588D01*
X8975D01*
X9100Y26463D01*
Y26088D01*
Y26338D02*
X9350Y26588D01*
Y27338D02*
Y26838D01*
X8850Y27338D01*
X8725D01*
X8600Y27213D01*
Y26963D01*
X8725Y26838D01*
X9350Y27963D02*
X8600D01*
X8975Y27588D01*
Y28088D01*
X14825Y16438D02*
Y15688D01*
X15325D01*
X16075Y16438D02*
X15825Y16313D01*
X15575Y16063D01*
Y15813D01*
X15700Y15688D01*
X15950D01*
X16075Y15813D01*
Y15938D01*
X15950Y16063D01*
X15575D01*
X35500Y74576D02*
X35375Y74451D01*
Y74201D01*
X35500Y74076D01*
X36000D01*
X36125Y74201D01*
Y74451D01*
X36000Y74576D01*
X36125Y74826D02*
Y75076D01*
Y74951D01*
X35375D01*
X35500Y74826D01*
Y75450D02*
X35375Y75575D01*
Y75825D01*
X35500Y75950D01*
X36000D01*
X36125Y75825D01*
Y75575D01*
X36000Y75450D01*
X35500D01*
X36125Y76700D02*
Y76200D01*
X35625Y76700D01*
X35500D01*
X35375Y76575D01*
Y76325D01*
X35500Y76200D01*
X9775Y26251D02*
X9650Y26126D01*
Y25876D01*
X9775Y25751D01*
X10275D01*
X10400Y25876D01*
Y26126D01*
X10275Y26251D01*
X10400Y26501D02*
Y26751D01*
Y26626D01*
X9650D01*
X9775Y26501D01*
Y27125D02*
X9650Y27250D01*
Y27500D01*
X9775Y27625D01*
X10275D01*
X10400Y27500D01*
Y27250D01*
X10275Y27125D01*
X9775D01*
X10400Y27875D02*
Y28125D01*
Y28000D01*
X9650D01*
X9775Y27875D01*
X26400Y13276D02*
X26275Y13151D01*
Y12901D01*
X26400Y12776D01*
X26900D01*
X27025Y12901D01*
Y13151D01*
X26900Y13276D01*
X27025Y13526D02*
Y13776D01*
Y13651D01*
X26275D01*
X26400Y13526D01*
Y14150D02*
X26275Y14275D01*
Y14525D01*
X26400Y14650D01*
X26900D01*
X27025Y14525D01*
Y14275D01*
X26900Y14150D01*
X26400D01*
Y14900D02*
X26275Y15025D01*
Y15275D01*
X26400Y15400D01*
X26900D01*
X27025Y15275D01*
Y15025D01*
X26900Y14900D01*
X26400D01*
X28050Y13663D02*
X27925Y13538D01*
Y13288D01*
X28050Y13163D01*
X28550D01*
X28675Y13288D01*
Y13538D01*
X28550Y13663D01*
Y13913D02*
X28675Y14038D01*
Y14288D01*
X28550Y14413D01*
X28050D01*
X27925Y14288D01*
Y14038D01*
X28050Y13913D01*
X28175D01*
X28300Y14038D01*
Y14413D01*
X28550Y14663D02*
X28675Y14788D01*
Y15038D01*
X28550Y15163D01*
X28050D01*
X27925Y15038D01*
Y14788D01*
X28050Y14663D01*
X28175D01*
X28300Y14788D01*
Y15163D01*
X30100Y13663D02*
X29975Y13538D01*
Y13288D01*
X30100Y13163D01*
X30600D01*
X30725Y13288D01*
Y13538D01*
X30600Y13663D01*
Y13913D02*
X30725Y14038D01*
Y14288D01*
X30600Y14413D01*
X30100D01*
X29975Y14288D01*
Y14038D01*
X30100Y13913D01*
X30225D01*
X30350Y14038D01*
Y14413D01*
X30100Y14663D02*
X29975Y14788D01*
Y15038D01*
X30100Y15163D01*
X30225D01*
X30350Y15038D01*
X30475Y15163D01*
X30600D01*
X30725Y15038D01*
Y14788D01*
X30600Y14663D01*
X30475D01*
X30350Y14788D01*
X30225Y14663D01*
X30100D01*
X30350Y14788D02*
Y15038D01*
X13075Y13788D02*
X12950Y13663D01*
Y13413D01*
X13075Y13288D01*
X13575D01*
X13700Y13413D01*
Y13663D01*
X13575Y13788D01*
Y14038D02*
X13700Y14163D01*
Y14413D01*
X13575Y14538D01*
X13075D01*
X12950Y14413D01*
Y14163D01*
X13075Y14038D01*
X13200D01*
X13325Y14163D01*
Y14538D01*
X12950Y14788D02*
Y15288D01*
X13075D01*
X13575Y14788D01*
X13700D01*
X58775Y32413D02*
Y31788D01*
X58900Y31663D01*
X59150D01*
X59275Y31788D01*
Y32413D01*
X59900Y31663D02*
Y32413D01*
X59525Y32038D01*
X60025D01*
X45713Y5600D02*
Y4976D01*
X45838Y4851D01*
X46088D01*
X46213Y4976D01*
Y5600D01*
X46463Y5475D02*
X46588Y5600D01*
X46838D01*
X46962Y5475D01*
Y5350D01*
X46838Y5225D01*
X46713D01*
X46838D01*
X46962Y5101D01*
Y4976D01*
X46838Y4851D01*
X46588D01*
X46463Y4976D01*
X4425Y35488D02*
Y34863D01*
X4550Y34738D01*
X4800D01*
X4925Y34863D01*
Y35488D01*
X5675Y34738D02*
X5175D01*
X5675Y35238D01*
Y35363D01*
X5550Y35488D01*
X5300D01*
X5175Y35363D01*
X17250Y24616D02*
Y23991D01*
X17375Y23866D01*
X17625D01*
X17750Y23991D01*
Y24616D01*
X18000Y23866D02*
X18250D01*
X18125D01*
Y24616D01*
X18000Y24491D01*
X89175Y90488D02*
Y91238D01*
X89550D01*
X89675Y91113D01*
Y90863D01*
X89550Y90738D01*
X89175D01*
X89425D02*
X89675Y90488D01*
X90425D02*
X89925D01*
X90425Y90988D01*
Y91113D01*
X90300Y91238D01*
X90050D01*
X89925Y91113D01*
X90675D02*
X90800Y91238D01*
X91050D01*
X91175Y91113D01*
Y90988D01*
X91050Y90863D01*
X90925D01*
X91050D01*
X91175Y90738D01*
Y90613D01*
X91050Y90488D01*
X90800D01*
X90675Y90613D01*
X34700Y59701D02*
X33950D01*
Y60076D01*
X34075Y60201D01*
X34325D01*
X34450Y60076D01*
Y59701D01*
Y59951D02*
X34700Y60201D01*
Y60451D02*
Y60700D01*
Y60575D01*
X33950D01*
X34075Y60451D01*
X34575Y61075D02*
X34700Y61200D01*
Y61450D01*
X34575Y61575D01*
X34075D01*
X33950Y61450D01*
Y61200D01*
X34075Y61075D01*
X34200D01*
X34325Y61200D01*
Y61575D01*
X50938Y50963D02*
Y51713D01*
X51313D01*
X51438Y51588D01*
Y51338D01*
X51313Y51213D01*
X50938D01*
X51188D02*
X51438Y50963D01*
X51688D02*
X51938D01*
X51813D01*
Y51713D01*
X51688Y51588D01*
X52312Y51713D02*
X52812D01*
Y51588D01*
X52312Y51088D01*
Y50963D01*
X64725Y64201D02*
X63975D01*
Y64576D01*
X64100Y64701D01*
X64350D01*
X64475Y64576D01*
Y64201D01*
Y64451D02*
X64725Y64701D01*
Y64951D02*
Y65200D01*
Y65075D01*
X63975D01*
X64100Y64951D01*
Y65575D02*
X63975Y65700D01*
Y65950D01*
X64100Y66075D01*
X64225D01*
X64350Y65950D01*
Y65825D01*
Y65950D01*
X64475Y66075D01*
X64600D01*
X64725Y65950D01*
Y65700D01*
X64600Y65575D01*
X63500Y64201D02*
X62750D01*
Y64576D01*
X62875Y64701D01*
X63125D01*
X63250Y64576D01*
Y64201D01*
Y64451D02*
X63500Y64701D01*
Y64951D02*
Y65200D01*
Y65075D01*
X62750D01*
X62875Y64951D01*
X63500Y66075D02*
Y65575D01*
X63000Y66075D01*
X62875D01*
X62750Y65950D01*
Y65700D01*
X62875Y65575D01*
X41768Y52305D02*
Y53055D01*
X42143D01*
X42268Y52930D01*
Y52680D01*
X42143Y52555D01*
X41768D01*
X42018D02*
X42268Y52305D01*
X42518D02*
X42767D01*
X42642D01*
Y53055D01*
X42518Y52930D01*
X43142D02*
X43267Y53055D01*
X43517D01*
X43642Y52930D01*
Y52430D01*
X43517Y52305D01*
X43267D01*
X43142Y52430D01*
Y52930D01*
X47152Y54610D02*
X46402D01*
Y54985D01*
X46527Y55110D01*
X46777D01*
X46902Y54985D01*
Y54610D01*
Y54860D02*
X47152Y55110D01*
X47027Y55360D02*
X47152Y55485D01*
Y55735D01*
X47027Y55860D01*
X46527D01*
X46402Y55735D01*
Y55485D01*
X46527Y55360D01*
X46652D01*
X46777Y55485D01*
Y55860D01*
X55675Y32663D02*
Y33413D01*
X56050D01*
X56175Y33288D01*
Y33038D01*
X56050Y32913D01*
X55675D01*
X55925D02*
X56175Y32663D01*
X56425Y33288D02*
X56550Y33413D01*
X56800D01*
X56925Y33288D01*
Y33163D01*
X56800Y33038D01*
X56925Y32913D01*
Y32788D01*
X56800Y32663D01*
X56550D01*
X56425Y32788D01*
Y32913D01*
X56550Y33038D01*
X56425Y33163D01*
Y33288D01*
X56550Y33038D02*
X56800D01*
X4050Y26888D02*
X3300D01*
Y27263D01*
X3425Y27388D01*
X3675D01*
X3800Y27263D01*
Y26888D01*
Y27138D02*
X4050Y27388D01*
X3300Y27638D02*
Y28138D01*
X3425D01*
X3925Y27638D01*
X4050D01*
X15300Y27838D02*
X14550D01*
Y28213D01*
X14675Y28338D01*
X14925D01*
X15050Y28213D01*
Y27838D01*
Y28088D02*
X15300Y28338D01*
X14550Y29088D02*
X14675Y28838D01*
X14925Y28588D01*
X15175D01*
X15300Y28713D01*
Y28963D01*
X15175Y29088D01*
X15050D01*
X14925Y28963D01*
Y28588D01*
X2925Y9188D02*
Y9938D01*
X3300D01*
X3425Y9813D01*
Y9563D01*
X3300Y9438D01*
X2925D01*
X3175D02*
X3425Y9188D01*
X4175Y9938D02*
X3675D01*
Y9563D01*
X3925Y9688D01*
X4050D01*
X4175Y9563D01*
Y9313D01*
X4050Y9188D01*
X3800D01*
X3675Y9313D01*
X30750Y32713D02*
X30000D01*
Y33088D01*
X30125Y33213D01*
X30375D01*
X30500Y33088D01*
Y32713D01*
Y32963D02*
X30750Y33213D01*
Y33838D02*
X30000D01*
X30375Y33463D01*
Y33963D01*
X30750Y30513D02*
X30000D01*
Y30888D01*
X30125Y31013D01*
X30375D01*
X30500Y30888D01*
Y30513D01*
Y30763D02*
X30750Y31013D01*
X30125Y31263D02*
X30000Y31388D01*
Y31638D01*
X30125Y31763D01*
X30250D01*
X30375Y31638D01*
Y31513D01*
Y31638D01*
X30500Y31763D01*
X30625D01*
X30750Y31638D01*
Y31388D01*
X30625Y31263D01*
X34575Y33638D02*
X33825D01*
Y34013D01*
X33950Y34138D01*
X34200D01*
X34325Y34013D01*
Y33638D01*
Y33888D02*
X34575Y34138D01*
Y34888D02*
Y34388D01*
X34075Y34888D01*
X33950D01*
X33825Y34763D01*
Y34513D01*
X33950Y34388D01*
X47359Y34563D02*
Y33813D01*
X47859D01*
X48609D02*
X48109D01*
X48609Y34313D01*
Y34438D01*
X48484Y34563D01*
X48234D01*
X48109Y34438D01*
X64638Y31688D02*
X64513Y31813D01*
X64263D01*
X64138Y31688D01*
Y31188D01*
X64263Y31063D01*
X64513D01*
X64638Y31188D01*
X64888Y31063D02*
X65138D01*
X65013D01*
Y31813D01*
X64888Y31688D01*
X65512D02*
X65637Y31813D01*
X65887D01*
X66012Y31688D01*
Y31563D01*
X65887Y31438D01*
X66012Y31313D01*
Y31188D01*
X65887Y31063D01*
X65637D01*
X65512Y31188D01*
Y31313D01*
X65637Y31438D01*
X65512Y31563D01*
Y31688D01*
X65637Y31438D02*
X65887D01*
X18113Y32513D02*
X17988Y32638D01*
X17738D01*
X17613Y32513D01*
Y32013D01*
X17738Y31888D01*
X17988D01*
X18113Y32013D01*
X18363Y31888D02*
X18613D01*
X18488D01*
Y32638D01*
X18363Y32513D01*
X19487Y32638D02*
X19237Y32513D01*
X18987Y32263D01*
Y32013D01*
X19112Y31888D01*
X19362D01*
X19487Y32013D01*
Y32138D01*
X19362Y32263D01*
X18987D01*
X15688Y32513D02*
X15563Y32638D01*
X15313D01*
X15188Y32513D01*
Y32013D01*
X15313Y31888D01*
X15563D01*
X15688Y32013D01*
X15938Y31888D02*
X16188D01*
X16063D01*
Y32638D01*
X15938Y32513D01*
X17062Y32638D02*
X16562D01*
Y32263D01*
X16812Y32388D01*
X16937D01*
X17062Y32263D01*
Y32013D01*
X16937Y31888D01*
X16687D01*
X16562Y32013D01*
X15850Y28338D02*
X15725Y28213D01*
Y27963D01*
X15850Y27838D01*
X16350D01*
X16475Y27963D01*
Y28213D01*
X16350Y28338D01*
X16475Y28588D02*
Y28838D01*
Y28713D01*
X15725D01*
X15850Y28588D01*
X16475Y29588D02*
X15725D01*
X16100Y29213D01*
Y29713D01*
X46213Y7738D02*
X46088Y7863D01*
X45838D01*
X45713Y7738D01*
Y7238D01*
X45838Y7113D01*
X46088D01*
X46213Y7238D01*
X46463Y7113D02*
X46713D01*
X46588D01*
Y7863D01*
X46463Y7738D01*
X47087D02*
X47212Y7863D01*
X47462D01*
X47587Y7738D01*
Y7613D01*
X47462Y7488D01*
X47337D01*
X47462D01*
X47587Y7363D01*
Y7238D01*
X47462Y7113D01*
X47212D01*
X47087Y7238D01*
X46213Y3213D02*
X46088Y3338D01*
X45838D01*
X45713Y3213D01*
Y2713D01*
X45838Y2588D01*
X46088D01*
X46213Y2713D01*
X46463Y2588D02*
X46713D01*
X46588D01*
Y3338D01*
X46463Y3213D01*
X47587Y2588D02*
X47087D01*
X47587Y3088D01*
Y3213D01*
X47462Y3338D01*
X47212D01*
X47087Y3213D01*
X13500Y29351D02*
X13375Y29226D01*
Y28976D01*
X13500Y28851D01*
X14000D01*
X14125Y28976D01*
Y29226D01*
X14000Y29351D01*
X14125Y29600D02*
Y29850D01*
Y29725D01*
X13375D01*
X13500Y29600D01*
X14125Y30225D02*
Y30475D01*
Y30350D01*
X13375D01*
X13500Y30225D01*
X4700Y32926D02*
X4575Y32801D01*
Y32551D01*
X4700Y32426D01*
X5200D01*
X5325Y32551D01*
Y32801D01*
X5200Y32926D01*
X5325Y33176D02*
Y33425D01*
Y33300D01*
X4575D01*
X4700Y33176D01*
Y33800D02*
X4575Y33925D01*
Y34175D01*
X4700Y34300D01*
X5200D01*
X5325Y34175D01*
Y33925D01*
X5200Y33800D01*
X4700D01*
X3025Y32926D02*
X2900Y32801D01*
Y32551D01*
X3025Y32426D01*
X3525D01*
X3650Y32551D01*
Y32801D01*
X3525Y32926D01*
Y33176D02*
X3650Y33300D01*
Y33550D01*
X3525Y33675D01*
X3025D01*
X2900Y33550D01*
Y33300D01*
X3025Y33176D01*
X3150D01*
X3275Y33300D01*
Y33675D01*
X22575Y16513D02*
X22450Y16388D01*
Y16138D01*
X22575Y16013D01*
X23075D01*
X23200Y16138D01*
Y16388D01*
X23075Y16513D01*
X22450Y17263D02*
X22575Y17013D01*
X22825Y16763D01*
X23075D01*
X23200Y16888D01*
Y17138D01*
X23075Y17263D01*
X22950D01*
X22825Y17138D01*
Y16763D01*
X12300Y22713D02*
X12175Y22838D01*
X11925D01*
X11800Y22713D01*
Y22213D01*
X11925Y22088D01*
X12175D01*
X12300Y22213D01*
X13050Y22838D02*
X12550D01*
Y22463D01*
X12800Y22588D01*
X12925D01*
X13050Y22463D01*
Y22213D01*
X12925Y22088D01*
X12675D01*
X12550Y22213D01*
X12300Y21138D02*
X12175Y21263D01*
X11925D01*
X11800Y21138D01*
Y20638D01*
X11925Y20513D01*
X12175D01*
X12300Y20638D01*
X12925Y20513D02*
Y21263D01*
X12550Y20888D01*
X13050D01*
X9325Y19513D02*
X9200Y19638D01*
X8950D01*
X8825Y19513D01*
Y19013D01*
X8950Y18888D01*
X9200D01*
X9325Y19013D01*
X9575Y19513D02*
X9700Y19638D01*
X9950D01*
X10075Y19513D01*
Y19388D01*
X9950Y19263D01*
X9825D01*
X9950D01*
X10075Y19138D01*
Y19013D01*
X9950Y18888D01*
X9700D01*
X9575Y19013D01*
X9800Y22688D02*
X9675Y22813D01*
X9425D01*
X9300Y22688D01*
Y22188D01*
X9425Y22063D01*
X9675D01*
X9800Y22188D01*
X10550Y22063D02*
X10050D01*
X10550Y22563D01*
Y22688D01*
X10425Y22813D01*
X10175D01*
X10050Y22688D01*
X23775Y24463D02*
X23650Y24588D01*
X23400D01*
X23275Y24463D01*
Y23963D01*
X23400Y23838D01*
X23650D01*
X23775Y23963D01*
X24025Y23838D02*
X24275D01*
X24150D01*
Y24588D01*
X24025Y24463D01*
X35413Y84963D02*
Y84338D01*
X35538Y84213D01*
X35788D01*
X35913Y84338D01*
Y84963D01*
X36163Y84213D02*
X36412D01*
X36288D01*
Y84963D01*
X36163Y84838D01*
X36787Y84213D02*
X37037D01*
X36912D01*
Y84963D01*
X36787Y84838D01*
X89163Y88513D02*
Y87888D01*
X89288Y87763D01*
X89538D01*
X89663Y87888D01*
Y88513D01*
X89913Y87763D02*
X90163D01*
X90038D01*
Y88513D01*
X89913Y88388D01*
X90537D02*
X90662Y88513D01*
X90912D01*
X91037Y88388D01*
Y87888D01*
X90912Y87763D01*
X90662D01*
X90537Y87888D01*
Y88388D01*
X62350Y82588D02*
Y81963D01*
X62475Y81838D01*
X62725D01*
X62850Y81963D01*
Y82588D01*
X63100Y81963D02*
X63225Y81838D01*
X63475D01*
X63600Y81963D01*
Y82463D01*
X63475Y82588D01*
X63225D01*
X63100Y82463D01*
Y82338D01*
X63225Y82213D01*
X63600D01*
X41225Y74938D02*
Y74313D01*
X41350Y74188D01*
X41600D01*
X41725Y74313D01*
Y74938D01*
X41975Y74813D02*
X42100Y74938D01*
X42350D01*
X42475Y74813D01*
Y74688D01*
X42350Y74563D01*
X42475Y74438D01*
Y74313D01*
X42350Y74188D01*
X42100D01*
X41975Y74313D01*
Y74438D01*
X42100Y74563D01*
X41975Y74688D01*
Y74813D01*
X42100Y74563D02*
X42350D01*
X31675Y71313D02*
Y70688D01*
X31800Y70563D01*
X32050D01*
X32175Y70688D01*
Y71313D01*
X32425D02*
X32925D01*
Y71188D01*
X32425Y70688D01*
Y70563D01*
X17725Y45888D02*
Y45263D01*
X17850Y45138D01*
X18100D01*
X18225Y45263D01*
Y45888D01*
X18975D02*
X18475D01*
Y45513D01*
X18725Y45638D01*
X18850D01*
X18975Y45513D01*
Y45263D01*
X18850Y45138D01*
X18600D01*
X18475Y45263D01*
X17625Y85238D02*
X18125D01*
X17875D01*
Y84488D01*
X18375Y85238D02*
Y84738D01*
X18625Y84488D01*
X18875Y84738D01*
Y85238D01*
X19625Y85113D02*
X19500Y85238D01*
X19250D01*
X19125Y85113D01*
Y84988D01*
X19250Y84863D01*
X19500D01*
X19625Y84738D01*
Y84613D01*
X19500Y84488D01*
X19250D01*
X19125Y84613D01*
X20375Y85238D02*
X19875D01*
Y84863D01*
X20125Y84988D01*
X20250D01*
X20375Y84863D01*
Y84613D01*
X20250Y84488D01*
X20000D01*
X19875Y84613D01*
X73101Y85188D02*
X73600D01*
X73350D01*
Y84438D01*
X73850Y85188D02*
Y84688D01*
X74100Y84438D01*
X74350Y84688D01*
Y85188D01*
X75100Y85063D02*
X74975Y85188D01*
X74725D01*
X74600Y85063D01*
Y84938D01*
X74725Y84813D01*
X74975D01*
X75100Y84688D01*
Y84563D01*
X74975Y84438D01*
X74725D01*
X74600Y84563D01*
X75725Y84438D02*
Y85188D01*
X75350Y84813D01*
X75850D01*
X44600Y86313D02*
X45100D01*
X44850D01*
Y85563D01*
X45350Y86313D02*
Y85813D01*
X45600Y85563D01*
X45850Y85813D01*
Y86313D01*
X46600Y86188D02*
X46475Y86313D01*
X46225D01*
X46100Y86188D01*
Y86063D01*
X46225Y85938D01*
X46475D01*
X46600Y85813D01*
Y85688D01*
X46475Y85563D01*
X46225D01*
X46100Y85688D01*
X46850Y86188D02*
X46975Y86313D01*
X47225D01*
X47350Y86188D01*
Y86063D01*
X47225Y85938D01*
X47100D01*
X47225D01*
X47350Y85813D01*
Y85688D01*
X47225Y85563D01*
X46975D01*
X46850Y85688D01*
X9226Y15963D02*
X9725D01*
X9475D01*
Y15213D01*
X9975Y15963D02*
Y15463D01*
X10225Y15213D01*
X10475Y15463D01*
Y15963D01*
X11225Y15838D02*
X11100Y15963D01*
X10850D01*
X10725Y15838D01*
Y15713D01*
X10850Y15588D01*
X11100D01*
X11225Y15463D01*
Y15338D01*
X11100Y15213D01*
X10850D01*
X10725Y15338D01*
X11975Y15213D02*
X11475D01*
X11975Y15713D01*
Y15838D01*
X11850Y15963D01*
X11600D01*
X11475Y15838D01*
X6075Y89588D02*
X5950Y89713D01*
X5700D01*
X5575Y89588D01*
Y89463D01*
X5700Y89338D01*
X5950D01*
X6075Y89213D01*
Y89088D01*
X5950Y88963D01*
X5700D01*
X5575Y89088D01*
X6325Y89713D02*
Y88963D01*
X6575Y89213D01*
X6825Y88963D01*
Y89713D01*
X7075Y88963D02*
X7325D01*
X7200D01*
Y89713D01*
X7075Y89588D01*
X3050Y46238D02*
Y45488D01*
X3550D01*
X4300Y46238D02*
X3800D01*
Y45488D01*
X4300D01*
X3800Y45863D02*
X4050D01*
X4550Y46238D02*
Y45488D01*
X4925D01*
X5050Y45613D01*
Y46113D01*
X4925Y46238D01*
X4550D01*
X5300Y45488D02*
X5550D01*
X5425D01*
Y46238D01*
X5300Y46113D01*
X25125Y83663D02*
Y82913D01*
X25625D01*
X26375Y83663D02*
X25875D01*
Y83288D01*
X26125Y83413D01*
X26250D01*
X26375Y83288D01*
Y83038D01*
X26250Y82913D01*
X26000D01*
X25875Y83038D01*
X69700Y79338D02*
X70450D01*
Y79838D01*
Y80463D02*
X69700D01*
X70075Y80088D01*
Y80588D01*
X43875Y79363D02*
X44625D01*
Y79863D01*
X44000Y80113D02*
X43875Y80238D01*
Y80488D01*
X44000Y80613D01*
X44125D01*
X44250Y80488D01*
Y80363D01*
Y80488D01*
X44375Y80613D01*
X44500D01*
X44625Y80488D01*
Y80238D01*
X44500Y80113D01*
X15438Y86438D02*
X15188D01*
X15313D01*
Y85813D01*
X15188Y85688D01*
X15063D01*
X14938Y85813D01*
X15688Y85688D02*
X15938D01*
X15813D01*
Y86438D01*
X15688Y86313D01*
X16312Y85688D02*
X16562D01*
X16437D01*
Y86438D01*
X16312Y86313D01*
X63788Y86213D02*
X63538D01*
X63663D01*
Y85588D01*
X63538Y85463D01*
X63413D01*
X63288Y85588D01*
X64038Y85463D02*
X64288D01*
X64163D01*
Y86213D01*
X64038Y86088D01*
X64662D02*
X64787Y86213D01*
X65037D01*
X65162Y86088D01*
Y85588D01*
X65037Y85463D01*
X64787D01*
X64662Y85588D01*
Y86088D01*
X39775Y86363D02*
X39525D01*
X39650D01*
Y85738D01*
X39525Y85613D01*
X39400D01*
X39275Y85738D01*
X40025D02*
X40150Y85613D01*
X40400D01*
X40525Y85738D01*
Y86238D01*
X40400Y86363D01*
X40150D01*
X40025Y86238D01*
Y86113D01*
X40150Y85988D01*
X40525D01*
X86713Y80813D02*
X86213D01*
Y80438D01*
X86463D01*
X86213D01*
Y80063D01*
X86963Y80813D02*
Y80063D01*
X87338D01*
X87463Y80188D01*
Y80313D01*
X87338Y80438D01*
X86963D01*
X87338D01*
X87463Y80563D01*
Y80688D01*
X87338Y80813D01*
X86963D01*
X87713Y80063D02*
X87962D01*
X87837D01*
Y80813D01*
X87713Y80688D01*
X88337D02*
X88462Y80813D01*
X88712D01*
X88837Y80688D01*
Y80563D01*
X88712Y80438D01*
X88837Y80313D01*
Y80188D01*
X88712Y80063D01*
X88462D01*
X88337Y80188D01*
Y80313D01*
X88462Y80438D01*
X88337Y80563D01*
Y80688D01*
X88462Y80438D02*
X88712D01*
X50370Y55991D02*
X49870D01*
Y55616D01*
X50120D01*
X49870D01*
Y55241D01*
X50620Y55991D02*
Y55241D01*
X50995D01*
X51120Y55366D01*
Y55491D01*
X50995Y55616D01*
X50620D01*
X50995D01*
X51120Y55741D01*
Y55866D01*
X50995Y55991D01*
X50620D01*
X51370Y55241D02*
X51620D01*
X51495D01*
Y55991D01*
X51370Y55866D01*
X52495Y55991D02*
X52245Y55866D01*
X51995Y55616D01*
Y55366D01*
X52120Y55241D01*
X52370D01*
X52495Y55366D01*
Y55491D01*
X52370Y55616D01*
X51995D01*
X52575Y36363D02*
X52075D01*
Y35988D01*
X52325D01*
X52075D01*
Y35613D01*
X52825Y36363D02*
Y35613D01*
X53200D01*
X53325Y35738D01*
Y35863D01*
X53200Y35988D01*
X52825D01*
X53200D01*
X53325Y36113D01*
Y36238D01*
X53200Y36363D01*
X52825D01*
X53575Y35738D02*
X53700Y35613D01*
X53950D01*
X54075Y35738D01*
Y36238D01*
X53950Y36363D01*
X53700D01*
X53575Y36238D01*
Y36113D01*
X53700Y35988D01*
X54075D01*
X46050Y32238D02*
Y31738D01*
X46425D01*
Y31988D01*
Y31738D01*
X46800D01*
X46050Y32488D02*
X46800D01*
Y32863D01*
X46675Y32988D01*
X46550D01*
X46425Y32863D01*
Y32488D01*
Y32863D01*
X46300Y32988D01*
X46175D01*
X46050Y32863D01*
Y32488D01*
X46175Y33238D02*
X46050Y33363D01*
Y33613D01*
X46175Y33738D01*
X46300D01*
X46425Y33613D01*
X46550Y33738D01*
X46675D01*
X46800Y33613D01*
Y33363D01*
X46675Y33238D01*
X46550D01*
X46425Y33363D01*
X46300Y33238D01*
X46175D01*
X46425Y33363D02*
Y33613D01*
X38475Y80963D02*
X38350Y80838D01*
Y80588D01*
X38475Y80463D01*
X38975D01*
X39100Y80588D01*
Y80838D01*
X38975Y80963D01*
Y81213D02*
X39100Y81338D01*
Y81588D01*
X38975Y81713D01*
X38475D01*
X38350Y81588D01*
Y81338D01*
X38475Y81213D01*
X38600D01*
X38725Y81338D01*
Y81713D01*
X38350Y82463D02*
X38475Y82213D01*
X38725Y81963D01*
X38975D01*
X39100Y82088D01*
Y82338D01*
X38975Y82463D01*
X38850D01*
X38725Y82338D01*
Y81963D01*
X22300Y81988D02*
X22175Y82113D01*
X21925D01*
X21800Y81988D01*
Y81488D01*
X21925Y81363D01*
X22175D01*
X22300Y81488D01*
X22550D02*
X22675Y81363D01*
X22925D01*
X23050Y81488D01*
Y81988D01*
X22925Y82113D01*
X22675D01*
X22550Y81988D01*
Y81863D01*
X22675Y81738D01*
X23050D01*
X23800Y82113D02*
X23300D01*
Y81738D01*
X23550Y81863D01*
X23675D01*
X23800Y81738D01*
Y81488D01*
X23675Y81363D01*
X23425D01*
X23300Y81488D01*
X20025Y81988D02*
X19900Y82113D01*
X19650D01*
X19525Y81988D01*
Y81488D01*
X19650Y81363D01*
X19900D01*
X20025Y81488D01*
X20275D02*
X20400Y81363D01*
X20650D01*
X20775Y81488D01*
Y81988D01*
X20650Y82113D01*
X20400D01*
X20275Y81988D01*
Y81863D01*
X20400Y81738D01*
X20775D01*
X21400Y81363D02*
Y82113D01*
X21025Y81738D01*
X21525D01*
X86713Y81788D02*
X86588Y81913D01*
X86338D01*
X86213Y81788D01*
Y81288D01*
X86338Y81163D01*
X86588D01*
X86713Y81288D01*
X86963D02*
X87088Y81163D01*
X87338D01*
X87463Y81288D01*
Y81788D01*
X87338Y81913D01*
X87088D01*
X86963Y81788D01*
Y81663D01*
X87088Y81538D01*
X87463D01*
X87713Y81788D02*
X87837Y81913D01*
X88087D01*
X88212Y81788D01*
Y81663D01*
X88087Y81538D01*
X87962D01*
X88087D01*
X88212Y81413D01*
Y81288D01*
X88087Y81163D01*
X87837D01*
X87713Y81288D01*
X86713Y82888D02*
X86588Y83013D01*
X86338D01*
X86213Y82888D01*
Y82388D01*
X86338Y82263D01*
X86588D01*
X86713Y82388D01*
X86963D02*
X87088Y82263D01*
X87338D01*
X87463Y82388D01*
Y82888D01*
X87338Y83013D01*
X87088D01*
X86963Y82888D01*
Y82763D01*
X87088Y82638D01*
X87463D01*
X88212Y82263D02*
X87713D01*
X88212Y82763D01*
Y82888D01*
X88087Y83013D01*
X87837D01*
X87713Y82888D01*
X92775Y81263D02*
X92650Y81138D01*
Y80888D01*
X92775Y80763D01*
X93275D01*
X93400Y80888D01*
Y81138D01*
X93275Y81263D01*
Y81513D02*
X93400Y81638D01*
Y81888D01*
X93275Y82013D01*
X92775D01*
X92650Y81888D01*
Y81638D01*
X92775Y81513D01*
X92900D01*
X93025Y81638D01*
Y82013D01*
X93400Y82263D02*
Y82513D01*
Y82388D01*
X92650D01*
X92775Y82263D01*
X57050Y78063D02*
X56925Y77938D01*
Y77688D01*
X57050Y77563D01*
X57550D01*
X57675Y77688D01*
Y77938D01*
X57550Y78063D01*
Y78313D02*
X57675Y78438D01*
Y78688D01*
X57550Y78813D01*
X57050D01*
X56925Y78688D01*
Y78438D01*
X57050Y78313D01*
X57175D01*
X57300Y78438D01*
Y78813D01*
X57050Y79063D02*
X56925Y79188D01*
Y79438D01*
X57050Y79563D01*
X57550D01*
X57675Y79438D01*
Y79188D01*
X57550Y79063D01*
X57050D01*
X74825Y82813D02*
X74700Y82938D01*
X74450D01*
X74325Y82813D01*
Y82313D01*
X74450Y82188D01*
X74700D01*
X74825Y82313D01*
X75075Y82813D02*
X75200Y82938D01*
X75450D01*
X75575Y82813D01*
Y82688D01*
X75450Y82563D01*
X75575Y82438D01*
Y82313D01*
X75450Y82188D01*
X75200D01*
X75075Y82313D01*
Y82438D01*
X75200Y82563D01*
X75075Y82688D01*
Y82813D01*
X75200Y82563D02*
X75450D01*
X75825Y82313D02*
X75950Y82188D01*
X76200D01*
X76325Y82313D01*
Y82813D01*
X76200Y82938D01*
X75950D01*
X75825Y82813D01*
Y82688D01*
X75950Y82563D01*
X76325D01*
X67625Y82813D02*
X67500Y82938D01*
X67250D01*
X67125Y82813D01*
Y82313D01*
X67250Y82188D01*
X67500D01*
X67625Y82313D01*
X67875Y82813D02*
X68000Y82938D01*
X68250D01*
X68375Y82813D01*
Y82688D01*
X68250Y82563D01*
X68375Y82438D01*
Y82313D01*
X68250Y82188D01*
X68000D01*
X67875Y82313D01*
Y82438D01*
X68000Y82563D01*
X67875Y82688D01*
Y82813D01*
X68000Y82563D02*
X68250D01*
X68625Y82813D02*
X68750Y82938D01*
X69000D01*
X69125Y82813D01*
Y82688D01*
X69000Y82563D01*
X69125Y82438D01*
Y82313D01*
X69000Y82188D01*
X68750D01*
X68625Y82313D01*
Y82438D01*
X68750Y82563D01*
X68625Y82688D01*
Y82813D01*
X68750Y82563D02*
X69000D01*
X45225Y67788D02*
X45100Y67913D01*
X44850D01*
X44725Y67788D01*
Y67288D01*
X44850Y67163D01*
X45100D01*
X45225Y67288D01*
X45475Y67788D02*
X45600Y67913D01*
X45850D01*
X45975Y67788D01*
Y67663D01*
X45850Y67538D01*
X45975Y67413D01*
Y67288D01*
X45850Y67163D01*
X45600D01*
X45475Y67288D01*
Y67413D01*
X45600Y67538D01*
X45475Y67663D01*
Y67788D01*
X45600Y67538D02*
X45850D01*
X46225Y67913D02*
X46725D01*
Y67788D01*
X46225Y67288D01*
Y67163D01*
X48950Y82638D02*
X48825Y82763D01*
X48575D01*
X48450Y82638D01*
Y82138D01*
X48575Y82013D01*
X48825D01*
X48950Y82138D01*
X49200Y82638D02*
X49325Y82763D01*
X49575D01*
X49700Y82638D01*
Y82513D01*
X49575Y82388D01*
X49700Y82263D01*
Y82138D01*
X49575Y82013D01*
X49325D01*
X49200Y82138D01*
Y82263D01*
X49325Y82388D01*
X49200Y82513D01*
Y82638D01*
X49325Y82388D02*
X49575D01*
X50450Y82763D02*
X50200Y82638D01*
X49950Y82388D01*
Y82138D01*
X50075Y82013D01*
X50325D01*
X50450Y82138D01*
Y82263D01*
X50325Y82388D01*
X49950D01*
X41850Y82638D02*
X41725Y82763D01*
X41475D01*
X41350Y82638D01*
Y82138D01*
X41475Y82013D01*
X41725D01*
X41850Y82138D01*
X42100Y82638D02*
X42225Y82763D01*
X42475D01*
X42600Y82638D01*
Y82513D01*
X42475Y82388D01*
X42600Y82263D01*
Y82138D01*
X42475Y82013D01*
X42225D01*
X42100Y82138D01*
Y82263D01*
X42225Y82388D01*
X42100Y82513D01*
Y82638D01*
X42225Y82388D02*
X42475D01*
X43350Y82763D02*
X42850D01*
Y82388D01*
X43100Y82513D01*
X43225D01*
X43350Y82388D01*
Y82138D01*
X43225Y82013D01*
X42975D01*
X42850Y82138D01*
X27175Y68238D02*
X27050Y68363D01*
X26800D01*
X26675Y68238D01*
Y67738D01*
X26800Y67613D01*
X27050D01*
X27175Y67738D01*
X27425Y68238D02*
X27550Y68363D01*
X27800D01*
X27925Y68238D01*
Y68113D01*
X27800Y67988D01*
X27925Y67863D01*
Y67738D01*
X27800Y67613D01*
X27550D01*
X27425Y67738D01*
Y67863D01*
X27550Y67988D01*
X27425Y68113D01*
Y68238D01*
X27550Y67988D02*
X27800D01*
X28175Y67613D02*
X28425D01*
X28300D01*
Y68363D01*
X28175Y68238D01*
X27175Y70388D02*
X27050Y70513D01*
X26800D01*
X26675Y70388D01*
Y69888D01*
X26800Y69763D01*
X27050D01*
X27175Y69888D01*
X27425Y70388D02*
X27550Y70513D01*
X27800D01*
X27925Y70388D01*
Y70263D01*
X27800Y70138D01*
X27925Y70013D01*
Y69888D01*
X27800Y69763D01*
X27550D01*
X27425Y69888D01*
Y70013D01*
X27550Y70138D01*
X27425Y70263D01*
Y70388D01*
X27550Y70138D02*
X27800D01*
X28175Y70388D02*
X28300Y70513D01*
X28550D01*
X28675Y70388D01*
Y69888D01*
X28550Y69763D01*
X28300D01*
X28175Y69888D01*
Y70388D01*
X27175Y69313D02*
X27050Y69438D01*
X26800D01*
X26675Y69313D01*
Y68813D01*
X26800Y68688D01*
X27050D01*
X27175Y68813D01*
X27425Y69438D02*
X27925D01*
Y69313D01*
X27425Y68813D01*
Y68688D01*
X28175Y68813D02*
X28300Y68688D01*
X28550D01*
X28675Y68813D01*
Y69313D01*
X28550Y69438D01*
X28300D01*
X28175Y69313D01*
Y69188D01*
X28300Y69063D01*
X28675D01*
X50370Y54818D02*
X50245Y54943D01*
X49995D01*
X49870Y54818D01*
Y54318D01*
X49995Y54193D01*
X50245D01*
X50370Y54318D01*
X50620Y54943D02*
X51120D01*
Y54818D01*
X50620Y54318D01*
Y54193D01*
X51870Y54943D02*
X51620Y54818D01*
X51370Y54568D01*
Y54318D01*
X51495Y54193D01*
X51745D01*
X51870Y54318D01*
Y54443D01*
X51745Y54568D01*
X51370D01*
X56025Y38688D02*
X55900Y38563D01*
Y38313D01*
X56025Y38188D01*
X56525D01*
X56650Y38313D01*
Y38563D01*
X56525Y38688D01*
X55900Y38938D02*
Y39438D01*
X56025D01*
X56525Y38938D01*
X56650D01*
X55900Y40188D02*
Y39688D01*
X56275D01*
X56150Y39938D01*
Y40063D01*
X56275Y40188D01*
X56525D01*
X56650Y40063D01*
Y39813D01*
X56525Y39688D01*
X57150Y38688D02*
X57025Y38563D01*
Y38313D01*
X57150Y38188D01*
X57650D01*
X57775Y38313D01*
Y38563D01*
X57650Y38688D01*
X57025Y38938D02*
Y39438D01*
X57150D01*
X57650Y38938D01*
X57775D01*
Y40063D02*
X57025D01*
X57400Y39688D01*
Y40188D01*
X54900Y38688D02*
X54775Y38563D01*
Y38313D01*
X54900Y38188D01*
X55400D01*
X55525Y38313D01*
Y38563D01*
X55400Y38688D01*
X54775Y38938D02*
Y39438D01*
X54900D01*
X55400Y38938D01*
X55525D01*
X54900Y39688D02*
X54775Y39813D01*
Y40063D01*
X54900Y40188D01*
X55025D01*
X55150Y40063D01*
Y39938D01*
Y40063D01*
X55275Y40188D01*
X55400D01*
X55525Y40063D01*
Y39813D01*
X55400Y39688D01*
X42268Y51736D02*
X42143Y51861D01*
X41893D01*
X41768Y51736D01*
Y51237D01*
X41893Y51112D01*
X42143D01*
X42268Y51237D01*
X43017Y51861D02*
X42518D01*
Y51487D01*
X42767Y51612D01*
X42892D01*
X43017Y51487D01*
Y51237D01*
X42892Y51112D01*
X42642D01*
X42518Y51237D01*
X43267D02*
X43392Y51112D01*
X43642D01*
X43767Y51237D01*
Y51736D01*
X43642Y51861D01*
X43392D01*
X43267Y51736D01*
Y51612D01*
X43392Y51487D01*
X43767D01*
X54107Y52754D02*
X53982Y52879D01*
X53732D01*
X53607Y52754D01*
Y52254D01*
X53732Y52129D01*
X53982D01*
X54107Y52254D01*
X54732Y52129D02*
Y52879D01*
X54357Y52504D01*
X54857D01*
X55107Y52879D02*
X55606D01*
Y52754D01*
X55107Y52254D01*
Y52129D01*
X40607Y34963D02*
X40482Y35088D01*
X40232D01*
X40107Y34963D01*
Y34463D01*
X40232Y34338D01*
X40482D01*
X40607Y34463D01*
X41232Y34338D02*
Y35088D01*
X40857Y34713D01*
X41357D01*
X42107Y35088D02*
X41857Y34963D01*
X41607Y34713D01*
Y34463D01*
X41732Y34338D01*
X41982D01*
X42107Y34463D01*
Y34588D01*
X41982Y34713D01*
X41607D01*
X40607Y37472D02*
X40482Y37597D01*
X40232D01*
X40107Y37472D01*
Y36972D01*
X40232Y36847D01*
X40482D01*
X40607Y36972D01*
X41232Y36847D02*
Y37597D01*
X40857Y37222D01*
X41357D01*
X41607Y37472D02*
X41732Y37597D01*
X41982D01*
X42107Y37472D01*
Y37347D01*
X41982Y37222D01*
X41857D01*
X41982D01*
X42107Y37097D01*
Y36972D01*
X41982Y36847D01*
X41732D01*
X41607Y36972D01*
X40732Y38726D02*
X40607Y38851D01*
X40357D01*
X40232Y38726D01*
Y38226D01*
X40357Y38101D01*
X40607D01*
X40732Y38226D01*
X41357Y38101D02*
Y38851D01*
X40982Y38476D01*
X41482D01*
X41732Y38101D02*
X41982D01*
X41857D01*
Y38851D01*
X41732Y38726D01*
X40607Y36217D02*
X40482Y36342D01*
X40232D01*
X40107Y36217D01*
Y35717D01*
X40232Y35592D01*
X40482D01*
X40607Y35717D01*
X41232Y35592D02*
Y36342D01*
X40857Y35967D01*
X41357D01*
X41607Y36217D02*
X41732Y36342D01*
X41982D01*
X42107Y36217D01*
Y35717D01*
X41982Y35592D01*
X41732D01*
X41607Y35717D01*
Y36217D01*
X5975Y39363D02*
Y38613D01*
X6475D01*
X6725D02*
X6975D01*
X6850D01*
Y39363D01*
X6725Y39238D01*
X18113Y33788D02*
X17988Y33913D01*
X17738D01*
X17613Y33788D01*
Y33288D01*
X17738Y33163D01*
X17988D01*
X18113Y33288D01*
X18363Y33163D02*
X18613D01*
X18488D01*
Y33913D01*
X18363Y33788D01*
X18987Y33913D02*
X19487D01*
Y33788D01*
X18987Y33288D01*
Y33163D01*
X64800Y57476D02*
X64050D01*
Y57851D01*
X64175Y57976D01*
X64425D01*
X64550Y57851D01*
Y57476D01*
Y57726D02*
X64800Y57976D01*
Y58226D02*
Y58475D01*
Y58350D01*
X64050D01*
X64175Y58226D01*
X64050Y59350D02*
Y58850D01*
X64425D01*
X64300Y59100D01*
Y59225D01*
X64425Y59350D01*
X64675D01*
X64800Y59225D01*
Y58975D01*
X64675Y58850D01*
X63550Y57501D02*
X62800D01*
Y57876D01*
X62925Y58001D01*
X63175D01*
X63300Y57876D01*
Y57501D01*
Y57751D02*
X63550Y58001D01*
Y58251D02*
Y58500D01*
Y58375D01*
X62800D01*
X62925Y58251D01*
X63550Y59250D02*
X62800D01*
X63175Y58875D01*
Y59375D01*
X49800Y63788D02*
X49550D01*
X49675D01*
Y63163D01*
X49550Y63038D01*
X49425D01*
X49300Y63163D01*
X50050Y63788D02*
X50550D01*
Y63663D01*
X50050Y63163D01*
Y63038D01*
X86300Y65313D02*
X86050D01*
X86175D01*
Y64688D01*
X86050Y64563D01*
X85925D01*
X85800Y64688D01*
X87050Y64563D02*
X86550D01*
X87050Y65063D01*
Y65188D01*
X86925Y65313D01*
X86675D01*
X86550Y65188D01*
X8675Y76638D02*
X8425D01*
X8550D01*
Y76013D01*
X8425Y75888D01*
X8300D01*
X8175Y76013D01*
X8925Y76513D02*
X9050Y76638D01*
X9300D01*
X9425Y76513D01*
Y76388D01*
X9300Y76263D01*
X9425Y76138D01*
Y76013D01*
X9300Y75888D01*
X9050D01*
X8925Y76013D01*
Y76138D01*
X9050Y76263D01*
X8925Y76388D01*
Y76513D01*
X9050Y76263D02*
X9300D01*
X900Y26788D02*
X650D01*
X775D01*
Y26163D01*
X650Y26038D01*
X525D01*
X400Y26163D01*
X1650Y26788D02*
X1400Y26663D01*
X1150Y26413D01*
Y26163D01*
X1275Y26038D01*
X1525D01*
X1650Y26163D01*
Y26288D01*
X1525Y26413D01*
X1150D01*
X87611Y27938D02*
X87361D01*
X87486D01*
Y27313D01*
X87361Y27188D01*
X87236D01*
X87111Y27313D01*
X88360Y27938D02*
X87860D01*
Y27563D01*
X88110Y27688D01*
X88235D01*
X88360Y27563D01*
Y27313D01*
X88235Y27188D01*
X87985D01*
X87860Y27313D01*
X87875Y39763D02*
X87625D01*
X87750D01*
Y39138D01*
X87625Y39013D01*
X87500D01*
X87375Y39138D01*
X88500Y39013D02*
Y39763D01*
X88125Y39388D01*
X88625D01*
X86400Y55063D02*
X86150D01*
X86275D01*
Y54438D01*
X86150Y54313D01*
X86025D01*
X85900Y54438D01*
X86650Y54938D02*
X86775Y55063D01*
X87025D01*
X87150Y54938D01*
Y54813D01*
X87025Y54688D01*
X86900D01*
X87025D01*
X87150Y54563D01*
Y54438D01*
X87025Y54313D01*
X86775D01*
X86650Y54438D01*
X86407Y75949D02*
X86157D01*
X86282D01*
Y75324D01*
X86157Y75199D01*
X86032D01*
X85907Y75324D01*
X86656Y75199D02*
X86906D01*
X86781D01*
Y75949D01*
X86656Y75824D01*
M02*
