G04*
G04 #@! TF.GenerationSoftware,Altium Limited,Altium Designer,23.0.1 (38)*
G04*
G04 Layer_Color=32896*
%FSLAX43Y43*%
%MOMM*%
G71*
G04*
G04 #@! TF.SameCoordinates,A2A41917-8E72-4AF7-8591-51E6FC7DF103*
G04*
G04*
G04 #@! TF.FilePolarity,Positive*
G04*
G01*
G75*
%ADD13C,0.200*%
%ADD15C,0.150*%
D13*
X50431Y48655D02*
Y49775D01*
X49611Y48655D02*
Y49775D01*
X47568Y47787D02*
Y48287D01*
Y47787D02*
X49568D01*
Y48787D01*
X47568D02*
X49568D01*
X47568Y48287D02*
Y48787D01*
X46181Y46938D02*
Y47438D01*
Y46938D02*
X48181D01*
Y47938D01*
X46181D02*
X48181D01*
X46181Y47438D02*
Y47938D01*
X44587Y43594D02*
Y44714D01*
X43767Y43594D02*
Y44714D01*
X45922Y45359D02*
X47042D01*
X45922Y46179D02*
X47042D01*
X45951Y46903D02*
X47071D01*
X45951Y46083D02*
X47071D01*
X45052Y44239D02*
Y45359D01*
X45872Y44239D02*
Y45359D01*
X44608Y46182D02*
X45728D01*
X44608Y45362D02*
X45728D01*
X44587Y44916D02*
Y46036D01*
X43767Y44916D02*
Y46036D01*
X41965Y44751D02*
X43085D01*
X41965Y43931D02*
X43085D01*
X43070Y44916D02*
Y46036D01*
X43890Y44916D02*
Y46036D01*
Y43594D02*
Y44714D01*
X43070Y43594D02*
Y44714D01*
X41957Y44619D02*
X43077D01*
X41957Y45439D02*
X43077D01*
X41766Y45549D02*
Y46669D01*
X42586Y45549D02*
Y46669D01*
X42493Y46275D02*
Y47395D01*
X43313Y46275D02*
Y47395D01*
X44394Y46240D02*
Y47360D01*
X45214Y46240D02*
Y47360D01*
X44328Y48634D02*
Y49134D01*
Y48634D02*
X46328D01*
Y49634D01*
X44328D02*
X46328D01*
X44328Y49134D02*
Y49634D01*
X46453Y50103D02*
X46953D01*
X46453Y48103D02*
Y50103D01*
Y48103D02*
X47453D01*
Y50103D01*
X46953D02*
X47453D01*
X47573Y49970D02*
Y50970D01*
X49423D01*
Y49970D02*
Y50970D01*
X47573Y49970D02*
X49423D01*
X48445Y46901D02*
Y47901D01*
X50295D01*
Y46901D02*
Y47901D01*
X48445Y46901D02*
X50295D01*
X47525Y45788D02*
Y46288D01*
Y45788D02*
X49525D01*
Y46788D01*
X47525D02*
X49525D01*
X47525Y46288D02*
Y46788D01*
X47905Y45677D02*
X49025D01*
X47905Y44857D02*
X49025D01*
X45827Y43231D02*
Y43731D01*
Y43231D02*
X47827D01*
Y44231D01*
X45827D02*
X47827D01*
X45827Y43731D02*
Y44231D01*
X48513Y42363D02*
Y42863D01*
X45763D02*
X48513D01*
X45763Y41513D02*
Y42863D01*
Y41513D02*
X48513D01*
Y42363D01*
X44402Y43594D02*
Y44714D01*
X45222Y43594D02*
Y44714D01*
X45872Y42966D02*
Y44086D01*
X45052Y42966D02*
Y44086D01*
X45216Y42221D02*
Y43341D01*
X44396Y42221D02*
Y43341D01*
X42595Y42674D02*
X43715D01*
X42595Y43494D02*
X43715D01*
X40298Y44244D02*
Y45364D01*
X41118Y44244D02*
Y45364D01*
X39226Y46076D02*
X39726D01*
X39226Y44076D02*
Y46076D01*
Y44076D02*
X40226D01*
Y46076D01*
X39726D02*
X40226D01*
X37980Y44255D02*
X38980D01*
X37980D02*
Y46105D01*
X38980D01*
Y44255D02*
Y46105D01*
X48616Y43231D02*
X49616D01*
Y41381D02*
Y43231D01*
X48616Y41381D02*
X49616D01*
X48616D02*
Y43231D01*
X45184Y41650D02*
X46304D01*
X45184Y40830D02*
X46304D01*
X46963Y41163D02*
X47463D01*
X46963Y39163D02*
Y41163D01*
Y39163D02*
X47963D01*
Y41163D01*
X47463D02*
X47963D01*
X44960Y40186D02*
Y40686D01*
X46960D01*
Y39686D02*
Y40686D01*
X44960Y39686D02*
X46960D01*
X44960D02*
Y40186D01*
X43936Y37559D02*
Y38059D01*
Y37559D02*
X45936D01*
Y38559D01*
X43936D02*
X45936D01*
X43936Y38059D02*
Y38559D01*
X44644Y31913D02*
Y33763D01*
Y31913D02*
X45644D01*
Y33763D01*
X44644D02*
X45644D01*
X48217Y39111D02*
X49217D01*
Y37261D02*
Y39111D01*
X48217Y37261D02*
X49217D01*
X48217D02*
Y39111D01*
X51870Y46516D02*
Y47636D01*
X52690Y46516D02*
Y47636D01*
X52790Y48210D02*
X53290D01*
X52790Y46210D02*
Y48210D01*
Y46210D02*
X53790D01*
Y48210D01*
X53290D02*
X53790D01*
X54637Y45388D02*
X55637D01*
Y43538D02*
Y45388D01*
X54637Y43538D02*
X55637D01*
X54637D02*
Y45388D01*
X52399Y44278D02*
Y45398D01*
X53219Y44278D02*
Y45398D01*
X53701Y42295D02*
Y43295D01*
X55551D01*
Y42295D02*
Y43295D01*
X53701Y42295D02*
X55551D01*
X53889Y43504D02*
X54389D01*
Y45504D01*
X53389D02*
X54389D01*
X53389Y43504D02*
Y45504D01*
Y43504D02*
X53889D01*
X54020Y46236D02*
Y47236D01*
X55870D01*
Y46236D02*
Y47236D01*
X54020Y46236D02*
X55870D01*
X50550Y49913D02*
X51550D01*
X50550D02*
Y51763D01*
X51550D01*
Y49913D02*
Y51763D01*
X47830Y51909D02*
Y52909D01*
X49680D01*
Y51909D02*
Y52909D01*
X47830Y51909D02*
X49680D01*
X41904Y48463D02*
Y48963D01*
Y48463D02*
X43904D01*
Y49463D01*
X41904D02*
X43904D01*
X41904Y48963D02*
Y49463D01*
X42859Y50089D02*
Y50589D01*
X40859D02*
X42859D01*
X40859Y49589D02*
Y50589D01*
Y49589D02*
X42859D01*
Y50089D01*
X43312Y49674D02*
X44312D01*
X43312D02*
Y51524D01*
X44312D01*
Y49674D02*
Y51524D01*
X40873Y50843D02*
X41873D01*
X40873D02*
Y52693D01*
X41873D01*
Y50843D02*
Y52693D01*
X33202Y64605D02*
Y66455D01*
Y64605D02*
X34202D01*
Y66455D01*
X33202D02*
X34202D01*
X35165Y66869D02*
X36285D01*
X35165Y66049D02*
X36285D01*
X35175Y68838D02*
X37025D01*
Y69838D01*
X35175D02*
X37025D01*
X35175Y68838D02*
Y69838D01*
X32934Y68347D02*
Y68847D01*
X36184D01*
Y66997D02*
Y68847D01*
X32934Y66997D02*
X36184D01*
X32934D02*
Y68347D01*
X30815Y69966D02*
X31815D01*
Y68116D02*
Y69966D01*
X30815Y68116D02*
X31815D01*
X30815D02*
Y69966D01*
X28628Y67418D02*
Y67918D01*
X31878D01*
Y66068D02*
Y67918D01*
X28628Y66068D02*
X31878D01*
X28628D02*
Y67418D01*
X8425Y66538D02*
X10275D01*
Y67538D01*
X8425D02*
X10275D01*
X8425Y66538D02*
Y67538D01*
X13325Y66663D02*
Y67163D01*
Y66663D02*
X15325D01*
Y67663D01*
X13325D02*
X15325D01*
X13325Y67163D02*
Y67663D01*
X13375Y65263D02*
Y65763D01*
Y65263D02*
X15375D01*
Y66263D01*
X13375D02*
X15375D01*
X13375Y65763D02*
Y66263D01*
X35277Y48247D02*
X36585Y49555D01*
X35277Y48247D02*
X35984Y47540D01*
X37292Y48848D01*
X36585Y49555D02*
X37292Y48848D01*
X31317Y46938D02*
X33167D01*
X31317Y45938D02*
Y46938D01*
Y45938D02*
X33167D01*
Y46938D01*
X23908Y41594D02*
X25028D01*
X23908Y42414D02*
X25028D01*
X22309Y42420D02*
X23429D01*
X22309Y41600D02*
X23429D01*
X18250Y40713D02*
Y41563D01*
X21000D01*
Y40213D02*
Y41563D01*
X18250Y40213D02*
X21000D01*
X18250D02*
Y40713D01*
X20875Y39388D02*
Y40388D01*
X19025Y39388D02*
X20875D01*
X19025D02*
Y40388D01*
X20875D01*
X22072Y38591D02*
Y39711D01*
X21252Y38591D02*
Y39711D01*
X22305Y39205D02*
X23425D01*
X22305Y38385D02*
X23425D01*
X23908Y38390D02*
X25028D01*
X23908Y39210D02*
X25028D01*
X25115Y37647D02*
X26235D01*
X25115Y36827D02*
X26235D01*
X17358Y36810D02*
X18478D01*
X17358Y35990D02*
X18478D01*
X18750Y21963D02*
X19600D01*
Y19213D02*
Y21963D01*
X18250Y19213D02*
X19600D01*
X18250D02*
Y21963D01*
X18750D01*
X20810Y22196D02*
X21660D01*
Y19446D02*
Y22196D01*
X20310Y19446D02*
X21660D01*
X20310D02*
Y22196D01*
X20810D01*
X64079Y67712D02*
X68021D01*
Y70084D01*
X64079D02*
X68021D01*
X64079Y67712D02*
Y70084D01*
X23704Y58937D02*
X27646D01*
Y61309D01*
X23704D02*
X27646D01*
X23704Y58937D02*
Y61309D01*
X63004Y37962D02*
X66946D01*
Y40334D01*
X63004D02*
X66946D01*
X63004Y37962D02*
Y40334D01*
X28279Y27389D02*
X32221D01*
X28279Y25017D02*
Y27389D01*
Y25017D02*
X32221D01*
Y27389D01*
D15*
X50275Y50713D02*
X50400Y50588D01*
Y50338D01*
X50275Y50213D01*
X49775D01*
X49650Y50338D01*
Y50588D01*
X49775Y50713D01*
X49650Y51463D02*
Y50963D01*
X50150Y51463D01*
X50275D01*
X50400Y51338D01*
Y51088D01*
X50275Y50963D01*
X49775Y51713D02*
X49650Y51838D01*
Y52088D01*
X49775Y52213D01*
X50275D01*
X50400Y52088D01*
Y51838D01*
X50275Y51713D01*
X50150D01*
X50025Y51838D01*
Y52213D01*
X45925Y51013D02*
X46050Y51138D01*
X46300D01*
X46425Y51013D01*
Y50513D01*
X46300Y50388D01*
X46050D01*
X45925Y50513D01*
X45675Y51138D02*
X45175D01*
Y51013D01*
X45675Y50513D01*
Y50388D01*
X44425D02*
X44925D01*
X44425Y50888D01*
Y51013D01*
X44550Y51138D01*
X44800D01*
X44925Y51013D01*
X47175Y51088D02*
X47300Y50963D01*
Y50713D01*
X47175Y50588D01*
X46675D01*
X46550Y50713D01*
Y50963D01*
X46675Y51088D01*
X46550Y51838D02*
Y51338D01*
X47050Y51838D01*
X47175D01*
X47300Y51713D01*
Y51463D01*
X47175Y51338D01*
Y52088D02*
X47300Y52213D01*
Y52463D01*
X47175Y52588D01*
X47050D01*
X46925Y52463D01*
X46800Y52588D01*
X46675D01*
X46550Y52463D01*
Y52213D01*
X46675Y52088D01*
X46800D01*
X46925Y52213D01*
X47050Y52088D01*
X47175D01*
X46925Y52213D02*
Y52463D01*
X49027Y54106D02*
X49527D01*
Y53731D01*
X49277D01*
X49527D01*
Y53356D01*
X48777Y54106D02*
Y53356D01*
X48402D01*
X48277Y53481D01*
Y53606D01*
X48402Y53731D01*
X48777D01*
X48402D01*
X48277Y53856D01*
Y53981D01*
X48402Y54106D01*
X48777D01*
X47528Y53356D02*
X48027D01*
X47528Y53856D01*
Y53981D01*
X47652Y54106D01*
X47902D01*
X48027Y53981D01*
X53037Y49263D02*
X53537D01*
Y48888D01*
X53287D01*
X53537D01*
Y48513D01*
X52787Y49263D02*
Y48513D01*
X52412D01*
X52288Y48638D01*
Y48763D01*
X52412Y48888D01*
X52787D01*
X52412D01*
X52288Y49013D01*
Y49138D01*
X52412Y49263D01*
X52787D01*
X52038Y48513D02*
X51788D01*
X51913D01*
Y49263D01*
X52038Y49138D01*
X50913Y48513D02*
X51413D01*
X50913Y49013D01*
Y49138D01*
X51038Y49263D01*
X51288D01*
X51413Y49138D01*
X51325Y46413D02*
X51450Y46538D01*
X51700D01*
X51825Y46413D01*
Y45913D01*
X51700Y45788D01*
X51450D01*
X51325Y45913D01*
X50575Y46538D02*
X50825Y46413D01*
X51075Y46163D01*
Y45913D01*
X50950Y45788D01*
X50700D01*
X50575Y45913D01*
Y46038D01*
X50700Y46163D01*
X51075D01*
X50325Y46413D02*
X50200Y46538D01*
X49950D01*
X49825Y46413D01*
Y45913D01*
X49950Y45788D01*
X50200D01*
X50325Y45913D01*
Y46413D01*
X51200Y45438D02*
X51325Y45563D01*
X51575D01*
X51700Y45438D01*
Y44938D01*
X51575Y44813D01*
X51325D01*
X51200Y44938D01*
X50450Y45563D02*
X50700Y45438D01*
X50950Y45188D01*
Y44938D01*
X50825Y44813D01*
X50575D01*
X50450Y44938D01*
Y45063D01*
X50575Y45188D01*
X50950D01*
X50200Y44813D02*
X49950D01*
X50075D01*
Y45563D01*
X50200Y45438D01*
X51450Y43488D02*
X51575Y43613D01*
X51825D01*
X51950Y43488D01*
Y42988D01*
X51825Y42863D01*
X51575D01*
X51450Y42988D01*
X51200Y43488D02*
X51075Y43613D01*
X50825D01*
X50700Y43488D01*
Y43363D01*
X50825Y43238D01*
X50950D01*
X50825D01*
X50700Y43113D01*
Y42988D01*
X50825Y42863D01*
X51075D01*
X51200Y42988D01*
X50075Y42863D02*
Y43613D01*
X50450Y43238D01*
X49950D01*
X51425Y42313D02*
X51550Y42438D01*
X51800D01*
X51925Y42313D01*
Y41813D01*
X51800Y41688D01*
X51550D01*
X51425Y41813D01*
X50675Y42438D02*
X51175D01*
Y42063D01*
X50925Y42188D01*
X50800D01*
X50675Y42063D01*
Y41813D01*
X50800Y41688D01*
X51050D01*
X51175Y41813D01*
X50425Y42313D02*
X50300Y42438D01*
X50050D01*
X49925Y42313D01*
Y42188D01*
X50050Y42063D01*
X49925Y41938D01*
Y41813D01*
X50050Y41688D01*
X50300D01*
X50425Y41813D01*
Y41938D01*
X50300Y42063D01*
X50425Y42188D01*
Y42313D01*
X50300Y42063D02*
X50050D01*
X37444Y44556D02*
X37569Y44431D01*
Y44181D01*
X37444Y44056D01*
X36944D01*
X36819Y44181D01*
Y44431D01*
X36944Y44556D01*
X37444Y44806D02*
X37569Y44931D01*
Y45180D01*
X37444Y45305D01*
X37319D01*
X37194Y45180D01*
Y45055D01*
Y45180D01*
X37069Y45305D01*
X36944D01*
X36819Y45180D01*
Y44931D01*
X36944Y44806D01*
Y45555D02*
X36819Y45680D01*
Y45930D01*
X36944Y46055D01*
X37444D01*
X37569Y45930D01*
Y45680D01*
X37444Y45555D01*
X37319D01*
X37194Y45680D01*
Y46055D01*
X36322Y44556D02*
X36447Y44431D01*
Y44181D01*
X36322Y44056D01*
X35822D01*
X35697Y44181D01*
Y44431D01*
X35822Y44556D01*
X36322Y44806D02*
X36447Y44931D01*
Y45180D01*
X36322Y45305D01*
X36197D01*
X36072Y45180D01*
Y45055D01*
Y45180D01*
X35947Y45305D01*
X35822D01*
X35697Y45180D01*
Y44931D01*
X35822Y44806D01*
X36447Y45555D02*
Y46055D01*
X36322D01*
X35822Y45555D01*
X35697D01*
X35325Y44556D02*
Y44056D01*
X34950D01*
Y44306D01*
Y44056D01*
X34575D01*
X35325Y44806D02*
X34575D01*
Y45180D01*
X34700Y45305D01*
X34825D01*
X34950Y45180D01*
Y44806D01*
Y45180D01*
X35075Y45305D01*
X35200D01*
X35325Y45180D01*
Y44806D01*
Y45555D02*
Y46055D01*
X35200D01*
X34700Y45555D01*
X34575D01*
X53100Y41963D02*
Y41463D01*
X52725D01*
Y41713D01*
Y41463D01*
X52350D01*
X53100Y42213D02*
X52350D01*
Y42588D01*
X52475Y42713D01*
X52600D01*
X52725Y42588D01*
Y42213D01*
Y42588D01*
X52850Y42713D01*
X52975D01*
X53100Y42588D01*
Y42213D01*
Y43463D02*
Y42963D01*
X52725D01*
X52850Y43213D01*
Y43338D01*
X52725Y43463D01*
X52475D01*
X52350Y43338D01*
Y43088D01*
X52475Y42963D01*
X44025Y41488D02*
X44150Y41613D01*
X44400D01*
X44525Y41488D01*
Y40988D01*
X44400Y40863D01*
X44150D01*
X44025Y40988D01*
X43400Y40863D02*
Y41613D01*
X43775Y41238D01*
X43275D01*
X42525Y40863D02*
X43025D01*
X42525Y41363D01*
Y41488D01*
X42650Y41613D01*
X42900D01*
X43025Y41488D01*
X47725Y37163D02*
X47850Y37038D01*
Y36788D01*
X47725Y36663D01*
X47225D01*
X47100Y36788D01*
Y37038D01*
X47225Y37163D01*
X47725Y37413D02*
X47850Y37538D01*
Y37788D01*
X47725Y37913D01*
X47600D01*
X47475Y37788D01*
Y37663D01*
Y37788D01*
X47350Y37913D01*
X47225D01*
X47100Y37788D01*
Y37538D01*
X47225Y37413D01*
X47100Y38663D02*
Y38163D01*
X47600Y38663D01*
X47725D01*
X47850Y38538D01*
Y38288D01*
X47725Y38163D01*
X44050Y40413D02*
X44175Y40538D01*
X44425D01*
X44550Y40413D01*
Y39913D01*
X44425Y39788D01*
X44175D01*
X44050Y39913D01*
X43425Y39788D02*
Y40538D01*
X43800Y40163D01*
X43300D01*
X43050Y40413D02*
X42925Y40538D01*
X42675D01*
X42550Y40413D01*
Y40288D01*
X42675Y40163D01*
X42550Y40038D01*
Y39913D01*
X42675Y39788D01*
X42925D01*
X43050Y39913D01*
Y40038D01*
X42925Y40163D01*
X43050Y40288D01*
Y40413D01*
X42925Y40163D02*
X42675D01*
X45275Y37088D02*
X45400Y37213D01*
X45650D01*
X45775Y37088D01*
Y36588D01*
X45650Y36463D01*
X45400D01*
X45275Y36588D01*
X44525Y37213D02*
X44775Y37088D01*
X45025Y36838D01*
Y36588D01*
X44900Y36463D01*
X44650D01*
X44525Y36588D01*
Y36713D01*
X44650Y36838D01*
X45025D01*
X44275Y37088D02*
X44150Y37213D01*
X43900D01*
X43775Y37088D01*
Y36963D01*
X43900Y36838D01*
X43775Y36713D01*
Y36588D01*
X43900Y36463D01*
X44150D01*
X44275Y36588D01*
Y36713D01*
X44150Y36838D01*
X44275Y36963D01*
Y37088D01*
X44150Y36838D02*
X43900D01*
X43575Y32001D02*
X44325D01*
Y32376D01*
X44200Y32501D01*
X43950D01*
X43825Y32376D01*
Y32001D01*
Y32251D02*
X43575Y32501D01*
Y32750D02*
Y33000D01*
Y32875D01*
X44325D01*
X44200Y32750D01*
X43575Y33375D02*
Y33625D01*
Y33500D01*
X44325D01*
X44200Y33375D01*
X49092Y35463D02*
Y34963D01*
X48717D01*
Y35213D01*
Y34963D01*
X48342D01*
X49092Y35713D02*
X48342D01*
Y36088D01*
X48467Y36213D01*
X48592D01*
X48717Y36088D01*
Y35713D01*
Y36088D01*
X48842Y36213D01*
X48967D01*
X49092Y36088D01*
Y35713D01*
X48342Y36838D02*
X49092D01*
X48717Y36463D01*
Y36963D01*
X57050Y47063D02*
X57175Y46938D01*
Y46688D01*
X57050Y46563D01*
X56550D01*
X56425Y46688D01*
Y46938D01*
X56550Y47063D01*
X57050Y47313D02*
X57175Y47438D01*
Y47688D01*
X57050Y47813D01*
X56925D01*
X56800Y47688D01*
Y47563D01*
Y47688D01*
X56675Y47813D01*
X56550D01*
X56425Y47688D01*
Y47438D01*
X56550Y47313D01*
X57175Y48562D02*
X57050Y48313D01*
X56800Y48063D01*
X56550D01*
X56425Y48188D01*
Y48437D01*
X56550Y48562D01*
X56675D01*
X56800Y48437D01*
Y48063D01*
X58125Y47063D02*
X58250Y46938D01*
Y46688D01*
X58125Y46563D01*
X57625D01*
X57500Y46688D01*
Y46938D01*
X57625Y47063D01*
X58125Y47313D02*
X58250Y47438D01*
Y47688D01*
X58125Y47813D01*
X58000D01*
X57875Y47688D01*
Y47563D01*
Y47688D01*
X57750Y47813D01*
X57625D01*
X57500Y47688D01*
Y47438D01*
X57625Y47313D01*
X58250Y48562D02*
Y48063D01*
X57875D01*
X58000Y48313D01*
Y48437D01*
X57875Y48562D01*
X57625D01*
X57500Y48437D01*
Y48188D01*
X57625Y48063D01*
X60150Y47313D02*
X60650D01*
Y46938D01*
X60400D01*
X60650D01*
Y46563D01*
X59900Y47313D02*
Y46563D01*
X59525D01*
X59400Y46688D01*
Y46813D01*
X59525Y46938D01*
X59900D01*
X59525D01*
X59400Y47063D01*
Y47188D01*
X59525Y47313D01*
X59900D01*
X58650D02*
X58900Y47188D01*
X59150Y46938D01*
Y46688D01*
X59025Y46563D01*
X58775D01*
X58650Y46688D01*
Y46813D01*
X58775Y46938D01*
X59150D01*
X59381Y43937D02*
Y43437D01*
X59006D01*
Y43687D01*
Y43437D01*
X58631D01*
X59381Y44187D02*
X58631D01*
Y44562D01*
X58756Y44687D01*
X58881D01*
X59006Y44562D01*
Y44187D01*
Y44562D01*
X59131Y44687D01*
X59256D01*
X59381Y44562D01*
Y44187D01*
X58631Y44937D02*
Y45187D01*
Y45062D01*
X59381D01*
X59256Y44937D01*
X58631Y45936D02*
X59381D01*
X59006Y45562D01*
Y46061D01*
X57017Y43937D02*
X57142Y43812D01*
Y43562D01*
X57017Y43437D01*
X56518D01*
X56393Y43562D01*
Y43812D01*
X56518Y43937D01*
X57142Y44187D02*
Y44687D01*
X57017D01*
X56518Y44187D01*
X56393D01*
X57017Y44937D02*
X57142Y45062D01*
Y45312D01*
X57017Y45437D01*
X56518D01*
X56393Y45312D01*
Y45062D01*
X56518Y44937D01*
X57017D01*
X58718Y42955D02*
X59218D01*
Y42580D01*
X58968D01*
X59218D01*
Y42205D01*
X58468Y42955D02*
Y42205D01*
X58093D01*
X57968Y42330D01*
Y42455D01*
X58093Y42580D01*
X58468D01*
X58093D01*
X57968Y42705D01*
Y42830D01*
X58093Y42955D01*
X58468D01*
X57718Y42205D02*
X57468D01*
X57593D01*
Y42955D01*
X57718Y42830D01*
X57094D02*
X56969Y42955D01*
X56719D01*
X56594Y42830D01*
Y42330D01*
X56719Y42205D01*
X56969D01*
X57094Y42330D01*
Y42830D01*
X58137Y43937D02*
X58262Y43812D01*
Y43562D01*
X58137Y43437D01*
X57637D01*
X57512Y43562D01*
Y43812D01*
X57637Y43937D01*
X58262Y44687D02*
X58137Y44437D01*
X57887Y44187D01*
X57637D01*
X57512Y44312D01*
Y44562D01*
X57637Y44687D01*
X57762D01*
X57887Y44562D01*
Y44187D01*
X57637Y44937D02*
X57512Y45062D01*
Y45312D01*
X57637Y45437D01*
X58137D01*
X58262Y45312D01*
Y45062D01*
X58137Y44937D01*
X58012D01*
X57887Y45062D01*
Y45437D01*
X52625Y50638D02*
Y50138D01*
X52250D01*
Y50388D01*
Y50138D01*
X51875D01*
X52625Y50888D02*
X51875D01*
Y51263D01*
X52000Y51388D01*
X52125D01*
X52250Y51263D01*
Y50888D01*
Y51263D01*
X52375Y51388D01*
X52500D01*
X52625Y51263D01*
Y50888D01*
X52500Y51638D02*
X52625Y51763D01*
Y52013D01*
X52500Y52138D01*
X52375D01*
X52250Y52013D01*
Y51888D01*
Y52013D01*
X52125Y52138D01*
X52000D01*
X51875Y52013D01*
Y51763D01*
X52000Y51638D01*
X49039Y55631D02*
X49539D01*
Y55256D01*
X49289D01*
X49539D01*
Y54881D01*
X48790Y55631D02*
Y54881D01*
X48415D01*
X48290Y55006D01*
Y55131D01*
X48415Y55256D01*
X48790D01*
X48415D01*
X48290Y55381D01*
Y55506D01*
X48415Y55631D01*
X48790D01*
X48040Y54881D02*
X47790D01*
X47915D01*
Y55631D01*
X48040Y55506D01*
X46915Y55631D02*
X47415D01*
Y55256D01*
X47165Y55381D01*
X47040D01*
X46915Y55256D01*
Y55006D01*
X47040Y54881D01*
X47290D01*
X47415Y55006D01*
X40625Y49188D02*
X40750Y49313D01*
X41000D01*
X41125Y49188D01*
Y48688D01*
X41000Y48563D01*
X40750D01*
X40625Y48688D01*
X39875Y49313D02*
X40125Y49188D01*
X40375Y48938D01*
Y48688D01*
X40250Y48563D01*
X40000D01*
X39875Y48688D01*
Y48813D01*
X40000Y48938D01*
X40375D01*
X39625Y49313D02*
X39125D01*
Y49188D01*
X39625Y48688D01*
Y48563D01*
X42375Y54313D02*
X42500Y54438D01*
X42750D01*
X42875Y54313D01*
Y53813D01*
X42750Y53688D01*
X42500D01*
X42375Y53813D01*
X41625Y54438D02*
X41875Y54313D01*
X42125Y54063D01*
Y53813D01*
X42000Y53688D01*
X41750D01*
X41625Y53813D01*
Y53938D01*
X41750Y54063D01*
X42125D01*
X41375Y54313D02*
X41250Y54438D01*
X41000D01*
X40875Y54313D01*
Y54188D01*
X41000Y54063D01*
X41125D01*
X41000D01*
X40875Y53938D01*
Y53813D01*
X41000Y53688D01*
X41250D01*
X41375Y53813D01*
X44300Y53701D02*
Y53201D01*
X43925D01*
Y53451D01*
Y53201D01*
X43550D01*
X44300Y53951D02*
X43550D01*
Y54326D01*
X43675Y54450D01*
X43800D01*
X43925Y54326D01*
Y53951D01*
Y54326D01*
X44050Y54450D01*
X44175D01*
X44300Y54326D01*
Y53951D01*
X43550Y54700D02*
Y54950D01*
Y54825D01*
X44300D01*
X44175Y54700D01*
Y55325D02*
X44300Y55450D01*
Y55700D01*
X44175Y55825D01*
X44050D01*
X43925Y55700D01*
Y55575D01*
Y55700D01*
X43800Y55825D01*
X43675D01*
X43550Y55700D01*
Y55450D01*
X43675Y55325D01*
X41750Y55401D02*
Y54901D01*
X41375D01*
Y55151D01*
Y54901D01*
X41000D01*
X41750Y55651D02*
X41000D01*
Y56025D01*
X41125Y56150D01*
X41250D01*
X41375Y56025D01*
Y55651D01*
Y56025D01*
X41500Y56150D01*
X41625D01*
X41750Y56025D01*
Y55651D01*
X41000Y56400D02*
Y56650D01*
Y56525D01*
X41750D01*
X41625Y56400D01*
X41000Y57025D02*
Y57275D01*
Y57150D01*
X41750D01*
X41625Y57025D01*
X33325Y62038D02*
X34075D01*
Y62413D01*
X33950Y62538D01*
X33700D01*
X33575Y62413D01*
Y62038D01*
Y62288D02*
X33325Y62538D01*
Y63288D02*
Y62788D01*
X33825Y63288D01*
X33950D01*
X34075Y63163D01*
Y62913D01*
X33950Y62788D01*
X33325Y64038D02*
Y63538D01*
X33825Y64038D01*
X33950D01*
X34075Y63913D01*
Y63663D01*
X33950Y63538D01*
X38500Y66763D02*
X38625Y66888D01*
X38875D01*
X39000Y66763D01*
Y66263D01*
X38875Y66138D01*
X38625D01*
X38500Y66263D01*
X38250Y66763D02*
X38125Y66888D01*
X37875D01*
X37750Y66763D01*
Y66638D01*
X37875Y66513D01*
X37750Y66388D01*
Y66263D01*
X37875Y66138D01*
X38125D01*
X38250Y66263D01*
Y66388D01*
X38125Y66513D01*
X38250Y66638D01*
Y66763D01*
X38125Y66513D02*
X37875D01*
X37500Y66763D02*
X37375Y66888D01*
X37125D01*
X37000Y66763D01*
Y66638D01*
X37125Y66513D01*
X37250D01*
X37125D01*
X37000Y66388D01*
Y66263D01*
X37125Y66138D01*
X37375D01*
X37500Y66263D01*
X39150Y68963D02*
Y69713D01*
X38775D01*
X38650Y69588D01*
Y69338D01*
X38775Y69213D01*
X39150D01*
X38900D02*
X38650Y68963D01*
X37900D02*
X38400D01*
X37900Y69463D01*
Y69588D01*
X38025Y69713D01*
X38275D01*
X38400Y69588D01*
X37650Y68963D02*
X37400D01*
X37525D01*
Y69713D01*
X37650Y69588D01*
X38500Y68088D02*
X38625Y68213D01*
X38875D01*
X39000Y68088D01*
Y67588D01*
X38875Y67463D01*
X38625D01*
X38500Y67588D01*
X38250Y68088D02*
X38125Y68213D01*
X37875D01*
X37750Y68088D01*
Y67963D01*
X37875Y67838D01*
X37750Y67713D01*
Y67588D01*
X37875Y67463D01*
X38125D01*
X38250Y67588D01*
Y67713D01*
X38125Y67838D01*
X38250Y67963D01*
Y68088D01*
X38125Y67838D02*
X37875D01*
X37125Y67463D02*
Y68213D01*
X37500Y67838D01*
X37000D01*
X31750Y70901D02*
Y70401D01*
X31375D01*
Y70651D01*
Y70401D01*
X31000D01*
X31750Y71151D02*
X31000D01*
Y71526D01*
X31125Y71650D01*
X31250D01*
X31375Y71526D01*
Y71151D01*
Y71526D01*
X31500Y71650D01*
X31625D01*
X31750Y71526D01*
Y71151D01*
X31000Y71900D02*
Y72150D01*
Y72025D01*
X31750D01*
X31625Y71900D01*
X31750Y72525D02*
Y73025D01*
X31625D01*
X31125Y72525D01*
X31000D01*
X27700Y67188D02*
X27825Y67313D01*
X28075D01*
X28200Y67188D01*
Y66688D01*
X28075Y66563D01*
X27825D01*
X27700Y66688D01*
X27450Y67188D02*
X27325Y67313D01*
X27075D01*
X26950Y67188D01*
Y67063D01*
X27075Y66938D01*
X26950Y66813D01*
Y66688D01*
X27075Y66563D01*
X27325D01*
X27450Y66688D01*
Y66813D01*
X27325Y66938D01*
X27450Y67063D01*
Y67188D01*
X27325Y66938D02*
X27075D01*
X26200Y66563D02*
X26700D01*
X26200Y67063D01*
Y67188D01*
X26325Y67313D01*
X26575D01*
X26700Y67188D01*
X7875Y66688D02*
Y67438D01*
X7500D01*
X7375Y67313D01*
Y67063D01*
X7500Y66938D01*
X7875D01*
X7625D02*
X7375Y66688D01*
X6625D02*
X7125D01*
X6625Y67188D01*
Y67313D01*
X6750Y67438D01*
X7000D01*
X7125Y67313D01*
X6375D02*
X6250Y67438D01*
X6000D01*
X5875Y67313D01*
Y66813D01*
X6000Y66688D01*
X6250D01*
X6375Y66813D01*
Y67313D01*
X12300Y67463D02*
X12425Y67588D01*
X12675D01*
X12800Y67463D01*
Y66963D01*
X12675Y66838D01*
X12425D01*
X12300Y66963D01*
X12050Y67588D02*
X11550D01*
Y67463D01*
X12050Y66963D01*
Y66838D01*
X11300Y67588D02*
X10800D01*
Y67463D01*
X11300Y66963D01*
Y66838D01*
X12375Y65963D02*
X12500Y66088D01*
X12750D01*
X12875Y65963D01*
Y65463D01*
X12750Y65338D01*
X12500D01*
X12375Y65463D01*
X12125Y66088D02*
X11625D01*
Y65963D01*
X12125Y65463D01*
Y65338D01*
X11375Y65963D02*
X11250Y66088D01*
X11000D01*
X10875Y65963D01*
Y65838D01*
X11000Y65713D01*
X10875Y65588D01*
Y65463D01*
X11000Y65338D01*
X11250D01*
X11375Y65463D01*
Y65588D01*
X11250Y65713D01*
X11375Y65838D01*
Y65963D01*
X11250Y65713D02*
X11000D01*
X35687Y49188D02*
Y49938D01*
X35312D01*
X35187Y49813D01*
Y49563D01*
X35312Y49438D01*
X35687D01*
X35437D02*
X35187Y49188D01*
X34938D02*
X34688D01*
X34813D01*
Y49938D01*
X34938Y49813D01*
X34313D02*
X34188Y49938D01*
X33938D01*
X33813Y49813D01*
Y49688D01*
X33938Y49563D01*
X33813Y49438D01*
Y49313D01*
X33938Y49188D01*
X34188D01*
X34313Y49313D01*
Y49438D01*
X34188Y49563D01*
X34313Y49688D01*
Y49813D01*
X34188Y49563D02*
X33938D01*
X33212Y47388D02*
Y48138D01*
X32837D01*
X32712Y48013D01*
Y47763D01*
X32837Y47638D01*
X33212D01*
X32962D02*
X32712Y47388D01*
X32463D02*
X32213D01*
X32338D01*
Y48138D01*
X32463Y48013D01*
X31338Y48138D02*
X31588Y48013D01*
X31838Y47763D01*
Y47513D01*
X31713Y47388D01*
X31463D01*
X31338Y47513D01*
Y47638D01*
X31463Y47763D01*
X31838D01*
X25299Y43663D02*
X25424Y43788D01*
X25674D01*
X25799Y43663D01*
Y43163D01*
X25674Y43038D01*
X25424D01*
X25299Y43163D01*
X24549Y43038D02*
X25049D01*
X24549Y43538D01*
Y43663D01*
X24674Y43788D01*
X24924D01*
X25049Y43663D01*
X23800Y43788D02*
X24300D01*
Y43413D01*
X24050Y43538D01*
X23925D01*
X23800Y43413D01*
Y43163D01*
X23925Y43038D01*
X24175D01*
X24300Y43163D01*
X22875Y43663D02*
X23000Y43788D01*
X23250D01*
X23375Y43663D01*
Y43163D01*
X23250Y43038D01*
X23000D01*
X22875Y43163D01*
X22125Y43038D02*
X22625D01*
X22125Y43538D01*
Y43663D01*
X22250Y43788D01*
X22500D01*
X22625Y43663D01*
X21875Y43038D02*
X21625D01*
X21750D01*
Y43788D01*
X21875Y43663D01*
X17337Y41213D02*
X17462Y41338D01*
X17712D01*
X17837Y41213D01*
Y40713D01*
X17712Y40588D01*
X17462D01*
X17337Y40713D01*
X17087Y40588D02*
X16838D01*
X16963D01*
Y41338D01*
X17087Y41213D01*
X16463Y40713D02*
X16338Y40588D01*
X16088D01*
X15963Y40713D01*
Y41213D01*
X16088Y41338D01*
X16338D01*
X16463Y41213D01*
Y41088D01*
X16338Y40963D01*
X15963D01*
X17337Y40088D02*
X17837D01*
Y39713D01*
X17587D01*
X17837D01*
Y39338D01*
X17087Y40088D02*
Y39338D01*
X16713D01*
X16588Y39463D01*
Y39588D01*
X16713Y39713D01*
X17087D01*
X16713D01*
X16588Y39838D01*
Y39963D01*
X16713Y40088D01*
X17087D01*
X16338Y39338D02*
X16088D01*
X16213D01*
Y40088D01*
X16338Y39963D01*
X21925Y36388D02*
X22050Y36263D01*
Y36013D01*
X21925Y35888D01*
X21425D01*
X21300Y36013D01*
Y36263D01*
X21425Y36388D01*
X21300Y37138D02*
Y36638D01*
X21800Y37138D01*
X21925D01*
X22050Y37013D01*
Y36763D01*
X21925Y36638D01*
X21300Y37888D02*
Y37388D01*
X21800Y37888D01*
X21925D01*
X22050Y37763D01*
Y37513D01*
X21925Y37388D01*
X27100Y39038D02*
X27225Y39163D01*
X27475D01*
X27600Y39038D01*
Y38538D01*
X27475Y38413D01*
X27225D01*
X27100Y38538D01*
X26350Y38413D02*
X26850D01*
X26350Y38913D01*
Y39038D01*
X26475Y39163D01*
X26725D01*
X26850Y39038D01*
X26100D02*
X25975Y39163D01*
X25725D01*
X25600Y39038D01*
Y38538D01*
X25725Y38413D01*
X25975D01*
X26100Y38538D01*
Y39038D01*
X29575D02*
X29700Y39163D01*
X29950D01*
X30075Y39038D01*
Y38538D01*
X29950Y38413D01*
X29700D01*
X29575Y38538D01*
X28825Y38413D02*
X29325D01*
X28825Y38913D01*
Y39038D01*
X28950Y39163D01*
X29200D01*
X29325Y39038D01*
X28075Y39163D02*
X28325Y39038D01*
X28575Y38788D01*
Y38538D01*
X28450Y38413D01*
X28200D01*
X28075Y38538D01*
Y38663D01*
X28200Y38788D01*
X28575D01*
X26225Y36288D02*
X26350Y36413D01*
X26600D01*
X26725Y36288D01*
Y35788D01*
X26600Y35663D01*
X26350D01*
X26225Y35788D01*
X25475Y35663D02*
X25975D01*
X25475Y36163D01*
Y36288D01*
X25600Y36413D01*
X25850D01*
X25975Y36288D01*
X25225D02*
X25100Y36413D01*
X24850D01*
X24725Y36288D01*
Y36163D01*
X24850Y36038D01*
X24975D01*
X24850D01*
X24725Y35913D01*
Y35788D01*
X24850Y35663D01*
X25100D01*
X25225Y35788D01*
X18375Y35463D02*
X18500Y35588D01*
X18750D01*
X18875Y35463D01*
Y34963D01*
X18750Y34838D01*
X18500D01*
X18375Y34963D01*
X17625Y34838D02*
X18125D01*
X17625Y35338D01*
Y35463D01*
X17750Y35588D01*
X18000D01*
X18125Y35463D01*
X17000Y34838D02*
Y35588D01*
X17375Y35213D01*
X16875D01*
X19250Y23388D02*
X19375Y23263D01*
Y23013D01*
X19250Y22888D01*
X18750D01*
X18625Y23013D01*
Y23263D01*
X18750Y23388D01*
X19250Y23638D02*
X19375Y23763D01*
Y24013D01*
X19250Y24138D01*
X19125D01*
X19000Y24013D01*
X18875Y24138D01*
X18750D01*
X18625Y24013D01*
Y23763D01*
X18750Y23638D01*
X18875D01*
X19000Y23763D01*
X19125Y23638D01*
X19250D01*
X19000Y23763D02*
Y24013D01*
X21200Y23388D02*
X21325Y23263D01*
Y23013D01*
X21200Y22888D01*
X20700D01*
X20575Y23013D01*
Y23263D01*
X20700Y23388D01*
X21325Y23638D02*
Y24138D01*
X21200D01*
X20700Y23638D01*
X20575D01*
M02*
