G04*
G04 #@! TF.GenerationSoftware,Altium Limited,Altium Designer,23.0.1 (38)*
G04*
G04 Layer_Color=8388736*
%FSLAX43Y43*%
%MOMM*%
G71*
G04*
G04 #@! TF.SameCoordinates,05D2ED34-A1BA-4F44-98ED-29CC40A3A522*
G04*
G04*
G04 #@! TF.FilePolarity,Negative*
G04*
G01*
G75*
%ADD20R,0.500X0.500*%
%ADD22R,0.500X0.500*%
%ADD62O,0.295X0.414*%
%ADD63O,0.414X0.295*%
%ADD64C,0.360*%
%ADD65O,0.360X0.290*%
%ADD66R,0.600X0.600*%
%ADD67R,1.650X0.700*%
%ADD68R,0.600X0.600*%
G04:AMPARAMS|DCode=69|XSize=0.45mm|YSize=0.7mm|CornerRadius=0.138mm|HoleSize=0mm|Usage=FLASHONLY|Rotation=0.000|XOffset=0mm|YOffset=0mm|HoleType=Round|Shape=RoundedRectangle|*
%AMROUNDEDRECTD69*
21,1,0.450,0.425,0,0,0.0*
21,1,0.175,0.700,0,0,0.0*
1,1,0.275,0.088,-0.213*
1,1,0.275,-0.088,-0.213*
1,1,0.275,-0.088,0.213*
1,1,0.275,0.088,0.213*
%
%ADD69ROUNDEDRECTD69*%
G04:AMPARAMS|DCode=70|XSize=0.45mm|YSize=0.7mm|CornerRadius=0.138mm|HoleSize=0mm|Usage=FLASHONLY|Rotation=90.000|XOffset=0mm|YOffset=0mm|HoleType=Round|Shape=RoundedRectangle|*
%AMROUNDEDRECTD70*
21,1,0.450,0.425,0,0,90.0*
21,1,0.175,0.700,0,0,90.0*
1,1,0.275,0.213,0.088*
1,1,0.275,0.213,-0.088*
1,1,0.275,-0.213,-0.088*
1,1,0.275,-0.213,0.088*
%
%ADD70ROUNDEDRECTD70*%
%ADD71R,0.600X0.520*%
%ADD72R,0.500X0.650*%
%ADD73R,0.500X0.950*%
%ADD74R,0.500X0.850*%
%ADD75R,0.520X0.600*%
%ADD76R,0.700X1.650*%
%ADD77R,0.850X0.500*%
%ADD78R,1.500X1.700*%
%ADD79R,2.700X2.700*%
G04:AMPARAMS|DCode=80|XSize=0.33mm|YSize=0.58mm|CornerRadius=0.108mm|HoleSize=0mm|Usage=FLASHONLY|Rotation=0.000|XOffset=0mm|YOffset=0mm|HoleType=Round|Shape=RoundedRectangle|*
%AMROUNDEDRECTD80*
21,1,0.330,0.365,0,0,0.0*
21,1,0.115,0.580,0,0,0.0*
1,1,0.215,0.058,-0.183*
1,1,0.215,-0.058,-0.183*
1,1,0.215,-0.058,0.183*
1,1,0.215,0.058,0.183*
%
%ADD80ROUNDEDRECTD80*%
G04:AMPARAMS|DCode=81|XSize=0.33mm|YSize=0.58mm|CornerRadius=0.108mm|HoleSize=0mm|Usage=FLASHONLY|Rotation=90.000|XOffset=0mm|YOffset=0mm|HoleType=Round|Shape=RoundedRectangle|*
%AMROUNDEDRECTD81*
21,1,0.330,0.365,0,0,90.0*
21,1,0.115,0.580,0,0,90.0*
1,1,0.215,0.183,0.058*
1,1,0.215,0.183,-0.058*
1,1,0.215,-0.183,-0.058*
1,1,0.215,-0.183,0.058*
%
%ADD81ROUNDEDRECTD81*%
%ADD82R,0.500X0.600*%
%ADD83R,0.850X0.600*%
%ADD84R,1.400X0.600*%
%ADD85C,0.510*%
%ADD86P,0.849X4X90.0*%
%ADD87R,1.300X1.500*%
%ADD88R,2.000X1.200*%
%ADD89O,1.800X0.700*%
%ADD90R,1.000X1.000*%
%ADD91R,0.900X2.800*%
%ADD92R,1.000X1.000*%
%ADD93C,1.100*%
%ADD94R,0.700X0.400*%
%ADD95R,0.900X1.600*%
%ADD96R,0.500X1.830*%
%ADD97R,1.500X1.050*%
%ADD98R,2.600X1.600*%
%ADD99R,0.700X1.000*%
%ADD100R,2.100X2.100*%
G04:AMPARAMS|DCode=101|XSize=3.7mm|YSize=2.1mm|CornerRadius=0.15mm|HoleSize=0mm|Usage=FLASHONLY|Rotation=0.000|XOffset=0mm|YOffset=0mm|HoleType=Round|Shape=RoundedRectangle|*
%AMROUNDEDRECTD101*
21,1,3.700,1.800,0,0,0.0*
21,1,3.400,2.100,0,0,0.0*
1,1,0.300,1.700,-0.900*
1,1,0.300,-1.700,-0.900*
1,1,0.300,-1.700,0.900*
1,1,0.300,1.700,0.900*
%
%ADD101ROUNDEDRECTD101*%
%ADD102C,0.887*%
%ADD103C,0.350*%
G04:AMPARAMS|DCode=104|XSize=1.1mm|YSize=2.1mm|CornerRadius=0.3mm|HoleSize=0mm|Usage=FLASHONLY|Rotation=90.000|XOffset=0mm|YOffset=0mm|HoleType=Round|Shape=RoundedRectangle|*
%AMROUNDEDRECTD104*
21,1,1.100,1.500,0,0,90.0*
21,1,0.500,2.100,0,0,90.0*
1,1,0.600,0.750,0.250*
1,1,0.600,0.750,-0.250*
1,1,0.600,-0.750,-0.250*
1,1,0.600,-0.750,0.250*
%
%ADD104ROUNDEDRECTD104*%
%ADD105R,1.600X4.100*%
%ADD106R,2.100X2.280*%
%ADD107R,1.160X0.700*%
%ADD108R,1.250X0.400*%
%ADD109C,0.100*%
%ADD110C,2.100*%
%ADD111C,3.350*%
%ADD112C,1.670*%
%ADD113C,1.600*%
%ADD114C,2.500*%
%ADD115C,2.600*%
G36*
X22325Y84788D02*
X21025D01*
Y85388D01*
X22325D01*
Y84788D01*
D02*
G37*
G36*
X72400Y84538D02*
X71100D01*
Y85138D01*
X72400D01*
Y84538D01*
D02*
G37*
G36*
X46600Y84038D02*
X45300D01*
Y84638D01*
X46600D01*
Y84038D01*
D02*
G37*
G36*
X18353Y20211D02*
X18354Y20211D01*
X18358Y20210D01*
X18362Y20210D01*
X18363Y20209D01*
X18364Y20209D01*
X18368Y20208D01*
X18372Y20207D01*
X18372Y20206D01*
X18373Y20206D01*
X18377Y20204D01*
X18381Y20202D01*
X18381Y20202D01*
X18382Y20201D01*
X18385Y20199D01*
X18388Y20196D01*
X18389Y20195D01*
X18389Y20195D01*
X18397Y20186D01*
X18400Y20183D01*
X18402Y20180D01*
X18416Y20160D01*
X18418Y20157D01*
X18420Y20153D01*
X18429Y20132D01*
X18431Y20128D01*
X18432Y20124D01*
X18438Y20101D01*
X18439Y20097D01*
X18440Y20093D01*
X18442Y20069D01*
X18442Y20065D01*
X18442Y20061D01*
X18440Y20037D01*
X18440Y20033D01*
X18439Y20029D01*
X18434Y20006D01*
X18432Y20002D01*
X18431Y19998D01*
X18422Y19976D01*
X18420Y19973D01*
X18418Y19969D01*
X18405Y19949D01*
X18402Y19946D01*
X18400Y19943D01*
X18384Y19925D01*
X18381Y19922D01*
X18378Y19920D01*
X18359Y19905D01*
X18356Y19903D01*
X18352Y19900D01*
X18331Y19889D01*
X18328Y19887D01*
X18324Y19886D01*
X18302Y19878D01*
X18298Y19877D01*
X18293Y19876D01*
X18270Y19872D01*
X18266Y19872D01*
X18262Y19871D01*
X18238D01*
X18234Y19872D01*
X18230Y19872D01*
X18207Y19876D01*
X18203Y19877D01*
X18199Y19878D01*
X18176Y19886D01*
X18173Y19887D01*
X18169Y19889D01*
X18148Y19900D01*
X18144Y19903D01*
X18141Y19905D01*
X18122Y19920D01*
X18119Y19922D01*
X18116Y19925D01*
X18100Y19943D01*
X18098Y19946D01*
X18095Y19949D01*
X18083Y19969D01*
X18081Y19973D01*
X18079Y19976D01*
X18069Y19998D01*
X18068Y20002D01*
X18067Y20006D01*
X18061Y20029D01*
X18060Y20033D01*
X18060Y20037D01*
X18058Y20061D01*
X18058Y20065D01*
X18058Y20069D01*
X18060Y20093D01*
X18061Y20097D01*
X18062Y20101D01*
X18068Y20124D01*
X18069Y20128D01*
X18071Y20132D01*
X18080Y20153D01*
X18083Y20157D01*
X18085Y20160D01*
X18098Y20180D01*
X18100Y20183D01*
X18103Y20186D01*
X18111Y20195D01*
X18112Y20195D01*
X18112Y20196D01*
X18115Y20199D01*
X18118Y20201D01*
X18119Y20202D01*
X18120Y20202D01*
X18123Y20204D01*
X18127Y20206D01*
X18128Y20206D01*
X18128Y20207D01*
X18132Y20208D01*
X18136Y20209D01*
X18137Y20209D01*
X18138Y20210D01*
X18142Y20210D01*
X18146Y20211D01*
X18147Y20211D01*
X18147Y20211D01*
X18353Y20211D01*
X18353Y20211D01*
X18353Y20211D01*
D02*
G37*
D20*
X3750Y47363D02*
D03*
X3150Y47963D02*
D03*
D22*
Y47363D02*
D03*
X3750Y47963D02*
D03*
D62*
X18750Y22063D02*
D03*
X19250D02*
D03*
X19750D02*
D03*
X20250D02*
D03*
X18750Y20063D02*
D03*
X19250D02*
D03*
X19750D02*
D03*
X20250D02*
D03*
D63*
X18250Y21563D02*
D03*
X20750D02*
D03*
X18250Y21063D02*
D03*
X20750D02*
D03*
X18250Y20563D02*
D03*
X20750D02*
D03*
D64*
X18750Y21563D02*
D03*
X19250D02*
D03*
X19750D02*
D03*
X20250D02*
D03*
X18750Y21063D02*
D03*
X19250D02*
D03*
X19750D02*
D03*
X20250D02*
D03*
X18750Y20563D02*
D03*
X19250D02*
D03*
X19750D02*
D03*
X20250D02*
D03*
X20750Y20063D02*
D03*
X18250Y22063D02*
D03*
X20750D02*
D03*
D65*
X18250Y20063D02*
D03*
D66*
X64375Y62288D02*
D03*
Y63188D02*
D03*
X63175Y62288D02*
D03*
Y63188D02*
D03*
Y60238D02*
D03*
Y61138D02*
D03*
X64375Y60238D02*
D03*
Y61138D02*
D03*
X93025Y83488D02*
D03*
Y84488D02*
D03*
X36925Y72113D02*
D03*
Y73013D02*
D03*
X34381Y63307D02*
D03*
Y62407D02*
D03*
X46750Y52613D02*
D03*
Y53513D02*
D03*
X53075Y45338D02*
D03*
Y44338D02*
D03*
X53075Y42163D02*
D03*
Y43163D02*
D03*
X45144Y32413D02*
D03*
Y33313D02*
D03*
X32950Y34613D02*
D03*
Y33713D02*
D03*
X31750Y32763D02*
D03*
Y33663D02*
D03*
X31750Y31588D02*
D03*
Y30688D02*
D03*
X12450Y29313D02*
D03*
Y28313D02*
D03*
X11225Y28413D02*
D03*
Y29313D02*
D03*
X9675Y30413D02*
D03*
Y29413D02*
D03*
X7700Y26763D02*
D03*
Y27763D02*
D03*
X6475Y26888D02*
D03*
Y27788D02*
D03*
X5125Y27238D02*
D03*
Y28138D02*
D03*
X4950Y30513D02*
D03*
Y31513D02*
D03*
X22875Y21088D02*
D03*
Y20088D02*
D03*
X26653Y10663D02*
D03*
Y11663D02*
D03*
D67*
X30550Y83418D02*
D03*
Y82148D02*
D03*
Y80878D02*
D03*
Y79608D02*
D03*
X35950Y83418D02*
D03*
Y82148D02*
D03*
Y80878D02*
D03*
Y79608D02*
D03*
X66025Y76758D02*
D03*
Y78028D02*
D03*
Y79298D02*
D03*
Y80568D02*
D03*
X60625Y76758D02*
D03*
Y78028D02*
D03*
Y79298D02*
D03*
Y80568D02*
D03*
D68*
X90650Y89613D02*
D03*
X89750D02*
D03*
X90825Y81773D02*
D03*
X89825D02*
D03*
X89800Y80523D02*
D03*
X90700D02*
D03*
X73319Y82591D02*
D03*
X72319D02*
D03*
X70211Y82578D02*
D03*
X71211D02*
D03*
X47500Y82388D02*
D03*
X46500D02*
D03*
X44357Y82394D02*
D03*
X45357D02*
D03*
X20125Y83088D02*
D03*
X21125D02*
D03*
X23225D02*
D03*
X22225D02*
D03*
X29625Y70063D02*
D03*
X30625D02*
D03*
X37350Y66438D02*
D03*
X38250D02*
D03*
X45600Y52613D02*
D03*
X44700D02*
D03*
X44750Y7513D02*
D03*
X43750D02*
D03*
X43850Y2963D02*
D03*
X44850D02*
D03*
X49775Y53138D02*
D03*
X48875D02*
D03*
X56075Y31838D02*
D03*
X56975D02*
D03*
X52750Y37263D02*
D03*
X53650D02*
D03*
X43969Y36088D02*
D03*
X44969D02*
D03*
X9350Y17913D02*
D03*
X10350D02*
D03*
X9875Y21188D02*
D03*
X10875D02*
D03*
D69*
X89643Y86413D02*
D03*
X90143D02*
D03*
X90643D02*
D03*
Y84663D02*
D03*
X90143D02*
D03*
X89643D02*
D03*
D70*
X91268Y86288D02*
D03*
Y85788D02*
D03*
Y85288D02*
D03*
Y84788D02*
D03*
X89018D02*
D03*
Y85288D02*
D03*
Y85788D02*
D03*
Y86288D02*
D03*
D71*
X89625Y82873D02*
D03*
X90325D02*
D03*
X46125Y68738D02*
D03*
X45425D02*
D03*
X30625Y69038D02*
D03*
X29925D02*
D03*
Y68088D02*
D03*
X30625D02*
D03*
X44700Y51538D02*
D03*
X45400D02*
D03*
X48875Y52138D02*
D03*
X49575D02*
D03*
X54063Y51175D02*
D03*
X54763D02*
D03*
X65400Y30163D02*
D03*
X64700D02*
D03*
X44444Y38082D02*
D03*
X45144D02*
D03*
X44444Y37203D02*
D03*
X45144D02*
D03*
X9625Y32038D02*
D03*
X10325D02*
D03*
D72*
X72150Y83963D02*
D03*
X71350D02*
D03*
X45550Y83463D02*
D03*
X46350D02*
D03*
X21275Y84213D02*
D03*
X22075D02*
D03*
D73*
X72150Y84963D02*
D03*
X71350D02*
D03*
X45550Y84463D02*
D03*
X46350D02*
D03*
X21275Y85213D02*
D03*
X22075D02*
D03*
D74*
X72175Y80688D02*
D03*
X71325D02*
D03*
X72175Y78838D02*
D03*
X71325D02*
D03*
X45500Y79013D02*
D03*
X46350D02*
D03*
X45500Y80863D02*
D03*
X46350D02*
D03*
D75*
X58675Y78913D02*
D03*
Y78213D02*
D03*
X37450Y81163D02*
D03*
Y81863D02*
D03*
X35753Y72785D02*
D03*
Y72085D02*
D03*
X50840Y38988D02*
D03*
Y38288D02*
D03*
D76*
X47730Y75713D02*
D03*
X46460D02*
D03*
X45190D02*
D03*
X43920D02*
D03*
X47730Y70313D02*
D03*
X46460D02*
D03*
X45190D02*
D03*
X43920D02*
D03*
D77*
X26725Y81163D02*
D03*
Y82013D02*
D03*
X24875Y81163D02*
D03*
Y82013D02*
D03*
D78*
X6325Y87538D02*
D03*
X9325D02*
D03*
Y80338D02*
D03*
X6325D02*
D03*
D79*
X33952Y67175D02*
D03*
D80*
X32702Y69035D02*
D03*
X33202D02*
D03*
X33702D02*
D03*
X34202D02*
D03*
X34702D02*
D03*
X35202D02*
D03*
Y65315D02*
D03*
X34702D02*
D03*
X34202D02*
D03*
X33702D02*
D03*
X33202D02*
D03*
X32702D02*
D03*
D81*
X35812Y68425D02*
D03*
Y67925D02*
D03*
Y67425D02*
D03*
Y66925D02*
D03*
Y66425D02*
D03*
Y65925D02*
D03*
X32092Y67925D02*
D03*
Y68425D02*
D03*
Y67425D02*
D03*
Y66925D02*
D03*
Y66425D02*
D03*
Y65925D02*
D03*
D82*
X44775Y6413D02*
D03*
Y4013D02*
D03*
X42875D02*
D03*
D83*
X43825D02*
D03*
D84*
X43325Y6413D02*
D03*
D85*
X18475Y37200D02*
D03*
Y43600D02*
D03*
X20075Y37200D02*
D03*
Y38000D02*
D03*
Y38800D02*
D03*
Y43600D02*
D03*
X20875Y37200D02*
D03*
Y38000D02*
D03*
Y38800D02*
D03*
Y42000D02*
D03*
Y42800D02*
D03*
Y43600D02*
D03*
X21675Y38000D02*
D03*
Y38800D02*
D03*
Y42000D02*
D03*
Y42800D02*
D03*
X22475Y38800D02*
D03*
Y42000D02*
D03*
X23275Y38800D02*
D03*
Y42000D02*
D03*
X24075Y38800D02*
D03*
Y42000D02*
D03*
X24875Y37200D02*
D03*
Y38800D02*
D03*
Y42000D02*
D03*
Y43600D02*
D03*
X22475Y38000D02*
D03*
X23275D02*
D03*
X24075Y43600D02*
D03*
X24875Y42800D02*
D03*
X22475D02*
D03*
X23275Y43600D02*
D03*
X21675D02*
D03*
X22475D02*
D03*
X23275Y37200D02*
D03*
X22475D02*
D03*
X23275Y42800D02*
D03*
X21675Y37200D02*
D03*
X24075Y38000D02*
D03*
Y42800D02*
D03*
Y37200D02*
D03*
X24875Y38000D02*
D03*
X18475Y42800D02*
D03*
X19275Y37200D02*
D03*
X20075Y42000D02*
D03*
X18475D02*
D03*
X20075Y42800D02*
D03*
X19275Y42000D02*
D03*
Y43600D02*
D03*
Y42800D02*
D03*
X18475Y38800D02*
D03*
Y38000D02*
D03*
X19275D02*
D03*
Y38800D02*
D03*
D86*
X49720Y49665D02*
D03*
X50356Y50301D02*
D03*
D87*
X53525Y47338D02*
D03*
Y49538D02*
D03*
X55125D02*
D03*
Y47338D02*
D03*
D88*
X54950Y45013D02*
D03*
Y42513D02*
D03*
D89*
X56075Y30168D02*
D03*
Y28898D02*
D03*
Y27628D02*
D03*
Y26358D02*
D03*
X63175Y30168D02*
D03*
Y28898D02*
D03*
Y27628D02*
D03*
Y26358D02*
D03*
D90*
X53625Y38663D02*
D03*
Y40063D02*
D03*
X52025Y38653D02*
D03*
Y40053D02*
D03*
D91*
X46875Y36813D02*
D03*
X49075D02*
D03*
D92*
X44994Y34688D02*
D03*
X43594D02*
D03*
X12600Y32338D02*
D03*
X14000D02*
D03*
X24450Y22488D02*
D03*
X23050D02*
D03*
X14125Y22501D02*
D03*
X15525D02*
D03*
X14125Y20938D02*
D03*
X15525D02*
D03*
X13995Y33838D02*
D03*
X12595D02*
D03*
D93*
X11475Y30963D02*
D03*
X21825Y24688D02*
D03*
X27164Y21752D02*
D03*
X25750Y20338D02*
D03*
X12597Y78016D02*
D03*
X65800Y61713D02*
D03*
X61646Y61663D02*
D03*
X48625Y55313D02*
D03*
X34600Y49338D02*
D03*
X31450Y47938D02*
D03*
X20725Y16263D02*
D03*
D94*
X6525Y30113D02*
D03*
Y29663D02*
D03*
Y29213D02*
D03*
X8225Y30113D02*
D03*
Y29663D02*
D03*
Y29213D02*
D03*
D95*
X8125Y31163D02*
D03*
X6625D02*
D03*
D96*
X7375Y31278D02*
D03*
D97*
X3275Y31313D02*
D03*
Y29463D02*
D03*
X30378Y12038D02*
D03*
Y10188D02*
D03*
X28303Y12038D02*
D03*
Y10188D02*
D03*
X13503Y12088D02*
D03*
Y10238D02*
D03*
D98*
X24478Y9438D02*
D03*
Y12938D02*
D03*
X15978Y9438D02*
D03*
Y12938D02*
D03*
D99*
X4375Y11113D02*
D03*
X3175D02*
D03*
D100*
X10703Y9088D02*
D03*
Y13088D02*
D03*
D101*
X23525Y77463D02*
D03*
X71100Y69213D02*
D03*
X24475Y28488D02*
D03*
X82200Y6138D02*
D03*
D102*
X53107Y61711D02*
D03*
Y60441D02*
D03*
X50567Y61711D02*
D03*
Y60441D02*
D03*
X51837D02*
D03*
Y61711D02*
D03*
X49297D02*
D03*
Y60441D02*
D03*
X48027D02*
D03*
Y61711D02*
D03*
D103*
X40912Y41226D02*
D03*
X43512Y40576D02*
D03*
Y41876D02*
D03*
X44162Y40576D02*
D03*
X39612Y43826D02*
D03*
X40262D02*
D03*
Y40576D02*
D03*
X39612Y43176D02*
D03*
Y42526D02*
D03*
X40262Y41226D02*
D03*
X43512D02*
D03*
X40262Y42526D02*
D03*
X42212Y41876D02*
D03*
X42862D02*
D03*
Y42526D02*
D03*
X43512D02*
D03*
X42862Y41226D02*
D03*
X43512Y43176D02*
D03*
X44162D02*
D03*
Y42526D02*
D03*
X40912Y43826D02*
D03*
Y43176D02*
D03*
X41562D02*
D03*
X40912Y42526D02*
D03*
X41562D02*
D03*
X42212Y43176D02*
D03*
X40912Y41876D02*
D03*
X42212Y42526D02*
D03*
X39612Y40576D02*
D03*
Y41226D02*
D03*
Y47076D02*
D03*
Y49026D02*
D03*
X40262Y41876D02*
D03*
Y43176D02*
D03*
Y45126D02*
D03*
Y46426D02*
D03*
Y47076D02*
D03*
Y47726D02*
D03*
Y49026D02*
D03*
X40912Y40576D02*
D03*
Y45126D02*
D03*
Y46426D02*
D03*
Y47076D02*
D03*
Y47726D02*
D03*
Y49026D02*
D03*
X41562Y40576D02*
D03*
Y41226D02*
D03*
Y41876D02*
D03*
Y43826D02*
D03*
Y44476D02*
D03*
Y45126D02*
D03*
Y45776D02*
D03*
Y46426D02*
D03*
Y47726D02*
D03*
Y49026D02*
D03*
X42212Y40576D02*
D03*
Y41226D02*
D03*
Y43826D02*
D03*
Y44476D02*
D03*
Y45776D02*
D03*
Y46426D02*
D03*
Y47076D02*
D03*
Y47726D02*
D03*
Y48376D02*
D03*
Y49026D02*
D03*
X42862Y40576D02*
D03*
Y43176D02*
D03*
Y43826D02*
D03*
Y44476D02*
D03*
Y45126D02*
D03*
Y45776D02*
D03*
Y46426D02*
D03*
Y47076D02*
D03*
Y47726D02*
D03*
X43512Y43826D02*
D03*
Y44476D02*
D03*
Y45126D02*
D03*
Y45776D02*
D03*
Y46426D02*
D03*
Y47076D02*
D03*
Y47726D02*
D03*
Y48376D02*
D03*
Y49026D02*
D03*
X44162Y41226D02*
D03*
Y41876D02*
D03*
Y43826D02*
D03*
Y44476D02*
D03*
Y45126D02*
D03*
Y45776D02*
D03*
Y46426D02*
D03*
Y47076D02*
D03*
Y47726D02*
D03*
Y48376D02*
D03*
Y49026D02*
D03*
X44812Y40576D02*
D03*
Y41876D02*
D03*
Y42526D02*
D03*
Y43176D02*
D03*
Y43826D02*
D03*
Y44476D02*
D03*
Y45126D02*
D03*
Y45776D02*
D03*
Y46426D02*
D03*
Y47076D02*
D03*
Y47726D02*
D03*
Y48376D02*
D03*
X45462Y40576D02*
D03*
Y41226D02*
D03*
Y41876D02*
D03*
Y42526D02*
D03*
Y43176D02*
D03*
Y43826D02*
D03*
Y45126D02*
D03*
Y45776D02*
D03*
Y46426D02*
D03*
Y47076D02*
D03*
Y48376D02*
D03*
X46112Y40576D02*
D03*
Y41226D02*
D03*
Y41876D02*
D03*
Y42526D02*
D03*
Y43176D02*
D03*
Y45126D02*
D03*
Y45776D02*
D03*
Y46426D02*
D03*
Y47076D02*
D03*
X46762Y40576D02*
D03*
Y41226D02*
D03*
Y41876D02*
D03*
Y42526D02*
D03*
Y43176D02*
D03*
Y43826D02*
D03*
Y44476D02*
D03*
Y45126D02*
D03*
Y45776D02*
D03*
Y46426D02*
D03*
Y47076D02*
D03*
Y47726D02*
D03*
Y48376D02*
D03*
Y49026D02*
D03*
X47412Y40576D02*
D03*
Y41226D02*
D03*
Y43176D02*
D03*
Y43826D02*
D03*
Y45126D02*
D03*
Y45776D02*
D03*
Y49026D02*
D03*
X48062Y40576D02*
D03*
Y41226D02*
D03*
Y41876D02*
D03*
Y45126D02*
D03*
Y45776D02*
D03*
Y46426D02*
D03*
Y47076D02*
D03*
Y47726D02*
D03*
Y49026D02*
D03*
X39612Y41876D02*
D03*
Y44476D02*
D03*
Y45126D02*
D03*
Y45776D02*
D03*
Y46426D02*
D03*
Y47726D02*
D03*
Y48376D02*
D03*
X40262Y44476D02*
D03*
Y45776D02*
D03*
Y48376D02*
D03*
X40912Y44476D02*
D03*
Y45776D02*
D03*
Y48376D02*
D03*
X41562Y47076D02*
D03*
Y48376D02*
D03*
X42212Y45126D02*
D03*
X42862Y48376D02*
D03*
Y49026D02*
D03*
X44812Y41226D02*
D03*
Y49026D02*
D03*
X45462Y44476D02*
D03*
Y47726D02*
D03*
Y49026D02*
D03*
X46112Y43826D02*
D03*
Y44476D02*
D03*
Y47726D02*
D03*
Y48376D02*
D03*
Y49026D02*
D03*
X47412Y41876D02*
D03*
Y42526D02*
D03*
Y44476D02*
D03*
Y46426D02*
D03*
Y47076D02*
D03*
Y47726D02*
D03*
Y48376D02*
D03*
X48062Y42526D02*
D03*
Y43176D02*
D03*
Y43826D02*
D03*
Y44476D02*
D03*
Y48376D02*
D03*
D104*
X94225Y30545D02*
D03*
Y33085D02*
D03*
Y35625D02*
D03*
Y38165D02*
D03*
X90727D02*
D03*
Y35625D02*
D03*
Y33085D02*
D03*
Y30545D02*
D03*
X94225Y18860D02*
D03*
Y21400D02*
D03*
Y23940D02*
D03*
Y26480D02*
D03*
X90727D02*
D03*
Y23940D02*
D03*
Y21400D02*
D03*
Y18860D02*
D03*
D105*
X10475Y35513D02*
D03*
X6875D02*
D03*
D106*
X1636Y14165D02*
D03*
X5566D02*
D03*
X1636Y24385D02*
D03*
X5566D02*
D03*
D107*
X6186Y22475D02*
D03*
Y16075D02*
D03*
Y21675D02*
D03*
Y16875D02*
D03*
D108*
X6141Y21025D02*
D03*
Y17525D02*
D03*
Y20525D02*
D03*
Y18025D02*
D03*
Y20025D02*
D03*
Y18525D02*
D03*
Y19525D02*
D03*
Y19025D02*
D03*
D109*
X80680Y95933D02*
D03*
X65680D02*
D03*
X80680Y91933D02*
D03*
X65680D02*
D03*
X56513Y95933D02*
D03*
X41513D02*
D03*
X56513Y91933D02*
D03*
X41513D02*
D03*
X32345Y95933D02*
D03*
X17345D02*
D03*
X32345Y91933D02*
D03*
X17345D02*
D03*
X5000Y95000D02*
D03*
X95000Y95000D02*
D03*
X54377Y60061D02*
D03*
Y62091D02*
D03*
X52472Y63616D02*
D03*
Y58536D02*
D03*
X46757D02*
D03*
X46757Y63616D02*
D03*
X46757Y61076D02*
D03*
X95000Y5000D02*
D03*
X5000D02*
D03*
X5066Y22165D02*
D03*
Y16385D02*
D03*
D110*
X71410Y93203D02*
D03*
X74950D02*
D03*
Y90663D02*
D03*
X73180Y88123D02*
D03*
X71410Y90663D02*
D03*
X47243Y93203D02*
D03*
X50783D02*
D03*
Y90663D02*
D03*
X49013Y88123D02*
D03*
X47243Y90663D02*
D03*
X23075Y93203D02*
D03*
X26615D02*
D03*
Y90663D02*
D03*
X24845Y88123D02*
D03*
X23075Y90663D02*
D03*
X6977Y72965D02*
D03*
X6967Y70425D02*
D03*
Y59705D02*
D03*
Y62245D02*
D03*
D111*
X11027Y72045D02*
D03*
Y60620D02*
D03*
D112*
X14077Y74210D02*
D03*
Y58460D02*
D03*
D113*
X19917Y61890D02*
D03*
Y64430D02*
D03*
Y66970D02*
D03*
Y69510D02*
D03*
X17377Y63160D02*
D03*
Y65700D02*
D03*
Y68240D02*
D03*
Y70780D02*
D03*
D114*
X89925Y70388D02*
D03*
Y60100D02*
D03*
Y49813D02*
D03*
D115*
X92475Y72938D02*
D03*
X87375D02*
D03*
Y67838D02*
D03*
X92475D02*
D03*
Y62650D02*
D03*
X87375D02*
D03*
Y57550D02*
D03*
X92475D02*
D03*
Y52363D02*
D03*
X87375D02*
D03*
Y47263D02*
D03*
X92475D02*
D03*
M02*
