M48
;Layer_Color=9474304
;FILE_FORMAT=4:3
METRIC,TZ
;TYPE=PLATED
T1F00S00C0.200
T2F00S00C0.300
T3F00S00C0.600
T4F00S00C1.020
%
T01
X33633Y35052
X34171Y41783
X35314Y48895
X36144Y51766
X31889Y51766
X27635Y51766
X27686Y50546
X26797Y49911
T02
X28000Y14000
X30000Y14000
X32000Y14000
X34000Y14000
X36000Y14000
X38000Y14000
X39000Y16000
X37000Y16000
X35000Y16000
X33000Y16000
X34000Y18000
X36000Y18000
X38000Y18000
X39000Y20000
X37000Y20000
X35000Y20000
X33000Y20000
X34000Y22000
X36000Y22000
X38000Y22000
X39000Y24000
X37000Y24000
X35000Y24000
X33000Y24000
X34000Y26000
X36000Y26000
X38000Y26000
X39000Y28000
X37000Y28000
X35000Y28000
X33000Y28000
X31000Y28000
X29000Y28000
X30000Y30000
X32000Y30000
X34000Y30000
X36000Y30000
X38000Y30000
X39000Y32000
X37000Y32000
X35000Y32000
X33000Y32000
X31000Y32000
X29000Y32000
X29942Y33127
X28000Y30000
X28000Y26000
X30000Y26000
X32000Y26000
X32000Y22000
X32000Y18000
X28000Y18000
X28000Y22000
X28000Y38000
X32000Y38000
X34000Y38000
X36000Y38000
X38000Y38000
X39000Y36000
X37000Y36000
X35000Y36000
X33000Y36000
X40000Y38000
X41000Y32000
X43000Y32000
X45000Y32000
X44000Y30000
X42000Y30000
X40000Y30000
X41000Y28000
X43000Y28000
X45000Y28000
X44000Y26000
X42000Y26000
X40000Y26000
X41000Y24000
X43000Y24000
X45000Y24000
X44000Y22000
X42000Y22000
X40000Y22000
X41000Y20000
X43000Y20000
X45000Y20000
X44000Y18000
X42000Y18000
X40000Y18000
X41000Y16000
X43000Y16000
X45000Y16000
X44000Y14000
X42000Y14000
X40000Y14000
X40000Y50000
X42000Y50000
X44000Y50000
X45000Y52000
X43000Y52000
X41000Y52000
X45000Y48000
X39000Y48000
X39000Y52000
X35000Y52000
X35560Y45585
X34000Y46000
X32000Y46000
X32000Y42000
X33000Y40000
X35000Y40000
X37000Y40000
X39000Y40000
X38000Y42000
X36000Y42000
X35000Y44000
T03
X29337Y15406
X30607Y15406
X30607Y16676
X29337Y16676
X29337Y17946
X29337Y19216
X30607Y19216
X30607Y20486
X29337Y20486
X29337Y21756
X30607Y21756
X30607Y23026
X29337Y23026
X30607Y17946
X30607Y36576
X30607Y37846
X30607Y39116
X29337Y39116
X29337Y37846
X29337Y36576
X29337Y40386
X29337Y41656
X29337Y42926
X29337Y44196
X29337Y45466
X29337Y46736
X29337Y48006
X30607Y48006
X30607Y46736
X30607Y45466
X30607Y44196
X30607Y42926
X30607Y41656
X30607Y40386
T04
X41142Y37211
X43682Y37211
X43682Y39751
X41142Y39751
X41142Y42291
X43682Y42291
X43682Y44831
X41142Y44831
X41142Y47371
X43682Y47371
M30
