G04*
G04 #@! TF.GenerationSoftware,Altium Limited,Altium Designer,23.0.1 (38)*
G04*
G04 Layer_Color=2752767*
%FSLAX43Y43*%
%MOMM*%
G71*
G04*
G04 #@! TF.SameCoordinates,C917657F-03F6-454C-AC05-0521F369B23B*
G04*
G04*
G04 #@! TF.FilePolarity,Positive*
G04*
G01*
G75*
%ADD73C,0.051*%
%ADD74C,0.068*%
D73*
X30841Y27257D02*
X30943Y27358D01*
X31044D01*
X30943Y27460D01*
X31044Y27562D01*
X30943D01*
X30841Y27663D01*
X30739Y27562D01*
X30638D01*
X30739Y27460D01*
X30638Y27358D01*
X30739D01*
X30841Y27257D01*
Y32337D02*
X30943Y32438D01*
X31044D01*
X30943Y32540D01*
X31044Y32642D01*
X30943D01*
X30841Y32743D01*
X30739Y32642D01*
X30638D01*
X30739Y32540D01*
X30638Y32438D01*
X30739D01*
X30841Y32337D01*
Y67257D02*
X30943Y67358D01*
X31044D01*
X30943Y67460D01*
X31044Y67562D01*
X30943D01*
X30841Y67663D01*
X30739Y67562D01*
X30638D01*
X30739Y67460D01*
X30638Y67358D01*
X30739D01*
X30841Y67257D01*
Y72337D02*
X30943Y72438D01*
X31044D01*
X30943Y72540D01*
X31044Y72642D01*
X30943D01*
X30841Y72743D01*
X30739Y72642D01*
X30638D01*
X30739Y72540D01*
X30638Y72438D01*
X30739D01*
X30841Y72337D01*
X117547Y27257D02*
Y27663D01*
X117953D01*
Y27257D01*
X117547D01*
Y32337D02*
Y32743D01*
X117953D01*
Y32337D01*
X117547D01*
Y67777D02*
Y68183D01*
X117953D01*
Y67777D01*
X117547D01*
Y72857D02*
Y73263D01*
X117953D01*
Y72857D01*
X117547D01*
X64123Y32873D02*
Y32772D01*
X64327D01*
Y32873D01*
X64428D01*
Y33077D01*
X64327D01*
Y33178D01*
X64123D01*
Y33077D01*
X64022D01*
Y32873D01*
X64123D01*
Y37973D02*
Y37872D01*
X64327D01*
Y37973D01*
X64428D01*
Y38177D01*
X64327D01*
Y38278D01*
X64123D01*
Y38177D01*
X64022D01*
Y37973D01*
X64123D01*
X59023D02*
Y37872D01*
X59227D01*
Y37973D01*
X59328D01*
Y38177D01*
X59227D01*
Y38278D01*
X59023D01*
Y38177D01*
X58922D01*
Y37973D01*
X59023D01*
Y32873D02*
Y32772D01*
X59227D01*
Y32873D01*
X59328D01*
Y33077D01*
X59227D01*
Y33178D01*
X59023D01*
Y33077D01*
X58922D01*
Y32873D01*
X59023D01*
X64123Y50173D02*
Y50072D01*
X64327D01*
Y50173D01*
X64428D01*
Y50377D01*
X64327D01*
Y50478D01*
X64123D01*
Y50377D01*
X64022D01*
Y50173D01*
X64123D01*
Y55273D02*
Y55172D01*
X64327D01*
Y55273D01*
X64428D01*
Y55477D01*
X64327D01*
Y55578D01*
X64123D01*
Y55477D01*
X64022D01*
Y55273D01*
X64123D01*
X59023D02*
Y55172D01*
X59227D01*
Y55273D01*
X59328D01*
Y55477D01*
X59227D01*
Y55578D01*
X59023D01*
Y55477D01*
X58922D01*
Y55273D01*
X59023D01*
Y50173D02*
Y50072D01*
X59227D01*
Y50173D01*
X59328D01*
Y50377D01*
X59227D01*
Y50478D01*
X59023D01*
Y50377D01*
X58922D01*
Y50173D01*
X59023D01*
X102598Y36948D02*
Y36847D01*
X102802D01*
Y36948D01*
X102903D01*
Y37152D01*
X102802D01*
Y37253D01*
X102598D01*
Y37152D01*
X102497D01*
Y36948D01*
X102598D01*
X97498D02*
Y36847D01*
X97702D01*
Y36948D01*
X97803D01*
Y37152D01*
X97702D01*
Y37253D01*
X97498D01*
Y37152D01*
X97397D01*
Y36948D01*
X97498D01*
Y31848D02*
Y31747D01*
X97702D01*
Y31848D01*
X97803D01*
Y32052D01*
X97702D01*
Y32153D01*
X97498D01*
Y32052D01*
X97397D01*
Y31848D01*
X97498D01*
X102598D02*
Y31747D01*
X102802D01*
Y31848D01*
X102903D01*
Y32052D01*
X102802D01*
Y32153D01*
X102598D01*
Y32052D01*
X102497D01*
Y31848D01*
X102598D01*
X101125Y14997D02*
X100922Y15403D01*
X101328D01*
X101125Y14997D01*
X101125Y71147D02*
X100922Y71553D01*
X101328D01*
X101125Y71147D01*
X47325Y71147D02*
X47122Y71553D01*
X47528D01*
X47325Y71147D01*
X47325Y14997D02*
X47122Y15403D01*
X47528D01*
X47325Y14997D01*
X117797Y74260D02*
X117898Y74463D01*
X117797Y74666D01*
X118000Y74565D01*
X118203Y74666D01*
X118102Y74463D01*
X118203Y74260D01*
X118000Y74361D01*
X117797Y74260D01*
Y66260D02*
X117898Y66463D01*
X117797Y66666D01*
X118000Y66565D01*
X118203Y66666D01*
X118102Y66463D01*
X118203Y66260D01*
X118000Y66361D01*
X117797Y66260D01*
Y34260D02*
X117898Y34463D01*
X117797Y34666D01*
X118000Y34565D01*
X118203Y34666D01*
X118102Y34463D01*
X118203Y34260D01*
X118000Y34361D01*
X117797Y34260D01*
X115797Y30260D02*
X115898Y30463D01*
X115797Y30666D01*
X116000Y30565D01*
X116203Y30666D01*
X116102Y30463D01*
X116203Y30260D01*
X116000Y30361D01*
X115797Y30260D01*
X113797Y58260D02*
X113898Y58463D01*
X113797Y58666D01*
X114000Y58565D01*
X114203Y58666D01*
X114102Y58463D01*
X114203Y58260D01*
X114000Y58361D01*
X113797Y58260D01*
Y50260D02*
X113898Y50463D01*
X113797Y50666D01*
X114000Y50565D01*
X114203Y50666D01*
X114102Y50463D01*
X114203Y50260D01*
X114000Y50361D01*
X113797Y50260D01*
Y42260D02*
X113898Y42463D01*
X113797Y42666D01*
X114000Y42565D01*
X114203Y42666D01*
X114102Y42463D01*
X114203Y42260D01*
X114000Y42361D01*
X113797Y42260D01*
X111797Y22260D02*
X111898Y22463D01*
X111797Y22666D01*
X112000Y22565D01*
X112203Y22666D01*
X112102Y22463D01*
X112203Y22260D01*
X112000Y22361D01*
X111797Y22260D01*
X113797Y18260D02*
X113898Y18463D01*
X113797Y18666D01*
X114000Y18565D01*
X114203Y18666D01*
X114102Y18463D01*
X114203Y18260D01*
X114000Y18361D01*
X113797Y18260D01*
X111797Y14260D02*
X111898Y14463D01*
X111797Y14666D01*
X112000Y14565D01*
X112203Y14666D01*
X112102Y14463D01*
X112203Y14260D01*
X112000Y14361D01*
X111797Y14260D01*
X107797Y70260D02*
X107898Y70463D01*
X107797Y70666D01*
X108000Y70565D01*
X108203Y70666D01*
X108102Y70463D01*
X108203Y70260D01*
X108000Y70361D01*
X107797Y70260D01*
Y22260D02*
X107898Y22463D01*
X107797Y22666D01*
X108000Y22565D01*
X108203Y22666D01*
X108102Y22463D01*
X108203Y22260D01*
X108000Y22361D01*
X107797Y22260D01*
X109797Y18260D02*
X109898Y18463D01*
X109797Y18666D01*
X110000Y18565D01*
X110203Y18666D01*
X110102Y18463D01*
X110203Y18260D01*
X110000Y18361D01*
X109797Y18260D01*
X107797Y14260D02*
X107898Y14463D01*
X107797Y14666D01*
X108000Y14565D01*
X108203Y14666D01*
X108102Y14463D01*
X108203Y14260D01*
X108000Y14361D01*
X107797Y14260D01*
X103797Y70260D02*
X103898Y70463D01*
X103797Y70666D01*
X104000Y70565D01*
X104203Y70666D01*
X104102Y70463D01*
X104203Y70260D01*
X104000Y70361D01*
X103797Y70260D01*
Y62260D02*
X103898Y62463D01*
X103797Y62666D01*
X104000Y62565D01*
X104203Y62666D01*
X104102Y62463D01*
X104203Y62260D01*
X104000Y62361D01*
X103797Y62260D01*
Y22260D02*
X103898Y22463D01*
X103797Y22666D01*
X104000Y22565D01*
X104203Y22666D01*
X104102Y22463D01*
X104203Y22260D01*
X104000Y22361D01*
X103797Y22260D01*
X105797Y18260D02*
X105898Y18463D01*
X105797Y18666D01*
X106000Y18565D01*
X106203Y18666D01*
X106102Y18463D01*
X106203Y18260D01*
X106000Y18361D01*
X105797Y18260D01*
X103797Y14260D02*
X103898Y14463D01*
X103797Y14666D01*
X104000Y14565D01*
X104203Y14666D01*
X104102Y14463D01*
X104203Y14260D01*
X104000Y14361D01*
X103797Y14260D01*
X101797Y66260D02*
X101898Y66463D01*
X101797Y66666D01*
X102000Y66565D01*
X102203Y66666D01*
X102102Y66463D01*
X102203Y66260D01*
X102000Y66361D01*
X101797Y66260D01*
X99797Y62260D02*
X99898Y62463D01*
X99797Y62666D01*
X100000Y62565D01*
X100203Y62666D01*
X100102Y62463D01*
X100203Y62260D01*
X100000Y62361D01*
X99797Y62260D01*
Y54260D02*
X99898Y54463D01*
X99797Y54666D01*
X100000Y54565D01*
X100203Y54666D01*
X100102Y54463D01*
X100203Y54260D01*
X100000Y54361D01*
X99797Y54260D01*
X101797Y50260D02*
X101898Y50463D01*
X101797Y50666D01*
X102000Y50565D01*
X102203Y50666D01*
X102102Y50463D01*
X102203Y50260D01*
X102000Y50361D01*
X101797Y50260D01*
X99797Y46260D02*
X99898Y46463D01*
X99797Y46666D01*
X100000Y46565D01*
X100203Y46666D01*
X100102Y46463D01*
X100203Y46260D01*
X100000Y46361D01*
X99797Y46260D01*
X101797Y42260D02*
X101898Y42463D01*
X101797Y42666D01*
X102000Y42565D01*
X102203Y42666D01*
X102102Y42463D01*
X102203Y42260D01*
X102000Y42361D01*
X101797Y42260D01*
X99797Y38260D02*
X99898Y38463D01*
X99797Y38666D01*
X100000Y38565D01*
X100203Y38666D01*
X100102Y38463D01*
X100203Y38260D01*
X100000Y38361D01*
X99797Y38260D01*
Y30260D02*
X99898Y30463D01*
X99797Y30666D01*
X100000Y30565D01*
X100203Y30666D01*
X100102Y30463D01*
X100203Y30260D01*
X100000Y30361D01*
X99797Y30260D01*
X101797Y26260D02*
X101898Y26463D01*
X101797Y26666D01*
X102000Y26565D01*
X102203Y26666D01*
X102102Y26463D01*
X102203Y26260D01*
X102000Y26361D01*
X101797Y26260D01*
X99797Y22260D02*
X99898Y22463D01*
X99797Y22666D01*
X100000Y22565D01*
X100203Y22666D01*
X100102Y22463D01*
X100203Y22260D01*
X100000Y22361D01*
X99797Y22260D01*
X101797Y18260D02*
X101898Y18463D01*
X101797Y18666D01*
X102000Y18565D01*
X102203Y18666D01*
X102102Y18463D01*
X102203Y18260D01*
X102000Y18361D01*
X101797Y18260D01*
X95797Y70260D02*
X95898Y70463D01*
X95797Y70666D01*
X96000Y70565D01*
X96203Y70666D01*
X96102Y70463D01*
X96203Y70260D01*
X96000Y70361D01*
X95797Y70260D01*
X97797Y66260D02*
X97898Y66463D01*
X97797Y66666D01*
X98000Y66565D01*
X98203Y66666D01*
X98102Y66463D01*
X98203Y66260D01*
X98000Y66361D01*
X97797Y66260D01*
X95797Y62260D02*
X95898Y62463D01*
X95797Y62666D01*
X96000Y62565D01*
X96203Y62666D01*
X96102Y62463D01*
X96203Y62260D01*
X96000Y62361D01*
X95797Y62260D01*
X97797Y58260D02*
X97898Y58463D01*
X97797Y58666D01*
X98000Y58565D01*
X98203Y58666D01*
X98102Y58463D01*
X98203Y58260D01*
X98000Y58361D01*
X97797Y58260D01*
X95797Y54260D02*
X95898Y54463D01*
X95797Y54666D01*
X96000Y54565D01*
X96203Y54666D01*
X96102Y54463D01*
X96203Y54260D01*
X96000Y54361D01*
X95797Y54260D01*
X97797Y50260D02*
X97898Y50463D01*
X97797Y50666D01*
X98000Y50565D01*
X98203Y50666D01*
X98102Y50463D01*
X98203Y50260D01*
X98000Y50361D01*
X97797Y50260D01*
X95797Y46260D02*
X95898Y46463D01*
X95797Y46666D01*
X96000Y46565D01*
X96203Y46666D01*
X96102Y46463D01*
X96203Y46260D01*
X96000Y46361D01*
X95797Y46260D01*
X97797Y42260D02*
X97898Y42463D01*
X97797Y42666D01*
X98000Y42565D01*
X98203Y42666D01*
X98102Y42463D01*
X98203Y42260D01*
X98000Y42361D01*
X97797Y42260D01*
X95797Y38260D02*
X95898Y38463D01*
X95797Y38666D01*
X96000Y38565D01*
X96203Y38666D01*
X96102Y38463D01*
X96203Y38260D01*
X96000Y38361D01*
X95797Y38260D01*
Y30260D02*
X95898Y30463D01*
X95797Y30666D01*
X96000Y30565D01*
X96203Y30666D01*
X96102Y30463D01*
X96203Y30260D01*
X96000Y30361D01*
X95797Y30260D01*
X97797Y26260D02*
X97898Y26463D01*
X97797Y26666D01*
X98000Y26565D01*
X98203Y26666D01*
X98102Y26463D01*
X98203Y26260D01*
X98000Y26361D01*
X97797Y26260D01*
X95797Y22260D02*
X95898Y22463D01*
X95797Y22666D01*
X96000Y22565D01*
X96203Y22666D01*
X96102Y22463D01*
X96203Y22260D01*
X96000Y22361D01*
X95797Y22260D01*
X97797Y18260D02*
X97898Y18463D01*
X97797Y18666D01*
X98000Y18565D01*
X98203Y18666D01*
X98102Y18463D01*
X98203Y18260D01*
X98000Y18361D01*
X97797Y18260D01*
X95797Y14260D02*
X95898Y14463D01*
X95797Y14666D01*
X96000Y14565D01*
X96203Y14666D01*
X96102Y14463D01*
X96203Y14260D01*
X96000Y14361D01*
X95797Y14260D01*
X93797Y66260D02*
X93898Y66463D01*
X93797Y66666D01*
X94000Y66565D01*
X94203Y66666D01*
X94102Y66463D01*
X94203Y66260D01*
X94000Y66361D01*
X93797Y66260D01*
X91797Y62260D02*
X91898Y62463D01*
X91797Y62666D01*
X92000Y62565D01*
X92203Y62666D01*
X92102Y62463D01*
X92203Y62260D01*
X92000Y62361D01*
X91797Y62260D01*
X93797Y58260D02*
X93898Y58463D01*
X93797Y58666D01*
X94000Y58565D01*
X94203Y58666D01*
X94102Y58463D01*
X94203Y58260D01*
X94000Y58361D01*
X93797Y58260D01*
X91797Y54260D02*
X91898Y54463D01*
X91797Y54666D01*
X92000Y54565D01*
X92203Y54666D01*
X92102Y54463D01*
X92203Y54260D01*
X92000Y54361D01*
X91797Y54260D01*
Y46260D02*
X91898Y46463D01*
X91797Y46666D01*
X92000Y46565D01*
X92203Y46666D01*
X92102Y46463D01*
X92203Y46260D01*
X92000Y46361D01*
X91797Y46260D01*
Y30260D02*
X91898Y30463D01*
X91797Y30666D01*
X92000Y30565D01*
X92203Y30666D01*
X92102Y30463D01*
X92203Y30260D01*
X92000Y30361D01*
X91797Y30260D01*
X93797Y26260D02*
X93898Y26463D01*
X93797Y26666D01*
X94000Y26565D01*
X94203Y26666D01*
X94102Y26463D01*
X94203Y26260D01*
X94000Y26361D01*
X93797Y26260D01*
X91797Y22260D02*
X91898Y22463D01*
X91797Y22666D01*
X92000Y22565D01*
X92203Y22666D01*
X92102Y22463D01*
X92203Y22260D01*
X92000Y22361D01*
X91797Y22260D01*
X93797Y18260D02*
X93898Y18463D01*
X93797Y18666D01*
X94000Y18565D01*
X94203Y18666D01*
X94102Y18463D01*
X94203Y18260D01*
X94000Y18361D01*
X93797Y18260D01*
X91797Y14260D02*
X91898Y14463D01*
X91797Y14666D01*
X92000Y14565D01*
X92203Y14666D01*
X92102Y14463D01*
X92203Y14260D01*
X92000Y14361D01*
X91797Y14260D01*
X87797Y70260D02*
X87898Y70463D01*
X87797Y70666D01*
X88000Y70565D01*
X88203Y70666D01*
X88102Y70463D01*
X88203Y70260D01*
X88000Y70361D01*
X87797Y70260D01*
X89797Y66260D02*
X89898Y66463D01*
X89797Y66666D01*
X90000Y66565D01*
X90203Y66666D01*
X90102Y66463D01*
X90203Y66260D01*
X90000Y66361D01*
X89797Y66260D01*
X87797Y62260D02*
X87898Y62463D01*
X87797Y62666D01*
X88000Y62565D01*
X88203Y62666D01*
X88102Y62463D01*
X88203Y62260D01*
X88000Y62361D01*
X87797Y62260D01*
X89797Y58260D02*
X89898Y58463D01*
X89797Y58666D01*
X90000Y58565D01*
X90203Y58666D01*
X90102Y58463D01*
X90203Y58260D01*
X90000Y58361D01*
X89797Y58260D01*
X87797Y54260D02*
X87898Y54463D01*
X87797Y54666D01*
X88000Y54565D01*
X88203Y54666D01*
X88102Y54463D01*
X88203Y54260D01*
X88000Y54361D01*
X87797Y54260D01*
Y46260D02*
X87898Y46463D01*
X87797Y46666D01*
X88000Y46565D01*
X88203Y46666D01*
X88102Y46463D01*
X88203Y46260D01*
X88000Y46361D01*
X87797Y46260D01*
X89797Y42260D02*
X89898Y42463D01*
X89797Y42666D01*
X90000Y42565D01*
X90203Y42666D01*
X90102Y42463D01*
X90203Y42260D01*
X90000Y42361D01*
X89797Y42260D01*
X87797Y30260D02*
X87898Y30463D01*
X87797Y30666D01*
X88000Y30565D01*
X88203Y30666D01*
X88102Y30463D01*
X88203Y30260D01*
X88000Y30361D01*
X87797Y30260D01*
X89797Y26260D02*
X89898Y26463D01*
X89797Y26666D01*
X90000Y26565D01*
X90203Y26666D01*
X90102Y26463D01*
X90203Y26260D01*
X90000Y26361D01*
X89797Y26260D01*
Y18260D02*
X89898Y18463D01*
X89797Y18666D01*
X90000Y18565D01*
X90203Y18666D01*
X90102Y18463D01*
X90203Y18260D01*
X90000Y18361D01*
X89797Y18260D01*
X87797Y14260D02*
X87898Y14463D01*
X87797Y14666D01*
X88000Y14565D01*
X88203Y14666D01*
X88102Y14463D01*
X88203Y14260D01*
X88000Y14361D01*
X87797Y14260D01*
X83797Y70260D02*
X83898Y70463D01*
X83797Y70666D01*
X84000Y70565D01*
X84203Y70666D01*
X84102Y70463D01*
X84203Y70260D01*
X84000Y70361D01*
X83797Y70260D01*
X85797Y66260D02*
X85898Y66463D01*
X85797Y66666D01*
X86000Y66565D01*
X86203Y66666D01*
X86102Y66463D01*
X86203Y66260D01*
X86000Y66361D01*
X85797Y66260D01*
X83797Y62260D02*
X83898Y62463D01*
X83797Y62666D01*
X84000Y62565D01*
X84203Y62666D01*
X84102Y62463D01*
X84203Y62260D01*
X84000Y62361D01*
X83797Y62260D01*
Y54260D02*
X83898Y54463D01*
X83797Y54666D01*
X84000Y54565D01*
X84203Y54666D01*
X84102Y54463D01*
X84203Y54260D01*
X84000Y54361D01*
X83797Y54260D01*
X85797Y34260D02*
X85898Y34463D01*
X85797Y34666D01*
X86000Y34565D01*
X86203Y34666D01*
X86102Y34463D01*
X86203Y34260D01*
X86000Y34361D01*
X85797Y34260D01*
Y26260D02*
X85898Y26463D01*
X85797Y26666D01*
X86000Y26565D01*
X86203Y26666D01*
X86102Y26463D01*
X86203Y26260D01*
X86000Y26361D01*
X85797Y26260D01*
X83797Y22260D02*
X83898Y22463D01*
X83797Y22666D01*
X84000Y22565D01*
X84203Y22666D01*
X84102Y22463D01*
X84203Y22260D01*
X84000Y22361D01*
X83797Y22260D01*
X85797Y18260D02*
X85898Y18463D01*
X85797Y18666D01*
X86000Y18565D01*
X86203Y18666D01*
X86102Y18463D01*
X86203Y18260D01*
X86000Y18361D01*
X85797Y18260D01*
X83797Y14260D02*
X83898Y14463D01*
X83797Y14666D01*
X84000Y14565D01*
X84203Y14666D01*
X84102Y14463D01*
X84203Y14260D01*
X84000Y14361D01*
X83797Y14260D01*
X79797Y70260D02*
X79898Y70463D01*
X79797Y70666D01*
X80000Y70565D01*
X80203Y70666D01*
X80102Y70463D01*
X80203Y70260D01*
X80000Y70361D01*
X79797Y70260D01*
X81797Y66260D02*
X81898Y66463D01*
X81797Y66666D01*
X82000Y66565D01*
X82203Y66666D01*
X82102Y66463D01*
X82203Y66260D01*
X82000Y66361D01*
X81797Y66260D01*
Y58260D02*
X81898Y58463D01*
X81797Y58666D01*
X82000Y58565D01*
X82203Y58666D01*
X82102Y58463D01*
X82203Y58260D01*
X82000Y58361D01*
X81797Y58260D01*
X79797Y54260D02*
X79898Y54463D01*
X79797Y54666D01*
X80000Y54565D01*
X80203Y54666D01*
X80102Y54463D01*
X80203Y54260D01*
X80000Y54361D01*
X79797Y54260D01*
Y46260D02*
X79898Y46463D01*
X79797Y46666D01*
X80000Y46565D01*
X80203Y46666D01*
X80102Y46463D01*
X80203Y46260D01*
X80000Y46361D01*
X79797Y46260D01*
X81797Y42260D02*
X81898Y42463D01*
X81797Y42666D01*
X82000Y42565D01*
X82203Y42666D01*
X82102Y42463D01*
X82203Y42260D01*
X82000Y42361D01*
X81797Y42260D01*
X79797Y30260D02*
X79898Y30463D01*
X79797Y30666D01*
X80000Y30565D01*
X80203Y30666D01*
X80102Y30463D01*
X80203Y30260D01*
X80000Y30361D01*
X79797Y30260D01*
X81797Y18260D02*
X81898Y18463D01*
X81797Y18666D01*
X82000Y18565D01*
X82203Y18666D01*
X82102Y18463D01*
X82203Y18260D01*
X82000Y18361D01*
X81797Y18260D01*
X79797Y14260D02*
X79898Y14463D01*
X79797Y14666D01*
X80000Y14565D01*
X80203Y14666D01*
X80102Y14463D01*
X80203Y14260D01*
X80000Y14361D01*
X79797Y14260D01*
X75797Y70260D02*
X75898Y70463D01*
X75797Y70666D01*
X76000Y70565D01*
X76203Y70666D01*
X76102Y70463D01*
X76203Y70260D01*
X76000Y70361D01*
X75797Y70260D01*
Y62260D02*
X75898Y62463D01*
X75797Y62666D01*
X76000Y62565D01*
X76203Y62666D01*
X76102Y62463D01*
X76203Y62260D01*
X76000Y62361D01*
X75797Y62260D01*
X77797Y58260D02*
X77898Y58463D01*
X77797Y58666D01*
X78000Y58565D01*
X78203Y58666D01*
X78102Y58463D01*
X78203Y58260D01*
X78000Y58361D01*
X77797Y58260D01*
X75797Y46260D02*
X75898Y46463D01*
X75797Y46666D01*
X76000Y46565D01*
X76203Y46666D01*
X76102Y46463D01*
X76203Y46260D01*
X76000Y46361D01*
X75797Y46260D01*
X77797Y42260D02*
X77898Y42463D01*
X77797Y42666D01*
X78000Y42565D01*
X78203Y42666D01*
X78102Y42463D01*
X78203Y42260D01*
X78000Y42361D01*
X77797Y42260D01*
Y34260D02*
X77898Y34463D01*
X77797Y34666D01*
X78000Y34565D01*
X78203Y34666D01*
X78102Y34463D01*
X78203Y34260D01*
X78000Y34361D01*
X77797Y34260D01*
X75797Y22260D02*
X75898Y22463D01*
X75797Y22666D01*
X76000Y22565D01*
X76203Y22666D01*
X76102Y22463D01*
X76203Y22260D01*
X76000Y22361D01*
X75797Y22260D01*
X71797Y70260D02*
X71898Y70463D01*
X71797Y70666D01*
X72000Y70565D01*
X72203Y70666D01*
X72102Y70463D01*
X72203Y70260D01*
X72000Y70361D01*
X71797Y70260D01*
X73797Y66260D02*
X73898Y66463D01*
X73797Y66666D01*
X74000Y66565D01*
X74203Y66666D01*
X74102Y66463D01*
X74203Y66260D01*
X74000Y66361D01*
X73797Y66260D01*
X71797Y62260D02*
X71898Y62463D01*
X71797Y62666D01*
X72000Y62565D01*
X72203Y62666D01*
X72102Y62463D01*
X72203Y62260D01*
X72000Y62361D01*
X71797Y62260D01*
X73797Y58260D02*
X73898Y58463D01*
X73797Y58666D01*
X74000Y58565D01*
X74203Y58666D01*
X74102Y58463D01*
X74203Y58260D01*
X74000Y58361D01*
X73797Y58260D01*
Y50260D02*
X73898Y50463D01*
X73797Y50666D01*
X74000Y50565D01*
X74203Y50666D01*
X74102Y50463D01*
X74203Y50260D01*
X74000Y50361D01*
X73797Y50260D01*
X71797Y46260D02*
X71898Y46463D01*
X71797Y46666D01*
X72000Y46565D01*
X72203Y46666D01*
X72102Y46463D01*
X72203Y46260D01*
X72000Y46361D01*
X71797Y46260D01*
Y22260D02*
X71898Y22463D01*
X71797Y22666D01*
X72000Y22565D01*
X72203Y22666D01*
X72102Y22463D01*
X72203Y22260D01*
X72000Y22361D01*
X71797Y22260D01*
X67797Y70260D02*
X67898Y70463D01*
X67797Y70666D01*
X68000Y70565D01*
X68203Y70666D01*
X68102Y70463D01*
X68203Y70260D01*
X68000Y70361D01*
X67797Y70260D01*
X69797Y66260D02*
X69898Y66463D01*
X69797Y66666D01*
X70000Y66565D01*
X70203Y66666D01*
X70102Y66463D01*
X70203Y66260D01*
X70000Y66361D01*
X69797Y66260D01*
Y58260D02*
X69898Y58463D01*
X69797Y58666D01*
X70000Y58565D01*
X70203Y58666D01*
X70102Y58463D01*
X70203Y58260D01*
X70000Y58361D01*
X69797Y58260D01*
Y50260D02*
X69898Y50463D01*
X69797Y50666D01*
X70000Y50565D01*
X70203Y50666D01*
X70102Y50463D01*
X70203Y50260D01*
X70000Y50361D01*
X69797Y50260D01*
X67797Y30260D02*
X67898Y30463D01*
X67797Y30666D01*
X68000Y30565D01*
X68203Y30666D01*
X68102Y30463D01*
X68203Y30260D01*
X68000Y30361D01*
X67797Y30260D01*
X63797Y70260D02*
X63898Y70463D01*
X63797Y70666D01*
X64000Y70565D01*
X64203Y70666D01*
X64102Y70463D01*
X64203Y70260D01*
X64000Y70361D01*
X63797Y70260D01*
X65797Y66260D02*
X65898Y66463D01*
X65797Y66666D01*
X66000Y66565D01*
X66203Y66666D01*
X66102Y66463D01*
X66203Y66260D01*
X66000Y66361D01*
X65797Y66260D01*
X63797Y62260D02*
X63898Y62463D01*
X63797Y62666D01*
X64000Y62565D01*
X64203Y62666D01*
X64102Y62463D01*
X64203Y62260D01*
X64000Y62361D01*
X63797Y62260D01*
X65797Y58260D02*
X65898Y58463D01*
X65797Y58666D01*
X66000Y58565D01*
X66203Y58666D01*
X66102Y58463D01*
X66203Y58260D01*
X66000Y58361D01*
X65797Y58260D01*
Y50260D02*
X65898Y50463D01*
X65797Y50666D01*
X66000Y50565D01*
X66203Y50666D01*
X66102Y50463D01*
X66203Y50260D01*
X66000Y50361D01*
X65797Y50260D01*
X63797Y46260D02*
X63898Y46463D01*
X63797Y46666D01*
X64000Y46565D01*
X64203Y46666D01*
X64102Y46463D01*
X64203Y46260D01*
X64000Y46361D01*
X63797Y46260D01*
X65797Y42260D02*
X65898Y42463D01*
X65797Y42666D01*
X66000Y42565D01*
X66203Y42666D01*
X66102Y42463D01*
X66203Y42260D01*
X66000Y42361D01*
X65797Y42260D01*
Y34260D02*
X65898Y34463D01*
X65797Y34666D01*
X66000Y34565D01*
X66203Y34666D01*
X66102Y34463D01*
X66203Y34260D01*
X66000Y34361D01*
X65797Y34260D01*
X63797Y30260D02*
X63898Y30463D01*
X63797Y30666D01*
X64000Y30565D01*
X64203Y30666D01*
X64102Y30463D01*
X64203Y30260D01*
X64000Y30361D01*
X63797Y30260D01*
X59797Y70260D02*
X59898Y70463D01*
X59797Y70666D01*
X60000Y70565D01*
X60203Y70666D01*
X60102Y70463D01*
X60203Y70260D01*
X60000Y70361D01*
X59797Y70260D01*
X61797Y66260D02*
X61898Y66463D01*
X61797Y66666D01*
X62000Y66565D01*
X62203Y66666D01*
X62102Y66463D01*
X62203Y66260D01*
X62000Y66361D01*
X61797Y66260D01*
X59797Y62260D02*
X59898Y62463D01*
X59797Y62666D01*
X60000Y62565D01*
X60203Y62666D01*
X60102Y62463D01*
X60203Y62260D01*
X60000Y62361D01*
X59797Y62260D01*
X61797Y58260D02*
X61898Y58463D01*
X61797Y58666D01*
X62000Y58565D01*
X62203Y58666D01*
X62102Y58463D01*
X62203Y58260D01*
X62000Y58361D01*
X61797Y58260D01*
Y50260D02*
X61898Y50463D01*
X61797Y50666D01*
X62000Y50565D01*
X62203Y50666D01*
X62102Y50463D01*
X62203Y50260D01*
X62000Y50361D01*
X61797Y50260D01*
X59797Y46260D02*
X59898Y46463D01*
X59797Y46666D01*
X60000Y46565D01*
X60203Y46666D01*
X60102Y46463D01*
X60203Y46260D01*
X60000Y46361D01*
X59797Y46260D01*
X61797Y42260D02*
X61898Y42463D01*
X61797Y42666D01*
X62000Y42565D01*
X62203Y42666D01*
X62102Y42463D01*
X62203Y42260D01*
X62000Y42361D01*
X61797Y42260D01*
X59797Y30260D02*
X59898Y30463D01*
X59797Y30666D01*
X60000Y30565D01*
X60203Y30666D01*
X60102Y30463D01*
X60203Y30260D01*
X60000Y30361D01*
X59797Y30260D01*
X61797Y26260D02*
X61898Y26463D01*
X61797Y26666D01*
X62000Y26565D01*
X62203Y26666D01*
X62102Y26463D01*
X62203Y26260D01*
X62000Y26361D01*
X61797Y26260D01*
X59797Y22260D02*
X59898Y22463D01*
X59797Y22666D01*
X60000Y22565D01*
X60203Y22666D01*
X60102Y22463D01*
X60203Y22260D01*
X60000Y22361D01*
X59797Y22260D01*
X61797Y18260D02*
X61898Y18463D01*
X61797Y18666D01*
X62000Y18565D01*
X62203Y18666D01*
X62102Y18463D01*
X62203Y18260D01*
X62000Y18361D01*
X61797Y18260D01*
X59797Y14260D02*
X59898Y14463D01*
X59797Y14666D01*
X60000Y14565D01*
X60203Y14666D01*
X60102Y14463D01*
X60203Y14260D01*
X60000Y14361D01*
X59797Y14260D01*
X55797Y70260D02*
X55898Y70463D01*
X55797Y70666D01*
X56000Y70565D01*
X56203Y70666D01*
X56102Y70463D01*
X56203Y70260D01*
X56000Y70361D01*
X55797Y70260D01*
X57797Y66260D02*
X57898Y66463D01*
X57797Y66666D01*
X58000Y66565D01*
X58203Y66666D01*
X58102Y66463D01*
X58203Y66260D01*
X58000Y66361D01*
X57797Y66260D01*
Y58260D02*
X57898Y58463D01*
X57797Y58666D01*
X58000Y58565D01*
X58203Y58666D01*
X58102Y58463D01*
X58203Y58260D01*
X58000Y58361D01*
X57797Y58260D01*
X55797Y54260D02*
X55898Y54463D01*
X55797Y54666D01*
X56000Y54565D01*
X56203Y54666D01*
X56102Y54463D01*
X56203Y54260D01*
X56000Y54361D01*
X55797Y54260D01*
Y46260D02*
X55898Y46463D01*
X55797Y46666D01*
X56000Y46565D01*
X56203Y46666D01*
X56102Y46463D01*
X56203Y46260D01*
X56000Y46361D01*
X55797Y46260D01*
X57797Y42260D02*
X57898Y42463D01*
X57797Y42666D01*
X58000Y42565D01*
X58203Y42666D01*
X58102Y42463D01*
X58203Y42260D01*
X58000Y42361D01*
X57797Y42260D01*
X55797Y38260D02*
X55898Y38463D01*
X55797Y38666D01*
X56000Y38565D01*
X56203Y38666D01*
X56102Y38463D01*
X56203Y38260D01*
X56000Y38361D01*
X55797Y38260D01*
X57797Y34260D02*
X57898Y34463D01*
X57797Y34666D01*
X58000Y34565D01*
X58203Y34666D01*
X58102Y34463D01*
X58203Y34260D01*
X58000Y34361D01*
X57797Y34260D01*
X55797Y30260D02*
X55898Y30463D01*
X55797Y30666D01*
X56000Y30565D01*
X56203Y30666D01*
X56102Y30463D01*
X56203Y30260D01*
X56000Y30361D01*
X55797Y30260D01*
X57797Y26260D02*
X57898Y26463D01*
X57797Y26666D01*
X58000Y26565D01*
X58203Y26666D01*
X58102Y26463D01*
X58203Y26260D01*
X58000Y26361D01*
X57797Y26260D01*
X55797Y22260D02*
X55898Y22463D01*
X55797Y22666D01*
X56000Y22565D01*
X56203Y22666D01*
X56102Y22463D01*
X56203Y22260D01*
X56000Y22361D01*
X55797Y22260D01*
X57797Y18260D02*
X57898Y18463D01*
X57797Y18666D01*
X58000Y18565D01*
X58203Y18666D01*
X58102Y18463D01*
X58203Y18260D01*
X58000Y18361D01*
X57797Y18260D01*
X55797Y14260D02*
X55898Y14463D01*
X55797Y14666D01*
X56000Y14565D01*
X56203Y14666D01*
X56102Y14463D01*
X56203Y14260D01*
X56000Y14361D01*
X55797Y14260D01*
X51797Y70260D02*
X51898Y70463D01*
X51797Y70666D01*
X52000Y70565D01*
X52203Y70666D01*
X52102Y70463D01*
X52203Y70260D01*
X52000Y70361D01*
X51797Y70260D01*
X53797Y66260D02*
X53898Y66463D01*
X53797Y66666D01*
X54000Y66565D01*
X54203Y66666D01*
X54102Y66463D01*
X54203Y66260D01*
X54000Y66361D01*
X53797Y66260D01*
X51797Y62260D02*
X51898Y62463D01*
X51797Y62666D01*
X52000Y62565D01*
X52203Y62666D01*
X52102Y62463D01*
X52203Y62260D01*
X52000Y62361D01*
X51797Y62260D01*
X53797Y58260D02*
X53898Y58463D01*
X53797Y58666D01*
X54000Y58565D01*
X54203Y58666D01*
X54102Y58463D01*
X54203Y58260D01*
X54000Y58361D01*
X53797Y58260D01*
X51797Y54260D02*
X51898Y54463D01*
X51797Y54666D01*
X52000Y54565D01*
X52203Y54666D01*
X52102Y54463D01*
X52203Y54260D01*
X52000Y54361D01*
X51797Y54260D01*
X53797Y50260D02*
X53898Y50463D01*
X53797Y50666D01*
X54000Y50565D01*
X54203Y50666D01*
X54102Y50463D01*
X54203Y50260D01*
X54000Y50361D01*
X53797Y50260D01*
X51797Y46260D02*
X51898Y46463D01*
X51797Y46666D01*
X52000Y46565D01*
X52203Y46666D01*
X52102Y46463D01*
X52203Y46260D01*
X52000Y46361D01*
X51797Y46260D01*
X53797Y42260D02*
X53898Y42463D01*
X53797Y42666D01*
X54000Y42565D01*
X54203Y42666D01*
X54102Y42463D01*
X54203Y42260D01*
X54000Y42361D01*
X53797Y42260D01*
X51797Y38260D02*
X51898Y38463D01*
X51797Y38666D01*
X52000Y38565D01*
X52203Y38666D01*
X52102Y38463D01*
X52203Y38260D01*
X52000Y38361D01*
X51797Y38260D01*
X53797Y34260D02*
X53898Y34463D01*
X53797Y34666D01*
X54000Y34565D01*
X54203Y34666D01*
X54102Y34463D01*
X54203Y34260D01*
X54000Y34361D01*
X53797Y34260D01*
X51797Y30260D02*
X51898Y30463D01*
X51797Y30666D01*
X52000Y30565D01*
X52203Y30666D01*
X52102Y30463D01*
X52203Y30260D01*
X52000Y30361D01*
X51797Y30260D01*
X53797Y26260D02*
X53898Y26463D01*
X53797Y26666D01*
X54000Y26565D01*
X54203Y26666D01*
X54102Y26463D01*
X54203Y26260D01*
X54000Y26361D01*
X53797Y26260D01*
X51797Y22260D02*
X51898Y22463D01*
X51797Y22666D01*
X52000Y22565D01*
X52203Y22666D01*
X52102Y22463D01*
X52203Y22260D01*
X52000Y22361D01*
X51797Y22260D01*
X53797Y18260D02*
X53898Y18463D01*
X53797Y18666D01*
X54000Y18565D01*
X54203Y18666D01*
X54102Y18463D01*
X54203Y18260D01*
X54000Y18361D01*
X53797Y18260D01*
X47797Y54260D02*
X47898Y54463D01*
X47797Y54666D01*
X48000Y54565D01*
X48203Y54666D01*
X48102Y54463D01*
X48203Y54260D01*
X48000Y54361D01*
X47797Y54260D01*
X49797Y50260D02*
X49898Y50463D01*
X49797Y50666D01*
X50000Y50565D01*
X50203Y50666D01*
X50102Y50463D01*
X50203Y50260D01*
X50000Y50361D01*
X49797Y50260D01*
X47797Y46260D02*
X47898Y46463D01*
X47797Y46666D01*
X48000Y46565D01*
X48203Y46666D01*
X48102Y46463D01*
X48203Y46260D01*
X48000Y46361D01*
X47797Y46260D01*
X49797Y42260D02*
X49898Y42463D01*
X49797Y42666D01*
X50000Y42565D01*
X50203Y42666D01*
X50102Y42463D01*
X50203Y42260D01*
X50000Y42361D01*
X49797Y42260D01*
X47797Y38260D02*
X47898Y38463D01*
X47797Y38666D01*
X48000Y38565D01*
X48203Y38666D01*
X48102Y38463D01*
X48203Y38260D01*
X48000Y38361D01*
X47797Y38260D01*
X49797Y34260D02*
X49898Y34463D01*
X49797Y34666D01*
X50000Y34565D01*
X50203Y34666D01*
X50102Y34463D01*
X50203Y34260D01*
X50000Y34361D01*
X49797Y34260D01*
X47797Y30260D02*
X47898Y30463D01*
X47797Y30666D01*
X48000Y30565D01*
X48203Y30666D01*
X48102Y30463D01*
X48203Y30260D01*
X48000Y30361D01*
X47797Y30260D01*
X49797Y26260D02*
X49898Y26463D01*
X49797Y26666D01*
X50000Y26565D01*
X50203Y26666D01*
X50102Y26463D01*
X50203Y26260D01*
X50000Y26361D01*
X49797Y26260D01*
X47797Y22260D02*
X47898Y22463D01*
X47797Y22666D01*
X48000Y22565D01*
X48203Y22666D01*
X48102Y22463D01*
X48203Y22260D01*
X48000Y22361D01*
X47797Y22260D01*
X49797Y18260D02*
X49898Y18463D01*
X49797Y18666D01*
X50000Y18565D01*
X50203Y18666D01*
X50102Y18463D01*
X50203Y18260D01*
X50000Y18361D01*
X49797Y18260D01*
X43797Y70260D02*
X43898Y70463D01*
X43797Y70666D01*
X44000Y70565D01*
X44203Y70666D01*
X44102Y70463D01*
X44203Y70260D01*
X44000Y70361D01*
X43797Y70260D01*
X45797Y66260D02*
X45898Y66463D01*
X45797Y66666D01*
X46000Y66565D01*
X46203Y66666D01*
X46102Y66463D01*
X46203Y66260D01*
X46000Y66361D01*
X45797Y66260D01*
X43797Y62260D02*
X43898Y62463D01*
X43797Y62666D01*
X44000Y62565D01*
X44203Y62666D01*
X44102Y62463D01*
X44203Y62260D01*
X44000Y62361D01*
X43797Y62260D01*
X45797Y58260D02*
X45898Y58463D01*
X45797Y58666D01*
X46000Y58565D01*
X46203Y58666D01*
X46102Y58463D01*
X46203Y58260D01*
X46000Y58361D01*
X45797Y58260D01*
X43797Y54260D02*
X43898Y54463D01*
X43797Y54666D01*
X44000Y54565D01*
X44203Y54666D01*
X44102Y54463D01*
X44203Y54260D01*
X44000Y54361D01*
X43797Y54260D01*
X45797Y50260D02*
X45898Y50463D01*
X45797Y50666D01*
X46000Y50565D01*
X46203Y50666D01*
X46102Y50463D01*
X46203Y50260D01*
X46000Y50361D01*
X45797Y50260D01*
Y42260D02*
X45898Y42463D01*
X45797Y42666D01*
X46000Y42565D01*
X46203Y42666D01*
X46102Y42463D01*
X46203Y42260D01*
X46000Y42361D01*
X45797Y42260D01*
Y34260D02*
X45898Y34463D01*
X45797Y34666D01*
X46000Y34565D01*
X46203Y34666D01*
X46102Y34463D01*
X46203Y34260D01*
X46000Y34361D01*
X45797Y34260D01*
Y26260D02*
X45898Y26463D01*
X45797Y26666D01*
X46000Y26565D01*
X46203Y26666D01*
X46102Y26463D01*
X46203Y26260D01*
X46000Y26361D01*
X45797Y26260D01*
X43797Y22260D02*
X43898Y22463D01*
X43797Y22666D01*
X44000Y22565D01*
X44203Y22666D01*
X44102Y22463D01*
X44203Y22260D01*
X44000Y22361D01*
X43797Y22260D01*
X45797Y18260D02*
X45898Y18463D01*
X45797Y18666D01*
X46000Y18565D01*
X46203Y18666D01*
X46102Y18463D01*
X46203Y18260D01*
X46000Y18361D01*
X45797Y18260D01*
X43797Y14260D02*
X43898Y14463D01*
X43797Y14666D01*
X44000Y14565D01*
X44203Y14666D01*
X44102Y14463D01*
X44203Y14260D01*
X44000Y14361D01*
X43797Y14260D01*
X41797Y74260D02*
X41898Y74463D01*
X41797Y74666D01*
X42000Y74565D01*
X42203Y74666D01*
X42102Y74463D01*
X42203Y74260D01*
X42000Y74361D01*
X41797Y74260D01*
X39797Y22260D02*
X39898Y22463D01*
X39797Y22666D01*
X40000Y22565D01*
X40203Y22666D01*
X40102Y22463D01*
X40203Y22260D01*
X40000Y22361D01*
X39797Y22260D01*
X41797Y18260D02*
X41898Y18463D01*
X41797Y18666D01*
X42000Y18565D01*
X42203Y18666D01*
X42102Y18463D01*
X42203Y18260D01*
X42000Y18361D01*
X41797Y18260D01*
X39797Y14260D02*
X39898Y14463D01*
X39797Y14666D01*
X40000Y14565D01*
X40203Y14666D01*
X40102Y14463D01*
X40203Y14260D01*
X40000Y14361D01*
X39797Y14260D01*
X35797Y54260D02*
X35898Y54463D01*
X35797Y54666D01*
X36000Y54565D01*
X36203Y54666D01*
X36102Y54463D01*
X36203Y54260D01*
X36000Y54361D01*
X35797Y54260D01*
Y46260D02*
X35898Y46463D01*
X35797Y46666D01*
X36000Y46565D01*
X36203Y46666D01*
X36102Y46463D01*
X36203Y46260D01*
X36000Y46361D01*
X35797Y46260D01*
Y38260D02*
X35898Y38463D01*
X35797Y38666D01*
X36000Y38565D01*
X36203Y38666D01*
X36102Y38463D01*
X36203Y38260D01*
X36000Y38361D01*
X35797Y38260D01*
Y22260D02*
X35898Y22463D01*
X35797Y22666D01*
X36000Y22565D01*
X36203Y22666D01*
X36102Y22463D01*
X36203Y22260D01*
X36000Y22361D01*
X35797Y22260D01*
X37797Y18260D02*
X37898Y18463D01*
X37797Y18666D01*
X38000Y18565D01*
X38203Y18666D01*
X38102Y18463D01*
X38203Y18260D01*
X38000Y18361D01*
X37797Y18260D01*
X35797Y14260D02*
X35898Y14463D01*
X35797Y14666D01*
X36000Y14565D01*
X36203Y14666D01*
X36102Y14463D01*
X36203Y14260D01*
X36000Y14361D01*
X35797Y14260D01*
X31797Y30260D02*
X31898Y30463D01*
X31797Y30666D01*
X32000Y30565D01*
X32203Y30666D01*
X32102Y30463D01*
X32203Y30260D01*
X32000Y30361D01*
X31797Y30260D01*
X82221Y28979D02*
X82323Y29182D01*
X82221Y29386D01*
X82425Y29284D01*
X82628Y29386D01*
X82526Y29182D01*
X82628Y28979D01*
X82425Y29081D01*
X82221Y28979D01*
X83378Y26219D02*
X83479Y26422D01*
X83378Y26625D01*
X83581Y26523D01*
X83784Y26625D01*
X83683Y26422D01*
X83784Y26219D01*
X83581Y26320D01*
X83378Y26219D01*
X59591Y34863D02*
X59693Y35066D01*
X59591Y35270D01*
X59794Y35168D01*
X59997Y35270D01*
X59896Y35066D01*
X59997Y34863D01*
X59794Y34965D01*
X59591Y34863D01*
X61311Y29224D02*
X61413Y29427D01*
X61311Y29631D01*
X61514Y29529D01*
X61718Y29631D01*
X61616Y29427D01*
X61718Y29224D01*
X61514Y29326D01*
X61311Y29224D01*
X63397Y27138D02*
X63499Y27341D01*
X63397Y27545D01*
X63600Y27443D01*
X63804Y27545D01*
X63702Y27341D01*
X63804Y27138D01*
X63600Y27240D01*
X63397Y27138D01*
X65503Y25072D02*
X65605Y25276D01*
X65503Y25479D01*
X65707Y25377D01*
X65910Y25479D01*
X65808Y25276D01*
X65910Y25072D01*
X65707Y25174D01*
X65503Y25072D01*
X65942Y27160D02*
X66043Y27363D01*
X65942Y27566D01*
X66145Y27465D01*
X66348Y27566D01*
X66247Y27363D01*
X66348Y27160D01*
X66145Y27262D01*
X65942Y27160D01*
X63856Y29246D02*
X63957Y29449D01*
X63856Y29652D01*
X64059Y29551D01*
X64262Y29652D01*
X64160Y29449D01*
X64262Y29246D01*
X64059Y29348D01*
X63856Y29246D01*
X63268Y34613D02*
X63370Y34816D01*
X63268Y35019D01*
X63472Y34918D01*
X63675Y35019D01*
X63573Y34816D01*
X63675Y34613D01*
X63472Y34714D01*
X63268Y34613D01*
X61880Y37216D02*
X61982Y37419D01*
X61880Y37622D01*
X62084Y37521D01*
X62287Y37622D01*
X62185Y37419D01*
X62287Y37216D01*
X62084Y37318D01*
X61880Y37216D01*
X74777Y42040D02*
X74878Y42243D01*
X74777Y42446D01*
X74980Y42345D01*
X75183Y42446D01*
X75082Y42243D01*
X75183Y42040D01*
X74980Y42142D01*
X74777Y42040D01*
X72383Y40300D02*
X72484Y40503D01*
X72383Y40706D01*
X72586Y40604D01*
X72789Y40706D01*
X72688Y40503D01*
X72789Y40300D01*
X72586Y40401D01*
X72383Y40300D01*
X70209Y42293D02*
X70310Y42497D01*
X70209Y42700D01*
X70412Y42598D01*
X70615Y42700D01*
X70513Y42497D01*
X70615Y42293D01*
X70412Y42395D01*
X70209Y42293D01*
X69004Y39600D02*
X69106Y39804D01*
X69004Y40007D01*
X69207Y39905D01*
X69410Y40007D01*
X69309Y39804D01*
X69410Y39600D01*
X69207Y39702D01*
X69004Y39600D01*
Y42550D02*
X69106Y42754D01*
X69004Y42957D01*
X69207Y42855D01*
X69410Y42957D01*
X69309Y42754D01*
X69410Y42550D01*
X69207Y42652D01*
X69004Y42550D01*
Y45501D02*
X69106Y45704D01*
X69004Y45907D01*
X69207Y45805D01*
X69410Y45907D01*
X69309Y45704D01*
X69410Y45501D01*
X69207Y45602D01*
X69004Y45501D01*
Y48451D02*
X69106Y48654D01*
X69004Y48857D01*
X69207Y48756D01*
X69410Y48857D01*
X69309Y48654D01*
X69410Y48451D01*
X69207Y48552D01*
X69004Y48451D01*
X70372Y51064D02*
X70474Y51268D01*
X70372Y51471D01*
X70575Y51369D01*
X70778Y51471D01*
X70677Y51268D01*
X70778Y51064D01*
X70575Y51166D01*
X70372Y51064D01*
X65716Y51715D02*
X65818Y51918D01*
X65716Y52121D01*
X65919Y52019D01*
X66123Y52121D01*
X66021Y51918D01*
X66123Y51715D01*
X65919Y51816D01*
X65716Y51715D01*
X67189Y49159D02*
X67291Y49362D01*
X67189Y49565D01*
X67393Y49463D01*
X67596Y49565D01*
X67494Y49362D01*
X67596Y49159D01*
X67393Y49260D01*
X67189Y49159D01*
Y46209D02*
X67291Y46412D01*
X67189Y46615D01*
X67393Y46513D01*
X67596Y46615D01*
X67494Y46412D01*
X67596Y46209D01*
X67393Y46310D01*
X67189Y46209D01*
Y43258D02*
X67291Y43462D01*
X67189Y43665D01*
X67393Y43563D01*
X67596Y43665D01*
X67494Y43462D01*
X67596Y43258D01*
X67393Y43360D01*
X67189Y43258D01*
Y40308D02*
X67291Y40512D01*
X67189Y40715D01*
X67393Y40613D01*
X67596Y40715D01*
X67494Y40512D01*
X67596Y40308D01*
X67393Y40410D01*
X67189Y40308D01*
X68291Y37572D02*
X68393Y37775D01*
X68291Y37978D01*
X68494Y37877D01*
X68698Y37978D01*
X68596Y37775D01*
X68698Y37572D01*
X68494Y37673D01*
X68291Y37572D01*
X69657Y34957D02*
X69758Y35160D01*
X69657Y35363D01*
X69860Y35262D01*
X70063Y35363D01*
X69962Y35160D01*
X70063Y34957D01*
X69860Y35058D01*
X69657Y34957D01*
X70538Y32141D02*
X70639Y32344D01*
X70538Y32548D01*
X70741Y32446D01*
X70944Y32548D01*
X70842Y32344D01*
X70944Y32141D01*
X70741Y32243D01*
X70538Y32141D01*
X78435Y36528D02*
X78536Y36731D01*
X78435Y36935D01*
X78638Y36833D01*
X78841Y36935D01*
X78739Y36731D01*
X78841Y36528D01*
X78638Y36630D01*
X78435Y36528D01*
X81385D02*
X81486Y36731D01*
X81385Y36935D01*
X81588Y36833D01*
X81791Y36935D01*
X81690Y36731D01*
X81791Y36528D01*
X81588Y36630D01*
X81385Y36528D01*
X87285D02*
X87387Y36731D01*
X87285Y36935D01*
X87488Y36833D01*
X87691Y36935D01*
X87590Y36731D01*
X87691Y36528D01*
X87488Y36630D01*
X87285Y36528D01*
X90235Y36476D02*
X90336Y36679D01*
X90235Y36882D01*
X90438Y36781D01*
X90641Y36882D01*
X90539Y36679D01*
X90641Y36476D01*
X90438Y36577D01*
X90235Y36476D01*
X92321Y34390D02*
X92422Y34593D01*
X92321Y34796D01*
X92524Y34695D01*
X92727Y34796D01*
X92625Y34593D01*
X92727Y34390D01*
X92524Y34491D01*
X92321Y34390D01*
X95096Y33389D02*
X95198Y33593D01*
X95096Y33796D01*
X95299Y33694D01*
X95502Y33796D01*
X95401Y33593D01*
X95502Y33389D01*
X95299Y33491D01*
X95096Y33389D01*
X95579Y35204D02*
X95681Y35407D01*
X95579Y35611D01*
X95782Y35509D01*
X95986Y35611D01*
X95884Y35407D01*
X95986Y35204D01*
X95782Y35306D01*
X95579Y35204D01*
X92881Y36396D02*
X92982Y36599D01*
X92881Y36803D01*
X93084Y36701D01*
X93287Y36803D01*
X93185Y36599D01*
X93287Y36396D01*
X93084Y36498D01*
X92881Y36396D01*
X90654Y38332D02*
X90756Y38535D01*
X90654Y38738D01*
X90858Y38637D01*
X91061Y38738D01*
X90959Y38535D01*
X91061Y38332D01*
X90858Y38433D01*
X90654Y38332D01*
X87704Y38343D02*
X87806Y38546D01*
X87704Y38749D01*
X87907Y38648D01*
X88111Y38749D01*
X88009Y38546D01*
X88111Y38343D01*
X87907Y38444D01*
X87704Y38343D01*
X81804D02*
X81906Y38546D01*
X81804Y38749D01*
X82007Y38648D01*
X82210Y38749D01*
X82109Y38546D01*
X82210Y38343D01*
X82007Y38444D01*
X81804Y38343D01*
X78854D02*
X78956Y38546D01*
X78854Y38749D01*
X79057Y38648D01*
X79260Y38749D01*
X79159Y38546D01*
X79260Y38343D01*
X79057Y38444D01*
X78854Y38343D01*
X76591Y40236D02*
X76693Y40439D01*
X76591Y40642D01*
X76795Y40541D01*
X76998Y40642D01*
X76896Y40439D01*
X76998Y40236D01*
X76795Y40338D01*
X76591Y40236D01*
X76423Y43181D02*
X76524Y43385D01*
X76423Y43588D01*
X76626Y43486D01*
X76829Y43588D01*
X76727Y43385D01*
X76829Y43181D01*
X76626Y43283D01*
X76423Y43181D01*
X74554Y45464D02*
X74656Y45667D01*
X74554Y45871D01*
X74757Y45769D01*
X74960Y45871D01*
X74859Y45667D01*
X74960Y45464D01*
X74757Y45566D01*
X74554Y45464D01*
X76751Y47433D02*
X76853Y47636D01*
X76751Y47839D01*
X76954Y47738D01*
X77158Y47839D01*
X77056Y47636D01*
X77158Y47433D01*
X76954Y47535D01*
X76751Y47433D01*
X73391Y53621D02*
X73493Y53825D01*
X73391Y54028D01*
X73594Y53926D01*
X73797Y54028D01*
X73696Y53825D01*
X73797Y53621D01*
X73594Y53723D01*
X73391Y53621D01*
X61880Y54516D02*
X61982Y54719D01*
X61880Y54922D01*
X62084Y54821D01*
X62287Y54922D01*
X62185Y54719D01*
X62287Y54516D01*
X62084Y54618D01*
X61880Y54516D01*
X73929Y49424D02*
X74031Y49627D01*
X73929Y49830D01*
X74133Y49729D01*
X74336Y49830D01*
X74234Y49627D01*
X74336Y49424D01*
X74133Y49525D01*
X73929Y49424D01*
X71581Y19672D02*
X71683Y19875D01*
X71581Y20078D01*
X71784Y19977D01*
X71987Y20078D01*
X71886Y19875D01*
X71987Y19672D01*
X71784Y19773D01*
X71581Y19672D01*
X76597Y29647D02*
X76698Y29850D01*
X76597Y30053D01*
X76800Y29952D01*
X77003Y30053D01*
X76902Y29850D01*
X77003Y29647D01*
X76800Y29748D01*
X76597Y29647D01*
X74563Y32970D02*
X74665Y33174D01*
X74563Y33377D01*
X74767Y33275D01*
X74970Y33377D01*
X74868Y33174D01*
X74970Y32970D01*
X74767Y33072D01*
X74563Y32970D01*
X71487Y32047D02*
X71589Y32250D01*
X71487Y32453D01*
X71691Y32352D01*
X71894Y32453D01*
X71792Y32250D01*
X71894Y32047D01*
X71691Y32148D01*
X71487Y32047D01*
X63697Y22997D02*
X63798Y23200D01*
X63697Y23403D01*
X63900Y23302D01*
X64103Y23403D01*
X64002Y23200D01*
X64103Y22997D01*
X63900Y23098D01*
X63697Y22997D01*
X63522Y19947D02*
X63623Y20150D01*
X63522Y20353D01*
X63725Y20252D01*
X63928Y20353D01*
X63827Y20150D01*
X63928Y19947D01*
X63725Y20048D01*
X63522Y19947D01*
X66372Y22697D02*
X66473Y22900D01*
X66372Y23103D01*
X66575Y23002D01*
X66778Y23103D01*
X66677Y22900D01*
X66778Y22697D01*
X66575Y22798D01*
X66372Y22697D01*
X62047Y22351D02*
X62148Y22554D01*
X62047Y22757D01*
X62250Y22656D01*
X62453Y22757D01*
X62352Y22554D01*
X62453Y22351D01*
X62250Y22452D01*
X62047Y22351D01*
X81622Y34647D02*
X81723Y34850D01*
X81622Y35053D01*
X81825Y34952D01*
X82028Y35053D01*
X81927Y34850D01*
X82028Y34647D01*
X81825Y34748D01*
X81622Y34647D01*
X81972Y23302D02*
X82073Y23506D01*
X81972Y23709D01*
X82175Y23607D01*
X82378Y23709D01*
X82277Y23506D01*
X82378Y23302D01*
X82175Y23404D01*
X81972Y23302D01*
X81101Y33022D02*
X81202Y33225D01*
X81101Y33428D01*
X81304Y33327D01*
X81507Y33428D01*
X81406Y33225D01*
X81507Y33022D01*
X81304Y33123D01*
X81101Y33022D01*
X82797Y33022D02*
X82898Y33225D01*
X82797Y33428D01*
X83000Y33327D01*
X83203Y33428D01*
X83102Y33225D01*
X83203Y33022D01*
X83000Y33123D01*
X82797Y33022D01*
X68497Y26422D02*
X68598Y26625D01*
X68497Y26828D01*
X68700Y26727D01*
X68903Y26828D01*
X68802Y26625D01*
X68903Y26422D01*
X68700Y26523D01*
X68497Y26422D01*
X69622Y26372D02*
X69723Y26575D01*
X69622Y26778D01*
X69825Y26677D01*
X70028Y26778D01*
X69927Y26575D01*
X70028Y26372D01*
X69825Y26474D01*
X69622Y26372D01*
X70331Y41345D02*
X70433Y41549D01*
X70331Y41752D01*
X70534Y41650D01*
X70737Y41752D01*
X70636Y41549D01*
X70737Y41345D01*
X70534Y41447D01*
X70331Y41345D01*
X74538Y38770D02*
X74640Y38974D01*
X74538Y39177D01*
X74742Y39075D01*
X74945Y39177D01*
X74843Y38974D01*
X74945Y38770D01*
X74742Y38872D01*
X74538Y38770D01*
X73434Y43095D02*
X73535Y43299D01*
X73434Y43502D01*
X73637Y43400D01*
X73840Y43502D01*
X73739Y43299D01*
X73840Y43095D01*
X73637Y43197D01*
X73434Y43095D01*
X77647Y18197D02*
X77748Y18400D01*
X77647Y18603D01*
X77850Y18502D01*
X78053Y18603D01*
X77952Y18400D01*
X78053Y18197D01*
X77850Y18298D01*
X77647Y18197D01*
X62797Y15818D02*
X62898Y16021D01*
X62797Y16224D01*
X63000Y16123D01*
X63203Y16224D01*
X63102Y16021D01*
X63203Y15818D01*
X63000Y15919D01*
X62797Y15818D01*
X61122Y15172D02*
X61223Y15375D01*
X61122Y15578D01*
X61325Y15477D01*
X61528Y15578D01*
X61427Y15375D01*
X61528Y15172D01*
X61325Y15273D01*
X61122Y15172D01*
X79047Y20797D02*
X79148Y21000D01*
X79047Y21203D01*
X79250Y21102D01*
X79453Y21203D01*
X79352Y21000D01*
X79453Y20797D01*
X79250Y20898D01*
X79047Y20797D01*
X66372Y16847D02*
X66473Y17050D01*
X66372Y17253D01*
X66575Y17152D01*
X66778Y17253D01*
X66677Y17050D01*
X66778Y16847D01*
X66575Y16948D01*
X66372Y16847D01*
X93598Y49472D02*
X93700Y49675D01*
X93598Y49878D01*
X93802Y49777D01*
X94005Y49878D01*
X93903Y49675D01*
X94005Y49472D01*
X93802Y49573D01*
X93598Y49472D01*
X92947Y51597D02*
X93048Y51800D01*
X92947Y52003D01*
X93150Y51902D01*
X93353Y52003D01*
X93252Y51800D01*
X93353Y51597D01*
X93150Y51698D01*
X92947Y51597D01*
X84372Y29547D02*
X84474Y29750D01*
X84372Y29953D01*
X84575Y29852D01*
X84778Y29953D01*
X84677Y29750D01*
X84778Y29547D01*
X84575Y29648D01*
X84372Y29547D01*
X75947Y26022D02*
X76048Y26225D01*
X75947Y26428D01*
X76150Y26327D01*
X76353Y26428D01*
X76252Y26225D01*
X76353Y26022D01*
X76150Y26123D01*
X75947Y26022D01*
X79272Y23572D02*
X79373Y23775D01*
X79272Y23978D01*
X79475Y23877D01*
X79678Y23978D01*
X79577Y23775D01*
X79678Y23572D01*
X79475Y23673D01*
X79272Y23572D01*
X74697Y30247D02*
X74798Y30450D01*
X74697Y30653D01*
X74900Y30552D01*
X75103Y30653D01*
X75002Y30450D01*
X75103Y30247D01*
X74900Y30348D01*
X74697Y30247D01*
X34047Y67022D02*
X34148Y67225D01*
X34047Y67428D01*
X34250Y67327D01*
X34453Y67428D01*
X34352Y67225D01*
X34453Y67022D01*
X34250Y67123D01*
X34047Y67022D01*
X35247Y66997D02*
X35348Y67200D01*
X35247Y67403D01*
X35450Y67302D01*
X35653Y67403D01*
X35552Y67200D01*
X35653Y66997D01*
X35450Y67098D01*
X35247Y66997D01*
X35422Y69497D02*
X35523Y69700D01*
X35422Y69903D01*
X35625Y69802D01*
X35828Y69903D01*
X35727Y69700D01*
X35828Y69497D01*
X35625Y69598D01*
X35422Y69497D01*
X34022D02*
X34123Y69700D01*
X34022Y69903D01*
X34225Y69802D01*
X34428Y69903D01*
X34327Y69700D01*
X34428Y69497D01*
X34225Y69598D01*
X34022Y69497D01*
X112947Y72372D02*
X113048Y72575D01*
X112947Y72778D01*
X113150Y72677D01*
X113353Y72778D01*
X113252Y72575D01*
X113353Y72372D01*
X113150Y72473D01*
X112947Y72372D01*
X113922Y69797D02*
X114023Y70000D01*
X113922Y70203D01*
X114125Y70102D01*
X114328Y70203D01*
X114227Y70000D01*
X114328Y69797D01*
X114125Y69898D01*
X113922Y69797D01*
X112147Y69822D02*
X112248Y70025D01*
X112147Y70228D01*
X112350Y70127D01*
X112553Y70228D01*
X112452Y70025D01*
X112553Y69822D01*
X112350Y69923D01*
X112147Y69822D01*
X113847Y67297D02*
X113948Y67500D01*
X113847Y67703D01*
X114050Y67602D01*
X114253Y67703D01*
X114152Y67500D01*
X114253Y67297D01*
X114050Y67398D01*
X113847Y67297D01*
X112472D02*
X112573Y67500D01*
X112472Y67703D01*
X112675Y67602D01*
X112878Y67703D01*
X112777Y67500D01*
X112878Y67297D01*
X112675Y67398D01*
X112472Y67297D01*
X87197Y22422D02*
X87298Y22625D01*
X87197Y22828D01*
X87400Y22727D01*
X87603Y22828D01*
X87502Y22625D01*
X87603Y22422D01*
X87400Y22523D01*
X87197Y22422D01*
X84347Y50197D02*
X84448Y50400D01*
X84347Y50603D01*
X84550Y50502D01*
X84753Y50603D01*
X84651Y50400D01*
X84753Y50197D01*
X84550Y50298D01*
X84347Y50197D01*
X92672Y71147D02*
X92773Y71350D01*
X92672Y71553D01*
X92875Y71452D01*
X93078Y71553D01*
X92977Y71350D01*
X93078Y71147D01*
X92875Y71248D01*
X92672Y71147D01*
X75597Y51022D02*
X75698Y51225D01*
X75597Y51428D01*
X75800Y51327D01*
X76003Y51428D01*
X75901Y51225D01*
X76003Y51022D01*
X75800Y51123D01*
X75597Y51022D01*
X84326Y53722D02*
X84427Y53925D01*
X84326Y54128D01*
X84529Y54027D01*
X84732Y54128D01*
X84631Y53925D01*
X84732Y53722D01*
X84529Y53823D01*
X84326Y53722D01*
X85247Y59097D02*
X85348Y59300D01*
X85247Y59503D01*
X85450Y59402D01*
X85653Y59503D01*
X85552Y59300D01*
X85653Y59097D01*
X85450Y59198D01*
X85247Y59097D01*
X93447Y53722D02*
X93548Y53925D01*
X93447Y54128D01*
X93650Y54027D01*
X93853Y54128D01*
X93752Y53925D01*
X93853Y53722D01*
X93650Y53823D01*
X93447Y53722D01*
X75597Y54547D02*
X75698Y54750D01*
X75597Y54953D01*
X75800Y54852D01*
X76003Y54953D01*
X75901Y54750D01*
X76003Y54547D01*
X75800Y54648D01*
X75597Y54547D01*
X80447Y18197D02*
X80548Y18400D01*
X80447Y18603D01*
X80650Y18502D01*
X80853Y18603D01*
X80752Y18400D01*
X80853Y18197D01*
X80650Y18298D01*
X80447Y18197D01*
X51822Y16447D02*
X51923Y16650D01*
X51822Y16853D01*
X52025Y16752D01*
X52228Y16853D01*
X52127Y16650D01*
X52228Y16447D01*
X52025Y16548D01*
X51822Y16447D01*
X56572Y62072D02*
X56673Y62275D01*
X56572Y62478D01*
X56775Y62377D01*
X56978Y62478D01*
X56877Y62275D01*
X56978Y62072D01*
X56775Y62173D01*
X56572Y62072D01*
X68297Y56422D02*
X68398Y56625D01*
X68297Y56828D01*
X68500Y56727D01*
X68703Y56828D01*
X68602Y56625D01*
X68703Y56422D01*
X68500Y56523D01*
X68297Y56422D01*
X82247Y49022D02*
X82348Y49225D01*
X82247Y49428D01*
X82450Y49327D01*
X82653Y49428D01*
X82552Y49225D01*
X82653Y49022D01*
X82450Y49123D01*
X82247Y49022D01*
X60522Y16727D02*
X60623Y16930D01*
X60522Y17134D01*
X60725Y17032D01*
X60928Y17134D01*
X60827Y16930D01*
X60928Y16727D01*
X60725Y16829D01*
X60522Y16727D01*
X71572Y15547D02*
X71673Y15750D01*
X71572Y15953D01*
X71775Y15852D01*
X71978Y15953D01*
X71877Y15750D01*
X71978Y15547D01*
X71775Y15648D01*
X71572Y15547D01*
X69912Y19151D02*
X70013Y19354D01*
X69912Y19557D01*
X70115Y19456D01*
X70318Y19557D01*
X70217Y19354D01*
X70318Y19151D01*
X70115Y19252D01*
X69912Y19151D01*
X72797Y49797D02*
X72898Y50000D01*
X72797Y50203D01*
X73000Y50102D01*
X73203Y50203D01*
X73102Y50000D01*
X73203Y49797D01*
X73000Y49898D01*
X72797Y49797D01*
X83872Y47268D02*
X83973Y47471D01*
X83872Y47674D01*
X84075Y47573D01*
X84278Y47674D01*
X84176Y47471D01*
X84278Y47268D01*
X84075Y47369D01*
X83872Y47268D01*
X79597Y47072D02*
X79698Y47275D01*
X79597Y47478D01*
X79800Y47377D01*
X80003Y47478D01*
X79902Y47275D01*
X80003Y47072D01*
X79800Y47173D01*
X79597Y47072D01*
X82247Y46822D02*
X82348Y47025D01*
X82247Y47228D01*
X82450Y47127D01*
X82653Y47228D01*
X82552Y47025D01*
X82653Y46822D01*
X82450Y46923D01*
X82247Y46822D01*
X86097Y47486D02*
X86198Y47689D01*
X86097Y47892D01*
X86300Y47790D01*
X86503Y47892D01*
X86401Y47689D01*
X86503Y47486D01*
X86300Y47587D01*
X86097Y47486D01*
X79572Y52897D02*
X79673Y53100D01*
X79572Y53303D01*
X79775Y53202D01*
X79978Y53303D01*
X79877Y53100D01*
X79978Y52897D01*
X79775Y52998D01*
X79572Y52897D01*
X89197Y49997D02*
X89298Y50200D01*
X89197Y50403D01*
X89400Y50302D01*
X89603Y50403D01*
X89502Y50200D01*
X89603Y49997D01*
X89400Y50098D01*
X89197Y49997D01*
X67597Y54597D02*
X67698Y54800D01*
X67597Y55003D01*
X67800Y54902D01*
X68003Y55003D01*
X67902Y54800D01*
X68003Y54597D01*
X67800Y54698D01*
X67597Y54597D01*
X71047Y53273D02*
X71148Y53476D01*
X71047Y53680D01*
X71250Y53578D01*
X71453Y53680D01*
X71352Y53476D01*
X71453Y53273D01*
X71250Y53375D01*
X71047Y53273D01*
X71647Y54872D02*
X71748Y55075D01*
X71647Y55278D01*
X71850Y55177D01*
X72053Y55278D01*
X71952Y55075D01*
X72053Y54872D01*
X71850Y54973D01*
X71647Y54872D01*
X66986Y51272D02*
X67088Y51475D01*
X66986Y51678D01*
X67189Y51577D01*
X67392Y51678D01*
X67291Y51475D01*
X67392Y51272D01*
X67189Y51373D01*
X66986Y51272D01*
X71647Y50372D02*
X71748Y50575D01*
X71647Y50778D01*
X71850Y50677D01*
X72053Y50778D01*
X71952Y50575D01*
X72053Y50372D01*
X71850Y50473D01*
X71647Y50372D01*
X106772Y25972D02*
X106873Y26175D01*
X106772Y26378D01*
X106975Y26277D01*
X107178Y26378D01*
X107077Y26175D01*
X107178Y25972D01*
X106975Y26073D01*
X106772Y25972D01*
X107725Y25987D02*
X107827Y26190D01*
X107725Y26393D01*
X107929Y26292D01*
X108132Y26393D01*
X108030Y26190D01*
X108132Y25987D01*
X107929Y26088D01*
X107725Y25987D01*
X100772Y62522D02*
X100873Y62726D01*
X100772Y62929D01*
X100975Y62827D01*
X101178Y62929D01*
X101077Y62726D01*
X101178Y62522D01*
X100975Y62624D01*
X100772Y62522D01*
Y63397D02*
X100873Y63600D01*
X100772Y63803D01*
X100975Y63702D01*
X101178Y63803D01*
X101077Y63600D01*
X101178Y63397D01*
X100975Y63498D01*
X100772Y63397D01*
X107728Y28527D02*
X107830Y28730D01*
X107728Y28933D01*
X107931Y28832D01*
X108135Y28933D01*
X108033Y28730D01*
X108135Y28527D01*
X107931Y28628D01*
X107728Y28527D01*
X106147Y63897D02*
X106248Y64100D01*
X106147Y64303D01*
X106350Y64202D01*
X106553Y64303D01*
X106452Y64100D01*
X106553Y63897D01*
X106350Y63998D01*
X106147Y63897D01*
X108047Y62972D02*
X108148Y63175D01*
X108047Y63378D01*
X108250Y63277D01*
X108453Y63378D01*
X108352Y63175D01*
X108453Y62972D01*
X108250Y63073D01*
X108047Y62972D01*
X108797Y32122D02*
X108898Y32325D01*
X108797Y32528D01*
X109000Y32427D01*
X109203Y32528D01*
X109102Y32325D01*
X109203Y32122D01*
X109000Y32223D01*
X108797Y32122D01*
X109426Y34672D02*
X109527Y34875D01*
X109426Y35078D01*
X109629Y34977D01*
X109832Y35078D01*
X109731Y34875D01*
X109832Y34672D01*
X109629Y34773D01*
X109426Y34672D01*
X110347Y62547D02*
X110448Y62750D01*
X110347Y62953D01*
X110550Y62852D01*
X110753Y62953D01*
X110652Y62750D01*
X110753Y62547D01*
X110550Y62648D01*
X110347Y62547D01*
X39841Y33607D02*
X39943Y33810D01*
X39841Y34013D01*
X40044Y33912D01*
X40248Y34013D01*
X40146Y33810D01*
X40248Y33607D01*
X40044Y33708D01*
X39841Y33607D01*
X40696Y25996D02*
X40797Y26199D01*
X40696Y26402D01*
X40899Y26300D01*
X41102Y26402D01*
X41000Y26199D01*
X41102Y25996D01*
X40899Y26097D01*
X40696Y25996D01*
X39832Y31067D02*
X39933Y31270D01*
X39832Y31473D01*
X40035Y31372D01*
X40238Y31473D01*
X40136Y31270D01*
X40238Y31067D01*
X40035Y31168D01*
X39832Y31067D01*
X39816Y28527D02*
X39918Y28730D01*
X39816Y28933D01*
X40020Y28832D01*
X40223Y28933D01*
X40121Y28730D01*
X40223Y28527D01*
X40020Y28628D01*
X39816Y28527D01*
X35981Y33607D02*
X36083Y33810D01*
X35981Y34013D01*
X36184Y33912D01*
X36388Y34013D01*
X36286Y33810D01*
X36388Y33607D01*
X36184Y33708D01*
X35981Y33607D01*
X42422Y61906D02*
X42523Y62109D01*
X42422Y62312D01*
X42625Y62211D01*
X42828Y62312D01*
X42727Y62109D01*
X42828Y61906D01*
X42625Y62007D01*
X42422Y61906D01*
X43072Y60157D02*
X43174Y60361D01*
X43072Y60564D01*
X43275Y60462D01*
X43479Y60564D01*
X43377Y60361D01*
X43479Y60157D01*
X43275Y60259D01*
X43072Y60157D01*
X39819Y65987D02*
X39921Y66190D01*
X39819Y66393D01*
X40022Y66292D01*
X40225Y66393D01*
X40124Y66190D01*
X40225Y65987D01*
X40022Y66088D01*
X39819Y65987D01*
X40687D02*
X40788Y66190D01*
X40687Y66393D01*
X40890Y66292D01*
X41093Y66393D01*
X40992Y66190D01*
X41093Y65987D01*
X40890Y66088D01*
X40687Y65987D01*
X63580Y75132D02*
X63682Y75335D01*
X63580Y75538D01*
X63784Y75437D01*
X63987Y75538D01*
X63885Y75335D01*
X63987Y75132D01*
X63784Y75234D01*
X63580Y75132D01*
X66968Y64013D02*
X67069Y64216D01*
X66968Y64419D01*
X67171Y64318D01*
X67374Y64419D01*
X67273Y64216D01*
X67374Y64013D01*
X67171Y64114D01*
X66968Y64013D01*
X80362Y67539D02*
X80463Y67742D01*
X80362Y67945D01*
X80565Y67843D01*
X80768Y67945D01*
X80666Y67742D01*
X80768Y67539D01*
X80565Y67640D01*
X80362Y67539D01*
X58194Y77452D02*
X58296Y77655D01*
X58194Y77858D01*
X58398Y77757D01*
X58601Y77858D01*
X58499Y77655D01*
X58601Y77452D01*
X58398Y77554D01*
X58194Y77452D01*
X58172Y75189D02*
X58273Y75392D01*
X58172Y75595D01*
X58375Y75493D01*
X58578Y75595D01*
X58477Y75392D01*
X58578Y75189D01*
X58375Y75290D01*
X58172Y75189D01*
Y72572D02*
X58273Y72775D01*
X58172Y72978D01*
X58375Y72877D01*
X58578Y72978D01*
X58477Y72775D01*
X58578Y72572D01*
X58375Y72673D01*
X58172Y72572D01*
X63580Y76622D02*
X63682Y76825D01*
X63580Y77028D01*
X63784Y76927D01*
X63987Y77028D01*
X63885Y76825D01*
X63987Y76622D01*
X63784Y76723D01*
X63580Y76622D01*
X63578Y72572D02*
X63680Y72775D01*
X63578Y72978D01*
X63781Y72877D01*
X63984Y72978D01*
X63883Y72775D01*
X63984Y72572D01*
X63781Y72673D01*
X63578Y72572D01*
X68984Y73722D02*
X69086Y73925D01*
X68984Y74128D01*
X69188Y74027D01*
X69391Y74128D01*
X69289Y73925D01*
X69391Y73722D01*
X69188Y73823D01*
X68984Y73722D01*
X74391Y74512D02*
X74492Y74715D01*
X74391Y74918D01*
X74594Y74817D01*
X74797Y74918D01*
X74695Y74715D01*
X74797Y74512D01*
X74594Y74613D01*
X74391Y74512D01*
X45542Y67539D02*
X45644Y67742D01*
X45542Y67945D01*
X45746Y67843D01*
X45949Y67945D01*
X45847Y67742D01*
X45949Y67539D01*
X45746Y67640D01*
X45542Y67539D01*
X44578D02*
X44680Y67742D01*
X44578Y67945D01*
X44781Y67843D01*
X44985Y67945D01*
X44883Y67742D01*
X44985Y67539D01*
X44781Y67640D01*
X44578Y67539D01*
X50347Y62053D02*
X50448Y62256D01*
X50347Y62459D01*
X50550Y62357D01*
X50753Y62459D01*
X50652Y62256D01*
X50753Y62053D01*
X50550Y62154D01*
X50347Y62053D01*
X67868Y64013D02*
X67969Y64216D01*
X67868Y64419D01*
X68071Y64318D01*
X68274Y64419D01*
X68173Y64216D01*
X68274Y64013D01*
X68071Y64114D01*
X67868Y64013D01*
X79022Y63872D02*
X79123Y64075D01*
X79022Y64278D01*
X79225Y64177D01*
X79428Y64278D01*
X79327Y64075D01*
X79428Y63872D01*
X79225Y63973D01*
X79022Y63872D01*
X65497Y65013D02*
X65598Y65217D01*
X65497Y65420D01*
X65700Y65318D01*
X65903Y65420D01*
X65801Y65217D01*
X65903Y65013D01*
X65700Y65115D01*
X65497Y65013D01*
X64268Y64997D02*
X64369Y65200D01*
X64268Y65403D01*
X64471Y65302D01*
X64674Y65403D01*
X64572Y65200D01*
X64674Y64997D01*
X64471Y65098D01*
X64268Y64997D01*
X67368Y61822D02*
X67469Y62025D01*
X67368Y62228D01*
X67571Y62127D01*
X67774Y62228D01*
X67673Y62025D01*
X67774Y61822D01*
X67571Y61923D01*
X67368Y61822D01*
X66793Y60422D02*
X66894Y60625D01*
X66793Y60828D01*
X66996Y60727D01*
X67199Y60828D01*
X67098Y60625D01*
X67199Y60422D01*
X66996Y60523D01*
X66793Y60422D01*
X78372Y66447D02*
X78473Y66650D01*
X78372Y66853D01*
X78575Y66752D01*
X78778Y66853D01*
X78677Y66650D01*
X78778Y66447D01*
X78575Y66548D01*
X78372Y66447D01*
X77522D02*
X77623Y66650D01*
X77522Y66853D01*
X77725Y66752D01*
X77928Y66853D01*
X77827Y66650D01*
X77928Y66447D01*
X77725Y66548D01*
X77522Y66447D01*
X79772Y62447D02*
X79873Y62650D01*
X79772Y62853D01*
X79975Y62752D01*
X80178Y62853D01*
X80077Y62650D01*
X80178Y62447D01*
X79975Y62548D01*
X79772Y62447D01*
X101647Y67539D02*
X101748Y67742D01*
X101647Y67945D01*
X101850Y67843D01*
X102053Y67945D01*
X101952Y67742D01*
X102053Y67539D01*
X101850Y67640D01*
X101647Y67539D01*
X100772D02*
X100873Y67742D01*
X100772Y67945D01*
X100975Y67843D01*
X101178Y67945D01*
X101077Y67742D01*
X101178Y67539D01*
X100975Y67640D01*
X100772Y67539D01*
X50347Y62847D02*
X50448Y63050D01*
X50347Y63253D01*
X50550Y63152D01*
X50753Y63253D01*
X50652Y63050D01*
X50753Y62847D01*
X50550Y62948D01*
X50347Y62847D01*
X41736Y63944D02*
X41837Y64147D01*
X41736Y64351D01*
X41939Y64249D01*
X42142Y64351D01*
X42040Y64147D01*
X42142Y63944D01*
X41939Y64046D01*
X41736Y63944D01*
X111563Y33607D02*
X111665Y33810D01*
X111563Y34013D01*
X111767Y33912D01*
X111970Y34013D01*
X111868Y33810D01*
X111970Y33607D01*
X111767Y33708D01*
X111563Y33607D01*
X107728Y69047D02*
X107830Y69250D01*
X107728Y69453D01*
X107931Y69352D01*
X108135Y69453D01*
X108033Y69250D01*
X108135Y69047D01*
X107931Y69148D01*
X107728Y69047D01*
X114314Y25987D02*
X114415Y26190D01*
X114314Y26393D01*
X114517Y26292D01*
X114720Y26393D01*
X114619Y26190D01*
X114720Y25987D01*
X114517Y26088D01*
X114314Y25987D01*
Y28527D02*
X114415Y28730D01*
X114314Y28933D01*
X114517Y28832D01*
X114720Y28933D01*
X114619Y28730D01*
X114720Y28527D01*
X114517Y28628D01*
X114314Y28527D01*
X39832Y71067D02*
X39933Y71270D01*
X39832Y71473D01*
X40035Y71372D01*
X40238Y71473D01*
X40136Y71270D01*
X40238Y71067D01*
X40035Y71168D01*
X39832Y71067D01*
X111513Y25987D02*
X111614Y26190D01*
X111513Y26393D01*
X111716Y26292D01*
X111919Y26393D01*
X111817Y26190D01*
X111919Y25987D01*
X111716Y26088D01*
X111513Y25987D01*
X111535Y31067D02*
X111637Y31270D01*
X111535Y31473D01*
X111739Y31372D01*
X111942Y31473D01*
X111840Y31270D01*
X111942Y31067D01*
X111739Y31168D01*
X111535Y31067D01*
X111527Y28527D02*
X111629Y28730D01*
X111527Y28933D01*
X111730Y28832D01*
X111933Y28933D01*
X111832Y28730D01*
X111933Y28527D01*
X111730Y28628D01*
X111527Y28527D01*
X107713Y71587D02*
X107814Y71790D01*
X107713Y71993D01*
X107916Y71892D01*
X108119Y71993D01*
X108018Y71790D01*
X108119Y71587D01*
X107916Y71688D01*
X107713Y71587D01*
X111563Y74127D02*
X111665Y74330D01*
X111563Y74533D01*
X111767Y74432D01*
X111970Y74533D01*
X111868Y74330D01*
X111970Y74127D01*
X111767Y74228D01*
X111563Y74127D01*
X39816Y68527D02*
X39918Y68730D01*
X39816Y68933D01*
X40020Y68832D01*
X40223Y68933D01*
X40121Y68730D01*
X40223Y68527D01*
X40020Y68628D01*
X39816Y68527D01*
X35981Y73607D02*
X36083Y73810D01*
X35981Y74013D01*
X36184Y73912D01*
X36388Y74013D01*
X36286Y73810D01*
X36388Y73607D01*
X36184Y73708D01*
X35981Y73607D01*
X36009Y71067D02*
X36111Y71270D01*
X36009Y71473D01*
X36212Y71372D01*
X36415Y71473D01*
X36314Y71270D01*
X36415Y71067D01*
X36212Y71168D01*
X36009Y71067D01*
X32807Y28527D02*
X32908Y28730D01*
X32807Y28933D01*
X33010Y28832D01*
X33213Y28933D01*
X33112Y28730D01*
X33213Y28527D01*
X33010Y28628D01*
X32807Y28527D01*
Y25987D02*
X32908Y26190D01*
X32807Y26393D01*
X33010Y26292D01*
X33213Y26393D01*
X33112Y26190D01*
X33213Y25987D01*
X33010Y26088D01*
X32807Y25987D01*
X36018Y28527D02*
X36119Y28730D01*
X36018Y28933D01*
X36221Y28832D01*
X36424Y28933D01*
X36322Y28730D01*
X36424Y28527D01*
X36221Y28628D01*
X36018Y28527D01*
X36009Y31067D02*
X36111Y31270D01*
X36009Y31473D01*
X36212Y31372D01*
X36415Y31473D01*
X36314Y31270D01*
X36415Y31067D01*
X36212Y31168D01*
X36009Y31067D01*
X36032Y25987D02*
X36133Y26190D01*
X36032Y26393D01*
X36235Y26292D01*
X36438Y26393D01*
X36337Y26190D01*
X36438Y25987D01*
X36235Y26088D01*
X36032Y25987D01*
X39819D02*
X39921Y26190D01*
X39819Y26393D01*
X40022Y26292D01*
X40225Y26393D01*
X40124Y26190D01*
X40225Y25987D01*
X40022Y26088D01*
X39819Y25987D01*
X79794Y72572D02*
X79896Y72775D01*
X79794Y72978D01*
X79997Y72877D01*
X80201Y72978D01*
X80099Y72775D01*
X80201Y72572D01*
X79997Y72673D01*
X79794Y72572D01*
X106822Y66497D02*
X106923Y66700D01*
X106822Y66903D01*
X107025Y66802D01*
X107228Y66903D01*
X107127Y66700D01*
X107228Y66497D01*
X107025Y66598D01*
X106822Y66497D01*
X107725Y66507D02*
X107827Y66710D01*
X107725Y66913D01*
X107929Y66812D01*
X108132Y66913D01*
X108030Y66710D01*
X108132Y66507D01*
X107929Y66608D01*
X107725Y66507D01*
D74*
X61878Y35525D02*
G03*
X61878Y35525I-203J0D01*
G01*
Y52825D02*
G03*
X61878Y52825I-203J0D01*
G01*
X100353Y34500D02*
G03*
X100353Y34500I-203J0D01*
G01*
M02*
