G04*
G04 #@! TF.GenerationSoftware,Altium Limited,Altium Designer,23.0.1 (38)*
G04*
G04 Layer_Color=8421504*
%FSLAX43Y43*%
%MOMM*%
G71*
G04*
G04 #@! TF.SameCoordinates,C917657F-03F6-454C-AC05-0521F369B23B*
G04*
G04*
G04 #@! TF.FilePolarity,Positive*
G04*
G01*
G75*
%ADD15R,0.900X0.800*%
%ADD16R,0.500X0.500*%
%ADD17R,1.000X2.000*%
%ADD18R,0.650X2.000*%
%ADD19R,2.000X1.000*%
%ADD20R,2.000X0.650*%
%ADD21R,0.500X0.500*%
%ADD22R,0.950X1.400*%
%ADD23R,1.400X0.950*%
%ADD24O,0.350X0.850*%
%ADD25R,0.900X0.400*%
G04:AMPARAMS|DCode=26|XSize=1mm|YSize=2mm|CornerRadius=0.25mm|HoleSize=0mm|Usage=FLASHONLY|Rotation=270.000|XOffset=0mm|YOffset=0mm|HoleType=Round|Shape=RoundedRectangle|*
%AMROUNDEDRECTD26*
21,1,1.000,1.500,0,0,270.0*
21,1,0.500,2.000,0,0,270.0*
1,1,0.500,-0.750,-0.250*
1,1,0.500,-0.750,0.250*
1,1,0.500,0.750,0.250*
1,1,0.500,0.750,-0.250*
%
%ADD26ROUNDEDRECTD26*%
G04:AMPARAMS|DCode=27|XSize=1mm|YSize=2.5mm|CornerRadius=0.25mm|HoleSize=0mm|Usage=FLASHONLY|Rotation=270.000|XOffset=0mm|YOffset=0mm|HoleType=Round|Shape=RoundedRectangle|*
%AMROUNDEDRECTD27*
21,1,1.000,2.000,0,0,270.0*
21,1,0.500,2.500,0,0,270.0*
1,1,0.500,-1.000,-0.250*
1,1,0.500,-1.000,0.250*
1,1,0.500,1.000,0.250*
1,1,0.500,1.000,-0.250*
%
%ADD27ROUNDEDRECTD27*%
%ADD28R,1.050X2.200*%
%ADD29R,1.000X1.000*%
%ADD30R,0.900X0.900*%
%ADD31R,2.200X1.050*%
%ADD32R,1.000X1.000*%
D15*
X73634Y40599D02*
D03*
Y42499D02*
D03*
X71634Y41549D02*
D03*
D16*
X73642Y39257D02*
D03*
X72742D02*
D03*
X81250Y34850D02*
D03*
X80350D02*
D03*
X74892Y32524D02*
D03*
X75892D02*
D03*
X80575Y23506D02*
D03*
X81575D02*
D03*
X71101Y37639D02*
D03*
X72101D02*
D03*
X87175Y51800D02*
D03*
X88075D02*
D03*
X73850Y48650D02*
D03*
X74750D02*
D03*
X68400Y54800D02*
D03*
X69400D02*
D03*
X69400Y56025D02*
D03*
X68500D02*
D03*
X62250Y20150D02*
D03*
X63150D02*
D03*
X63000Y18400D02*
D03*
X63900D02*
D03*
X69150Y62025D02*
D03*
X68150D02*
D03*
X77625Y64075D02*
D03*
X78625D02*
D03*
D17*
X75887Y37639D02*
D03*
X73637Y34439D02*
D03*
Y37639D02*
D03*
X75887Y34439D02*
D03*
X78325Y25075D02*
D03*
X80575Y28275D02*
D03*
Y25075D02*
D03*
X78325Y28275D02*
D03*
X80925Y51800D02*
D03*
X78675Y48600D02*
D03*
Y51800D02*
D03*
X80925Y48600D02*
D03*
X65450Y18400D02*
D03*
X67700Y21600D02*
D03*
Y18400D02*
D03*
X65450Y21600D02*
D03*
D18*
X74762Y37639D02*
D03*
Y34439D02*
D03*
X79450Y25075D02*
D03*
Y28275D02*
D03*
X79800Y51800D02*
D03*
Y48600D02*
D03*
X66575Y18400D02*
D03*
Y21600D02*
D03*
D19*
X71691Y27310D02*
D03*
X74891Y25060D02*
D03*
X71691D02*
D03*
X74891Y27310D02*
D03*
D20*
X71691Y26185D02*
D03*
X74891D02*
D03*
D21*
X69825Y26000D02*
D03*
Y25100D02*
D03*
X68700Y26125D02*
D03*
Y25125D02*
D03*
X67642Y26048D02*
D03*
Y25148D02*
D03*
X72077Y34439D02*
D03*
Y35339D02*
D03*
X70841D02*
D03*
Y34439D02*
D03*
X74900Y29850D02*
D03*
Y28850D02*
D03*
X76800Y29250D02*
D03*
Y28250D02*
D03*
X84575Y29175D02*
D03*
Y28275D02*
D03*
X83375Y28275D02*
D03*
Y27375D02*
D03*
X82150Y28275D02*
D03*
Y27275D02*
D03*
X82450Y48625D02*
D03*
Y47625D02*
D03*
X89400Y51800D02*
D03*
Y50800D02*
D03*
X85700Y48650D02*
D03*
Y47750D02*
D03*
X77117Y48617D02*
D03*
Y49617D02*
D03*
X75925Y48667D02*
D03*
Y49567D02*
D03*
X71850Y54475D02*
D03*
Y53475D02*
D03*
X69150Y63694D02*
D03*
Y64593D02*
D03*
X76325Y66675D02*
D03*
Y67575D02*
D03*
X63900Y22600D02*
D03*
Y21600D02*
D03*
X71784Y18400D02*
D03*
Y19300D02*
D03*
X71775Y16325D02*
D03*
Y17225D02*
D03*
X61325Y15975D02*
D03*
Y16975D02*
D03*
D22*
X80350Y33225D02*
D03*
X82200D02*
D03*
D23*
X84075Y46575D02*
D03*
Y48425D02*
D03*
X78154Y65892D02*
D03*
Y67742D02*
D03*
X70115Y18400D02*
D03*
Y20250D02*
D03*
X62250Y21600D02*
D03*
Y23450D02*
D03*
X63000Y16975D02*
D03*
Y15125D02*
D03*
X67616Y63450D02*
D03*
Y65300D02*
D03*
D24*
X71200Y49975D02*
D03*
X71850D02*
D03*
X72500D02*
D03*
X71200Y52175D02*
D03*
X71850D02*
D03*
X72500D02*
D03*
D25*
X69400Y53475D02*
D03*
Y52175D02*
D03*
X67200D02*
D03*
Y52825D02*
D03*
Y53475D02*
D03*
D26*
X38349Y33810D02*
D03*
Y31270D02*
D03*
Y28730D02*
D03*
Y26190D02*
D03*
X34851D02*
D03*
Y28730D02*
D03*
Y31270D02*
D03*
Y33810D02*
D03*
X38349Y73810D02*
D03*
Y71270D02*
D03*
Y68730D02*
D03*
Y66190D02*
D03*
X34851D02*
D03*
Y68730D02*
D03*
Y71270D02*
D03*
Y73810D02*
D03*
D27*
X113300Y33810D02*
D03*
Y31270D02*
D03*
Y28730D02*
D03*
Y26190D02*
D03*
X109602Y33810D02*
D03*
Y31270D02*
D03*
Y28730D02*
D03*
Y26190D02*
D03*
X113300Y74330D02*
D03*
Y71790D02*
D03*
Y69250D02*
D03*
Y66710D02*
D03*
X109602Y74330D02*
D03*
Y71790D02*
D03*
Y69250D02*
D03*
Y66710D02*
D03*
D28*
X77850Y18400D02*
D03*
X80650D02*
D03*
X73091Y30650D02*
D03*
X70291D02*
D03*
D29*
X79250Y19900D02*
D03*
X71691Y29150D02*
D03*
D30*
X79200Y62650D02*
D03*
X77800D02*
D03*
X67750Y60625D02*
D03*
X69150D02*
D03*
D31*
X93650Y50400D02*
D03*
Y53200D02*
D03*
X84550Y50400D02*
D03*
Y53200D02*
D03*
X75800Y51225D02*
D03*
Y54025D02*
D03*
D32*
X92150Y51800D02*
D03*
X83050Y51800D02*
D03*
X74300Y52625D02*
D03*
M02*
