G04*
G04 #@! TF.GenerationSoftware,Altium Limited,Altium Designer,23.0.1 (38)*
G04*
G04 Layer_Color=65535*
%FSLAX43Y43*%
%MOMM*%
G71*
G04*
G04 #@! TF.SameCoordinates,C917657F-03F6-454C-AC05-0521F369B23B*
G04*
G04*
G04 #@! TF.FilePolarity,Positive*
G04*
G01*
G75*
%ADD10C,0.250*%
%ADD11C,0.254*%
%ADD12C,0.200*%
%ADD13C,0.152*%
%ADD14C,0.152*%
G36*
X66204Y41665D02*
Y39589D01*
X57145D01*
Y41665D01*
Y43436D01*
X66204D01*
Y41665D01*
D02*
G37*
G36*
X95535Y22413D02*
X95415D01*
Y22550D01*
X95535D01*
Y22413D01*
D02*
G37*
G36*
X96072Y22296D02*
X96088Y22295D01*
X96106Y22292D01*
X96126Y22288D01*
X96147Y22282D01*
X96166Y22274D01*
X96169Y22272D01*
X96175Y22269D01*
X96185Y22265D01*
X96196Y22258D01*
X96210Y22250D01*
X96223Y22238D01*
X96236Y22227D01*
X96247Y22213D01*
X96248Y22212D01*
X96251Y22206D01*
X96255Y22199D01*
X96262Y22189D01*
X96268Y22175D01*
X96274Y22161D01*
X96281Y22144D01*
X96285Y22126D01*
Y22124D01*
X96286Y22119D01*
X96288Y22110D01*
X96289Y22099D01*
Y22082D01*
X96291Y22062D01*
X96292Y22038D01*
Y22009D01*
Y21574D01*
X96172D01*
Y22003D01*
Y22004D01*
Y22006D01*
Y22016D01*
Y22028D01*
X96171Y22044D01*
X96169Y22062D01*
X96166Y22081D01*
X96162Y22097D01*
X96158Y22113D01*
Y22114D01*
X96155Y22119D01*
X96151Y22126D01*
X96147Y22134D01*
X96140Y22143D01*
X96131Y22152D01*
X96120Y22162D01*
X96107Y22171D01*
X96106Y22172D01*
X96102Y22175D01*
X96093Y22178D01*
X96083Y22182D01*
X96072Y22186D01*
X96058Y22191D01*
X96041Y22192D01*
X96024Y22193D01*
X96017D01*
X96011Y22192D01*
X95997Y22191D01*
X95979Y22188D01*
X95959Y22181D01*
X95937Y22172D01*
X95914Y22161D01*
X95893Y22144D01*
X95890Y22141D01*
X95885Y22134D01*
X95880Y22128D01*
X95876Y22121D01*
X95870Y22113D01*
X95866Y22103D01*
X95861Y22092D01*
X95855Y22078D01*
X95851Y22062D01*
X95846Y22045D01*
X95844Y22027D01*
X95841Y22007D01*
X95838Y21983D01*
Y21959D01*
Y21574D01*
X95718D01*
Y22282D01*
X95825D01*
Y22181D01*
X95827Y22182D01*
X95830Y22186D01*
X95834Y22192D01*
X95839Y22199D01*
X95848Y22207D01*
X95858Y22217D01*
X95869Y22229D01*
X95883Y22240D01*
X95897Y22250D01*
X95914Y22261D01*
X95932Y22271D01*
X95952Y22279D01*
X95975Y22286D01*
X95997Y22292D01*
X96023Y22296D01*
X96049Y22298D01*
X96061D01*
X96072Y22296D01*
D02*
G37*
G36*
X100321D02*
X100336Y22293D01*
X100355Y22288D01*
X100374Y22281D01*
X100397Y22271D01*
X100421Y22258D01*
X100377Y22148D01*
X100376Y22150D01*
X100370Y22152D01*
X100362Y22157D01*
X100350Y22161D01*
X100338Y22165D01*
X100322Y22169D01*
X100307Y22172D01*
X100291Y22174D01*
X100284D01*
X100277Y22172D01*
X100267Y22171D01*
X100257Y22168D01*
X100245Y22164D01*
X100232Y22158D01*
X100221Y22150D01*
X100219Y22148D01*
X100215Y22145D01*
X100211Y22140D01*
X100204Y22133D01*
X100197Y22123D01*
X100190Y22112D01*
X100183Y22099D01*
X100177Y22083D01*
X100176Y22081D01*
X100174Y22072D01*
X100171Y22059D01*
X100167Y22043D01*
X100163Y22021D01*
X100160Y21997D01*
X100159Y21972D01*
X100157Y21944D01*
Y21574D01*
X100038D01*
Y22282D01*
X100146D01*
Y22175D01*
X100147Y22176D01*
X100153Y22186D01*
X100160Y22199D01*
X100171Y22214D01*
X100183Y22230D01*
X100195Y22247D01*
X100208Y22261D01*
X100221Y22272D01*
X100222Y22274D01*
X100226Y22277D01*
X100235Y22281D01*
X100243Y22285D01*
X100255Y22289D01*
X100269Y22293D01*
X100283Y22296D01*
X100298Y22298D01*
X100308D01*
X100321Y22296D01*
D02*
G37*
G36*
X97640Y21574D02*
X97510D01*
Y22034D01*
X97005D01*
Y21574D01*
X96876D01*
Y22550D01*
X97005D01*
Y22150D01*
X97510D01*
Y22550D01*
X97640D01*
Y21574D01*
D02*
G37*
G36*
X93454Y22154D02*
X93881Y21574D01*
X93711D01*
X93364Y22066D01*
X93205Y21913D01*
Y21574D01*
X93075D01*
Y22550D01*
X93205D01*
Y22065D01*
X93687Y22550D01*
X93863D01*
X93454Y22154D01*
D02*
G37*
G36*
X95039Y21574D02*
X94925D01*
X94658Y22282D01*
X94785D01*
X94937Y21858D01*
Y21856D01*
X94939Y21855D01*
X94940Y21851D01*
X94941Y21847D01*
X94946Y21832D01*
X94951Y21814D01*
X94958Y21793D01*
X94967Y21769D01*
X94974Y21742D01*
X94982Y21715D01*
X94984Y21718D01*
X94985Y21725D01*
X94989Y21737D01*
X94994Y21754D01*
X95001Y21772D01*
X95008Y21796D01*
X95018Y21821D01*
X95027Y21849D01*
X95184Y22282D01*
X95308D01*
X95039Y21574D01*
D02*
G37*
G36*
X98908Y21563D02*
Y21562D01*
X98907Y21558D01*
X98904Y21552D01*
X98901Y21545D01*
X98897Y21535D01*
X98893Y21524D01*
X98883Y21500D01*
X98873Y21473D01*
X98862Y21446D01*
X98851Y21422D01*
X98845Y21412D01*
X98841Y21403D01*
X98839Y21400D01*
X98835Y21393D01*
X98828Y21383D01*
X98820Y21370D01*
X98808Y21356D01*
X98796Y21342D01*
X98783Y21328D01*
X98767Y21317D01*
X98766Y21315D01*
X98760Y21312D01*
X98752Y21308D01*
X98739Y21302D01*
X98725Y21297D01*
X98708Y21293D01*
X98690Y21290D01*
X98669Y21288D01*
X98663D01*
X98656Y21290D01*
X98646D01*
X98635Y21293D01*
X98622Y21295D01*
X98608Y21298D01*
X98593Y21304D01*
X98580Y21415D01*
X98581D01*
X98587Y21414D01*
X98594Y21412D01*
X98602Y21410D01*
X98625Y21405D01*
X98648Y21404D01*
X98655D01*
X98662Y21405D01*
X98670D01*
X98691Y21410D01*
X98701Y21414D01*
X98711Y21418D01*
X98712D01*
X98715Y21421D01*
X98719Y21424D01*
X98725Y21428D01*
X98738Y21439D01*
X98749Y21455D01*
Y21456D01*
X98752Y21459D01*
X98755Y21465D01*
X98757Y21473D01*
X98763Y21484D01*
X98769Y21501D01*
X98777Y21521D01*
X98786Y21545D01*
Y21546D01*
X98789Y21552D01*
X98791Y21562D01*
X98797Y21574D01*
X98529Y22282D01*
X98656D01*
X98804Y21872D01*
Y21871D01*
X98805Y21869D01*
X98807Y21865D01*
X98808Y21858D01*
X98811Y21851D01*
X98814Y21842D01*
X98821Y21823D01*
X98829Y21799D01*
X98838Y21770D01*
X98846Y21741D01*
X98855Y21708D01*
Y21710D01*
X98856Y21713D01*
X98858Y21717D01*
X98859Y21723D01*
X98860Y21730D01*
X98863Y21738D01*
X98869Y21759D01*
X98876Y21783D01*
X98886Y21811D01*
X98894Y21840D01*
X98906Y21869D01*
X99058Y22282D01*
X99178D01*
X98908Y21563D01*
D02*
G37*
G36*
X95535Y21574D02*
X95415D01*
Y22282D01*
X95535D01*
Y21574D01*
D02*
G37*
G36*
X99593Y22296D02*
X99605Y22295D01*
X99619Y22292D01*
X99634Y22289D01*
X99653Y22285D01*
X99670Y22281D01*
X99689Y22274D01*
X99708Y22267D01*
X99727Y22257D01*
X99747Y22246D01*
X99767Y22233D01*
X99785Y22217D01*
X99802Y22200D01*
X99803Y22199D01*
X99806Y22196D01*
X99811Y22191D01*
X99816Y22182D01*
X99823Y22172D01*
X99830Y22161D01*
X99839Y22147D01*
X99847Y22130D01*
X99856Y22112D01*
X99864Y22092D01*
X99871Y22069D01*
X99878Y22045D01*
X99884Y22019D01*
X99888Y21990D01*
X99891Y21961D01*
X99892Y21928D01*
Y21927D01*
Y21921D01*
Y21911D01*
X99891Y21897D01*
X99362D01*
Y21896D01*
Y21892D01*
X99364Y21886D01*
Y21878D01*
X99365Y21868D01*
X99368Y21856D01*
X99372Y21831D01*
X99381Y21803D01*
X99392Y21772D01*
X99407Y21744D01*
X99427Y21718D01*
X99429D01*
X99430Y21715D01*
X99438Y21708D01*
X99451Y21699D01*
X99468Y21689D01*
X99491Y21677D01*
X99516Y21668D01*
X99544Y21660D01*
X99560Y21659D01*
X99577Y21658D01*
X99588D01*
X99601Y21659D01*
X99616Y21662D01*
X99633Y21666D01*
X99653Y21672D01*
X99671Y21680D01*
X99689Y21691D01*
X99691Y21693D01*
X99698Y21699D01*
X99706Y21707D01*
X99716Y21718D01*
X99727Y21734D01*
X99740Y21754D01*
X99753Y21776D01*
X99764Y21803D01*
X99888Y21787D01*
Y21786D01*
X99887Y21783D01*
X99885Y21777D01*
X99882Y21769D01*
X99878Y21761D01*
X99874Y21749D01*
X99863Y21725D01*
X99849Y21699D01*
X99829Y21670D01*
X99806Y21644D01*
X99778Y21618D01*
X99777D01*
X99774Y21615D01*
X99770Y21613D01*
X99764Y21608D01*
X99756Y21604D01*
X99747Y21600D01*
X99736Y21594D01*
X99723Y21589D01*
X99709Y21583D01*
X99695Y21577D01*
X99660Y21569D01*
X99620Y21562D01*
X99577Y21559D01*
X99561D01*
X99551Y21560D01*
X99538Y21562D01*
X99523Y21565D01*
X99506Y21567D01*
X99488Y21570D01*
X99448Y21582D01*
X99427Y21590D01*
X99407Y21598D01*
X99386Y21610D01*
X99366Y21622D01*
X99348Y21637D01*
X99330Y21653D01*
X99328Y21655D01*
X99326Y21658D01*
X99321Y21663D01*
X99316Y21672D01*
X99309Y21682D01*
X99302Y21693D01*
X99293Y21707D01*
X99285Y21723D01*
X99276Y21741D01*
X99268Y21761D01*
X99261Y21783D01*
X99254Y21807D01*
X99248Y21832D01*
X99244Y21861D01*
X99241Y21890D01*
X99240Y21921D01*
Y21923D01*
Y21930D01*
Y21938D01*
X99241Y21951D01*
X99242Y21966D01*
X99244Y21983D01*
X99247Y22003D01*
X99251Y22023D01*
X99262Y22068D01*
X99269Y22090D01*
X99278Y22114D01*
X99289Y22137D01*
X99302Y22158D01*
X99316Y22179D01*
X99331Y22199D01*
X99333Y22200D01*
X99335Y22203D01*
X99341Y22207D01*
X99348Y22214D01*
X99357Y22222D01*
X99368Y22230D01*
X99381Y22240D01*
X99396Y22248D01*
X99412Y22258D01*
X99430Y22267D01*
X99450Y22275D01*
X99471Y22282D01*
X99493Y22289D01*
X99517Y22293D01*
X99543Y22296D01*
X99569Y22298D01*
X99584D01*
X99593Y22296D01*
D02*
G37*
G36*
X98153D02*
X98164Y22295D01*
X98178Y22292D01*
X98194Y22289D01*
X98212Y22285D01*
X98229Y22281D01*
X98249Y22274D01*
X98267Y22267D01*
X98287Y22257D01*
X98306Y22246D01*
X98326Y22233D01*
X98344Y22217D01*
X98361Y22200D01*
X98363Y22199D01*
X98366Y22196D01*
X98370Y22191D01*
X98375Y22182D01*
X98383Y22172D01*
X98390Y22161D01*
X98398Y22147D01*
X98406Y22130D01*
X98415Y22112D01*
X98423Y22092D01*
X98430Y22069D01*
X98438Y22045D01*
X98443Y22019D01*
X98447Y21990D01*
X98450Y21961D01*
X98452Y21928D01*
Y21927D01*
Y21921D01*
Y21911D01*
X98450Y21897D01*
X97922D01*
Y21896D01*
Y21892D01*
X97923Y21886D01*
Y21878D01*
X97924Y21868D01*
X97927Y21856D01*
X97931Y21831D01*
X97940Y21803D01*
X97951Y21772D01*
X97967Y21744D01*
X97986Y21718D01*
X97988D01*
X97989Y21715D01*
X97998Y21708D01*
X98010Y21699D01*
X98027Y21689D01*
X98050Y21677D01*
X98075Y21668D01*
X98103Y21660D01*
X98119Y21659D01*
X98136Y21658D01*
X98147D01*
X98160Y21659D01*
X98175Y21662D01*
X98192Y21666D01*
X98212Y21672D01*
X98230Y21680D01*
X98249Y21691D01*
X98250Y21693D01*
X98257Y21699D01*
X98266Y21707D01*
X98275Y21718D01*
X98287Y21734D01*
X98299Y21754D01*
X98312Y21776D01*
X98323Y21803D01*
X98447Y21787D01*
Y21786D01*
X98446Y21783D01*
X98445Y21777D01*
X98442Y21769D01*
X98438Y21761D01*
X98433Y21749D01*
X98422Y21725D01*
X98408Y21699D01*
X98388Y21670D01*
X98366Y21644D01*
X98337Y21618D01*
X98336D01*
X98333Y21615D01*
X98329Y21613D01*
X98323Y21608D01*
X98315Y21604D01*
X98306Y21600D01*
X98295Y21594D01*
X98282Y21589D01*
X98268Y21583D01*
X98254Y21577D01*
X98219Y21569D01*
X98180Y21562D01*
X98136Y21559D01*
X98120D01*
X98110Y21560D01*
X98098Y21562D01*
X98082Y21565D01*
X98065Y21567D01*
X98047Y21570D01*
X98008Y21582D01*
X97986Y21590D01*
X97967Y21598D01*
X97946Y21610D01*
X97926Y21622D01*
X97907Y21637D01*
X97889Y21653D01*
X97888Y21655D01*
X97885Y21658D01*
X97881Y21663D01*
X97875Y21672D01*
X97868Y21682D01*
X97861Y21693D01*
X97852Y21707D01*
X97844Y21723D01*
X97836Y21741D01*
X97827Y21761D01*
X97820Y21783D01*
X97813Y21807D01*
X97807Y21832D01*
X97803Y21861D01*
X97800Y21890D01*
X97799Y21921D01*
Y21923D01*
Y21930D01*
Y21938D01*
X97800Y21951D01*
X97802Y21966D01*
X97803Y21983D01*
X97806Y22003D01*
X97810Y22023D01*
X97821Y22068D01*
X97829Y22090D01*
X97837Y22114D01*
X97848Y22137D01*
X97861Y22158D01*
X97875Y22179D01*
X97891Y22199D01*
X97892Y22200D01*
X97895Y22203D01*
X97900Y22207D01*
X97907Y22214D01*
X97916Y22222D01*
X97927Y22230D01*
X97940Y22240D01*
X97955Y22248D01*
X97971Y22258D01*
X97989Y22267D01*
X98009Y22275D01*
X98030Y22282D01*
X98053Y22289D01*
X98077Y22293D01*
X98102Y22296D01*
X98129Y22298D01*
X98143D01*
X98153Y22296D01*
D02*
G37*
G36*
X94287D02*
X94299Y22295D01*
X94313Y22292D01*
X94328Y22289D01*
X94347Y22285D01*
X94363Y22281D01*
X94383Y22274D01*
X94402Y22267D01*
X94421Y22257D01*
X94441Y22246D01*
X94461Y22233D01*
X94479Y22217D01*
X94496Y22200D01*
X94497Y22199D01*
X94500Y22196D01*
X94504Y22191D01*
X94510Y22182D01*
X94517Y22172D01*
X94524Y22161D01*
X94533Y22147D01*
X94541Y22130D01*
X94550Y22112D01*
X94558Y22092D01*
X94565Y22069D01*
X94572Y22045D01*
X94578Y22019D01*
X94582Y21990D01*
X94585Y21961D01*
X94586Y21928D01*
Y21927D01*
Y21921D01*
Y21911D01*
X94585Y21897D01*
X94056D01*
Y21896D01*
Y21892D01*
X94058Y21886D01*
Y21878D01*
X94059Y21868D01*
X94062Y21856D01*
X94066Y21831D01*
X94074Y21803D01*
X94086Y21772D01*
X94101Y21744D01*
X94121Y21718D01*
X94122D01*
X94124Y21715D01*
X94132Y21708D01*
X94145Y21699D01*
X94162Y21689D01*
X94184Y21677D01*
X94210Y21668D01*
X94238Y21660D01*
X94254Y21659D01*
X94270Y21658D01*
X94282D01*
X94294Y21659D01*
X94310Y21662D01*
X94327Y21666D01*
X94347Y21672D01*
X94365Y21680D01*
X94383Y21691D01*
X94385Y21693D01*
X94392Y21699D01*
X94400Y21707D01*
X94410Y21718D01*
X94421Y21734D01*
X94434Y21754D01*
X94447Y21776D01*
X94458Y21803D01*
X94582Y21787D01*
Y21786D01*
X94581Y21783D01*
X94579Y21777D01*
X94576Y21769D01*
X94572Y21761D01*
X94568Y21749D01*
X94557Y21725D01*
X94543Y21699D01*
X94523Y21670D01*
X94500Y21644D01*
X94472Y21618D01*
X94471D01*
X94468Y21615D01*
X94464Y21613D01*
X94458Y21608D01*
X94449Y21604D01*
X94441Y21600D01*
X94430Y21594D01*
X94417Y21589D01*
X94403Y21583D01*
X94389Y21577D01*
X94354Y21569D01*
X94314Y21562D01*
X94270Y21559D01*
X94255D01*
X94245Y21560D01*
X94232Y21562D01*
X94217Y21565D01*
X94200Y21567D01*
X94182Y21570D01*
X94142Y21582D01*
X94121Y21590D01*
X94101Y21598D01*
X94080Y21610D01*
X94060Y21622D01*
X94042Y21637D01*
X94024Y21653D01*
X94022Y21655D01*
X94020Y21658D01*
X94015Y21663D01*
X94010Y21672D01*
X94003Y21682D01*
X93996Y21693D01*
X93987Y21707D01*
X93979Y21723D01*
X93970Y21741D01*
X93962Y21761D01*
X93955Y21783D01*
X93948Y21807D01*
X93942Y21832D01*
X93938Y21861D01*
X93935Y21890D01*
X93934Y21921D01*
Y21923D01*
Y21930D01*
Y21938D01*
X93935Y21951D01*
X93936Y21966D01*
X93938Y21983D01*
X93941Y22003D01*
X93945Y22023D01*
X93956Y22068D01*
X93963Y22090D01*
X93972Y22114D01*
X93983Y22137D01*
X93996Y22158D01*
X94010Y22179D01*
X94025Y22199D01*
X94027Y22200D01*
X94029Y22203D01*
X94035Y22207D01*
X94042Y22214D01*
X94051Y22222D01*
X94062Y22230D01*
X94074Y22240D01*
X94090Y22248D01*
X94105Y22258D01*
X94124Y22267D01*
X94144Y22275D01*
X94165Y22282D01*
X94187Y22289D01*
X94211Y22293D01*
X94237Y22296D01*
X94263Y22298D01*
X94277D01*
X94287Y22296D01*
D02*
G37*
G36*
X96788Y20625D02*
X97153Y20113D01*
X96994D01*
X96747Y20460D01*
X96746Y20462D01*
X96743Y20466D01*
X96740Y20472D01*
X96735Y20479D01*
X96722Y20498D01*
X96708Y20519D01*
X96706Y20518D01*
X96702Y20512D01*
X96697Y20504D01*
X96689Y20493D01*
X96674Y20470D01*
X96667Y20460D01*
X96661Y20452D01*
X96415Y20113D01*
X96260D01*
X96636Y20618D01*
X96303Y21089D01*
X96457D01*
X96634Y20838D01*
Y20837D01*
X96637Y20835D01*
X96640Y20831D01*
X96644Y20825D01*
X96653Y20811D01*
X96666Y20794D01*
X96678Y20775D01*
X96691Y20755D01*
X96702Y20737D01*
X96712Y20720D01*
X96713Y20722D01*
X96718Y20728D01*
X96725Y20739D01*
X96735Y20753D01*
X96746Y20769D01*
X96760Y20789D01*
X96774Y20808D01*
X96791Y20830D01*
X96986Y21089D01*
X97126D01*
X96788Y20625D01*
D02*
G37*
G36*
X93587Y20113D02*
X93451D01*
X93074Y21089D01*
X93215D01*
X93468Y20380D01*
Y20378D01*
X93470Y20376D01*
X93471Y20371D01*
X93474Y20366D01*
X93475Y20357D01*
X93478Y20349D01*
X93485Y20328D01*
X93494Y20304D01*
X93502Y20277D01*
X93519Y20221D01*
Y20222D01*
X93520Y20225D01*
X93522Y20229D01*
X93523Y20235D01*
X93528Y20250D01*
X93535Y20271D01*
X93542Y20295D01*
X93550Y20322D01*
X93560Y20350D01*
X93571Y20380D01*
X93836Y21089D01*
X93967D01*
X93587Y20113D01*
D02*
G37*
G36*
X96135D02*
X95999D01*
Y20250D01*
X96135D01*
Y20113D01*
D02*
G37*
G36*
X94998D02*
X94861D01*
Y20250D01*
X94998D01*
Y20113D01*
D02*
G37*
G36*
X95519Y21092D02*
X95538Y21089D01*
X95559Y21085D01*
X95581Y21079D01*
X95605Y21072D01*
X95628Y21061D01*
X95629D01*
X95631Y21059D01*
X95638Y21055D01*
X95649Y21048D01*
X95663Y21038D01*
X95679Y21024D01*
X95696Y21009D01*
X95711Y20990D01*
X95727Y20969D01*
X95728Y20966D01*
X95734Y20959D01*
X95739Y20947D01*
X95749Y20928D01*
X95758Y20907D01*
X95769Y20883D01*
X95779Y20855D01*
X95787Y20824D01*
Y20823D01*
X95789Y20820D01*
X95790Y20816D01*
X95791Y20808D01*
X95793Y20800D01*
X95794Y20790D01*
X95797Y20777D01*
X95799Y20763D01*
X95801Y20748D01*
X95803Y20731D01*
X95804Y20711D01*
X95807Y20691D01*
X95808Y20669D01*
Y20646D01*
X95810Y20621D01*
Y20594D01*
Y20593D01*
Y20587D01*
Y20577D01*
Y20566D01*
X95808Y20550D01*
Y20534D01*
X95807Y20515D01*
X95806Y20496D01*
X95801Y20450D01*
X95794Y20404D01*
X95786Y20359D01*
X95780Y20338D01*
X95773Y20316D01*
Y20315D01*
X95772Y20312D01*
X95769Y20307D01*
X95766Y20300D01*
X95763Y20290D01*
X95758Y20280D01*
X95746Y20256D01*
X95732Y20230D01*
X95714Y20202D01*
X95693Y20177D01*
X95667Y20153D01*
X95666D01*
X95665Y20150D01*
X95660Y20147D01*
X95655Y20144D01*
X95648Y20140D01*
X95641Y20135D01*
X95620Y20125D01*
X95594Y20115D01*
X95565Y20105D01*
X95529Y20099D01*
X95491Y20097D01*
X95477D01*
X95467Y20098D01*
X95456Y20099D01*
X95442Y20102D01*
X95426Y20105D01*
X95409Y20109D01*
X95393Y20115D01*
X95374Y20121D01*
X95356Y20129D01*
X95338Y20139D01*
X95319Y20150D01*
X95301Y20164D01*
X95284Y20180D01*
X95268Y20197D01*
X95267Y20198D01*
X95264Y20202D01*
X95260Y20209D01*
X95253Y20221D01*
X95246Y20233D01*
X95239Y20250D01*
X95229Y20270D01*
X95221Y20293D01*
X95212Y20318D01*
X95204Y20347D01*
X95195Y20380D01*
X95188Y20417D01*
X95181Y20456D01*
X95177Y20498D01*
X95174Y20545D01*
X95173Y20594D01*
Y20596D01*
Y20601D01*
Y20611D01*
Y20622D01*
X95174Y20638D01*
Y20655D01*
X95175Y20673D01*
X95177Y20694D01*
X95181Y20738D01*
X95188Y20784D01*
X95197Y20831D01*
X95202Y20852D01*
X95208Y20873D01*
Y20875D01*
X95209Y20878D01*
X95212Y20883D01*
X95215Y20890D01*
X95218Y20900D01*
X95223Y20910D01*
X95235Y20934D01*
X95249Y20959D01*
X95267Y20986D01*
X95288Y21013D01*
X95314Y21035D01*
X95315D01*
X95316Y21038D01*
X95321Y21041D01*
X95326Y21044D01*
X95333Y21050D01*
X95342Y21054D01*
X95363Y21065D01*
X95388Y21075D01*
X95418Y21085D01*
X95453Y21090D01*
X95491Y21093D01*
X95504D01*
X95519Y21092D01*
D02*
G37*
G36*
X94382D02*
X94400Y21089D01*
X94421Y21085D01*
X94444Y21079D01*
X94468Y21072D01*
X94490Y21061D01*
X94492D01*
X94493Y21059D01*
X94500Y21055D01*
X94511Y21048D01*
X94526Y21038D01*
X94541Y21024D01*
X94558Y21009D01*
X94574Y20990D01*
X94589Y20969D01*
X94590Y20966D01*
X94596Y20959D01*
X94602Y20947D01*
X94612Y20928D01*
X94620Y20907D01*
X94631Y20883D01*
X94641Y20855D01*
X94650Y20824D01*
Y20823D01*
X94651Y20820D01*
X94652Y20816D01*
X94654Y20808D01*
X94655Y20800D01*
X94657Y20790D01*
X94660Y20777D01*
X94661Y20763D01*
X94664Y20748D01*
X94665Y20731D01*
X94667Y20711D01*
X94669Y20691D01*
X94671Y20669D01*
Y20646D01*
X94672Y20621D01*
Y20594D01*
Y20593D01*
Y20587D01*
Y20577D01*
Y20566D01*
X94671Y20550D01*
Y20534D01*
X94669Y20515D01*
X94668Y20496D01*
X94664Y20450D01*
X94657Y20404D01*
X94648Y20359D01*
X94643Y20338D01*
X94636Y20316D01*
Y20315D01*
X94634Y20312D01*
X94631Y20307D01*
X94628Y20300D01*
X94626Y20290D01*
X94620Y20280D01*
X94609Y20256D01*
X94595Y20230D01*
X94576Y20202D01*
X94555Y20177D01*
X94530Y20153D01*
X94528D01*
X94527Y20150D01*
X94523Y20147D01*
X94517Y20144D01*
X94510Y20140D01*
X94503Y20135D01*
X94482Y20125D01*
X94457Y20115D01*
X94427Y20105D01*
X94392Y20099D01*
X94354Y20097D01*
X94340D01*
X94330Y20098D01*
X94318Y20099D01*
X94304Y20102D01*
X94289Y20105D01*
X94272Y20109D01*
X94255Y20115D01*
X94237Y20121D01*
X94218Y20129D01*
X94200Y20139D01*
X94182Y20150D01*
X94163Y20164D01*
X94146Y20180D01*
X94131Y20197D01*
X94129Y20198D01*
X94127Y20202D01*
X94122Y20209D01*
X94115Y20221D01*
X94108Y20233D01*
X94101Y20250D01*
X94091Y20270D01*
X94083Y20293D01*
X94074Y20318D01*
X94066Y20347D01*
X94058Y20380D01*
X94051Y20417D01*
X94043Y20456D01*
X94039Y20498D01*
X94036Y20545D01*
X94035Y20594D01*
Y20596D01*
Y20601D01*
Y20611D01*
Y20622D01*
X94036Y20638D01*
Y20655D01*
X94038Y20673D01*
X94039Y20694D01*
X94043Y20738D01*
X94051Y20784D01*
X94059Y20831D01*
X94065Y20852D01*
X94070Y20873D01*
Y20875D01*
X94072Y20878D01*
X94074Y20883D01*
X94077Y20890D01*
X94080Y20900D01*
X94086Y20910D01*
X94097Y20934D01*
X94111Y20959D01*
X94129Y20986D01*
X94151Y21013D01*
X94176Y21035D01*
X94177D01*
X94179Y21038D01*
X94183Y21041D01*
X94189Y21044D01*
X94196Y21050D01*
X94204Y21054D01*
X94225Y21065D01*
X94251Y21075D01*
X94280Y21085D01*
X94316Y21090D01*
X94354Y21093D01*
X94366D01*
X94382Y21092D01*
D02*
G37*
G36*
X95704Y19900D02*
X95722Y19897D01*
X95745Y19893D01*
X95770Y19886D01*
X95796Y19877D01*
X95821Y19866D01*
X95823D01*
X95824Y19865D01*
X95832Y19861D01*
X95845Y19852D01*
X95859Y19842D01*
X95876Y19828D01*
X95893Y19813D01*
X95910Y19794D01*
X95924Y19773D01*
X95925Y19770D01*
X95930Y19763D01*
X95935Y19751D01*
X95942Y19735D01*
X95949Y19717D01*
X95955Y19696D01*
X95959Y19672D01*
X95961Y19648D01*
Y19645D01*
Y19636D01*
X95959Y19625D01*
X95956Y19610D01*
X95952Y19591D01*
X95945Y19572D01*
X95937Y19552D01*
X95925Y19532D01*
X95924Y19529D01*
X95920Y19524D01*
X95911Y19514D01*
X95900Y19503D01*
X95886Y19490D01*
X95869Y19476D01*
X95849Y19463D01*
X95825Y19450D01*
X95827D01*
X95830Y19449D01*
X95834Y19448D01*
X95839Y19446D01*
X95855Y19440D01*
X95875Y19432D01*
X95897Y19421D01*
X95920Y19407D01*
X95941Y19388D01*
X95961Y19367D01*
X95962Y19364D01*
X95968Y19356D01*
X95976Y19342D01*
X95985Y19323D01*
X95993Y19301D01*
X96002Y19274D01*
X96007Y19243D01*
X96009Y19209D01*
Y19208D01*
Y19204D01*
Y19197D01*
X96007Y19188D01*
X96006Y19177D01*
X96003Y19164D01*
X96000Y19150D01*
X95997Y19135D01*
X95986Y19101D01*
X95978Y19082D01*
X95969Y19066D01*
X95958Y19047D01*
X95945Y19029D01*
X95931Y19011D01*
X95914Y18994D01*
X95913Y18992D01*
X95910Y18989D01*
X95904Y18985D01*
X95897Y18980D01*
X95889Y18972D01*
X95877Y18965D01*
X95865Y18957D01*
X95849Y18950D01*
X95834Y18941D01*
X95815Y18933D01*
X95797Y18926D01*
X95776Y18919D01*
X95753Y18913D01*
X95729Y18909D01*
X95705Y18906D01*
X95679Y18905D01*
X95666D01*
X95658Y18906D01*
X95646Y18908D01*
X95634Y18909D01*
X95620Y18912D01*
X95604Y18915D01*
X95570Y18923D01*
X95535Y18937D01*
X95517Y18946D01*
X95500Y18956D01*
X95483Y18968D01*
X95466Y18981D01*
X95464Y18982D01*
X95462Y18985D01*
X95457Y18989D01*
X95453Y18995D01*
X95446Y19002D01*
X95439Y19012D01*
X95431Y19022D01*
X95422Y19034D01*
X95414Y19049D01*
X95405Y19063D01*
X95390Y19097D01*
X95377Y19136D01*
X95373Y19157D01*
X95370Y19180D01*
X95490Y19195D01*
Y19194D01*
X95491Y19191D01*
X95493Y19185D01*
X95494Y19178D01*
X95495Y19170D01*
X95498Y19160D01*
X95505Y19139D01*
X95515Y19113D01*
X95528Y19089D01*
X95542Y19067D01*
X95559Y19047D01*
X95562Y19046D01*
X95567Y19040D01*
X95579Y19033D01*
X95593Y19026D01*
X95610Y19018D01*
X95631Y19011D01*
X95655Y19005D01*
X95680Y19003D01*
X95689D01*
X95694Y19005D01*
X95710Y19006D01*
X95729Y19011D01*
X95752Y19018D01*
X95776Y19027D01*
X95800Y19042D01*
X95823Y19061D01*
X95825Y19064D01*
X95832Y19073D01*
X95841Y19085D01*
X95852Y19102D01*
X95863Y19123D01*
X95872Y19147D01*
X95879Y19175D01*
X95882Y19206D01*
Y19208D01*
Y19211D01*
Y19215D01*
X95880Y19221D01*
X95879Y19236D01*
X95875Y19254D01*
X95869Y19277D01*
X95859Y19300D01*
X95845Y19322D01*
X95827Y19343D01*
X95824Y19346D01*
X95817Y19352D01*
X95806Y19360D01*
X95790Y19370D01*
X95770Y19380D01*
X95746Y19388D01*
X95720Y19394D01*
X95690Y19397D01*
X95677D01*
X95667Y19395D01*
X95655Y19394D01*
X95641Y19391D01*
X95624Y19388D01*
X95605Y19384D01*
X95620Y19490D01*
X95627D01*
X95632Y19488D01*
X95651D01*
X95666Y19491D01*
X95684Y19494D01*
X95705Y19498D01*
X95729Y19505D01*
X95752Y19515D01*
X95776Y19528D01*
X95777D01*
X95779Y19529D01*
X95786Y19535D01*
X95796Y19545D01*
X95807Y19557D01*
X95818Y19576D01*
X95828Y19597D01*
X95835Y19621D01*
X95838Y19635D01*
Y19651D01*
Y19652D01*
Y19653D01*
Y19662D01*
X95835Y19673D01*
X95832Y19689D01*
X95827Y19706D01*
X95820Y19724D01*
X95808Y19742D01*
X95793Y19759D01*
X95791Y19760D01*
X95784Y19766D01*
X95775Y19773D01*
X95762Y19782D01*
X95745Y19789D01*
X95725Y19796D01*
X95703Y19801D01*
X95677Y19803D01*
X95666D01*
X95653Y19800D01*
X95636Y19797D01*
X95618Y19792D01*
X95600Y19784D01*
X95580Y19773D01*
X95562Y19759D01*
X95560Y19758D01*
X95555Y19751D01*
X95546Y19741D01*
X95536Y19727D01*
X95526Y19708D01*
X95517Y19686D01*
X95508Y19659D01*
X95503Y19628D01*
X95383Y19649D01*
Y19651D01*
X95384Y19655D01*
X95385Y19660D01*
X95387Y19669D01*
X95390Y19679D01*
X95394Y19690D01*
X95402Y19717D01*
X95417Y19748D01*
X95433Y19779D01*
X95455Y19808D01*
X95481Y19835D01*
X95483Y19837D01*
X95486Y19838D01*
X95490Y19841D01*
X95495Y19845D01*
X95503Y19851D01*
X95512Y19856D01*
X95522Y19862D01*
X95535Y19869D01*
X95563Y19880D01*
X95596Y19892D01*
X95634Y19899D01*
X95653Y19901D01*
X95689D01*
X95704Y19900D01*
D02*
G37*
G36*
X98454Y19215D02*
X98084D01*
Y19335D01*
X98454D01*
Y19215D01*
D02*
G37*
G36*
X96484D02*
X96113D01*
Y19335D01*
X96484D01*
Y19215D01*
D02*
G37*
G36*
X94957Y19900D02*
X94968Y19899D01*
X94982Y19897D01*
X94998Y19894D01*
X95013Y19892D01*
X95050Y19882D01*
X95087Y19868D01*
X95105Y19859D01*
X95123Y19849D01*
X95140Y19837D01*
X95156Y19823D01*
X95157Y19821D01*
X95160Y19820D01*
X95163Y19814D01*
X95168Y19808D01*
X95175Y19801D01*
X95183Y19792D01*
X95190Y19782D01*
X95198Y19769D01*
X95212Y19742D01*
X95226Y19708D01*
X95232Y19691D01*
X95235Y19672D01*
X95237Y19652D01*
X95239Y19631D01*
Y19628D01*
Y19621D01*
X95237Y19610D01*
X95236Y19594D01*
X95233Y19577D01*
X95228Y19557D01*
X95222Y19536D01*
X95214Y19515D01*
X95212Y19512D01*
X95209Y19505D01*
X95204Y19494D01*
X95195Y19479D01*
X95184Y19462D01*
X95170Y19440D01*
X95153Y19419D01*
X95133Y19395D01*
X95130Y19393D01*
X95123Y19384D01*
X95116Y19377D01*
X95109Y19370D01*
X95101Y19362D01*
X95089Y19350D01*
X95078Y19339D01*
X95064Y19326D01*
X95050Y19312D01*
X95033Y19297D01*
X95015Y19281D01*
X94995Y19263D01*
X94972Y19245D01*
X94950Y19225D01*
X94948Y19223D01*
X94946Y19221D01*
X94940Y19216D01*
X94933Y19211D01*
X94925Y19202D01*
X94915Y19194D01*
X94892Y19175D01*
X94868Y19154D01*
X94846Y19133D01*
X94826Y19115D01*
X94817Y19108D01*
X94810Y19101D01*
X94809Y19099D01*
X94805Y19095D01*
X94799Y19089D01*
X94792Y19081D01*
X94785Y19071D01*
X94777Y19061D01*
X94760Y19037D01*
X95240D01*
Y18922D01*
X94593D01*
Y18923D01*
Y18929D01*
Y18937D01*
X94595Y18948D01*
X94596Y18961D01*
X94599Y18975D01*
X94602Y18989D01*
X94607Y19005D01*
Y19006D01*
X94609Y19008D01*
X94612Y19016D01*
X94617Y19029D01*
X94626Y19046D01*
X94637Y19066D01*
X94651Y19088D01*
X94667Y19111D01*
X94686Y19135D01*
Y19136D01*
X94689Y19137D01*
X94696Y19146D01*
X94709Y19159D01*
X94727Y19177D01*
X94748Y19198D01*
X94775Y19223D01*
X94808Y19252D01*
X94843Y19281D01*
X94844Y19283D01*
X94850Y19287D01*
X94858Y19294D01*
X94868Y19302D01*
X94881Y19314D01*
X94896Y19326D01*
X94912Y19340D01*
X94930Y19356D01*
X94965Y19390D01*
X95001Y19424D01*
X95018Y19440D01*
X95033Y19457D01*
X95047Y19473D01*
X95058Y19488D01*
Y19490D01*
X95061Y19491D01*
X95064Y19495D01*
X95067Y19501D01*
X95077Y19517D01*
X95088Y19535D01*
X95098Y19557D01*
X95108Y19581D01*
X95113Y19608D01*
X95116Y19634D01*
Y19635D01*
Y19636D01*
X95115Y19645D01*
X95113Y19659D01*
X95109Y19674D01*
X95104Y19694D01*
X95094Y19714D01*
X95081Y19734D01*
X95064Y19753D01*
X95061Y19756D01*
X95054Y19762D01*
X95044Y19769D01*
X95029Y19779D01*
X95009Y19787D01*
X94987Y19796D01*
X94960Y19801D01*
X94930Y19803D01*
X94922D01*
X94916Y19801D01*
X94899Y19800D01*
X94879Y19796D01*
X94858Y19790D01*
X94834Y19780D01*
X94812Y19768D01*
X94791Y19751D01*
X94788Y19748D01*
X94782Y19741D01*
X94774Y19729D01*
X94765Y19713D01*
X94755Y19693D01*
X94747Y19667D01*
X94741Y19639D01*
X94738Y19607D01*
X94616Y19620D01*
Y19621D01*
X94617Y19625D01*
Y19632D01*
X94619Y19642D01*
X94621Y19653D01*
X94624Y19666D01*
X94628Y19682D01*
X94633Y19697D01*
X94644Y19731D01*
X94661Y19765D01*
X94671Y19782D01*
X94683Y19799D01*
X94696Y19814D01*
X94710Y19828D01*
X94712Y19830D01*
X94714Y19831D01*
X94719Y19835D01*
X94726Y19839D01*
X94734Y19845D01*
X94744Y19851D01*
X94755Y19858D01*
X94769Y19865D01*
X94785Y19872D01*
X94802Y19879D01*
X94820Y19885D01*
X94840Y19890D01*
X94861Y19894D01*
X94884Y19899D01*
X94908Y19900D01*
X94933Y19901D01*
X94947D01*
X94957Y19900D01*
D02*
G37*
G36*
X93440D02*
X93451Y19899D01*
X93465Y19897D01*
X93481Y19894D01*
X93496Y19892D01*
X93533Y19882D01*
X93570Y19868D01*
X93588Y19859D01*
X93606Y19849D01*
X93623Y19837D01*
X93639Y19823D01*
X93640Y19821D01*
X93643Y19820D01*
X93646Y19814D01*
X93652Y19808D01*
X93659Y19801D01*
X93666Y19792D01*
X93673Y19782D01*
X93681Y19769D01*
X93695Y19742D01*
X93709Y19708D01*
X93715Y19691D01*
X93718Y19672D01*
X93721Y19652D01*
X93722Y19631D01*
Y19628D01*
Y19621D01*
X93721Y19610D01*
X93719Y19594D01*
X93716Y19577D01*
X93711Y19557D01*
X93705Y19536D01*
X93697Y19515D01*
X93695Y19512D01*
X93692Y19505D01*
X93687Y19494D01*
X93678Y19479D01*
X93667Y19462D01*
X93653Y19440D01*
X93636Y19419D01*
X93616Y19395D01*
X93614Y19393D01*
X93606Y19384D01*
X93599Y19377D01*
X93592Y19370D01*
X93584Y19362D01*
X93573Y19350D01*
X93561Y19339D01*
X93547Y19326D01*
X93533Y19312D01*
X93516Y19297D01*
X93498Y19281D01*
X93478Y19263D01*
X93456Y19245D01*
X93433Y19225D01*
X93432Y19223D01*
X93429Y19221D01*
X93423Y19216D01*
X93416Y19211D01*
X93408Y19202D01*
X93398Y19194D01*
X93375Y19175D01*
X93351Y19154D01*
X93329Y19133D01*
X93309Y19115D01*
X93301Y19108D01*
X93294Y19101D01*
X93292Y19099D01*
X93288Y19095D01*
X93282Y19089D01*
X93275Y19081D01*
X93268Y19071D01*
X93260Y19061D01*
X93243Y19037D01*
X93723D01*
Y18922D01*
X93076D01*
Y18923D01*
Y18929D01*
Y18937D01*
X93078Y18948D01*
X93079Y18961D01*
X93082Y18975D01*
X93085Y18989D01*
X93091Y19005D01*
Y19006D01*
X93092Y19008D01*
X93095Y19016D01*
X93100Y19029D01*
X93109Y19046D01*
X93120Y19066D01*
X93134Y19088D01*
X93150Y19111D01*
X93169Y19135D01*
Y19136D01*
X93172Y19137D01*
X93179Y19146D01*
X93192Y19159D01*
X93210Y19177D01*
X93231Y19198D01*
X93258Y19223D01*
X93291Y19252D01*
X93326Y19281D01*
X93327Y19283D01*
X93333Y19287D01*
X93341Y19294D01*
X93351Y19302D01*
X93364Y19314D01*
X93380Y19326D01*
X93395Y19340D01*
X93413Y19356D01*
X93449Y19390D01*
X93484Y19424D01*
X93501Y19440D01*
X93516Y19457D01*
X93530Y19473D01*
X93542Y19488D01*
Y19490D01*
X93544Y19491D01*
X93547Y19495D01*
X93550Y19501D01*
X93560Y19517D01*
X93571Y19535D01*
X93581Y19557D01*
X93591Y19581D01*
X93597Y19608D01*
X93599Y19634D01*
Y19635D01*
Y19636D01*
X93598Y19645D01*
X93597Y19659D01*
X93592Y19674D01*
X93587Y19694D01*
X93577Y19714D01*
X93564Y19734D01*
X93547Y19753D01*
X93544Y19756D01*
X93537Y19762D01*
X93528Y19769D01*
X93512Y19779D01*
X93492Y19787D01*
X93470Y19796D01*
X93443Y19801D01*
X93413Y19803D01*
X93405D01*
X93399Y19801D01*
X93382Y19800D01*
X93363Y19796D01*
X93341Y19790D01*
X93317Y19780D01*
X93295Y19768D01*
X93274Y19751D01*
X93271Y19748D01*
X93265Y19741D01*
X93257Y19729D01*
X93248Y19713D01*
X93239Y19693D01*
X93230Y19667D01*
X93224Y19639D01*
X93222Y19607D01*
X93099Y19620D01*
Y19621D01*
X93100Y19625D01*
Y19632D01*
X93102Y19642D01*
X93105Y19653D01*
X93107Y19666D01*
X93112Y19682D01*
X93116Y19697D01*
X93127Y19731D01*
X93144Y19765D01*
X93154Y19782D01*
X93167Y19799D01*
X93179Y19814D01*
X93193Y19828D01*
X93195Y19830D01*
X93198Y19831D01*
X93202Y19835D01*
X93209Y19839D01*
X93217Y19845D01*
X93227Y19851D01*
X93239Y19858D01*
X93253Y19865D01*
X93268Y19872D01*
X93285Y19879D01*
X93303Y19885D01*
X93323Y19890D01*
X93344Y19894D01*
X93367Y19899D01*
X93391Y19900D01*
X93416Y19901D01*
X93430D01*
X93440Y19900D01*
D02*
G37*
G36*
X99648D02*
X99660Y19899D01*
X99672Y19897D01*
X99686Y19896D01*
X99701Y19892D01*
X99734Y19883D01*
X99768Y19870D01*
X99785Y19862D01*
X99802Y19852D01*
X99818Y19839D01*
X99833Y19827D01*
X99835Y19825D01*
X99836Y19824D01*
X99840Y19820D01*
X99846Y19814D01*
X99851Y19806D01*
X99858Y19797D01*
X99873Y19776D01*
X99887Y19749D01*
X99899Y19718D01*
X99909Y19683D01*
X99911Y19665D01*
X99912Y19645D01*
Y19643D01*
Y19642D01*
Y19634D01*
X99911Y19621D01*
X99908Y19605D01*
X99904Y19586D01*
X99897Y19566D01*
X99888Y19546D01*
X99875Y19526D01*
X99874Y19524D01*
X99868Y19518D01*
X99860Y19510D01*
X99849Y19498D01*
X99833Y19486D01*
X99815Y19473D01*
X99794Y19460D01*
X99768Y19449D01*
X99770D01*
X99772Y19448D01*
X99777Y19446D01*
X99782Y19443D01*
X99799Y19436D01*
X99819Y19426D01*
X99840Y19412D01*
X99863Y19397D01*
X99884Y19377D01*
X99904Y19354D01*
Y19353D01*
X99905Y19352D01*
X99911Y19343D01*
X99919Y19329D01*
X99928Y19311D01*
X99936Y19288D01*
X99944Y19261D01*
X99950Y19232D01*
X99952Y19199D01*
Y19198D01*
Y19194D01*
Y19187D01*
X99950Y19178D01*
X99949Y19168D01*
X99947Y19156D01*
X99944Y19142D01*
X99940Y19126D01*
X99930Y19094D01*
X99923Y19075D01*
X99913Y19058D01*
X99904Y19040D01*
X99892Y19023D01*
X99878Y19006D01*
X99863Y18989D01*
X99861Y18988D01*
X99858Y18985D01*
X99854Y18981D01*
X99847Y18977D01*
X99837Y18970D01*
X99827Y18963D01*
X99815Y18956D01*
X99801Y18947D01*
X99785Y18939D01*
X99767Y18932D01*
X99747Y18925D01*
X99727Y18917D01*
X99705Y18913D01*
X99681Y18909D01*
X99657Y18906D01*
X99630Y18905D01*
X99616D01*
X99606Y18906D01*
X99593Y18908D01*
X99579Y18909D01*
X99564Y18912D01*
X99547Y18916D01*
X99509Y18926D01*
X99489Y18933D01*
X99471Y18940D01*
X99451Y18950D01*
X99431Y18961D01*
X99413Y18974D01*
X99396Y18989D01*
X99395Y18991D01*
X99392Y18994D01*
X99388Y18998D01*
X99382Y19005D01*
X99376Y19013D01*
X99368Y19023D01*
X99361Y19034D01*
X99352Y19049D01*
X99344Y19063D01*
X99337Y19080D01*
X99323Y19115D01*
X99317Y19136D01*
X99313Y19157D01*
X99310Y19180D01*
X99309Y19202D01*
Y19204D01*
Y19206D01*
Y19212D01*
X99310Y19218D01*
Y19226D01*
X99312Y19236D01*
X99314Y19259D01*
X99320Y19284D01*
X99328Y19309D01*
X99341Y19336D01*
X99357Y19362D01*
Y19363D01*
X99359Y19364D01*
X99365Y19371D01*
X99376Y19383D01*
X99392Y19397D01*
X99412Y19411D01*
X99436Y19426D01*
X99462Y19439D01*
X99495Y19449D01*
X99493D01*
X99492Y19450D01*
X99488Y19452D01*
X99482Y19455D01*
X99469Y19460D01*
X99452Y19469D01*
X99434Y19480D01*
X99416Y19494D01*
X99399Y19510D01*
X99383Y19526D01*
X99382Y19529D01*
X99378Y19535D01*
X99372Y19546D01*
X99366Y19560D01*
X99359Y19579D01*
X99354Y19600D01*
X99350Y19624D01*
X99348Y19649D01*
Y19651D01*
Y19653D01*
Y19659D01*
X99350Y19667D01*
X99351Y19676D01*
X99352Y19687D01*
X99358Y19711D01*
X99366Y19739D01*
X99381Y19769D01*
X99389Y19784D01*
X99399Y19800D01*
X99412Y19814D01*
X99424Y19828D01*
X99426Y19830D01*
X99429Y19831D01*
X99433Y19835D01*
X99438Y19839D01*
X99445Y19845D01*
X99455Y19851D01*
X99467Y19858D01*
X99478Y19865D01*
X99492Y19872D01*
X99507Y19879D01*
X99524Y19885D01*
X99543Y19890D01*
X99582Y19899D01*
X99605Y19900D01*
X99627Y19901D01*
X99640D01*
X99648Y19900D01*
D02*
G37*
G36*
X98898D02*
X98917Y19897D01*
X98938Y19893D01*
X98961Y19887D01*
X98984Y19880D01*
X99007Y19869D01*
X99008D01*
X99010Y19868D01*
X99017Y19863D01*
X99028Y19856D01*
X99042Y19846D01*
X99058Y19832D01*
X99075Y19817D01*
X99090Y19799D01*
X99106Y19777D01*
X99107Y19775D01*
X99113Y19768D01*
X99118Y19755D01*
X99128Y19737D01*
X99137Y19715D01*
X99148Y19691D01*
X99158Y19663D01*
X99166Y19632D01*
Y19631D01*
X99168Y19628D01*
X99169Y19624D01*
X99171Y19617D01*
X99172Y19608D01*
X99173Y19598D01*
X99176Y19586D01*
X99178Y19572D01*
X99180Y19556D01*
X99182Y19539D01*
X99183Y19519D01*
X99186Y19500D01*
X99187Y19477D01*
Y19455D01*
X99189Y19429D01*
Y19402D01*
Y19401D01*
Y19395D01*
Y19386D01*
Y19374D01*
X99187Y19359D01*
Y19342D01*
X99186Y19323D01*
X99185Y19304D01*
X99180Y19259D01*
X99173Y19212D01*
X99165Y19167D01*
X99159Y19146D01*
X99152Y19125D01*
Y19123D01*
X99151Y19120D01*
X99148Y19115D01*
X99145Y19108D01*
X99142Y19098D01*
X99137Y19088D01*
X99125Y19064D01*
X99111Y19039D01*
X99093Y19011D01*
X99072Y18985D01*
X99046Y18961D01*
X99045D01*
X99044Y18958D01*
X99039Y18956D01*
X99034Y18953D01*
X99027Y18948D01*
X99020Y18943D01*
X98999Y18933D01*
X98973Y18923D01*
X98944Y18913D01*
X98908Y18908D01*
X98870Y18905D01*
X98856D01*
X98846Y18906D01*
X98835Y18908D01*
X98821Y18910D01*
X98805Y18913D01*
X98789Y18917D01*
X98772Y18923D01*
X98753Y18929D01*
X98735Y18937D01*
X98717Y18947D01*
X98698Y18958D01*
X98680Y18972D01*
X98663Y18988D01*
X98648Y19005D01*
X98646Y19006D01*
X98643Y19011D01*
X98639Y19018D01*
X98632Y19029D01*
X98625Y19042D01*
X98618Y19058D01*
X98608Y19078D01*
X98600Y19101D01*
X98591Y19126D01*
X98583Y19156D01*
X98574Y19188D01*
X98567Y19225D01*
X98560Y19264D01*
X98556Y19307D01*
X98553Y19353D01*
X98552Y19402D01*
Y19404D01*
Y19409D01*
Y19419D01*
Y19431D01*
X98553Y19446D01*
Y19463D01*
X98554Y19481D01*
X98556Y19503D01*
X98560Y19546D01*
X98567Y19593D01*
X98576Y19639D01*
X98581Y19660D01*
X98587Y19682D01*
Y19683D01*
X98588Y19686D01*
X98591Y19691D01*
X98594Y19698D01*
X98597Y19708D01*
X98602Y19718D01*
X98614Y19742D01*
X98628Y19768D01*
X98646Y19794D01*
X98667Y19821D01*
X98693Y19844D01*
X98694D01*
X98695Y19846D01*
X98700Y19849D01*
X98705Y19852D01*
X98712Y19858D01*
X98721Y19862D01*
X98742Y19873D01*
X98767Y19883D01*
X98797Y19893D01*
X98832Y19899D01*
X98870Y19901D01*
X98883D01*
X98898Y19900D01*
D02*
G37*
G36*
X97678D02*
X97689Y19899D01*
X97702Y19897D01*
X97716Y19896D01*
X97730Y19892D01*
X97764Y19883D01*
X97798Y19870D01*
X97814Y19862D01*
X97831Y19852D01*
X97847Y19839D01*
X97862Y19827D01*
X97864Y19825D01*
X97865Y19824D01*
X97869Y19820D01*
X97875Y19814D01*
X97881Y19806D01*
X97888Y19797D01*
X97902Y19776D01*
X97916Y19749D01*
X97929Y19718D01*
X97938Y19683D01*
X97940Y19665D01*
X97941Y19645D01*
Y19643D01*
Y19642D01*
Y19634D01*
X97940Y19621D01*
X97937Y19605D01*
X97933Y19586D01*
X97926Y19566D01*
X97917Y19546D01*
X97905Y19526D01*
X97903Y19524D01*
X97898Y19518D01*
X97889Y19510D01*
X97878Y19498D01*
X97862Y19486D01*
X97844Y19473D01*
X97823Y19460D01*
X97798Y19449D01*
X97799D01*
X97802Y19448D01*
X97806Y19446D01*
X97812Y19443D01*
X97829Y19436D01*
X97848Y19426D01*
X97869Y19412D01*
X97892Y19397D01*
X97913Y19377D01*
X97933Y19354D01*
Y19353D01*
X97934Y19352D01*
X97940Y19343D01*
X97948Y19329D01*
X97957Y19311D01*
X97965Y19288D01*
X97974Y19261D01*
X97979Y19232D01*
X97981Y19199D01*
Y19198D01*
Y19194D01*
Y19187D01*
X97979Y19178D01*
X97978Y19168D01*
X97977Y19156D01*
X97974Y19142D01*
X97969Y19126D01*
X97960Y19094D01*
X97953Y19075D01*
X97943Y19058D01*
X97933Y19040D01*
X97922Y19023D01*
X97907Y19006D01*
X97892Y18989D01*
X97891Y18988D01*
X97888Y18985D01*
X97883Y18981D01*
X97876Y18977D01*
X97867Y18970D01*
X97857Y18963D01*
X97844Y18956D01*
X97830Y18947D01*
X97814Y18939D01*
X97796Y18932D01*
X97776Y18925D01*
X97757Y18917D01*
X97734Y18913D01*
X97710Y18909D01*
X97686Y18906D01*
X97659Y18905D01*
X97645D01*
X97635Y18906D01*
X97623Y18908D01*
X97609Y18909D01*
X97593Y18912D01*
X97576Y18916D01*
X97538Y18926D01*
X97518Y18933D01*
X97500Y18940D01*
X97480Y18950D01*
X97461Y18961D01*
X97442Y18974D01*
X97425Y18989D01*
X97424Y18991D01*
X97421Y18994D01*
X97417Y18998D01*
X97411Y19005D01*
X97406Y19013D01*
X97397Y19023D01*
X97390Y19034D01*
X97382Y19049D01*
X97373Y19063D01*
X97366Y19080D01*
X97352Y19115D01*
X97346Y19136D01*
X97342Y19157D01*
X97339Y19180D01*
X97338Y19202D01*
Y19204D01*
Y19206D01*
Y19212D01*
X97339Y19218D01*
Y19226D01*
X97341Y19236D01*
X97344Y19259D01*
X97349Y19284D01*
X97358Y19309D01*
X97370Y19336D01*
X97386Y19362D01*
Y19363D01*
X97389Y19364D01*
X97394Y19371D01*
X97406Y19383D01*
X97421Y19397D01*
X97441Y19411D01*
X97465Y19426D01*
X97492Y19439D01*
X97524Y19449D01*
X97523D01*
X97521Y19450D01*
X97517Y19452D01*
X97511Y19455D01*
X97499Y19460D01*
X97482Y19469D01*
X97463Y19480D01*
X97445Y19494D01*
X97428Y19510D01*
X97413Y19526D01*
X97411Y19529D01*
X97407Y19535D01*
X97401Y19546D01*
X97396Y19560D01*
X97389Y19579D01*
X97383Y19600D01*
X97379Y19624D01*
X97377Y19649D01*
Y19651D01*
Y19653D01*
Y19659D01*
X97379Y19667D01*
X97380Y19676D01*
X97382Y19687D01*
X97387Y19711D01*
X97396Y19739D01*
X97410Y19769D01*
X97418Y19784D01*
X97428Y19800D01*
X97441Y19814D01*
X97454Y19828D01*
X97455Y19830D01*
X97458Y19831D01*
X97462Y19835D01*
X97468Y19839D01*
X97475Y19845D01*
X97485Y19851D01*
X97496Y19858D01*
X97507Y19865D01*
X97521Y19872D01*
X97537Y19879D01*
X97554Y19885D01*
X97572Y19890D01*
X97611Y19899D01*
X97634Y19900D01*
X97657Y19901D01*
X97669D01*
X97678Y19900D01*
D02*
G37*
G36*
X96928D02*
X96946Y19897D01*
X96967Y19893D01*
X96990Y19887D01*
X97014Y19880D01*
X97036Y19869D01*
X97038D01*
X97039Y19868D01*
X97046Y19863D01*
X97057Y19856D01*
X97072Y19846D01*
X97087Y19832D01*
X97104Y19817D01*
X97119Y19799D01*
X97135Y19777D01*
X97136Y19775D01*
X97142Y19768D01*
X97148Y19755D01*
X97157Y19737D01*
X97166Y19715D01*
X97177Y19691D01*
X97187Y19663D01*
X97196Y19632D01*
Y19631D01*
X97197Y19628D01*
X97198Y19624D01*
X97200Y19617D01*
X97201Y19608D01*
X97203Y19598D01*
X97205Y19586D01*
X97207Y19572D01*
X97210Y19556D01*
X97211Y19539D01*
X97212Y19519D01*
X97215Y19500D01*
X97217Y19477D01*
Y19455D01*
X97218Y19429D01*
Y19402D01*
Y19401D01*
Y19395D01*
Y19386D01*
Y19374D01*
X97217Y19359D01*
Y19342D01*
X97215Y19323D01*
X97214Y19304D01*
X97210Y19259D01*
X97203Y19212D01*
X97194Y19167D01*
X97189Y19146D01*
X97181Y19125D01*
Y19123D01*
X97180Y19120D01*
X97177Y19115D01*
X97174Y19108D01*
X97172Y19098D01*
X97166Y19088D01*
X97155Y19064D01*
X97141Y19039D01*
X97122Y19011D01*
X97101Y18985D01*
X97076Y18961D01*
X97074D01*
X97073Y18958D01*
X97069Y18956D01*
X97063Y18953D01*
X97056Y18948D01*
X97049Y18943D01*
X97028Y18933D01*
X97002Y18923D01*
X96973Y18913D01*
X96938Y18908D01*
X96900Y18905D01*
X96885D01*
X96876Y18906D01*
X96864Y18908D01*
X96850Y18910D01*
X96835Y18913D01*
X96818Y18917D01*
X96801Y18923D01*
X96783Y18929D01*
X96764Y18937D01*
X96746Y18947D01*
X96728Y18958D01*
X96709Y18972D01*
X96692Y18988D01*
X96677Y19005D01*
X96675Y19006D01*
X96673Y19011D01*
X96668Y19018D01*
X96661Y19029D01*
X96654Y19042D01*
X96647Y19058D01*
X96637Y19078D01*
X96629Y19101D01*
X96620Y19126D01*
X96612Y19156D01*
X96603Y19188D01*
X96596Y19225D01*
X96589Y19264D01*
X96585Y19307D01*
X96582Y19353D01*
X96581Y19402D01*
Y19404D01*
Y19409D01*
Y19419D01*
Y19431D01*
X96582Y19446D01*
Y19463D01*
X96584Y19481D01*
X96585Y19503D01*
X96589Y19546D01*
X96596Y19593D01*
X96605Y19639D01*
X96611Y19660D01*
X96616Y19682D01*
Y19683D01*
X96618Y19686D01*
X96620Y19691D01*
X96623Y19698D01*
X96626Y19708D01*
X96632Y19718D01*
X96643Y19742D01*
X96657Y19768D01*
X96675Y19794D01*
X96697Y19821D01*
X96722Y19844D01*
X96723D01*
X96725Y19846D01*
X96729Y19849D01*
X96735Y19852D01*
X96742Y19858D01*
X96750Y19862D01*
X96771Y19873D01*
X96797Y19883D01*
X96826Y19893D01*
X96861Y19899D01*
X96900Y19901D01*
X96912D01*
X96928Y19900D01*
D02*
G37*
G36*
X94199D02*
X94217Y19897D01*
X94238Y19893D01*
X94261Y19887D01*
X94285Y19880D01*
X94307Y19869D01*
X94308D01*
X94310Y19868D01*
X94317Y19863D01*
X94328Y19856D01*
X94342Y19846D01*
X94358Y19832D01*
X94375Y19817D01*
X94390Y19799D01*
X94406Y19777D01*
X94407Y19775D01*
X94413Y19768D01*
X94418Y19755D01*
X94428Y19737D01*
X94437Y19715D01*
X94448Y19691D01*
X94458Y19663D01*
X94466Y19632D01*
Y19631D01*
X94468Y19628D01*
X94469Y19624D01*
X94471Y19617D01*
X94472Y19608D01*
X94473Y19598D01*
X94476Y19586D01*
X94478Y19572D01*
X94480Y19556D01*
X94482Y19539D01*
X94483Y19519D01*
X94486Y19500D01*
X94488Y19477D01*
Y19455D01*
X94489Y19429D01*
Y19402D01*
Y19401D01*
Y19395D01*
Y19386D01*
Y19374D01*
X94488Y19359D01*
Y19342D01*
X94486Y19323D01*
X94485Y19304D01*
X94480Y19259D01*
X94473Y19212D01*
X94465Y19167D01*
X94459Y19146D01*
X94452Y19125D01*
Y19123D01*
X94451Y19120D01*
X94448Y19115D01*
X94445Y19108D01*
X94442Y19098D01*
X94437Y19088D01*
X94425Y19064D01*
X94411Y19039D01*
X94393Y19011D01*
X94372Y18985D01*
X94347Y18961D01*
X94345D01*
X94344Y18958D01*
X94340Y18956D01*
X94334Y18953D01*
X94327Y18948D01*
X94320Y18943D01*
X94299Y18933D01*
X94273Y18923D01*
X94244Y18913D01*
X94208Y18908D01*
X94170Y18905D01*
X94156D01*
X94146Y18906D01*
X94135Y18908D01*
X94121Y18910D01*
X94105Y18913D01*
X94089Y18917D01*
X94072Y18923D01*
X94053Y18929D01*
X94035Y18937D01*
X94017Y18947D01*
X93998Y18958D01*
X93980Y18972D01*
X93963Y18988D01*
X93948Y19005D01*
X93946Y19006D01*
X93943Y19011D01*
X93939Y19018D01*
X93932Y19029D01*
X93925Y19042D01*
X93918Y19058D01*
X93908Y19078D01*
X93900Y19101D01*
X93891Y19126D01*
X93883Y19156D01*
X93874Y19188D01*
X93867Y19225D01*
X93860Y19264D01*
X93856Y19307D01*
X93853Y19353D01*
X93852Y19402D01*
Y19404D01*
Y19409D01*
Y19419D01*
Y19431D01*
X93853Y19446D01*
Y19463D01*
X93855Y19481D01*
X93856Y19503D01*
X93860Y19546D01*
X93867Y19593D01*
X93876Y19639D01*
X93881Y19660D01*
X93887Y19682D01*
Y19683D01*
X93888Y19686D01*
X93891Y19691D01*
X93894Y19698D01*
X93897Y19708D01*
X93902Y19718D01*
X93914Y19742D01*
X93928Y19768D01*
X93946Y19794D01*
X93967Y19821D01*
X93993Y19844D01*
X93994D01*
X93996Y19846D01*
X94000Y19849D01*
X94005Y19852D01*
X94012Y19858D01*
X94021Y19862D01*
X94042Y19873D01*
X94067Y19883D01*
X94097Y19893D01*
X94132Y19899D01*
X94170Y19901D01*
X94183D01*
X94199Y19900D01*
D02*
G37*
G36*
X65823Y56889D02*
X57527D01*
Y58860D01*
X65823D01*
Y56889D01*
D02*
G37*
G36*
X105840Y38564D02*
X94968D01*
Y40535D01*
X105840D01*
Y38564D01*
D02*
G37*
G36*
X94412Y27372D02*
X93547D01*
Y27800D01*
X94412D01*
Y27372D01*
D02*
G37*
G36*
X103951Y27367D02*
X103091D01*
Y27800D01*
X103951D01*
Y27367D01*
D02*
G37*
G36*
X100133Y26944D02*
X100430D01*
Y26521D01*
X100133D01*
Y26944D01*
X99687D01*
Y27565D01*
X100133D01*
Y26944D01*
D02*
G37*
G36*
X98728Y26977D02*
X98775Y26972D01*
X98822Y26963D01*
X98878Y26949D01*
X98935Y26930D01*
X98986Y26906D01*
X98991Y26902D01*
X99010Y26892D01*
X99033Y26873D01*
X99066Y26850D01*
X99099Y26822D01*
X99137Y26784D01*
X99170Y26742D01*
X99203Y26690D01*
X99207Y26685D01*
X99217Y26667D01*
X99226Y26638D01*
X99240Y26601D01*
X99254Y26549D01*
X99268Y26497D01*
X99273Y26431D01*
X99278Y26366D01*
Y26342D01*
X98845Y26337D01*
Y26366D01*
Y26370D01*
Y26384D01*
X98841Y26399D01*
Y26422D01*
X98822Y26474D01*
X98812Y26497D01*
X98794Y26521D01*
Y26525D01*
X98784Y26530D01*
X98761Y26549D01*
X98718Y26568D01*
X98690Y26577D01*
X98648D01*
X98634Y26572D01*
X98615Y26568D01*
X98568Y26554D01*
X98544Y26535D01*
X98526Y26516D01*
Y26511D01*
X98516Y26507D01*
X98511Y26493D01*
X98502Y26474D01*
X98493Y26450D01*
X98488Y26422D01*
X98479Y26352D01*
Y26347D01*
Y26337D01*
Y26323D01*
X98483Y26304D01*
X98493Y26257D01*
X98516Y26210D01*
X98526Y26201D01*
X98544Y26182D01*
X98577Y26154D01*
X98620Y26126D01*
X98624D01*
X98634Y26121D01*
X98648Y26112D01*
X98667Y26107D01*
X98690Y26098D01*
X98718Y26084D01*
X98789Y26060D01*
X98794D01*
X98798Y26055D01*
X98812D01*
Y26051D01*
X98822D01*
X98831Y26046D01*
X98850Y26041D01*
X98878Y26032D01*
X98916Y26013D01*
X98958Y25999D01*
X99000Y25975D01*
X99043Y25957D01*
X99085Y25933D01*
X99090Y25928D01*
X99104Y25924D01*
X99123Y25905D01*
X99146Y25886D01*
X99174Y25863D01*
X99207Y25830D01*
X99236Y25792D01*
X99264Y25745D01*
X99268Y25740D01*
X99278Y25722D01*
X99287Y25693D01*
X99301Y25656D01*
X99315Y25609D01*
X99330Y25548D01*
X99334Y25482D01*
X99339Y25406D01*
Y25397D01*
Y25374D01*
X99334Y25336D01*
X99330Y25289D01*
X99320Y25237D01*
X99301Y25181D01*
X99283Y25120D01*
X99254Y25063D01*
X99250Y25059D01*
X99240Y25040D01*
X99221Y25016D01*
X99198Y24983D01*
X99165Y24950D01*
X99123Y24913D01*
X99076Y24880D01*
X99024Y24847D01*
X99019Y24842D01*
X99000Y24838D01*
X98968Y24824D01*
X98925Y24809D01*
X98873Y24795D01*
X98817Y24786D01*
X98751Y24776D01*
X98676Y24772D01*
X98643D01*
X98605Y24776D01*
X98558Y24781D01*
X98507Y24791D01*
X98446Y24805D01*
X98385Y24824D01*
X98328Y24847D01*
X98323Y24852D01*
X98305Y24861D01*
X98276Y24880D01*
X98243Y24903D01*
X98206Y24936D01*
X98168Y24974D01*
X98131Y25021D01*
X98098Y25073D01*
X98093Y25077D01*
X98084Y25101D01*
X98074Y25129D01*
X98060Y25171D01*
X98041Y25223D01*
X98032Y25280D01*
X98023Y25345D01*
X98018Y25416D01*
Y25444D01*
X98450D01*
Y25421D01*
Y25416D01*
Y25402D01*
X98455Y25383D01*
X98460Y25355D01*
X98479Y25294D01*
X98493Y25265D01*
X98511Y25237D01*
X98516Y25233D01*
X98521Y25228D01*
X98535Y25218D01*
X98554Y25204D01*
X98577Y25190D01*
X98605Y25181D01*
X98638Y25176D01*
X98676Y25171D01*
X98695D01*
X98714Y25176D01*
X98737Y25181D01*
X98794Y25200D01*
X98822Y25214D01*
X98845Y25233D01*
X98850Y25237D01*
X98855Y25247D01*
X98864Y25261D01*
X98878Y25280D01*
X98888Y25303D01*
X98897Y25336D01*
X98902Y25369D01*
X98906Y25406D01*
Y25411D01*
Y25421D01*
Y25435D01*
X98902Y25449D01*
X98888Y25491D01*
X98864Y25533D01*
Y25538D01*
X98859Y25543D01*
X98836Y25562D01*
X98808Y25590D01*
X98765Y25613D01*
X98761D01*
X98756Y25618D01*
X98742Y25627D01*
X98723Y25637D01*
X98700Y25646D01*
X98671Y25660D01*
X98634Y25674D01*
X98596Y25689D01*
X98591Y25693D01*
X98573Y25698D01*
X98563Y25703D01*
X98544Y25707D01*
X98540Y25712D01*
X98530D01*
X98526Y25717D01*
X98521D01*
X98516Y25722D01*
X98497Y25726D01*
X98474Y25740D01*
X98441Y25754D01*
X98403Y25773D01*
X98361Y25792D01*
X98281Y25839D01*
X98276Y25844D01*
X98267Y25853D01*
X98248Y25867D01*
X98225Y25891D01*
X98196Y25919D01*
X98168Y25952D01*
X98140Y25989D01*
X98112Y26032D01*
X98107Y26037D01*
X98102Y26055D01*
X98093Y26084D01*
X98079Y26121D01*
X98065Y26163D01*
X98055Y26220D01*
X98051Y26281D01*
X98046Y26347D01*
Y26356D01*
Y26380D01*
X98051Y26413D01*
X98055Y26460D01*
X98065Y26511D01*
X98079Y26568D01*
X98098Y26624D01*
X98121Y26681D01*
X98126Y26685D01*
X98135Y26704D01*
X98154Y26732D01*
X98178Y26765D01*
X98206Y26798D01*
X98243Y26836D01*
X98286Y26869D01*
X98333Y26902D01*
X98338Y26906D01*
X98356Y26916D01*
X98389Y26925D01*
X98427Y26944D01*
X98474Y26958D01*
X98530Y26967D01*
X98596Y26977D01*
X98662Y26982D01*
X98695D01*
X98728Y26977D01*
D02*
G37*
G36*
X102856Y27367D02*
X103091D01*
Y26507D01*
X103848D01*
Y26074D01*
X103091D01*
Y26507D01*
X102856D01*
Y26074D01*
X103091D01*
Y25233D01*
X103951D01*
Y24800D01*
X103091D01*
Y25233D01*
X102856D01*
Y24800D01*
X102639D01*
Y27800D01*
X102856D01*
Y27367D01*
D02*
G37*
G36*
X93312Y27372D02*
X93547D01*
Y26478D01*
X94308D01*
Y26046D01*
X93547D01*
Y26478D01*
X93312D01*
Y26046D01*
X93547D01*
Y24800D01*
X93095D01*
Y27800D01*
X93312D01*
Y27372D01*
D02*
G37*
G36*
X106194Y24800D02*
X105785D01*
Y26743D01*
X105818Y26850D01*
X105785Y26982D01*
Y26743D01*
X105343Y25308D01*
X105089D01*
X104656Y26678D01*
Y26982D01*
X104614Y26812D01*
X104656Y26678D01*
Y24800D01*
X104238D01*
Y27800D01*
X104666D01*
X105216Y26041D01*
X105785Y27800D01*
X106194D01*
Y24800D01*
D02*
G37*
G36*
X95399Y26977D02*
X95446Y26972D01*
X95502Y26963D01*
X95559Y26949D01*
X95615Y26930D01*
X95672Y26906D01*
X95676Y26902D01*
X95695Y26892D01*
X95723Y26873D01*
X95756Y26850D01*
X95789Y26822D01*
X95827Y26784D01*
X95860Y26742D01*
X95893Y26690D01*
X95897Y26685D01*
X95907Y26667D01*
X95916Y26634D01*
X95935Y26596D01*
X95949Y26544D01*
X95959Y26488D01*
X95968Y26422D01*
X95973Y26352D01*
Y24800D01*
X95535D01*
Y25007D01*
X95554Y25063D01*
X95564Y25110D01*
X95568Y25153D01*
X95573Y25186D01*
X95578Y25218D01*
Y25237D01*
Y25242D01*
X95535Y25435D01*
Y25707D01*
X95324D01*
X95300Y25703D01*
X95272Y25698D01*
X95239Y25689D01*
X95202Y25670D01*
X95169Y25651D01*
X95140Y25623D01*
X95136Y25618D01*
X95131Y25609D01*
X95122Y25585D01*
X95108Y25562D01*
X95093Y25524D01*
X95084Y25482D01*
X95079Y25430D01*
X95075Y25374D01*
Y25369D01*
Y25355D01*
X95079Y25336D01*
Y25312D01*
X95098Y25261D01*
X95108Y25233D01*
X95126Y25209D01*
X95131D01*
X95136Y25200D01*
X95150Y25195D01*
X95164Y25186D01*
X95187Y25176D01*
X95216Y25167D01*
X95244Y25162D01*
X95282Y25157D01*
X95300D01*
X95324Y25162D01*
X95352Y25167D01*
X95413Y25186D01*
X95441Y25200D01*
X95470Y25223D01*
X95474Y25228D01*
X95479Y25237D01*
X95488Y25251D01*
X95502Y25275D01*
X95517Y25308D01*
X95526Y25341D01*
X95531Y25383D01*
X95535Y25435D01*
Y25007D01*
X95526Y24979D01*
Y24974D01*
X95517Y24960D01*
X95507Y24941D01*
X95493Y24922D01*
X95446Y24871D01*
X95418Y24847D01*
X95385Y24824D01*
X95380D01*
X95366Y24814D01*
X95347Y24809D01*
X95324Y24800D01*
X95291Y24791D01*
X95249Y24781D01*
X95206Y24776D01*
X95159Y24772D01*
X95136D01*
X95117Y24776D01*
X95070Y24781D01*
X95018Y24791D01*
X94952Y24809D01*
X94891Y24838D01*
X94830Y24871D01*
X94774Y24922D01*
X94769Y24932D01*
X94755Y24950D01*
X94731Y24988D01*
X94713Y25035D01*
X94689Y25101D01*
X94666Y25176D01*
X94652Y25270D01*
X94647Y25374D01*
Y25378D01*
Y25388D01*
Y25406D01*
X94652Y25430D01*
Y25463D01*
X94656Y25496D01*
X94670Y25571D01*
X94689Y25660D01*
X94722Y25745D01*
X94764Y25830D01*
X94821Y25905D01*
X94830Y25914D01*
X94854Y25933D01*
X94896Y25961D01*
X94952Y25999D01*
X95023Y26032D01*
X95112Y26060D01*
X95216Y26079D01*
X95333Y26088D01*
X95535D01*
Y25707D01*
X95578D01*
X95549Y26088D01*
X95535D01*
Y26352D01*
Y26356D01*
Y26370D01*
X95531Y26389D01*
Y26413D01*
X95512Y26469D01*
X95498Y26493D01*
X95479Y26516D01*
X95474Y26521D01*
X95470Y26525D01*
X95455Y26535D01*
X95437Y26549D01*
X95413Y26558D01*
X95390Y26568D01*
X95357Y26572D01*
X95319Y26577D01*
X95305D01*
X95286Y26572D01*
X95267Y26568D01*
X95220Y26554D01*
X95197Y26535D01*
X95178Y26516D01*
Y26511D01*
X95169Y26507D01*
X95164Y26493D01*
X95155Y26474D01*
X95145Y26450D01*
X95136Y26422D01*
X95131Y26389D01*
X95126Y26352D01*
X94689D01*
Y26356D01*
Y26366D01*
Y26380D01*
X94694Y26403D01*
X94699Y26455D01*
X94708Y26521D01*
X94731Y26596D01*
X94760Y26676D01*
X94797Y26751D01*
X94854Y26817D01*
X94863Y26826D01*
X94887Y26845D01*
X94924Y26869D01*
X94976Y26902D01*
X95046Y26930D01*
X95126Y26958D01*
X95220Y26977D01*
X95329Y26982D01*
X95361D01*
X95399Y26977D01*
D02*
G37*
G36*
X97693Y24800D02*
X97247D01*
Y25063D01*
X97251Y25073D01*
X97266Y25106D01*
X97270Y25129D01*
X97275Y25139D01*
X97247Y25374D01*
Y26944D01*
X97693D01*
Y24800D01*
D02*
G37*
G36*
X99687Y26521D02*
X100133D01*
Y25397D01*
Y25392D01*
Y25383D01*
Y25369D01*
X100138Y25350D01*
X100148Y25308D01*
X100171Y25270D01*
X100181Y25261D01*
X100199Y25247D01*
X100232Y25233D01*
X100279Y25223D01*
X100430D01*
Y24791D01*
X100190D01*
X100171Y24795D01*
X100124Y24800D01*
X100063Y24809D01*
X99997Y24824D01*
X99931Y24852D01*
X99866Y24885D01*
X99814Y24932D01*
X99809Y24936D01*
X99795Y24960D01*
X99771Y24993D01*
X99753Y25040D01*
X99729Y25096D01*
X99706Y25171D01*
X99692Y25256D01*
X99687Y25355D01*
Y26521D01*
X99480D01*
Y26944D01*
X99687D01*
Y26521D01*
D02*
G37*
G36*
X101577Y27828D02*
X101633Y27823D01*
X101699Y27814D01*
X101765Y27795D01*
X101835Y27776D01*
X101901Y27748D01*
X101911Y27743D01*
X101929Y27734D01*
X101958Y27710D01*
X101995Y27687D01*
X102038Y27649D01*
X102080Y27607D01*
X102122Y27555D01*
X102160Y27499D01*
X102165Y27489D01*
X102174Y27470D01*
X102188Y27433D01*
X102207Y27386D01*
X102221Y27329D01*
X102235Y27264D01*
X102244Y27188D01*
X102249Y27104D01*
Y25496D01*
Y25491D01*
Y25486D01*
Y25458D01*
X102244Y25416D01*
X102240Y25359D01*
X102226Y25298D01*
X102212Y25233D01*
X102188Y25167D01*
X102160Y25101D01*
X102155Y25096D01*
X102146Y25073D01*
X102122Y25044D01*
X102094Y25012D01*
X102056Y24969D01*
X102014Y24932D01*
X101962Y24889D01*
X101901Y24856D01*
X101892Y24852D01*
X101873Y24842D01*
X101835Y24828D01*
X101788Y24814D01*
X101727Y24800D01*
X101657Y24786D01*
X101577Y24776D01*
X101492Y24772D01*
X101455D01*
X101408Y24776D01*
X101351Y24781D01*
X101290Y24791D01*
X101220Y24809D01*
X101149Y24828D01*
X101083Y24856D01*
X101074Y24861D01*
X101055Y24871D01*
X101027Y24894D01*
X100989Y24918D01*
X100947Y24955D01*
X100905Y24997D01*
X100862Y25044D01*
X100825Y25101D01*
X100820Y25110D01*
X100811Y25129D01*
X100796Y25167D01*
X100782Y25214D01*
X100764Y25270D01*
X100749Y25336D01*
X100740Y25411D01*
X100735Y25496D01*
Y27104D01*
Y27108D01*
Y27113D01*
Y27141D01*
X100740Y27184D01*
X100745Y27240D01*
X100759Y27301D01*
X100773Y27367D01*
X100796Y27433D01*
X100825Y27499D01*
X100829Y27508D01*
X100843Y27527D01*
X100862Y27555D01*
X100890Y27593D01*
X100928Y27630D01*
X100970Y27673D01*
X101022Y27715D01*
X101083Y27748D01*
X101093Y27753D01*
X101116Y27762D01*
X101149Y27776D01*
X101201Y27790D01*
X101262Y27804D01*
X101328Y27818D01*
X101408Y27828D01*
X101492Y27832D01*
X101535D01*
X101577Y27828D01*
D02*
G37*
G36*
X96852Y25364D02*
Y25359D01*
Y25350D01*
X96857Y25331D01*
Y25308D01*
X96871Y25261D01*
X96899Y25214D01*
X96904D01*
X96908Y25204D01*
X96922Y25200D01*
X96936Y25190D01*
X96983Y25176D01*
X97049Y25167D01*
X97063D01*
X97082Y25171D01*
X97106D01*
X97153Y25190D01*
X97176Y25200D01*
X97195Y25218D01*
X97200Y25223D01*
X97204Y25228D01*
X97214Y25242D01*
X97223Y25256D01*
X97233Y25280D01*
X97237Y25308D01*
X97247Y25336D01*
Y25063D01*
X97233Y25035D01*
X97186Y24941D01*
X97153Y24899D01*
X97120Y24861D01*
X97115Y24856D01*
X97101Y24847D01*
X97082Y24833D01*
X97054Y24819D01*
X97016Y24800D01*
X96974Y24786D01*
X96922Y24776D01*
X96871Y24772D01*
X96861D01*
X96833Y24776D01*
X96791Y24781D01*
X96739Y24791D01*
X96683Y24809D01*
X96621Y24833D01*
X96565Y24871D01*
X96518Y24918D01*
X96513Y24922D01*
X96499Y24946D01*
X96480Y24979D01*
X96462Y25026D01*
X96443Y25091D01*
X96424Y25167D01*
X96410Y25256D01*
X96405Y25359D01*
Y26944D01*
X96852D01*
Y25364D01*
D02*
G37*
G36*
X74932Y63500D02*
X72125D01*
Y64931D01*
X74932D01*
Y63500D01*
D02*
G37*
G36*
X75086Y61325D02*
X71875D01*
Y62756D01*
X75086D01*
Y61325D01*
D02*
G37*
G36*
X104433Y24099D02*
X104446D01*
X104481Y24095D01*
X104520Y24090D01*
X104561Y24080D01*
X104605Y24069D01*
X104646Y24055D01*
X104648D01*
X104652Y24053D01*
X104657Y24049D01*
X104665Y24045D01*
X104683Y24036D01*
X104707Y24019D01*
X104735Y24001D01*
X104763Y23977D01*
X104789Y23949D01*
X104813Y23917D01*
Y23916D01*
X104815Y23914D01*
X104818Y23908D01*
X104822Y23903D01*
X104831Y23884D01*
X104842Y23860D01*
X104855Y23830D01*
X104865Y23795D01*
X104874Y23758D01*
X104877Y23717D01*
X104715Y23705D01*
Y23706D01*
Y23710D01*
X104713Y23716D01*
X104711Y23725D01*
X104705Y23745D01*
X104698Y23773D01*
X104687Y23803D01*
X104670Y23832D01*
X104650Y23860D01*
X104624Y23886D01*
X104620Y23888D01*
X104611Y23895D01*
X104592Y23906D01*
X104568Y23917D01*
X104537Y23929D01*
X104500Y23940D01*
X104453Y23947D01*
X104402Y23949D01*
X104376D01*
X104365Y23947D01*
X104350Y23945D01*
X104316Y23942D01*
X104279Y23934D01*
X104242Y23925D01*
X104207Y23910D01*
X104192Y23901D01*
X104178Y23892D01*
X104174Y23890D01*
X104166Y23882D01*
X104155Y23869D01*
X104144Y23855D01*
X104131Y23834D01*
X104120Y23812D01*
X104113Y23786D01*
X104109Y23756D01*
Y23753D01*
Y23745D01*
X104111Y23732D01*
X104115Y23717D01*
X104120Y23699D01*
X104129Y23680D01*
X104141Y23662D01*
X104157Y23643D01*
X104159Y23642D01*
X104168Y23636D01*
X104176Y23630D01*
X104183Y23627D01*
X104194Y23621D01*
X104207Y23614D01*
X104224Y23608D01*
X104242Y23601D01*
X104263Y23593D01*
X104287Y23584D01*
X104313Y23577D01*
X104342Y23568D01*
X104376Y23560D01*
X104413Y23551D01*
X104415D01*
X104422Y23549D01*
X104433Y23547D01*
X104446Y23543D01*
X104463Y23540D01*
X104483Y23534D01*
X104503Y23529D01*
X104526Y23523D01*
X104574Y23510D01*
X104620Y23497D01*
X104642Y23490D01*
X104663Y23482D01*
X104681Y23477D01*
X104696Y23469D01*
X104698D01*
X104702Y23468D01*
X104707Y23464D01*
X104715Y23460D01*
X104735Y23449D01*
X104759Y23434D01*
X104787Y23414D01*
X104815Y23392D01*
X104840Y23366D01*
X104863Y23338D01*
X104865Y23334D01*
X104872Y23325D01*
X104879Y23308D01*
X104890Y23286D01*
X104900Y23260D01*
X104909Y23229D01*
X104915Y23193D01*
X104916Y23156D01*
Y23155D01*
Y23153D01*
Y23147D01*
Y23140D01*
X104913Y23119D01*
X104909Y23093D01*
X104902Y23064D01*
X104892Y23032D01*
X104877Y22999D01*
X104857Y22964D01*
Y22962D01*
X104855Y22960D01*
X104846Y22949D01*
X104833Y22932D01*
X104815Y22914D01*
X104790Y22892D01*
X104761Y22868D01*
X104728Y22845D01*
X104689Y22825D01*
X104687D01*
X104683Y22823D01*
X104677Y22821D01*
X104670Y22818D01*
X104659Y22814D01*
X104646Y22808D01*
X104616Y22801D01*
X104581Y22792D01*
X104539Y22782D01*
X104492Y22777D01*
X104442Y22775D01*
X104413D01*
X104398Y22777D01*
X104381D01*
X104363Y22779D01*
X104340Y22781D01*
X104294Y22788D01*
X104246Y22795D01*
X104198Y22808D01*
X104152Y22825D01*
X104150D01*
X104146Y22827D01*
X104141Y22831D01*
X104133Y22834D01*
X104111Y22845D01*
X104085Y22862D01*
X104055Y22884D01*
X104024Y22910D01*
X103994Y22942D01*
X103966Y22977D01*
Y22979D01*
X103963Y22982D01*
X103961Y22988D01*
X103955Y22995D01*
X103952Y23005D01*
X103946Y23016D01*
X103933Y23043D01*
X103920Y23079D01*
X103909Y23118D01*
X103902Y23162D01*
X103898Y23208D01*
X104057Y23223D01*
Y23221D01*
Y23219D01*
X104059Y23214D01*
Y23206D01*
X104063Y23190D01*
X104068Y23166D01*
X104076Y23142D01*
X104083Y23114D01*
X104096Y23088D01*
X104109Y23064D01*
X104111Y23062D01*
X104116Y23055D01*
X104126Y23042D01*
X104141Y23029D01*
X104159Y23012D01*
X104179Y22995D01*
X104207Y22979D01*
X104237Y22964D01*
X104239D01*
X104241Y22962D01*
X104246Y22960D01*
X104252Y22958D01*
X104270Y22953D01*
X104294Y22945D01*
X104324Y22938D01*
X104357Y22932D01*
X104394Y22929D01*
X104435Y22927D01*
X104452D01*
X104470Y22929D01*
X104492Y22931D01*
X104518Y22934D01*
X104548Y22938D01*
X104578Y22945D01*
X104605Y22955D01*
X104609Y22956D01*
X104618Y22960D01*
X104631Y22968D01*
X104648Y22975D01*
X104665Y22988D01*
X104683Y23001D01*
X104702Y23016D01*
X104716Y23034D01*
X104718Y23036D01*
X104722Y23043D01*
X104728Y23053D01*
X104735Y23068D01*
X104742Y23082D01*
X104748Y23101D01*
X104752Y23121D01*
X104753Y23143D01*
Y23145D01*
Y23155D01*
X104752Y23166D01*
X104750Y23181D01*
X104744Y23195D01*
X104739Y23214D01*
X104729Y23232D01*
X104716Y23249D01*
X104715Y23251D01*
X104709Y23256D01*
X104702Y23264D01*
X104689Y23275D01*
X104674Y23286D01*
X104653Y23299D01*
X104629Y23312D01*
X104602Y23323D01*
X104600Y23325D01*
X104590Y23327D01*
X104576Y23332D01*
X104566Y23334D01*
X104553Y23338D01*
X104540Y23343D01*
X104524Y23347D01*
X104505Y23353D01*
X104483Y23358D01*
X104461Y23364D01*
X104435Y23371D01*
X104405Y23379D01*
X104374Y23386D01*
X104372D01*
X104366Y23388D01*
X104357Y23390D01*
X104346Y23393D01*
X104331Y23397D01*
X104315Y23401D01*
X104278Y23412D01*
X104237Y23425D01*
X104194Y23438D01*
X104157Y23451D01*
X104141Y23458D01*
X104126Y23466D01*
X104124D01*
X104122Y23468D01*
X104111Y23475D01*
X104094Y23484D01*
X104076Y23499D01*
X104053Y23516D01*
X104031Y23536D01*
X104009Y23560D01*
X103991Y23586D01*
X103989Y23590D01*
X103983Y23599D01*
X103976Y23614D01*
X103968Y23632D01*
X103961Y23656D01*
X103953Y23684D01*
X103948Y23714D01*
X103946Y23745D01*
Y23747D01*
Y23749D01*
Y23755D01*
Y23762D01*
X103950Y23780D01*
X103953Y23805D01*
X103959Y23832D01*
X103968Y23864D01*
X103981Y23895D01*
X104000Y23927D01*
Y23929D01*
X104002Y23930D01*
X104011Y23942D01*
X104024Y23956D01*
X104041Y23975D01*
X104063Y23995D01*
X104091Y24017D01*
X104124Y24038D01*
X104161Y24056D01*
X104163D01*
X104166Y24058D01*
X104172Y24060D01*
X104179Y24064D01*
X104189Y24067D01*
X104202Y24071D01*
X104229Y24079D01*
X104265Y24086D01*
X104305Y24093D01*
X104348Y24099D01*
X104396Y24101D01*
X104420D01*
X104433Y24099D01*
D02*
G37*
G36*
X101546D02*
X101559D01*
X101594Y24095D01*
X101633Y24090D01*
X101674Y24080D01*
X101719Y24069D01*
X101759Y24055D01*
X101761D01*
X101765Y24053D01*
X101770Y24049D01*
X101778Y24045D01*
X101796Y24036D01*
X101820Y24019D01*
X101848Y24001D01*
X101876Y23977D01*
X101902Y23949D01*
X101926Y23917D01*
Y23916D01*
X101928Y23914D01*
X101931Y23908D01*
X101935Y23903D01*
X101944Y23884D01*
X101956Y23860D01*
X101969Y23830D01*
X101978Y23795D01*
X101987Y23758D01*
X101991Y23717D01*
X101828Y23705D01*
Y23706D01*
Y23710D01*
X101826Y23716D01*
X101824Y23725D01*
X101819Y23745D01*
X101811Y23773D01*
X101800Y23803D01*
X101783Y23832D01*
X101763Y23860D01*
X101737Y23886D01*
X101733Y23888D01*
X101724Y23895D01*
X101706Y23906D01*
X101682Y23917D01*
X101650Y23929D01*
X101613Y23940D01*
X101567Y23947D01*
X101515Y23949D01*
X101489D01*
X101478Y23947D01*
X101463Y23945D01*
X101430Y23942D01*
X101393Y23934D01*
X101356Y23925D01*
X101320Y23910D01*
X101306Y23901D01*
X101291Y23892D01*
X101287Y23890D01*
X101280Y23882D01*
X101269Y23869D01*
X101257Y23855D01*
X101245Y23834D01*
X101233Y23812D01*
X101226Y23786D01*
X101222Y23756D01*
Y23753D01*
Y23745D01*
X101224Y23732D01*
X101228Y23717D01*
X101233Y23699D01*
X101243Y23680D01*
X101254Y23662D01*
X101270Y23643D01*
X101272Y23642D01*
X101282Y23636D01*
X101289Y23630D01*
X101296Y23627D01*
X101307Y23621D01*
X101320Y23614D01*
X101337Y23608D01*
X101356Y23601D01*
X101376Y23593D01*
X101400Y23584D01*
X101426Y23577D01*
X101456Y23568D01*
X101489Y23560D01*
X101526Y23551D01*
X101528D01*
X101535Y23549D01*
X101546Y23547D01*
X101559Y23543D01*
X101576Y23540D01*
X101596Y23534D01*
X101617Y23529D01*
X101639Y23523D01*
X101687Y23510D01*
X101733Y23497D01*
X101756Y23490D01*
X101776Y23482D01*
X101794Y23477D01*
X101809Y23469D01*
X101811D01*
X101815Y23468D01*
X101820Y23464D01*
X101828Y23460D01*
X101848Y23449D01*
X101872Y23434D01*
X101900Y23414D01*
X101928Y23392D01*
X101954Y23366D01*
X101976Y23338D01*
X101978Y23334D01*
X101985Y23325D01*
X101993Y23308D01*
X102004Y23286D01*
X102013Y23260D01*
X102022Y23229D01*
X102028Y23193D01*
X102030Y23156D01*
Y23155D01*
Y23153D01*
Y23147D01*
Y23140D01*
X102026Y23119D01*
X102022Y23093D01*
X102015Y23064D01*
X102006Y23032D01*
X101991Y22999D01*
X101970Y22964D01*
Y22962D01*
X101969Y22960D01*
X101959Y22949D01*
X101946Y22932D01*
X101928Y22914D01*
X101904Y22892D01*
X101874Y22868D01*
X101841Y22845D01*
X101802Y22825D01*
X101800D01*
X101796Y22823D01*
X101791Y22821D01*
X101783Y22818D01*
X101772Y22814D01*
X101759Y22808D01*
X101730Y22801D01*
X101694Y22792D01*
X101652Y22782D01*
X101606Y22777D01*
X101556Y22775D01*
X101526D01*
X101511Y22777D01*
X101494D01*
X101476Y22779D01*
X101454Y22781D01*
X101407Y22788D01*
X101359Y22795D01*
X101311Y22808D01*
X101265Y22825D01*
X101263D01*
X101259Y22827D01*
X101254Y22831D01*
X101246Y22834D01*
X101224Y22845D01*
X101198Y22862D01*
X101169Y22884D01*
X101137Y22910D01*
X101107Y22942D01*
X101080Y22977D01*
Y22979D01*
X101076Y22982D01*
X101074Y22988D01*
X101069Y22995D01*
X101065Y23005D01*
X101059Y23016D01*
X101046Y23043D01*
X101033Y23079D01*
X101022Y23118D01*
X101015Y23162D01*
X101011Y23208D01*
X101170Y23223D01*
Y23221D01*
Y23219D01*
X101172Y23214D01*
Y23206D01*
X101176Y23190D01*
X101182Y23166D01*
X101189Y23142D01*
X101196Y23114D01*
X101209Y23088D01*
X101222Y23064D01*
X101224Y23062D01*
X101230Y23055D01*
X101239Y23042D01*
X101254Y23029D01*
X101272Y23012D01*
X101293Y22995D01*
X101320Y22979D01*
X101350Y22964D01*
X101352D01*
X101354Y22962D01*
X101359Y22960D01*
X101365Y22958D01*
X101383Y22953D01*
X101407Y22945D01*
X101437Y22938D01*
X101470Y22932D01*
X101507Y22929D01*
X101548Y22927D01*
X101565D01*
X101583Y22929D01*
X101606Y22931D01*
X101632Y22934D01*
X101661Y22938D01*
X101691Y22945D01*
X101719Y22955D01*
X101722Y22956D01*
X101732Y22960D01*
X101744Y22968D01*
X101761Y22975D01*
X101778Y22988D01*
X101796Y23001D01*
X101815Y23016D01*
X101830Y23034D01*
X101831Y23036D01*
X101835Y23043D01*
X101841Y23053D01*
X101848Y23068D01*
X101856Y23082D01*
X101861Y23101D01*
X101865Y23121D01*
X101867Y23143D01*
Y23145D01*
Y23155D01*
X101865Y23166D01*
X101863Y23181D01*
X101857Y23195D01*
X101852Y23214D01*
X101843Y23232D01*
X101830Y23249D01*
X101828Y23251D01*
X101822Y23256D01*
X101815Y23264D01*
X101802Y23275D01*
X101787Y23286D01*
X101767Y23299D01*
X101743Y23312D01*
X101715Y23323D01*
X101713Y23325D01*
X101704Y23327D01*
X101689Y23332D01*
X101680Y23334D01*
X101667Y23338D01*
X101654Y23343D01*
X101637Y23347D01*
X101619Y23353D01*
X101596Y23358D01*
X101574Y23364D01*
X101548Y23371D01*
X101519Y23379D01*
X101487Y23386D01*
X101485D01*
X101480Y23388D01*
X101470Y23390D01*
X101459Y23393D01*
X101445Y23397D01*
X101428Y23401D01*
X101391Y23412D01*
X101350Y23425D01*
X101307Y23438D01*
X101270Y23451D01*
X101254Y23458D01*
X101239Y23466D01*
X101237D01*
X101235Y23468D01*
X101224Y23475D01*
X101207Y23484D01*
X101189Y23499D01*
X101167Y23516D01*
X101145Y23536D01*
X101122Y23560D01*
X101104Y23586D01*
X101102Y23590D01*
X101096Y23599D01*
X101089Y23614D01*
X101082Y23632D01*
X101074Y23656D01*
X101067Y23684D01*
X101061Y23714D01*
X101059Y23745D01*
Y23747D01*
Y23749D01*
Y23755D01*
Y23762D01*
X101063Y23780D01*
X101067Y23805D01*
X101072Y23832D01*
X101082Y23864D01*
X101095Y23895D01*
X101113Y23927D01*
Y23929D01*
X101115Y23930D01*
X101124Y23942D01*
X101137Y23956D01*
X101154Y23975D01*
X101176Y23995D01*
X101204Y24017D01*
X101237Y24038D01*
X101274Y24056D01*
X101276D01*
X101280Y24058D01*
X101285Y24060D01*
X101293Y24064D01*
X101302Y24067D01*
X101315Y24071D01*
X101343Y24079D01*
X101378Y24086D01*
X101419Y24093D01*
X101461Y24099D01*
X101509Y24101D01*
X101533D01*
X101546Y24099D01*
D02*
G37*
G36*
X106159Y22797D02*
X105988D01*
Y23401D01*
X105326D01*
Y22797D01*
X105155D01*
Y24079D01*
X105326D01*
Y23553D01*
X105988D01*
Y24079D01*
X106159D01*
Y22797D01*
D02*
G37*
G36*
X99591D02*
X99421D01*
Y23401D01*
X98758D01*
Y22797D01*
X98587D01*
Y24079D01*
X98758D01*
Y23553D01*
X99421D01*
Y24079D01*
X99591D01*
Y22797D01*
D02*
G37*
G36*
X93749D02*
X93571D01*
X93075Y24079D01*
X93260D01*
X93593Y23147D01*
Y23145D01*
X93595Y23142D01*
X93597Y23136D01*
X93601Y23129D01*
X93603Y23118D01*
X93606Y23106D01*
X93616Y23079D01*
X93627Y23047D01*
X93638Y23012D01*
X93660Y22938D01*
Y22940D01*
X93662Y22944D01*
X93664Y22949D01*
X93666Y22956D01*
X93671Y22977D01*
X93680Y23005D01*
X93690Y23036D01*
X93701Y23071D01*
X93714Y23108D01*
X93729Y23147D01*
X94077Y24079D01*
X94249D01*
X93749Y22797D01*
D02*
G37*
G36*
X108953Y23927D02*
X108531D01*
Y22797D01*
X108360D01*
Y23927D01*
X107938D01*
Y24079D01*
X108953D01*
Y23927D01*
D02*
G37*
G36*
X107814D02*
X107118D01*
Y23530D01*
X107720D01*
Y23379D01*
X107118D01*
Y22797D01*
X106948D01*
Y24079D01*
X107814D01*
Y23927D01*
D02*
G37*
G36*
X106640Y22797D02*
X106470D01*
Y24079D01*
X106640D01*
Y22797D01*
D02*
G37*
G36*
X103192Y23927D02*
X102435D01*
Y23536D01*
X103144D01*
Y23384D01*
X102435D01*
Y22949D01*
X103222D01*
Y22797D01*
X102265D01*
Y24079D01*
X103192D01*
Y23927D01*
D02*
G37*
G36*
X100932Y22797D02*
X100739D01*
X100589Y23186D01*
X100052D01*
X99913Y22797D01*
X99734D01*
X100222Y24079D01*
X100408D01*
X100932Y22797D01*
D02*
G37*
G36*
X97941Y24077D02*
X97973Y24075D01*
X98006Y24073D01*
X98037Y24069D01*
X98065Y24066D01*
X98069D01*
X98082Y24062D01*
X98099Y24058D01*
X98121Y24053D01*
X98145Y24043D01*
X98171Y24032D01*
X98199Y24019D01*
X98223Y24004D01*
X98226Y24003D01*
X98234Y23997D01*
X98245Y23986D01*
X98260Y23973D01*
X98276Y23956D01*
X98293Y23934D01*
X98312Y23910D01*
X98326Y23882D01*
X98328Y23879D01*
X98332Y23869D01*
X98339Y23853D01*
X98347Y23830D01*
X98352Y23805D01*
X98360Y23775D01*
X98363Y23742D01*
X98365Y23706D01*
Y23705D01*
Y23699D01*
Y23692D01*
X98363Y23679D01*
X98361Y23666D01*
X98360Y23649D01*
X98356Y23630D01*
X98352Y23610D01*
X98339Y23568D01*
X98332Y23545D01*
X98321Y23521D01*
X98308Y23497D01*
X98295Y23475D01*
X98278Y23453D01*
X98260Y23430D01*
X98258Y23429D01*
X98254Y23425D01*
X98249Y23419D01*
X98239Y23414D01*
X98228Y23405D01*
X98213Y23395D01*
X98195Y23384D01*
X98174Y23375D01*
X98150Y23364D01*
X98123Y23353D01*
X98093Y23343D01*
X98058Y23336D01*
X98021Y23329D01*
X97980Y23323D01*
X97934Y23319D01*
X97886Y23318D01*
X97558D01*
Y22797D01*
X97388D01*
Y24079D01*
X97913D01*
X97941Y24077D01*
D02*
G37*
G36*
X96208D02*
X96225D01*
X96264Y24075D01*
X96304Y24069D01*
X96349Y24064D01*
X96389Y24055D01*
X96410Y24049D01*
X96427Y24043D01*
X96428D01*
X96430Y24042D01*
X96441Y24036D01*
X96458Y24029D01*
X96478Y24016D01*
X96501Y23999D01*
X96525Y23977D01*
X96547Y23951D01*
X96569Y23921D01*
Y23919D01*
X96571Y23917D01*
X96578Y23906D01*
X96586Y23888D01*
X96597Y23864D01*
X96606Y23836D01*
X96615Y23803D01*
X96621Y23767D01*
X96623Y23729D01*
Y23727D01*
Y23723D01*
Y23716D01*
X96621Y23706D01*
Y23693D01*
X96619Y23680D01*
X96612Y23649D01*
X96601Y23612D01*
X96586Y23573D01*
X96564Y23534D01*
X96549Y23516D01*
X96534Y23497D01*
X96532Y23495D01*
X96530Y23493D01*
X96525Y23488D01*
X96517Y23482D01*
X96508Y23475D01*
X96497Y23468D01*
X96482Y23458D01*
X96467Y23447D01*
X96449Y23438D01*
X96428Y23429D01*
X96406Y23418D01*
X96382Y23408D01*
X96354Y23401D01*
X96327Y23392D01*
X96295Y23386D01*
X96262Y23380D01*
X96265Y23379D01*
X96273Y23375D01*
X96284Y23368D01*
X96299Y23360D01*
X96332Y23340D01*
X96349Y23327D01*
X96364Y23316D01*
X96367Y23312D01*
X96377Y23303D01*
X96391Y23288D01*
X96410Y23269D01*
X96430Y23243D01*
X96454Y23216D01*
X96478Y23182D01*
X96504Y23145D01*
X96725Y22797D01*
X96514D01*
X96345Y23064D01*
Y23066D01*
X96341Y23069D01*
X96338Y23075D01*
X96332Y23082D01*
X96319Y23103D01*
X96302Y23129D01*
X96282Y23156D01*
X96262Y23186D01*
X96241Y23214D01*
X96223Y23240D01*
X96221Y23242D01*
X96215Y23249D01*
X96206Y23260D01*
X96193Y23273D01*
X96165Y23301D01*
X96151Y23314D01*
X96136Y23325D01*
X96134Y23327D01*
X96130Y23329D01*
X96123Y23332D01*
X96112Y23338D01*
X96101Y23343D01*
X96088Y23349D01*
X96058Y23358D01*
X96056D01*
X96052Y23360D01*
X96045D01*
X96036Y23362D01*
X96023Y23364D01*
X96008D01*
X95988Y23366D01*
X95769D01*
Y22797D01*
X95599D01*
Y24079D01*
X96193D01*
X96208Y24077D01*
D02*
G37*
G36*
X95460Y22797D02*
X95267D01*
X95117Y23186D01*
X94580D01*
X94442Y22797D01*
X94262D01*
X94751Y24079D01*
X94936D01*
X95460Y22797D01*
D02*
G37*
G36*
X81238Y76050D02*
X78337D01*
Y77498D01*
X81238D01*
Y76050D01*
D02*
G37*
G36*
X76874D02*
X72846D01*
Y77498D01*
X76874D01*
Y76050D01*
D02*
G37*
G36*
X71354D02*
X67356D01*
Y77498D01*
X71354D01*
Y76050D01*
D02*
G37*
G36*
X65252D02*
X61865D01*
Y77498D01*
X65252D01*
Y76050D01*
D02*
G37*
G36*
X59962D02*
X56375D01*
Y77498D01*
X59962D01*
Y76050D01*
D02*
G37*
G36*
X82961Y14629D02*
X77125D01*
Y16600D01*
X82961D01*
Y14629D01*
D02*
G37*
%LPC*%
G36*
X63398Y43236D02*
X63370D01*
X63287Y43233D01*
X63212Y43228D01*
X63148Y43216D01*
X63117Y43211D01*
X63092Y43205D01*
X63070Y43200D01*
X63051Y43194D01*
X63034Y43189D01*
X63020Y43183D01*
X63009Y43180D01*
X63001Y43178D01*
X62998Y43175D01*
X62995D01*
X62948Y43150D01*
X62906Y43125D01*
X62870Y43097D01*
X62842Y43072D01*
X62820Y43047D01*
X62803Y43028D01*
X62792Y43017D01*
X62790Y43011D01*
X62767Y42972D01*
X62751Y42933D01*
X62740Y42894D01*
X62731Y42861D01*
X62726Y42833D01*
X62723Y42808D01*
Y42795D01*
Y42792D01*
Y42789D01*
X62726Y42756D01*
X62729Y42725D01*
X62742Y42670D01*
X62765Y42620D01*
X62790Y42578D01*
X62812Y42542D01*
X62834Y42517D01*
X62848Y42503D01*
X62853Y42500D01*
Y42497D01*
X62881Y42475D01*
X62912Y42456D01*
X62978Y42420D01*
X63051Y42389D01*
X63126Y42361D01*
X63159Y42350D01*
X63189Y42342D01*
X63220Y42334D01*
X63245Y42325D01*
X63264Y42323D01*
X63281Y42317D01*
X63292Y42314D01*
X63295D01*
X63328Y42306D01*
X63359Y42298D01*
X63386Y42292D01*
X63411Y42284D01*
X63453Y42267D01*
X63486Y42253D01*
X63509Y42242D01*
X63525Y42234D01*
X63534Y42228D01*
X63536Y42225D01*
X63553Y42209D01*
X63567Y42189D01*
X63575Y42173D01*
X63584Y42156D01*
X63586Y42142D01*
X63589Y42131D01*
Y42123D01*
Y42120D01*
X63586Y42098D01*
X63581Y42075D01*
X63572Y42056D01*
X63561Y42039D01*
X63550Y42028D01*
X63542Y42017D01*
X63536Y42012D01*
X63534Y42009D01*
X63511Y41995D01*
X63486Y41984D01*
X63461Y41976D01*
X63436Y41970D01*
X63411Y41967D01*
X63395Y41964D01*
X63378D01*
X63331Y41967D01*
X63289Y41978D01*
X63253Y41992D01*
X63223Y42012D01*
X63200Y42028D01*
X63184Y42042D01*
X63173Y42053D01*
X63170Y42056D01*
X63156Y42078D01*
X63142Y42106D01*
X63126Y42162D01*
X63117Y42184D01*
X63114Y42203D01*
X63112Y42217D01*
Y42223D01*
X62665Y42192D01*
X62670Y42150D01*
X62679Y42109D01*
X62698Y42037D01*
X62726Y41970D01*
X62756Y41914D01*
X62770Y41892D01*
X62784Y41870D01*
X62798Y41853D01*
X62809Y41839D01*
X62817Y41828D01*
X62826Y41820D01*
X62828Y41815D01*
X62831Y41812D01*
X62862Y41787D01*
X62898Y41765D01*
X62937Y41742D01*
X62978Y41726D01*
X63067Y41701D01*
X63156Y41684D01*
X63200Y41676D01*
X63239Y41673D01*
X63275Y41670D01*
X63306Y41667D01*
X63334Y41665D01*
X63370D01*
X63450Y41667D01*
X63520Y41673D01*
X63584Y41684D01*
X63636Y41695D01*
X63659Y41701D01*
X63678Y41706D01*
X63697Y41712D01*
X63711Y41717D01*
X63722Y41720D01*
X63731Y41723D01*
X63734Y41726D01*
X63736D01*
X63789Y41753D01*
X63833Y41781D01*
X63872Y41812D01*
X63906Y41842D01*
X63931Y41870D01*
X63950Y41892D01*
X63961Y41906D01*
X63964Y41912D01*
X63992Y41959D01*
X64011Y42006D01*
X64028Y42053D01*
X64036Y42095D01*
X64042Y42131D01*
X64047Y42159D01*
Y42184D01*
X64044Y42228D01*
X64039Y42273D01*
X64028Y42309D01*
X64017Y42342D01*
X64006Y42370D01*
X63994Y42392D01*
X63989Y42403D01*
X63986Y42409D01*
X63961Y42445D01*
X63931Y42478D01*
X63897Y42506D01*
X63867Y42531D01*
X63836Y42550D01*
X63814Y42564D01*
X63797Y42572D01*
X63795Y42575D01*
X63792D01*
X63764Y42589D01*
X63734Y42600D01*
X63667Y42625D01*
X63592Y42650D01*
X63520Y42670D01*
X63486Y42678D01*
X63453Y42686D01*
X63423Y42695D01*
X63398Y42700D01*
X63378Y42706D01*
X63361Y42708D01*
X63350Y42711D01*
X63348D01*
X63306Y42720D01*
X63273Y42731D01*
X63245Y42739D01*
X63225Y42747D01*
X63209Y42756D01*
X63200Y42761D01*
X63195Y42767D01*
X63192D01*
X63181Y42778D01*
X63173Y42789D01*
X63164Y42811D01*
X63159Y42828D01*
Y42831D01*
Y42833D01*
X63162Y42850D01*
X63164Y42867D01*
X63178Y42894D01*
X63192Y42911D01*
X63195Y42914D01*
X63198Y42917D01*
X63214Y42928D01*
X63234Y42939D01*
X63275Y42947D01*
X63295Y42950D01*
X63309Y42953D01*
X63323D01*
X63359Y42950D01*
X63389Y42944D01*
X63417Y42939D01*
X63439Y42931D01*
X63456Y42919D01*
X63467Y42914D01*
X63475Y42908D01*
X63478Y42906D01*
X63498Y42886D01*
X63514Y42861D01*
X63525Y42836D01*
X63536Y42814D01*
X63545Y42792D01*
X63550Y42772D01*
X63553Y42761D01*
Y42756D01*
X63997Y42781D01*
X63989Y42822D01*
X63981Y42864D01*
X63969Y42900D01*
X63956Y42933D01*
X63942Y42964D01*
X63925Y42994D01*
X63911Y43019D01*
X63895Y43042D01*
X63864Y43078D01*
X63839Y43105D01*
X63820Y43119D01*
X63817Y43125D01*
X63814D01*
X63783Y43144D01*
X63750Y43161D01*
X63681Y43189D01*
X63606Y43208D01*
X63534Y43222D01*
X63500Y43228D01*
X63470Y43230D01*
X63442Y43233D01*
X63417D01*
X63398Y43236D01*
D02*
G37*
G36*
X60782Y43211D02*
X60310D01*
Y42681D01*
X59794D01*
Y43211D01*
X59325D01*
Y41690D01*
X59794D01*
Y42306D01*
X60310D01*
Y41690D01*
X60782D01*
Y43211D01*
D02*
G37*
G36*
X65544D02*
X64283D01*
Y41690D01*
X65566D01*
Y42034D01*
X64755D01*
Y42334D01*
X65485D01*
Y42645D01*
X64755D01*
Y42886D01*
X65544D01*
Y43211D01*
D02*
G37*
G36*
X62026D02*
X61510D01*
X60941Y41690D01*
X61421D01*
X61496Y41939D01*
X62029D01*
X62104Y41690D01*
X62598D01*
X62026Y43211D01*
D02*
G37*
G36*
X58589D02*
X57784D01*
Y41690D01*
X58256D01*
Y42256D01*
X58511D01*
X58564Y42259D01*
X58611Y42261D01*
X58656Y42267D01*
X58697Y42275D01*
X58736Y42286D01*
X58772Y42298D01*
X58803Y42309D01*
X58831Y42320D01*
X58856Y42331D01*
X58878Y42342D01*
X58895Y42353D01*
X58911Y42364D01*
X58922Y42373D01*
X58931Y42378D01*
X58933Y42384D01*
X58936D01*
X58961Y42409D01*
X58983Y42436D01*
X59000Y42464D01*
X59017Y42495D01*
X59042Y42556D01*
X59058Y42614D01*
X59067Y42664D01*
X59072Y42686D01*
Y42706D01*
X59075Y42722D01*
Y42786D01*
X59069Y42822D01*
X59056Y42892D01*
X59033Y42950D01*
X59011Y43000D01*
X58989Y43039D01*
X58967Y43067D01*
X58958Y43075D01*
X58953Y43083D01*
X58950Y43089D01*
X58947D01*
X58922Y43111D01*
X58895Y43130D01*
X58833Y43158D01*
X58770Y43180D01*
X58709Y43197D01*
X58653Y43205D01*
X58628Y43208D01*
X58606D01*
X58589Y43211D01*
D02*
G37*
G36*
X60229Y41360D02*
X60201D01*
X60117Y41358D01*
X60043Y41352D01*
X59979Y41341D01*
X59948Y41335D01*
X59923Y41330D01*
X59901Y41324D01*
X59882Y41319D01*
X59865Y41313D01*
X59851Y41308D01*
X59840Y41305D01*
X59832Y41302D01*
X59829Y41299D01*
X59826D01*
X59779Y41274D01*
X59737Y41249D01*
X59701Y41222D01*
X59673Y41197D01*
X59651Y41172D01*
X59634Y41152D01*
X59623Y41141D01*
X59621Y41135D01*
X59598Y41097D01*
X59582Y41058D01*
X59571Y41019D01*
X59562Y40986D01*
X59557Y40958D01*
X59554Y40933D01*
Y40919D01*
Y40916D01*
Y40913D01*
X59557Y40880D01*
X59559Y40849D01*
X59573Y40794D01*
X59596Y40744D01*
X59621Y40702D01*
X59643Y40666D01*
X59665Y40641D01*
X59679Y40627D01*
X59684Y40625D01*
Y40622D01*
X59712Y40600D01*
X59743Y40580D01*
X59809Y40544D01*
X59882Y40514D01*
X59956Y40486D01*
X59990Y40475D01*
X60020Y40466D01*
X60051Y40458D01*
X60076Y40450D01*
X60095Y40447D01*
X60112Y40441D01*
X60123Y40439D01*
X60126D01*
X60159Y40430D01*
X60190Y40422D01*
X60217Y40416D01*
X60242Y40408D01*
X60284Y40391D01*
X60317Y40378D01*
X60340Y40366D01*
X60356Y40358D01*
X60365Y40353D01*
X60367Y40350D01*
X60384Y40333D01*
X60398Y40314D01*
X60406Y40297D01*
X60415Y40280D01*
X60417Y40266D01*
X60420Y40255D01*
Y40247D01*
Y40244D01*
X60417Y40222D01*
X60412Y40200D01*
X60403Y40180D01*
X60392Y40164D01*
X60381Y40153D01*
X60373Y40142D01*
X60367Y40136D01*
X60365Y40133D01*
X60342Y40119D01*
X60317Y40108D01*
X60292Y40100D01*
X60267Y40094D01*
X60242Y40092D01*
X60226Y40089D01*
X60209D01*
X60162Y40092D01*
X60120Y40103D01*
X60084Y40117D01*
X60054Y40136D01*
X60031Y40153D01*
X60015Y40167D01*
X60004Y40178D01*
X60001Y40180D01*
X59987Y40203D01*
X59973Y40230D01*
X59956Y40286D01*
X59948Y40308D01*
X59945Y40328D01*
X59943Y40341D01*
Y40347D01*
X59496Y40316D01*
X59501Y40275D01*
X59509Y40233D01*
X59529Y40161D01*
X59557Y40094D01*
X59587Y40039D01*
X59601Y40017D01*
X59615Y39994D01*
X59629Y39978D01*
X59640Y39964D01*
X59648Y39953D01*
X59657Y39944D01*
X59659Y39939D01*
X59662Y39936D01*
X59693Y39911D01*
X59729Y39889D01*
X59768Y39867D01*
X59809Y39850D01*
X59898Y39825D01*
X59987Y39808D01*
X60031Y39800D01*
X60070Y39797D01*
X60106Y39795D01*
X60137Y39792D01*
X60165Y39789D01*
X60201D01*
X60281Y39792D01*
X60351Y39797D01*
X60415Y39808D01*
X60467Y39820D01*
X60489Y39825D01*
X60509Y39831D01*
X60528Y39836D01*
X60542Y39842D01*
X60553Y39845D01*
X60562Y39847D01*
X60564Y39850D01*
X60567D01*
X60620Y39878D01*
X60664Y39906D01*
X60703Y39936D01*
X60737Y39967D01*
X60762Y39994D01*
X60781Y40017D01*
X60792Y40031D01*
X60795Y40036D01*
X60823Y40083D01*
X60842Y40130D01*
X60859Y40178D01*
X60867Y40219D01*
X60873Y40255D01*
X60878Y40283D01*
Y40308D01*
X60875Y40353D01*
X60870Y40397D01*
X60859Y40433D01*
X60848Y40466D01*
X60837Y40494D01*
X60825Y40516D01*
X60820Y40527D01*
X60817Y40533D01*
X60792Y40569D01*
X60762Y40602D01*
X60728Y40630D01*
X60698Y40655D01*
X60667Y40675D01*
X60645Y40688D01*
X60628Y40697D01*
X60626Y40700D01*
X60623D01*
X60595Y40713D01*
X60564Y40725D01*
X60498Y40750D01*
X60423Y40775D01*
X60351Y40794D01*
X60317Y40802D01*
X60284Y40811D01*
X60254Y40819D01*
X60229Y40825D01*
X60209Y40830D01*
X60192Y40833D01*
X60181Y40836D01*
X60179D01*
X60137Y40844D01*
X60104Y40855D01*
X60076Y40863D01*
X60056Y40872D01*
X60040Y40880D01*
X60031Y40886D01*
X60026Y40891D01*
X60023D01*
X60012Y40902D01*
X60004Y40913D01*
X59995Y40936D01*
X59990Y40952D01*
Y40955D01*
Y40958D01*
X59993Y40974D01*
X59995Y40991D01*
X60009Y41019D01*
X60023Y41035D01*
X60026Y41038D01*
X60029Y41041D01*
X60045Y41052D01*
X60065Y41063D01*
X60106Y41072D01*
X60126Y41074D01*
X60140Y41077D01*
X60154D01*
X60190Y41074D01*
X60220Y41069D01*
X60248Y41063D01*
X60270Y41055D01*
X60287Y41044D01*
X60298Y41038D01*
X60306Y41033D01*
X60309Y41030D01*
X60328Y41011D01*
X60345Y40986D01*
X60356Y40961D01*
X60367Y40938D01*
X60376Y40916D01*
X60381Y40897D01*
X60384Y40886D01*
Y40880D01*
X60828Y40905D01*
X60820Y40947D01*
X60812Y40988D01*
X60800Y41024D01*
X60787Y41058D01*
X60773Y41088D01*
X60756Y41119D01*
X60742Y41144D01*
X60725Y41166D01*
X60695Y41202D01*
X60670Y41230D01*
X60651Y41244D01*
X60648Y41249D01*
X60645D01*
X60614Y41269D01*
X60581Y41285D01*
X60512Y41313D01*
X60437Y41333D01*
X60365Y41346D01*
X60331Y41352D01*
X60301Y41355D01*
X60273Y41358D01*
X60248D01*
X60229Y41360D01*
D02*
G37*
G36*
X63119Y41335D02*
X62649D01*
Y39814D01*
X63854D01*
Y40189D01*
X63119D01*
Y41335D01*
D02*
G37*
G36*
X62375D02*
X61114D01*
Y39814D01*
X62397D01*
Y40158D01*
X61586D01*
Y40458D01*
X62316D01*
Y40769D01*
X61586D01*
Y41011D01*
X62375D01*
Y41335D01*
D02*
G37*
%LPD*%
G36*
X61929Y42270D02*
X61596D01*
X61762Y42814D01*
X61929Y42270D01*
D02*
G37*
G36*
X58434Y42900D02*
X58473Y42894D01*
X58503Y42886D01*
X58528Y42878D01*
X58545Y42869D01*
X58559Y42861D01*
X58564Y42856D01*
X58567Y42853D01*
X58584Y42833D01*
X58595Y42814D01*
X58606Y42792D01*
X58611Y42772D01*
X58614Y42756D01*
X58617Y42742D01*
Y42733D01*
Y42731D01*
X58614Y42703D01*
X58609Y42681D01*
X58600Y42658D01*
X58589Y42642D01*
X58578Y42628D01*
X58570Y42617D01*
X58564Y42611D01*
X58561Y42609D01*
X58536Y42595D01*
X58509Y42584D01*
X58475Y42575D01*
X58445Y42570D01*
X58417Y42567D01*
X58392Y42564D01*
X58256D01*
Y42903D01*
X58389D01*
X58434Y42900D01*
D02*
G37*
%LPC*%
G36*
X99571Y22199D02*
X99562D01*
X99557Y22198D01*
X99541Y22196D01*
X99523Y22192D01*
X99500Y22185D01*
X99476Y22175D01*
X99454Y22161D01*
X99431Y22143D01*
X99429Y22140D01*
X99423Y22133D01*
X99413Y22120D01*
X99403Y22103D01*
X99392Y22083D01*
X99382Y22058D01*
X99374Y22028D01*
X99369Y21996D01*
X99765D01*
Y21997D01*
Y22000D01*
X99764Y22004D01*
Y22010D01*
X99761Y22027D01*
X99757Y22045D01*
X99750Y22068D01*
X99743Y22089D01*
X99732Y22110D01*
X99719Y22128D01*
Y22130D01*
X99716Y22131D01*
X99709Y22140D01*
X99696Y22151D01*
X99679Y22164D01*
X99658Y22176D01*
X99633Y22188D01*
X99603Y22196D01*
X99588Y22198D01*
X99571Y22199D01*
D02*
G37*
G36*
X98130D02*
X98122D01*
X98116Y22198D01*
X98101Y22196D01*
X98082Y22192D01*
X98060Y22185D01*
X98036Y22175D01*
X98013Y22161D01*
X97991Y22143D01*
X97988Y22140D01*
X97982Y22133D01*
X97972Y22120D01*
X97962Y22103D01*
X97951Y22083D01*
X97941Y22058D01*
X97933Y22028D01*
X97929Y21996D01*
X98325D01*
Y21997D01*
Y22000D01*
X98323Y22004D01*
Y22010D01*
X98320Y22027D01*
X98316Y22045D01*
X98309Y22068D01*
X98302Y22089D01*
X98291Y22110D01*
X98278Y22128D01*
Y22130D01*
X98275Y22131D01*
X98268Y22140D01*
X98256Y22151D01*
X98239Y22164D01*
X98218Y22176D01*
X98192Y22188D01*
X98163Y22196D01*
X98147Y22198D01*
X98130Y22199D01*
D02*
G37*
G36*
X94265D02*
X94256D01*
X94251Y22198D01*
X94235Y22196D01*
X94217Y22192D01*
X94194Y22185D01*
X94170Y22175D01*
X94148Y22161D01*
X94125Y22143D01*
X94122Y22140D01*
X94117Y22133D01*
X94107Y22120D01*
X94097Y22103D01*
X94086Y22083D01*
X94076Y22058D01*
X94067Y22028D01*
X94063Y21996D01*
X94459D01*
Y21997D01*
Y22000D01*
X94458Y22004D01*
Y22010D01*
X94455Y22027D01*
X94451Y22045D01*
X94444Y22068D01*
X94437Y22089D01*
X94425Y22110D01*
X94413Y22128D01*
Y22130D01*
X94410Y22131D01*
X94403Y22140D01*
X94390Y22151D01*
X94373Y22164D01*
X94352Y22176D01*
X94327Y22188D01*
X94297Y22196D01*
X94282Y22198D01*
X94265Y22199D01*
D02*
G37*
G36*
X95490Y20995D02*
X95481D01*
X95476Y20993D01*
X95460Y20990D01*
X95442Y20986D01*
X95421Y20978D01*
X95398Y20965D01*
X95387Y20956D01*
X95376Y20948D01*
X95366Y20937D01*
X95356Y20924D01*
Y20923D01*
X95353Y20920D01*
X95350Y20914D01*
X95346Y20907D01*
X95342Y20896D01*
X95336Y20883D01*
X95332Y20868D01*
X95326Y20849D01*
X95321Y20828D01*
X95315Y20804D01*
X95309Y20777D01*
X95305Y20748D01*
X95301Y20714D01*
X95298Y20677D01*
X95297Y20638D01*
X95295Y20594D01*
Y20591D01*
Y20584D01*
Y20572D01*
X95297Y20555D01*
Y20536D01*
X95298Y20514D01*
X95300Y20490D01*
X95302Y20464D01*
X95309Y20410D01*
X95314Y20383D01*
X95319Y20357D01*
X95325Y20333D01*
X95333Y20311D01*
X95342Y20291D01*
X95352Y20274D01*
Y20273D01*
X95354Y20271D01*
X95362Y20261D01*
X95374Y20249D01*
X95390Y20235D01*
X95411Y20221D01*
X95435Y20208D01*
X95462Y20198D01*
X95476Y20197D01*
X95491Y20195D01*
X95500D01*
X95505Y20197D01*
X95519Y20199D01*
X95539Y20205D01*
X95560Y20215D01*
X95584Y20229D01*
X95596Y20238D01*
X95607Y20249D01*
X95618Y20260D01*
X95629Y20274D01*
Y20276D01*
X95632Y20278D01*
X95635Y20283D01*
X95638Y20290D01*
X95643Y20300D01*
X95648Y20312D01*
X95653Y20326D01*
X95659Y20343D01*
X95663Y20364D01*
X95669Y20387D01*
X95674Y20414D01*
X95679Y20442D01*
X95682Y20476D01*
X95684Y20511D01*
X95687Y20550D01*
Y20594D01*
Y20596D01*
Y20597D01*
Y20604D01*
Y20617D01*
X95686Y20634D01*
Y20652D01*
X95684Y20675D01*
X95683Y20698D01*
X95680Y20725D01*
X95673Y20779D01*
X95669Y20806D01*
X95663Y20831D01*
X95658Y20855D01*
X95649Y20878D01*
X95641Y20897D01*
X95631Y20914D01*
Y20916D01*
X95628Y20917D01*
X95625Y20921D01*
X95621Y20927D01*
X95608Y20940D01*
X95593Y20955D01*
X95572Y20969D01*
X95548Y20982D01*
X95535Y20987D01*
X95521Y20992D01*
X95505Y20993D01*
X95490Y20995D01*
D02*
G37*
G36*
X94352D02*
X94344D01*
X94338Y20993D01*
X94323Y20990D01*
X94304Y20986D01*
X94283Y20978D01*
X94261Y20965D01*
X94249Y20956D01*
X94238Y20948D01*
X94228Y20937D01*
X94218Y20924D01*
Y20923D01*
X94215Y20920D01*
X94213Y20914D01*
X94208Y20907D01*
X94204Y20896D01*
X94199Y20883D01*
X94194Y20868D01*
X94189Y20849D01*
X94183Y20828D01*
X94177Y20804D01*
X94172Y20777D01*
X94168Y20748D01*
X94163Y20714D01*
X94160Y20677D01*
X94159Y20638D01*
X94158Y20594D01*
Y20591D01*
Y20584D01*
Y20572D01*
X94159Y20555D01*
Y20536D01*
X94160Y20514D01*
X94162Y20490D01*
X94165Y20464D01*
X94172Y20410D01*
X94176Y20383D01*
X94182Y20357D01*
X94187Y20333D01*
X94196Y20311D01*
X94204Y20291D01*
X94214Y20274D01*
Y20273D01*
X94217Y20271D01*
X94224Y20261D01*
X94237Y20249D01*
X94252Y20235D01*
X94273Y20221D01*
X94297Y20208D01*
X94324Y20198D01*
X94338Y20197D01*
X94354Y20195D01*
X94362D01*
X94368Y20197D01*
X94382Y20199D01*
X94402Y20205D01*
X94423Y20215D01*
X94447Y20229D01*
X94458Y20238D01*
X94469Y20249D01*
X94480Y20260D01*
X94492Y20274D01*
Y20276D01*
X94495Y20278D01*
X94497Y20283D01*
X94500Y20290D01*
X94506Y20300D01*
X94510Y20312D01*
X94516Y20326D01*
X94521Y20343D01*
X94526Y20364D01*
X94531Y20387D01*
X94537Y20414D01*
X94541Y20442D01*
X94544Y20476D01*
X94547Y20511D01*
X94550Y20550D01*
Y20594D01*
Y20596D01*
Y20597D01*
Y20604D01*
Y20617D01*
X94548Y20634D01*
Y20652D01*
X94547Y20675D01*
X94545Y20698D01*
X94543Y20725D01*
X94535Y20779D01*
X94531Y20806D01*
X94526Y20831D01*
X94520Y20855D01*
X94511Y20878D01*
X94503Y20897D01*
X94493Y20914D01*
Y20916D01*
X94490Y20917D01*
X94488Y20921D01*
X94483Y20927D01*
X94471Y20940D01*
X94455Y20955D01*
X94434Y20969D01*
X94410Y20982D01*
X94397Y20987D01*
X94383Y20992D01*
X94368Y20993D01*
X94352Y20995D01*
D02*
G37*
G36*
X99630Y19803D02*
X99619D01*
X99606Y19800D01*
X99589Y19797D01*
X99571Y19792D01*
X99551Y19784D01*
X99533Y19773D01*
X99515Y19758D01*
X99513Y19756D01*
X99507Y19751D01*
X99500Y19741D01*
X99493Y19728D01*
X99485Y19713D01*
X99478Y19694D01*
X99472Y19674D01*
X99471Y19652D01*
Y19651D01*
Y19649D01*
X99472Y19641D01*
X99474Y19628D01*
X99476Y19612D01*
X99482Y19594D01*
X99489Y19576D01*
X99500Y19556D01*
X99515Y19539D01*
X99516Y19538D01*
X99523Y19532D01*
X99533Y19525D01*
X99546Y19518D01*
X99562Y19510D01*
X99582Y19503D01*
X99605Y19497D01*
X99630Y19495D01*
X99633D01*
X99641Y19497D01*
X99654Y19498D01*
X99671Y19501D01*
X99689Y19507D01*
X99708Y19514D01*
X99727Y19525D01*
X99744Y19539D01*
X99746Y19541D01*
X99751Y19548D01*
X99758Y19556D01*
X99767Y19569D01*
X99775Y19584D01*
X99782Y19603D01*
X99788Y19624D01*
X99789Y19646D01*
Y19648D01*
Y19649D01*
Y19658D01*
X99787Y19670D01*
X99784Y19686D01*
X99778Y19703D01*
X99770Y19721D01*
X99758Y19739D01*
X99743Y19758D01*
X99741Y19759D01*
X99734Y19765D01*
X99725Y19772D01*
X99712Y19780D01*
X99695Y19789D01*
X99677Y19796D01*
X99654Y19801D01*
X99630Y19803D01*
D02*
G37*
G36*
X99626Y19398D02*
X99617D01*
X99612Y19397D01*
X99596Y19395D01*
X99577Y19391D01*
X99554Y19384D01*
X99531Y19374D01*
X99507Y19360D01*
X99486Y19342D01*
X99483Y19339D01*
X99478Y19332D01*
X99469Y19319D01*
X99460Y19304D01*
X99448Y19283D01*
X99440Y19259D01*
X99434Y19232D01*
X99431Y19202D01*
Y19199D01*
Y19194D01*
X99433Y19184D01*
X99434Y19171D01*
X99437Y19156D01*
X99441Y19139D01*
X99447Y19122D01*
X99454Y19104D01*
X99455Y19102D01*
X99458Y19095D01*
X99464Y19087D01*
X99472Y19077D01*
X99482Y19064D01*
X99495Y19051D01*
X99509Y19040D01*
X99526Y19029D01*
X99529Y19027D01*
X99534Y19025D01*
X99544Y19020D01*
X99557Y19016D01*
X99572Y19012D01*
X99591Y19008D01*
X99610Y19005D01*
X99630Y19003D01*
X99639D01*
X99644Y19005D01*
X99661Y19006D01*
X99681Y19011D01*
X99703Y19018D01*
X99727Y19026D01*
X99750Y19040D01*
X99772Y19058D01*
X99775Y19061D01*
X99781Y19068D01*
X99791Y19081D01*
X99801Y19097D01*
X99811Y19116D01*
X99820Y19140D01*
X99826Y19168D01*
X99829Y19198D01*
Y19199D01*
Y19202D01*
Y19206D01*
X99827Y19212D01*
X99826Y19228D01*
X99822Y19249D01*
X99815Y19270D01*
X99805Y19294D01*
X99791Y19318D01*
X99771Y19340D01*
X99768Y19343D01*
X99761Y19349D01*
X99749Y19359D01*
X99732Y19370D01*
X99710Y19380D01*
X99685Y19390D01*
X99657Y19395D01*
X99626Y19398D01*
D02*
G37*
G36*
X98869Y19803D02*
X98860D01*
X98855Y19801D01*
X98839Y19799D01*
X98821Y19794D01*
X98800Y19786D01*
X98777Y19773D01*
X98766Y19765D01*
X98755Y19756D01*
X98745Y19745D01*
X98735Y19732D01*
Y19731D01*
X98732Y19728D01*
X98729Y19722D01*
X98725Y19715D01*
X98721Y19704D01*
X98715Y19691D01*
X98711Y19676D01*
X98705Y19658D01*
X98700Y19636D01*
X98694Y19612D01*
X98688Y19586D01*
X98684Y19556D01*
X98680Y19522D01*
X98677Y19486D01*
X98676Y19446D01*
X98674Y19402D01*
Y19400D01*
Y19393D01*
Y19380D01*
X98676Y19363D01*
Y19345D01*
X98677Y19322D01*
X98679Y19298D01*
X98681Y19273D01*
X98688Y19218D01*
X98693Y19191D01*
X98698Y19166D01*
X98704Y19142D01*
X98712Y19119D01*
X98721Y19099D01*
X98731Y19082D01*
Y19081D01*
X98734Y19080D01*
X98741Y19070D01*
X98753Y19057D01*
X98769Y19043D01*
X98790Y19029D01*
X98814Y19016D01*
X98841Y19006D01*
X98855Y19005D01*
X98870Y19003D01*
X98879D01*
X98884Y19005D01*
X98898Y19008D01*
X98918Y19013D01*
X98939Y19023D01*
X98963Y19037D01*
X98975Y19046D01*
X98986Y19057D01*
X98997Y19068D01*
X99008Y19082D01*
Y19084D01*
X99011Y19087D01*
X99014Y19091D01*
X99017Y19098D01*
X99023Y19108D01*
X99027Y19120D01*
X99032Y19135D01*
X99038Y19152D01*
X99042Y19173D01*
X99048Y19195D01*
X99054Y19222D01*
X99058Y19250D01*
X99061Y19284D01*
X99063Y19319D01*
X99066Y19359D01*
Y19402D01*
Y19404D01*
Y19405D01*
Y19412D01*
Y19425D01*
X99065Y19442D01*
Y19460D01*
X99063Y19483D01*
X99062Y19507D01*
X99059Y19534D01*
X99052Y19587D01*
X99048Y19614D01*
X99042Y19639D01*
X99037Y19663D01*
X99028Y19686D01*
X99020Y19706D01*
X99010Y19722D01*
Y19724D01*
X99007Y19725D01*
X99004Y19729D01*
X99000Y19735D01*
X98987Y19748D01*
X98972Y19763D01*
X98951Y19777D01*
X98927Y19790D01*
X98914Y19796D01*
X98900Y19800D01*
X98884Y19801D01*
X98869Y19803D01*
D02*
G37*
G36*
X97659D02*
X97648D01*
X97635Y19800D01*
X97618Y19797D01*
X97600Y19792D01*
X97580Y19784D01*
X97562Y19773D01*
X97544Y19758D01*
X97542Y19756D01*
X97537Y19751D01*
X97530Y19741D01*
X97523Y19728D01*
X97514Y19713D01*
X97507Y19694D01*
X97501Y19674D01*
X97500Y19652D01*
Y19651D01*
Y19649D01*
X97501Y19641D01*
X97503Y19628D01*
X97506Y19612D01*
X97511Y19594D01*
X97518Y19576D01*
X97530Y19556D01*
X97544Y19539D01*
X97545Y19538D01*
X97552Y19532D01*
X97562Y19525D01*
X97575Y19518D01*
X97592Y19510D01*
X97611Y19503D01*
X97634Y19497D01*
X97659Y19495D01*
X97662D01*
X97671Y19497D01*
X97683Y19498D01*
X97700Y19501D01*
X97719Y19507D01*
X97737Y19514D01*
X97757Y19525D01*
X97774Y19539D01*
X97775Y19541D01*
X97781Y19548D01*
X97788Y19556D01*
X97796Y19569D01*
X97805Y19584D01*
X97812Y19603D01*
X97817Y19624D01*
X97819Y19646D01*
Y19648D01*
Y19649D01*
Y19658D01*
X97816Y19670D01*
X97813Y19686D01*
X97807Y19703D01*
X97799Y19721D01*
X97788Y19739D01*
X97772Y19758D01*
X97771Y19759D01*
X97764Y19765D01*
X97754Y19772D01*
X97741Y19780D01*
X97724Y19789D01*
X97706Y19796D01*
X97683Y19801D01*
X97659Y19803D01*
D02*
G37*
G36*
X97655Y19398D02*
X97647D01*
X97641Y19397D01*
X97626Y19395D01*
X97606Y19391D01*
X97583Y19384D01*
X97561Y19374D01*
X97537Y19360D01*
X97516Y19342D01*
X97513Y19339D01*
X97507Y19332D01*
X97499Y19319D01*
X97489Y19304D01*
X97477Y19283D01*
X97469Y19259D01*
X97463Y19232D01*
X97461Y19202D01*
Y19199D01*
Y19194D01*
X97462Y19184D01*
X97463Y19171D01*
X97466Y19156D01*
X97470Y19139D01*
X97476Y19122D01*
X97483Y19104D01*
X97485Y19102D01*
X97487Y19095D01*
X97493Y19087D01*
X97501Y19077D01*
X97511Y19064D01*
X97524Y19051D01*
X97538Y19040D01*
X97555Y19029D01*
X97558Y19027D01*
X97563Y19025D01*
X97573Y19020D01*
X97586Y19016D01*
X97602Y19012D01*
X97620Y19008D01*
X97640Y19005D01*
X97659Y19003D01*
X97668D01*
X97673Y19005D01*
X97690Y19006D01*
X97710Y19011D01*
X97733Y19018D01*
X97757Y19026D01*
X97779Y19040D01*
X97802Y19058D01*
X97805Y19061D01*
X97810Y19068D01*
X97820Y19081D01*
X97830Y19097D01*
X97840Y19116D01*
X97850Y19140D01*
X97855Y19168D01*
X97858Y19198D01*
Y19199D01*
Y19202D01*
Y19206D01*
X97857Y19212D01*
X97855Y19228D01*
X97851Y19249D01*
X97844Y19270D01*
X97834Y19294D01*
X97820Y19318D01*
X97800Y19340D01*
X97798Y19343D01*
X97790Y19349D01*
X97778Y19359D01*
X97761Y19370D01*
X97740Y19380D01*
X97714Y19390D01*
X97686Y19395D01*
X97655Y19398D01*
D02*
G37*
G36*
X96898Y19803D02*
X96890D01*
X96884Y19801D01*
X96868Y19799D01*
X96850Y19794D01*
X96829Y19786D01*
X96806Y19773D01*
X96795Y19765D01*
X96784Y19756D01*
X96774Y19745D01*
X96764Y19732D01*
Y19731D01*
X96761Y19728D01*
X96759Y19722D01*
X96754Y19715D01*
X96750Y19704D01*
X96744Y19691D01*
X96740Y19676D01*
X96735Y19658D01*
X96729Y19636D01*
X96723Y19612D01*
X96718Y19586D01*
X96713Y19556D01*
X96709Y19522D01*
X96706Y19486D01*
X96705Y19446D01*
X96704Y19402D01*
Y19400D01*
Y19393D01*
Y19380D01*
X96705Y19363D01*
Y19345D01*
X96706Y19322D01*
X96708Y19298D01*
X96711Y19273D01*
X96718Y19218D01*
X96722Y19191D01*
X96728Y19166D01*
X96733Y19142D01*
X96742Y19119D01*
X96750Y19099D01*
X96760Y19082D01*
Y19081D01*
X96763Y19080D01*
X96770Y19070D01*
X96783Y19057D01*
X96798Y19043D01*
X96819Y19029D01*
X96843Y19016D01*
X96870Y19006D01*
X96884Y19005D01*
X96900Y19003D01*
X96908D01*
X96914Y19005D01*
X96928Y19008D01*
X96947Y19013D01*
X96969Y19023D01*
X96993Y19037D01*
X97004Y19046D01*
X97015Y19057D01*
X97026Y19068D01*
X97038Y19082D01*
Y19084D01*
X97040Y19087D01*
X97043Y19091D01*
X97046Y19098D01*
X97052Y19108D01*
X97056Y19120D01*
X97062Y19135D01*
X97067Y19152D01*
X97072Y19173D01*
X97077Y19195D01*
X97083Y19222D01*
X97087Y19250D01*
X97090Y19284D01*
X97093Y19319D01*
X97095Y19359D01*
Y19402D01*
Y19404D01*
Y19405D01*
Y19412D01*
Y19425D01*
X97094Y19442D01*
Y19460D01*
X97093Y19483D01*
X97091Y19507D01*
X97088Y19534D01*
X97081Y19587D01*
X97077Y19614D01*
X97072Y19639D01*
X97066Y19663D01*
X97057Y19686D01*
X97049Y19706D01*
X97039Y19722D01*
Y19724D01*
X97036Y19725D01*
X97033Y19729D01*
X97029Y19735D01*
X97017Y19748D01*
X97001Y19763D01*
X96980Y19777D01*
X96956Y19790D01*
X96943Y19796D01*
X96929Y19800D01*
X96914Y19801D01*
X96898Y19803D01*
D02*
G37*
G36*
X94169D02*
X94160D01*
X94155Y19801D01*
X94139Y19799D01*
X94121Y19794D01*
X94100Y19786D01*
X94077Y19773D01*
X94066Y19765D01*
X94055Y19756D01*
X94045Y19745D01*
X94035Y19732D01*
Y19731D01*
X94032Y19728D01*
X94029Y19722D01*
X94025Y19715D01*
X94021Y19704D01*
X94015Y19691D01*
X94011Y19676D01*
X94005Y19658D01*
X94000Y19636D01*
X93994Y19612D01*
X93988Y19586D01*
X93984Y19556D01*
X93980Y19522D01*
X93977Y19486D01*
X93976Y19446D01*
X93974Y19402D01*
Y19400D01*
Y19393D01*
Y19380D01*
X93976Y19363D01*
Y19345D01*
X93977Y19322D01*
X93979Y19298D01*
X93981Y19273D01*
X93988Y19218D01*
X93993Y19191D01*
X93998Y19166D01*
X94004Y19142D01*
X94012Y19119D01*
X94021Y19099D01*
X94031Y19082D01*
Y19081D01*
X94034Y19080D01*
X94041Y19070D01*
X94053Y19057D01*
X94069Y19043D01*
X94090Y19029D01*
X94114Y19016D01*
X94141Y19006D01*
X94155Y19005D01*
X94170Y19003D01*
X94179D01*
X94184Y19005D01*
X94199Y19008D01*
X94218Y19013D01*
X94239Y19023D01*
X94263Y19037D01*
X94275Y19046D01*
X94286Y19057D01*
X94297Y19068D01*
X94308Y19082D01*
Y19084D01*
X94311Y19087D01*
X94314Y19091D01*
X94317Y19098D01*
X94323Y19108D01*
X94327Y19120D01*
X94332Y19135D01*
X94338Y19152D01*
X94342Y19173D01*
X94348Y19195D01*
X94354Y19222D01*
X94358Y19250D01*
X94361Y19284D01*
X94363Y19319D01*
X94366Y19359D01*
Y19402D01*
Y19404D01*
Y19405D01*
Y19412D01*
Y19425D01*
X94365Y19442D01*
Y19460D01*
X94363Y19483D01*
X94362Y19507D01*
X94359Y19534D01*
X94352Y19587D01*
X94348Y19614D01*
X94342Y19639D01*
X94337Y19663D01*
X94328Y19686D01*
X94320Y19706D01*
X94310Y19722D01*
Y19724D01*
X94307Y19725D01*
X94304Y19729D01*
X94300Y19735D01*
X94287Y19748D01*
X94272Y19763D01*
X94251Y19777D01*
X94227Y19790D01*
X94214Y19796D01*
X94200Y19800D01*
X94184Y19801D01*
X94169Y19803D01*
D02*
G37*
G36*
X58524Y58660D02*
X58496D01*
X58430Y58658D01*
X58366Y58652D01*
X58307Y58641D01*
X58252Y58630D01*
X58202Y58613D01*
X58155Y58596D01*
X58110Y58577D01*
X58074Y58560D01*
X58038Y58541D01*
X58010Y58522D01*
X57985Y58505D01*
X57963Y58488D01*
X57949Y58477D01*
X57935Y58466D01*
X57930Y58460D01*
X57927Y58458D01*
X57891Y58419D01*
X57860Y58374D01*
X57835Y58330D01*
X57810Y58283D01*
X57791Y58233D01*
X57777Y58186D01*
X57763Y58138D01*
X57752Y58091D01*
X57744Y58047D01*
X57738Y58008D01*
X57733Y57972D01*
X57730Y57938D01*
Y57914D01*
X57727Y57894D01*
Y57877D01*
X57733Y57777D01*
X57738Y57730D01*
X57744Y57686D01*
X57755Y57644D01*
X57763Y57605D01*
X57774Y57569D01*
X57785Y57539D01*
X57794Y57508D01*
X57805Y57483D01*
X57816Y57461D01*
X57824Y57444D01*
X57830Y57430D01*
X57835Y57419D01*
X57841Y57414D01*
Y57411D01*
X57885Y57347D01*
X57930Y57294D01*
X57977Y57253D01*
X58019Y57217D01*
X58055Y57192D01*
X58085Y57172D01*
X58096Y57167D01*
X58105Y57161D01*
X58107Y57158D01*
X58110D01*
X58174Y57136D01*
X58241Y57120D01*
X58310Y57106D01*
X58374Y57097D01*
X58405Y57095D01*
X58432Y57092D01*
X58455D01*
X58477Y57089D01*
X58518D01*
X58591Y57092D01*
X58657Y57097D01*
X58715Y57108D01*
X58763Y57120D01*
X58802Y57128D01*
X58832Y57139D01*
X58840Y57142D01*
X58849Y57145D01*
X58852Y57147D01*
X58854D01*
X58901Y57172D01*
X58946Y57200D01*
X58982Y57228D01*
X59015Y57256D01*
X59040Y57283D01*
X59060Y57303D01*
X59074Y57317D01*
X59076Y57322D01*
X59110Y57369D01*
X59135Y57417D01*
X59160Y57464D01*
X59176Y57511D01*
X59193Y57550D01*
X59201Y57583D01*
X59204Y57594D01*
X59207Y57603D01*
X59210Y57608D01*
Y57611D01*
X58799Y57739D01*
X58785Y57686D01*
X58768Y57641D01*
X58752Y57603D01*
X58735Y57572D01*
X58721Y57547D01*
X58707Y57530D01*
X58699Y57519D01*
X58696Y57517D01*
X58668Y57492D01*
X58635Y57472D01*
X58602Y57461D01*
X58568Y57450D01*
X58538Y57444D01*
X58513Y57442D01*
X58491D01*
X58441Y57444D01*
X58399Y57455D01*
X58360Y57469D01*
X58330Y57489D01*
X58307Y57505D01*
X58288Y57519D01*
X58277Y57530D01*
X58274Y57533D01*
X58260Y57553D01*
X58249Y57575D01*
X58230Y57628D01*
X58219Y57686D01*
X58207Y57741D01*
X58202Y57794D01*
Y57819D01*
X58199Y57839D01*
Y57855D01*
Y57869D01*
Y57877D01*
Y57880D01*
X58202Y57952D01*
X58210Y58013D01*
X58219Y58063D01*
X58232Y58105D01*
X58244Y58136D01*
X58252Y58161D01*
X58260Y58172D01*
X58263Y58177D01*
X58280Y58199D01*
X58296Y58222D01*
X58335Y58252D01*
X58377Y58277D01*
X58416Y58291D01*
X58452Y58302D01*
X58482Y58305D01*
X58491Y58308D01*
X58532D01*
X58557Y58302D01*
X58579Y58299D01*
X58599Y58294D01*
X58613Y58288D01*
X58627Y58283D01*
X58632Y58280D01*
X58635Y58277D01*
X58674Y58252D01*
X58704Y58224D01*
X58715Y58213D01*
X58727Y58202D01*
X58729Y58197D01*
X58732Y58194D01*
X58740Y58180D01*
X58749Y58166D01*
X58765Y58133D01*
X58771Y58119D01*
X58777Y58105D01*
X58779Y58097D01*
Y58094D01*
X59196Y58186D01*
X59179Y58230D01*
X59162Y58272D01*
X59143Y58308D01*
X59124Y58344D01*
X59104Y58377D01*
X59082Y58405D01*
X59063Y58433D01*
X59043Y58455D01*
X59024Y58477D01*
X59007Y58494D01*
X58990Y58510D01*
X58976Y58522D01*
X58965Y58533D01*
X58957Y58538D01*
X58951Y58544D01*
X58949D01*
X58915Y58563D01*
X58882Y58583D01*
X58810Y58610D01*
X58735Y58633D01*
X58660Y58646D01*
X58627Y58652D01*
X58596Y58655D01*
X58568Y58658D01*
X58543D01*
X58524Y58660D01*
D02*
G37*
G36*
X62447Y58635D02*
X61819D01*
X61328Y58058D01*
Y58635D01*
X60859D01*
Y57114D01*
X61328D01*
Y57483D01*
X61569Y57736D01*
X61891Y57114D01*
X62472D01*
X61889Y58061D01*
X62447Y58635D01*
D02*
G37*
G36*
X65623D02*
X65179D01*
Y57791D01*
X64601Y58635D01*
X64165D01*
Y57114D01*
X64607D01*
Y57952D01*
X65179Y57114D01*
X65623D01*
Y58635D01*
D02*
G37*
G36*
X63826D02*
X63355D01*
Y57114D01*
X63826D01*
Y58635D01*
D02*
G37*
G36*
X59906D02*
X59437D01*
Y57114D01*
X60642D01*
Y57489D01*
X59906D01*
Y58635D01*
D02*
G37*
G36*
X95965Y40335D02*
X95937D01*
X95870Y40333D01*
X95807Y40327D01*
X95748Y40316D01*
X95693Y40305D01*
X95643Y40288D01*
X95596Y40271D01*
X95551Y40252D01*
X95515Y40235D01*
X95479Y40216D01*
X95451Y40197D01*
X95426Y40180D01*
X95404Y40163D01*
X95390Y40152D01*
X95376Y40141D01*
X95371Y40135D01*
X95368Y40133D01*
X95332Y40094D01*
X95301Y40049D01*
X95276Y40005D01*
X95251Y39958D01*
X95232Y39908D01*
X95218Y39861D01*
X95204Y39813D01*
X95193Y39766D01*
X95185Y39722D01*
X95179Y39683D01*
X95174Y39647D01*
X95171Y39614D01*
Y39589D01*
X95168Y39569D01*
Y39552D01*
X95174Y39452D01*
X95179Y39405D01*
X95185Y39361D01*
X95196Y39319D01*
X95204Y39280D01*
X95215Y39244D01*
X95226Y39214D01*
X95235Y39183D01*
X95246Y39158D01*
X95257Y39136D01*
X95265Y39119D01*
X95271Y39105D01*
X95276Y39094D01*
X95282Y39089D01*
Y39086D01*
X95326Y39022D01*
X95371Y38969D01*
X95418Y38928D01*
X95459Y38892D01*
X95496Y38867D01*
X95526Y38847D01*
X95537Y38842D01*
X95546Y38836D01*
X95548Y38833D01*
X95551D01*
X95615Y38811D01*
X95682Y38795D01*
X95751Y38781D01*
X95815Y38772D01*
X95845Y38770D01*
X95873Y38767D01*
X95895D01*
X95918Y38764D01*
X95959D01*
X96031Y38767D01*
X96098Y38772D01*
X96156Y38783D01*
X96204Y38795D01*
X96242Y38803D01*
X96273Y38814D01*
X96281Y38817D01*
X96290Y38820D01*
X96292Y38822D01*
X96295D01*
X96342Y38847D01*
X96387Y38875D01*
X96423Y38903D01*
X96456Y38931D01*
X96481Y38958D01*
X96501Y38978D01*
X96514Y38992D01*
X96517Y38997D01*
X96551Y39044D01*
X96576Y39092D01*
X96601Y39139D01*
X96617Y39186D01*
X96634Y39225D01*
X96642Y39258D01*
X96645Y39269D01*
X96648Y39278D01*
X96650Y39283D01*
Y39286D01*
X96240Y39414D01*
X96226Y39361D01*
X96209Y39316D01*
X96192Y39278D01*
X96176Y39247D01*
X96162Y39222D01*
X96148Y39205D01*
X96140Y39194D01*
X96137Y39192D01*
X96109Y39167D01*
X96076Y39147D01*
X96042Y39136D01*
X96009Y39125D01*
X95979Y39119D01*
X95954Y39117D01*
X95931D01*
X95881Y39119D01*
X95840Y39130D01*
X95801Y39144D01*
X95770Y39164D01*
X95748Y39180D01*
X95729Y39194D01*
X95718Y39205D01*
X95715Y39208D01*
X95701Y39228D01*
X95690Y39250D01*
X95670Y39303D01*
X95659Y39361D01*
X95648Y39416D01*
X95643Y39469D01*
Y39494D01*
X95640Y39514D01*
Y39530D01*
Y39544D01*
Y39552D01*
Y39555D01*
X95643Y39627D01*
X95651Y39688D01*
X95659Y39738D01*
X95673Y39780D01*
X95684Y39811D01*
X95693Y39836D01*
X95701Y39847D01*
X95704Y39852D01*
X95720Y39874D01*
X95737Y39897D01*
X95776Y39927D01*
X95818Y39952D01*
X95856Y39966D01*
X95893Y39977D01*
X95923Y39980D01*
X95931Y39983D01*
X95973D01*
X95998Y39977D01*
X96020Y39974D01*
X96040Y39969D01*
X96054Y39963D01*
X96067Y39958D01*
X96073Y39955D01*
X96076Y39952D01*
X96115Y39927D01*
X96145Y39899D01*
X96156Y39888D01*
X96167Y39877D01*
X96170Y39872D01*
X96173Y39869D01*
X96181Y39855D01*
X96190Y39841D01*
X96206Y39808D01*
X96212Y39794D01*
X96217Y39780D01*
X96220Y39772D01*
Y39769D01*
X96637Y39861D01*
X96620Y39905D01*
X96603Y39947D01*
X96584Y39983D01*
X96564Y40019D01*
X96545Y40052D01*
X96523Y40080D01*
X96503Y40108D01*
X96484Y40130D01*
X96464Y40152D01*
X96448Y40169D01*
X96431Y40185D01*
X96417Y40197D01*
X96406Y40208D01*
X96398Y40213D01*
X96392Y40219D01*
X96390D01*
X96356Y40238D01*
X96323Y40258D01*
X96251Y40285D01*
X96176Y40308D01*
X96101Y40321D01*
X96067Y40327D01*
X96037Y40330D01*
X96009Y40333D01*
X95984D01*
X95965Y40335D01*
D02*
G37*
G36*
X99888Y40310D02*
X99260D01*
X98769Y39733D01*
Y40310D01*
X98300D01*
Y38789D01*
X98769D01*
Y39158D01*
X99010Y39411D01*
X99332Y38789D01*
X99913D01*
X99330Y39736D01*
X99888Y40310D01*
D02*
G37*
G36*
X104007D02*
X103538D01*
Y39383D01*
X103536Y39339D01*
X103527Y39300D01*
X103516Y39264D01*
X103505Y39236D01*
X103491Y39214D01*
X103480Y39200D01*
X103472Y39189D01*
X103469Y39186D01*
X103441Y39164D01*
X103411Y39147D01*
X103377Y39136D01*
X103347Y39128D01*
X103319Y39122D01*
X103297Y39119D01*
X103277D01*
X103233Y39122D01*
X103194Y39130D01*
X103161Y39142D01*
X103133Y39155D01*
X103111Y39167D01*
X103097Y39178D01*
X103086Y39186D01*
X103083Y39189D01*
X103061Y39217D01*
X103044Y39250D01*
X103033Y39280D01*
X103025Y39311D01*
X103019Y39339D01*
X103016Y39364D01*
Y39378D01*
Y39383D01*
Y40310D01*
X102547D01*
Y39403D01*
X102550Y39361D01*
X102553Y39316D01*
X102561Y39272D01*
X102569Y39233D01*
X102575Y39200D01*
X102583Y39172D01*
X102586Y39161D01*
Y39153D01*
X102589Y39150D01*
Y39147D01*
X102600Y39114D01*
X102617Y39080D01*
X102633Y39050D01*
X102650Y39025D01*
X102664Y39003D01*
X102678Y38983D01*
X102686Y38972D01*
X102689Y38969D01*
X102717Y38939D01*
X102744Y38914D01*
X102772Y38892D01*
X102797Y38872D01*
X102819Y38858D01*
X102836Y38847D01*
X102847Y38842D01*
X102850Y38839D01*
X102886Y38825D01*
X102922Y38811D01*
X102958Y38800D01*
X102994Y38795D01*
X103022Y38786D01*
X103047Y38783D01*
X103064Y38781D01*
X103069D01*
X103119Y38775D01*
X103163Y38772D01*
X103205Y38767D01*
X103241D01*
X103272Y38764D01*
X103313D01*
X103383Y38767D01*
X103447Y38772D01*
X103502Y38781D01*
X103549Y38789D01*
X103591Y38797D01*
X103619Y38806D01*
X103630Y38808D01*
X103638Y38811D01*
X103641Y38814D01*
X103644D01*
X103680Y38831D01*
X103713Y38850D01*
X103746Y38869D01*
X103774Y38889D01*
X103796Y38908D01*
X103813Y38925D01*
X103827Y38936D01*
X103830Y38939D01*
X103863Y38972D01*
X103888Y39008D01*
X103913Y39044D01*
X103930Y39078D01*
X103946Y39105D01*
X103955Y39128D01*
X103960Y39142D01*
X103963Y39147D01*
X103977Y39194D01*
X103988Y39239D01*
X103996Y39280D01*
X104002Y39322D01*
X104005Y39355D01*
X104007Y39380D01*
Y40310D01*
D02*
G37*
G36*
X105640D02*
X104210D01*
Y39936D01*
X104690D01*
Y38789D01*
X105160D01*
Y39936D01*
X105640D01*
Y40310D01*
D02*
G37*
G36*
X97347D02*
X96878D01*
Y38789D01*
X98083D01*
Y39164D01*
X97347D01*
Y40310D01*
D02*
G37*
G36*
X101539Y40335D02*
X101503D01*
X101437Y40333D01*
X101373Y40327D01*
X101312Y40316D01*
X101256Y40302D01*
X101203Y40288D01*
X101156Y40269D01*
X101112Y40252D01*
X101073Y40233D01*
X101040Y40213D01*
X101009Y40194D01*
X100984Y40174D01*
X100962Y40160D01*
X100945Y40147D01*
X100934Y40135D01*
X100926Y40130D01*
X100923Y40127D01*
X100887Y40085D01*
X100856Y40044D01*
X100829Y39997D01*
X100804Y39949D01*
X100784Y39899D01*
X100768Y39852D01*
X100754Y39805D01*
X100743Y39758D01*
X100734Y39716D01*
X100729Y39675D01*
X100723Y39639D01*
X100720Y39608D01*
Y39583D01*
X100718Y39564D01*
Y39547D01*
X100723Y39452D01*
X100734Y39366D01*
X100743Y39325D01*
X100751Y39289D01*
X100759Y39255D01*
X100770Y39225D01*
X100779Y39197D01*
X100787Y39172D01*
X100795Y39153D01*
X100804Y39136D01*
X100812Y39122D01*
X100815Y39111D01*
X100820Y39105D01*
Y39103D01*
X100862Y39042D01*
X100909Y38989D01*
X100954Y38942D01*
X100998Y38908D01*
X101037Y38881D01*
X101067Y38861D01*
X101079Y38853D01*
X101087Y38847D01*
X101092Y38845D01*
X101095D01*
X101162Y38817D01*
X101234Y38797D01*
X101303Y38783D01*
X101370Y38775D01*
X101403Y38770D01*
X101431D01*
X101456Y38767D01*
X101478Y38764D01*
X101520D01*
X101612Y38767D01*
X101695Y38778D01*
X101767Y38795D01*
X101798Y38803D01*
X101828Y38811D01*
X101856Y38820D01*
X101878Y38828D01*
X101898Y38836D01*
X101914Y38845D01*
X101928Y38850D01*
X101936Y38856D01*
X101942Y38858D01*
X101945D01*
X102006Y38897D01*
X102056Y38939D01*
X102100Y38983D01*
X102136Y39025D01*
X102167Y39064D01*
X102186Y39094D01*
X102195Y39105D01*
X102200Y39114D01*
X102203Y39119D01*
Y39122D01*
X102233Y39192D01*
X102256Y39264D01*
X102272Y39336D01*
X102283Y39405D01*
X102286Y39439D01*
X102289Y39466D01*
X102292Y39494D01*
X102295Y39516D01*
Y39561D01*
X102292Y39627D01*
X102286Y39691D01*
X102275Y39750D01*
X102261Y39805D01*
X102247Y39855D01*
X102228Y39902D01*
X102211Y39944D01*
X102192Y39983D01*
X102172Y40016D01*
X102153Y40047D01*
X102134Y40072D01*
X102120Y40094D01*
X102106Y40108D01*
X102095Y40122D01*
X102089Y40127D01*
X102086Y40130D01*
X102045Y40166D01*
X102003Y40197D01*
X101956Y40224D01*
X101909Y40249D01*
X101861Y40269D01*
X101811Y40285D01*
X101764Y40299D01*
X101717Y40310D01*
X101675Y40319D01*
X101634Y40324D01*
X101598Y40330D01*
X101564Y40333D01*
X101539Y40335D01*
D02*
G37*
%LPD*%
G36*
X101553Y39974D02*
X101600Y39963D01*
X101642Y39949D01*
X101675Y39930D01*
X101700Y39911D01*
X101720Y39897D01*
X101734Y39886D01*
X101737Y39880D01*
X101767Y39838D01*
X101789Y39788D01*
X101803Y39736D01*
X101814Y39686D01*
X101820Y39639D01*
X101823Y39619D01*
X101825Y39602D01*
Y39586D01*
Y39575D01*
Y39569D01*
Y39566D01*
Y39519D01*
X101823Y39477D01*
X101817Y39439D01*
X101811Y39403D01*
X101806Y39372D01*
X101798Y39341D01*
X101789Y39316D01*
X101784Y39294D01*
X101775Y39275D01*
X101767Y39258D01*
X101759Y39244D01*
X101753Y39233D01*
X101742Y39219D01*
X101739Y39214D01*
X101706Y39180D01*
X101667Y39158D01*
X101628Y39142D01*
X101592Y39128D01*
X101559Y39122D01*
X101531Y39119D01*
X101520Y39117D01*
X101506D01*
X101453Y39122D01*
X101406Y39133D01*
X101365Y39147D01*
X101331Y39167D01*
X101306Y39186D01*
X101287Y39200D01*
X101273Y39211D01*
X101270Y39217D01*
X101256Y39236D01*
X101242Y39258D01*
X101223Y39311D01*
X101206Y39366D01*
X101198Y39419D01*
X101192Y39469D01*
X101190Y39491D01*
Y39511D01*
X101187Y39525D01*
Y39536D01*
Y39544D01*
Y39547D01*
Y39589D01*
X101190Y39627D01*
X101195Y39663D01*
X101201Y39697D01*
X101206Y39725D01*
X101215Y39752D01*
X101223Y39777D01*
X101231Y39800D01*
X101245Y39833D01*
X101259Y39858D01*
X101270Y39872D01*
X101273Y39877D01*
X101306Y39911D01*
X101345Y39936D01*
X101384Y39955D01*
X101420Y39966D01*
X101451Y39974D01*
X101478Y39977D01*
X101495Y39980D01*
X101501D01*
X101553Y39974D01*
D02*
G37*
%LPC*%
G36*
X101492Y27386D02*
X101459D01*
X101436Y27381D01*
X101384Y27372D01*
X101328Y27348D01*
X101323D01*
X101318Y27344D01*
X101290Y27325D01*
X101257Y27292D01*
X101224Y27245D01*
Y27240D01*
X101220Y27231D01*
X101215Y27217D01*
X101210Y27198D01*
X101196Y27146D01*
X101191Y27080D01*
Y25524D01*
Y25519D01*
Y25510D01*
Y25491D01*
X101196Y25468D01*
X101205Y25411D01*
X101224Y25355D01*
Y25350D01*
X101234Y25345D01*
X101252Y25317D01*
X101285Y25284D01*
X101328Y25251D01*
X101332D01*
X101342Y25247D01*
X101356Y25242D01*
X101375Y25233D01*
X101426Y25218D01*
X101492Y25214D01*
X101525D01*
X101549Y25218D01*
X101600Y25228D01*
X101652Y25251D01*
X101657D01*
X101661Y25261D01*
X101690Y25280D01*
X101727Y25312D01*
X101756Y25355D01*
Y25359D01*
X101760Y25369D01*
X101770Y25383D01*
X101774Y25402D01*
X101788Y25458D01*
X101793Y25524D01*
Y27080D01*
Y27085D01*
Y27094D01*
Y27113D01*
X101788Y27137D01*
X101779Y27188D01*
X101756Y27245D01*
Y27250D01*
X101751Y27254D01*
X101732Y27282D01*
X101699Y27320D01*
X101652Y27348D01*
X101647D01*
X101643Y27353D01*
X101629Y27362D01*
X101610Y27367D01*
X101558Y27381D01*
X101492Y27386D01*
D02*
G37*
G36*
X73882Y64468D02*
X73849D01*
X73804Y64467D01*
X73764Y64465D01*
X73730Y64459D01*
X73703Y64455D01*
X73679Y64450D01*
X73662Y64444D01*
X73653Y64443D01*
X73649Y64441D01*
X73623Y64430D01*
X73599Y64418D01*
X73580Y64405D01*
X73564Y64393D01*
X73549Y64381D01*
X73540Y64372D01*
X73534Y64365D01*
X73532Y64363D01*
X73519Y64343D01*
X73508Y64322D01*
X73501Y64300D01*
X73497Y64281D01*
X73493Y64263D01*
X73492Y64250D01*
Y64241D01*
Y64237D01*
X73493Y64213D01*
X73497Y64191D01*
X73505Y64172D01*
X73512Y64154D01*
X73517Y64141D01*
X73525Y64130D01*
X73529Y64122D01*
X73530Y64120D01*
X73545Y64102D01*
X73562Y64087D01*
X73577Y64074D01*
X73592Y64065D01*
X73604Y64056D01*
X73616Y64050D01*
X73623Y64048D01*
X73625Y64046D01*
X73636Y64043D01*
X73651Y64037D01*
X73680Y64030D01*
X73716Y64022D01*
X73749Y64015D01*
X73780Y64007D01*
X73795Y64006D01*
X73806Y64002D01*
X73816Y64000D01*
X73825D01*
X73829Y63998D01*
X73830D01*
X73864Y63993D01*
X73892Y63987D01*
X73912Y63981D01*
X73927Y63978D01*
X73938Y63974D01*
X73945Y63970D01*
X73949Y63968D01*
X73951D01*
X73962Y63961D01*
X73969Y63954D01*
X73975Y63946D01*
X73979Y63939D01*
X73982Y63928D01*
Y63924D01*
Y63922D01*
X73980Y63913D01*
X73979Y63904D01*
X73969Y63889D01*
X73960Y63881D01*
X73958Y63878D01*
X73956D01*
X73943Y63870D01*
X73930Y63865D01*
X73903Y63857D01*
X73890Y63856D01*
X73879Y63854D01*
X73869D01*
X73851Y63856D01*
X73834Y63857D01*
X73819Y63861D01*
X73808Y63865D01*
X73799Y63868D01*
X73792Y63870D01*
X73788Y63874D01*
X73786D01*
X73775Y63883D01*
X73766Y63894D01*
X73753Y63920D01*
X73747Y63931D01*
X73743Y63939D01*
X73740Y63946D01*
Y63948D01*
X73460Y63922D01*
D01*
X73471Y63885D01*
X73488Y63852D01*
X73505Y63822D01*
X73523Y63800D01*
X73542Y63781D01*
X73556Y63769D01*
X73566Y63759D01*
X73569Y63757D01*
X73586Y63748D01*
X73606Y63739D01*
X73651Y63724D01*
X73697Y63715D01*
X73745Y63707D01*
X73767Y63706D01*
X73788Y63704D01*
X73806Y63702D01*
X73823D01*
X73838Y63700D01*
X73460D01*
D01*
X74241D01*
X73856D01*
X73906Y63702D01*
X73951Y63706D01*
X73990Y63711D01*
X74021Y63719D01*
X74047Y63724D01*
X74066Y63730D01*
X74077Y63733D01*
X74080Y63735D01*
X74110Y63750D01*
X74134Y63765D01*
X74156Y63781D01*
X74173Y63796D01*
X74186Y63809D01*
X74195Y63820D01*
X74201Y63828D01*
X74203Y63830D01*
X74216Y63852D01*
X74225Y63874D01*
X74232Y63896D01*
X74236Y63915D01*
X74240Y63931D01*
X74241Y63943D01*
Y63954D01*
X74240Y63976D01*
X74236Y63998D01*
X74230Y64018D01*
X74223Y64035D01*
X74216Y64048D01*
X74210Y64059D01*
X74206Y64067D01*
X74204Y64068D01*
X74190Y64087D01*
X74173Y64104D01*
X74154Y64118D01*
X74138Y64130D01*
X74123Y64139D01*
X74110Y64144D01*
X74103Y64148D01*
X74099Y64150D01*
X74071Y64161D01*
X74038Y64170D01*
X74003Y64178D01*
X73969Y64183D01*
X73938Y64189D01*
X73925Y64191D01*
X73912Y64193D01*
X73903D01*
X73895Y64194D01*
X73890D01*
X73858Y64198D01*
X73832Y64204D01*
X73810Y64207D01*
X73795Y64211D01*
X73782Y64215D01*
X73775Y64218D01*
X73771Y64220D01*
X73769D01*
X73760Y64226D01*
X73754Y64231D01*
X73747Y64246D01*
X73743Y64257D01*
Y64259D01*
Y64261D01*
X73745Y64270D01*
X73747Y64278D01*
X73754Y64291D01*
X73760Y64298D01*
X73764Y64302D01*
X73773Y64307D01*
X73784Y64313D01*
X73808Y64318D01*
X73817Y64320D01*
X73851D01*
X73867Y64317D01*
X73880Y64313D01*
X73893Y64309D01*
X73903Y64305D01*
X73910Y64302D01*
X73914Y64300D01*
X73916Y64298D01*
X73930Y64283D01*
X73941Y64267D01*
X73945Y64259D01*
X73949Y64252D01*
X73951Y64248D01*
Y64246D01*
X74217Y64272D01*
X74206Y64298D01*
X74195Y64320D01*
X74182Y64339D01*
X74171Y64355D01*
X74162Y64368D01*
X74154Y64378D01*
X74149Y64383D01*
X74147Y64385D01*
X74130Y64400D01*
X74112Y64413D01*
X74095Y64424D01*
X74079Y64433D01*
X74064Y64439D01*
X74053Y64444D01*
X74045Y64448D01*
X74041D01*
X74016Y64455D01*
X73986Y64459D01*
X73954Y64463D01*
X73923Y64467D01*
X73893D01*
X73882Y64468D01*
D02*
G37*
G36*
X73425Y64731D02*
X73106D01*
X72881Y64000D01*
X72653Y64731D01*
X72325D01*
X72708Y63717D01*
X73047D01*
X73425Y64731D01*
D02*
G37*
G36*
X74732Y64196D02*
X74323D01*
Y63978D01*
X74732D01*
Y64196D01*
D02*
G37*
G36*
X73632Y62293D02*
X73599D01*
X73554Y62292D01*
X73514Y62290D01*
X73480Y62284D01*
X73453Y62280D01*
X73429Y62275D01*
X73412Y62269D01*
X73403Y62268D01*
X73399Y62266D01*
X73373Y62255D01*
X73349Y62243D01*
X73330Y62230D01*
X73314Y62218D01*
X73299Y62206D01*
X73290Y62197D01*
X73284Y62190D01*
X73282Y62188D01*
X73269Y62168D01*
X73258Y62147D01*
X73251Y62125D01*
X73247Y62106D01*
X73243Y62088D01*
X73242Y62075D01*
Y62066D01*
Y62062D01*
X73243Y62038D01*
X73247Y62016D01*
X73255Y61997D01*
X73262Y61979D01*
X73267Y61966D01*
X73275Y61955D01*
X73279Y61947D01*
X73280Y61945D01*
X73295Y61927D01*
X73312Y61912D01*
X73327Y61899D01*
X73342Y61890D01*
X73354Y61881D01*
X73366Y61875D01*
X73373Y61873D01*
X73375Y61871D01*
X73386Y61868D01*
X73401Y61862D01*
X73430Y61855D01*
X73466Y61847D01*
X73499Y61840D01*
X73530Y61832D01*
X73545Y61831D01*
X73556Y61827D01*
X73566Y61825D01*
X73575D01*
X73579Y61823D01*
X73580D01*
X73614Y61818D01*
X73642Y61812D01*
X73662Y61806D01*
X73677Y61803D01*
X73688Y61799D01*
X73695Y61795D01*
X73699Y61793D01*
X73701D01*
X73712Y61786D01*
X73719Y61779D01*
X73725Y61771D01*
X73729Y61764D01*
X73732Y61753D01*
Y61749D01*
Y61747D01*
X73730Y61738D01*
X73729Y61729D01*
X73719Y61714D01*
X73710Y61706D01*
X73708Y61703D01*
X73706D01*
X73693Y61695D01*
X73680Y61690D01*
X73653Y61682D01*
X73640Y61681D01*
X73629Y61679D01*
X73619D01*
X73601Y61681D01*
X73584Y61682D01*
X73569Y61686D01*
X73558Y61690D01*
X73549Y61694D01*
X73542Y61695D01*
X73538Y61699D01*
X73536D01*
X73525Y61708D01*
X73516Y61719D01*
X73503Y61745D01*
X73497Y61756D01*
X73493Y61764D01*
X73490Y61771D01*
Y61773D01*
X73210Y61747D01*
X73221Y61710D01*
X73238Y61677D01*
X73255Y61647D01*
X73273Y61625D01*
X73292Y61606D01*
X73306Y61594D01*
X73316Y61584D01*
X73319Y61582D01*
X73336Y61573D01*
X73356Y61564D01*
X73401Y61549D01*
X73447Y61540D01*
X73495Y61532D01*
X73517Y61531D01*
X73538Y61529D01*
X73556Y61527D01*
X73573D01*
X73588Y61525D01*
X73606D01*
X73656Y61527D01*
X73701Y61531D01*
X73740Y61536D01*
X73771Y61544D01*
X73797Y61549D01*
X73816Y61555D01*
X73827Y61558D01*
X73830Y61560D01*
X73860Y61575D01*
X73884Y61590D01*
X73906Y61606D01*
X73923Y61621D01*
X73936Y61634D01*
X73945Y61645D01*
X73951Y61653D01*
X73953Y61655D01*
X73966Y61677D01*
X73975Y61699D01*
X73982Y61721D01*
X73986Y61740D01*
X73990Y61756D01*
X73991Y61768D01*
Y61779D01*
X73990Y61801D01*
X73986Y61823D01*
X73980Y61843D01*
X73973Y61860D01*
X73966Y61873D01*
X73960Y61884D01*
X73956Y61892D01*
X73954Y61893D01*
X73940Y61912D01*
X73923Y61929D01*
X73904Y61943D01*
X73888Y61955D01*
X73873Y61964D01*
X73860Y61969D01*
X73853Y61973D01*
X73849Y61975D01*
X73821Y61986D01*
X73788Y61995D01*
X73753Y62003D01*
X73719Y62008D01*
X73688Y62014D01*
X73675Y62016D01*
X73662Y62018D01*
X73653D01*
X73645Y62019D01*
X73640D01*
X73608Y62023D01*
X73582Y62029D01*
X73560Y62032D01*
X73545Y62036D01*
X73532Y62040D01*
X73525Y62043D01*
X73521Y62045D01*
X73519D01*
X73510Y62051D01*
X73504Y62056D01*
X73497Y62071D01*
X73493Y62082D01*
Y62084D01*
Y62086D01*
X73495Y62095D01*
X73497Y62103D01*
X73504Y62116D01*
X73510Y62123D01*
X73514Y62127D01*
X73523Y62132D01*
X73534Y62138D01*
X73558Y62143D01*
X73567Y62145D01*
X73601D01*
X73617Y62142D01*
X73630Y62138D01*
X73643Y62134D01*
X73653Y62130D01*
X73660Y62127D01*
X73664Y62125D01*
X73666Y62123D01*
X73680Y62108D01*
X73691Y62092D01*
X73695Y62084D01*
X73699Y62077D01*
X73701Y62073D01*
Y62071D01*
X73967Y62097D01*
X73956Y62123D01*
X73945Y62145D01*
X73932Y62164D01*
X73921Y62180D01*
X73912Y62193D01*
X73904Y62203D01*
X73899Y62208D01*
X73897Y62210D01*
X73880Y62225D01*
X73862Y62238D01*
X73845Y62249D01*
X73829Y62258D01*
X73814Y62264D01*
X73803Y62269D01*
X73795Y62273D01*
X73791D01*
X73766Y62280D01*
X73736Y62284D01*
X73704Y62288D01*
X73673Y62292D01*
X73643D01*
X73632Y62293D01*
D02*
G37*
G36*
X73175Y62556D02*
X72856D01*
X72631Y61825D01*
X72403Y62556D01*
X72075D01*
X72458Y61542D01*
X72797D01*
X73175Y62556D01*
D02*
G37*
G36*
X74619Y62427D02*
X74395D01*
Y62160D01*
X74130D01*
Y61936D01*
X74395D01*
Y61671D01*
X74619D01*
Y61936D01*
X74886D01*
Y62160D01*
X74619D01*
Y62427D01*
D02*
G37*
G36*
X100311Y23945D02*
Y23943D01*
X100309Y23940D01*
Y23932D01*
X100306Y23925D01*
X100304Y23912D01*
X100300Y23899D01*
X100293Y23867D01*
X100284Y23830D01*
X100271Y23790D01*
X100258Y23745D01*
X100241Y23699D01*
X100102Y23325D01*
X100535D01*
X100402Y23677D01*
Y23679D01*
X100400Y23684D01*
X100396Y23693D01*
X100393Y23705D01*
X100387Y23717D01*
X100382Y23734D01*
X100376Y23753D01*
X100369Y23771D01*
X100354Y23814D01*
X100339Y23858D01*
X100324Y23903D01*
X100311Y23945D01*
D02*
G37*
G36*
X97924Y23927D02*
X97558D01*
Y23469D01*
X97902D01*
X97915Y23471D01*
X97928D01*
X97943Y23473D01*
X97978Y23477D01*
X98017Y23484D01*
X98056Y23495D01*
X98091Y23510D01*
X98108Y23519D01*
X98121Y23530D01*
X98124Y23534D01*
X98132Y23542D01*
X98143Y23556D01*
X98156Y23575D01*
X98169Y23599D01*
X98180Y23629D01*
X98187Y23662D01*
X98191Y23701D01*
Y23703D01*
Y23705D01*
Y23714D01*
X98189Y23730D01*
X98186Y23749D01*
X98182Y23769D01*
X98174Y23793D01*
X98163Y23816D01*
X98150Y23838D01*
X98149Y23840D01*
X98143Y23847D01*
X98134Y23856D01*
X98123Y23869D01*
X98106Y23882D01*
X98087Y23893D01*
X98067Y23905D01*
X98043Y23914D01*
X98041D01*
X98034Y23916D01*
X98023Y23917D01*
X98008Y23921D01*
X97986Y23923D01*
X97958Y23925D01*
X97924Y23927D01*
D02*
G37*
G36*
X96173Y23936D02*
X95769D01*
Y23512D01*
X96151D01*
X96173Y23514D01*
X96199Y23516D01*
X96228Y23518D01*
X96258Y23521D01*
X96288Y23527D01*
X96314Y23534D01*
X96317Y23536D01*
X96325Y23540D01*
X96336Y23545D01*
X96351Y23553D01*
X96367Y23564D01*
X96384Y23577D01*
X96401Y23593D01*
X96414Y23612D01*
X96415Y23614D01*
X96419Y23621D01*
X96425Y23632D01*
X96432Y23647D01*
X96438Y23664D01*
X96443Y23682D01*
X96447Y23705D01*
X96449Y23727D01*
Y23729D01*
Y23730D01*
X96447Y23742D01*
X96445Y23758D01*
X96441Y23780D01*
X96432Y23803D01*
X96421Y23829D01*
X96404Y23853D01*
X96382Y23877D01*
X96378Y23879D01*
X96369Y23886D01*
X96354Y23895D01*
X96330Y23906D01*
X96302Y23917D01*
X96265Y23927D01*
X96223Y23934D01*
X96173Y23936D01*
D02*
G37*
G36*
X94840Y23945D02*
Y23943D01*
X94838Y23940D01*
Y23932D01*
X94834Y23925D01*
X94832Y23912D01*
X94829Y23899D01*
X94821Y23867D01*
X94812Y23830D01*
X94799Y23790D01*
X94786Y23745D01*
X94769Y23699D01*
X94630Y23325D01*
X95064D01*
X94930Y23677D01*
Y23679D01*
X94929Y23684D01*
X94925Y23693D01*
X94921Y23705D01*
X94916Y23717D01*
X94910Y23734D01*
X94904Y23753D01*
X94897Y23771D01*
X94882Y23814D01*
X94867Y23858D01*
X94853Y23903D01*
X94840Y23945D01*
D02*
G37*
G36*
X80644Y77298D02*
X80620D01*
X80570Y77296D01*
X80525Y77292D01*
X80486Y77287D01*
X80455Y77280D01*
X80429Y77272D01*
X80410Y77267D01*
X80399Y77263D01*
X80398Y77261D01*
X80396D01*
X80366Y77246D01*
X80342Y77230D01*
X80320Y77213D01*
X80303Y77196D01*
X80288Y77181D01*
X80277Y77170D01*
X80272Y77163D01*
X80270Y77159D01*
X80255Y77131D01*
X80242Y77102D01*
X80233Y77072D01*
X80223Y77043D01*
X80218Y77015D01*
X80214Y76994D01*
X80212Y76985D01*
X80210Y76980D01*
Y76976D01*
Y76974D01*
X80494Y76952D01*
X80499Y76981D01*
X80505Y77005D01*
X80512Y77026D01*
X80520Y77043D01*
X80527Y77055D01*
X80533Y77065D01*
X80536Y77068D01*
X80538Y77070D01*
X80553Y77081D01*
X80568Y77091D01*
X80583Y77096D01*
X80596Y77102D01*
X80609Y77104D01*
X80618Y77105D01*
X80627D01*
X80646Y77104D01*
X80662Y77100D01*
X80677Y77094D01*
X80690Y77089D01*
X80701Y77083D01*
X80709Y77078D01*
X80712Y77074D01*
X80714Y77072D01*
X80725Y77059D01*
X80735Y77046D01*
X80740Y77033D01*
X80746Y77020D01*
X80747Y77009D01*
X80749Y77000D01*
Y76994D01*
Y76993D01*
X80747Y76976D01*
X80744Y76961D01*
X80738Y76944D01*
X80733Y76931D01*
X80725Y76918D01*
X80720Y76909D01*
X80716Y76904D01*
X80714Y76902D01*
X80707Y76893D01*
X80697Y76881D01*
X80675Y76859D01*
X80647Y76837D01*
X80622Y76813D01*
X80596Y76793D01*
X80575Y76776D01*
X80566Y76770D01*
X80560Y76765D01*
X80557Y76763D01*
X80555Y76761D01*
X80518Y76733D01*
X80485Y76707D01*
X80453Y76681D01*
X80425Y76657D01*
X80399Y76633D01*
X80377Y76613D01*
X80357Y76593D01*
X80340Y76574D01*
X80325Y76557D01*
X80310Y76543D01*
X80301Y76530D01*
X80292Y76520D01*
X80285Y76511D01*
X80281Y76506D01*
X80279Y76502D01*
X80277Y76500D01*
X80253Y76459D01*
X80233Y76417D01*
X80218Y76378D01*
X80207Y76343D01*
X80198Y76311D01*
X80196Y76298D01*
X80194Y76287D01*
X80192Y76280D01*
X80190Y76272D01*
Y76267D01*
X81038D01*
Y76496D01*
X80596D01*
X80623Y76520D01*
X80644Y76541D01*
X80651Y76546D01*
X80657Y76552D01*
X80660Y76554D01*
X80662Y76556D01*
X80675Y76567D01*
X80692Y76580D01*
X80712Y76593D01*
X80731Y76606D01*
X80749Y76618D01*
X80764Y76630D01*
X80773Y76637D01*
X80777Y76639D01*
X80803Y76657D01*
X80827Y76676D01*
X80849Y76694D01*
X80870Y76711D01*
X80886Y76728D01*
X80903Y76743D01*
X80931Y76770D01*
X80951Y76793D01*
X80964Y76809D01*
X80973Y76820D01*
X80975Y76824D01*
X80994Y76855D01*
X81007Y76887D01*
X81018Y76918D01*
X81023Y76944D01*
X81027Y76968D01*
X81031Y76987D01*
Y76993D01*
Y76998D01*
Y77000D01*
Y77002D01*
X81029Y77033D01*
X81023Y77063D01*
X81016Y77091D01*
X81007Y77113D01*
X80997Y77133D01*
X80990Y77146D01*
X80984Y77155D01*
X80983Y77159D01*
X80964Y77183D01*
X80942Y77205D01*
X80920Y77222D01*
X80899Y77237D01*
X80881Y77248D01*
X80864Y77257D01*
X80855Y77261D01*
X80853Y77263D01*
X80851D01*
X80818Y77274D01*
X80781Y77283D01*
X80742Y77289D01*
X80705Y77294D01*
X80672Y77296D01*
X80657D01*
X80644Y77298D01*
D02*
G37*
G36*
X78851Y77281D02*
X78537D01*
Y76267D01*
X78851D01*
Y77281D01*
D02*
G37*
G36*
X79585Y77298D02*
X79561D01*
X79516Y77296D01*
X79474Y77292D01*
X79433Y77285D01*
X79396Y77276D01*
X79361Y77267D01*
X79329Y77254D01*
X79299Y77242D01*
X79274Y77230D01*
X79251Y77217D01*
X79231Y77204D01*
X79214Y77191D01*
X79199Y77181D01*
X79188Y77172D01*
X79181Y77165D01*
X79175Y77161D01*
X79174Y77159D01*
X79149Y77131D01*
X79129Y77104D01*
X79111Y77072D01*
X79094Y77041D01*
X79081Y77007D01*
X79070Y76976D01*
X79061Y76944D01*
X79053Y76913D01*
X79048Y76885D01*
X79044Y76857D01*
X79040Y76833D01*
X79038Y76813D01*
Y76796D01*
X79037Y76783D01*
Y76772D01*
X79040Y76709D01*
X79048Y76652D01*
X79053Y76624D01*
X79059Y76600D01*
X79064Y76578D01*
X79072Y76557D01*
X79077Y76539D01*
X79083Y76522D01*
X79088Y76509D01*
X79094Y76498D01*
X79100Y76489D01*
X79101Y76481D01*
X79105Y76478D01*
Y76476D01*
X79133Y76435D01*
X79164Y76400D01*
X79194Y76369D01*
X79224Y76346D01*
X79249Y76328D01*
X79270Y76315D01*
X79277Y76309D01*
X79283Y76306D01*
X79287Y76304D01*
X79288D01*
X79333Y76285D01*
X79381Y76272D01*
X79427Y76263D01*
X79472Y76257D01*
X79494Y76254D01*
X79512D01*
X79529Y76252D01*
X79544Y76250D01*
X79572D01*
X79633Y76252D01*
X79688Y76259D01*
X79736Y76270D01*
X79757Y76276D01*
X79777Y76281D01*
X79796Y76287D01*
X79811Y76293D01*
X79824Y76298D01*
X79835Y76304D01*
X79844Y76307D01*
X79849Y76311D01*
X79853Y76313D01*
X79855D01*
X79896Y76339D01*
X79929Y76367D01*
X79959Y76396D01*
X79983Y76424D01*
X80003Y76450D01*
X80016Y76470D01*
X80022Y76478D01*
X80025Y76483D01*
X80027Y76487D01*
Y76489D01*
X80048Y76535D01*
X80062Y76583D01*
X80073Y76631D01*
X80081Y76678D01*
X80083Y76700D01*
X80085Y76718D01*
X80086Y76737D01*
X80088Y76752D01*
Y76781D01*
X80086Y76826D01*
X80083Y76868D01*
X80075Y76907D01*
X80066Y76944D01*
X80057Y76978D01*
X80044Y77009D01*
X80033Y77037D01*
X80020Y77063D01*
X80007Y77085D01*
X79994Y77105D01*
X79981Y77122D01*
X79972Y77137D01*
X79962Y77146D01*
X79955Y77155D01*
X79951Y77159D01*
X79949Y77161D01*
X79922Y77185D01*
X79894Y77205D01*
X79862Y77224D01*
X79831Y77241D01*
X79799Y77254D01*
X79766Y77265D01*
X79735Y77274D01*
X79703Y77281D01*
X79675Y77287D01*
X79648Y77291D01*
X79624Y77294D01*
X79601Y77296D01*
X79585Y77298D01*
D02*
G37*
%LPD*%
G36*
X79594Y77057D02*
X79625Y77050D01*
X79653Y77041D01*
X79675Y77028D01*
X79692Y77015D01*
X79705Y77005D01*
X79714Y76998D01*
X79716Y76994D01*
X79736Y76967D01*
X79751Y76933D01*
X79761Y76898D01*
X79768Y76865D01*
X79772Y76833D01*
X79773Y76820D01*
X79775Y76809D01*
Y76798D01*
Y76791D01*
Y76787D01*
Y76785D01*
Y76754D01*
X79773Y76726D01*
X79770Y76700D01*
X79766Y76676D01*
X79762Y76656D01*
X79757Y76635D01*
X79751Y76618D01*
X79748Y76604D01*
X79742Y76591D01*
X79736Y76580D01*
X79731Y76570D01*
X79727Y76563D01*
X79720Y76554D01*
X79718Y76550D01*
X79696Y76528D01*
X79670Y76513D01*
X79644Y76502D01*
X79620Y76493D01*
X79598Y76489D01*
X79579Y76487D01*
X79572Y76485D01*
X79562D01*
X79527Y76489D01*
X79496Y76496D01*
X79468Y76506D01*
X79446Y76518D01*
X79429Y76531D01*
X79416Y76541D01*
X79407Y76548D01*
X79405Y76552D01*
X79396Y76565D01*
X79386Y76580D01*
X79374Y76615D01*
X79362Y76652D01*
X79357Y76687D01*
X79353Y76720D01*
X79351Y76735D01*
Y76748D01*
X79349Y76757D01*
Y76765D01*
Y76770D01*
Y76772D01*
Y76800D01*
X79351Y76826D01*
X79355Y76850D01*
X79359Y76872D01*
X79362Y76891D01*
X79368Y76909D01*
X79374Y76926D01*
X79379Y76941D01*
X79388Y76963D01*
X79398Y76980D01*
X79405Y76989D01*
X79407Y76993D01*
X79429Y77015D01*
X79455Y77031D01*
X79481Y77044D01*
X79505Y77052D01*
X79525Y77057D01*
X79544Y77059D01*
X79555Y77061D01*
X79559D01*
X79594Y77057D01*
D02*
G37*
%LPC*%
G36*
X73535Y77298D02*
X73517D01*
X73461Y77296D01*
X73411Y77292D01*
X73368Y77285D01*
X73348Y77281D01*
X73331Y77278D01*
X73317Y77274D01*
X73304Y77270D01*
X73292Y77267D01*
X73283Y77263D01*
X73276Y77261D01*
X73270Y77259D01*
X73268Y77257D01*
X73267D01*
X73235Y77241D01*
X73207Y77224D01*
X73183Y77205D01*
X73165Y77189D01*
X73150Y77172D01*
X73139Y77159D01*
X73131Y77152D01*
X73130Y77148D01*
X73115Y77122D01*
X73104Y77096D01*
X73096Y77070D01*
X73091Y77048D01*
X73087Y77030D01*
X73085Y77013D01*
Y77004D01*
Y77002D01*
Y77000D01*
X73087Y76978D01*
X73089Y76957D01*
X73098Y76920D01*
X73113Y76887D01*
X73130Y76859D01*
X73144Y76835D01*
X73159Y76818D01*
X73168Y76809D01*
X73172Y76807D01*
Y76805D01*
X73191Y76791D01*
X73211Y76778D01*
X73255Y76754D01*
X73304Y76733D01*
X73354Y76715D01*
X73376Y76707D01*
X73396Y76702D01*
X73417Y76696D01*
X73433Y76691D01*
X73446Y76689D01*
X73457Y76685D01*
X73465Y76683D01*
X73467D01*
X73489Y76678D01*
X73509Y76672D01*
X73528Y76668D01*
X73544Y76663D01*
X73572Y76652D01*
X73594Y76643D01*
X73609Y76635D01*
X73620Y76630D01*
X73626Y76626D01*
X73628Y76624D01*
X73639Y76613D01*
X73648Y76600D01*
X73654Y76589D01*
X73659Y76578D01*
X73661Y76568D01*
X73663Y76561D01*
Y76556D01*
Y76554D01*
X73661Y76539D01*
X73657Y76524D01*
X73652Y76511D01*
X73644Y76500D01*
X73637Y76493D01*
X73631Y76485D01*
X73628Y76481D01*
X73626Y76480D01*
X73611Y76470D01*
X73594Y76463D01*
X73578Y76457D01*
X73561Y76454D01*
X73544Y76452D01*
X73533Y76450D01*
X73522D01*
X73491Y76452D01*
X73463Y76459D01*
X73439Y76468D01*
X73418Y76481D01*
X73404Y76493D01*
X73392Y76502D01*
X73385Y76509D01*
X73383Y76511D01*
X73374Y76526D01*
X73365Y76544D01*
X73354Y76581D01*
X73348Y76596D01*
X73346Y76609D01*
X73344Y76618D01*
Y76622D01*
X73046Y76602D01*
X73050Y76574D01*
X73055Y76546D01*
X73068Y76498D01*
X73087Y76454D01*
X73107Y76417D01*
X73117Y76402D01*
X73126Y76387D01*
X73135Y76376D01*
X73142Y76367D01*
X73148Y76359D01*
X73154Y76354D01*
X73155Y76350D01*
X73157Y76348D01*
X73178Y76331D01*
X73202Y76317D01*
X73228Y76302D01*
X73255Y76291D01*
X73315Y76274D01*
X73374Y76263D01*
X73404Y76257D01*
X73429Y76256D01*
X73454Y76254D01*
X73474Y76252D01*
X73492Y76250D01*
X73517D01*
X73570Y76252D01*
X73617Y76256D01*
X73659Y76263D01*
X73694Y76270D01*
X73709Y76274D01*
X73722Y76278D01*
X73735Y76281D01*
X73744Y76285D01*
X73752Y76287D01*
X73757Y76289D01*
X73759Y76291D01*
X73761D01*
X73796Y76309D01*
X73826Y76328D01*
X73852Y76348D01*
X73874Y76369D01*
X73891Y76387D01*
X73904Y76402D01*
X73911Y76411D01*
X73913Y76415D01*
X73931Y76446D01*
X73944Y76478D01*
X73955Y76509D01*
X73961Y76537D01*
X73965Y76561D01*
X73968Y76580D01*
Y76596D01*
X73966Y76626D01*
X73963Y76656D01*
X73955Y76680D01*
X73948Y76702D01*
X73941Y76720D01*
X73933Y76735D01*
X73929Y76743D01*
X73928Y76746D01*
X73911Y76770D01*
X73891Y76793D01*
X73868Y76811D01*
X73848Y76828D01*
X73828Y76841D01*
X73813Y76850D01*
X73802Y76855D01*
X73800Y76857D01*
X73798D01*
X73779Y76867D01*
X73759Y76874D01*
X73715Y76891D01*
X73665Y76907D01*
X73617Y76920D01*
X73594Y76926D01*
X73572Y76931D01*
X73552Y76937D01*
X73535Y76941D01*
X73522Y76944D01*
X73511Y76946D01*
X73504Y76948D01*
X73502D01*
X73474Y76954D01*
X73452Y76961D01*
X73433Y76967D01*
X73420Y76972D01*
X73409Y76978D01*
X73404Y76981D01*
X73400Y76985D01*
X73398D01*
X73391Y76993D01*
X73385Y77000D01*
X73379Y77015D01*
X73376Y77026D01*
Y77028D01*
Y77030D01*
X73378Y77041D01*
X73379Y77052D01*
X73389Y77070D01*
X73398Y77081D01*
X73400Y77083D01*
X73402Y77085D01*
X73413Y77093D01*
X73426Y77100D01*
X73454Y77105D01*
X73467Y77107D01*
X73476Y77109D01*
X73485D01*
X73509Y77107D01*
X73529Y77104D01*
X73548Y77100D01*
X73563Y77094D01*
X73574Y77087D01*
X73581Y77083D01*
X73587Y77080D01*
X73589Y77078D01*
X73602Y77065D01*
X73613Y77048D01*
X73620Y77031D01*
X73628Y77017D01*
X73633Y77002D01*
X73637Y76989D01*
X73639Y76981D01*
Y76978D01*
X73935Y76994D01*
X73929Y77022D01*
X73924Y77050D01*
X73916Y77074D01*
X73907Y77096D01*
X73898Y77117D01*
X73887Y77137D01*
X73878Y77154D01*
X73866Y77168D01*
X73846Y77192D01*
X73829Y77211D01*
X73816Y77220D01*
X73815Y77224D01*
X73813D01*
X73792Y77237D01*
X73770Y77248D01*
X73724Y77267D01*
X73674Y77280D01*
X73626Y77289D01*
X73604Y77292D01*
X73583Y77294D01*
X73565Y77296D01*
X73548D01*
X73535Y77298D01*
D02*
G37*
G36*
X75229D02*
X75187D01*
X75124Y77296D01*
X75096Y77294D01*
X75068Y77291D01*
X75044Y77287D01*
X75022Y77281D01*
X75000Y77278D01*
X74981Y77274D01*
X74965Y77268D01*
X74950Y77265D01*
X74937Y77259D01*
X74926Y77255D01*
X74918Y77254D01*
X74913Y77250D01*
X74909Y77248D01*
X74907D01*
X74861Y77222D01*
X74820Y77192D01*
X74787Y77161D01*
X74757Y77131D01*
X74735Y77104D01*
X74720Y77081D01*
X74715Y77072D01*
X74711Y77067D01*
X74707Y77063D01*
Y77061D01*
X74685Y77013D01*
X74668Y76965D01*
X74655Y76917D01*
X74648Y76872D01*
X74644Y76852D01*
X74642Y76833D01*
X74640Y76817D01*
Y76802D01*
X74639Y76791D01*
Y76774D01*
X74640Y76717D01*
X74648Y76663D01*
X74657Y76615D01*
X74663Y76593D01*
X74670Y76574D01*
X74676Y76556D01*
X74681Y76539D01*
X74685Y76526D01*
X74690Y76515D01*
X74694Y76506D01*
X74698Y76498D01*
X74700Y76494D01*
Y76493D01*
X74726Y76450D01*
X74753Y76413D01*
X74783Y76381D01*
X74811Y76357D01*
X74837Y76337D01*
X74857Y76322D01*
X74865Y76319D01*
X74870Y76315D01*
X74874Y76311D01*
X74876D01*
X74922Y76291D01*
X74970Y76276D01*
X75020Y76265D01*
X75066Y76257D01*
X75089Y76256D01*
X75109Y76254D01*
X75126Y76252D01*
X75142D01*
X75155Y76250D01*
X75172D01*
X75226Y76252D01*
X75274Y76256D01*
X75318Y76261D01*
X75355Y76267D01*
X75370Y76270D01*
X75385Y76272D01*
X75396Y76276D01*
X75407Y76278D01*
X75414Y76280D01*
X75420Y76281D01*
X75424Y76283D01*
X75426D01*
X75466Y76298D01*
X75509Y76319D01*
X75551Y76341D01*
X75590Y76361D01*
X75624Y76381D01*
X75639Y76391D01*
X75650Y76398D01*
X75661Y76404D01*
X75668Y76409D01*
X75672Y76411D01*
X75674Y76413D01*
Y76846D01*
X75189D01*
Y76635D01*
X75400D01*
Y76539D01*
X75377Y76526D01*
X75355Y76515D01*
X75337Y76506D01*
X75320Y76500D01*
X75307Y76494D01*
X75298Y76491D01*
X75290Y76487D01*
X75289D01*
X75253Y76478D01*
X75237Y76476D01*
X75220Y76474D01*
X75207Y76472D01*
X75189D01*
X75150Y76476D01*
X75115Y76483D01*
X75085Y76494D01*
X75061Y76507D01*
X75040Y76520D01*
X75026Y76531D01*
X75018Y76539D01*
X75015Y76543D01*
X75003Y76557D01*
X74994Y76572D01*
X74979Y76609D01*
X74968Y76648D01*
X74961Y76687D01*
X74957Y76722D01*
X74955Y76737D01*
Y76752D01*
X74953Y76763D01*
Y76770D01*
Y76776D01*
Y76778D01*
Y76805D01*
X74955Y76831D01*
X74959Y76855D01*
X74963Y76878D01*
X74968Y76898D01*
X74972Y76917D01*
X74985Y76948D01*
X74996Y76972D01*
X75005Y76991D01*
X75013Y77000D01*
X75015Y77004D01*
X75039Y77028D01*
X75066Y77046D01*
X75094Y77059D01*
X75120Y77067D01*
X75144Y77072D01*
X75163Y77074D01*
X75170Y77076D01*
X75179D01*
X75205Y77074D01*
X75227Y77070D01*
X75246Y77067D01*
X75263Y77061D01*
X75276Y77054D01*
X75287Y77050D01*
X75292Y77046D01*
X75294Y77044D01*
X75309Y77031D01*
X75324Y77018D01*
X75335Y77004D01*
X75344Y76991D01*
X75350Y76978D01*
X75355Y76967D01*
X75359Y76959D01*
Y76957D01*
X75661Y77011D01*
X75650Y77046D01*
X75637Y77078D01*
X75622Y77105D01*
X75609Y77128D01*
X75596Y77146D01*
X75587Y77161D01*
X75579Y77168D01*
X75577Y77172D01*
X75555Y77194D01*
X75533Y77215D01*
X75509Y77231D01*
X75487Y77244D01*
X75468Y77254D01*
X75453Y77261D01*
X75442Y77265D01*
X75440Y77267D01*
X75439D01*
X75422Y77272D01*
X75403Y77278D01*
X75364Y77285D01*
X75322Y77291D01*
X75281Y77294D01*
X75244Y77296D01*
X75229Y77298D01*
D02*
G37*
G36*
X76546D02*
X76300D01*
X75785Y76687D01*
Y76456D01*
X76300D01*
Y76267D01*
X76546D01*
Y76456D01*
X76674D01*
Y76674D01*
X76546D01*
Y77298D01*
D02*
G37*
G36*
X74453Y77281D02*
X74139D01*
Y76267D01*
X74453D01*
Y77281D01*
D02*
G37*
%LPD*%
G36*
X76300Y76674D02*
X76026D01*
X76300Y76994D01*
Y76674D01*
D02*
G37*
%LPC*%
G36*
X68045Y77298D02*
X68026D01*
X67971Y77296D01*
X67921Y77292D01*
X67878Y77285D01*
X67858Y77281D01*
X67841Y77278D01*
X67826Y77274D01*
X67813Y77270D01*
X67802Y77267D01*
X67793Y77263D01*
X67785Y77261D01*
X67780Y77259D01*
X67778Y77257D01*
X67776D01*
X67745Y77241D01*
X67717Y77224D01*
X67693Y77205D01*
X67674Y77189D01*
X67659Y77172D01*
X67648Y77159D01*
X67641Y77152D01*
X67639Y77148D01*
X67624Y77122D01*
X67613Y77096D01*
X67606Y77070D01*
X67600Y77048D01*
X67597Y77030D01*
X67595Y77013D01*
Y77004D01*
Y77002D01*
Y77000D01*
X67597Y76978D01*
X67598Y76957D01*
X67608Y76920D01*
X67622Y76887D01*
X67639Y76859D01*
X67654Y76835D01*
X67669Y76818D01*
X67678Y76809D01*
X67682Y76807D01*
Y76805D01*
X67700Y76791D01*
X67721Y76778D01*
X67765Y76754D01*
X67813Y76733D01*
X67863Y76715D01*
X67885Y76707D01*
X67906Y76702D01*
X67926Y76696D01*
X67943Y76691D01*
X67956Y76689D01*
X67967Y76685D01*
X67974Y76683D01*
X67976D01*
X67998Y76678D01*
X68019Y76672D01*
X68037Y76668D01*
X68054Y76663D01*
X68082Y76652D01*
X68104Y76643D01*
X68119Y76635D01*
X68130Y76630D01*
X68135Y76626D01*
X68137Y76624D01*
X68148Y76613D01*
X68158Y76600D01*
X68163Y76589D01*
X68169Y76578D01*
X68171Y76568D01*
X68172Y76561D01*
Y76556D01*
Y76554D01*
X68171Y76539D01*
X68167Y76524D01*
X68161Y76511D01*
X68154Y76500D01*
X68146Y76493D01*
X68141Y76485D01*
X68137Y76481D01*
X68135Y76480D01*
X68121Y76470D01*
X68104Y76463D01*
X68087Y76457D01*
X68071Y76454D01*
X68054Y76452D01*
X68043Y76450D01*
X68032D01*
X68000Y76452D01*
X67972Y76459D01*
X67948Y76468D01*
X67928Y76481D01*
X67913Y76493D01*
X67902Y76502D01*
X67895Y76509D01*
X67893Y76511D01*
X67884Y76526D01*
X67874Y76544D01*
X67863Y76581D01*
X67858Y76596D01*
X67856Y76609D01*
X67854Y76618D01*
Y76622D01*
X67556Y76602D01*
X67560Y76574D01*
X67565Y76546D01*
X67578Y76498D01*
X67597Y76454D01*
X67617Y76417D01*
X67626Y76402D01*
X67635Y76387D01*
X67645Y76376D01*
X67652Y76367D01*
X67658Y76359D01*
X67663Y76354D01*
X67665Y76350D01*
X67667Y76348D01*
X67687Y76331D01*
X67711Y76317D01*
X67737Y76302D01*
X67765Y76291D01*
X67824Y76274D01*
X67884Y76263D01*
X67913Y76257D01*
X67939Y76256D01*
X67963Y76254D01*
X67984Y76252D01*
X68002Y76250D01*
X68026D01*
X68080Y76252D01*
X68126Y76256D01*
X68169Y76263D01*
X68204Y76270D01*
X68219Y76274D01*
X68232Y76278D01*
X68245Y76281D01*
X68254Y76285D01*
X68261Y76287D01*
X68267Y76289D01*
X68269Y76291D01*
X68271D01*
X68306Y76309D01*
X68335Y76328D01*
X68361Y76348D01*
X68383Y76369D01*
X68400Y76387D01*
X68413Y76402D01*
X68421Y76411D01*
X68422Y76415D01*
X68441Y76446D01*
X68454Y76478D01*
X68465Y76509D01*
X68471Y76537D01*
X68474Y76561D01*
X68478Y76580D01*
Y76596D01*
X68476Y76626D01*
X68472Y76656D01*
X68465Y76680D01*
X68458Y76702D01*
X68450Y76720D01*
X68443Y76735D01*
X68439Y76743D01*
X68437Y76746D01*
X68421Y76770D01*
X68400Y76793D01*
X68378Y76811D01*
X68358Y76828D01*
X68337Y76841D01*
X68322Y76850D01*
X68311Y76855D01*
X68309Y76857D01*
X68308D01*
X68289Y76867D01*
X68269Y76874D01*
X68224Y76891D01*
X68174Y76907D01*
X68126Y76920D01*
X68104Y76926D01*
X68082Y76931D01*
X68061Y76937D01*
X68045Y76941D01*
X68032Y76944D01*
X68021Y76946D01*
X68013Y76948D01*
X68011D01*
X67984Y76954D01*
X67961Y76961D01*
X67943Y76967D01*
X67930Y76972D01*
X67919Y76978D01*
X67913Y76981D01*
X67909Y76985D01*
X67908D01*
X67900Y76993D01*
X67895Y77000D01*
X67889Y77015D01*
X67885Y77026D01*
Y77028D01*
Y77030D01*
X67887Y77041D01*
X67889Y77052D01*
X67898Y77070D01*
X67908Y77081D01*
X67909Y77083D01*
X67911Y77085D01*
X67922Y77093D01*
X67935Y77100D01*
X67963Y77105D01*
X67976Y77107D01*
X67985Y77109D01*
X67995D01*
X68019Y77107D01*
X68039Y77104D01*
X68058Y77100D01*
X68072Y77094D01*
X68084Y77087D01*
X68091Y77083D01*
X68096Y77080D01*
X68098Y77078D01*
X68111Y77065D01*
X68122Y77048D01*
X68130Y77031D01*
X68137Y77017D01*
X68143Y77002D01*
X68146Y76989D01*
X68148Y76981D01*
Y76978D01*
X68445Y76994D01*
X68439Y77022D01*
X68433Y77050D01*
X68426Y77074D01*
X68417Y77096D01*
X68408Y77117D01*
X68396Y77137D01*
X68387Y77154D01*
X68376Y77168D01*
X68356Y77192D01*
X68339Y77211D01*
X68326Y77220D01*
X68324Y77224D01*
X68322D01*
X68302Y77237D01*
X68280Y77248D01*
X68233Y77267D01*
X68184Y77280D01*
X68135Y77289D01*
X68113Y77292D01*
X68093Y77294D01*
X68074Y77296D01*
X68058D01*
X68045Y77298D01*
D02*
G37*
G36*
X69739D02*
X69696D01*
X69633Y77296D01*
X69606Y77294D01*
X69578Y77291D01*
X69554Y77287D01*
X69532Y77281D01*
X69509Y77278D01*
X69491Y77274D01*
X69474Y77268D01*
X69459Y77265D01*
X69446Y77259D01*
X69435Y77255D01*
X69428Y77254D01*
X69422Y77250D01*
X69419Y77248D01*
X69417D01*
X69370Y77222D01*
X69330Y77192D01*
X69296Y77161D01*
X69267Y77131D01*
X69245Y77104D01*
X69230Y77081D01*
X69224Y77072D01*
X69220Y77067D01*
X69217Y77063D01*
Y77061D01*
X69195Y77013D01*
X69178Y76965D01*
X69165Y76917D01*
X69157Y76872D01*
X69154Y76852D01*
X69152Y76833D01*
X69150Y76817D01*
Y76802D01*
X69148Y76791D01*
Y76774D01*
X69150Y76717D01*
X69157Y76663D01*
X69167Y76615D01*
X69172Y76593D01*
X69180Y76574D01*
X69185Y76556D01*
X69191Y76539D01*
X69195Y76526D01*
X69200Y76515D01*
X69204Y76506D01*
X69207Y76498D01*
X69209Y76494D01*
Y76493D01*
X69235Y76450D01*
X69263Y76413D01*
X69293Y76381D01*
X69320Y76357D01*
X69346Y76337D01*
X69367Y76322D01*
X69374Y76319D01*
X69380Y76315D01*
X69383Y76311D01*
X69385D01*
X69432Y76291D01*
X69480Y76276D01*
X69530Y76265D01*
X69576Y76257D01*
X69598Y76256D01*
X69619Y76254D01*
X69635Y76252D01*
X69652D01*
X69665Y76250D01*
X69682D01*
X69735Y76252D01*
X69783Y76256D01*
X69828Y76261D01*
X69865Y76267D01*
X69880Y76270D01*
X69894Y76272D01*
X69906Y76276D01*
X69917Y76278D01*
X69924Y76280D01*
X69930Y76281D01*
X69933Y76283D01*
X69935D01*
X69976Y76298D01*
X70019Y76319D01*
X70061Y76341D01*
X70100Y76361D01*
X70133Y76381D01*
X70148Y76391D01*
X70159Y76398D01*
X70170Y76404D01*
X70178Y76409D01*
X70181Y76411D01*
X70183Y76413D01*
Y76846D01*
X69698D01*
Y76635D01*
X69909D01*
Y76539D01*
X69887Y76526D01*
X69865Y76515D01*
X69846Y76506D01*
X69830Y76500D01*
X69817Y76494D01*
X69807Y76491D01*
X69800Y76487D01*
X69798D01*
X69763Y76478D01*
X69746Y76476D01*
X69730Y76474D01*
X69717Y76472D01*
X69698D01*
X69659Y76476D01*
X69624Y76483D01*
X69594Y76494D01*
X69570Y76507D01*
X69550Y76520D01*
X69535Y76531D01*
X69528Y76539D01*
X69524Y76543D01*
X69513Y76557D01*
X69504Y76572D01*
X69489Y76609D01*
X69478Y76648D01*
X69470Y76687D01*
X69467Y76722D01*
X69465Y76737D01*
Y76752D01*
X69463Y76763D01*
Y76770D01*
Y76776D01*
Y76778D01*
Y76805D01*
X69465Y76831D01*
X69469Y76855D01*
X69472Y76878D01*
X69478Y76898D01*
X69482Y76917D01*
X69494Y76948D01*
X69506Y76972D01*
X69515Y76991D01*
X69522Y77000D01*
X69524Y77004D01*
X69548Y77028D01*
X69576Y77046D01*
X69604Y77059D01*
X69630Y77067D01*
X69654Y77072D01*
X69672Y77074D01*
X69680Y77076D01*
X69689D01*
X69715Y77074D01*
X69737Y77070D01*
X69756Y77067D01*
X69772Y77061D01*
X69785Y77054D01*
X69796Y77050D01*
X69802Y77046D01*
X69804Y77044D01*
X69819Y77031D01*
X69833Y77018D01*
X69844Y77004D01*
X69854Y76991D01*
X69859Y76978D01*
X69865Y76967D01*
X69869Y76959D01*
Y76957D01*
X70170Y77011D01*
X70159Y77046D01*
X70146Y77078D01*
X70131Y77105D01*
X70118Y77128D01*
X70106Y77146D01*
X70096Y77161D01*
X70089Y77168D01*
X70087Y77172D01*
X70065Y77194D01*
X70043Y77215D01*
X70019Y77231D01*
X69996Y77244D01*
X69978Y77254D01*
X69963Y77261D01*
X69952Y77265D01*
X69950Y77267D01*
X69948D01*
X69931Y77272D01*
X69913Y77278D01*
X69874Y77285D01*
X69831Y77291D01*
X69791Y77294D01*
X69754Y77296D01*
X69739Y77298D01*
D02*
G37*
G36*
X70743D02*
X70724D01*
X70663Y77294D01*
X70635Y77292D01*
X70609Y77287D01*
X70585Y77281D01*
X70563Y77276D01*
X70543Y77270D01*
X70526Y77265D01*
X70509Y77257D01*
X70494Y77252D01*
X70483Y77246D01*
X70474Y77241D01*
X70465Y77235D01*
X70459Y77233D01*
X70457Y77230D01*
X70455D01*
X70422Y77202D01*
X70396Y77170D01*
X70374Y77137D01*
X70357Y77105D01*
X70344Y77078D01*
X70341Y77065D01*
X70335Y77054D01*
X70333Y77046D01*
X70331Y77039D01*
X70330Y77035D01*
Y77033D01*
X70596Y76987D01*
X70602Y77013D01*
X70607Y77035D01*
X70615Y77052D01*
X70620Y77067D01*
X70628Y77078D01*
X70631Y77085D01*
X70635Y77089D01*
X70637Y77091D01*
X70650Y77102D01*
X70663Y77109D01*
X70676Y77115D01*
X70689Y77118D01*
X70702Y77120D01*
X70711Y77122D01*
X70718D01*
X70737Y77120D01*
X70752Y77118D01*
X70765Y77113D01*
X70776Y77109D01*
X70785Y77104D01*
X70791Y77098D01*
X70794Y77096D01*
X70796Y77094D01*
X70805Y77083D01*
X70813Y77070D01*
X70817Y77059D01*
X70820Y77046D01*
X70822Y77037D01*
X70824Y77028D01*
Y77022D01*
Y77020D01*
X70822Y77004D01*
X70818Y76987D01*
X70811Y76972D01*
X70805Y76961D01*
X70798Y76950D01*
X70791Y76943D01*
X70787Y76939D01*
X70785Y76937D01*
X70770Y76926D01*
X70755Y76918D01*
X70739Y76911D01*
X70726Y76907D01*
X70713Y76905D01*
X70702Y76904D01*
X70681D01*
X70668Y76905D01*
X70655D01*
X70643Y76706D01*
X70663Y76711D01*
X70681Y76715D01*
X70696Y76718D01*
X70709Y76720D01*
X70720Y76722D01*
X70733D01*
X70755Y76720D01*
X70776Y76717D01*
X70793Y76709D01*
X70807Y76704D01*
X70818Y76696D01*
X70826Y76689D01*
X70831Y76685D01*
X70833Y76683D01*
X70846Y76667D01*
X70855Y76650D01*
X70861Y76631D01*
X70867Y76615D01*
X70868Y76598D01*
X70870Y76585D01*
Y76578D01*
Y76574D01*
X70868Y76550D01*
X70865Y76528D01*
X70857Y76507D01*
X70852Y76493D01*
X70844Y76480D01*
X70837Y76470D01*
X70833Y76465D01*
X70831Y76463D01*
X70817Y76450D01*
X70802Y76439D01*
X70785Y76431D01*
X70770Y76428D01*
X70757Y76424D01*
X70746Y76422D01*
X70737D01*
X70717Y76424D01*
X70700Y76428D01*
X70683Y76431D01*
X70670Y76439D01*
X70661Y76444D01*
X70652Y76448D01*
X70648Y76452D01*
X70646Y76454D01*
X70635Y76468D01*
X70624Y76487D01*
X70609Y76526D01*
X70604Y76544D01*
X70600Y76559D01*
X70596Y76568D01*
Y76572D01*
X70315Y76533D01*
X70326Y76500D01*
X70339Y76468D01*
X70350Y76443D01*
X70363Y76419D01*
X70374Y76400D01*
X70383Y76387D01*
X70391Y76380D01*
X70393Y76376D01*
X70413Y76354D01*
X70435Y76335D01*
X70457Y76319D01*
X70478Y76306D01*
X70496Y76294D01*
X70511Y76287D01*
X70520Y76283D01*
X70524Y76281D01*
X70557Y76270D01*
X70593Y76263D01*
X70630Y76257D01*
X70665Y76254D01*
X70694Y76252D01*
X70709D01*
X70720Y76250D01*
X70743D01*
X70793Y76252D01*
X70839Y76257D01*
X70878Y76263D01*
X70911Y76272D01*
X70937Y76280D01*
X70948Y76283D01*
X70955Y76285D01*
X70963Y76289D01*
X70968Y76291D01*
X70970Y76293D01*
X70972D01*
X71004Y76311D01*
X71030Y76331D01*
X71052Y76352D01*
X71072Y76372D01*
X71087Y76391D01*
X71096Y76406D01*
X71104Y76415D01*
X71105Y76419D01*
X71122Y76450D01*
X71133Y76480D01*
X71142Y76507D01*
X71148Y76535D01*
X71152Y76557D01*
X71154Y76574D01*
Y76589D01*
X71152Y76615D01*
X71150Y76637D01*
X71144Y76657D01*
X71139Y76676D01*
X71133Y76689D01*
X71130Y76700D01*
X71126Y76707D01*
X71124Y76709D01*
X71113Y76728D01*
X71100Y76744D01*
X71087Y76759D01*
X71074Y76770D01*
X71063Y76780D01*
X71054Y76787D01*
X71048Y76791D01*
X71046Y76793D01*
X71033Y76800D01*
X71018Y76805D01*
X70991Y76817D01*
X70978Y76820D01*
X70967Y76824D01*
X70959Y76826D01*
X70957D01*
X70983Y76841D01*
X71005Y76857D01*
X71024Y76874D01*
X71039Y76887D01*
X71050Y76900D01*
X71057Y76909D01*
X71063Y76917D01*
X71065Y76918D01*
X71078Y76939D01*
X71087Y76959D01*
X71092Y76980D01*
X71098Y76998D01*
X71100Y77013D01*
X71102Y77026D01*
Y77033D01*
Y77037D01*
X71100Y77057D01*
X71098Y77078D01*
X71089Y77115D01*
X71074Y77146D01*
X71057Y77172D01*
X71041Y77194D01*
X71028Y77211D01*
X71017Y77220D01*
X71015Y77224D01*
X71013D01*
X70994Y77237D01*
X70976Y77248D01*
X70930Y77267D01*
X70883Y77280D01*
X70835Y77289D01*
X70813Y77292D01*
X70793Y77294D01*
X70774Y77296D01*
X70757D01*
X70743Y77298D01*
D02*
G37*
G36*
X68963Y77281D02*
X68648D01*
Y76267D01*
X68963D01*
Y77281D01*
D02*
G37*
G36*
X62554Y77298D02*
X62536D01*
X62480Y77296D01*
X62430Y77292D01*
X62388Y77285D01*
X62367Y77281D01*
X62351Y77278D01*
X62336Y77274D01*
X62323Y77270D01*
X62312Y77267D01*
X62302Y77263D01*
X62295Y77261D01*
X62289Y77259D01*
X62288Y77257D01*
X62286D01*
X62254Y77241D01*
X62226Y77224D01*
X62202Y77205D01*
X62184Y77189D01*
X62169Y77172D01*
X62158Y77159D01*
X62151Y77152D01*
X62149Y77148D01*
X62134Y77122D01*
X62123Y77096D01*
X62115Y77070D01*
X62110Y77048D01*
X62106Y77030D01*
X62104Y77013D01*
Y77004D01*
Y77002D01*
Y77000D01*
X62106Y76978D01*
X62108Y76957D01*
X62117Y76920D01*
X62132Y76887D01*
X62149Y76859D01*
X62164Y76835D01*
X62178Y76818D01*
X62188Y76809D01*
X62191Y76807D01*
Y76805D01*
X62210Y76791D01*
X62230Y76778D01*
X62275Y76754D01*
X62323Y76733D01*
X62373Y76715D01*
X62395Y76707D01*
X62415Y76702D01*
X62436Y76696D01*
X62452Y76691D01*
X62465Y76689D01*
X62476Y76685D01*
X62484Y76683D01*
X62486D01*
X62508Y76678D01*
X62528Y76672D01*
X62547Y76668D01*
X62563Y76663D01*
X62591Y76652D01*
X62613Y76643D01*
X62628Y76635D01*
X62639Y76630D01*
X62645Y76626D01*
X62647Y76624D01*
X62658Y76613D01*
X62667Y76600D01*
X62673Y76589D01*
X62678Y76578D01*
X62680Y76568D01*
X62682Y76561D01*
Y76556D01*
Y76554D01*
X62680Y76539D01*
X62676Y76524D01*
X62671Y76511D01*
X62663Y76500D01*
X62656Y76493D01*
X62651Y76485D01*
X62647Y76481D01*
X62645Y76480D01*
X62630Y76470D01*
X62613Y76463D01*
X62597Y76457D01*
X62580Y76454D01*
X62563Y76452D01*
X62552Y76450D01*
X62541D01*
X62510Y76452D01*
X62482Y76459D01*
X62458Y76468D01*
X62438Y76481D01*
X62423Y76493D01*
X62412Y76502D01*
X62404Y76509D01*
X62402Y76511D01*
X62393Y76526D01*
X62384Y76544D01*
X62373Y76581D01*
X62367Y76596D01*
X62365Y76609D01*
X62364Y76618D01*
Y76622D01*
X62065Y76602D01*
X62069Y76574D01*
X62075Y76546D01*
X62088Y76498D01*
X62106Y76454D01*
X62126Y76417D01*
X62136Y76402D01*
X62145Y76387D01*
X62154Y76376D01*
X62162Y76367D01*
X62167Y76359D01*
X62173Y76354D01*
X62175Y76350D01*
X62176Y76348D01*
X62197Y76331D01*
X62221Y76317D01*
X62247Y76302D01*
X62275Y76291D01*
X62334Y76274D01*
X62393Y76263D01*
X62423Y76257D01*
X62449Y76256D01*
X62473Y76254D01*
X62493Y76252D01*
X62512Y76250D01*
X62536D01*
X62589Y76252D01*
X62636Y76256D01*
X62678Y76263D01*
X62713Y76270D01*
X62728Y76274D01*
X62741Y76278D01*
X62754Y76281D01*
X62763Y76285D01*
X62771Y76287D01*
X62776Y76289D01*
X62778Y76291D01*
X62780D01*
X62815Y76309D01*
X62845Y76328D01*
X62871Y76348D01*
X62893Y76369D01*
X62910Y76387D01*
X62923Y76402D01*
X62930Y76411D01*
X62932Y76415D01*
X62950Y76446D01*
X62963Y76478D01*
X62975Y76509D01*
X62980Y76537D01*
X62984Y76561D01*
X62988Y76580D01*
Y76596D01*
X62986Y76626D01*
X62982Y76656D01*
X62975Y76680D01*
X62967Y76702D01*
X62960Y76720D01*
X62952Y76735D01*
X62949Y76743D01*
X62947Y76746D01*
X62930Y76770D01*
X62910Y76793D01*
X62888Y76811D01*
X62867Y76828D01*
X62847Y76841D01*
X62832Y76850D01*
X62821Y76855D01*
X62819Y76857D01*
X62817D01*
X62799Y76867D01*
X62778Y76874D01*
X62734Y76891D01*
X62684Y76907D01*
X62636Y76920D01*
X62613Y76926D01*
X62591Y76931D01*
X62571Y76937D01*
X62554Y76941D01*
X62541Y76944D01*
X62530Y76946D01*
X62523Y76948D01*
X62521D01*
X62493Y76954D01*
X62471Y76961D01*
X62452Y76967D01*
X62439Y76972D01*
X62428Y76978D01*
X62423Y76981D01*
X62419Y76985D01*
X62417D01*
X62410Y76993D01*
X62404Y77000D01*
X62399Y77015D01*
X62395Y77026D01*
Y77028D01*
Y77030D01*
X62397Y77041D01*
X62399Y77052D01*
X62408Y77070D01*
X62417Y77081D01*
X62419Y77083D01*
X62421Y77085D01*
X62432Y77093D01*
X62445Y77100D01*
X62473Y77105D01*
X62486Y77107D01*
X62495Y77109D01*
X62504D01*
X62528Y77107D01*
X62549Y77104D01*
X62567Y77100D01*
X62582Y77094D01*
X62593Y77087D01*
X62601Y77083D01*
X62606Y77080D01*
X62608Y77078D01*
X62621Y77065D01*
X62632Y77048D01*
X62639Y77031D01*
X62647Y77017D01*
X62652Y77002D01*
X62656Y76989D01*
X62658Y76981D01*
Y76978D01*
X62954Y76994D01*
X62949Y77022D01*
X62943Y77050D01*
X62936Y77074D01*
X62926Y77096D01*
X62917Y77117D01*
X62906Y77137D01*
X62897Y77154D01*
X62886Y77168D01*
X62865Y77192D01*
X62849Y77211D01*
X62836Y77220D01*
X62834Y77224D01*
X62832D01*
X62812Y77237D01*
X62789Y77248D01*
X62743Y77267D01*
X62693Y77280D01*
X62645Y77289D01*
X62623Y77292D01*
X62602Y77294D01*
X62584Y77296D01*
X62567D01*
X62554Y77298D01*
D02*
G37*
G36*
X63639D02*
X63621D01*
X63576Y77296D01*
X63534Y77292D01*
X63495Y77285D01*
X63458Y77278D01*
X63425Y77267D01*
X63393Y77255D01*
X63363Y77242D01*
X63339Y77231D01*
X63315Y77218D01*
X63297Y77205D01*
X63280Y77194D01*
X63265Y77183D01*
X63256Y77176D01*
X63247Y77168D01*
X63243Y77165D01*
X63241Y77163D01*
X63217Y77137D01*
X63197Y77107D01*
X63180Y77078D01*
X63163Y77046D01*
X63150Y77013D01*
X63141Y76981D01*
X63132Y76950D01*
X63125Y76918D01*
X63119Y76889D01*
X63115Y76863D01*
X63112Y76839D01*
X63110Y76817D01*
Y76800D01*
X63108Y76787D01*
Y76776D01*
X63112Y76709D01*
X63115Y76678D01*
X63119Y76648D01*
X63126Y76620D01*
X63132Y76594D01*
X63139Y76570D01*
X63147Y76550D01*
X63152Y76530D01*
X63160Y76513D01*
X63167Y76498D01*
X63173Y76487D01*
X63176Y76478D01*
X63180Y76470D01*
X63184Y76467D01*
Y76465D01*
X63213Y76422D01*
X63243Y76387D01*
X63275Y76359D01*
X63302Y76335D01*
X63326Y76319D01*
X63347Y76306D01*
X63354Y76302D01*
X63360Y76298D01*
X63362Y76296D01*
X63363D01*
X63406Y76281D01*
X63450Y76270D01*
X63497Y76261D01*
X63539Y76256D01*
X63560Y76254D01*
X63578Y76252D01*
X63593D01*
X63608Y76250D01*
X63636D01*
X63684Y76252D01*
X63728Y76256D01*
X63767Y76263D01*
X63799Y76270D01*
X63824Y76276D01*
X63845Y76283D01*
X63850Y76285D01*
X63856Y76287D01*
X63858Y76289D01*
X63860D01*
X63891Y76306D01*
X63921Y76324D01*
X63945Y76343D01*
X63967Y76361D01*
X63984Y76380D01*
X63997Y76393D01*
X64006Y76402D01*
X64008Y76406D01*
X64030Y76437D01*
X64047Y76468D01*
X64063Y76500D01*
X64074Y76531D01*
X64086Y76557D01*
X64091Y76580D01*
X64093Y76587D01*
X64095Y76593D01*
X64097Y76596D01*
Y76598D01*
X63823Y76683D01*
X63813Y76648D01*
X63802Y76618D01*
X63791Y76593D01*
X63780Y76572D01*
X63771Y76556D01*
X63762Y76544D01*
X63756Y76537D01*
X63754Y76535D01*
X63736Y76518D01*
X63713Y76506D01*
X63691Y76498D01*
X63669Y76491D01*
X63649Y76487D01*
X63632Y76485D01*
X63617D01*
X63584Y76487D01*
X63556Y76494D01*
X63530Y76504D01*
X63510Y76517D01*
X63495Y76528D01*
X63482Y76537D01*
X63475Y76544D01*
X63473Y76546D01*
X63463Y76559D01*
X63456Y76574D01*
X63443Y76609D01*
X63436Y76648D01*
X63428Y76685D01*
X63425Y76720D01*
Y76737D01*
X63423Y76750D01*
Y76761D01*
Y76770D01*
Y76776D01*
Y76778D01*
X63425Y76826D01*
X63430Y76867D01*
X63436Y76900D01*
X63445Y76928D01*
X63452Y76948D01*
X63458Y76965D01*
X63463Y76972D01*
X63465Y76976D01*
X63476Y76991D01*
X63487Y77005D01*
X63513Y77026D01*
X63541Y77043D01*
X63567Y77052D01*
X63591Y77059D01*
X63612Y77061D01*
X63617Y77063D01*
X63645D01*
X63662Y77059D01*
X63676Y77057D01*
X63689Y77054D01*
X63699Y77050D01*
X63708Y77046D01*
X63712Y77044D01*
X63713Y77043D01*
X63739Y77026D01*
X63760Y77007D01*
X63767Y77000D01*
X63774Y76993D01*
X63776Y76989D01*
X63778Y76987D01*
X63784Y76978D01*
X63789Y76968D01*
X63800Y76946D01*
X63804Y76937D01*
X63808Y76928D01*
X63810Y76922D01*
Y76920D01*
X64087Y76981D01*
X64076Y77011D01*
X64065Y77039D01*
X64052Y77063D01*
X64039Y77087D01*
X64026Y77109D01*
X64011Y77128D01*
X63999Y77146D01*
X63986Y77161D01*
X63973Y77176D01*
X63961Y77187D01*
X63950Y77198D01*
X63941Y77205D01*
X63934Y77213D01*
X63928Y77217D01*
X63924Y77220D01*
X63923D01*
X63900Y77233D01*
X63878Y77246D01*
X63830Y77265D01*
X63780Y77280D01*
X63730Y77289D01*
X63708Y77292D01*
X63687Y77294D01*
X63669Y77296D01*
X63652D01*
X63639Y77298D01*
D02*
G37*
G36*
X64561Y77281D02*
X64248D01*
Y76267D01*
X65052D01*
Y76517D01*
X64561D01*
Y77281D01*
D02*
G37*
G36*
X57064Y77298D02*
X57045D01*
X56990Y77296D01*
X56940Y77292D01*
X56897Y77285D01*
X56877Y77281D01*
X56860Y77278D01*
X56845Y77274D01*
X56832Y77270D01*
X56821Y77267D01*
X56812Y77263D01*
X56805Y77261D01*
X56799Y77259D01*
X56797Y77257D01*
X56795D01*
X56764Y77241D01*
X56736Y77224D01*
X56712Y77205D01*
X56694Y77189D01*
X56679Y77172D01*
X56668Y77159D01*
X56660Y77152D01*
X56658Y77148D01*
X56644Y77122D01*
X56632Y77096D01*
X56625Y77070D01*
X56619Y77048D01*
X56616Y77030D01*
X56614Y77013D01*
Y77004D01*
Y77002D01*
Y77000D01*
X56616Y76978D01*
X56618Y76957D01*
X56627Y76920D01*
X56642Y76887D01*
X56658Y76859D01*
X56673Y76835D01*
X56688Y76818D01*
X56697Y76809D01*
X56701Y76807D01*
Y76805D01*
X56719Y76791D01*
X56740Y76778D01*
X56784Y76754D01*
X56832Y76733D01*
X56882Y76715D01*
X56905Y76707D01*
X56925Y76702D01*
X56945Y76696D01*
X56962Y76691D01*
X56975Y76689D01*
X56986Y76685D01*
X56993Y76683D01*
X56995D01*
X57018Y76678D01*
X57038Y76672D01*
X57056Y76668D01*
X57073Y76663D01*
X57101Y76652D01*
X57123Y76643D01*
X57138Y76635D01*
X57149Y76630D01*
X57155Y76626D01*
X57156Y76624D01*
X57168Y76613D01*
X57177Y76600D01*
X57182Y76589D01*
X57188Y76578D01*
X57190Y76568D01*
X57192Y76561D01*
Y76556D01*
Y76554D01*
X57190Y76539D01*
X57186Y76524D01*
X57180Y76511D01*
X57173Y76500D01*
X57166Y76493D01*
X57160Y76485D01*
X57156Y76481D01*
X57155Y76480D01*
X57140Y76470D01*
X57123Y76463D01*
X57106Y76457D01*
X57090Y76454D01*
X57073Y76452D01*
X57062Y76450D01*
X57051D01*
X57019Y76452D01*
X56992Y76459D01*
X56968Y76468D01*
X56947Y76481D01*
X56932Y76493D01*
X56921Y76502D01*
X56914Y76509D01*
X56912Y76511D01*
X56903Y76526D01*
X56893Y76544D01*
X56882Y76581D01*
X56877Y76596D01*
X56875Y76609D01*
X56873Y76618D01*
Y76622D01*
X56575Y76602D01*
X56579Y76574D01*
X56584Y76546D01*
X56597Y76498D01*
X56616Y76454D01*
X56636Y76417D01*
X56645Y76402D01*
X56655Y76387D01*
X56664Y76376D01*
X56671Y76367D01*
X56677Y76359D01*
X56682Y76354D01*
X56684Y76350D01*
X56686Y76348D01*
X56706Y76331D01*
X56731Y76317D01*
X56756Y76302D01*
X56784Y76291D01*
X56843Y76274D01*
X56903Y76263D01*
X56932Y76257D01*
X56958Y76256D01*
X56982Y76254D01*
X57003Y76252D01*
X57021Y76250D01*
X57045D01*
X57099Y76252D01*
X57145Y76256D01*
X57188Y76263D01*
X57223Y76270D01*
X57238Y76274D01*
X57251Y76278D01*
X57264Y76281D01*
X57273Y76285D01*
X57280Y76287D01*
X57286Y76289D01*
X57288Y76291D01*
X57290D01*
X57325Y76309D01*
X57355Y76328D01*
X57380Y76348D01*
X57403Y76369D01*
X57419Y76387D01*
X57432Y76402D01*
X57440Y76411D01*
X57442Y76415D01*
X57460Y76446D01*
X57473Y76478D01*
X57484Y76509D01*
X57490Y76537D01*
X57493Y76561D01*
X57497Y76580D01*
Y76596D01*
X57495Y76626D01*
X57492Y76656D01*
X57484Y76680D01*
X57477Y76702D01*
X57469Y76720D01*
X57462Y76735D01*
X57458Y76743D01*
X57456Y76746D01*
X57440Y76770D01*
X57419Y76793D01*
X57397Y76811D01*
X57377Y76828D01*
X57356Y76841D01*
X57342Y76850D01*
X57330Y76855D01*
X57329Y76857D01*
X57327D01*
X57308Y76867D01*
X57288Y76874D01*
X57243Y76891D01*
X57193Y76907D01*
X57145Y76920D01*
X57123Y76926D01*
X57101Y76931D01*
X57081Y76937D01*
X57064Y76941D01*
X57051Y76944D01*
X57040Y76946D01*
X57032Y76948D01*
X57031D01*
X57003Y76954D01*
X56981Y76961D01*
X56962Y76967D01*
X56949Y76972D01*
X56938Y76978D01*
X56932Y76981D01*
X56929Y76985D01*
X56927D01*
X56919Y76993D01*
X56914Y77000D01*
X56908Y77015D01*
X56905Y77026D01*
Y77028D01*
Y77030D01*
X56906Y77041D01*
X56908Y77052D01*
X56918Y77070D01*
X56927Y77081D01*
X56929Y77083D01*
X56931Y77085D01*
X56942Y77093D01*
X56955Y77100D01*
X56982Y77105D01*
X56995Y77107D01*
X57005Y77109D01*
X57014D01*
X57038Y77107D01*
X57058Y77104D01*
X57077Y77100D01*
X57092Y77094D01*
X57103Y77087D01*
X57110Y77083D01*
X57116Y77080D01*
X57118Y77078D01*
X57131Y77065D01*
X57142Y77048D01*
X57149Y77031D01*
X57156Y77017D01*
X57162Y77002D01*
X57166Y76989D01*
X57168Y76981D01*
Y76978D01*
X57464Y76994D01*
X57458Y77022D01*
X57453Y77050D01*
X57445Y77074D01*
X57436Y77096D01*
X57427Y77117D01*
X57416Y77137D01*
X57406Y77154D01*
X57395Y77168D01*
X57375Y77192D01*
X57358Y77211D01*
X57345Y77220D01*
X57343Y77224D01*
X57342D01*
X57321Y77237D01*
X57299Y77248D01*
X57253Y77267D01*
X57203Y77280D01*
X57155Y77289D01*
X57132Y77292D01*
X57112Y77294D01*
X57093Y77296D01*
X57077D01*
X57064Y77298D01*
D02*
G37*
G36*
X59380Y77281D02*
X59036D01*
X58656Y76267D01*
X58977D01*
X59027Y76433D01*
X59382D01*
X59432Y76267D01*
X59762D01*
X59380Y77281D01*
D02*
G37*
G36*
X58145D02*
X57658D01*
Y76267D01*
X58123D01*
X58156Y76269D01*
X58188Y76270D01*
X58221Y76274D01*
X58249Y76280D01*
X58275Y76285D01*
X58295Y76289D01*
X58303Y76291D01*
X58308D01*
X58310Y76293D01*
X58312D01*
X58340Y76302D01*
X58366Y76315D01*
X58388Y76328D01*
X58410Y76341D01*
X58427Y76354D01*
X58440Y76365D01*
X58447Y76372D01*
X58451Y76374D01*
X58475Y76398D01*
X58495Y76424D01*
X58514Y76448D01*
X58528Y76472D01*
X58540Y76493D01*
X58547Y76509D01*
X58553Y76520D01*
X58554Y76522D01*
Y76524D01*
X58567Y76561D01*
X58577Y76602D01*
X58584Y76644D01*
X58588Y76683D01*
X58591Y76720D01*
Y76735D01*
X58593Y76750D01*
Y76776D01*
X58591Y76815D01*
X58590Y76850D01*
X58586Y76883D01*
X58580Y76913D01*
X58575Y76937D01*
X58571Y76955D01*
X58569Y76963D01*
Y76968D01*
X58567Y76970D01*
Y76972D01*
X58556Y77005D01*
X58545Y77037D01*
X58532Y77065D01*
X58519Y77089D01*
X58506Y77109D01*
X58497Y77122D01*
X58490Y77131D01*
X58488Y77135D01*
X58466Y77159D01*
X58443Y77181D01*
X58419Y77200D01*
X58397Y77215D01*
X58377Y77228D01*
X58362Y77235D01*
X58351Y77241D01*
X58349Y77242D01*
X58347D01*
X58314Y77255D01*
X58277Y77265D01*
X58240Y77272D01*
X58203Y77276D01*
X58171Y77280D01*
X58158D01*
X58145Y77281D01*
D02*
G37*
%LPD*%
G36*
X59315Y76654D02*
X59093D01*
X59204Y77017D01*
X59315Y76654D01*
D02*
G37*
G36*
X58092Y77050D02*
X58129Y77043D01*
X58158Y77033D01*
X58182Y77022D01*
X58201Y77009D01*
X58214Y77000D01*
X58223Y76993D01*
X58225Y76991D01*
X58234Y76978D01*
X58243Y76965D01*
X58256Y76931D01*
X58266Y76894D01*
X58271Y76859D01*
X58277Y76824D01*
Y76809D01*
X58279Y76796D01*
Y76785D01*
Y76778D01*
Y76772D01*
Y76770D01*
X58277Y76728D01*
X58275Y76693D01*
X58271Y76661D01*
X58267Y76637D01*
X58262Y76618D01*
X58258Y76606D01*
X58256Y76596D01*
X58254Y76594D01*
X58245Y76576D01*
X58234Y76559D01*
X58223Y76546D01*
X58212Y76537D01*
X58203Y76528D01*
X58195Y76522D01*
X58190Y76520D01*
X58188Y76518D01*
X58169Y76511D01*
X58149Y76507D01*
X58125Y76504D01*
X58103Y76500D01*
X58080D01*
X58064Y76498D01*
X57971D01*
Y77052D01*
X58049D01*
X58092Y77050D01*
D02*
G37*
%LPC*%
G36*
X82111Y16400D02*
X81378D01*
X82083D01*
X82000Y16397D01*
X81925Y16392D01*
X81861Y16381D01*
X81831Y16375D01*
X81806Y16370D01*
X81784Y16364D01*
X81764Y16358D01*
X81748Y16353D01*
X81734Y16347D01*
X81723Y16345D01*
X81714Y16342D01*
X81711Y16339D01*
X81709D01*
X81661Y16314D01*
X81620Y16289D01*
X81584Y16261D01*
X81556Y16236D01*
X81534Y16211D01*
X81517Y16192D01*
X81506Y16181D01*
X81503Y16175D01*
X81481Y16136D01*
X81464Y16097D01*
X81453Y16059D01*
X81445Y16025D01*
X81439Y15998D01*
X81437Y15973D01*
Y15959D01*
Y15956D01*
Y15953D01*
X81439Y15920D01*
X81442Y15889D01*
X81456Y15834D01*
X81478Y15784D01*
X81503Y15742D01*
X81525Y15706D01*
X81548Y15681D01*
X81562Y15667D01*
X81567Y15664D01*
Y15662D01*
X81595Y15639D01*
X81625Y15620D01*
X81692Y15584D01*
X81764Y15553D01*
X81839Y15526D01*
X81872Y15514D01*
X81903Y15506D01*
X81934Y15498D01*
X81959Y15489D01*
X81978Y15487D01*
X81995Y15481D01*
X82006Y15478D01*
X82008D01*
X82042Y15470D01*
X82072Y15462D01*
X82100Y15456D01*
X82125Y15448D01*
X82167Y15431D01*
X82200Y15417D01*
X82222Y15406D01*
X82239Y15398D01*
X82247Y15392D01*
X82250Y15390D01*
X82267Y15373D01*
X82281Y15353D01*
X82289Y15337D01*
X82297Y15320D01*
X82300Y15306D01*
X82303Y15295D01*
Y15287D01*
Y15284D01*
X82300Y15262D01*
X82294Y15240D01*
X82286Y15220D01*
X82275Y15204D01*
X82264Y15192D01*
X82256Y15181D01*
X82250Y15176D01*
X82247Y15173D01*
X82225Y15159D01*
X82200Y15148D01*
X82175Y15140D01*
X82150Y15134D01*
X82125Y15131D01*
X82108Y15129D01*
X82092D01*
X82045Y15131D01*
X82003Y15142D01*
X81967Y15156D01*
X81936Y15176D01*
X81914Y15192D01*
X81897Y15206D01*
X81886Y15217D01*
X81884Y15220D01*
X81870Y15242D01*
X81856Y15270D01*
X81839Y15326D01*
X81831Y15348D01*
X81828Y15367D01*
X81825Y15381D01*
Y15387D01*
X81378Y15356D01*
X81384Y15315D01*
X81392Y15273D01*
X81412Y15201D01*
X81439Y15134D01*
X81470Y15079D01*
X81484Y15056D01*
X81498Y15034D01*
X81512Y15017D01*
X81523Y15004D01*
X81531Y14993D01*
X81539Y14984D01*
X81542Y14979D01*
X81545Y14976D01*
X81575Y14951D01*
X81611Y14929D01*
X81650Y14906D01*
X81692Y14890D01*
X81781Y14865D01*
X81870Y14848D01*
X81914Y14840D01*
X81953Y14837D01*
X81989Y14834D01*
X82020Y14832D01*
X82047Y14829D01*
X81378D01*
X82083D01*
X82164Y14832D01*
X82233Y14837D01*
X82297Y14848D01*
X82350Y14859D01*
X82372Y14865D01*
X82392Y14870D01*
X82411Y14876D01*
X82425Y14881D01*
X82436Y14884D01*
X82444Y14887D01*
X82447Y14890D01*
X82450D01*
X82503Y14918D01*
X82547Y14945D01*
X82586Y14976D01*
X82619Y15006D01*
X82644Y15034D01*
X82664Y15056D01*
X82675Y15070D01*
X82678Y15076D01*
X82705Y15123D01*
X82725Y15170D01*
X82741Y15217D01*
X82750Y15259D01*
X82755Y15295D01*
X82761Y15323D01*
Y15348D01*
X82758Y15392D01*
X82753Y15437D01*
X82741Y15473D01*
X82730Y15506D01*
X82719Y15534D01*
X82708Y15556D01*
X82703Y15567D01*
X82700Y15573D01*
X82675Y15609D01*
X82644Y15642D01*
X82611Y15670D01*
X82580Y15695D01*
X82550Y15714D01*
X82528Y15728D01*
X82511Y15737D01*
X82508Y15739D01*
X82505D01*
X82478Y15753D01*
X82447Y15764D01*
X82381Y15789D01*
X82306Y15814D01*
X82233Y15834D01*
X82200Y15842D01*
X82167Y15850D01*
X82136Y15859D01*
X82111Y15864D01*
X82092Y15870D01*
X82075Y15873D01*
X82064Y15875D01*
X82061D01*
X82020Y15884D01*
X81986Y15895D01*
X81959Y15903D01*
X81939Y15911D01*
X81922Y15920D01*
X81914Y15925D01*
X81909Y15931D01*
X81906D01*
X81895Y15942D01*
X81886Y15953D01*
X81878Y15975D01*
X81872Y15992D01*
Y15995D01*
Y15998D01*
X81875Y16014D01*
X81878Y16031D01*
X81892Y16059D01*
X81906Y16075D01*
X81909Y16078D01*
X81911Y16081D01*
X81928Y16092D01*
X81947Y16103D01*
X81989Y16111D01*
X82008Y16114D01*
X82022Y16117D01*
X82036D01*
X82072Y16114D01*
X82103Y16109D01*
X82131Y16103D01*
X82153Y16095D01*
X82170Y16084D01*
X82181Y16078D01*
X82189Y16072D01*
X82192Y16070D01*
X82211Y16050D01*
X82228Y16025D01*
X82239Y16000D01*
X82250Y15978D01*
X82258Y15956D01*
X82264Y15936D01*
X82267Y15925D01*
Y15920D01*
X82711Y15945D01*
X82703Y15986D01*
X82694Y16028D01*
X82683Y16064D01*
X82669Y16097D01*
X82655Y16128D01*
X82639Y16159D01*
X82625Y16184D01*
X82608Y16206D01*
X82578Y16242D01*
X82553Y16270D01*
X82533Y16283D01*
X82530Y16289D01*
X82528D01*
X82497Y16308D01*
X82464Y16325D01*
X82394Y16353D01*
X82319Y16372D01*
X82247Y16386D01*
X82214Y16392D01*
X82183Y16395D01*
X82156Y16397D01*
X82131D01*
X82111Y16400D01*
D02*
G37*
G36*
X80740Y16375D02*
X80223D01*
X79654Y14854D01*
X81312D01*
X80740Y16375D01*
D02*
G37*
G36*
X79471D02*
X78999D01*
Y14854D01*
X79471D01*
Y16375D01*
D02*
G37*
G36*
X78227D02*
X77325D01*
Y14854D01*
X78733D01*
X78161D01*
X78191Y14856D01*
X78224Y14859D01*
X78261Y14865D01*
X78294Y14868D01*
X78322Y14870D01*
X78333D01*
X78341Y14873D01*
X78347D01*
X78388Y14881D01*
X78424Y14887D01*
X78455Y14895D01*
X78480Y14904D01*
X78499Y14912D01*
X78513Y14918D01*
X78522Y14923D01*
X78524D01*
X78558Y14945D01*
X78588Y14970D01*
X78616Y14995D01*
X78638Y15020D01*
X78655Y15040D01*
X78666Y15056D01*
X78674Y15070D01*
X78677Y15073D01*
X78696Y15109D01*
X78710Y15145D01*
X78719Y15181D01*
X78727Y15215D01*
X78730Y15242D01*
X78733Y15265D01*
Y15284D01*
X78730Y15337D01*
X78721Y15384D01*
X78708Y15426D01*
X78694Y15459D01*
X78680Y15487D01*
X78666Y15509D01*
X78658Y15520D01*
X78655Y15526D01*
X78621Y15559D01*
X78585Y15587D01*
X78544Y15612D01*
X78505Y15631D01*
X78469Y15645D01*
X78441Y15653D01*
X78430Y15659D01*
X78422D01*
X78416Y15662D01*
X78413D01*
X78452Y15678D01*
X78485Y15695D01*
X78513Y15712D01*
X78535Y15728D01*
X78555Y15742D01*
X78566Y15753D01*
X78574Y15762D01*
X78577Y15764D01*
X78605Y15803D01*
X78627Y15842D01*
X78641Y15881D01*
X78652Y15917D01*
X78658Y15948D01*
X78663Y15973D01*
Y15989D01*
Y15992D01*
Y15995D01*
Y16025D01*
X78658Y16053D01*
X78644Y16106D01*
X78624Y16150D01*
X78605Y16189D01*
X78583Y16222D01*
X78563Y16245D01*
X78549Y16258D01*
X78547Y16264D01*
X78544D01*
X78494Y16300D01*
X78441Y16328D01*
X78386Y16347D01*
X78330Y16361D01*
X78280Y16370D01*
X78261Y16372D01*
X78241D01*
X78227Y16375D01*
D02*
G37*
%LPD*%
G36*
X80643Y15434D02*
X80309D01*
X80476Y15978D01*
X80643Y15434D01*
D02*
G37*
G36*
X80817Y14854D02*
X80135D01*
X80209Y15104D01*
X80743D01*
X80817Y14854D01*
D02*
G37*
G36*
X78044Y16064D02*
X78077Y16061D01*
X78102Y16056D01*
X78122Y16047D01*
X78138Y16039D01*
X78150Y16034D01*
X78155Y16031D01*
X78158Y16028D01*
X78172Y16014D01*
X78183Y15998D01*
X78191Y15981D01*
X78197Y15964D01*
X78200Y15948D01*
X78202Y15936D01*
Y15928D01*
Y15925D01*
X78200Y15900D01*
X78197Y15878D01*
X78188Y15859D01*
X78180Y15842D01*
X78172Y15831D01*
X78166Y15823D01*
X78161Y15817D01*
X78158Y15814D01*
X78138Y15803D01*
X78116Y15795D01*
X78066Y15784D01*
X78041Y15781D01*
X78022Y15778D01*
X77800D01*
Y16067D01*
X78008D01*
X78044Y16064D01*
D02*
G37*
G36*
X78080Y15487D02*
X78116Y15484D01*
X78147Y15476D01*
X78169Y15470D01*
X78188Y15462D01*
X78202Y15453D01*
X78208Y15451D01*
X78211Y15448D01*
X78227Y15431D01*
X78238Y15415D01*
X78249Y15395D01*
X78255Y15378D01*
X78258Y15362D01*
X78261Y15351D01*
Y15342D01*
Y15340D01*
X78258Y15315D01*
X78252Y15292D01*
X78244Y15270D01*
X78236Y15253D01*
X78227Y15240D01*
X78219Y15231D01*
X78213Y15226D01*
X78211Y15223D01*
X78188Y15209D01*
X78163Y15198D01*
X78136Y15192D01*
X78105Y15187D01*
X78080Y15184D01*
X78058Y15181D01*
X77800D01*
Y15489D01*
X78036D01*
X78080Y15487D01*
D02*
G37*
D10*
X76937Y38232D02*
G03*
X76937Y38232I-125J0D01*
G01*
X71223Y28235D02*
G03*
X71223Y28235I-125J0D01*
G01*
X77525Y24482D02*
G03*
X77525Y24482I-125J0D01*
G01*
X81975Y52393D02*
G03*
X81975Y52393I-125J0D01*
G01*
X70600Y49975D02*
G03*
X70600Y49975I-125J0D01*
G01*
X67325Y54225D02*
G03*
X67325Y54225I-125J0D01*
G01*
X64650Y17807D02*
G03*
X64650Y17807I-125J0D01*
G01*
D11*
X103825Y15200D02*
G03*
X103825Y15200I-2700J0D01*
G01*
X103825Y71350D02*
G03*
X103825Y71350I-2700J0D01*
G01*
X50025Y71350D02*
G03*
X50025Y71350I-2700J0D01*
G01*
X50025Y15200D02*
G03*
X50025Y15200I-2700J0D01*
G01*
D12*
X77035Y64075D02*
G03*
X77035Y64075I-710J0D01*
G01*
X71385Y62050D02*
G03*
X71385Y62050I-710J0D01*
G01*
X80710Y72775D02*
G03*
X80710Y72775I-710J0D01*
G01*
X75304Y74715D02*
G03*
X75304Y74715I-710J0D01*
G01*
X64491Y72775D02*
G03*
X64491Y72775I-710J0D01*
G01*
X108960Y63175D02*
G03*
X108960Y63175I-710J0D01*
G01*
X59085Y72775D02*
G03*
X59085Y72775I-710J0D01*
G01*
X81275Y67742D02*
G03*
X81275Y67742I-710J0D01*
G01*
X65181Y65200D02*
G03*
X65181Y65200I-710J0D01*
G01*
X71934Y40049D02*
X72934D01*
X71934D02*
Y40749D01*
Y43049D02*
X72934D01*
X71934Y42349D02*
Y43049D01*
X72267Y39757D02*
X74117D01*
Y38757D02*
Y39757D01*
X72267Y38757D02*
X74117D01*
X72267D02*
Y39757D01*
X76312Y35650D02*
Y36424D01*
X73212Y35650D02*
Y36424D01*
X76312D01*
X73212Y35650D02*
X76312D01*
X72906Y27735D02*
X73679D01*
X72906Y24635D02*
X73679D01*
X72906D02*
Y27735D01*
X73679Y24635D02*
Y27735D01*
X69325Y24625D02*
Y26475D01*
X70325D01*
Y24625D02*
Y26475D01*
X69325Y24625D02*
X70325D01*
X68200Y24625D02*
X68700D01*
X68200D02*
Y26625D01*
X69200D01*
Y24625D02*
Y26625D01*
X68700Y24625D02*
X69200D01*
X67142Y24673D02*
Y26523D01*
X68142D01*
Y24673D02*
Y26523D01*
X67142Y24673D02*
X68142D01*
X72577Y33964D02*
Y35814D01*
X71577Y33964D02*
X72577D01*
X71577D02*
Y35814D01*
X72577D01*
X70341Y33964D02*
Y35814D01*
X71341D01*
Y33964D02*
Y35814D01*
X70341Y33964D02*
X71341D01*
X79875Y35350D02*
X81725D01*
Y34350D02*
Y35350D01*
X79875Y34350D02*
X81725D01*
X79875D02*
Y35350D01*
X82900Y32300D02*
Y33650D01*
X79650Y32300D02*
X82900D01*
X79650D02*
Y34150D01*
X82900D01*
Y33650D02*
Y34150D01*
X76392Y32024D02*
Y32524D01*
X74392Y32024D02*
X76392D01*
X74392D02*
Y33024D01*
X76392D01*
Y32524D02*
Y33024D01*
X74400Y28350D02*
X74900D01*
X74400D02*
Y30350D01*
X75400D01*
Y28350D02*
Y30350D01*
X74900Y28350D02*
X75400D01*
X76300Y27750D02*
X76800D01*
X76300D02*
Y29750D01*
X77300D01*
Y27750D02*
Y29750D01*
X76800Y27750D02*
X77300D01*
X77900Y26290D02*
Y27064D01*
X81000Y26290D02*
Y27064D01*
X77900Y26290D02*
X81000D01*
X77900Y27064D02*
X81000D01*
X84075Y27800D02*
Y29650D01*
X85075D01*
Y27800D02*
Y29650D01*
X84075Y27800D02*
X85075D01*
X82875Y26900D02*
Y28750D01*
X83875D01*
Y26900D02*
Y28750D01*
X82875Y26900D02*
X83875D01*
X81650Y26775D02*
X82150D01*
X81650D02*
Y28775D01*
X82650D01*
Y26775D02*
Y28775D01*
X82150Y26775D02*
X82650D01*
X82075Y23006D02*
Y23506D01*
X80075Y23006D02*
X82075D01*
X80075D02*
Y24006D01*
X82075D01*
Y23506D02*
Y24006D01*
X72601Y37139D02*
Y37639D01*
X70601Y37139D02*
X72601D01*
X70601D02*
Y38139D01*
X72601D01*
Y37639D02*
Y38139D01*
X81950Y49125D02*
X82450D01*
X81950Y47125D02*
Y49125D01*
Y47125D02*
X82950D01*
Y49125D01*
X82450D02*
X82950D01*
X84500Y45875D02*
X85000D01*
Y49125D01*
X83150D02*
X85000D01*
X83150Y45875D02*
Y49125D01*
Y45875D02*
X84500D01*
X88900Y50300D02*
X89400D01*
X88900D02*
Y52300D01*
X89900D01*
Y50300D02*
Y52300D01*
X89400Y50300D02*
X89900D01*
X86700Y51300D02*
X88550D01*
X86700D02*
Y52300D01*
X88550D01*
Y51300D02*
Y52300D01*
X85200Y49125D02*
X86200D01*
X85200Y47275D02*
Y49125D01*
Y47275D02*
X86200D01*
Y49125D01*
X81350Y49811D02*
Y50585D01*
X78250Y49811D02*
Y50585D01*
X81350D01*
X78250Y49811D02*
X81350D01*
X77117Y50117D02*
X77617D01*
Y48117D02*
Y50117D01*
X76617Y48117D02*
X77617D01*
X76617D02*
Y50117D01*
X77117D01*
X76425Y48192D02*
Y50042D01*
X75425Y48192D02*
X76425D01*
X75425D02*
Y50042D01*
X76425D01*
X73375Y48150D02*
X75225D01*
X73375D02*
Y49150D01*
X75225D01*
Y48150D02*
Y49150D01*
X70750Y50775D02*
X72950D01*
X70750Y51375D02*
X72950D01*
X70750Y50775D02*
Y51375D01*
X72950Y50775D02*
Y51375D01*
X71350Y52975D02*
X71850D01*
X71350D02*
Y54975D01*
X72350D01*
Y52975D02*
Y54975D01*
X71850Y52975D02*
X72350D01*
X68600Y51725D02*
Y53925D01*
X68000Y51725D02*
Y53925D01*
Y51725D02*
X68600D01*
X68000Y53925D02*
X68600D01*
X69900Y54300D02*
Y54800D01*
X67900Y54300D02*
X69900D01*
X67900D02*
Y55300D01*
X69900D01*
Y54800D02*
Y55300D01*
X69875Y55525D02*
Y56525D01*
X68025D02*
X69875D01*
X68025Y55525D02*
Y56525D01*
Y55525D02*
X69875D01*
X68650Y63219D02*
X69650D01*
Y65069D01*
X68650D02*
X69650D01*
X68650Y63219D02*
Y65069D01*
X75825Y66200D02*
X76825D01*
Y68050D01*
X75825D02*
X76825D01*
X75825Y66200D02*
Y68050D01*
X61775Y19650D02*
Y20650D01*
Y19650D02*
X63625D01*
Y20650D01*
X61775D02*
X63625D01*
X62525Y17900D02*
Y18900D01*
Y17900D02*
X64375D01*
Y18900D01*
X62525D02*
X64375D01*
X29086Y24666D02*
X40056D01*
Y35334D01*
X29086D02*
X40056D01*
X29086Y64666D02*
X40056D01*
Y75334D01*
X29086D02*
X40056D01*
X107895Y24920D02*
X118865D01*
X107895D02*
Y35080D01*
X118865D01*
X107895Y65440D02*
X118865D01*
X107895D02*
Y75600D01*
X118865D01*
X77125Y16600D02*
Y20600D01*
X81375Y16600D02*
Y20600D01*
X77125D02*
X81375D01*
X77125Y16600D02*
X81375D01*
X57611Y30953D02*
X65739D01*
Y39589D01*
X57611D02*
X65739D01*
X57611Y30953D02*
Y39589D01*
Y48253D02*
X65739D01*
Y56889D01*
X57611D02*
X65739D01*
X57611Y48253D02*
Y56889D01*
X104722Y30436D02*
Y38564D01*
X96086D02*
X104722D01*
X96086Y30436D02*
Y38564D01*
Y30436D02*
X104722D01*
X65025Y19615D02*
Y20389D01*
X68125Y19615D02*
Y20389D01*
X65025Y19615D02*
X68125D01*
X65025Y20389D02*
X68125D01*
X73816Y28450D02*
Y32450D01*
X69566Y28450D02*
Y32450D01*
Y28450D02*
X73816D01*
X69566Y32450D02*
X73816D01*
X88601Y20654D02*
Y24596D01*
X86229Y20654D02*
X88601D01*
X86229D02*
Y24596D01*
X88601D01*
X53226Y14679D02*
Y18621D01*
X50854Y14679D02*
X53226D01*
X50854D02*
Y18621D01*
X53226D01*
X90904Y72551D02*
X94846D01*
Y70179D02*
Y72551D01*
X90904Y70179D02*
X94846D01*
X90904D02*
Y72551D01*
X55574Y60304D02*
Y64246D01*
X57946D01*
Y60304D02*
Y64246D01*
X55574Y60304D02*
X57946D01*
X78579Y65192D02*
X79079D01*
Y68442D01*
X77229D02*
X79079D01*
X77229Y65192D02*
Y68442D01*
Y65192D02*
X78579D01*
X69690Y20950D02*
X71040D01*
Y17700D02*
Y20950D01*
X69190Y17700D02*
X71040D01*
X69190D02*
Y20950D01*
X69690D01*
X61825Y24150D02*
X63175D01*
Y20900D02*
Y24150D01*
X61325Y20900D02*
X63175D01*
X61325D02*
Y24150D01*
X61825D01*
X62075Y14425D02*
X63425D01*
X62075D02*
Y17675D01*
X63925D01*
Y14425D02*
Y17675D01*
X63425Y14425D02*
X63925D01*
X68041Y62750D02*
X68541D01*
Y66000D01*
X66691D02*
X68541D01*
X66691Y62750D02*
Y66000D01*
Y62750D02*
X68041D01*
X79875Y62475D02*
Y63325D01*
X77125D02*
X79875D01*
X77125Y61975D02*
Y63325D01*
Y61975D02*
X79875D01*
Y62475D01*
X67075Y59950D02*
Y60800D01*
Y59950D02*
X69825D01*
Y61300D01*
X67075D02*
X69825D01*
X67075Y60800D02*
Y61300D01*
X63400Y21100D02*
X63900D01*
X63400D02*
Y23100D01*
X64400D01*
Y21100D02*
Y23100D01*
X63900Y21100D02*
X64400D01*
X67650Y62025D02*
Y62525D01*
X69650D01*
Y61525D02*
Y62525D01*
X67650Y61525D02*
X69650D01*
X67650D02*
Y62025D01*
X72284Y17925D02*
Y19775D01*
X71284Y17925D02*
X72284D01*
X71284D02*
Y19775D01*
X72284D01*
X72275Y15850D02*
Y17700D01*
X71275Y15850D02*
X72275D01*
X71275D02*
Y17700D01*
X72275D01*
X61325Y17475D02*
X61825D01*
Y15475D02*
Y17475D01*
X60825Y15475D02*
X61825D01*
X60825D02*
Y17475D01*
X61325D01*
X79125Y63575D02*
Y64075D01*
X77125Y63575D02*
X79125D01*
X77125D02*
Y64575D01*
X79125D01*
Y64075D02*
Y64575D01*
X91450Y49675D02*
X95450D01*
X91450Y53925D02*
X95450D01*
X91450Y49675D02*
Y53925D01*
X95450Y49675D02*
Y53925D01*
X82350Y49675D02*
X86350D01*
X82350Y53925D02*
X86350D01*
X82350Y49675D02*
Y53925D01*
X86350Y49675D02*
Y53925D01*
X73600Y50500D02*
X77600D01*
X73600Y54750D02*
X77600D01*
X73600Y50500D02*
Y54750D01*
X77600Y50500D02*
Y54750D01*
D13*
X70809Y42960D02*
Y43637D01*
X70640Y43806D01*
X70301D01*
X70132Y43637D01*
Y42960D01*
X70301Y42791D01*
X70640D01*
X70471Y43129D02*
X70809Y42791D01*
X70640D02*
X70809Y42960D01*
X71148Y42791D02*
X71486D01*
X71317D01*
Y43806D01*
X71148Y43637D01*
X69204Y39567D02*
Y40583D01*
X69711D01*
X69881Y40414D01*
Y40075D01*
X69711Y39906D01*
X69204D01*
X69542D02*
X69881Y39567D01*
X70727D02*
Y40583D01*
X70219Y40075D01*
X70896D01*
X77254Y39858D02*
Y39011D01*
X77423Y38842D01*
X77761D01*
X77931Y39011D01*
Y39858D01*
X78777Y38842D02*
Y39858D01*
X78269Y39350D01*
X78946D01*
X72604Y23883D02*
Y23036D01*
X72773Y22867D01*
X73111D01*
X73281Y23036D01*
Y23883D01*
X74296D02*
X73958Y23714D01*
X73619Y23375D01*
Y23036D01*
X73789Y22867D01*
X74127D01*
X74296Y23036D01*
Y23206D01*
X74127Y23375D01*
X73619D01*
X69283Y28075D02*
X68267D01*
Y28583D01*
X68436Y28752D01*
X68775D01*
X68944Y28583D01*
Y28075D01*
Y28413D02*
X69283Y28752D01*
X69114Y29090D02*
X69283Y29260D01*
Y29598D01*
X69114Y29767D01*
X68436D01*
X68267Y29598D01*
Y29260D01*
X68436Y29090D01*
X68606D01*
X68775Y29260D01*
Y29767D01*
X67061Y28583D02*
X66892Y28413D01*
Y28075D01*
X67061Y27905D01*
X67739D01*
X67908Y28075D01*
Y28413D01*
X67739Y28583D01*
X67908Y28921D02*
Y29260D01*
Y29090D01*
X66892D01*
X67061Y28921D01*
X67739Y29767D02*
X67908Y29937D01*
Y30275D01*
X67739Y30445D01*
X67061D01*
X66892Y30275D01*
Y29937D01*
X67061Y29767D01*
X67231D01*
X67400Y29937D01*
Y30445D01*
X65517Y28498D02*
Y27821D01*
X66025D01*
Y28159D01*
Y27821D01*
X66533D01*
X65517Y28836D02*
X66533D01*
Y29344D01*
X66364Y29514D01*
X66194D01*
X66025Y29344D01*
Y28836D01*
Y29344D01*
X65856Y29514D01*
X65686D01*
X65517Y29344D01*
Y28836D01*
Y30529D02*
X65686Y30191D01*
X66025Y29852D01*
X66364D01*
X66533Y30021D01*
Y30360D01*
X66364Y30529D01*
X66194D01*
X66025Y30360D01*
Y29852D01*
X69533Y34154D02*
X68517D01*
Y34661D01*
X68686Y34831D01*
X69025D01*
X69194Y34661D01*
Y34154D01*
Y34492D02*
X69533Y34831D01*
X68517Y35846D02*
X68686Y35508D01*
X69025Y35169D01*
X69364D01*
X69533Y35339D01*
Y35677D01*
X69364Y35846D01*
X69194D01*
X69025Y35677D01*
Y35169D01*
X68058Y34154D02*
X67042D01*
Y34661D01*
X67211Y34831D01*
X67550D01*
X67719Y34661D01*
Y34154D01*
Y34492D02*
X68058Y34831D01*
X67042Y35846D02*
Y35169D01*
X67550D01*
X67381Y35508D01*
Y35677D01*
X67550Y35846D01*
X67889D01*
X68058Y35677D01*
Y35339D01*
X67889Y35169D01*
X84158Y35208D02*
X83480D01*
Y34700D01*
X83819D01*
X83480D01*
Y34192D01*
X84496Y35208D02*
Y34192D01*
X85004D01*
X85173Y34361D01*
Y34531D01*
X85004Y34700D01*
X84496D01*
X85004D01*
X85173Y34869D01*
Y35039D01*
X85004Y35208D01*
X84496D01*
X86189D02*
X85512D01*
Y34700D01*
X85850Y34869D01*
X86020D01*
X86189Y34700D01*
Y34361D01*
X86020Y34192D01*
X85681D01*
X85512Y34361D01*
X84158Y33414D02*
X83988Y33583D01*
X83650D01*
X83480Y33414D01*
Y32736D01*
X83650Y32567D01*
X83988D01*
X84158Y32736D01*
X84496Y32567D02*
X84835D01*
X84665D01*
Y33583D01*
X84496Y33414D01*
X85850Y32567D02*
Y33583D01*
X85342Y33075D01*
X86020D01*
X77408Y34314D02*
X77238Y34483D01*
X76900D01*
X76730Y34314D01*
Y33636D01*
X76900Y33467D01*
X77238D01*
X77408Y33636D01*
X77746Y33467D02*
X78085D01*
X77915D01*
Y34483D01*
X77746Y34314D01*
X79270Y34483D02*
X78592D01*
Y33975D01*
X78931Y34144D01*
X79100D01*
X79270Y33975D01*
Y33636D01*
X79100Y33467D01*
X78762D01*
X78592Y33636D01*
X77061Y31033D02*
X76892Y30863D01*
Y30525D01*
X77061Y30355D01*
X77739D01*
X77908Y30525D01*
Y30863D01*
X77739Y31033D01*
X77908Y31371D02*
Y31710D01*
Y31540D01*
X76892D01*
X77061Y31371D01*
X76892Y32895D02*
X77061Y32556D01*
X77400Y32217D01*
X77739D01*
X77908Y32387D01*
Y32725D01*
X77739Y32895D01*
X77569D01*
X77400Y32725D01*
Y32217D01*
X78461Y30758D02*
X78292Y30588D01*
Y30250D01*
X78461Y30080D01*
X79139D01*
X79308Y30250D01*
Y30588D01*
X79139Y30758D01*
X79308Y31096D02*
Y31435D01*
Y31265D01*
X78292D01*
X78461Y31096D01*
X78292Y31942D02*
Y32620D01*
X78461D01*
X79139Y31942D01*
X79308D01*
X79929Y30658D02*
Y29811D01*
X80098Y29642D01*
X80436D01*
X80606Y29811D01*
Y30658D01*
X81621D02*
X80944D01*
Y30150D01*
X81283Y30319D01*
X81452D01*
X81621Y30150D01*
Y29811D01*
X81452Y29642D01*
X81114D01*
X80944Y29811D01*
X89458Y26821D02*
X88442D01*
Y27329D01*
X88611Y27498D01*
X88950D01*
X89119Y27329D01*
Y26821D01*
Y27159D02*
X89458Y27498D01*
X88442Y27836D02*
Y28514D01*
X88611D01*
X89289Y27836D01*
X89458D01*
X88008Y26821D02*
X86992D01*
Y27329D01*
X87161Y27498D01*
X87500D01*
X87669Y27329D01*
Y26821D01*
Y27159D02*
X88008Y27498D01*
X87161Y27836D02*
X86992Y28006D01*
Y28344D01*
X87161Y28514D01*
X87331D01*
X87500Y28344D01*
X87669Y28514D01*
X87839D01*
X88008Y28344D01*
Y28006D01*
X87839Y27836D01*
X87669D01*
X87500Y28006D01*
X87331Y27836D01*
X87161D01*
X87500Y28006D02*
Y28344D01*
X85711Y27498D02*
X85542Y27329D01*
Y26990D01*
X85711Y26821D01*
X86389D01*
X86558Y26990D01*
Y27329D01*
X86389Y27498D01*
X86558Y27836D02*
Y28175D01*
Y28006D01*
X85542D01*
X85711Y27836D01*
Y28683D02*
X85542Y28852D01*
Y29191D01*
X85711Y29360D01*
X85881D01*
X86050Y29191D01*
X86219Y29360D01*
X86389D01*
X86558Y29191D01*
Y28852D01*
X86389Y28683D01*
X86219D01*
X86050Y28852D01*
X85881Y28683D01*
X85711D01*
X86050Y28852D02*
Y29191D01*
X83467Y23739D02*
X83298Y23908D01*
X82959D01*
X82790Y23739D01*
Y23061D01*
X82959Y22892D01*
X83298D01*
X83467Y23061D01*
X84483Y22892D02*
X83806D01*
X84483Y23569D01*
Y23739D01*
X84314Y23908D01*
X83975D01*
X83806Y23739D01*
X84821Y22892D02*
X85160D01*
X84991D01*
Y23908D01*
X84821Y23739D01*
X66917Y37833D02*
X66750Y38000D01*
X66417D01*
X66250Y37833D01*
Y37167D01*
X66417Y37000D01*
X66750D01*
X66917Y37167D01*
X67250Y37000D02*
X67583D01*
X67417D01*
Y38000D01*
X67250Y37833D01*
X68083D02*
X68250Y38000D01*
X68583D01*
X68750Y37833D01*
Y37667D01*
X68583Y37500D01*
X68416D01*
X68583D01*
X68750Y37333D01*
Y37167D01*
X68583Y37000D01*
X68250D01*
X68083Y37167D01*
X81911Y43552D02*
X81742Y43383D01*
Y43044D01*
X81911Y42875D01*
X82589D01*
X82758Y43044D01*
Y43383D01*
X82589Y43552D01*
X82758Y43890D02*
Y44229D01*
Y44060D01*
X81742D01*
X81911Y43890D01*
X82758Y44737D02*
Y45075D01*
Y44906D01*
X81742D01*
X81911Y44737D01*
X83711Y43383D02*
X83542Y43213D01*
Y42875D01*
X83711Y42705D01*
X84389D01*
X84558Y42875D01*
Y43213D01*
X84389Y43383D01*
X84558Y43721D02*
Y44060D01*
Y43890D01*
X83542D01*
X83711Y43721D01*
X84558Y45245D02*
Y44567D01*
X83881Y45245D01*
X83711D01*
X83542Y45075D01*
Y44737D01*
X83711Y44567D01*
X78829Y54633D02*
Y53786D01*
X78998Y53617D01*
X79336D01*
X79506Y53786D01*
Y54633D01*
X79844Y54464D02*
X80014Y54633D01*
X80352D01*
X80521Y54464D01*
Y54294D01*
X80352Y54125D01*
X80183D01*
X80352D01*
X80521Y53956D01*
Y53786D01*
X80352Y53617D01*
X80014D01*
X79844Y53786D01*
X67298Y51133D02*
Y50286D01*
X67467Y50117D01*
X67806D01*
X67975Y50286D01*
Y51133D01*
X68314Y50117D02*
X68652D01*
X68483D01*
Y51133D01*
X68314Y50964D01*
X69679Y48033D02*
Y47186D01*
X69848Y47017D01*
X70186D01*
X70356Y47186D01*
Y48033D01*
X71371Y47017D02*
X70694D01*
X71371Y47694D01*
Y47864D01*
X71202Y48033D01*
X70864D01*
X70694Y47864D01*
X76333Y45479D02*
X75317D01*
Y45986D01*
X75486Y46156D01*
X75825D01*
X75994Y45986D01*
Y45479D01*
Y45817D02*
X76333Y46156D01*
Y47171D02*
Y46494D01*
X75656Y47171D01*
X75486D01*
X75317Y47002D01*
Y46664D01*
X75486Y46494D01*
X70929Y45617D02*
Y46633D01*
X71436D01*
X71606Y46464D01*
Y46125D01*
X71436Y45956D01*
X70929D01*
X71267D02*
X71606Y45617D01*
X71944Y46464D02*
X72114Y46633D01*
X72452D01*
X72621Y46464D01*
Y46294D01*
X72452Y46125D01*
X72283D01*
X72452D01*
X72621Y45956D01*
Y45786D01*
X72452Y45617D01*
X72114D01*
X71944Y45786D01*
X86898Y52917D02*
Y53933D01*
X87406D01*
X87575Y53764D01*
Y53425D01*
X87406Y53256D01*
X86898D01*
X87236D02*
X87575Y52917D01*
X87914D02*
X88252D01*
X88083D01*
Y53933D01*
X87914Y53764D01*
X59323Y20683D02*
X58646D01*
Y20175D01*
X58984D01*
X58646D01*
Y19667D01*
X59661Y20683D02*
Y19667D01*
X60169D01*
X60339Y19836D01*
Y20006D01*
X60169Y20175D01*
X59661D01*
X60169D01*
X60339Y20344D01*
Y20514D01*
X60169Y20683D01*
X59661D01*
X60677D02*
X61354D01*
Y20514D01*
X60677Y19836D01*
Y19667D01*
X59998Y19033D02*
X59321D01*
Y18525D01*
X59659D01*
X59321D01*
Y18017D01*
X60336Y19033D02*
Y18017D01*
X60844D01*
X61014Y18186D01*
Y18356D01*
X60844Y18525D01*
X60336D01*
X60844D01*
X61014Y18694D01*
Y18864D01*
X60844Y19033D01*
X60336D01*
X61352Y18864D02*
X61521Y19033D01*
X61860D01*
X62029Y18864D01*
Y18694D01*
X61860Y18525D01*
X62029Y18356D01*
Y18186D01*
X61860Y18017D01*
X61521D01*
X61352Y18186D01*
Y18356D01*
X61521Y18525D01*
X61352Y18694D01*
Y18864D01*
X61521Y18525D02*
X61860D01*
X75867Y69442D02*
Y68765D01*
X76375D01*
Y69104D01*
Y68765D01*
X76883D01*
X75867Y69781D02*
X76883D01*
Y70289D01*
X76714Y70458D01*
X76544D01*
X76375Y70289D01*
Y69781D01*
Y70289D01*
X76206Y70458D01*
X76036D01*
X75867Y70289D01*
Y69781D01*
X76883Y70796D02*
Y71135D01*
Y70966D01*
X75867D01*
X76036Y70796D01*
X68842Y66823D02*
Y66146D01*
X69350D01*
Y66484D01*
Y66146D01*
X69858D01*
X68842Y67161D02*
X69858D01*
Y67669D01*
X69689Y67839D01*
X69519D01*
X69350Y67669D01*
Y67161D01*
Y67669D01*
X69181Y67839D01*
X69011D01*
X68842Y67669D01*
Y67161D01*
X69858Y68854D02*
Y68177D01*
X69181Y68854D01*
X69011D01*
X68842Y68685D01*
Y68346D01*
X69011Y68177D01*
X85267Y43806D02*
Y43129D01*
X85775D01*
Y43467D01*
Y43129D01*
X86283D01*
X85267Y44144D02*
X86283D01*
Y44652D01*
X86114Y44821D01*
X85944D01*
X85775Y44652D01*
Y44144D01*
Y44652D01*
X85606Y44821D01*
X85436D01*
X85267Y44652D01*
Y44144D01*
X86283Y45668D02*
X85267D01*
X85775Y45160D01*
Y45837D01*
X68898Y59433D02*
X68221D01*
Y58925D01*
X68559D01*
X68221D01*
Y58417D01*
X69236Y59433D02*
Y58417D01*
X69744D01*
X69914Y58586D01*
Y58756D01*
X69744Y58925D01*
X69236D01*
X69744D01*
X69914Y59094D01*
Y59264D01*
X69744Y59433D01*
X69236D01*
X70252Y59264D02*
X70421Y59433D01*
X70760D01*
X70929Y59264D01*
Y59094D01*
X70760Y58925D01*
X70591D01*
X70760D01*
X70929Y58756D01*
Y58586D01*
X70760Y58417D01*
X70421D01*
X70252Y58586D01*
X76836Y45733D02*
X76667Y45563D01*
Y45225D01*
X76836Y45055D01*
X77514D01*
X77683Y45225D01*
Y45563D01*
X77514Y45733D01*
X77683Y46071D02*
Y46410D01*
Y46240D01*
X76667D01*
X76836Y46071D01*
Y46917D02*
X76667Y47087D01*
Y47425D01*
X76836Y47595D01*
X77514D01*
X77683Y47425D01*
Y47087D01*
X77514Y46917D01*
X76836D01*
X89136Y53481D02*
X88967Y53311D01*
Y52973D01*
X89136Y52804D01*
X89814D01*
X89983Y52973D01*
Y53311D01*
X89814Y53481D01*
Y53819D02*
X89983Y53989D01*
Y54327D01*
X89814Y54496D01*
X89136D01*
X88967Y54327D01*
Y53989D01*
X89136Y53819D01*
X89306D01*
X89475Y53989D01*
Y54496D01*
X69006Y57939D02*
X68836Y58108D01*
X68498D01*
X68329Y57939D01*
Y57261D01*
X68498Y57092D01*
X68836D01*
X69006Y57261D01*
X69344Y58108D02*
X70021D01*
Y57939D01*
X69344Y57261D01*
Y57092D01*
X71511Y56531D02*
X71342Y56361D01*
Y56023D01*
X71511Y55854D01*
X72189D01*
X72358Y56023D01*
Y56361D01*
X72189Y56531D01*
X71511Y56869D02*
X71342Y57039D01*
Y57377D01*
X71511Y57546D01*
X71681D01*
X71850Y57377D01*
X72019Y57546D01*
X72189D01*
X72358Y57377D01*
Y57039D01*
X72189Y56869D01*
X72019D01*
X71850Y57039D01*
X71681Y56869D01*
X71511D01*
X71850Y57039D02*
Y57377D01*
X38558Y36450D02*
X38225D01*
X38392D01*
Y35617D01*
X38225Y35450D01*
X38059D01*
X37892Y35617D01*
X39558Y36450D02*
X39225Y36283D01*
X38892Y35950D01*
Y35617D01*
X39058Y35450D01*
X39391D01*
X39558Y35617D01*
Y35783D01*
X39391Y35950D01*
X38892D01*
X38808Y76650D02*
X38475D01*
X38642D01*
Y75817D01*
X38475Y75650D01*
X38309D01*
X38142Y75817D01*
X39808Y75650D02*
X39142D01*
X39808Y76317D01*
Y76483D01*
X39641Y76650D01*
X39308D01*
X39142Y76483D01*
X73660Y17625D02*
X72661D01*
Y18125D01*
X72827Y18292D01*
X73161D01*
X73327Y18125D01*
Y17625D01*
Y17959D02*
X73660Y18292D01*
Y18625D02*
Y18958D01*
Y18792D01*
X72661D01*
X72827Y18625D01*
Y19458D02*
X72661Y19625D01*
Y19958D01*
X72827Y20125D01*
X73494D01*
X73660Y19958D01*
Y19625D01*
X73494Y19458D01*
X72827D01*
X73625Y14892D02*
X72625D01*
Y15392D01*
X72792Y15558D01*
X73125D01*
X73292Y15392D01*
Y14892D01*
Y15225D02*
X73625Y15558D01*
Y15892D02*
Y16225D01*
Y16058D01*
X72625D01*
X72792Y15892D01*
X73625Y16725D02*
Y17058D01*
Y16891D01*
X72625D01*
X72792Y16725D01*
X108783Y77621D02*
X108450D01*
X108616D01*
Y76788D01*
X108450Y76622D01*
X108283D01*
X108117Y76788D01*
X109116Y76622D02*
X109450D01*
X109283D01*
Y77621D01*
X109116Y77455D01*
X109033Y37083D02*
X108700D01*
X108866D01*
Y36250D01*
X108700Y36083D01*
X108533D01*
X108367Y36250D01*
X109366Y37083D02*
X110033D01*
Y36916D01*
X109366Y36250D01*
Y36083D01*
X61867Y25209D02*
X61700Y25042D01*
Y24709D01*
X61867Y24542D01*
X62533D01*
X62700Y24709D01*
Y25042D01*
X62533Y25209D01*
X62700Y26208D02*
Y25542D01*
X62033Y26208D01*
X61867D01*
X61700Y26042D01*
Y25708D01*
X61867Y25542D01*
Y26541D02*
X61700Y26708D01*
Y27041D01*
X61867Y27208D01*
X62533D01*
X62700Y27041D01*
Y26708D01*
X62533Y26541D01*
X61867D01*
X58117Y15409D02*
X57950Y15242D01*
Y14909D01*
X58117Y14742D01*
X58783D01*
X58950Y14909D01*
Y15242D01*
X58783Y15409D01*
X58950Y16408D02*
Y15742D01*
X58283Y16408D01*
X58117D01*
X57950Y16242D01*
Y15908D01*
X58117Y15742D01*
X57950Y17408D02*
Y16741D01*
X58450D01*
X58283Y17075D01*
Y17241D01*
X58450Y17408D01*
X58783D01*
X58950Y17241D01*
Y16908D01*
X58783Y16741D01*
X59542Y15459D02*
X59375Y15292D01*
Y14959D01*
X59542Y14792D01*
X60208D01*
X60375Y14959D01*
Y15292D01*
X60208Y15459D01*
X60375Y16458D02*
Y15792D01*
X59708Y16458D01*
X59542D01*
X59375Y16292D01*
Y15958D01*
X59542Y15792D01*
X60375Y17291D02*
X59375D01*
X59875Y16791D01*
Y17458D01*
X69742Y15709D02*
X69575Y15542D01*
Y15209D01*
X69742Y15042D01*
X70408D01*
X70575Y15209D01*
Y15542D01*
X70408Y15709D01*
X70575Y16708D02*
Y16042D01*
X69908Y16708D01*
X69742D01*
X69575Y16542D01*
Y16208D01*
X69742Y16042D01*
Y17041D02*
X69575Y17208D01*
Y17541D01*
X69742Y17708D01*
X69908D01*
X70075Y17541D01*
Y17375D01*
Y17541D01*
X70242Y17708D01*
X70408D01*
X70575Y17541D01*
Y17208D01*
X70408Y17041D01*
X81408Y64483D02*
X81242Y64650D01*
X80909D01*
X80742Y64483D01*
Y63817D01*
X80909Y63650D01*
X81242D01*
X81408Y63817D01*
X81742Y64483D02*
X81908Y64650D01*
X82241D01*
X82408Y64483D01*
Y64317D01*
X82241Y64150D01*
X82075D01*
X82241D01*
X82408Y63983D01*
Y63817D01*
X82241Y63650D01*
X81908D01*
X81742Y63817D01*
X81533Y62908D02*
X81367Y63075D01*
X81034D01*
X80867Y62908D01*
Y62242D01*
X81034Y62075D01*
X81367D01*
X81533Y62242D01*
X82366Y62075D02*
Y63075D01*
X81867Y62575D01*
X82533D01*
X77767Y69730D02*
X77600Y69564D01*
Y69230D01*
X77767Y69064D01*
X78433D01*
X78600Y69230D01*
Y69564D01*
X78433Y69730D01*
X78600Y70063D02*
Y70397D01*
Y70230D01*
X77600D01*
X77767Y70063D01*
X65308Y62458D02*
X65142Y62625D01*
X64809D01*
X64642Y62458D01*
Y61792D01*
X64809Y61625D01*
X65142D01*
X65308Y61792D01*
X66308Y62625D02*
X65642D01*
Y62125D01*
X65975Y62292D01*
X66141D01*
X66308Y62125D01*
Y61792D01*
X66141Y61625D01*
X65808D01*
X65642Y61792D01*
X65308Y60983D02*
X65142Y61150D01*
X64809D01*
X64642Y60983D01*
Y60317D01*
X64809Y60150D01*
X65142D01*
X65308Y60317D01*
X66308Y61150D02*
X65975Y60983D01*
X65642Y60650D01*
Y60317D01*
X65808Y60150D01*
X66141D01*
X66308Y60317D01*
Y60483D01*
X66141Y60650D01*
X65642D01*
X67256Y67575D02*
X67090Y67409D01*
Y67075D01*
X67256Y66909D01*
X67923D01*
X68089Y67075D01*
Y67409D01*
X67923Y67575D01*
X68089Y68575D02*
Y67908D01*
X67423Y68575D01*
X67256D01*
X67090Y68408D01*
Y68075D01*
X67256Y67908D01*
D14*
X66230Y14942D02*
X67063D01*
X67229Y15109D01*
Y15442D01*
X67063Y15608D01*
X66230D01*
Y15942D02*
Y16608D01*
X66396D01*
X67063Y15942D01*
X67229D01*
X63667Y25109D02*
X63500Y24942D01*
Y24609D01*
X63667Y24442D01*
X64333D01*
X64500Y24609D01*
Y24942D01*
X64333Y25109D01*
X64500Y26108D02*
Y25442D01*
X63833Y26108D01*
X63667D01*
X63500Y25942D01*
Y25608D01*
X63667Y25442D01*
X64500Y27108D02*
Y26441D01*
X63833Y27108D01*
X63667D01*
X63500Y26941D01*
Y26608D01*
X63667Y26441D01*
M02*
