G04*
G04 #@! TF.GenerationSoftware,Altium Limited,Altium Designer,23.0.1 (38)*
G04*
G04 Layer_Physical_Order=3*
G04 Layer_Color=128*
%FSLAX43Y43*%
%MOMM*%
G71*
G04*
G04 #@! TF.SameCoordinates,C917657F-03F6-454C-AC05-0521F369B23B*
G04*
G04*
G04 #@! TF.FilePolarity,Negative*
G04*
G01*
G75*
%ADD11C,0.254*%
%ADD67C,1.016*%
%ADD68C,2.416*%
%ADD69C,2.746*%
G04:AMPARAMS|DCode=70|XSize=3.024mm|YSize=3.024mm|CornerRadius=0mm|HoleSize=0mm|Usage=FLASHONLY|Rotation=0.000|XOffset=0mm|YOffset=0mm|HoleType=Round|Shape=Relief|Width=0.254mm|Gap=0.254mm|Entries=4|*
%AMTHD70*
7,0,0,3.024,2.516,0.254,45*
%
%ADD70THD70*%
%ADD71C,3.616*%
%ADD72C,1.316*%
D11*
X102085Y37050D02*
X102700D01*
X102085Y34425D02*
Y37050D01*
D67*
X35250Y21570D02*
G03*
X34250Y22570I-1000J-0D01*
G01*
X35250Y12327D02*
G03*
X36250Y11327I1000J0D01*
G01*
X114250Y11327D02*
G03*
X115250Y12327I0J1000D01*
G01*
X116250Y23500D02*
G03*
X115250Y22500I0J-1000D01*
G01*
X118701Y23500D02*
G03*
X119701Y24500I0J1000D01*
G01*
Y35500D02*
G03*
X118701Y36500I-1000J-0D01*
G01*
X115250Y37500D02*
G03*
X116250Y36500I1000J0D01*
G01*
X116250Y64020D02*
G03*
X115250Y63020I0J-1000D01*
G01*
X118701Y64020D02*
G03*
X119701Y65020I0J1000D01*
G01*
X119701Y76020D02*
G03*
X118701Y77020I-1000J-0D01*
G01*
X115250Y78020D02*
G03*
X116250Y77020I1000J0D01*
G01*
X115250Y78994D02*
G03*
X114250Y79994I-1000J0D01*
G01*
X36250D02*
G03*
X35250Y78994I0J-1000D01*
G01*
X34250Y77430D02*
G03*
X35250Y78430I0J1000D01*
G01*
X29250Y77430D02*
G03*
X28250Y76430I-0J-1000D01*
G01*
X28250Y63570D02*
G03*
X29250Y62570I1000J0D01*
G01*
X35250Y61570D02*
G03*
X34250Y62570I-1000J-0D01*
G01*
X34250Y37430D02*
G03*
X35250Y38430I-0J1000D01*
G01*
X29250Y37430D02*
G03*
X28250Y36430I-0J-1000D01*
G01*
X28250Y23570D02*
G03*
X29250Y22570I1000J-0D01*
G01*
X35250Y12327D02*
X35250Y21570D01*
X36250Y11327D02*
X114250Y11327D01*
X115250Y22500D02*
X115250Y12327D01*
X116250Y23500D02*
X118701Y23500D01*
X116250Y36500D02*
X118701Y36500D01*
X115250Y63020D02*
X115250Y37500D01*
X116250Y64020D02*
X118701Y64020D01*
X116250Y77020D02*
X118701Y77020D01*
X115250Y78994D02*
X115250Y78020D01*
X114231Y79994D02*
X114250Y79994D01*
X36250D02*
X114231Y79994D01*
X35250Y78430D02*
X35250Y78994D01*
X29250Y77430D02*
X34250Y77430D01*
X28250Y76430D02*
X28250Y63570D01*
X29250Y62570D02*
X34250Y62570D01*
X35250Y38430D02*
X35250Y61570D01*
X29250Y37430D02*
X34250Y37430D01*
X28250Y36430D02*
X28250Y23570D01*
X29250Y22570D02*
X34250D01*
X119701Y24500D02*
Y35500D01*
Y65020D02*
Y76020D01*
D68*
X30841Y27460D02*
D03*
Y32540D02*
D03*
Y67460D02*
D03*
Y72540D02*
D03*
X61675Y35525D02*
D03*
Y52825D02*
D03*
X100150Y34500D02*
D03*
D69*
X117750Y27460D02*
D03*
Y32540D02*
D03*
Y67980D02*
D03*
Y73060D02*
D03*
D70*
X64225Y32975D02*
D03*
Y38075D02*
D03*
X59125D02*
D03*
Y32975D02*
D03*
X64225Y50275D02*
D03*
Y55375D02*
D03*
X59125D02*
D03*
Y50275D02*
D03*
X102700Y37050D02*
D03*
X97600D02*
D03*
Y31950D02*
D03*
X102700D02*
D03*
D71*
X101125Y15200D02*
D03*
X101125Y71350D02*
D03*
X47325Y71350D02*
D03*
X47325Y15200D02*
D03*
D72*
X71691Y32250D02*
D03*
X63725Y20150D02*
D03*
X81825Y34850D02*
D03*
X68700Y26625D02*
D03*
X70534Y41549D02*
D03*
X73637Y43299D02*
D03*
X79250Y21000D02*
D03*
X93150Y51800D02*
D03*
X84575Y29750D02*
D03*
X34250Y67225D02*
D03*
X35450Y67200D02*
D03*
X35625Y69700D02*
D03*
X34225D02*
D03*
X113150Y72575D02*
D03*
X114125Y70000D02*
D03*
X112350Y70025D02*
D03*
X114050Y67500D02*
D03*
X112675D02*
D03*
X85450Y59300D02*
D03*
X68500Y56625D02*
D03*
X82450Y49225D02*
D03*
X60725Y16930D02*
D03*
X71775Y15750D02*
D03*
X73000Y50000D02*
D03*
X86300Y47689D02*
D03*
X71250Y53476D02*
D03*
X100975Y62726D02*
D03*
Y63600D02*
D03*
X107931Y28730D02*
D03*
X106350Y64100D02*
D03*
X108250Y63175D02*
D03*
X109000Y32325D02*
D03*
X109629Y34875D02*
D03*
X110550Y62750D02*
D03*
X40044Y33810D02*
D03*
X40035Y31270D02*
D03*
X40020Y28730D02*
D03*
X36184Y33810D02*
D03*
X42625Y62109D02*
D03*
X43275Y60361D02*
D03*
X63784Y75335D02*
D03*
X80565Y67742D02*
D03*
X58398Y77655D02*
D03*
X58375Y75392D02*
D03*
Y72775D02*
D03*
X63784Y76825D02*
D03*
X63781Y72775D02*
D03*
X69188Y73925D02*
D03*
X74594Y74715D02*
D03*
X45746Y67742D02*
D03*
X44781D02*
D03*
X50550Y62256D02*
D03*
X65700Y65217D02*
D03*
X64471Y65200D02*
D03*
X101850Y67742D02*
D03*
X100975D02*
D03*
X50550Y63050D02*
D03*
X41939Y64147D02*
D03*
X111767Y33810D02*
D03*
X107931Y69250D02*
D03*
X114517Y26190D02*
D03*
Y28730D02*
D03*
X40035Y71270D02*
D03*
X111716Y26190D02*
D03*
X111739Y31270D02*
D03*
X111730Y28730D02*
D03*
X107916Y71790D02*
D03*
X111767Y74330D02*
D03*
X40020Y68730D02*
D03*
X36184Y73810D02*
D03*
X36212Y71270D02*
D03*
X33010Y28730D02*
D03*
Y26190D02*
D03*
X36221Y28730D02*
D03*
X36212Y31270D02*
D03*
X36235Y26190D02*
D03*
X79997Y72775D02*
D03*
M02*
