G04*
G04 #@! TF.GenerationSoftware,Altium Limited,Altium Designer,23.0.1 (38)*
G04*
G04 Layer_Color=65535*
%FSLAX43Y43*%
%MOMM*%
G71*
G04*
G04 #@! TF.SameCoordinates,F4D5CC03-99AA-4306-8ABA-C9368C199380*
G04*
G04*
G04 #@! TF.FilePolarity,Positive*
G04*
G01*
G75*
%ADD10C,0.200*%
%ADD11C,0.254*%
G36*
X47237Y43561D02*
X46083D01*
Y41021D01*
X47237D01*
Y43561D01*
D02*
G37*
G36*
X44626Y31029D02*
X44228Y30746D01*
X44227Y30744D01*
X44222Y30741D01*
X44215Y30738D01*
X44207Y30731D01*
X44185Y30717D01*
X44160Y30701D01*
X44162Y30699D01*
X44168Y30694D01*
X44178Y30688D01*
X44191Y30680D01*
X44217Y30662D01*
X44228Y30654D01*
X44238Y30647D01*
X44626Y30364D01*
Y30186D01*
X44047Y30618D01*
X43507Y30236D01*
Y30413D01*
X43795Y30617D01*
X43796D01*
X43798Y30620D01*
X43803Y30623D01*
X43809Y30628D01*
X43825Y30638D01*
X43845Y30652D01*
X43867Y30667D01*
X43890Y30681D01*
X43911Y30694D01*
X43931Y30706D01*
X43927Y30707D01*
X43921Y30712D01*
X43908Y30720D01*
X43892Y30731D01*
X43874Y30744D01*
X43851Y30761D01*
X43829Y30777D01*
X43804Y30796D01*
X43507Y31019D01*
Y31181D01*
X44039Y30793D01*
X44626Y31212D01*
Y31029D01*
D02*
G37*
G36*
Y29887D02*
X44469D01*
Y30044D01*
X44626D01*
Y29887D01*
D02*
G37*
G36*
X44125Y29668D02*
X44144D01*
X44165Y29667D01*
X44188Y29665D01*
X44240Y29660D01*
X44293Y29652D01*
X44345Y29643D01*
X44369Y29636D01*
X44393Y29628D01*
X44395D01*
X44398Y29626D01*
X44405Y29623D01*
X44413Y29620D01*
X44424Y29617D01*
X44435Y29610D01*
X44463Y29597D01*
X44492Y29581D01*
X44524Y29560D01*
X44554Y29536D01*
X44581Y29507D01*
Y29505D01*
X44584Y29503D01*
X44588Y29499D01*
X44591Y29492D01*
X44596Y29484D01*
X44602Y29476D01*
X44613Y29452D01*
X44625Y29422D01*
X44636Y29389D01*
X44643Y29348D01*
X44646Y29304D01*
Y29288D01*
X44644Y29277D01*
X44643Y29264D01*
X44639Y29248D01*
X44636Y29230D01*
X44631Y29211D01*
X44625Y29191D01*
X44618Y29170D01*
X44609Y29149D01*
X44597Y29128D01*
X44584Y29107D01*
X44568Y29086D01*
X44550Y29067D01*
X44531Y29049D01*
X44529Y29047D01*
X44524Y29044D01*
X44516Y29039D01*
X44503Y29031D01*
X44489Y29023D01*
X44469Y29015D01*
X44447Y29003D01*
X44421Y28994D01*
X44392Y28984D01*
X44358Y28974D01*
X44321Y28965D01*
X44278Y28957D01*
X44233Y28948D01*
X44185Y28944D01*
X44131Y28940D01*
X44075Y28939D01*
X44073D01*
X44067D01*
X44055D01*
X44042D01*
X44024Y28940D01*
X44005D01*
X43984Y28942D01*
X43960Y28944D01*
X43910Y28948D01*
X43856Y28957D01*
X43803Y28966D01*
X43779Y28973D01*
X43754Y28979D01*
X43753D01*
X43749Y28981D01*
X43743Y28984D01*
X43735Y28987D01*
X43723Y28990D01*
X43712Y28997D01*
X43685Y29010D01*
X43656Y29026D01*
X43625Y29047D01*
X43594Y29071D01*
X43568Y29101D01*
Y29102D01*
X43565Y29104D01*
X43562Y29109D01*
X43558Y29115D01*
X43552Y29123D01*
X43547Y29133D01*
X43534Y29157D01*
X43523Y29186D01*
X43512Y29220D01*
X43505Y29261D01*
X43502Y29304D01*
Y29319D01*
X43503Y29337D01*
X43507Y29358D01*
X43512Y29382D01*
X43518Y29408D01*
X43526Y29435D01*
X43539Y29461D01*
Y29463D01*
X43541Y29465D01*
X43546Y29473D01*
X43554Y29486D01*
X43565Y29502D01*
X43581Y29520D01*
X43599Y29539D01*
X43620Y29557D01*
X43644Y29575D01*
X43647Y29576D01*
X43656Y29583D01*
X43670Y29589D01*
X43691Y29600D01*
X43715Y29610D01*
X43743Y29623D01*
X43775Y29634D01*
X43811Y29644D01*
X43812D01*
X43816Y29646D01*
X43821Y29647D01*
X43829Y29649D01*
X43838Y29651D01*
X43850Y29652D01*
X43864Y29655D01*
X43880Y29657D01*
X43898Y29660D01*
X43918Y29662D01*
X43940Y29664D01*
X43963Y29667D01*
X43989Y29668D01*
X44015D01*
X44044Y29670D01*
X44075D01*
X44076D01*
X44083D01*
X44094D01*
X44107D01*
X44125Y29668D01*
D02*
G37*
G36*
X44626Y28581D02*
X44469D01*
Y28738D01*
X44626D01*
Y28581D01*
D02*
G37*
G36*
X44125Y28363D02*
X44144D01*
X44165Y28361D01*
X44188Y28359D01*
X44240Y28355D01*
X44293Y28347D01*
X44345Y28337D01*
X44369Y28330D01*
X44393Y28322D01*
X44395D01*
X44398Y28321D01*
X44405Y28317D01*
X44413Y28314D01*
X44424Y28311D01*
X44435Y28304D01*
X44463Y28292D01*
X44492Y28275D01*
X44524Y28254D01*
X44554Y28230D01*
X44581Y28201D01*
Y28199D01*
X44584Y28198D01*
X44588Y28193D01*
X44591Y28186D01*
X44596Y28178D01*
X44602Y28170D01*
X44613Y28146D01*
X44625Y28117D01*
X44636Y28083D01*
X44643Y28042D01*
X44646Y27999D01*
Y27982D01*
X44644Y27971D01*
X44643Y27958D01*
X44639Y27942D01*
X44636Y27924D01*
X44631Y27905D01*
X44625Y27885D01*
X44618Y27864D01*
X44609Y27843D01*
X44597Y27822D01*
X44584Y27801D01*
X44568Y27780D01*
X44550Y27761D01*
X44531Y27743D01*
X44529Y27741D01*
X44524Y27738D01*
X44516Y27733D01*
X44503Y27725D01*
X44489Y27717D01*
X44469Y27709D01*
X44447Y27698D01*
X44421Y27688D01*
X44392Y27678D01*
X44358Y27669D01*
X44321Y27659D01*
X44278Y27651D01*
X44233Y27643D01*
X44185Y27638D01*
X44131Y27635D01*
X44075Y27633D01*
X44073D01*
X44067D01*
X44055D01*
X44042D01*
X44024Y27635D01*
X44005D01*
X43984Y27636D01*
X43960Y27638D01*
X43910Y27643D01*
X43856Y27651D01*
X43803Y27660D01*
X43779Y27667D01*
X43754Y27673D01*
X43753D01*
X43749Y27675D01*
X43743Y27678D01*
X43735Y27682D01*
X43723Y27685D01*
X43712Y27691D01*
X43685Y27704D01*
X43656Y27720D01*
X43625Y27741D01*
X43594Y27766D01*
X43568Y27795D01*
Y27796D01*
X43565Y27798D01*
X43562Y27803D01*
X43558Y27809D01*
X43552Y27817D01*
X43547Y27827D01*
X43534Y27851D01*
X43523Y27881D01*
X43512Y27915D01*
X43505Y27955D01*
X43502Y27999D01*
Y28013D01*
X43503Y28031D01*
X43507Y28052D01*
X43512Y28076D01*
X43518Y28102D01*
X43526Y28130D01*
X43539Y28156D01*
Y28157D01*
X43541Y28159D01*
X43546Y28167D01*
X43554Y28180D01*
X43565Y28196D01*
X43581Y28214D01*
X43599Y28233D01*
X43620Y28251D01*
X43644Y28269D01*
X43647Y28270D01*
X43656Y28277D01*
X43670Y28283D01*
X43691Y28295D01*
X43715Y28304D01*
X43743Y28317D01*
X43775Y28329D01*
X43811Y28338D01*
X43812D01*
X43816Y28340D01*
X43821Y28342D01*
X43829Y28343D01*
X43838Y28345D01*
X43850Y28347D01*
X43864Y28350D01*
X43880Y28351D01*
X43898Y28355D01*
X43918Y28356D01*
X43940Y28358D01*
X43963Y28361D01*
X43989Y28363D01*
X44015D01*
X44044Y28364D01*
X44075D01*
X44076D01*
X44083D01*
X44094D01*
X44107D01*
X44125Y28363D01*
D02*
G37*
G36*
X44626Y27118D02*
Y26963D01*
X43507Y26530D01*
Y26691D01*
X44321Y26983D01*
X44322D01*
X44325Y26984D01*
X44330Y26986D01*
X44337Y26989D01*
X44346Y26991D01*
X44356Y26994D01*
X44380Y27002D01*
X44408Y27012D01*
X44439Y27021D01*
X44503Y27041D01*
X44502D01*
X44499Y27042D01*
X44494Y27044D01*
X44487Y27046D01*
X44469Y27051D01*
X44445Y27059D01*
X44418Y27067D01*
X44387Y27076D01*
X44355Y27088D01*
X44321Y27101D01*
X43507Y27405D01*
Y27555D01*
X44626Y27118D01*
D02*
G37*
G36*
X43968Y26060D02*
X43966Y26059D01*
X43963Y26052D01*
X43958Y26043D01*
X43953Y26030D01*
X43948Y26015D01*
X43944Y25997D01*
X43940Y25979D01*
X43939Y25962D01*
Y25954D01*
X43940Y25945D01*
X43942Y25934D01*
X43945Y25923D01*
X43950Y25908D01*
X43956Y25894D01*
X43966Y25881D01*
X43968Y25879D01*
X43971Y25874D01*
X43978Y25869D01*
X43986Y25861D01*
X43997Y25853D01*
X44010Y25845D01*
X44024Y25837D01*
X44042Y25831D01*
X44045Y25829D01*
X44055Y25827D01*
X44070Y25824D01*
X44089Y25819D01*
X44113Y25814D01*
X44141Y25811D01*
X44170Y25810D01*
X44202Y25808D01*
X44626D01*
Y25670D01*
X43814D01*
Y25795D01*
X43937D01*
X43935Y25797D01*
X43924Y25803D01*
X43910Y25811D01*
X43892Y25824D01*
X43874Y25837D01*
X43855Y25852D01*
X43838Y25866D01*
X43825Y25881D01*
X43824Y25882D01*
X43821Y25887D01*
X43816Y25897D01*
X43811Y25907D01*
X43806Y25920D01*
X43801Y25936D01*
X43798Y25952D01*
X43796Y25970D01*
Y25981D01*
X43798Y25996D01*
X43801Y26013D01*
X43808Y26034D01*
X43816Y26057D01*
X43827Y26083D01*
X43842Y26110D01*
X43968Y26060D01*
D02*
G37*
G36*
X44256Y25502D02*
Y24895D01*
X44257D01*
X44262D01*
X44269Y24897D01*
X44278D01*
X44290Y24899D01*
X44303Y24902D01*
X44332Y24907D01*
X44364Y24916D01*
X44400Y24929D01*
X44432Y24947D01*
X44461Y24970D01*
Y24971D01*
X44465Y24973D01*
X44473Y24983D01*
X44484Y24997D01*
X44495Y25017D01*
X44508Y25043D01*
X44520Y25072D01*
X44528Y25104D01*
X44529Y25122D01*
X44531Y25141D01*
Y25154D01*
X44529Y25169D01*
X44526Y25187D01*
X44521Y25206D01*
X44515Y25229D01*
X44505Y25250D01*
X44492Y25271D01*
X44490Y25272D01*
X44484Y25280D01*
X44474Y25290D01*
X44461Y25301D01*
X44444Y25314D01*
X44421Y25329D01*
X44395Y25344D01*
X44364Y25357D01*
X44382Y25499D01*
X44384D01*
X44387Y25497D01*
X44393Y25496D01*
X44403Y25492D01*
X44413Y25488D01*
X44426Y25483D01*
X44453Y25470D01*
X44484Y25454D01*
X44516Y25431D01*
X44547Y25405D01*
X44576Y25373D01*
Y25371D01*
X44579Y25368D01*
X44583Y25363D01*
X44588Y25357D01*
X44592Y25347D01*
X44597Y25337D01*
X44604Y25324D01*
X44610Y25310D01*
X44617Y25293D01*
X44623Y25277D01*
X44633Y25237D01*
X44641Y25191D01*
X44644Y25141D01*
Y25124D01*
X44643Y25112D01*
X44641Y25098D01*
X44638Y25080D01*
X44634Y25060D01*
X44631Y25039D01*
X44618Y24994D01*
X44609Y24970D01*
X44599Y24947D01*
X44586Y24923D01*
X44571Y24900D01*
X44555Y24879D01*
X44536Y24858D01*
X44534Y24857D01*
X44531Y24853D01*
X44524Y24848D01*
X44515Y24842D01*
X44503Y24834D01*
X44490Y24826D01*
X44474Y24816D01*
X44456Y24806D01*
X44435Y24797D01*
X44413Y24787D01*
X44387Y24779D01*
X44359Y24771D01*
X44330Y24764D01*
X44298Y24759D01*
X44264Y24756D01*
X44228Y24755D01*
X44227D01*
X44219D01*
X44209D01*
X44194Y24756D01*
X44177Y24758D01*
X44157Y24759D01*
X44134Y24763D01*
X44112Y24768D01*
X44060Y24781D01*
X44034Y24789D01*
X44007Y24798D01*
X43981Y24811D01*
X43956Y24826D01*
X43932Y24842D01*
X43910Y24860D01*
X43908Y24861D01*
X43905Y24865D01*
X43900Y24871D01*
X43892Y24879D01*
X43884Y24889D01*
X43874Y24902D01*
X43863Y24916D01*
X43853Y24934D01*
X43842Y24952D01*
X43832Y24973D01*
X43822Y24996D01*
X43814Y25020D01*
X43806Y25046D01*
X43801Y25073D01*
X43798Y25102D01*
X43796Y25133D01*
Y25149D01*
X43798Y25161D01*
X43800Y25174D01*
X43803Y25190D01*
X43806Y25208D01*
X43811Y25229D01*
X43816Y25248D01*
X43824Y25271D01*
X43832Y25292D01*
X43843Y25314D01*
X43856Y25337D01*
X43871Y25360D01*
X43889Y25381D01*
X43908Y25400D01*
X43910Y25402D01*
X43913Y25405D01*
X43919Y25410D01*
X43929Y25416D01*
X43940Y25424D01*
X43953Y25433D01*
X43969Y25442D01*
X43989Y25452D01*
X44010Y25462D01*
X44033Y25471D01*
X44058Y25479D01*
X44086Y25488D01*
X44117Y25494D01*
X44149Y25499D01*
X44183Y25502D01*
X44220Y25504D01*
X44222D01*
X44228D01*
X44240D01*
X44256Y25502D01*
D02*
G37*
G36*
X44626Y24680D02*
X44628Y24674D01*
X44630Y24662D01*
X44631Y24648D01*
X44634Y24632D01*
X44636Y24614D01*
X44638Y24578D01*
Y24565D01*
X44636Y24552D01*
X44634Y24536D01*
X44633Y24517D01*
X44628Y24497D01*
X44623Y24480D01*
X44615Y24462D01*
X44613Y24460D01*
X44610Y24455D01*
X44605Y24449D01*
X44597Y24439D01*
X44589Y24431D01*
X44578Y24421D01*
X44566Y24412D01*
X44552Y24405D01*
X44550D01*
X44544Y24402D01*
X44532Y24400D01*
X44516Y24397D01*
X44495Y24394D01*
X44482Y24392D01*
X44468D01*
X44450Y24391D01*
X44432Y24389D01*
X44413D01*
X44390D01*
X43921D01*
Y24287D01*
X43814D01*
Y24389D01*
X43613D01*
X43531Y24526D01*
X43814D01*
Y24666D01*
X43921D01*
Y24526D01*
X44398D01*
X44401D01*
X44408D01*
X44418D01*
X44429Y24528D01*
X44455Y24530D01*
X44466Y24531D01*
X44474Y24533D01*
X44477Y24535D01*
X44484Y24539D01*
X44492Y24546D01*
X44500Y24557D01*
X44502Y24560D01*
X44505Y24569D01*
X44508Y24583D01*
X44510Y24604D01*
Y24620D01*
X44508Y24628D01*
Y24640D01*
X44507Y24653D01*
X44505Y24666D01*
X44626Y24683D01*
Y24680D01*
D02*
G37*
G36*
X44248Y24198D02*
X44261D01*
X44290Y24195D01*
X44325Y24188D01*
X44363Y24180D01*
X44401Y24169D01*
X44440Y24154D01*
X44442D01*
X44445Y24153D01*
X44450Y24149D01*
X44456Y24146D01*
X44474Y24135D01*
X44497Y24120D01*
X44521Y24103D01*
X44545Y24080D01*
X44570Y24054D01*
X44592Y24023D01*
Y24022D01*
X44594Y24020D01*
X44597Y24015D01*
X44600Y24009D01*
X44609Y23993D01*
X44618Y23970D01*
X44628Y23942D01*
X44636Y23913D01*
X44643Y23879D01*
X44644Y23845D01*
Y23834D01*
X44643Y23821D01*
X44641Y23805D01*
X44638Y23785D01*
X44633Y23764D01*
X44626Y23743D01*
X44617Y23722D01*
X44615Y23721D01*
X44612Y23713D01*
X44605Y23703D01*
X44596Y23690D01*
X44586Y23677D01*
X44573Y23661D01*
X44558Y23646D01*
X44542Y23633D01*
X44937D01*
Y23496D01*
X43814D01*
Y23620D01*
X43921D01*
X43918Y23622D01*
X43911Y23628D01*
X43900Y23637D01*
X43887Y23650D01*
X43871Y23664D01*
X43856Y23680D01*
X43842Y23700D01*
X43829Y23719D01*
X43827Y23722D01*
X43824Y23729D01*
X43819Y23742D01*
X43812Y23758D01*
X43806Y23777D01*
X43801Y23800D01*
X43798Y23826D01*
X43796Y23855D01*
Y23873D01*
X43798Y23881D01*
X43800Y23892D01*
X43803Y23917D01*
X43809Y23946D01*
X43819Y23976D01*
X43834Y24007D01*
X43851Y24038D01*
Y24039D01*
X43855Y24041D01*
X43861Y24051D01*
X43874Y24065D01*
X43890Y24083D01*
X43911Y24103D01*
X43937Y24122D01*
X43968Y24141D01*
X44002Y24158D01*
X44003D01*
X44007Y24159D01*
X44011Y24161D01*
X44018Y24164D01*
X44028Y24167D01*
X44039Y24171D01*
X44065Y24179D01*
X44097Y24187D01*
X44133Y24193D01*
X44173Y24198D01*
X44215Y24200D01*
X44217D01*
X44220D01*
X44227D01*
X44236D01*
X44248Y24198D01*
D02*
G37*
G36*
X44626Y23182D02*
X44625Y23180D01*
X44618Y23179D01*
X44610Y23175D01*
X44597Y23171D01*
X44583Y23166D01*
X44565Y23163D01*
X44545Y23159D01*
X44524Y23156D01*
Y23154D01*
X44528Y23153D01*
X44536Y23143D01*
X44547Y23129D01*
X44562Y23109D01*
X44576Y23085D01*
X44592Y23061D01*
X44607Y23035D01*
X44618Y23007D01*
X44620Y23004D01*
X44621Y22994D01*
X44626Y22980D01*
X44631Y22962D01*
X44636Y22939D01*
X44639Y22913D01*
X44643Y22884D01*
X44644Y22855D01*
Y22842D01*
X44643Y22832D01*
Y22821D01*
X44641Y22808D01*
X44636Y22779D01*
X44628Y22747D01*
X44617Y22711D01*
X44600Y22679D01*
X44579Y22650D01*
X44576Y22646D01*
X44568Y22638D01*
X44554Y22627D01*
X44534Y22614D01*
X44510Y22601D01*
X44482Y22590D01*
X44448Y22582D01*
X44432Y22580D01*
X44413Y22578D01*
X44410D01*
X44403D01*
X44392Y22580D01*
X44377Y22582D01*
X44359Y22585D01*
X44342Y22590D01*
X44322Y22596D01*
X44304Y22604D01*
X44303Y22606D01*
X44296Y22609D01*
X44287Y22616D01*
X44275Y22624D01*
X44262Y22633D01*
X44249Y22646D01*
X44236Y22659D01*
X44225Y22676D01*
X44223Y22677D01*
X44220Y22684D01*
X44214Y22692D01*
X44207Y22705D01*
X44201Y22719D01*
X44193Y22737D01*
X44186Y22755D01*
X44180Y22776D01*
Y22777D01*
X44178Y22784D01*
X44175Y22794D01*
X44173Y22807D01*
X44170Y22823D01*
X44167Y22844D01*
X44162Y22868D01*
X44159Y22897D01*
Y22899D01*
X44157Y22905D01*
Y22913D01*
X44155Y22925D01*
X44154Y22938D01*
X44151Y22954D01*
X44149Y22972D01*
X44146Y22991D01*
X44138Y23030D01*
X44130Y23072D01*
X44120Y23109D01*
X44115Y23127D01*
X44110Y23143D01*
X44109D01*
X44105D01*
X44096Y23145D01*
X44084D01*
X44078D01*
X44075D01*
X44073D01*
X44071D01*
X44062D01*
X44045Y23143D01*
X44028Y23140D01*
X44008Y23135D01*
X43989Y23127D01*
X43971Y23117D01*
X43956Y23104D01*
X43955Y23103D01*
X43948Y23095D01*
X43942Y23082D01*
X43932Y23065D01*
X43924Y23043D01*
X43916Y23017D01*
X43911Y22985D01*
X43910Y22947D01*
Y22931D01*
X43911Y22915D01*
X43914Y22892D01*
X43918Y22870D01*
X43924Y22845D01*
X43932Y22823D01*
X43944Y22803D01*
X43945Y22802D01*
X43950Y22795D01*
X43958Y22787D01*
X43971Y22777D01*
X43987Y22768D01*
X44008Y22756D01*
X44034Y22747D01*
X44063Y22737D01*
X44045Y22603D01*
X44044D01*
X44042Y22604D01*
X44037D01*
X44031Y22606D01*
X44016Y22611D01*
X43995Y22617D01*
X43974Y22625D01*
X43952Y22635D01*
X43929Y22648D01*
X43908Y22663D01*
X43906Y22664D01*
X43900Y22671D01*
X43890Y22680D01*
X43877Y22693D01*
X43864Y22711D01*
X43851Y22732D01*
X43837Y22756D01*
X43825Y22784D01*
Y22786D01*
X43824Y22787D01*
X43822Y22792D01*
X43821Y22798D01*
X43816Y22815D01*
X43811Y22837D01*
X43806Y22863D01*
X43801Y22896D01*
X43798Y22930D01*
X43796Y22968D01*
Y22986D01*
X43798Y23004D01*
X43800Y23028D01*
X43803Y23056D01*
X43808Y23083D01*
X43814Y23111D01*
X43822Y23137D01*
X43824Y23140D01*
X43827Y23148D01*
X43832Y23159D01*
X43838Y23174D01*
X43848Y23190D01*
X43858Y23206D01*
X43871Y23221D01*
X43884Y23234D01*
X43885Y23235D01*
X43890Y23239D01*
X43898Y23243D01*
X43908Y23250D01*
X43923Y23258D01*
X43937Y23264D01*
X43955Y23271D01*
X43976Y23276D01*
X43978D01*
X43982Y23277D01*
X43992Y23279D01*
X44005Y23281D01*
X44023D01*
X44044Y23282D01*
X44071Y23284D01*
X44102D01*
X44287D01*
X44288D01*
X44295D01*
X44304D01*
X44317D01*
X44332D01*
X44350D01*
X44388Y23285D01*
X44429D01*
X44469Y23287D01*
X44487Y23289D01*
X44503D01*
X44518Y23290D01*
X44529Y23292D01*
X44531D01*
X44537Y23294D01*
X44547Y23295D01*
X44560Y23300D01*
X44575Y23303D01*
X44591Y23310D01*
X44609Y23318D01*
X44626Y23326D01*
Y23182D01*
D02*
G37*
G36*
X45622Y22732D02*
X45620Y22731D01*
X45617Y22724D01*
X45612Y22714D01*
X45607Y22701D01*
X45603Y22687D01*
X45598Y22669D01*
X45595Y22651D01*
X45593Y22633D01*
Y22625D01*
X45595Y22617D01*
X45596Y22606D01*
X45599Y22595D01*
X45604Y22580D01*
X45611Y22565D01*
X45620Y22553D01*
X45622Y22551D01*
X45625Y22546D01*
X45632Y22541D01*
X45640Y22533D01*
X45651Y22525D01*
X45664Y22517D01*
X45679Y22509D01*
X45696Y22502D01*
X45700Y22501D01*
X45709Y22499D01*
X45724Y22496D01*
X45743Y22491D01*
X45768Y22486D01*
X45795Y22483D01*
X45824Y22481D01*
X45857Y22480D01*
X46281D01*
Y22342D01*
X45468D01*
Y22467D01*
X45591D01*
X45590Y22468D01*
X45578Y22475D01*
X45564Y22483D01*
X45546Y22496D01*
X45528Y22509D01*
X45509Y22523D01*
X45493Y22538D01*
X45480Y22553D01*
X45478Y22554D01*
X45475Y22559D01*
X45470Y22569D01*
X45465Y22578D01*
X45460Y22591D01*
X45455Y22608D01*
X45452Y22624D01*
X45451Y22642D01*
Y22653D01*
X45452Y22667D01*
X45455Y22685D01*
X45462Y22706D01*
X45470Y22729D01*
X45481Y22755D01*
X45496Y22782D01*
X45622Y22732D01*
D02*
G37*
G36*
X44626Y22279D02*
X44524D01*
X44526Y22277D01*
X44529Y22276D01*
X44536Y22271D01*
X44544Y22265D01*
X44552Y22256D01*
X44562Y22247D01*
X44573Y22235D01*
X44584Y22221D01*
X44596Y22206D01*
X44607Y22190D01*
X44617Y22171D01*
X44625Y22150D01*
X44633Y22129D01*
X44639Y22104D01*
X44643Y22078D01*
X44644Y22051D01*
Y22041D01*
X44643Y22035D01*
X44641Y22015D01*
X44638Y21993D01*
X44631Y21965D01*
X44621Y21934D01*
X44609Y21904D01*
X44591Y21873D01*
Y21871D01*
X44588Y21870D01*
X44581Y21860D01*
X44568Y21845D01*
X44552Y21828D01*
X44531Y21807D01*
X44505Y21786D01*
X44476Y21765D01*
X44442Y21747D01*
X44440D01*
X44437Y21745D01*
X44432Y21744D01*
X44426Y21740D01*
X44416Y21737D01*
X44405Y21732D01*
X44393Y21729D01*
X44379Y21726D01*
X44346Y21718D01*
X44309Y21710D01*
X44267Y21705D01*
X44222Y21703D01*
X44220D01*
X44217D01*
X44211D01*
X44201D01*
X44191Y21705D01*
X44178D01*
X44149Y21708D01*
X44115Y21713D01*
X44078Y21721D01*
X44039Y21731D01*
X44002Y21744D01*
X44000D01*
X43997Y21745D01*
X43992Y21748D01*
X43986Y21752D01*
X43968Y21761D01*
X43945Y21774D01*
X43921Y21790D01*
X43897Y21812D01*
X43871Y21836D01*
X43850Y21865D01*
Y21867D01*
X43848Y21868D01*
X43845Y21873D01*
X43842Y21879D01*
X43834Y21896D01*
X43822Y21918D01*
X43812Y21944D01*
X43804Y21975D01*
X43798Y22009D01*
X43796Y22044D01*
Y22057D01*
X43798Y22070D01*
X43800Y22088D01*
X43804Y22109D01*
X43809Y22132D01*
X43817Y22155D01*
X43829Y22176D01*
X43830Y22179D01*
X43834Y22185D01*
X43842Y22195D01*
X43850Y22208D01*
X43861Y22224D01*
X43876Y22239D01*
X43890Y22255D01*
X43908Y22269D01*
X43507D01*
Y22407D01*
X44626D01*
Y22279D01*
D02*
G37*
G36*
X45910Y22174D02*
Y21567D01*
X45912D01*
X45917D01*
X45923Y21569D01*
X45933D01*
X45944Y21570D01*
X45957Y21574D01*
X45986Y21579D01*
X46018Y21588D01*
X46054Y21601D01*
X46086Y21619D01*
X46116Y21642D01*
Y21643D01*
X46119Y21645D01*
X46127Y21655D01*
X46138Y21669D01*
X46149Y21689D01*
X46162Y21714D01*
X46174Y21744D01*
X46182Y21776D01*
X46183Y21794D01*
X46185Y21813D01*
Y21826D01*
X46183Y21841D01*
X46180Y21858D01*
X46175Y21878D01*
X46169Y21900D01*
X46159Y21922D01*
X46146Y21943D01*
X46145Y21944D01*
X46138Y21952D01*
X46128Y21962D01*
X46116Y21973D01*
X46098Y21986D01*
X46075Y22001D01*
X46049Y22015D01*
X46018Y22028D01*
X46036Y22171D01*
X46038D01*
X46041Y22169D01*
X46048Y22167D01*
X46057Y22164D01*
X46067Y22159D01*
X46080Y22155D01*
X46107Y22142D01*
X46138Y22125D01*
X46171Y22103D01*
X46201Y22077D01*
X46230Y22044D01*
Y22043D01*
X46234Y22040D01*
X46237Y22035D01*
X46242Y22028D01*
X46247Y22019D01*
X46251Y22009D01*
X46258Y21996D01*
X46264Y21981D01*
X46271Y21965D01*
X46277Y21949D01*
X46287Y21909D01*
X46295Y21863D01*
X46298Y21813D01*
Y21795D01*
X46297Y21784D01*
X46295Y21769D01*
X46292Y21752D01*
X46289Y21732D01*
X46285Y21711D01*
X46272Y21666D01*
X46263Y21642D01*
X46253Y21619D01*
X46240Y21595D01*
X46226Y21572D01*
X46209Y21551D01*
X46190Y21530D01*
X46188Y21528D01*
X46185Y21525D01*
X46179Y21520D01*
X46169Y21514D01*
X46158Y21506D01*
X46145Y21498D01*
X46128Y21488D01*
X46111Y21478D01*
X46090Y21468D01*
X46067Y21459D01*
X46041Y21451D01*
X46014Y21443D01*
X45984Y21436D01*
X45952Y21431D01*
X45918Y21428D01*
X45883Y21426D01*
X45881D01*
X45873D01*
X45863D01*
X45849Y21428D01*
X45831Y21430D01*
X45811Y21431D01*
X45789Y21435D01*
X45766Y21439D01*
X45714Y21452D01*
X45688Y21460D01*
X45661Y21470D01*
X45635Y21483D01*
X45611Y21498D01*
X45586Y21514D01*
X45564Y21532D01*
X45562Y21533D01*
X45559Y21536D01*
X45554Y21543D01*
X45546Y21551D01*
X45538Y21561D01*
X45528Y21574D01*
X45517Y21588D01*
X45507Y21606D01*
X45496Y21624D01*
X45486Y21645D01*
X45476Y21668D01*
X45468Y21692D01*
X45460Y21718D01*
X45455Y21745D01*
X45452Y21774D01*
X45451Y21805D01*
Y21821D01*
X45452Y21833D01*
X45454Y21845D01*
X45457Y21862D01*
X45460Y21879D01*
X45465Y21900D01*
X45470Y21920D01*
X45478Y21943D01*
X45486Y21964D01*
X45497Y21986D01*
X45510Y22009D01*
X45525Y22032D01*
X45543Y22053D01*
X45562Y22072D01*
X45564Y22074D01*
X45567Y22077D01*
X45573Y22082D01*
X45583Y22088D01*
X45595Y22096D01*
X45607Y22104D01*
X45624Y22114D01*
X45643Y22124D01*
X45664Y22133D01*
X45687Y22143D01*
X45713Y22151D01*
X45740Y22159D01*
X45771Y22166D01*
X45803Y22171D01*
X45837Y22174D01*
X45874Y22176D01*
X45876D01*
X45883D01*
X45894D01*
X45910Y22174D01*
D02*
G37*
G36*
X46293Y21046D02*
X46295D01*
X46300Y21045D01*
X46306Y21041D01*
X46315Y21038D01*
X46326Y21033D01*
X46339Y21028D01*
X46366Y21017D01*
X46397Y21006D01*
X46428Y20993D01*
X46455Y20980D01*
X46467Y20973D01*
X46478Y20969D01*
X46481Y20967D01*
X46489Y20962D01*
X46501Y20954D01*
X46515Y20944D01*
X46531Y20931D01*
X46548Y20917D01*
X46564Y20902D01*
X46577Y20884D01*
X46578Y20883D01*
X46581Y20876D01*
X46586Y20867D01*
X46593Y20852D01*
X46599Y20836D01*
X46604Y20816D01*
X46607Y20795D01*
X46609Y20771D01*
Y20765D01*
X46607Y20757D01*
Y20745D01*
X46604Y20732D01*
X46601Y20718D01*
X46598Y20702D01*
X46591Y20684D01*
X46463Y20669D01*
Y20671D01*
X46465Y20677D01*
X46467Y20685D01*
X46470Y20695D01*
X46475Y20721D01*
X46476Y20747D01*
Y20755D01*
X46475Y20763D01*
Y20773D01*
X46470Y20797D01*
X46465Y20808D01*
X46460Y20820D01*
Y20821D01*
X46457Y20825D01*
X46454Y20829D01*
X46449Y20836D01*
X46436Y20850D01*
X46418Y20863D01*
X46416D01*
X46413Y20867D01*
X46407Y20870D01*
X46397Y20873D01*
X46384Y20880D01*
X46365Y20886D01*
X46342Y20896D01*
X46315Y20905D01*
X46313D01*
X46306Y20909D01*
X46295Y20912D01*
X46281Y20918D01*
X45468Y20611D01*
Y20757D01*
X45939Y20926D01*
X45941D01*
X45942Y20928D01*
X45947Y20930D01*
X45955Y20931D01*
X45963Y20935D01*
X45973Y20938D01*
X45996Y20946D01*
X46023Y20956D01*
X46056Y20965D01*
X46090Y20975D01*
X46127Y20985D01*
X46125D01*
X46122Y20986D01*
X46117Y20988D01*
X46111Y20990D01*
X46103Y20991D01*
X46093Y20994D01*
X46069Y21001D01*
X46041Y21009D01*
X46009Y21020D01*
X45976Y21030D01*
X45942Y21043D01*
X45468Y21218D01*
Y21355D01*
X46293Y21046D01*
D02*
G37*
G36*
X44626Y21485D02*
X44287Y21354D01*
Y20884D01*
X44626Y20763D01*
Y20606D01*
X43507Y21033D01*
Y21195D01*
X44626Y21653D01*
Y21485D01*
D02*
G37*
G36*
X45910Y20520D02*
Y19914D01*
X45912D01*
X45917D01*
X45923Y19915D01*
X45933D01*
X45944Y19917D01*
X45957Y19920D01*
X45986Y19925D01*
X46018Y19935D01*
X46054Y19948D01*
X46086Y19965D01*
X46116Y19988D01*
Y19990D01*
X46119Y19991D01*
X46127Y20001D01*
X46138Y20016D01*
X46149Y20035D01*
X46162Y20061D01*
X46174Y20090D01*
X46182Y20122D01*
X46183Y20140D01*
X46185Y20160D01*
Y20172D01*
X46183Y20187D01*
X46180Y20205D01*
X46175Y20224D01*
X46169Y20247D01*
X46159Y20268D01*
X46146Y20289D01*
X46145Y20291D01*
X46138Y20299D01*
X46128Y20308D01*
X46116Y20320D01*
X46098Y20333D01*
X46075Y20347D01*
X46049Y20362D01*
X46018Y20375D01*
X46036Y20517D01*
X46038D01*
X46041Y20515D01*
X46048Y20514D01*
X46057Y20511D01*
X46067Y20506D01*
X46080Y20501D01*
X46107Y20488D01*
X46138Y20472D01*
X46171Y20449D01*
X46201Y20423D01*
X46230Y20391D01*
Y20389D01*
X46234Y20386D01*
X46237Y20381D01*
X46242Y20375D01*
X46247Y20365D01*
X46251Y20355D01*
X46258Y20342D01*
X46264Y20328D01*
X46271Y20312D01*
X46277Y20295D01*
X46287Y20255D01*
X46295Y20210D01*
X46298Y20160D01*
Y20142D01*
X46297Y20130D01*
X46295Y20116D01*
X46292Y20098D01*
X46289Y20079D01*
X46285Y20058D01*
X46272Y20012D01*
X46263Y19988D01*
X46253Y19965D01*
X46240Y19941D01*
X46226Y19918D01*
X46209Y19897D01*
X46190Y19876D01*
X46188Y19875D01*
X46185Y19872D01*
X46179Y19867D01*
X46169Y19860D01*
X46158Y19852D01*
X46145Y19844D01*
X46128Y19834D01*
X46111Y19825D01*
X46090Y19815D01*
X46067Y19805D01*
X46041Y19797D01*
X46014Y19789D01*
X45984Y19783D01*
X45952Y19778D01*
X45918Y19774D01*
X45883Y19773D01*
X45881D01*
X45873D01*
X45863D01*
X45849Y19774D01*
X45831Y19776D01*
X45811Y19778D01*
X45789Y19781D01*
X45766Y19786D01*
X45714Y19799D01*
X45688Y19807D01*
X45661Y19817D01*
X45635Y19829D01*
X45611Y19844D01*
X45586Y19860D01*
X45564Y19878D01*
X45562Y19880D01*
X45559Y19883D01*
X45554Y19889D01*
X45546Y19897D01*
X45538Y19907D01*
X45528Y19920D01*
X45517Y19935D01*
X45507Y19952D01*
X45496Y19970D01*
X45486Y19991D01*
X45476Y20014D01*
X45468Y20038D01*
X45460Y20064D01*
X45455Y20092D01*
X45452Y20121D01*
X45451Y20151D01*
Y20168D01*
X45452Y20179D01*
X45454Y20192D01*
X45457Y20208D01*
X45460Y20226D01*
X45465Y20247D01*
X45470Y20266D01*
X45478Y20289D01*
X45486Y20310D01*
X45497Y20333D01*
X45510Y20355D01*
X45525Y20378D01*
X45543Y20399D01*
X45562Y20418D01*
X45564Y20420D01*
X45567Y20423D01*
X45573Y20428D01*
X45583Y20435D01*
X45595Y20443D01*
X45607Y20451D01*
X45624Y20460D01*
X45643Y20470D01*
X45664Y20480D01*
X45687Y20490D01*
X45713Y20498D01*
X45740Y20506D01*
X45771Y20512D01*
X45803Y20517D01*
X45837Y20520D01*
X45874Y20522D01*
X45876D01*
X45883D01*
X45894D01*
X45910Y20520D01*
D02*
G37*
G36*
X44125Y20096D02*
X44144D01*
X44165Y20095D01*
X44188Y20093D01*
X44240Y20088D01*
X44293Y20080D01*
X44345Y20071D01*
X44369Y20064D01*
X44393Y20056D01*
X44395D01*
X44398Y20054D01*
X44405Y20051D01*
X44413Y20048D01*
X44424Y20045D01*
X44435Y20038D01*
X44463Y20025D01*
X44492Y20009D01*
X44524Y19988D01*
X44554Y19964D01*
X44581Y19935D01*
Y19933D01*
X44584Y19931D01*
X44588Y19927D01*
X44591Y19920D01*
X44596Y19912D01*
X44602Y19904D01*
X44613Y19880D01*
X44625Y19851D01*
X44636Y19817D01*
X44643Y19776D01*
X44646Y19732D01*
Y19716D01*
X44644Y19705D01*
X44643Y19692D01*
X44639Y19676D01*
X44636Y19658D01*
X44631Y19639D01*
X44625Y19619D01*
X44618Y19598D01*
X44609Y19577D01*
X44597Y19556D01*
X44584Y19535D01*
X44568Y19514D01*
X44550Y19495D01*
X44531Y19477D01*
X44529Y19475D01*
X44524Y19472D01*
X44516Y19467D01*
X44503Y19459D01*
X44489Y19451D01*
X44469Y19443D01*
X44447Y19431D01*
X44421Y19422D01*
X44392Y19412D01*
X44358Y19402D01*
X44321Y19393D01*
X44278Y19385D01*
X44233Y19376D01*
X44185Y19372D01*
X44131Y19368D01*
X44075Y19367D01*
X44073D01*
X44067D01*
X44055D01*
X44042D01*
X44024Y19368D01*
X44005D01*
X43984Y19370D01*
X43960Y19372D01*
X43910Y19376D01*
X43856Y19385D01*
X43803Y19394D01*
X43779Y19401D01*
X43754Y19407D01*
X43753D01*
X43749Y19409D01*
X43743Y19412D01*
X43735Y19415D01*
X43723Y19419D01*
X43712Y19425D01*
X43685Y19438D01*
X43656Y19454D01*
X43625Y19475D01*
X43594Y19499D01*
X43568Y19529D01*
Y19530D01*
X43565Y19532D01*
X43562Y19537D01*
X43558Y19543D01*
X43552Y19551D01*
X43547Y19561D01*
X43534Y19585D01*
X43523Y19614D01*
X43512Y19648D01*
X43505Y19689D01*
X43502Y19732D01*
Y19747D01*
X43503Y19765D01*
X43507Y19786D01*
X43512Y19810D01*
X43518Y19836D01*
X43526Y19863D01*
X43539Y19889D01*
Y19891D01*
X43541Y19893D01*
X43546Y19901D01*
X43554Y19914D01*
X43565Y19930D01*
X43581Y19948D01*
X43599Y19967D01*
X43620Y19985D01*
X43644Y20003D01*
X43647Y20004D01*
X43656Y20011D01*
X43670Y20017D01*
X43691Y20028D01*
X43715Y20038D01*
X43743Y20051D01*
X43775Y20062D01*
X43811Y20072D01*
X43812D01*
X43816Y20074D01*
X43821Y20075D01*
X43829Y20077D01*
X43838Y20079D01*
X43850Y20080D01*
X43864Y20083D01*
X43880Y20085D01*
X43898Y20088D01*
X43918Y20090D01*
X43940Y20092D01*
X43963Y20095D01*
X43989Y20096D01*
X44015D01*
X44044Y20098D01*
X44075D01*
X44076D01*
X44083D01*
X44094D01*
X44107D01*
X44125Y20096D01*
D02*
G37*
G36*
X46281Y19441D02*
X45753D01*
Y18862D01*
X46281D01*
Y18713D01*
X45161D01*
Y18862D01*
X45620D01*
Y19441D01*
X45161D01*
Y19590D01*
X46281D01*
Y19441D01*
D02*
G37*
G36*
X44626Y18876D02*
X43751D01*
X43753Y18875D01*
X43759Y18867D01*
X43769Y18857D01*
X43780Y18841D01*
X43795Y18823D01*
X43811Y18800D01*
X43829Y18775D01*
X43846Y18745D01*
Y18744D01*
X43848Y18742D01*
X43855Y18732D01*
X43863Y18716D01*
X43872Y18697D01*
X43884Y18674D01*
X43895Y18650D01*
X43906Y18626D01*
X43916Y18601D01*
X43783D01*
Y18603D01*
X43780Y18606D01*
X43779Y18613D01*
X43774Y18621D01*
X43769Y18631D01*
X43762Y18642D01*
X43746Y18669D01*
X43728Y18702D01*
X43706Y18734D01*
X43680Y18768D01*
X43652Y18802D01*
X43651Y18804D01*
X43649Y18805D01*
X43644Y18810D01*
X43639Y18817D01*
X43623Y18831D01*
X43604Y18851D01*
X43581Y18870D01*
X43555Y18891D01*
X43529Y18909D01*
X43502Y18925D01*
Y19014D01*
X44626D01*
Y18876D01*
D02*
G37*
G36*
Y18006D02*
X43751D01*
X43753Y18004D01*
X43759Y17996D01*
X43769Y17987D01*
X43780Y17970D01*
X43795Y17953D01*
X43811Y17930D01*
X43829Y17904D01*
X43846Y17875D01*
Y17873D01*
X43848Y17872D01*
X43855Y17862D01*
X43863Y17846D01*
X43872Y17826D01*
X43884Y17804D01*
X43895Y17779D01*
X43906Y17755D01*
X43916Y17731D01*
X43783D01*
Y17733D01*
X43780Y17736D01*
X43779Y17742D01*
X43774Y17750D01*
X43769Y17760D01*
X43762Y17771D01*
X43746Y17799D01*
X43728Y17831D01*
X43706Y17864D01*
X43680Y17898D01*
X43652Y17932D01*
X43651Y17933D01*
X43649Y17935D01*
X43644Y17940D01*
X43639Y17946D01*
X43623Y17961D01*
X43604Y17980D01*
X43581Y18000D01*
X43555Y18021D01*
X43529Y18038D01*
X43502Y18055D01*
Y18144D01*
X44626D01*
Y18006D01*
D02*
G37*
G36*
X46281Y17906D02*
X45789D01*
X45787D01*
X45785D01*
X45774D01*
X45760D01*
X45742Y17904D01*
X45721Y17902D01*
X45700Y17899D01*
X45680Y17894D01*
X45662Y17890D01*
X45661D01*
X45656Y17886D01*
X45648Y17881D01*
X45638Y17877D01*
X45629Y17868D01*
X45617Y17859D01*
X45606Y17846D01*
X45596Y17831D01*
X45595Y17830D01*
X45591Y17825D01*
X45588Y17815D01*
X45583Y17804D01*
X45578Y17791D01*
X45573Y17775D01*
X45572Y17755D01*
X45570Y17736D01*
Y17728D01*
X45572Y17721D01*
X45573Y17705D01*
X45577Y17684D01*
X45585Y17661D01*
X45595Y17635D01*
X45607Y17610D01*
X45627Y17585D01*
X45630Y17582D01*
X45638Y17576D01*
X45645Y17571D01*
X45653Y17566D01*
X45662Y17559D01*
X45674Y17555D01*
X45687Y17548D01*
X45703Y17542D01*
X45721Y17537D01*
X45740Y17532D01*
X45761Y17529D01*
X45784Y17525D01*
X45811Y17522D01*
X45839D01*
X46281D01*
Y17385D01*
X45468D01*
Y17508D01*
X45585D01*
X45583Y17509D01*
X45578Y17513D01*
X45572Y17517D01*
X45564Y17524D01*
X45554Y17534D01*
X45543Y17545D01*
X45530Y17558D01*
X45517Y17574D01*
X45506Y17590D01*
X45493Y17610D01*
X45481Y17631D01*
X45472Y17653D01*
X45463Y17679D01*
X45457Y17705D01*
X45452Y17734D01*
X45451Y17765D01*
Y17778D01*
X45452Y17791D01*
X45454Y17809D01*
X45457Y17830D01*
X45462Y17852D01*
X45468Y17877D01*
X45478Y17899D01*
X45480Y17902D01*
X45483Y17909D01*
X45488Y17920D01*
X45496Y17933D01*
X45506Y17949D01*
X45518Y17964D01*
X45531Y17979D01*
X45548Y17991D01*
X45549Y17993D01*
X45556Y17996D01*
X45564Y18001D01*
X45575Y18009D01*
X45591Y18016D01*
X45607Y18022D01*
X45627Y18030D01*
X45648Y18035D01*
X45650D01*
X45656Y18037D01*
X45666Y18038D01*
X45679Y18040D01*
X45698D01*
X45721Y18042D01*
X45748Y18043D01*
X45782D01*
X46281D01*
Y17906D01*
D02*
G37*
G36*
Y17037D02*
X45468D01*
Y17174D01*
X46281D01*
Y17037D01*
D02*
G37*
G36*
X45318D02*
X45161D01*
Y17174D01*
X45318D01*
Y17037D01*
D02*
G37*
G36*
X44345Y17475D02*
X44367Y17472D01*
X44393Y17466D01*
X44421Y17458D01*
X44450Y17445D01*
X44481Y17427D01*
X44482D01*
X44484Y17425D01*
X44494Y17417D01*
X44508Y17406D01*
X44524Y17390D01*
X44544Y17369D01*
X44565Y17343D01*
X44584Y17314D01*
X44602Y17280D01*
Y17278D01*
X44604Y17275D01*
X44605Y17270D01*
X44609Y17263D01*
X44612Y17254D01*
X44617Y17242D01*
X44623Y17216D01*
X44631Y17186D01*
X44639Y17148D01*
X44644Y17108D01*
X44646Y17064D01*
Y17038D01*
X44644Y17026D01*
Y17011D01*
X44643Y16995D01*
X44641Y16975D01*
X44634Y16935D01*
X44628Y16893D01*
X44617Y16851D01*
X44602Y16810D01*
Y16809D01*
X44600Y16805D01*
X44597Y16801D01*
X44594Y16794D01*
X44584Y16775D01*
X44570Y16752D01*
X44550Y16726D01*
X44528Y16699D01*
X44500Y16673D01*
X44469Y16649D01*
X44468D01*
X44465Y16645D01*
X44460Y16644D01*
X44453Y16639D01*
X44445Y16636D01*
X44435Y16631D01*
X44411Y16619D01*
X44380Y16608D01*
X44346Y16598D01*
X44308Y16592D01*
X44267Y16589D01*
X44254Y16728D01*
X44256D01*
X44257D01*
X44262Y16729D01*
X44269D01*
X44283Y16733D01*
X44304Y16738D01*
X44325Y16744D01*
X44350Y16750D01*
X44372Y16762D01*
X44393Y16773D01*
X44395Y16775D01*
X44401Y16780D01*
X44413Y16788D01*
X44424Y16801D01*
X44439Y16817D01*
X44453Y16835D01*
X44468Y16859D01*
X44481Y16885D01*
Y16886D01*
X44482Y16888D01*
X44484Y16893D01*
X44486Y16898D01*
X44490Y16914D01*
X44497Y16935D01*
X44503Y16961D01*
X44508Y16990D01*
X44511Y17022D01*
X44513Y17058D01*
Y17072D01*
X44511Y17089D01*
X44510Y17108D01*
X44507Y17131D01*
X44503Y17157D01*
X44497Y17182D01*
X44489Y17207D01*
X44487Y17210D01*
X44484Y17218D01*
X44477Y17229D01*
X44471Y17244D01*
X44460Y17259D01*
X44448Y17275D01*
X44435Y17291D01*
X44419Y17304D01*
X44418Y17305D01*
X44411Y17309D01*
X44403Y17314D01*
X44390Y17320D01*
X44377Y17326D01*
X44361Y17331D01*
X44343Y17335D01*
X44324Y17336D01*
X44322D01*
X44314D01*
X44304Y17335D01*
X44291Y17333D01*
X44278Y17328D01*
X44262Y17323D01*
X44246Y17315D01*
X44232Y17304D01*
X44230Y17302D01*
X44225Y17297D01*
X44219Y17291D01*
X44209Y17280D01*
X44199Y17267D01*
X44188Y17249D01*
X44177Y17228D01*
X44167Y17204D01*
X44165Y17202D01*
X44164Y17194D01*
X44159Y17181D01*
X44157Y17173D01*
X44154Y17161D01*
X44149Y17150D01*
X44146Y17136D01*
X44141Y17119D01*
X44136Y17100D01*
X44131Y17081D01*
X44125Y17058D01*
X44118Y17032D01*
X44112Y17004D01*
Y17003D01*
X44110Y16998D01*
X44109Y16990D01*
X44105Y16980D01*
X44102Y16967D01*
X44099Y16953D01*
X44089Y16920D01*
X44078Y16885D01*
X44067Y16848D01*
X44055Y16815D01*
X44049Y16801D01*
X44042Y16788D01*
Y16786D01*
X44041Y16784D01*
X44034Y16775D01*
X44026Y16760D01*
X44013Y16744D01*
X43999Y16725D01*
X43981Y16705D01*
X43960Y16686D01*
X43937Y16670D01*
X43934Y16668D01*
X43926Y16663D01*
X43913Y16657D01*
X43897Y16650D01*
X43876Y16644D01*
X43851Y16637D01*
X43825Y16632D01*
X43798Y16631D01*
X43796D01*
X43795D01*
X43790D01*
X43783D01*
X43767Y16634D01*
X43746Y16637D01*
X43722Y16642D01*
X43694Y16650D01*
X43667Y16661D01*
X43639Y16678D01*
X43638D01*
X43636Y16679D01*
X43626Y16687D01*
X43613Y16699D01*
X43597Y16713D01*
X43579Y16733D01*
X43560Y16757D01*
X43542Y16786D01*
X43526Y16818D01*
Y16820D01*
X43524Y16823D01*
X43523Y16828D01*
X43520Y16835D01*
X43516Y16843D01*
X43513Y16854D01*
X43507Y16878D01*
X43500Y16909D01*
X43494Y16945D01*
X43489Y16982D01*
X43487Y17024D01*
Y17045D01*
X43489Y17056D01*
Y17068D01*
X43492Y17098D01*
X43497Y17132D01*
X43505Y17168D01*
X43515Y17207D01*
X43528Y17242D01*
Y17244D01*
X43529Y17247D01*
X43533Y17252D01*
X43536Y17259D01*
X43544Y17275D01*
X43558Y17296D01*
X43575Y17320D01*
X43596Y17344D01*
X43620Y17367D01*
X43647Y17388D01*
X43649D01*
X43651Y17390D01*
X43656Y17393D01*
X43660Y17396D01*
X43677Y17404D01*
X43698Y17414D01*
X43723Y17425D01*
X43754Y17433D01*
X43787Y17441D01*
X43822Y17445D01*
X43834Y17302D01*
X43832D01*
X43829D01*
X43824Y17301D01*
X43816Y17299D01*
X43798Y17294D01*
X43774Y17288D01*
X43748Y17278D01*
X43722Y17263D01*
X43698Y17246D01*
X43675Y17223D01*
X43673Y17220D01*
X43667Y17212D01*
X43657Y17195D01*
X43647Y17174D01*
X43638Y17147D01*
X43628Y17115D01*
X43622Y17074D01*
X43620Y17029D01*
Y17006D01*
X43622Y16996D01*
X43623Y16983D01*
X43626Y16954D01*
X43633Y16922D01*
X43641Y16890D01*
X43654Y16859D01*
X43662Y16846D01*
X43670Y16833D01*
X43672Y16830D01*
X43678Y16823D01*
X43690Y16814D01*
X43702Y16804D01*
X43720Y16793D01*
X43740Y16783D01*
X43762Y16776D01*
X43788Y16773D01*
X43791D01*
X43798D01*
X43809Y16775D01*
X43822Y16778D01*
X43838Y16783D01*
X43855Y16791D01*
X43871Y16801D01*
X43887Y16815D01*
X43889Y16817D01*
X43893Y16825D01*
X43898Y16831D01*
X43901Y16838D01*
X43906Y16848D01*
X43913Y16859D01*
X43918Y16873D01*
X43924Y16890D01*
X43931Y16907D01*
X43939Y16928D01*
X43945Y16951D01*
X43953Y16977D01*
X43960Y17006D01*
X43968Y17038D01*
Y17040D01*
X43969Y17047D01*
X43971Y17056D01*
X43974Y17068D01*
X43978Y17082D01*
X43982Y17100D01*
X43987Y17118D01*
X43992Y17137D01*
X44003Y17179D01*
X44015Y17220D01*
X44021Y17239D01*
X44028Y17257D01*
X44033Y17273D01*
X44039Y17286D01*
Y17288D01*
X44041Y17291D01*
X44044Y17296D01*
X44047Y17302D01*
X44057Y17320D01*
X44070Y17341D01*
X44088Y17365D01*
X44107Y17390D01*
X44130Y17412D01*
X44154Y17432D01*
X44157Y17433D01*
X44165Y17440D01*
X44180Y17446D01*
X44199Y17456D01*
X44222Y17464D01*
X44249Y17472D01*
X44280Y17477D01*
X44312Y17479D01*
X44314D01*
X44316D01*
X44321D01*
X44327D01*
X44345Y17475D01*
D02*
G37*
G36*
X46281Y16605D02*
Y16474D01*
X45468Y16168D01*
Y16314D01*
X45955Y16488D01*
X45957D01*
X45959Y16490D01*
X45963Y16492D01*
X45968Y16493D01*
X45984Y16498D01*
X46005Y16505D01*
X46030Y16513D01*
X46057Y16522D01*
X46088Y16530D01*
X46119Y16540D01*
X46116Y16542D01*
X46107Y16543D01*
X46094Y16548D01*
X46075Y16553D01*
X46054Y16561D01*
X46027Y16569D01*
X45997Y16581D01*
X45965Y16592D01*
X45468Y16771D01*
Y16914D01*
X46281Y16605D01*
D02*
G37*
G36*
X44094Y16433D02*
X44107D01*
X44138Y16432D01*
X44173Y16427D01*
X44211Y16422D01*
X44249Y16414D01*
X44288Y16404D01*
X44290D01*
X44293Y16403D01*
X44298Y16401D01*
X44304Y16399D01*
X44322Y16393D01*
X44345Y16383D01*
X44371Y16373D01*
X44397Y16361D01*
X44424Y16344D01*
X44450Y16328D01*
X44453Y16327D01*
X44461Y16320D01*
X44473Y16310D01*
X44487Y16297D01*
X44503Y16283D01*
X44520Y16265D01*
X44537Y16247D01*
X44552Y16226D01*
X44554Y16223D01*
X44558Y16217D01*
X44565Y16205D01*
X44573Y16189D01*
X44583Y16170D01*
X44591Y16147D01*
X44600Y16121D01*
X44609Y16092D01*
Y16089D01*
X44610Y16084D01*
X44612Y16079D01*
X44613Y16063D01*
X44617Y16040D01*
X44620Y16014D01*
X44623Y15984D01*
X44625Y15950D01*
X44626Y15912D01*
Y15509D01*
X43507D01*
Y15940D01*
X43508Y15969D01*
X43510Y16001D01*
X43513Y16034D01*
X43518Y16066D01*
X43523Y16094D01*
Y16095D01*
X43524Y16098D01*
Y16103D01*
X43528Y16110D01*
X43533Y16128D01*
X43541Y16150D01*
X43552Y16176D01*
X43567Y16204D01*
X43583Y16231D01*
X43604Y16257D01*
X43605Y16259D01*
X43607Y16260D01*
X43612Y16265D01*
X43617Y16272D01*
X43633Y16288D01*
X43656Y16307D01*
X43683Y16328D01*
X43715Y16351D01*
X43753Y16372D01*
X43795Y16390D01*
X43796D01*
X43800Y16391D01*
X43806Y16395D01*
X43816Y16396D01*
X43827Y16401D01*
X43840Y16404D01*
X43855Y16407D01*
X43872Y16412D01*
X43890Y16417D01*
X43911Y16420D01*
X43956Y16428D01*
X44007Y16433D01*
X44062Y16435D01*
X44063D01*
X44067D01*
X44075D01*
X44083D01*
X44094Y16433D01*
D02*
G37*
G36*
X45910Y16084D02*
Y15477D01*
X45912D01*
X45917D01*
X45923Y15479D01*
X45933D01*
X45944Y15480D01*
X45957Y15484D01*
X45986Y15488D01*
X46018Y15498D01*
X46054Y15511D01*
X46086Y15529D01*
X46116Y15552D01*
Y15553D01*
X46119Y15555D01*
X46127Y15564D01*
X46138Y15579D01*
X46149Y15598D01*
X46162Y15624D01*
X46174Y15653D01*
X46182Y15686D01*
X46183Y15704D01*
X46185Y15723D01*
Y15736D01*
X46183Y15751D01*
X46180Y15768D01*
X46175Y15788D01*
X46169Y15810D01*
X46159Y15831D01*
X46146Y15852D01*
X46145Y15854D01*
X46138Y15862D01*
X46128Y15872D01*
X46116Y15883D01*
X46098Y15896D01*
X46075Y15911D01*
X46049Y15925D01*
X46018Y15938D01*
X46036Y16081D01*
X46038D01*
X46041Y16079D01*
X46048Y16077D01*
X46057Y16074D01*
X46067Y16069D01*
X46080Y16064D01*
X46107Y16052D01*
X46138Y16035D01*
X46171Y16013D01*
X46201Y15987D01*
X46230Y15954D01*
Y15953D01*
X46234Y15950D01*
X46237Y15945D01*
X46242Y15938D01*
X46247Y15929D01*
X46251Y15919D01*
X46258Y15906D01*
X46264Y15891D01*
X46271Y15875D01*
X46277Y15859D01*
X46287Y15819D01*
X46295Y15773D01*
X46298Y15723D01*
Y15705D01*
X46297Y15694D01*
X46295Y15679D01*
X46292Y15662D01*
X46289Y15642D01*
X46285Y15621D01*
X46272Y15576D01*
X46263Y15552D01*
X46253Y15529D01*
X46240Y15505D01*
X46226Y15482D01*
X46209Y15461D01*
X46190Y15440D01*
X46188Y15438D01*
X46185Y15435D01*
X46179Y15430D01*
X46169Y15424D01*
X46158Y15416D01*
X46145Y15408D01*
X46128Y15398D01*
X46111Y15388D01*
X46090Y15378D01*
X46067Y15369D01*
X46041Y15361D01*
X46014Y15353D01*
X45984Y15346D01*
X45952Y15341D01*
X45918Y15338D01*
X45883Y15336D01*
X45881D01*
X45873D01*
X45863D01*
X45849Y15338D01*
X45831Y15340D01*
X45811Y15341D01*
X45789Y15344D01*
X45766Y15349D01*
X45714Y15362D01*
X45688Y15370D01*
X45661Y15380D01*
X45635Y15393D01*
X45611Y15408D01*
X45586Y15424D01*
X45564Y15442D01*
X45562Y15443D01*
X45559Y15446D01*
X45554Y15453D01*
X45546Y15461D01*
X45538Y15471D01*
X45528Y15484D01*
X45517Y15498D01*
X45507Y15516D01*
X45496Y15534D01*
X45486Y15555D01*
X45476Y15577D01*
X45468Y15602D01*
X45460Y15628D01*
X45455Y15655D01*
X45452Y15684D01*
X45451Y15715D01*
Y15731D01*
X45452Y15742D01*
X45454Y15755D01*
X45457Y15772D01*
X45460Y15789D01*
X45465Y15810D01*
X45470Y15830D01*
X45478Y15852D01*
X45486Y15874D01*
X45497Y15896D01*
X45510Y15919D01*
X45525Y15941D01*
X45543Y15963D01*
X45562Y15982D01*
X45564Y15984D01*
X45567Y15987D01*
X45573Y15992D01*
X45583Y15998D01*
X45595Y16006D01*
X45607Y16014D01*
X45624Y16024D01*
X45643Y16034D01*
X45664Y16043D01*
X45687Y16053D01*
X45713Y16061D01*
X45740Y16069D01*
X45771Y16076D01*
X45803Y16081D01*
X45837Y16084D01*
X45874Y16085D01*
X45876D01*
X45883D01*
X45894D01*
X45910Y16084D01*
D02*
G37*
G36*
X44626Y15194D02*
X44228Y14911D01*
X44227Y14909D01*
X44222Y14906D01*
X44215Y14903D01*
X44207Y14896D01*
X44185Y14882D01*
X44160Y14866D01*
X44162Y14864D01*
X44168Y14859D01*
X44178Y14853D01*
X44191Y14844D01*
X44217Y14827D01*
X44228Y14819D01*
X44238Y14812D01*
X44626Y14529D01*
Y14351D01*
X44047Y14783D01*
X43507Y14401D01*
Y14578D01*
X43795Y14781D01*
X43796D01*
X43798Y14785D01*
X43803Y14788D01*
X43809Y14793D01*
X43825Y14802D01*
X43845Y14817D01*
X43867Y14832D01*
X43890Y14846D01*
X43911Y14859D01*
X43931Y14870D01*
X43927Y14872D01*
X43921Y14877D01*
X43908Y14885D01*
X43892Y14896D01*
X43874Y14909D01*
X43851Y14925D01*
X43829Y14942D01*
X43804Y14961D01*
X43507Y15184D01*
Y15346D01*
X44039Y14958D01*
X44626Y15377D01*
Y15194D01*
D02*
G37*
G36*
X46281Y15081D02*
X45716Y14683D01*
X45892Y14500D01*
X46281D01*
Y14351D01*
X45161D01*
Y14500D01*
X45717D01*
X45161Y15053D01*
Y15255D01*
X45616Y14786D01*
X46281Y15276D01*
Y15081D01*
D02*
G37*
G36*
X42926Y26909D02*
X40983D01*
X42418Y26467D01*
Y26213D01*
X41048Y25780D01*
X42926D01*
Y25362D01*
X39926D01*
Y25790D01*
X41685Y26340D01*
X39926Y26909D01*
Y27318D01*
X42926D01*
Y26909D01*
D02*
G37*
G36*
X40359Y24215D02*
X39926D01*
Y25075D01*
X40359D01*
Y24215D01*
D02*
G37*
G36*
X42926D02*
X42493D01*
Y23980D01*
X42926D01*
Y23763D01*
X39926D01*
Y23980D01*
X40359D01*
Y24215D01*
X41219D01*
Y24972D01*
X41652D01*
Y24215D01*
X41219D01*
Y23980D01*
X41652D01*
Y24215D01*
X42493D01*
Y25075D01*
X42926D01*
Y24215D01*
D02*
G37*
G36*
X42310Y23368D02*
X42367Y23364D01*
X42428Y23350D01*
X42493Y23336D01*
X42559Y23312D01*
X42625Y23284D01*
X42630Y23279D01*
X42653Y23270D01*
X42682Y23246D01*
X42714Y23218D01*
X42757Y23180D01*
X42794Y23138D01*
X42837Y23086D01*
X42870Y23025D01*
X42874Y23016D01*
X42884Y22997D01*
X42898Y22959D01*
X42912Y22912D01*
X42926Y22851D01*
X42940Y22781D01*
X42950Y22701D01*
X42954Y22616D01*
Y22579D01*
X42950Y22532D01*
X42945Y22475D01*
X42935Y22414D01*
X42917Y22344D01*
X42898Y22273D01*
X42870Y22207D01*
X42865Y22198D01*
X42855Y22179D01*
X42832Y22151D01*
X42808Y22113D01*
X42771Y22071D01*
X42729Y22029D01*
X42682Y21986D01*
X42625Y21949D01*
X42616Y21944D01*
X42597Y21935D01*
X42559Y21920D01*
X42512Y21906D01*
X42456Y21888D01*
X42390Y21873D01*
X42315Y21864D01*
X42230Y21859D01*
X40622D01*
X40618D01*
X40613D01*
X40585D01*
X40542Y21864D01*
X40486Y21869D01*
X40425Y21883D01*
X40359Y21897D01*
X40293Y21920D01*
X40227Y21949D01*
X40218Y21953D01*
X40199Y21967D01*
X40171Y21986D01*
X40133Y22014D01*
X40096Y22052D01*
X40053Y22094D01*
X40011Y22146D01*
X39978Y22207D01*
X39973Y22217D01*
X39964Y22240D01*
X39950Y22273D01*
X39936Y22325D01*
X39922Y22386D01*
X39908Y22452D01*
X39898Y22532D01*
X39894Y22616D01*
Y22659D01*
X39898Y22701D01*
X39903Y22757D01*
X39912Y22823D01*
X39931Y22889D01*
X39950Y22959D01*
X39978Y23025D01*
X39983Y23035D01*
X39992Y23053D01*
X40016Y23082D01*
X40039Y23119D01*
X40077Y23162D01*
X40119Y23204D01*
X40171Y23246D01*
X40227Y23284D01*
X40237Y23289D01*
X40256Y23298D01*
X40293Y23312D01*
X40340Y23331D01*
X40397Y23345D01*
X40462Y23359D01*
X40538Y23368D01*
X40622Y23373D01*
X42230D01*
X42235D01*
X42240D01*
X42268D01*
X42310Y23368D01*
D02*
G37*
G36*
X41205Y21257D02*
X40782D01*
Y20811D01*
X40161D01*
Y21257D01*
X40782D01*
Y21554D01*
X41205D01*
Y21257D01*
D02*
G37*
G36*
X42935Y21314D02*
X42931Y21295D01*
X42926Y21248D01*
X42917Y21187D01*
X42902Y21121D01*
X42874Y21055D01*
X42841Y20990D01*
X42794Y20938D01*
X42790Y20933D01*
X42766Y20919D01*
X42733Y20895D01*
X42686Y20877D01*
X42630Y20853D01*
X42555Y20830D01*
X42470Y20816D01*
X42371Y20811D01*
X41205D01*
Y20604D01*
X40782D01*
Y20811D01*
X41205D01*
Y21257D01*
X42329D01*
X42334D01*
X42343D01*
X42357D01*
X42376Y21262D01*
X42418Y21272D01*
X42456Y21295D01*
X42465Y21305D01*
X42479Y21323D01*
X42493Y21356D01*
X42503Y21403D01*
Y21554D01*
X42935D01*
Y21314D01*
D02*
G37*
G36*
X42390Y20458D02*
X42437Y20454D01*
X42489Y20444D01*
X42545Y20425D01*
X42606Y20407D01*
X42663Y20378D01*
X42667Y20374D01*
X42686Y20364D01*
X42710Y20345D01*
X42743Y20322D01*
X42776Y20289D01*
X42813Y20247D01*
X42846Y20200D01*
X42879Y20148D01*
X42884Y20143D01*
X42888Y20124D01*
X42902Y20092D01*
X42917Y20049D01*
X42931Y19997D01*
X42940Y19941D01*
X42950Y19875D01*
X42954Y19800D01*
Y19767D01*
X42950Y19729D01*
X42945Y19682D01*
X42935Y19631D01*
X42921Y19570D01*
X42902Y19509D01*
X42879Y19452D01*
X42874Y19447D01*
X42865Y19429D01*
X42846Y19400D01*
X42823Y19367D01*
X42790Y19330D01*
X42752Y19292D01*
X42705Y19255D01*
X42653Y19222D01*
X42649Y19217D01*
X42625Y19208D01*
X42597Y19198D01*
X42555Y19184D01*
X42503Y19165D01*
X42446Y19156D01*
X42381Y19147D01*
X42310Y19142D01*
X42282D01*
Y19574D01*
X42305D01*
X42310D01*
X42324D01*
X42343Y19579D01*
X42371Y19584D01*
X42432Y19603D01*
X42461Y19617D01*
X42489Y19635D01*
X42493Y19640D01*
X42498Y19645D01*
X42508Y19659D01*
X42522Y19678D01*
X42536Y19701D01*
X42545Y19729D01*
X42550Y19762D01*
X42555Y19800D01*
Y19819D01*
X42550Y19838D01*
X42545Y19861D01*
X42526Y19918D01*
X42512Y19946D01*
X42493Y19969D01*
X42489Y19974D01*
X42479Y19979D01*
X42465Y19988D01*
X42446Y20002D01*
X42423Y20012D01*
X42390Y20021D01*
X42357Y20026D01*
X42319Y20030D01*
X42315D01*
X42305D01*
X42291D01*
X42277Y20026D01*
X42235Y20012D01*
X42193Y19988D01*
X42188D01*
X42183Y19983D01*
X42164Y19960D01*
X42136Y19932D01*
X42113Y19889D01*
Y19885D01*
X42108Y19880D01*
X42099Y19866D01*
X42089Y19847D01*
X42080Y19824D01*
X42066Y19795D01*
X42052Y19758D01*
X42037Y19720D01*
X42033Y19715D01*
X42028Y19697D01*
X42023Y19687D01*
X42019Y19668D01*
X42014Y19664D01*
Y19654D01*
X42009Y19650D01*
Y19645D01*
X42005Y19640D01*
X42000Y19621D01*
X41986Y19598D01*
X41972Y19565D01*
X41953Y19527D01*
X41934Y19485D01*
X41887Y19405D01*
X41882Y19400D01*
X41873Y19391D01*
X41859Y19372D01*
X41835Y19349D01*
X41807Y19320D01*
X41774Y19292D01*
X41737Y19264D01*
X41694Y19236D01*
X41689Y19231D01*
X41671Y19226D01*
X41642Y19217D01*
X41605Y19203D01*
X41563Y19189D01*
X41506Y19179D01*
X41445Y19175D01*
X41379Y19170D01*
X41370D01*
X41346D01*
X41313Y19175D01*
X41266Y19179D01*
X41215Y19189D01*
X41158Y19203D01*
X41102Y19222D01*
X41045Y19245D01*
X41041Y19250D01*
X41022Y19259D01*
X40994Y19278D01*
X40961Y19302D01*
X40928Y19330D01*
X40890Y19367D01*
X40857Y19410D01*
X40824Y19457D01*
X40820Y19462D01*
X40810Y19480D01*
X40801Y19513D01*
X40782Y19551D01*
X40768Y19598D01*
X40759Y19654D01*
X40749Y19720D01*
X40744Y19786D01*
Y19819D01*
X40749Y19852D01*
X40754Y19899D01*
X40763Y19946D01*
X40777Y20002D01*
X40796Y20059D01*
X40820Y20110D01*
X40824Y20115D01*
X40834Y20134D01*
X40853Y20157D01*
X40876Y20190D01*
X40904Y20223D01*
X40942Y20261D01*
X40984Y20294D01*
X41036Y20327D01*
X41041Y20331D01*
X41059Y20341D01*
X41088Y20350D01*
X41125Y20364D01*
X41177Y20378D01*
X41229Y20392D01*
X41295Y20397D01*
X41360Y20402D01*
X41384D01*
X41389Y19969D01*
X41360D01*
X41356D01*
X41342D01*
X41327Y19965D01*
X41304D01*
X41252Y19946D01*
X41229Y19936D01*
X41205Y19918D01*
X41201D01*
X41196Y19908D01*
X41177Y19885D01*
X41158Y19842D01*
X41149Y19814D01*
Y19772D01*
X41154Y19758D01*
X41158Y19739D01*
X41172Y19692D01*
X41191Y19668D01*
X41210Y19650D01*
X41215D01*
X41219Y19640D01*
X41233Y19635D01*
X41252Y19626D01*
X41276Y19617D01*
X41304Y19612D01*
X41374Y19603D01*
X41379D01*
X41389D01*
X41403D01*
X41422Y19607D01*
X41469Y19617D01*
X41516Y19640D01*
X41525Y19650D01*
X41544Y19668D01*
X41572Y19701D01*
X41600Y19744D01*
Y19748D01*
X41605Y19758D01*
X41614Y19772D01*
X41619Y19791D01*
X41628Y19814D01*
X41642Y19842D01*
X41666Y19913D01*
Y19918D01*
X41671Y19922D01*
Y19936D01*
X41675D01*
Y19946D01*
X41680Y19955D01*
X41685Y19974D01*
X41694Y20002D01*
X41713Y20040D01*
X41727Y20082D01*
X41751Y20124D01*
X41769Y20167D01*
X41793Y20209D01*
X41798Y20214D01*
X41802Y20228D01*
X41821Y20247D01*
X41840Y20270D01*
X41863Y20298D01*
X41896Y20331D01*
X41934Y20360D01*
X41981Y20388D01*
X41986Y20392D01*
X42005Y20402D01*
X42033Y20411D01*
X42070Y20425D01*
X42117Y20439D01*
X42178Y20454D01*
X42244Y20458D01*
X42319Y20463D01*
X42329D01*
X42352D01*
X42390Y20458D01*
D02*
G37*
G36*
X42926Y18371D02*
X42663D01*
X42691Y18357D01*
X42785Y18310D01*
X42827Y18277D01*
X42865Y18244D01*
X42870Y18239D01*
X42879Y18225D01*
X42893Y18206D01*
X42907Y18178D01*
X42926Y18140D01*
X42940Y18098D01*
X42950Y18046D01*
X42954Y17995D01*
Y17985D01*
X42950Y17957D01*
X42945Y17915D01*
X42935Y17863D01*
X42917Y17807D01*
X42893Y17745D01*
X42855Y17689D01*
X42808Y17642D01*
X42804Y17637D01*
X42780Y17623D01*
X42747Y17604D01*
X42700Y17586D01*
X42634Y17567D01*
X42559Y17548D01*
X42470Y17534D01*
X42367Y17529D01*
X40782D01*
Y17976D01*
X42362D01*
X42367D01*
X42376D01*
X42395Y17981D01*
X42418D01*
X42465Y17995D01*
X42512Y18023D01*
Y18028D01*
X42522Y18032D01*
X42526Y18046D01*
X42536Y18060D01*
X42550Y18107D01*
X42559Y18173D01*
Y18187D01*
X42555Y18206D01*
Y18230D01*
X42536Y18277D01*
X42526Y18300D01*
X42508Y18319D01*
X42503Y18324D01*
X42498Y18328D01*
X42484Y18338D01*
X42470Y18347D01*
X42446Y18357D01*
X42418Y18361D01*
X42390Y18371D01*
X42663D01*
X42653Y18375D01*
X42620Y18390D01*
X42597Y18394D01*
X42587Y18399D01*
X42352Y18371D01*
X40782D01*
Y18817D01*
X42926D01*
Y18371D01*
D02*
G37*
G36*
Y16659D02*
X42719D01*
X42747Y16650D01*
X42752D01*
X42766Y16641D01*
X42785Y16631D01*
X42804Y16617D01*
X42855Y16570D01*
X42879Y16542D01*
X42902Y16509D01*
Y16504D01*
X42912Y16490D01*
X42917Y16471D01*
X42926Y16448D01*
X42935Y16415D01*
X42945Y16373D01*
X42950Y16330D01*
X42954Y16283D01*
Y16260D01*
X42950Y16241D01*
X42945Y16194D01*
X42935Y16142D01*
X42917Y16076D01*
X42888Y16015D01*
X42855Y15954D01*
X42804Y15898D01*
X42794Y15893D01*
X42776Y15879D01*
X42738Y15855D01*
X42691Y15837D01*
X42625Y15813D01*
X42550Y15790D01*
X42456Y15776D01*
X42352Y15771D01*
X42348D01*
X42338D01*
X42319D01*
X42296Y15776D01*
X42263D01*
X42230Y15780D01*
X42155Y15794D01*
X42066Y15813D01*
X41981Y15846D01*
X41896Y15888D01*
X41821Y15945D01*
X41812Y15954D01*
X41793Y15978D01*
X41765Y16020D01*
X41727Y16076D01*
X41694Y16147D01*
X41666Y16236D01*
X41647Y16340D01*
X41638Y16457D01*
Y16659D01*
X42019D01*
Y16702D01*
X41638Y16674D01*
Y16659D01*
X41374D01*
X41370D01*
X41356D01*
X41337Y16655D01*
X41313D01*
X41257Y16636D01*
X41233Y16622D01*
X41210Y16603D01*
X41205Y16598D01*
X41201Y16594D01*
X41191Y16579D01*
X41177Y16561D01*
X41168Y16537D01*
X41158Y16514D01*
X41154Y16481D01*
X41149Y16443D01*
Y16429D01*
X41154Y16410D01*
X41158Y16391D01*
X41172Y16344D01*
X41191Y16321D01*
X41210Y16302D01*
X41215D01*
X41219Y16293D01*
X41233Y16288D01*
X41252Y16279D01*
X41276Y16269D01*
X41304Y16260D01*
X41337Y16255D01*
X41374Y16250D01*
Y15813D01*
X41370D01*
X41360D01*
X41346D01*
X41323Y15818D01*
X41271Y15823D01*
X41205Y15832D01*
X41130Y15855D01*
X41050Y15884D01*
X40975Y15921D01*
X40909Y15978D01*
X40900Y15987D01*
X40881Y16011D01*
X40857Y16048D01*
X40824Y16100D01*
X40796Y16170D01*
X40768Y16250D01*
X40749Y16344D01*
X40744Y16453D01*
Y16485D01*
X40749Y16523D01*
X40754Y16570D01*
X40763Y16626D01*
X40777Y16683D01*
X40796Y16739D01*
X40820Y16796D01*
X40824Y16800D01*
X40834Y16819D01*
X40853Y16847D01*
X40876Y16880D01*
X40904Y16913D01*
X40942Y16951D01*
X40984Y16984D01*
X41036Y17017D01*
X41041Y17021D01*
X41059Y17031D01*
X41092Y17040D01*
X41130Y17059D01*
X41182Y17073D01*
X41238Y17083D01*
X41304Y17092D01*
X41374Y17097D01*
X42926D01*
Y16659D01*
D02*
G37*
G36*
X40354Y14671D02*
X39926D01*
Y15536D01*
X40354D01*
Y14671D01*
D02*
G37*
G36*
X41680D02*
X41248D01*
Y14436D01*
X41680D01*
Y14671D01*
X42926D01*
Y14219D01*
X39926D01*
Y14436D01*
X40354D01*
Y14671D01*
X41248D01*
Y15432D01*
X41680D01*
Y14671D01*
D02*
G37*
%LPC*%
G36*
X44125Y29529D02*
X44075D01*
X44073D01*
X44071D01*
X44063D01*
X44049D01*
X44029Y29528D01*
X44008D01*
X43982Y29526D01*
X43955Y29524D01*
X43924Y29521D01*
X43863Y29513D01*
X43832Y29508D01*
X43803Y29502D01*
X43775Y29495D01*
X43749Y29486D01*
X43727Y29476D01*
X43707Y29465D01*
X43706D01*
X43704Y29461D01*
X43699Y29458D01*
X43693Y29453D01*
X43678Y29439D01*
X43660Y29421D01*
X43644Y29397D01*
X43630Y29369D01*
X43623Y29355D01*
X43618Y29338D01*
X43617Y29321D01*
X43615Y29303D01*
Y29293D01*
X43617Y29287D01*
X43620Y29269D01*
X43625Y29248D01*
X43635Y29223D01*
X43649Y29198D01*
X43659Y29185D01*
X43668Y29172D01*
X43681Y29160D01*
X43696Y29149D01*
X43698D01*
X43701Y29146D01*
X43707Y29143D01*
X43715Y29138D01*
X43728Y29133D01*
X43743Y29126D01*
X43761Y29122D01*
X43782Y29115D01*
X43806Y29109D01*
X43834Y29102D01*
X43864Y29096D01*
X43898Y29091D01*
X43937Y29086D01*
X43979Y29083D01*
X44024Y29081D01*
X44075Y29079D01*
X44078D01*
X44086D01*
X44100D01*
X44120Y29081D01*
X44141D01*
X44167Y29083D01*
X44194Y29084D01*
X44223Y29088D01*
X44287Y29096D01*
X44317Y29101D01*
X44346Y29107D01*
X44374Y29113D01*
X44400Y29123D01*
X44422Y29133D01*
X44442Y29144D01*
X44444D01*
X44445Y29147D01*
X44456Y29156D01*
X44471Y29170D01*
X44487Y29188D01*
X44503Y29212D01*
X44518Y29240D01*
X44529Y29270D01*
X44531Y29287D01*
X44532Y29304D01*
Y29314D01*
X44531Y29321D01*
X44528Y29337D01*
X44521Y29359D01*
X44510Y29384D01*
X44494Y29411D01*
X44484Y29424D01*
X44471Y29437D01*
X44458Y29450D01*
X44442Y29463D01*
X44440D01*
X44437Y29466D01*
X44432Y29469D01*
X44424Y29473D01*
X44413Y29479D01*
X44398Y29484D01*
X44382Y29490D01*
X44363Y29497D01*
X44338Y29502D01*
X44312Y29508D01*
X44282Y29515D01*
X44249Y29520D01*
X44211Y29523D01*
X44170Y29526D01*
X44125Y29529D01*
D02*
G37*
G36*
Y28224D02*
X44075D01*
X44073D01*
X44071D01*
X44063D01*
X44049D01*
X44029Y28222D01*
X44008D01*
X43982Y28220D01*
X43955Y28219D01*
X43924Y28215D01*
X43863Y28207D01*
X43832Y28203D01*
X43803Y28196D01*
X43775Y28190D01*
X43749Y28180D01*
X43727Y28170D01*
X43707Y28159D01*
X43706D01*
X43704Y28156D01*
X43699Y28152D01*
X43693Y28148D01*
X43678Y28133D01*
X43660Y28115D01*
X43644Y28091D01*
X43630Y28063D01*
X43623Y28049D01*
X43618Y28033D01*
X43617Y28015D01*
X43615Y27997D01*
Y27987D01*
X43617Y27981D01*
X43620Y27963D01*
X43625Y27942D01*
X43635Y27918D01*
X43649Y27892D01*
X43659Y27879D01*
X43668Y27866D01*
X43681Y27855D01*
X43696Y27843D01*
X43698D01*
X43701Y27840D01*
X43707Y27837D01*
X43715Y27832D01*
X43728Y27827D01*
X43743Y27821D01*
X43761Y27816D01*
X43782Y27809D01*
X43806Y27803D01*
X43834Y27796D01*
X43864Y27790D01*
X43898Y27785D01*
X43937Y27780D01*
X43979Y27777D01*
X44024Y27775D01*
X44075Y27774D01*
X44078D01*
X44086D01*
X44100D01*
X44120Y27775D01*
X44141D01*
X44167Y27777D01*
X44194Y27779D01*
X44223Y27782D01*
X44287Y27790D01*
X44317Y27795D01*
X44346Y27801D01*
X44374Y27808D01*
X44400Y27817D01*
X44422Y27827D01*
X44442Y27838D01*
X44444D01*
X44445Y27842D01*
X44456Y27850D01*
X44471Y27864D01*
X44487Y27882D01*
X44503Y27906D01*
X44518Y27934D01*
X44529Y27965D01*
X44531Y27981D01*
X44532Y27999D01*
Y28008D01*
X44531Y28015D01*
X44528Y28031D01*
X44521Y28054D01*
X44510Y28078D01*
X44494Y28105D01*
X44484Y28118D01*
X44471Y28131D01*
X44458Y28144D01*
X44442Y28157D01*
X44440D01*
X44437Y28160D01*
X44432Y28164D01*
X44424Y28167D01*
X44413Y28173D01*
X44398Y28178D01*
X44382Y28185D01*
X44363Y28191D01*
X44338Y28196D01*
X44312Y28203D01*
X44282Y28209D01*
X44249Y28214D01*
X44211Y28217D01*
X44170Y28220D01*
X44125Y28224D01*
D02*
G37*
G36*
X44143Y25358D02*
X44141D01*
X44138D01*
X44133Y25357D01*
X44126D01*
X44107Y25353D01*
X44086Y25348D01*
X44060Y25340D01*
X44036Y25332D01*
X44011Y25319D01*
X43990Y25305D01*
X43989D01*
X43987Y25301D01*
X43978Y25293D01*
X43965Y25279D01*
X43950Y25259D01*
X43935Y25235D01*
X43923Y25206D01*
X43913Y25172D01*
X43911Y25154D01*
X43910Y25135D01*
Y25125D01*
X43911Y25119D01*
X43913Y25101D01*
X43918Y25080D01*
X43926Y25054D01*
X43937Y25026D01*
X43953Y25001D01*
X43974Y24975D01*
X43978Y24971D01*
X43986Y24965D01*
X44000Y24954D01*
X44020Y24942D01*
X44042Y24929D01*
X44071Y24918D01*
X44105Y24908D01*
X44143Y24903D01*
Y25358D01*
D02*
G37*
G36*
X44243Y24059D02*
X44214D01*
X44212D01*
X44207D01*
X44199D01*
X44188Y24057D01*
X44175D01*
X44160Y24056D01*
X44126Y24051D01*
X44089Y24043D01*
X44052Y24031D01*
X44015Y24015D01*
X43997Y24005D01*
X43982Y23994D01*
X43981D01*
X43979Y23991D01*
X43969Y23983D01*
X43958Y23970D01*
X43944Y23952D01*
X43929Y23929D01*
X43916Y23904D01*
X43908Y23874D01*
X43906Y23858D01*
X43905Y23842D01*
Y23834D01*
X43906Y23828D01*
X43910Y23811D01*
X43914Y23790D01*
X43924Y23766D01*
X43939Y23740D01*
X43948Y23726D01*
X43960Y23713D01*
X43973Y23700D01*
X43987Y23687D01*
X43989D01*
X43990Y23684D01*
X43995Y23680D01*
X44002Y23677D01*
X44011Y23672D01*
X44021Y23666D01*
X44034Y23659D01*
X44047Y23654D01*
X44063Y23648D01*
X44081Y23641D01*
X44100Y23637D01*
X44122Y23630D01*
X44146Y23627D01*
X44170Y23624D01*
X44196Y23620D01*
X44225D01*
X44227D01*
X44232D01*
X44240D01*
X44251Y23622D01*
X44264D01*
X44278Y23624D01*
X44312Y23628D01*
X44351Y23637D01*
X44388Y23646D01*
X44426Y23662D01*
X44442Y23672D01*
X44456Y23684D01*
X44460Y23687D01*
X44468Y23695D01*
X44481Y23708D01*
X44494Y23726D01*
X44507Y23748D01*
X44520Y23774D01*
X44528Y23803D01*
X44529Y23819D01*
X44531Y23836D01*
Y23845D01*
X44529Y23852D01*
X44526Y23868D01*
X44521Y23891D01*
X44511Y23915D01*
X44499Y23941D01*
X44479Y23967D01*
X44468Y23980D01*
X44455Y23993D01*
X44453D01*
X44452Y23996D01*
X44447Y23999D01*
X44440Y24002D01*
X44432Y24009D01*
X44421Y24014D01*
X44410Y24020D01*
X44395Y24027D01*
X44380Y24031D01*
X44361Y24038D01*
X44342Y24044D01*
X44321Y24049D01*
X44296Y24052D01*
X44270Y24056D01*
X44243Y24059D01*
D02*
G37*
G36*
X44219Y23145D02*
Y23143D01*
X44220Y23141D01*
X44222Y23137D01*
X44223Y23130D01*
X44227Y23122D01*
X44230Y23112D01*
X44233Y23101D01*
X44236Y23088D01*
X44241Y23074D01*
X44244Y23056D01*
X44249Y23038D01*
X44254Y23017D01*
X44259Y22994D01*
X44264Y22972D01*
X44267Y22946D01*
X44272Y22918D01*
Y22915D01*
X44274Y22905D01*
X44277Y22889D01*
X44280Y22871D01*
X44283Y22852D01*
X44288Y22832D01*
X44293Y22815D01*
X44299Y22798D01*
Y22797D01*
X44303Y22792D01*
X44306Y22786D01*
X44311Y22779D01*
X44324Y22760D01*
X44343Y22743D01*
X44345D01*
X44348Y22740D01*
X44355Y22739D01*
X44363Y22735D01*
X44372Y22732D01*
X44382Y22729D01*
X44395Y22727D01*
X44408Y22726D01*
X44410D01*
X44418D01*
X44427Y22727D01*
X44440Y22731D01*
X44455Y22735D01*
X44469Y22743D01*
X44486Y22753D01*
X44500Y22766D01*
X44502Y22768D01*
X44505Y22774D01*
X44511Y22784D01*
X44518Y22797D01*
X44524Y22815D01*
X44531Y22836D01*
X44534Y22860D01*
X44536Y22889D01*
Y22902D01*
X44534Y22918D01*
X44531Y22936D01*
X44528Y22959D01*
X44521Y22981D01*
X44513Y23006D01*
X44502Y23030D01*
X44500Y23033D01*
X44495Y23040D01*
X44487Y23051D01*
X44476Y23064D01*
X44463Y23078D01*
X44447Y23095D01*
X44427Y23108D01*
X44406Y23120D01*
X44405Y23122D01*
X44398Y23124D01*
X44387Y23127D01*
X44372Y23132D01*
X44353Y23137D01*
X44330Y23140D01*
X44303Y23141D01*
X44270Y23143D01*
X44219Y23145D01*
D02*
G37*
G36*
X44261Y22282D02*
X44233D01*
X44232D01*
X44225D01*
X44217D01*
X44206Y22281D01*
X44193D01*
X44177Y22279D01*
X44159Y22277D01*
X44139Y22274D01*
X44100Y22266D01*
X44060Y22255D01*
X44021Y22239D01*
X44005Y22229D01*
X43989Y22218D01*
X43987D01*
X43986Y22214D01*
X43976Y22206D01*
X43963Y22192D01*
X43948Y22174D01*
X43934Y22151D01*
X43923Y22124D01*
X43913Y22093D01*
X43911Y22077D01*
X43910Y22059D01*
Y22051D01*
X43911Y22044D01*
X43913Y22027D01*
X43919Y22006D01*
X43927Y21981D01*
X43942Y21956D01*
X43960Y21930D01*
X43973Y21917D01*
X43986Y21905D01*
X43987D01*
X43989Y21902D01*
X43994Y21900D01*
X44000Y21896D01*
X44008Y21891D01*
X44018Y21886D01*
X44029Y21881D01*
X44042Y21875D01*
X44058Y21868D01*
X44076Y21863D01*
X44096Y21858D01*
X44117Y21854D01*
X44139Y21850D01*
X44165Y21847D01*
X44193Y21844D01*
X44222D01*
X44223D01*
X44228D01*
X44236D01*
X44248Y21845D01*
X44261D01*
X44275Y21847D01*
X44309Y21852D01*
X44346Y21860D01*
X44385Y21871D01*
X44422Y21888D01*
X44439Y21897D01*
X44455Y21909D01*
Y21910D01*
X44458Y21912D01*
X44466Y21920D01*
X44479Y21934D01*
X44492Y21952D01*
X44507Y21975D01*
X44520Y22002D01*
X44528Y22032D01*
X44529Y22048D01*
X44531Y22064D01*
Y22072D01*
X44529Y22078D01*
X44528Y22096D01*
X44521Y22117D01*
X44513Y22142D01*
X44500Y22167D01*
X44482Y22193D01*
X44471Y22206D01*
X44458Y22218D01*
X44456D01*
X44455Y22221D01*
X44450Y22224D01*
X44444Y22227D01*
X44435Y22232D01*
X44427Y22239D01*
X44414Y22244D01*
X44401Y22250D01*
X44387Y22256D01*
X44371Y22261D01*
X44351Y22268D01*
X44332Y22273D01*
X44309Y22276D01*
X44287Y22279D01*
X44261Y22282D01*
D02*
G37*
G36*
X45797Y22030D02*
X45795D01*
X45792D01*
X45787Y22028D01*
X45781D01*
X45761Y22025D01*
X45740Y22020D01*
X45714Y22012D01*
X45690Y22004D01*
X45666Y21991D01*
X45645Y21977D01*
X45643D01*
X45641Y21973D01*
X45632Y21965D01*
X45619Y21951D01*
X45604Y21931D01*
X45590Y21907D01*
X45577Y21878D01*
X45567Y21844D01*
X45565Y21826D01*
X45564Y21807D01*
Y21797D01*
X45565Y21790D01*
X45567Y21773D01*
X45572Y21752D01*
X45580Y21726D01*
X45591Y21698D01*
X45607Y21672D01*
X45629Y21646D01*
X45632Y21643D01*
X45640Y21637D01*
X45654Y21625D01*
X45674Y21614D01*
X45696Y21601D01*
X45726Y21590D01*
X45760Y21580D01*
X45797Y21575D01*
Y22030D01*
D02*
G37*
G36*
X44165Y21307D02*
X43858Y21190D01*
X43856D01*
X43851Y21189D01*
X43843Y21185D01*
X43834Y21182D01*
X43822Y21177D01*
X43808Y21172D01*
X43791Y21168D01*
X43775Y21161D01*
X43738Y21148D01*
X43699Y21135D01*
X43660Y21122D01*
X43623Y21111D01*
X43625D01*
X43628Y21109D01*
X43635D01*
X43641Y21106D01*
X43652Y21104D01*
X43664Y21101D01*
X43691Y21095D01*
X43723Y21087D01*
X43759Y21075D01*
X43798Y21064D01*
X43838Y21049D01*
X44165Y20928D01*
Y21307D01*
D02*
G37*
G36*
X45797Y20376D02*
X45795D01*
X45792D01*
X45787Y20375D01*
X45781D01*
X45761Y20372D01*
X45740Y20367D01*
X45714Y20359D01*
X45690Y20350D01*
X45666Y20338D01*
X45645Y20323D01*
X45643D01*
X45641Y20320D01*
X45632Y20312D01*
X45619Y20297D01*
X45604Y20278D01*
X45590Y20253D01*
X45577Y20224D01*
X45567Y20190D01*
X45565Y20172D01*
X45564Y20153D01*
Y20143D01*
X45565Y20137D01*
X45567Y20119D01*
X45572Y20098D01*
X45580Y20072D01*
X45591Y20045D01*
X45607Y20019D01*
X45629Y19993D01*
X45632Y19990D01*
X45640Y19983D01*
X45654Y19972D01*
X45674Y19961D01*
X45696Y19948D01*
X45726Y19936D01*
X45760Y19927D01*
X45797Y19922D01*
Y20376D01*
D02*
G37*
G36*
X44125Y19957D02*
X44075D01*
X44073D01*
X44071D01*
X44063D01*
X44049D01*
X44029Y19956D01*
X44008D01*
X43982Y19954D01*
X43955Y19952D01*
X43924Y19949D01*
X43863Y19941D01*
X43832Y19936D01*
X43803Y19930D01*
X43775Y19923D01*
X43749Y19914D01*
X43727Y19904D01*
X43707Y19893D01*
X43706D01*
X43704Y19889D01*
X43699Y19886D01*
X43693Y19881D01*
X43678Y19867D01*
X43660Y19849D01*
X43644Y19825D01*
X43630Y19797D01*
X43623Y19783D01*
X43618Y19766D01*
X43617Y19749D01*
X43615Y19731D01*
Y19721D01*
X43617Y19715D01*
X43620Y19697D01*
X43625Y19676D01*
X43635Y19652D01*
X43649Y19626D01*
X43659Y19613D01*
X43668Y19600D01*
X43681Y19588D01*
X43696Y19577D01*
X43698D01*
X43701Y19574D01*
X43707Y19571D01*
X43715Y19566D01*
X43728Y19561D01*
X43743Y19554D01*
X43761Y19550D01*
X43782Y19543D01*
X43806Y19537D01*
X43834Y19530D01*
X43864Y19524D01*
X43898Y19519D01*
X43937Y19514D01*
X43979Y19511D01*
X44024Y19509D01*
X44075Y19507D01*
X44078D01*
X44086D01*
X44100D01*
X44120Y19509D01*
X44141D01*
X44167Y19511D01*
X44194Y19512D01*
X44223Y19516D01*
X44287Y19524D01*
X44317Y19529D01*
X44346Y19535D01*
X44374Y19541D01*
X44400Y19551D01*
X44422Y19561D01*
X44442Y19572D01*
X44444D01*
X44445Y19575D01*
X44456Y19584D01*
X44471Y19598D01*
X44487Y19616D01*
X44503Y19640D01*
X44518Y19668D01*
X44529Y19698D01*
X44531Y19715D01*
X44532Y19732D01*
Y19742D01*
X44531Y19749D01*
X44528Y19765D01*
X44521Y19787D01*
X44510Y19812D01*
X44494Y19839D01*
X44484Y19852D01*
X44471Y19865D01*
X44458Y19878D01*
X44442Y19891D01*
X44440D01*
X44437Y19894D01*
X44432Y19897D01*
X44424Y19901D01*
X44413Y19907D01*
X44398Y19912D01*
X44382Y19918D01*
X44363Y19925D01*
X44338Y19930D01*
X44312Y19936D01*
X44282Y19943D01*
X44249Y19948D01*
X44211Y19951D01*
X44170Y19954D01*
X44125Y19957D01*
D02*
G37*
G36*
X44058Y16283D02*
X44057D01*
X44050D01*
X44042D01*
X44029Y16281D01*
X44015D01*
X43999Y16280D01*
X43979Y16278D01*
X43960Y16276D01*
X43916Y16268D01*
X43871Y16259D01*
X43829Y16244D01*
X43808Y16234D01*
X43790Y16225D01*
X43788D01*
X43785Y16221D01*
X43780Y16218D01*
X43774Y16215D01*
X43757Y16202D01*
X43738Y16186D01*
X43717Y16165D01*
X43696Y16140D01*
X43678Y16113D01*
X43664Y16084D01*
X43662Y16081D01*
X43660Y16073D01*
X43656Y16058D01*
X43651Y16037D01*
X43647Y16011D01*
X43643Y15979D01*
X43641Y15959D01*
Y15938D01*
X43639Y15917D01*
Y15658D01*
X44494D01*
Y15924D01*
X44492Y15935D01*
X44490Y15959D01*
X44489Y15987D01*
X44486Y16016D01*
X44481Y16045D01*
X44474Y16069D01*
X44473Y16073D01*
X44471Y16081D01*
X44466Y16092D01*
X44460Y16107D01*
X44450Y16123D01*
X44440Y16139D01*
X44429Y16155D01*
X44416Y16171D01*
X44413Y16173D01*
X44406Y16179D01*
X44395Y16189D01*
X44379Y16200D01*
X44358Y16213D01*
X44333Y16228D01*
X44306Y16241D01*
X44275Y16252D01*
X44274D01*
X44270Y16254D01*
X44266Y16255D01*
X44259Y16257D01*
X44251Y16259D01*
X44240Y16262D01*
X44228Y16265D01*
X44215Y16268D01*
X44183Y16273D01*
X44146Y16278D01*
X44104Y16281D01*
X44058Y16283D01*
D02*
G37*
G36*
X45797Y15940D02*
X45795D01*
X45792D01*
X45787Y15938D01*
X45781D01*
X45761Y15935D01*
X45740Y15930D01*
X45714Y15922D01*
X45690Y15914D01*
X45666Y15901D01*
X45645Y15886D01*
X45643D01*
X45641Y15883D01*
X45632Y15875D01*
X45619Y15861D01*
X45604Y15841D01*
X45590Y15817D01*
X45577Y15788D01*
X45567Y15754D01*
X45565Y15736D01*
X45564Y15717D01*
Y15707D01*
X45565Y15700D01*
X45567Y15683D01*
X45572Y15662D01*
X45580Y15636D01*
X45591Y15608D01*
X45607Y15582D01*
X45629Y15556D01*
X45632Y15553D01*
X45640Y15547D01*
X45654Y15535D01*
X45674Y15524D01*
X45696Y15511D01*
X45726Y15500D01*
X45760Y15490D01*
X45797Y15485D01*
Y15940D01*
D02*
G37*
G36*
X40876Y26942D02*
X40744Y26909D01*
X40983D01*
X40876Y26942D01*
D02*
G37*
G36*
X41048Y25780D02*
X40744D01*
X40914Y25738D01*
X41048Y25780D01*
D02*
G37*
G36*
X42202Y22917D02*
X40646D01*
X40641D01*
X40632D01*
X40613D01*
X40589Y22912D01*
X40538Y22903D01*
X40481Y22880D01*
X40477D01*
X40472Y22875D01*
X40444Y22856D01*
X40406Y22823D01*
X40378Y22776D01*
Y22771D01*
X40373Y22767D01*
X40364Y22753D01*
X40359Y22734D01*
X40345Y22682D01*
X40340Y22616D01*
Y22583D01*
X40345Y22560D01*
X40354Y22508D01*
X40378Y22452D01*
Y22447D01*
X40382Y22442D01*
X40401Y22414D01*
X40434Y22381D01*
X40481Y22348D01*
X40486D01*
X40495Y22344D01*
X40509Y22339D01*
X40528Y22334D01*
X40580Y22320D01*
X40646Y22315D01*
X42202D01*
X42207D01*
X42216D01*
X42235D01*
X42258Y22320D01*
X42315Y22329D01*
X42371Y22348D01*
X42376D01*
X42381Y22358D01*
X42409Y22376D01*
X42442Y22409D01*
X42475Y22452D01*
Y22456D01*
X42479Y22466D01*
X42484Y22480D01*
X42493Y22499D01*
X42508Y22550D01*
X42512Y22616D01*
Y22649D01*
X42508Y22673D01*
X42498Y22724D01*
X42475Y22776D01*
Y22781D01*
X42465Y22785D01*
X42446Y22814D01*
X42414Y22851D01*
X42371Y22880D01*
X42367D01*
X42357Y22884D01*
X42343Y22894D01*
X42324Y22898D01*
X42268Y22912D01*
X42202Y22917D01*
D02*
G37*
G36*
X42508Y16702D02*
X42489D01*
X42484D01*
X42291Y16659D01*
X42019D01*
Y16448D01*
X42023Y16424D01*
X42028Y16396D01*
X42037Y16363D01*
X42056Y16326D01*
X42075Y16293D01*
X42103Y16264D01*
X42108Y16260D01*
X42117Y16255D01*
X42141Y16246D01*
X42164Y16232D01*
X42202Y16217D01*
X42244Y16208D01*
X42296Y16203D01*
X42352Y16199D01*
X42357D01*
X42371D01*
X42390Y16203D01*
X42414D01*
X42465Y16222D01*
X42493Y16232D01*
X42517Y16250D01*
Y16255D01*
X42526Y16260D01*
X42531Y16274D01*
X42540Y16288D01*
X42550Y16311D01*
X42559Y16340D01*
X42564Y16368D01*
X42569Y16406D01*
Y16424D01*
X42564Y16448D01*
X42559Y16476D01*
X42540Y16537D01*
X42526Y16565D01*
X42503Y16594D01*
X42498Y16598D01*
X42489Y16603D01*
X42475Y16612D01*
X42451Y16626D01*
X42418Y16641D01*
X42385Y16650D01*
X42343Y16655D01*
X42291Y16659D01*
X42719D01*
X42663Y16678D01*
X42616Y16688D01*
X42573Y16692D01*
X42540Y16697D01*
X42508Y16702D01*
D02*
G37*
%LPD*%
D10*
X47137Y31941D02*
Y46016D01*
X37687Y31941D02*
X47137D01*
X37687D02*
Y52641D01*
X47137D01*
Y46016D02*
Y52641D01*
D11*
X46355Y31115D02*
Y31448D01*
Y31282D01*
X45355D01*
X45522Y31115D01*
X37973Y30480D02*
Y29972D01*
Y30226D01*
X39243D01*
X39497Y29972D01*
Y29718D01*
X39243Y29464D01*
X39497Y30988D02*
Y31496D01*
Y31242D01*
X37973D01*
X38227Y30988D01*
X34141Y49642D02*
Y50309D01*
Y49976D01*
X35141D01*
X34308Y51308D02*
X34141Y51142D01*
Y50809D01*
X34308Y50642D01*
X34975D01*
X35141Y50809D01*
Y51142D01*
X34975Y51308D01*
X34141Y51642D02*
X35141D01*
Y52308D01*
X34141Y52641D02*
X35141D01*
X34808D01*
X34141Y53308D01*
X34641Y52808D01*
X35141Y53308D01*
X32020Y45339D02*
Y46005D01*
Y45672D01*
X33020D01*
Y46339D02*
X32020D01*
Y46839D01*
X32187Y47005D01*
X32520D01*
X32687Y46839D01*
Y46339D01*
Y46672D02*
X33020Y47005D01*
Y47338D02*
X32354D01*
X32020Y47672D01*
X32354Y48005D01*
X33020D01*
X32520D01*
Y47338D01*
X32187Y49004D02*
X32020Y48838D01*
Y48505D01*
X32187Y48338D01*
X32853D01*
X33020Y48505D01*
Y48838D01*
X32853Y49004D01*
X32020Y50004D02*
Y49338D01*
X33020D01*
Y50004D01*
X32520Y49338D02*
Y49671D01*
X32187Y50337D02*
X32020Y50504D01*
Y50837D01*
X32187Y51004D01*
X32853D01*
X33020Y50837D01*
Y50504D01*
X32853Y50337D01*
X32187D01*
X26875Y45686D02*
Y46353D01*
Y46019D01*
X27874D01*
Y46686D02*
X26875D01*
Y47186D01*
X27041Y47352D01*
X27375D01*
X27541Y47186D01*
Y46686D01*
Y47019D02*
X27874Y47352D01*
Y47686D02*
X27208D01*
X26875Y48019D01*
X27208Y48352D01*
X27874D01*
X27375D01*
Y47686D01*
X27041Y49352D02*
X26875Y49185D01*
Y48852D01*
X27041Y48685D01*
X27708D01*
X27874Y48852D01*
Y49185D01*
X27708Y49352D01*
X26875Y50351D02*
Y49685D01*
X27874D01*
Y50351D01*
X27375Y49685D02*
Y50018D01*
X27874Y50685D02*
Y51018D01*
Y50851D01*
X26875D01*
X27041Y50685D01*
X31552Y26320D02*
X31385Y26154D01*
Y25821D01*
X31552Y25654D01*
X32218D01*
X32385Y25821D01*
Y26154D01*
X32218Y26320D01*
X31885D01*
Y25987D01*
X32385Y26654D02*
X31385D01*
X32385Y27320D01*
X31385D01*
Y27653D02*
X32385D01*
Y28153D01*
X32218Y28320D01*
X31552D01*
X31385Y28153D01*
Y27653D01*
X36124Y33813D02*
X35957Y33647D01*
Y33314D01*
X36124Y33147D01*
X36291D01*
X36457Y33314D01*
Y33647D01*
X36624Y33813D01*
X36790D01*
X36957Y33647D01*
Y33314D01*
X36790Y33147D01*
X35957Y34147D02*
X36957D01*
X36624Y34480D01*
X36957Y34813D01*
X35957D01*
Y35146D02*
X36957D01*
Y35646D01*
X36790Y35813D01*
X36124D01*
X35957Y35646D01*
Y35146D01*
Y36146D02*
Y36479D01*
Y36313D01*
X36957D01*
Y36146D01*
Y36479D01*
X35957Y37479D02*
Y37146D01*
X36124Y36979D01*
X36790D01*
X36957Y37146D01*
Y37479D01*
X36790Y37646D01*
X36124D01*
X35957Y37479D01*
X37333Y46868D02*
X36667D01*
Y47368D01*
X36833Y47535D01*
X37333D01*
Y47868D02*
X36333D01*
Y48368D01*
X36500Y48534D01*
X36833D01*
X37000Y48368D01*
Y47868D01*
Y48201D02*
X37333Y48534D01*
X36500Y49534D02*
X36333Y49367D01*
Y49034D01*
X36500Y48867D01*
X36667D01*
X36833Y49034D01*
Y49367D01*
X37000Y49534D01*
X37166D01*
X37333Y49367D01*
Y49034D01*
X37166Y48867D01*
X36333Y49867D02*
Y50534D01*
Y50200D01*
X37333D01*
X33711Y44862D02*
X33544Y44696D01*
Y44363D01*
X33711Y44196D01*
X34377D01*
X34544Y44363D01*
Y44696D01*
X34377Y44862D01*
X33544Y45196D02*
X34544D01*
Y45862D01*
X33544Y46195D02*
X34544D01*
X34211D01*
X33544Y46862D01*
X34044Y46362D01*
X34544Y46862D01*
X35743Y40925D02*
X35576Y40759D01*
Y40426D01*
X35743Y40259D01*
X35910D01*
X36076Y40426D01*
Y40759D01*
X36243Y40925D01*
X36409D01*
X36576Y40759D01*
Y40426D01*
X36409Y40259D01*
X35576Y41259D02*
X36576D01*
X36243Y41592D01*
X36576Y41925D01*
X35576D01*
Y42758D02*
Y42425D01*
X35743Y42258D01*
X36409D01*
X36576Y42425D01*
Y42758D01*
X36409Y42925D01*
X35743D01*
X35576Y42758D01*
X31171Y31877D02*
X31004Y32044D01*
Y32377D01*
X31171Y32543D01*
X31338D01*
X31504Y32377D01*
Y32210D01*
Y32377D01*
X31671Y32543D01*
X31837D01*
X32004Y32377D01*
Y32044D01*
X31837Y31877D01*
X31004Y32877D02*
X31671D01*
X32004Y33210D01*
X31671Y33543D01*
X31004D01*
X31171Y33876D02*
X31004Y34043D01*
Y34376D01*
X31171Y34543D01*
X31338D01*
X31504Y34376D01*
Y34210D01*
Y34376D01*
X31671Y34543D01*
X31837D01*
X32004Y34376D01*
Y34043D01*
X31837Y33876D01*
M02*
