G04*
G04 #@! TF.GenerationSoftware,Altium Limited,Altium Designer,23.0.1 (38)*
G04*
G04 Layer_Physical_Order=2*
G04 Layer_Color=16711680*
%FSLAX43Y43*%
%MOMM*%
G71*
G04*
G04 #@! TF.SameCoordinates,F4D5CC03-99AA-4306-8ABA-C9368C199380*
G04*
G04*
G04 #@! TF.FilePolarity,Positive*
G04*
G01*
G75*
%ADD11C,0.254*%
%ADD12C,1.000*%
%ADD16C,1.500*%
%ADD17C,0.600*%
%ADD18C,0.460*%
G36*
X26670Y53739D02*
X45879Y53739D01*
X45964Y53739D01*
X46130Y53706D01*
X46287Y53641D01*
X46428Y53546D01*
X46548Y53426D01*
X46643Y53285D01*
X46708Y53128D01*
X46741Y52962D01*
X46741Y52877D01*
Y14224D01*
X46741Y14139D01*
X46708Y13972D01*
X46643Y13816D01*
X46548Y13674D01*
X46428Y13554D01*
X46287Y13460D01*
X46130Y13395D01*
X45964Y13362D01*
X45879Y13362D01*
X26585D01*
X26418Y13395D01*
X26262Y13460D01*
X26120Y13554D01*
X26000Y13674D01*
X25906Y13816D01*
X25841Y13973D01*
X25808Y14139D01*
Y14224D01*
X25808Y52877D01*
Y52962D01*
X25841Y53128D01*
X25906Y53285D01*
X26000Y53426D01*
X26120Y53546D01*
X26262Y53641D01*
X26419Y53706D01*
X26585Y53739D01*
X26670Y53739D01*
D02*
G37*
%LPC*%
G36*
X27782Y51030D02*
X27590D01*
X27412Y50956D01*
X27276Y50820D01*
X27202Y50642D01*
Y50450D01*
X27208Y50436D01*
X27097Y50343D01*
X27061Y50326D01*
X26893Y50395D01*
X26701D01*
X26523Y50321D01*
X26387Y50185D01*
X26313Y50007D01*
Y49815D01*
X26387Y49637D01*
X26409Y49615D01*
Y45466D01*
X26438Y45318D01*
X26522Y45192D01*
X28524Y43190D01*
X28529Y43184D01*
X28538Y43168D01*
X28547Y43148D01*
X28555Y43125D01*
X28563Y43096D01*
X28570Y43063D01*
X28574Y43025D01*
X28577Y42982D01*
X28578Y42928D01*
X28583Y42905D01*
Y42827D01*
X28634Y42635D01*
X28734Y42463D01*
X28784Y42413D01*
X28856Y42291D01*
X28784Y42170D01*
X28734Y42119D01*
X28634Y41947D01*
X28583Y41756D01*
Y41557D01*
X28634Y41365D01*
X28734Y41193D01*
X28784Y41143D01*
X28856Y41021D01*
X28784Y40900D01*
X28734Y40849D01*
X28634Y40677D01*
X28583Y40486D01*
Y40287D01*
X28634Y40095D01*
X28734Y39923D01*
X28784Y39873D01*
X28856Y39751D01*
X28784Y39630D01*
X28734Y39579D01*
X28634Y39407D01*
X28583Y39216D01*
Y39017D01*
X28634Y38825D01*
X28734Y38653D01*
X28784Y38603D01*
X28856Y38481D01*
X28784Y38360D01*
X28734Y38309D01*
X28634Y38137D01*
X28583Y37946D01*
Y37747D01*
X28634Y37555D01*
X28734Y37383D01*
X28784Y37333D01*
X28856Y37211D01*
X28784Y37090D01*
X28734Y37039D01*
X28634Y36867D01*
X28583Y36676D01*
Y36477D01*
X28634Y36285D01*
X28734Y36113D01*
X28874Y35973D01*
X29046Y35874D01*
X29238Y35822D01*
X29436D01*
X29628Y35874D01*
X29800Y35973D01*
X29851Y36024D01*
X29972Y36095D01*
X30093Y36024D01*
X30144Y35973D01*
X30316Y35874D01*
X30508Y35822D01*
X30706D01*
X30898Y35874D01*
X31070Y35973D01*
X31210Y36113D01*
X31310Y36285D01*
X31361Y36477D01*
Y36676D01*
X31310Y36867D01*
X31210Y37039D01*
X31160Y37090D01*
X31089Y37211D01*
X31160Y37333D01*
X31210Y37383D01*
X31310Y37555D01*
X31361Y37747D01*
Y37946D01*
X31310Y38137D01*
X31210Y38309D01*
X31160Y38360D01*
X31089Y38481D01*
X31160Y38603D01*
X31210Y38653D01*
X31310Y38825D01*
X31361Y39017D01*
Y39216D01*
X31310Y39407D01*
X31210Y39579D01*
X31160Y39630D01*
X31089Y39751D01*
X31160Y39873D01*
X31210Y39923D01*
X31310Y40095D01*
X31354Y40259D01*
X30607D01*
Y40513D01*
X31354D01*
X31310Y40677D01*
X31210Y40849D01*
X31160Y40900D01*
X31089Y41021D01*
X31160Y41143D01*
X31210Y41193D01*
X31310Y41365D01*
X31354Y41529D01*
X30607D01*
Y41783D01*
X31354D01*
X31310Y41947D01*
X31210Y42119D01*
X31160Y42170D01*
X31089Y42291D01*
X31160Y42413D01*
X31210Y42463D01*
X31310Y42635D01*
X31354Y42799D01*
X30607D01*
Y43053D01*
X31354D01*
X31310Y43217D01*
X31210Y43389D01*
X31160Y43440D01*
X31089Y43561D01*
X31160Y43683D01*
X31210Y43733D01*
X31310Y43905D01*
X31361Y44097D01*
Y44296D01*
X31310Y44487D01*
X31210Y44659D01*
X31160Y44710D01*
X31089Y44831D01*
X31160Y44953D01*
X31210Y45003D01*
X31310Y45175D01*
X31354Y45339D01*
X30607D01*
Y45593D01*
X31354D01*
X31310Y45757D01*
X31210Y45929D01*
X31160Y45980D01*
X31089Y46101D01*
X31160Y46223D01*
X31210Y46273D01*
X31310Y46445D01*
X31361Y46637D01*
Y46836D01*
X31310Y47027D01*
X31210Y47199D01*
X31160Y47250D01*
X31089Y47371D01*
X31160Y47493D01*
X31210Y47543D01*
X31310Y47715D01*
X31354Y47879D01*
X30607D01*
Y48006D01*
X30480D01*
Y48753D01*
X30316Y48709D01*
X30144Y48610D01*
X30093Y48559D01*
X29972Y48488D01*
X29851Y48559D01*
X29800Y48610D01*
X29628Y48709D01*
X29436Y48760D01*
X29238D01*
X29046Y48709D01*
X28874Y48610D01*
X28734Y48469D01*
X28634Y48297D01*
X28583Y48106D01*
Y47907D01*
X28634Y47715D01*
X28734Y47543D01*
X28784Y47493D01*
X28856Y47371D01*
X28784Y47250D01*
X28734Y47199D01*
X28634Y47027D01*
X28622Y46982D01*
X28424Y46929D01*
X28074Y47278D01*
Y50250D01*
X28096Y50272D01*
X28170Y50450D01*
Y50642D01*
X28096Y50820D01*
X27960Y50956D01*
X27782Y51030D01*
D02*
G37*
G36*
X30734Y48753D02*
Y48133D01*
X31354D01*
X31310Y48297D01*
X31210Y48469D01*
X31070Y48610D01*
X30898Y48709D01*
X30734Y48753D01*
D02*
G37*
G36*
X43814Y48375D02*
X43550D01*
X43294Y48307D01*
X43065Y48174D01*
X42879Y47987D01*
X42746Y47759D01*
X42678Y47503D01*
Y47239D01*
X42746Y46983D01*
X42879Y46755D01*
X43065Y46568D01*
X43294Y46435D01*
X43550Y46367D01*
X43814D01*
X44069Y46435D01*
X44298Y46568D01*
X44485Y46755D01*
X44618Y46983D01*
X44686Y47239D01*
Y47503D01*
X44618Y47759D01*
X44485Y47987D01*
X44298Y48174D01*
X44069Y48307D01*
X43814Y48375D01*
D02*
G37*
G36*
X36240Y52250D02*
X36047D01*
X35869Y52176D01*
X35733Y52040D01*
X35660Y51862D01*
Y51670D01*
X35733Y51492D01*
X35869Y51355D01*
X36047Y51282D01*
X36240D01*
X36418Y51355D01*
X36440Y51377D01*
X36794D01*
X40138Y48033D01*
X40149Y48015D01*
X40161Y47990D01*
X40171Y47958D01*
X40179Y47917D01*
X40184Y47866D01*
X40184Y47807D01*
X40180Y47739D01*
X40170Y47663D01*
X40153Y47572D01*
X40153Y47561D01*
X40138Y47503D01*
Y47239D01*
X40206Y46983D01*
X40339Y46755D01*
X40525Y46568D01*
X40754Y46435D01*
X41010Y46367D01*
X41274D01*
X41529Y46435D01*
X41758Y46568D01*
X41945Y46755D01*
X42078Y46983D01*
X42146Y47239D01*
Y47503D01*
X42078Y47759D01*
X41945Y47987D01*
X41758Y48174D01*
X41529Y48307D01*
X41349Y48355D01*
X41332Y48362D01*
X41296Y48369D01*
X41274Y48375D01*
X41267D01*
X41221Y48384D01*
X41028Y48430D01*
X40875Y48477D01*
X40819Y48499D01*
X40772Y48520D01*
X40737Y48538D01*
X40720Y48550D01*
X37230Y52040D01*
X37104Y52125D01*
X36955Y52154D01*
X36440D01*
X36418Y52176D01*
X36240Y52250D01*
D02*
G37*
G36*
X35670Y46139D02*
X35450D01*
X35246Y46055D01*
X35090Y45899D01*
X35006Y45695D01*
Y45475D01*
X35090Y45271D01*
X35246Y45115D01*
X35450Y45031D01*
X35670D01*
X35874Y45115D01*
X36030Y45271D01*
X36114Y45475D01*
Y45695D01*
X36030Y45899D01*
X35874Y46055D01*
X35670Y46139D01*
D02*
G37*
G36*
X43814Y45835D02*
X43550D01*
X43294Y45767D01*
X43065Y45634D01*
X42879Y45447D01*
X42746Y45219D01*
X42678Y44963D01*
Y44699D01*
X42746Y44443D01*
X42879Y44215D01*
X43065Y44028D01*
X43294Y43895D01*
X43550Y43827D01*
X43814D01*
X44069Y43895D01*
X44298Y44028D01*
X44485Y44215D01*
X44618Y44443D01*
X44686Y44699D01*
Y44963D01*
X44618Y45219D01*
X44485Y45447D01*
X44298Y45634D01*
X44069Y45767D01*
X43814Y45835D01*
D02*
G37*
G36*
X31985Y52250D02*
X31793D01*
X31615Y52176D01*
X31479Y52040D01*
X31405Y51862D01*
Y51670D01*
X31479Y51492D01*
X31615Y51355D01*
X31793Y51282D01*
X31985D01*
X32163Y51355D01*
X32185Y51377D01*
X34036D01*
X40036Y45377D01*
X40049Y45358D01*
X40064Y45328D01*
X40080Y45286D01*
X40095Y45235D01*
X40108Y45173D01*
X40118Y45105D01*
X40131Y44928D01*
X40133Y44827D01*
X40138Y44804D01*
Y44699D01*
X40206Y44443D01*
X40339Y44215D01*
X40525Y44028D01*
X40754Y43895D01*
X41010Y43827D01*
X41274D01*
X41529Y43895D01*
X41758Y44028D01*
X41945Y44215D01*
X42078Y44443D01*
X42146Y44699D01*
Y44963D01*
X42078Y45219D01*
X41945Y45447D01*
X41758Y45634D01*
X41529Y45767D01*
X41274Y45835D01*
X41154D01*
X41132Y45840D01*
X40933Y45843D01*
X40856Y45850D01*
X40786Y45859D01*
X40725Y45872D01*
X40674Y45886D01*
X40634Y45901D01*
X40603Y45916D01*
X40584Y45928D01*
X34472Y52040D01*
X34346Y52125D01*
X34197Y52154D01*
X32185D01*
X32163Y52176D01*
X31985Y52250D01*
D02*
G37*
G36*
X34267Y42267D02*
X34075D01*
X33897Y42193D01*
X33761Y42057D01*
X33687Y41879D01*
Y41687D01*
X33761Y41509D01*
X33897Y41373D01*
X34075Y41299D01*
X34267D01*
X34445Y41373D01*
X34581Y41509D01*
X34655Y41687D01*
Y41879D01*
X34581Y42057D01*
X34445Y42193D01*
X34267Y42267D01*
D02*
G37*
G36*
X43814Y43295D02*
X43550D01*
X43294Y43227D01*
X43065Y43094D01*
X42879Y42907D01*
X42746Y42679D01*
X42678Y42423D01*
Y42159D01*
X42746Y41903D01*
X42879Y41675D01*
X43065Y41488D01*
X43294Y41355D01*
X43550Y41287D01*
X43814D01*
X44069Y41355D01*
X44298Y41488D01*
X44485Y41675D01*
X44618Y41903D01*
X44686Y42159D01*
Y42423D01*
X44618Y42679D01*
X44485Y42907D01*
X44298Y43094D01*
X44069Y43227D01*
X43814Y43295D01*
D02*
G37*
G36*
X27731Y52250D02*
X27538D01*
X27360Y52176D01*
X27224Y52040D01*
X27151Y51862D01*
Y51670D01*
X27224Y51492D01*
X27360Y51355D01*
X27538Y51282D01*
X27731D01*
X27909Y51355D01*
X27931Y51377D01*
X28464D01*
X29824Y50017D01*
X29950Y49933D01*
X30099Y49904D01*
X32980D01*
X34333Y48551D01*
X34344Y48493D01*
X34428Y48367D01*
X37400Y45395D01*
X37526Y45311D01*
X37584Y45300D01*
X40040Y42843D01*
X40053Y42824D01*
X40068Y42793D01*
X40083Y42753D01*
X40098Y42701D01*
X40111Y42640D01*
X40120Y42572D01*
X40132Y42396D01*
X40133Y42297D01*
X40138Y42273D01*
Y42159D01*
X40206Y41903D01*
X40339Y41675D01*
X40525Y41488D01*
X40754Y41355D01*
X41010Y41287D01*
X41274D01*
X41529Y41355D01*
X41758Y41488D01*
X41945Y41675D01*
X42078Y41903D01*
X42146Y42159D01*
Y42423D01*
X42078Y42679D01*
X41945Y42907D01*
X41758Y43094D01*
X41529Y43227D01*
X41274Y43295D01*
X41160D01*
X41136Y43300D01*
X41036Y43301D01*
X40861Y43313D01*
X40793Y43322D01*
X40731Y43335D01*
X40680Y43350D01*
X40639Y43365D01*
X40609Y43380D01*
X40590Y43393D01*
X38038Y45945D01*
X37912Y46029D01*
X37854Y46040D01*
X35587Y48307D01*
X35625Y48521D01*
X35724Y48621D01*
X35798Y48799D01*
Y48991D01*
X35724Y49169D01*
X35588Y49305D01*
X35410Y49379D01*
X35218D01*
X35040Y49305D01*
X34904Y49169D01*
X34828Y49154D01*
X33416Y50567D01*
X33290Y50651D01*
X33141Y50680D01*
X30260D01*
X28900Y52040D01*
X28774Y52125D01*
X28625Y52154D01*
X27931D01*
X27909Y52176D01*
X27731Y52250D01*
D02*
G37*
G36*
X41392Y40723D02*
Y40001D01*
X42114D01*
X42078Y40139D01*
X41945Y40367D01*
X41758Y40554D01*
X41529Y40687D01*
X41392Y40723D01*
D02*
G37*
G36*
X40892D02*
X40754Y40687D01*
X40525Y40554D01*
X40339Y40367D01*
X40206Y40139D01*
X40170Y40001D01*
X40892D01*
Y40723D01*
D02*
G37*
G36*
X42114Y39501D02*
X41392D01*
Y38779D01*
X41529Y38815D01*
X41758Y38948D01*
X41945Y39135D01*
X42078Y39363D01*
X42114Y39501D01*
D02*
G37*
G36*
X40892D02*
X40170D01*
X40206Y39363D01*
X40339Y39135D01*
X40525Y38948D01*
X40754Y38815D01*
X40892Y38779D01*
Y39501D01*
D02*
G37*
G36*
X43814Y40755D02*
X43550D01*
X43294Y40687D01*
X43065Y40554D01*
X42879Y40367D01*
X42746Y40139D01*
X42678Y39883D01*
Y39619D01*
X42746Y39363D01*
X42879Y39135D01*
X43065Y38948D01*
X43294Y38815D01*
X43550Y38747D01*
X43814D01*
X44069Y38815D01*
X44298Y38948D01*
X44485Y39135D01*
X44618Y39363D01*
X44686Y39619D01*
Y39883D01*
X44618Y40139D01*
X44485Y40367D01*
X44298Y40554D01*
X44069Y40687D01*
X43814Y40755D01*
D02*
G37*
G36*
X41392Y38183D02*
Y37461D01*
X42114D01*
X42078Y37599D01*
X41945Y37827D01*
X41758Y38014D01*
X41529Y38147D01*
X41392Y38183D01*
D02*
G37*
G36*
X40892D02*
X40754Y38147D01*
X40525Y38014D01*
X40339Y37827D01*
X40206Y37599D01*
X40170Y37461D01*
X40892D01*
Y38183D01*
D02*
G37*
G36*
X42114Y36961D02*
X41392D01*
Y36239D01*
X41529Y36275D01*
X41758Y36408D01*
X41945Y36595D01*
X42078Y36823D01*
X42114Y36961D01*
D02*
G37*
G36*
X40892D02*
X40170D01*
X40206Y36823D01*
X40339Y36595D01*
X40525Y36408D01*
X40754Y36275D01*
X40892Y36239D01*
Y36961D01*
D02*
G37*
G36*
X43814Y38215D02*
X43550D01*
X43294Y38147D01*
X43065Y38014D01*
X42879Y37827D01*
X42746Y37599D01*
X42678Y37343D01*
Y37079D01*
X42746Y36823D01*
X42879Y36595D01*
X43065Y36408D01*
X43294Y36275D01*
X43550Y36207D01*
X43814D01*
X44069Y36275D01*
X44298Y36408D01*
X44485Y36595D01*
X44618Y36823D01*
X44686Y37079D01*
Y37343D01*
X44618Y37599D01*
X44485Y37827D01*
X44298Y38014D01*
X44069Y38147D01*
X43814Y38215D01*
D02*
G37*
G36*
X33729Y35536D02*
X33536D01*
X33358Y35462D01*
X33222Y35326D01*
X33149Y35148D01*
Y34956D01*
X33222Y34778D01*
X33358Y34642D01*
X33536Y34568D01*
X33729D01*
X33907Y34642D01*
X34043Y34778D01*
X34117Y34956D01*
Y35148D01*
X34043Y35326D01*
X33907Y35462D01*
X33729Y35536D01*
D02*
G37*
G36*
X30053Y33681D02*
X29832D01*
X29629Y33597D01*
X29473Y33441D01*
X29389Y33238D01*
Y33017D01*
X29473Y32813D01*
X29629Y32658D01*
X29832Y32573D01*
X30053D01*
X30256Y32658D01*
X30412Y32813D01*
X30497Y33017D01*
Y33238D01*
X30412Y33441D01*
X30256Y33597D01*
X30053Y33681D01*
D02*
G37*
G36*
X30706Y23780D02*
X30508D01*
X30316Y23729D01*
X30144Y23630D01*
X30093Y23579D01*
X29972Y23508D01*
X29851Y23579D01*
X29800Y23630D01*
X29628Y23729D01*
X29464Y23773D01*
Y23026D01*
X29337D01*
Y22899D01*
X28590D01*
X28634Y22735D01*
X28734Y22563D01*
X28784Y22513D01*
X28856Y22391D01*
X28784Y22270D01*
X28734Y22219D01*
X28634Y22047D01*
X28583Y21856D01*
Y21657D01*
X28634Y21465D01*
X28734Y21293D01*
X28784Y21243D01*
X28856Y21121D01*
X28784Y21000D01*
X28734Y20949D01*
X28634Y20777D01*
X28583Y20586D01*
Y20387D01*
X28634Y20195D01*
X28734Y20023D01*
X28784Y19973D01*
X28856Y19851D01*
X28784Y19730D01*
X28734Y19679D01*
X28634Y19507D01*
X28583Y19316D01*
Y19117D01*
X28634Y18925D01*
X28734Y18753D01*
X28784Y18703D01*
X28856Y18581D01*
X28784Y18460D01*
X28734Y18409D01*
X28634Y18237D01*
X28590Y18073D01*
X29337D01*
Y17819D01*
X28590D01*
X28634Y17655D01*
X28734Y17483D01*
X28784Y17433D01*
X28856Y17311D01*
X28784Y17190D01*
X28734Y17139D01*
X28634Y16967D01*
X28583Y16776D01*
Y16577D01*
X28634Y16385D01*
X28734Y16213D01*
X28784Y16163D01*
X28856Y16041D01*
X28784Y15920D01*
X28734Y15869D01*
X28634Y15697D01*
X28583Y15506D01*
Y15307D01*
X28634Y15115D01*
X28734Y14943D01*
X28874Y14803D01*
X29046Y14704D01*
X29238Y14652D01*
X29436D01*
X29628Y14704D01*
X29800Y14803D01*
X29851Y14854D01*
X29972Y14925D01*
X30093Y14854D01*
X30144Y14803D01*
X30316Y14704D01*
X30508Y14652D01*
X30706D01*
X30898Y14704D01*
X31070Y14803D01*
X31210Y14943D01*
X31310Y15115D01*
X31361Y15307D01*
Y15506D01*
X31310Y15697D01*
X31210Y15869D01*
X31160Y15920D01*
X31089Y16041D01*
X31160Y16163D01*
X31210Y16213D01*
X31310Y16385D01*
X31361Y16577D01*
Y16776D01*
X31310Y16967D01*
X31210Y17139D01*
X31160Y17190D01*
X31089Y17311D01*
X31160Y17433D01*
X31210Y17483D01*
X31310Y17655D01*
X31361Y17847D01*
Y18046D01*
X31310Y18237D01*
X31210Y18409D01*
X31160Y18460D01*
X31089Y18581D01*
X31160Y18703D01*
X31210Y18753D01*
X31310Y18925D01*
X31361Y19117D01*
Y19316D01*
X31310Y19507D01*
X31210Y19679D01*
X31160Y19730D01*
X31089Y19851D01*
X31160Y19973D01*
X31210Y20023D01*
X31310Y20195D01*
X31361Y20387D01*
Y20586D01*
X31310Y20777D01*
X31210Y20949D01*
X31160Y21000D01*
X31089Y21121D01*
X31160Y21243D01*
X31210Y21293D01*
X31310Y21465D01*
X31361Y21657D01*
Y21856D01*
X31310Y22047D01*
X31210Y22219D01*
X31160Y22270D01*
X31089Y22391D01*
X31160Y22513D01*
X31210Y22563D01*
X31310Y22735D01*
X31361Y22927D01*
Y23126D01*
X31310Y23317D01*
X31210Y23489D01*
X31070Y23630D01*
X30898Y23729D01*
X30706Y23780D01*
D02*
G37*
G36*
X29210Y23773D02*
X29046Y23729D01*
X28874Y23630D01*
X28734Y23489D01*
X28634Y23317D01*
X28590Y23153D01*
X29210D01*
Y23773D01*
D02*
G37*
%LPD*%
G36*
X27841Y50374D02*
X27835Y50364D01*
X27830Y50353D01*
X27825Y50339D01*
X27822Y50324D01*
X27818Y50306D01*
X27814Y50265D01*
X27813Y50242D01*
X27813Y50216D01*
X27559D01*
X27559Y50242D01*
X27554Y50306D01*
X27551Y50324D01*
X27547Y50339D01*
X27542Y50353D01*
X27537Y50364D01*
X27531Y50374D01*
X27525Y50382D01*
X27847D01*
X27841Y50374D01*
D02*
G37*
G36*
X26952Y49739D02*
X26946Y49729D01*
X26941Y49718D01*
X26936Y49704D01*
X26933Y49689D01*
X26929Y49671D01*
X26925Y49630D01*
X26924Y49607D01*
X26924Y49581D01*
X26670D01*
X26670Y49607D01*
X26665Y49671D01*
X26662Y49689D01*
X26658Y49704D01*
X26653Y49718D01*
X26648Y49729D01*
X26642Y49739D01*
X26636Y49747D01*
X26958D01*
X26952Y49739D01*
D02*
G37*
G36*
X28904Y46082D02*
X28938Y46057D01*
X28976Y46036D01*
X29017Y46017D01*
X29061Y46001D01*
X29109Y45988D01*
X29160Y45978D01*
X29214Y45971D01*
X29271Y45967D01*
X29332Y45966D01*
X28837Y45471D01*
X28836Y45532D01*
X28832Y45590D01*
X28825Y45644D01*
X28816Y45695D01*
X28803Y45742D01*
X28787Y45787D01*
X28768Y45828D01*
X28746Y45865D01*
X28721Y45900D01*
X28693Y45931D01*
X28873Y46110D01*
X28904Y46082D01*
D02*
G37*
G36*
Y43542D02*
X28938Y43517D01*
X28976Y43496D01*
X29017Y43477D01*
X29061Y43461D01*
X29109Y43448D01*
X29160Y43438D01*
X29214Y43431D01*
X29271Y43427D01*
X29332Y43426D01*
X28837Y42931D01*
X28836Y42992D01*
X28832Y43050D01*
X28825Y43104D01*
X28816Y43155D01*
X28803Y43202D01*
X28787Y43247D01*
X28768Y43288D01*
X28746Y43325D01*
X28721Y43360D01*
X28693Y43391D01*
X28873Y43570D01*
X28904Y43542D01*
D02*
G37*
G36*
X36315Y51920D02*
X36325Y51915D01*
X36337Y51909D01*
X36350Y51905D01*
X36366Y51901D01*
X36383Y51898D01*
X36424Y51894D01*
X36448Y51893D01*
X36473Y51893D01*
Y51639D01*
X36448Y51638D01*
X36383Y51633D01*
X36366Y51630D01*
X36350Y51627D01*
X36337Y51622D01*
X36325Y51617D01*
X36315Y51611D01*
X36308Y51605D01*
Y51927D01*
X36315Y51920D01*
D02*
G37*
G36*
X40559Y48346D02*
X40604Y48316D01*
X40657Y48288D01*
X40719Y48259D01*
X40790Y48232D01*
X40960Y48180D01*
X41165Y48131D01*
X41282Y48108D01*
X40408Y47525D01*
X40426Y47623D01*
X40438Y47714D01*
X40443Y47800D01*
X40443Y47880D01*
X40436Y47953D01*
X40423Y48021D01*
X40403Y48083D01*
X40378Y48139D01*
X40346Y48189D01*
X40308Y48233D01*
X40524Y48377D01*
X40559Y48346D01*
D02*
G37*
G36*
X32061Y51920D02*
X32071Y51915D01*
X32082Y51909D01*
X32096Y51905D01*
X32111Y51901D01*
X32129Y51898D01*
X32170Y51894D01*
X32193Y51893D01*
X32219Y51893D01*
Y51639D01*
X32193Y51638D01*
X32129Y51633D01*
X32111Y51630D01*
X32096Y51627D01*
X32082Y51622D01*
X32071Y51617D01*
X32061Y51611D01*
X32053Y51605D01*
Y51927D01*
X32061Y51920D01*
D02*
G37*
G36*
X40426Y45722D02*
X40475Y45691D01*
X40531Y45663D01*
X40594Y45639D01*
X40664Y45620D01*
X40742Y45604D01*
X40828Y45592D01*
X40920Y45585D01*
X41127Y45581D01*
X40392Y44832D01*
X40390Y44940D01*
X40375Y45134D01*
X40363Y45219D01*
X40346Y45298D01*
X40326Y45368D01*
X40302Y45431D01*
X40274Y45487D01*
X40242Y45536D01*
X40207Y45576D01*
X40385Y45758D01*
X40426Y45722D01*
D02*
G37*
G36*
X27806Y51920D02*
X27816Y51915D01*
X27828Y51909D01*
X27841Y51905D01*
X27857Y51901D01*
X27874Y51898D01*
X27915Y51894D01*
X27939Y51893D01*
X27964Y51893D01*
Y51639D01*
X27939Y51638D01*
X27874Y51633D01*
X27857Y51630D01*
X27841Y51627D01*
X27828Y51622D01*
X27816Y51617D01*
X27806Y51611D01*
X27799Y51605D01*
Y51927D01*
X27806Y51920D01*
D02*
G37*
G36*
X40432Y43186D02*
X40480Y43155D01*
X40536Y43127D01*
X40599Y43103D01*
X40670Y43083D01*
X40748Y43067D01*
X40833Y43055D01*
X41027Y43042D01*
X41134Y43041D01*
X40392Y42299D01*
X40391Y42406D01*
X40378Y42599D01*
X40366Y42685D01*
X40350Y42763D01*
X40330Y42834D01*
X40306Y42897D01*
X40278Y42953D01*
X40247Y43001D01*
X40211Y43042D01*
X40391Y43222D01*
X40432Y43186D01*
D02*
G37*
D11*
X34703Y48642D02*
X37675Y45670D01*
X37763D01*
X41142Y42291D01*
X34703Y48642D02*
Y48730D01*
X33141Y50292D02*
X34703Y48730D01*
X27635Y51766D02*
X28625D01*
X30099Y50292D02*
X33141D01*
X28625Y51766D02*
X30099Y50292D01*
X26797Y45466D02*
Y49911D01*
Y45466D02*
X29337Y42926D01*
X27686Y47117D02*
Y50546D01*
X41142Y47371D02*
Y47579D01*
X36955Y51766D02*
X41142Y47579D01*
X36144Y51766D02*
X36955D01*
X34197D02*
X41132Y44831D01*
X41142D01*
X31889Y51766D02*
X34197D01*
X27686Y47117D02*
X29337Y45466D01*
D12*
Y15406D02*
D03*
X30607D02*
D03*
X29337Y16676D02*
D03*
X30607D02*
D03*
X29337Y17946D02*
D03*
Y19216D02*
D03*
X30607D02*
D03*
X29337Y20486D02*
D03*
X30607D02*
D03*
X29337Y21756D02*
D03*
X30607D02*
D03*
X29337Y23026D02*
D03*
X30607D02*
D03*
Y17946D02*
D03*
Y39116D02*
D03*
Y48006D02*
D03*
X29337D02*
D03*
X30607Y46736D02*
D03*
X29337D02*
D03*
X30607Y45466D02*
D03*
X29337D02*
D03*
X30607Y44196D02*
D03*
X29337D02*
D03*
X30607Y42926D02*
D03*
X29337D02*
D03*
X30607Y41656D02*
D03*
X29337D02*
D03*
X30607Y40386D02*
D03*
X29337D02*
D03*
Y39116D02*
D03*
X30607Y37846D02*
D03*
X29337D02*
D03*
X30607Y36576D02*
D03*
X29337D02*
D03*
D16*
X43682Y37211D02*
D03*
X41142D02*
D03*
X43682Y39751D02*
D03*
X41142D02*
D03*
X43682Y42291D02*
D03*
X41142D02*
D03*
X43682Y44831D02*
D03*
X41142D02*
D03*
X43682Y47371D02*
D03*
X41142D02*
D03*
D17*
X32000Y30000D02*
D03*
X45000Y52000D02*
D03*
X44000Y50000D02*
D03*
X45000Y48000D02*
D03*
Y32000D02*
D03*
X44000Y30000D02*
D03*
X45000Y28000D02*
D03*
X44000Y26000D02*
D03*
X45000Y24000D02*
D03*
X44000Y22000D02*
D03*
X45000Y20000D02*
D03*
X44000Y18000D02*
D03*
X45000Y16000D02*
D03*
X44000Y14000D02*
D03*
X43000Y52000D02*
D03*
X42000Y50000D02*
D03*
X43000Y32000D02*
D03*
X42000Y30000D02*
D03*
X43000Y28000D02*
D03*
X42000Y26000D02*
D03*
X43000Y24000D02*
D03*
X42000Y22000D02*
D03*
X43000Y20000D02*
D03*
X42000Y18000D02*
D03*
X43000Y16000D02*
D03*
X42000Y14000D02*
D03*
X41000Y52000D02*
D03*
X40000Y50000D02*
D03*
Y38000D02*
D03*
X41000Y32000D02*
D03*
X40000Y30000D02*
D03*
X41000Y28000D02*
D03*
X40000Y26000D02*
D03*
X41000Y24000D02*
D03*
X40000Y22000D02*
D03*
X41000Y20000D02*
D03*
X40000Y18000D02*
D03*
X41000Y16000D02*
D03*
X40000Y14000D02*
D03*
X39000Y52000D02*
D03*
Y48000D02*
D03*
X38000Y42000D02*
D03*
X39000Y40000D02*
D03*
X38000Y38000D02*
D03*
X39000Y36000D02*
D03*
Y32000D02*
D03*
X38000Y30000D02*
D03*
X39000Y28000D02*
D03*
X38000Y26000D02*
D03*
X39000Y24000D02*
D03*
X38000Y22000D02*
D03*
X39000Y20000D02*
D03*
X38000Y18000D02*
D03*
X39000Y16000D02*
D03*
X38000Y14000D02*
D03*
X36000Y42000D02*
D03*
X37000Y40000D02*
D03*
X36000Y38000D02*
D03*
X37000Y36000D02*
D03*
Y32000D02*
D03*
X36000Y30000D02*
D03*
X37000Y28000D02*
D03*
X36000Y26000D02*
D03*
X37000Y24000D02*
D03*
X36000Y22000D02*
D03*
X37000Y20000D02*
D03*
X36000Y18000D02*
D03*
X37000Y16000D02*
D03*
X36000Y14000D02*
D03*
X35000Y52000D02*
D03*
X34000Y46000D02*
D03*
X35000Y44000D02*
D03*
Y40000D02*
D03*
X34000Y38000D02*
D03*
X35000Y36000D02*
D03*
Y32000D02*
D03*
X34000Y30000D02*
D03*
X35000Y28000D02*
D03*
X34000Y26000D02*
D03*
X35000Y24000D02*
D03*
X34000Y22000D02*
D03*
X35000Y20000D02*
D03*
X34000Y18000D02*
D03*
X35000Y16000D02*
D03*
X34000Y14000D02*
D03*
X32000Y46000D02*
D03*
Y42000D02*
D03*
X33000Y40000D02*
D03*
X32000Y38000D02*
D03*
X33000Y36000D02*
D03*
Y32000D02*
D03*
Y28000D02*
D03*
X32000Y26000D02*
D03*
X33000Y24000D02*
D03*
X32000Y22000D02*
D03*
X33000Y20000D02*
D03*
X32000Y18000D02*
D03*
X33000Y16000D02*
D03*
X32000Y14000D02*
D03*
X31000Y32000D02*
D03*
X30000Y30000D02*
D03*
X31000Y28000D02*
D03*
X30000Y26000D02*
D03*
Y14000D02*
D03*
X28000Y38000D02*
D03*
X29000Y32000D02*
D03*
X28000Y30000D02*
D03*
X29000Y28000D02*
D03*
X28000Y26000D02*
D03*
Y22000D02*
D03*
Y18000D02*
D03*
Y14000D02*
D03*
X29942Y33127D02*
D03*
X35560Y45585D02*
D03*
D18*
X26797Y49911D02*
D03*
X27686Y50546D02*
D03*
X31889Y51766D02*
D03*
X33633Y35052D02*
D03*
X34171Y41783D02*
D03*
X35314Y48895D02*
D03*
X27635Y51766D02*
D03*
X36144D02*
D03*
M02*
