G04*
G04 #@! TF.GenerationSoftware,Altium Limited,Altium Designer,23.0.1 (38)*
G04*
G04 Layer_Color=32896*
%FSLAX43Y43*%
%MOMM*%
G71*
G04*
G04 #@! TF.SameCoordinates,F4D5CC03-99AA-4306-8ABA-C9368C199380*
G04*
G04*
G04 #@! TF.FilePolarity,Positive*
G04*
G01*
G75*
%ADD10C,0.200*%
%ADD11C,0.254*%
G36*
X27256Y20486D02*
X28272D01*
Y17946D01*
X27256D01*
Y20486D01*
D02*
G37*
G36*
Y43561D02*
X28272D01*
Y41021D01*
X27256D01*
Y43561D01*
D02*
G37*
D10*
X28256Y14341D02*
X31672D01*
X28256D02*
Y21407D01*
X31672Y14341D02*
Y24091D01*
X28256D02*
X31672D01*
X28256Y21407D02*
Y24091D01*
Y44482D02*
Y49071D01*
X31672D01*
Y35511D02*
Y49071D01*
X28256Y35511D02*
X31672D01*
X28256D02*
Y44482D01*
D11*
X33782Y16383D02*
Y15875D01*
Y16129D01*
X32512D01*
X32258Y15875D01*
Y15621D01*
X32512Y15367D01*
X33528Y16891D02*
X33782Y17145D01*
Y17653D01*
X33528Y17907D01*
X33274D01*
X33020Y17653D01*
Y17399D01*
Y17653D01*
X32766Y17907D01*
X32512D01*
X32258Y17653D01*
Y17145D01*
X32512Y16891D01*
X33655Y36703D02*
Y36195D01*
Y36449D01*
X32385D01*
X32131Y36195D01*
Y35941D01*
X32385Y35687D01*
X32131Y38227D02*
Y37211D01*
X33147Y38227D01*
X33401D01*
X33655Y37973D01*
Y37465D01*
X33401Y37211D01*
M02*
