G04*
G04 #@! TF.GenerationSoftware,Altium Limited,Altium Designer,23.0.1 (38)*
G04*
G04 Layer_Physical_Order=1*
G04 Layer_Color=255*
%FSLAX43Y43*%
%MOMM*%
G71*
G04*
G04 #@! TF.SameCoordinates,F4D5CC03-99AA-4306-8ABA-C9368C199380*
G04*
G04*
G04 #@! TF.FilePolarity,Positive*
G04*
G01*
G75*
%ADD11C,0.254*%
%ADD12C,1.000*%
%ADD15C,0.700*%
%ADD16C,1.500*%
%ADD17C,0.600*%
%ADD18C,0.460*%
G36*
X26670Y53739D02*
X45879Y53739D01*
X45964Y53739D01*
X46130Y53706D01*
X46287Y53641D01*
X46428Y53546D01*
X46548Y53426D01*
X46643Y53285D01*
X46708Y53128D01*
X46741Y52962D01*
X46741Y52877D01*
Y14224D01*
X46741Y14139D01*
X46708Y13972D01*
X46643Y13816D01*
X46548Y13674D01*
X46428Y13554D01*
X46287Y13460D01*
X46130Y13395D01*
X45964Y13362D01*
X45879Y13362D01*
X26585D01*
X26418Y13395D01*
X26262Y13460D01*
X26120Y13554D01*
X26000Y13674D01*
X25906Y13816D01*
X25841Y13973D01*
X25808Y14139D01*
Y14224D01*
X25808Y52877D01*
Y52962D01*
X25841Y53128D01*
X25906Y53285D01*
X26000Y53426D01*
X26120Y53546D01*
X26262Y53641D01*
X26419Y53706D01*
X26585Y53739D01*
X26670Y53739D01*
D02*
G37*
%LPC*%
G36*
X36243Y52520D02*
X36044D01*
X35853Y52468D01*
X35681Y52369D01*
X35540Y52229D01*
X35441Y52057D01*
X35390Y51865D01*
Y51667D01*
X35441Y51475D01*
X35540Y51303D01*
X35681Y51162D01*
X35853Y51063D01*
X36044Y51012D01*
X36243D01*
X36435Y51063D01*
X36607Y51162D01*
X36747Y51303D01*
X36846Y51475D01*
X36898Y51667D01*
Y51865D01*
X36846Y52057D01*
X36747Y52229D01*
X36607Y52369D01*
X36435Y52468D01*
X36243Y52520D01*
D02*
G37*
G36*
X31988D02*
X31790D01*
X31598Y52468D01*
X31426Y52369D01*
X31286Y52229D01*
X31186Y52057D01*
X31135Y51865D01*
Y51667D01*
X31186Y51475D01*
X31286Y51303D01*
X31426Y51162D01*
X31513Y51112D01*
X31465Y50934D01*
X28089D01*
X28016Y51095D01*
X28026Y51121D01*
X28098Y51162D01*
X28238Y51303D01*
X28337Y51475D01*
X28389Y51667D01*
Y51865D01*
X28337Y52057D01*
X28238Y52229D01*
X28098Y52369D01*
X27926Y52468D01*
X27734Y52520D01*
X27535D01*
X27344Y52468D01*
X27172Y52369D01*
X27031Y52229D01*
X26932Y52057D01*
X26881Y51865D01*
Y51667D01*
X26932Y51475D01*
X27031Y51303D01*
X27172Y51162D01*
X27301Y51088D01*
X27339Y50945D01*
X27337Y50881D01*
X27276Y50820D01*
X27202Y50642D01*
Y50450D01*
X27203Y50447D01*
X27180Y50414D01*
X27097Y50343D01*
X27061Y50326D01*
X26893Y50395D01*
X26701D01*
X26523Y50321D01*
X26387Y50185D01*
X26313Y50007D01*
Y49815D01*
X26387Y49637D01*
X26523Y49501D01*
X26701Y49427D01*
X26893D01*
X27071Y49501D01*
X27093Y49523D01*
X31208D01*
X34851Y45879D01*
X34855Y45874D01*
X34856Y45873D01*
X34806Y45684D01*
Y45486D01*
X34857Y45294D01*
X34957Y45122D01*
X35097Y44982D01*
X35269Y44882D01*
X35461Y44831D01*
X35659D01*
X35717Y44846D01*
X35732Y44846D01*
X35736Y44847D01*
X35741Y44844D01*
X35753Y44837D01*
X35768Y44826D01*
X35774Y44822D01*
X37170Y43425D01*
X37296Y43341D01*
X37445Y43312D01*
X40546D01*
X40594Y43134D01*
X40525Y43094D01*
X40339Y42907D01*
X40206Y42679D01*
X40138Y42423D01*
Y42159D01*
X40206Y41903D01*
X40309Y41726D01*
X40233Y41548D01*
X35096D01*
X34973Y41671D01*
X34969Y41676D01*
X34955Y41695D01*
X34944Y41711D01*
X34937Y41724D01*
X34933Y41734D01*
X34930Y41740D01*
X34930Y41744D01*
X34929Y41745D01*
X34929Y41759D01*
X34925Y41780D01*
Y41882D01*
X34874Y42074D01*
X34774Y42246D01*
X34634Y42386D01*
X34462Y42486D01*
X34270Y42537D01*
X34168D01*
X34147Y42541D01*
X34133Y42541D01*
X34132Y42542D01*
X34128Y42542D01*
X34122Y42545D01*
X34112Y42549D01*
X34099Y42556D01*
X34083Y42567D01*
X34064Y42581D01*
X34059Y42585D01*
X33408Y43236D01*
Y46839D01*
X33379Y46988D01*
X33295Y47114D01*
X31247Y49162D01*
X31121Y49246D01*
X30972Y49276D01*
X28883D01*
X28734Y49246D01*
X28608Y49162D01*
X27517Y48071D01*
X27432Y47944D01*
X27403Y47796D01*
Y41932D01*
X27432Y41784D01*
X27517Y41657D01*
X28524Y40650D01*
X28529Y40644D01*
X28538Y40628D01*
X28547Y40608D01*
X28555Y40585D01*
X28563Y40556D01*
X28570Y40523D01*
X28574Y40485D01*
X28577Y40442D01*
X28578Y40388D01*
X28583Y40365D01*
Y40287D01*
X28634Y40095D01*
X28734Y39923D01*
X28747Y39910D01*
X28673Y39732D01*
X27559D01*
X27324Y39685D01*
X27124Y39552D01*
X26489Y38916D01*
X26355Y38717D01*
X26308Y38481D01*
Y34417D01*
X26355Y34181D01*
X26489Y33982D01*
X27778Y32692D01*
X27978Y32558D01*
X28214Y32511D01*
X29312D01*
X29407Y32510D01*
X29514Y32503D01*
X29517Y32502D01*
X29651Y32425D01*
X29843Y32373D01*
X30042D01*
X30234Y32425D01*
X30343Y32488D01*
X30857Y32511D01*
X41988D01*
X42224Y32558D01*
X42424Y32692D01*
X46028Y36297D01*
X46162Y36496D01*
X46209Y36732D01*
Y45460D01*
X46162Y45696D01*
X46028Y45895D01*
X44809Y47115D01*
X44780Y47152D01*
X44752Y47193D01*
X44731Y47230D01*
X44714Y47263D01*
X44703Y47293D01*
X44696Y47319D01*
X44692Y47341D01*
X44691Y47376D01*
X44686Y47395D01*
Y47503D01*
X44618Y47759D01*
X44485Y47987D01*
X44298Y48174D01*
X44069Y48307D01*
X43814Y48375D01*
X43550D01*
X43294Y48307D01*
X43065Y48174D01*
X42879Y47987D01*
X42746Y47759D01*
X42678Y47503D01*
Y47239D01*
X42746Y46983D01*
X42879Y46755D01*
X43065Y46568D01*
X43294Y46435D01*
X43550Y46367D01*
X43658D01*
X43677Y46362D01*
X43712Y46361D01*
X43734Y46357D01*
X43760Y46350D01*
X43790Y46339D01*
X43823Y46322D01*
X43860Y46301D01*
X43898Y46275D01*
X43950Y46232D01*
X44420Y45762D01*
X44298Y45634D01*
X44069Y45767D01*
X43814Y45835D01*
X43700D01*
X43676Y45840D01*
X43576Y45841D01*
X43401Y45853D01*
X43333Y45862D01*
X43271Y45875D01*
X43220Y45890D01*
X43179Y45905D01*
X43149Y45920D01*
X43130Y45933D01*
X42548Y46515D01*
X42422Y46599D01*
X42273Y46628D01*
X42051D01*
X41975Y46806D01*
X42078Y46983D01*
X42146Y47239D01*
Y47503D01*
X42078Y47759D01*
X41945Y47987D01*
X41758Y48174D01*
X41529Y48307D01*
X41274Y48375D01*
X41010D01*
X40754Y48307D01*
X40525Y48174D01*
X40339Y47987D01*
X40206Y47759D01*
X40138Y47503D01*
Y47239D01*
X40206Y46983D01*
X40309Y46806D01*
X40233Y46628D01*
X38122D01*
X36075Y48676D01*
X36070Y48681D01*
X36059Y48697D01*
X36052Y48708D01*
X36050Y48712D01*
X36051Y48714D01*
X36051Y48731D01*
X36068Y48796D01*
Y48994D01*
X36017Y49186D01*
X35917Y49358D01*
X35777Y49498D01*
X35605Y49598D01*
X35413Y49649D01*
X35215D01*
X35150Y49632D01*
X35133Y49632D01*
X35131Y49631D01*
X35127Y49633D01*
X35116Y49640D01*
X35100Y49651D01*
X35095Y49656D01*
X33930Y50821D01*
X33804Y50905D01*
X33655Y50934D01*
X32313D01*
X32265Y51112D01*
X32352Y51162D01*
X32492Y51303D01*
X32592Y51475D01*
X32643Y51667D01*
Y51865D01*
X32592Y52057D01*
X32492Y52229D01*
X32352Y52369D01*
X32180Y52468D01*
X31988Y52520D01*
D02*
G37*
G36*
X32127Y30747D02*
Y30127D01*
X32747D01*
X32703Y30291D01*
X32603Y30463D01*
X32463Y30603D01*
X32291Y30703D01*
X32127Y30747D01*
D02*
G37*
G36*
X31873D02*
X31709Y30703D01*
X31537Y30603D01*
X31397Y30463D01*
X31297Y30291D01*
X31253Y30127D01*
X31873D01*
Y30747D01*
D02*
G37*
G36*
X32747Y29873D02*
X32127D01*
Y29253D01*
X32291Y29297D01*
X32463Y29397D01*
X32603Y29537D01*
X32703Y29709D01*
X32747Y29873D01*
D02*
G37*
G36*
X31873D02*
X31253D01*
X31297Y29709D01*
X31397Y29537D01*
X31537Y29397D01*
X31709Y29297D01*
X31873Y29253D01*
Y29873D01*
D02*
G37*
G36*
X30706Y23780D02*
X30508D01*
X30316Y23729D01*
X30144Y23630D01*
X30093Y23579D01*
X29972Y23508D01*
X29851Y23579D01*
X29800Y23630D01*
X29628Y23729D01*
X29464Y23773D01*
Y23026D01*
X29337D01*
Y22899D01*
X28590D01*
X28634Y22735D01*
X28734Y22563D01*
X28784Y22513D01*
X28856Y22391D01*
X28784Y22270D01*
X28734Y22219D01*
X28634Y22047D01*
X28583Y21856D01*
Y21657D01*
X28634Y21465D01*
X28734Y21293D01*
X28784Y21243D01*
X28856Y21121D01*
X28784Y21000D01*
X28734Y20949D01*
X28634Y20777D01*
X28583Y20586D01*
Y20387D01*
X28634Y20195D01*
X28734Y20023D01*
X28784Y19973D01*
X28856Y19851D01*
X28784Y19730D01*
X28734Y19679D01*
X28634Y19507D01*
X28583Y19316D01*
Y19117D01*
X28634Y18925D01*
X28734Y18753D01*
X28784Y18703D01*
X28856Y18581D01*
X28784Y18460D01*
X28734Y18409D01*
X28634Y18237D01*
X28590Y18073D01*
X29337D01*
Y17819D01*
X28590D01*
X28634Y17655D01*
X28734Y17483D01*
X28784Y17433D01*
X28856Y17311D01*
X28784Y17190D01*
X28734Y17139D01*
X28634Y16967D01*
X28583Y16776D01*
Y16577D01*
X28634Y16385D01*
X28734Y16213D01*
X28784Y16163D01*
X28856Y16041D01*
X28784Y15920D01*
X28734Y15869D01*
X28634Y15697D01*
X28583Y15506D01*
Y15307D01*
X28634Y15115D01*
X28734Y14943D01*
X28874Y14803D01*
X29046Y14704D01*
X29238Y14652D01*
X29436D01*
X29628Y14704D01*
X29800Y14803D01*
X29851Y14854D01*
X29972Y14925D01*
X30093Y14854D01*
X30144Y14803D01*
X30316Y14704D01*
X30508Y14652D01*
X30706D01*
X30898Y14704D01*
X31070Y14803D01*
X31210Y14943D01*
X31310Y15115D01*
X31361Y15307D01*
Y15506D01*
X31310Y15697D01*
X31210Y15869D01*
X31160Y15920D01*
X31089Y16041D01*
X31160Y16163D01*
X31210Y16213D01*
X31310Y16385D01*
X31361Y16577D01*
Y16776D01*
X31310Y16967D01*
X31210Y17139D01*
X31160Y17190D01*
X31089Y17311D01*
X31160Y17433D01*
X31210Y17483D01*
X31310Y17655D01*
X31361Y17847D01*
Y18046D01*
X31310Y18237D01*
X31210Y18409D01*
X31160Y18460D01*
X31089Y18581D01*
X31160Y18703D01*
X31210Y18753D01*
X31310Y18925D01*
X31361Y19117D01*
Y19316D01*
X31310Y19507D01*
X31210Y19679D01*
X31160Y19730D01*
X31089Y19851D01*
X31160Y19973D01*
X31210Y20023D01*
X31310Y20195D01*
X31361Y20387D01*
Y20586D01*
X31310Y20777D01*
X31210Y20949D01*
X31160Y21000D01*
X31089Y21121D01*
X31160Y21243D01*
X31210Y21293D01*
X31310Y21465D01*
X31361Y21657D01*
Y21856D01*
X31310Y22047D01*
X31210Y22219D01*
X31160Y22270D01*
X31089Y22391D01*
X31160Y22513D01*
X31210Y22563D01*
X31310Y22735D01*
X31361Y22927D01*
Y23126D01*
X31310Y23317D01*
X31210Y23489D01*
X31070Y23630D01*
X30898Y23729D01*
X30706Y23780D01*
D02*
G37*
G36*
X29210Y23773D02*
X29046Y23729D01*
X28874Y23630D01*
X28734Y23489D01*
X28634Y23317D01*
X28590Y23153D01*
X29210D01*
Y23773D01*
D02*
G37*
%LPD*%
G36*
X27858Y50701D02*
X27868Y50695D01*
X27879Y50690D01*
X27893Y50685D01*
X27908Y50681D01*
X27926Y50678D01*
X27967Y50674D01*
X27990Y50673D01*
X28016Y50673D01*
Y50419D01*
X27990Y50419D01*
X27926Y50414D01*
X27908Y50410D01*
X27893Y50407D01*
X27879Y50402D01*
X27868Y50397D01*
X27858Y50391D01*
X27850Y50385D01*
Y50707D01*
X27858Y50701D01*
D02*
G37*
G36*
X26969Y50066D02*
X26979Y50060D01*
X26990Y50055D01*
X27004Y50050D01*
X27019Y50047D01*
X27037Y50043D01*
X27078Y50039D01*
X27101Y50038D01*
X27127Y50038D01*
Y49784D01*
X27101Y49784D01*
X27037Y49779D01*
X27019Y49776D01*
X27004Y49772D01*
X26990Y49767D01*
X26979Y49762D01*
X26969Y49756D01*
X26961Y49750D01*
Y50072D01*
X26969Y50066D01*
D02*
G37*
G36*
X34910Y49473D02*
X34942Y49446D01*
X34974Y49423D01*
X35005Y49404D01*
X35036Y49390D01*
X35066Y49379D01*
X35096Y49373D01*
X35126Y49370D01*
X35155Y49372D01*
X35184Y49378D01*
X34828Y49014D01*
X34834Y49043D01*
X34835Y49073D01*
X34832Y49102D01*
X34825Y49132D01*
X34814Y49163D01*
X34799Y49194D01*
X34780Y49225D01*
X34757Y49257D01*
X34731Y49289D01*
X34700Y49322D01*
X34877Y49503D01*
X34910Y49473D01*
D02*
G37*
G36*
X35182Y49199D02*
X35216Y49169D01*
X35232Y49157D01*
X35246Y49147D01*
X35260Y49139D01*
X35273Y49132D01*
X35285Y49128D01*
X35296Y49125D01*
X35306Y49125D01*
X35084Y48892D01*
X35083Y48901D01*
X35080Y48912D01*
X35075Y48924D01*
X35069Y48936D01*
X35060Y48950D01*
X35050Y48964D01*
X35008Y49013D01*
X34990Y49032D01*
X35164Y49217D01*
X35182Y49199D01*
D02*
G37*
G36*
X35544Y48877D02*
X35547Y48866D01*
X35551Y48854D01*
X35558Y48841D01*
X35566Y48827D01*
X35576Y48813D01*
X35588Y48797D01*
X35618Y48763D01*
X35636Y48745D01*
X35451Y48571D01*
X35432Y48589D01*
X35383Y48631D01*
X35369Y48641D01*
X35355Y48650D01*
X35343Y48656D01*
X35331Y48661D01*
X35320Y48664D01*
X35311Y48665D01*
X35544Y48887D01*
X35544Y48877D01*
D02*
G37*
G36*
X35791Y48736D02*
X35789Y48707D01*
X35792Y48677D01*
X35798Y48647D01*
X35809Y48617D01*
X35824Y48586D01*
X35842Y48555D01*
X35865Y48523D01*
X35892Y48491D01*
X35922Y48458D01*
X35741Y48281D01*
X35708Y48312D01*
X35676Y48338D01*
X35644Y48361D01*
X35613Y48380D01*
X35582Y48395D01*
X35551Y48406D01*
X35521Y48413D01*
X35492Y48416D01*
X35462Y48415D01*
X35433Y48409D01*
X35797Y48765D01*
X35791Y48736D01*
D02*
G37*
G36*
X44434Y47314D02*
X44443Y47264D01*
X44457Y47213D01*
X44476Y47161D01*
X44502Y47108D01*
X44533Y47054D01*
X44570Y47000D01*
X44613Y46944D01*
X44662Y46888D01*
X44717Y46831D01*
X44222Y46336D01*
X44165Y46391D01*
X44053Y46483D01*
X43999Y46520D01*
X43945Y46551D01*
X43892Y46577D01*
X43840Y46596D01*
X43789Y46610D01*
X43739Y46619D01*
X43689Y46621D01*
X44432Y47363D01*
X44434Y47314D01*
D02*
G37*
G36*
X35254Y46208D02*
X35286Y46180D01*
X35317Y46156D01*
X35349Y46135D01*
X35380Y46118D01*
X35411Y46105D01*
X35441Y46094D01*
X35471Y46087D01*
X35501Y46084D01*
X35530Y46084D01*
X35374Y45979D01*
X35448Y46012D01*
X35470Y45990D01*
X35534Y45936D01*
X35554Y45921D01*
X35595Y45896D01*
X35614Y45886D01*
X35634Y45877D01*
X35653Y45870D01*
X35277Y45683D01*
X35282Y45704D01*
X35285Y45725D01*
X35285Y45747D01*
X35282Y45768D01*
X35275Y45790D01*
X35266Y45812D01*
X35254Y45834D01*
X35239Y45856D01*
X35222Y45877D01*
X35109Y45800D01*
X35119Y45826D01*
X35124Y45853D01*
X35125Y45881D01*
X35122Y45910D01*
X35114Y45939D01*
X35101Y45969D01*
X35084Y45999D01*
X35062Y46030D01*
X35036Y46062D01*
X35005Y46095D01*
X35221Y46239D01*
X35254Y46208D01*
D02*
G37*
G36*
X35861Y45559D02*
X35864Y45536D01*
X35869Y45513D01*
X35877Y45490D01*
X35887Y45467D01*
X35899Y45445D01*
X35913Y45422D01*
X35930Y45400D01*
X35948Y45377D01*
X35955Y45371D01*
X36044Y45460D01*
X36039Y45431D01*
X36037Y45402D01*
X36040Y45372D01*
X36047Y45342D01*
X36058Y45312D01*
X36072Y45281D01*
X36091Y45250D01*
X36114Y45218D01*
X36141Y45186D01*
X36171Y45153D01*
X35992Y44974D01*
X35959Y45004D01*
X35927Y45031D01*
X35895Y45054D01*
X35864Y45073D01*
X35833Y45087D01*
X35803Y45098D01*
X35773Y45105D01*
X35743Y45108D01*
X35714Y45106D01*
X35685Y45101D01*
X35774Y45190D01*
X35768Y45197D01*
X35745Y45215D01*
X35723Y45232D01*
X35700Y45246D01*
X35678Y45258D01*
X35655Y45268D01*
X35632Y45276D01*
X35609Y45281D01*
X35586Y45284D01*
X35563Y45285D01*
X35860Y45582D01*
X35861Y45559D01*
D02*
G37*
G36*
X42972Y45726D02*
X43020Y45695D01*
X43076Y45667D01*
X43139Y45643D01*
X43210Y45623D01*
X43288Y45607D01*
X43373Y45595D01*
X43567Y45582D01*
X43674Y45581D01*
X42932Y44839D01*
X42931Y44946D01*
X42918Y45139D01*
X42906Y45225D01*
X42890Y45303D01*
X42870Y45374D01*
X42846Y45437D01*
X42818Y45493D01*
X42787Y45541D01*
X42751Y45582D01*
X42931Y45762D01*
X42972Y45726D01*
D02*
G37*
G36*
Y43186D02*
X43020Y43155D01*
X43076Y43127D01*
X43139Y43103D01*
X43210Y43083D01*
X43288Y43067D01*
X43373Y43055D01*
X43567Y43042D01*
X43674Y43041D01*
X42932Y42299D01*
X42931Y42406D01*
X42918Y42599D01*
X42906Y42685D01*
X42890Y42763D01*
X42870Y42834D01*
X42846Y42897D01*
X42818Y42953D01*
X42787Y43001D01*
X42751Y43042D01*
X42931Y43222D01*
X42972Y43186D01*
D02*
G37*
G36*
X33869Y42407D02*
X33901Y42380D01*
X33933Y42355D01*
X33964Y42335D01*
X33995Y42317D01*
X34026Y42304D01*
X34056Y42293D01*
X34086Y42286D01*
X34116Y42283D01*
X34145Y42282D01*
X33722Y42002D01*
X33732Y42028D01*
X33738Y42055D01*
X33739Y42083D01*
X33735Y42111D01*
X33727Y42140D01*
X33715Y42170D01*
X33698Y42200D01*
X33676Y42232D01*
X33650Y42264D01*
X33619Y42296D01*
X33837Y42438D01*
X33869Y42407D01*
D02*
G37*
G36*
X34265Y41993D02*
X33965Y41885D01*
X33968Y41894D01*
X33969Y41904D01*
X33967Y41916D01*
X33964Y41928D01*
X33958Y41941D01*
X33949Y41956D01*
X33939Y41971D01*
X33910Y42005D01*
X33893Y42023D01*
X34206Y42068D01*
X34265Y41993D01*
D02*
G37*
G36*
X34456Y41818D02*
X34411Y41505D01*
X34393Y41522D01*
X34359Y41551D01*
X34344Y41561D01*
X34329Y41570D01*
X34316Y41576D01*
X34304Y41579D01*
X34292Y41581D01*
X34282Y41580D01*
X34273Y41577D01*
X34381Y41877D01*
X34456Y41818D01*
D02*
G37*
G36*
X34671Y41728D02*
X34674Y41698D01*
X34681Y41668D01*
X34692Y41638D01*
X34705Y41607D01*
X34723Y41576D01*
X34743Y41545D01*
X34768Y41513D01*
X34795Y41481D01*
X34826Y41449D01*
X34684Y41231D01*
X34652Y41262D01*
X34620Y41288D01*
X34588Y41310D01*
X34558Y41327D01*
X34528Y41339D01*
X34499Y41347D01*
X34471Y41351D01*
X34443Y41350D01*
X34416Y41344D01*
X34390Y41333D01*
X34670Y41757D01*
X34671Y41728D01*
D02*
G37*
G36*
X28904Y41002D02*
X28938Y40977D01*
X28976Y40956D01*
X29017Y40937D01*
X29061Y40921D01*
X29109Y40908D01*
X29160Y40898D01*
X29214Y40891D01*
X29271Y40887D01*
X29332Y40886D01*
X28837Y40391D01*
X28836Y40452D01*
X28832Y40510D01*
X28825Y40564D01*
X28816Y40615D01*
X28803Y40662D01*
X28787Y40707D01*
X28768Y40748D01*
X28746Y40785D01*
X28721Y40820D01*
X28693Y40851D01*
X28873Y41030D01*
X28904Y41002D01*
D02*
G37*
G36*
X42999Y39441D02*
X42964Y39512D01*
X42927Y39576D01*
X42888Y39632D01*
X42846Y39680D01*
X42802Y39721D01*
X42756Y39755D01*
X42708Y39781D01*
X42658Y39800D01*
X42606Y39811D01*
X42551Y39814D01*
X42552Y40068D01*
X42612Y40071D01*
X42674Y40080D01*
X42737Y40094D01*
X42803Y40115D01*
X42871Y40140D01*
X42940Y40172D01*
X43012Y40210D01*
X43162Y40302D01*
X43239Y40356D01*
X42999Y39441D01*
D02*
G37*
G36*
X32632Y46678D02*
Y43075D01*
X32661Y42926D01*
X32745Y42800D01*
X33465Y42081D01*
X33469Y42076D01*
X33469Y42075D01*
X33468Y42074D01*
X33417Y41882D01*
Y41684D01*
X33468Y41492D01*
X33568Y41320D01*
X33708Y41180D01*
X33880Y41080D01*
X34072Y41029D01*
X34270D01*
X34462Y41080D01*
X34463Y41081D01*
X34464Y41081D01*
X34469Y41077D01*
X34660Y40885D01*
X34786Y40801D01*
X34935Y40772D01*
X40546D01*
X40594Y40594D01*
X40525Y40554D01*
X40339Y40367D01*
X40206Y40139D01*
X40170Y40001D01*
X41142D01*
Y39751D01*
X41392D01*
Y38779D01*
X41529Y38815D01*
X41758Y38948D01*
X41945Y39135D01*
X42078Y39363D01*
X42130Y39561D01*
X42182Y39598D01*
X42266Y39630D01*
X42324Y39635D01*
X42402Y39583D01*
X42527Y39558D01*
X42533Y39556D01*
X42537Y39556D01*
X42551Y39553D01*
X42572D01*
X42586Y39550D01*
X42601Y39545D01*
X42617Y39536D01*
X42636Y39522D01*
X42658Y39501D01*
X42683Y39473D01*
X42709Y39435D01*
X42736Y39389D01*
X42744Y39373D01*
X42746Y39363D01*
X42761Y39338D01*
X42767Y39327D01*
X42771Y39321D01*
X42773Y39317D01*
X42775Y39311D01*
X42780Y39305D01*
X42879Y39135D01*
X43065Y38948D01*
X43294Y38815D01*
X43550Y38747D01*
X43814D01*
X44069Y38815D01*
X44298Y38948D01*
X44485Y39135D01*
X44618Y39363D01*
X44686Y39619D01*
Y39883D01*
X44618Y40139D01*
X44485Y40367D01*
X44298Y40554D01*
X44069Y40687D01*
X43814Y40755D01*
X43550D01*
X43294Y40687D01*
X43112Y40581D01*
X43109Y40580D01*
X43106Y40578D01*
X43065Y40554D01*
X43053Y40542D01*
X43019Y40518D01*
X42884Y40435D01*
X42827Y40405D01*
X42771Y40380D01*
X42719Y40360D01*
X42691Y40351D01*
X41732Y41310D01*
X41755Y41486D01*
X41758Y41488D01*
X41945Y41675D01*
X42078Y41903D01*
X42146Y42159D01*
Y42423D01*
X42078Y42679D01*
X41945Y42907D01*
X41758Y43094D01*
X41690Y43134D01*
X41738Y43312D01*
X42112D01*
X42580Y42843D01*
X42593Y42824D01*
X42608Y42793D01*
X42623Y42753D01*
X42638Y42701D01*
X42651Y42640D01*
X42660Y42572D01*
X42672Y42396D01*
X42673Y42297D01*
X42678Y42273D01*
Y42159D01*
X42746Y41903D01*
X42879Y41675D01*
X43065Y41488D01*
X43294Y41355D01*
X43550Y41287D01*
X43814D01*
X44069Y41355D01*
X44298Y41488D01*
X44485Y41675D01*
X44618Y41903D01*
X44686Y42159D01*
Y42423D01*
X44618Y42679D01*
X44485Y42907D01*
X44298Y43094D01*
X44069Y43227D01*
X43814Y43295D01*
X43700D01*
X43676Y43300D01*
X43576Y43301D01*
X43401Y43313D01*
X43333Y43322D01*
X43271Y43335D01*
X43220Y43350D01*
X43179Y43365D01*
X43149Y43380D01*
X43130Y43393D01*
X42548Y43975D01*
X42422Y44059D01*
X42273Y44088D01*
X42051D01*
X41975Y44266D01*
X42078Y44443D01*
X42146Y44699D01*
Y44963D01*
X42078Y45219D01*
X41945Y45447D01*
X41758Y45634D01*
X41690Y45674D01*
X41738Y45852D01*
X42112D01*
X42580Y45383D01*
X42593Y45364D01*
X42608Y45333D01*
X42623Y45293D01*
X42638Y45241D01*
X42651Y45180D01*
X42660Y45112D01*
X42672Y44936D01*
X42673Y44837D01*
X42678Y44813D01*
Y44699D01*
X42746Y44443D01*
X42879Y44215D01*
X43065Y44028D01*
X43294Y43895D01*
X43550Y43827D01*
X43814D01*
X44069Y43895D01*
X44298Y44028D01*
X44485Y44215D01*
X44618Y44443D01*
X44686Y44699D01*
Y44963D01*
X44618Y45219D01*
X44485Y45447D01*
X44613Y45569D01*
X44977Y45205D01*
Y36987D01*
X44797Y36807D01*
X44638Y36899D01*
X44686Y37079D01*
Y37343D01*
X44618Y37599D01*
X44485Y37827D01*
X44298Y38014D01*
X44069Y38147D01*
X43814Y38215D01*
X43550D01*
X43294Y38147D01*
X43065Y38014D01*
X42879Y37827D01*
X42746Y37599D01*
X42678Y37343D01*
Y37229D01*
X42673Y37205D01*
X42672Y37106D01*
X42660Y36930D01*
X42651Y36862D01*
X42638Y36801D01*
X42623Y36749D01*
X42608Y36709D01*
X42593Y36678D01*
X42580Y36659D01*
X41362Y35440D01*
X34324D01*
X34317Y35441D01*
X34298Y35444D01*
X34285Y35448D01*
X34279Y35450D01*
X34277Y35452D01*
X34266Y35463D01*
X34236Y35515D01*
X34096Y35655D01*
X33924Y35755D01*
X33732Y35806D01*
X33533D01*
X33342Y35755D01*
X33170Y35655D01*
X33029Y35515D01*
X32999Y35463D01*
X32988Y35452D01*
X32986Y35450D01*
X32981Y35448D01*
X32967Y35444D01*
X32949Y35441D01*
X32941Y35440D01*
X30133D01*
X29732Y35842D01*
X29739Y35861D01*
X29750Y35883D01*
X29764Y35909D01*
X29783Y35937D01*
X29807Y35968D01*
X29835Y36000D01*
X29855Y36020D01*
X29871Y36030D01*
X29910Y36044D01*
X30031Y36060D01*
X30093Y36024D01*
X30144Y35973D01*
X30316Y35874D01*
X30508Y35822D01*
X30706D01*
X30898Y35874D01*
X31070Y35973D01*
X31210Y36113D01*
X31310Y36285D01*
X31361Y36477D01*
Y36676D01*
X31310Y36867D01*
X31210Y37039D01*
X31160Y37090D01*
X31089Y37211D01*
X31160Y37333D01*
X31210Y37383D01*
X31310Y37555D01*
X31361Y37747D01*
Y37946D01*
X31310Y38137D01*
X31210Y38309D01*
X31160Y38360D01*
X31089Y38481D01*
X31160Y38603D01*
X31210Y38653D01*
X31310Y38825D01*
X31361Y39017D01*
Y39216D01*
X31310Y39407D01*
X31210Y39579D01*
X31160Y39630D01*
X31089Y39751D01*
X31160Y39873D01*
X31210Y39923D01*
X31310Y40095D01*
X31354Y40259D01*
X30607D01*
Y40513D01*
X31354D01*
X31310Y40677D01*
X31210Y40849D01*
X31160Y40900D01*
X31089Y41021D01*
X31160Y41143D01*
X31210Y41193D01*
X31310Y41365D01*
X31354Y41529D01*
X30607D01*
Y41783D01*
X31354D01*
X31310Y41947D01*
X31210Y42119D01*
X31160Y42170D01*
X31089Y42291D01*
X31160Y42413D01*
X31210Y42463D01*
X31310Y42635D01*
X31354Y42799D01*
X30607D01*
Y43053D01*
X31354D01*
X31310Y43217D01*
X31210Y43389D01*
X31160Y43440D01*
X31089Y43561D01*
X31160Y43683D01*
X31210Y43733D01*
X31310Y43905D01*
X31361Y44097D01*
Y44296D01*
X31310Y44487D01*
X31210Y44659D01*
X31160Y44710D01*
X31089Y44831D01*
X31160Y44953D01*
X31210Y45003D01*
X31310Y45175D01*
X31354Y45339D01*
X30607D01*
Y45593D01*
X31354D01*
X31310Y45757D01*
X31210Y45929D01*
X31160Y45980D01*
X31089Y46101D01*
X31160Y46223D01*
X31210Y46273D01*
X31310Y46445D01*
X31361Y46637D01*
Y46836D01*
X31310Y47027D01*
X31210Y47199D01*
X31160Y47250D01*
X31089Y47371D01*
X31160Y47493D01*
X31210Y47543D01*
X31310Y47715D01*
X31317Y47742D01*
X31515Y47795D01*
X32632Y46678D01*
D02*
G37*
G36*
X43674Y36461D02*
X43567Y36460D01*
X43373Y36447D01*
X43288Y36435D01*
X43210Y36419D01*
X43139Y36399D01*
X43076Y36375D01*
X43020Y36347D01*
X42972Y36316D01*
X42931Y36280D01*
X42751Y36460D01*
X42787Y36501D01*
X42818Y36549D01*
X42846Y36605D01*
X42870Y36668D01*
X42890Y36739D01*
X42906Y36817D01*
X42918Y36903D01*
X42931Y37096D01*
X42932Y37203D01*
X43674Y36461D01*
D02*
G37*
G36*
X29645Y36176D02*
X29607Y36132D01*
X29573Y36089D01*
X29544Y36046D01*
X29520Y36003D01*
X29500Y35961D01*
X29484Y35918D01*
X29473Y35876D01*
X29466Y35834D01*
X29464Y35793D01*
X29210D01*
X29208Y35834D01*
X29201Y35876D01*
X29190Y35918D01*
X29174Y35961D01*
X29154Y36003D01*
X29130Y36046D01*
X29101Y36089D01*
X29067Y36132D01*
X29029Y36176D01*
X28987Y36219D01*
X29687D01*
X29645Y36176D01*
D02*
G37*
G36*
X33805Y35207D02*
X33814Y35201D01*
X33826Y35196D01*
X33839Y35191D01*
X33855Y35188D01*
X33872Y35184D01*
X33913Y35180D01*
X33937Y35179D01*
X33962Y35179D01*
Y34925D01*
X33937Y34925D01*
X33872Y34920D01*
X33855Y34917D01*
X33839Y34913D01*
X33826Y34908D01*
X33814Y34903D01*
X33805Y34897D01*
X33797Y34891D01*
Y35213D01*
X33805Y35207D01*
D02*
G37*
G36*
X33468Y34891D02*
X33461Y34897D01*
X33451Y34903D01*
X33439Y34908D01*
X33426Y34913D01*
X33410Y34917D01*
X33393Y34920D01*
X33328Y34925D01*
X33303Y34925D01*
Y35179D01*
X33328Y35179D01*
X33352Y35180D01*
X33393Y35184D01*
X33410Y35188D01*
X33426Y35191D01*
X33439Y35196D01*
X33451Y35201D01*
X33461Y35207D01*
X33468Y35213D01*
Y34891D01*
D02*
G37*
G36*
X34080Y35282D02*
X34100Y35260D01*
X34122Y35241D01*
X34148Y35225D01*
X34178Y35211D01*
X34210Y35199D01*
X34245Y35190D01*
X34284Y35184D01*
X34325Y35180D01*
X34370Y35179D01*
Y34925D01*
X34325Y34924D01*
X34284Y34920D01*
X34245Y34914D01*
X34210Y34905D01*
X34178Y34893D01*
X34148Y34879D01*
X34122Y34863D01*
X34100Y34844D01*
X34080Y34822D01*
X34063Y34798D01*
Y35306D01*
X34080Y35282D01*
D02*
G37*
G36*
X33202Y34798D02*
X33185Y34822D01*
X33166Y34844D01*
X33143Y34863D01*
X33117Y34879D01*
X33088Y34893D01*
X33056Y34905D01*
X33020Y34914D01*
X32982Y34920D01*
X32940Y34924D01*
X32895Y34925D01*
Y35179D01*
X32940Y35180D01*
X32982Y35184D01*
X33020Y35190D01*
X33056Y35199D01*
X33088Y35211D01*
X33117Y35225D01*
X33143Y35241D01*
X33166Y35260D01*
X33185Y35282D01*
X33202Y35306D01*
Y34798D01*
D02*
G37*
G36*
X28747Y38323D02*
X28734Y38309D01*
X28634Y38137D01*
X28583Y37946D01*
Y37747D01*
X28634Y37555D01*
X28734Y37383D01*
X28784Y37333D01*
X28856Y37211D01*
X28784Y37090D01*
X28734Y37039D01*
X28634Y36867D01*
X28583Y36676D01*
Y36477D01*
X28634Y36285D01*
X28734Y36113D01*
X28788Y36059D01*
X28801Y36039D01*
X28839Y36000D01*
X28867Y35968D01*
X28891Y35937D01*
X28910Y35909D01*
X28924Y35883D01*
X28935Y35861D01*
X28943Y35840D01*
X28947Y35823D01*
X28949Y35816D01*
Y35687D01*
X28978Y35538D01*
X29062Y35412D01*
X29697Y34777D01*
X29823Y34693D01*
X29972Y34664D01*
X32941D01*
X32949Y34663D01*
X32967Y34660D01*
X32981Y34656D01*
X32986Y34654D01*
X32988Y34652D01*
X32999Y34641D01*
X33029Y34589D01*
X33170Y34449D01*
X33342Y34349D01*
X33533Y34298D01*
X33732D01*
X33924Y34349D01*
X34096Y34449D01*
X34236Y34589D01*
X34266Y34641D01*
X34277Y34652D01*
X34279Y34654D01*
X34285Y34656D01*
X34298Y34660D01*
X34317Y34663D01*
X34324Y34664D01*
X41523D01*
X41672Y34693D01*
X41798Y34777D01*
X43130Y36109D01*
X43149Y36122D01*
X43179Y36137D01*
X43220Y36152D01*
X43271Y36167D01*
X43333Y36180D01*
X43401Y36189D01*
X43576Y36201D01*
X43676Y36202D01*
X43700Y36207D01*
X43814D01*
X43994Y36255D01*
X44086Y36096D01*
X41733Y33743D01*
X30573D01*
X30478Y33745D01*
X30371Y33752D01*
X30368Y33752D01*
X30234Y33830D01*
X30042Y33881D01*
X29843D01*
X29651Y33830D01*
X29542Y33767D01*
X29028Y33743D01*
X28469D01*
X27540Y34672D01*
Y38226D01*
X27814Y38500D01*
X28673D01*
X28747Y38323D01*
D02*
G37*
G36*
X30277Y33505D02*
X30305Y33499D01*
X30346Y33494D01*
X30467Y33486D01*
X31000Y33477D01*
Y32777D01*
X30263Y32743D01*
Y33511D01*
X30277Y33505D01*
D02*
G37*
G36*
X29622Y32743D02*
X29608Y32750D01*
X29580Y32756D01*
X29539Y32761D01*
X29418Y32769D01*
X28885Y32777D01*
Y33477D01*
X29622Y33511D01*
Y32743D01*
D02*
G37*
%LPC*%
G36*
X40892Y39501D02*
X40170D01*
X40206Y39363D01*
X40339Y39135D01*
X40525Y38948D01*
X40754Y38815D01*
X40892Y38779D01*
Y39501D01*
D02*
G37*
G36*
X41392Y38183D02*
Y37461D01*
X42114D01*
X42078Y37599D01*
X41945Y37827D01*
X41758Y38014D01*
X41529Y38147D01*
X41392Y38183D01*
D02*
G37*
G36*
X40892D02*
X40754Y38147D01*
X40525Y38014D01*
X40339Y37827D01*
X40206Y37599D01*
X40170Y37461D01*
X40892D01*
Y38183D01*
D02*
G37*
G36*
X42114Y36961D02*
X41392D01*
Y36239D01*
X41529Y36275D01*
X41758Y36408D01*
X41945Y36595D01*
X42078Y36823D01*
X42114Y36961D01*
D02*
G37*
G36*
X40892D02*
X40170D01*
X40206Y36823D01*
X40339Y36595D01*
X40525Y36408D01*
X40754Y36275D01*
X40892Y36239D01*
Y36961D01*
D02*
G37*
%LPD*%
D11*
X35560Y45585D02*
X37445Y43700D01*
X35560Y45585D02*
Y45720D01*
X31369Y49911D02*
X35560Y45720D01*
X37445Y43700D02*
X42273D01*
X27686Y50546D02*
X33655D01*
X37961Y46240D02*
X42273D01*
X33655Y50546D02*
X37961Y46240D01*
X26797Y49911D02*
X31369D01*
X33020Y43075D02*
X34935Y41160D01*
X30972Y48887D02*
X33020Y46839D01*
Y43075D02*
Y46839D01*
X27791Y47796D02*
X28883Y48887D01*
X30972D01*
X34935Y41160D02*
X41332D01*
X27791Y41932D02*
Y47796D01*
Y41932D02*
X29337Y40386D01*
X41332Y41160D02*
X42551Y39941D01*
X43491D01*
X43682Y39751D01*
X29218Y43045D02*
X29337Y42926D01*
X42273Y43700D02*
X43682Y42291D01*
X42273Y46240D02*
X43682Y44831D01*
X29337Y35687D02*
X29972Y35052D01*
X29337Y35687D02*
Y36576D01*
X29972Y35052D02*
X41523D01*
X43682Y37211D01*
D12*
X29942Y33127D02*
D03*
X32000Y30000D02*
D03*
X36144Y51766D02*
D03*
X35560Y45585D02*
D03*
X35314Y48895D02*
D03*
X34171Y41783D02*
D03*
X33633Y35052D02*
D03*
X27635Y51766D02*
D03*
X31889D02*
D03*
X29337Y15406D02*
D03*
X30607D02*
D03*
X29337Y16676D02*
D03*
X30607D02*
D03*
X29337Y17946D02*
D03*
Y19216D02*
D03*
X30607D02*
D03*
X29337Y20486D02*
D03*
X30607D02*
D03*
X29337Y21756D02*
D03*
X30607D02*
D03*
X29337Y23026D02*
D03*
X30607D02*
D03*
Y17946D02*
D03*
Y39116D02*
D03*
Y48006D02*
D03*
X29337D02*
D03*
X30607Y46736D02*
D03*
X29337D02*
D03*
X30607Y45466D02*
D03*
X29337D02*
D03*
X30607Y44196D02*
D03*
X29337D02*
D03*
X30607Y42926D02*
D03*
X29337D02*
D03*
X30607Y41656D02*
D03*
X29337D02*
D03*
X30607Y40386D02*
D03*
X29337D02*
D03*
Y39116D02*
D03*
X30607Y37846D02*
D03*
X29337D02*
D03*
X30607Y36576D02*
D03*
X29337D02*
D03*
D15*
X26924Y34417D02*
X28214Y33127D01*
X26924Y38481D02*
X27559Y39116D01*
X26924Y34417D02*
Y38481D01*
X28214Y33127D02*
X29942D01*
X41988D01*
X45593Y36732D01*
X43682Y47371D02*
X45593Y45460D01*
Y36732D02*
Y45460D01*
X27559Y39116D02*
X29337D01*
D16*
X43682Y37211D02*
D03*
X41142D02*
D03*
X43682Y39751D02*
D03*
X41142D02*
D03*
X43682Y42291D02*
D03*
X41142D02*
D03*
X43682Y44831D02*
D03*
X41142D02*
D03*
X43682Y47371D02*
D03*
X41142D02*
D03*
D17*
X32000Y30000D02*
D03*
X45000Y52000D02*
D03*
X44000Y50000D02*
D03*
X45000Y48000D02*
D03*
Y32000D02*
D03*
X44000Y30000D02*
D03*
X45000Y28000D02*
D03*
X44000Y26000D02*
D03*
X45000Y24000D02*
D03*
X44000Y22000D02*
D03*
X45000Y20000D02*
D03*
X44000Y18000D02*
D03*
X45000Y16000D02*
D03*
X44000Y14000D02*
D03*
X43000Y52000D02*
D03*
X42000Y50000D02*
D03*
X43000Y32000D02*
D03*
X42000Y30000D02*
D03*
X43000Y28000D02*
D03*
X42000Y26000D02*
D03*
X43000Y24000D02*
D03*
X42000Y22000D02*
D03*
X43000Y20000D02*
D03*
X42000Y18000D02*
D03*
X43000Y16000D02*
D03*
X42000Y14000D02*
D03*
X41000Y52000D02*
D03*
X40000Y50000D02*
D03*
Y38000D02*
D03*
X41000Y32000D02*
D03*
X40000Y30000D02*
D03*
X41000Y28000D02*
D03*
X40000Y26000D02*
D03*
X41000Y24000D02*
D03*
X40000Y22000D02*
D03*
X41000Y20000D02*
D03*
X40000Y18000D02*
D03*
X41000Y16000D02*
D03*
X40000Y14000D02*
D03*
X39000Y52000D02*
D03*
Y48000D02*
D03*
X38000Y42000D02*
D03*
X39000Y40000D02*
D03*
X38000Y38000D02*
D03*
X39000Y36000D02*
D03*
Y32000D02*
D03*
X38000Y30000D02*
D03*
X39000Y28000D02*
D03*
X38000Y26000D02*
D03*
X39000Y24000D02*
D03*
X38000Y22000D02*
D03*
X39000Y20000D02*
D03*
X38000Y18000D02*
D03*
X39000Y16000D02*
D03*
X38000Y14000D02*
D03*
X36000Y42000D02*
D03*
X37000Y40000D02*
D03*
X36000Y38000D02*
D03*
X37000Y36000D02*
D03*
Y32000D02*
D03*
X36000Y30000D02*
D03*
X37000Y28000D02*
D03*
X36000Y26000D02*
D03*
X37000Y24000D02*
D03*
X36000Y22000D02*
D03*
X37000Y20000D02*
D03*
X36000Y18000D02*
D03*
X37000Y16000D02*
D03*
X36000Y14000D02*
D03*
X35000Y52000D02*
D03*
X34000Y46000D02*
D03*
X35000Y44000D02*
D03*
Y40000D02*
D03*
X34000Y38000D02*
D03*
X35000Y36000D02*
D03*
Y32000D02*
D03*
X34000Y30000D02*
D03*
X35000Y28000D02*
D03*
X34000Y26000D02*
D03*
X35000Y24000D02*
D03*
X34000Y22000D02*
D03*
X35000Y20000D02*
D03*
X34000Y18000D02*
D03*
X35000Y16000D02*
D03*
X34000Y14000D02*
D03*
X32000Y46000D02*
D03*
Y42000D02*
D03*
X33000Y40000D02*
D03*
X32000Y38000D02*
D03*
X33000Y36000D02*
D03*
Y32000D02*
D03*
Y28000D02*
D03*
X32000Y26000D02*
D03*
X33000Y24000D02*
D03*
X32000Y22000D02*
D03*
X33000Y20000D02*
D03*
X32000Y18000D02*
D03*
X33000Y16000D02*
D03*
X32000Y14000D02*
D03*
X31000Y32000D02*
D03*
X30000Y30000D02*
D03*
X31000Y28000D02*
D03*
X30000Y26000D02*
D03*
Y14000D02*
D03*
X28000Y38000D02*
D03*
X29000Y32000D02*
D03*
X28000Y30000D02*
D03*
X29000Y28000D02*
D03*
X28000Y26000D02*
D03*
Y22000D02*
D03*
Y18000D02*
D03*
Y14000D02*
D03*
X29942Y33127D02*
D03*
X35560Y45585D02*
D03*
D18*
X26797Y49911D02*
D03*
X27686Y50546D02*
D03*
X31889Y51766D02*
D03*
X33633Y35052D02*
D03*
X34171Y41783D02*
D03*
X35314Y48895D02*
D03*
X27635Y51766D02*
D03*
X36144D02*
D03*
M02*
