M48
;Layer_Color=9474304
;FILE_FORMAT=4:3
METRIC,TZ
;TYPE=PLATED
T1F00S00C0.300
T2F00S00C1.400
T3F00S00C1.500
%
T01
X32800Y3163
X36900Y3163
X38950Y7263
X34850Y7263
X32800Y11363
X36900Y11363
X41000Y11363
X43175Y13025
X45100Y11363
X48030Y12687
X47150Y7263
X51250Y7263
X55350Y7263
X59450Y7263
X63550Y7263
X67650Y7263
X71750Y7263
X75850Y7263
X73800Y3163
X77900Y3163
X69700Y3163
X65600Y3163
X61500Y3163
X57400Y3163
X53300Y3163
X49200Y3163
X45100Y3163
X41000Y3163
X43050Y7263
X54966Y11743
X56916Y11743
X57400Y11363
X58866Y11743
X60816Y11743
X61500Y11363
X59687Y13557
X57737Y13557
X55787Y13557
X53837Y13557
X69700Y11363
X79950Y7263
X84050Y7263
X88150Y7263
X92250Y7263
X96350Y7263
X100450Y7263
X104550Y7263
X108650Y7263
X112750Y7263
X110700Y11363
X106600Y11363
X102500Y11363
X98400Y11363
X94300Y11363
X90200Y11363
X90200Y3163
X94300Y3163
X98400Y3163
X102500Y3163
X106600Y3163
X110700Y3163
X86100Y3163
X82000Y3163
X79950Y15463
X81743Y18461
X84543Y17741
X85127Y19601
X86100Y19563
X85804Y21429
X86300Y24150
X86300Y25350
X87200Y26350
X85525Y27425
X85725Y30450
X84050Y31863
X79950Y31863
X79989Y32575
X82000Y35963
X84021Y36221
X84970Y37838
X84615Y39828
X84050Y40063
X83592Y39216
X83151Y41116
X84477Y42356
X86257Y41559
X86565Y39848
X88515Y39793
X90156Y41607
X90200Y44163
X89892Y45695
X87942Y45693
X85992Y45693
X86100Y44163
X83282Y43897
X84042Y45693
X84258Y47507
X84050Y48263
X84299Y49505
X84899Y51086
X86100Y52363
X83824Y52930
X79424Y52930
X81124Y47809
X82074Y47780
X86208Y47507
X87300Y48200
X88158Y47507
X90033Y48041
X91440Y46882
X92507Y48514
X96350Y48263
X95938Y49547
X97878Y49355
X98592Y51169
X98400Y52363
X96654Y51380
X94550Y50917
X95275Y52758
X95294Y53775
X93172Y52297
X90713Y53776
X102500Y52363
X102500Y44163
X98400Y44163
X97956Y41607
X96006Y41607
X96315Y39792
X98265Y39792
X94365Y39792
X94300Y35963
X90200Y35963
X87728Y35080
X86779Y33463
X89107Y33701
X88158Y32084
X90486Y32322
X92250Y31863
X91865Y30943
X90916Y29326
X90200Y27763
X91993Y27701
X91993Y25751
X94500Y26725
X93807Y28024
X93546Y29956
X96350Y31863
X100450Y31863
X99925Y29125
X99075Y29125
X100575Y26550
X101325Y25125
X100450Y23663
X104550Y23663
X108650Y23663
X107929Y26190
X106975Y26175
X111626Y26175
X114737Y26175
X112750Y23663
X110700Y19563
X112750Y15463
X108650Y15463
X102500Y19563
X98400Y19563
X99102Y17533
X97152Y17556
X96400Y15813
X98347Y15719
X94986Y17156
X95773Y18935
X93607Y18535
X94394Y20314
X92229Y19915
X90200Y19563
X92250Y15463
X96350Y23663
X88150Y23663
X81726Y25116
X85400Y34842
X86349Y36459
X82642Y37600
X81264Y38978
X79992Y40457
X79968Y42406
X79968Y44356
X94300Y44163
X102500Y35963
X106600Y35963
X109625Y34750
X104550Y31863
X102500Y27763
X89537Y30705
X116850Y31863
X110175Y45204
X109325Y46006
X77900Y44163
X77525Y47675
X76575Y47700
X76518Y49517
X75483Y48911
X75327Y53069
X74087Y52318
X72637Y52318
X69737Y52362
X68288Y52318
X66838Y52318
X65388Y52318
X63938Y52318
X62488Y52318
X61038Y52318
X59620Y52622
X58350Y52975
X58595Y53647
X58500Y51325
X59116Y46335
X60785Y47772
X61500Y44163
X60591Y42670
X59450Y40063
X58687Y38507
X60637Y38507
X62587Y38507
X64537Y38507
X66487Y38507
X68437Y38507
X67425Y39725
X65375Y39725
X63550Y40063
X63701Y41229
X64709Y43905
X64709Y44805
X66900Y44305
X68300Y43730
X69650Y45550
X73800Y44163
X75850Y40063
X71750Y40063
X70824Y38504
X69867Y36693
X69700Y35963
X67917Y36693
X65967Y36693
X65600Y35963
X64017Y36693
X62067Y36693
X61500Y35963
X60117Y36693
X58167Y36693
X57400Y35963
X56385Y35902
X55208Y37291
X56737Y38503
X55241Y41994
X56929Y44138
X53300Y44163
X51555Y43576
X49200Y44163
X44625Y44778
X41000Y44163
X43050Y48263
X41000Y52363
X52675Y52925
X51250Y48263
X55350Y48263
X53081Y39836
X50554Y39429
X49054Y37929
X47900Y38225
X45950Y39180
X43050Y40063
X40056Y38153
X40056Y35641
X40056Y33084
X43699Y32849
X44843Y35532
X49200Y35963
X51975Y37200
X53830Y35913
X55006Y34523
X52451Y34534
X53627Y33144
X51072Y33155
X52248Y31765
X51873Y29656
X50869Y30386
X50494Y28277
X49490Y29007
X49200Y27763
X48090Y27650
X46145Y27518
X44195Y27518
X42245Y27518
X40295Y27518
X40831Y29332
X42781Y29332
X44731Y29332
X46681Y29332
X48314Y30397
X49693Y31776
X55350Y31863
X55900Y31325
X59193Y31226
X60100Y32950
X63097Y31443
X63550Y31863
X66175Y32250
X65500Y30600
X69775Y30600
X69625Y32250
X71750Y31863
X75126Y34557
X77038Y34944
X77900Y35963
X78746Y35169
X78049Y29068
X77900Y27763
X79150Y27975
X78975Y25350
X77572Y24700
X77561Y20250
X77900Y19563
X73800Y19563
X73801Y18807
X71981Y19507
X71269Y17693
X69321Y17780
X70529Y21752
X70850Y24000
X70850Y25225
X67846Y24506
X66029Y25213
X63525Y25250
X61425Y25850
X59450Y23663
X61425Y21400
X61500Y19563
X65600Y19563
X57400Y19563
X55025Y16725
X55350Y15463
X54200Y15825
X54200Y14625
X53400Y17975
X52875Y20800
X49982Y20041
X47075Y18450
X45575Y15750
X43050Y15463
X40574Y14913
X41082Y19761
X40056Y21384
X40056Y23955
X41326Y25567
X43276Y25567
X45226Y25567
X47176Y25567
X47150Y23663
X45226Y22775
X43228Y23479
X49126Y25567
X50974Y26191
X52353Y27569
X53300Y27763
X53791Y30007
X55900Y26875
X57400Y27763
X63675Y27900
X69400Y27925
X73800Y27763
X75180Y17428
X49293Y14526
X47343Y14512
X51250Y23663
X36540Y23945
X36500Y21414
X34650Y19825
X32800Y19563
X32925Y21364
X32875Y23889
X32800Y27763
X33920Y29674
X35000Y29060
X36931Y29332
X38881Y29332
X38345Y27518
X36395Y27518
X36172Y30575
X34850Y31863
X36625Y33125
X38950Y31863
X38950Y40063
X38950Y48263
X39265Y17013
X37442Y16838
X36124Y14913
X34850Y15463
X34646Y17642
X38950Y56463
X38950Y64663
X38950Y72863
X36900Y76963
X41175Y77750
X45100Y76963
X49200Y76963
X53300Y76963
X57400Y76963
X61500Y76963
X65600Y76963
X69700Y76963
X73800Y76963
X77900Y76963
X75850Y72863
X71750Y72863
X67650Y72863
X63550Y72863
X59450Y72863
X55350Y72863
X51250Y72863
X49200Y68763
X53300Y68763
X57400Y68763
X59450Y64663
X59476Y63883
X61291Y63782
X62625Y60912
X62752Y57857
X64202Y57857
X65652Y57857
X67650Y58217
X70157Y57685
X71343Y57425
X71343Y58875
X70157Y59135
X71776Y60259
X71475Y60950
X72801Y61284
X73157Y58635
X73157Y57185
X73838Y56455
X75850Y56463
X75532Y55840
X74507Y54815
X73228Y54132
X71802Y54755
X70373Y54508
X68923Y54493
X67473Y54493
X66023Y54493
X64573Y54493
X63123Y54493
X61673Y54493
X61307Y57982
X58800Y58403
X58043Y57446
X58175Y60912
X57400Y60563
X53300Y60563
X49200Y60563
X45100Y60563
X41000Y60563
X43050Y64663
X47150Y64663
X51250Y64663
X55350Y64663
X55350Y56463
X54294Y56436
X51250Y56463
X47150Y56463
X43050Y56463
X41000Y68763
X45100Y68763
X43050Y72863
X65600Y68763
X68594Y64385
X70409Y64924
X70409Y63474
X75124Y62975
X78232Y62566
X78232Y64016
X78305Y59970
X78608Y58916
X77583Y57891
X76558Y56866
X78403Y56145
X77378Y55120
X76352Y54094
X75137Y58525
X79354Y60971
X67025Y60711
X65600Y60563
X70467Y56269
X73800Y68763
X82000Y68763
X86100Y68763
X88150Y72863
X92250Y72863
X96350Y72863
X94300Y76963
X98400Y76963
X102500Y76963
X106600Y76963
X110700Y76963
X109602Y75294
X108650Y72863
X112750Y72863
X113100Y70550
X111061Y70520
X107929Y66710
X107025Y66700
X108650Y64663
X104550Y64663
X100450Y64663
X96350Y64663
X96957Y60440
X98885Y60732
X98281Y58918
X96769Y57686
X96350Y56463
X95390Y56307
X95300Y55125
X92937Y56196
X92250Y56463
X91052Y55696
X88150Y56463
X88574Y60091
X89428Y61263
X89433Y62713
X89433Y64163
X87618Y63571
X87618Y62121
X85500Y62625
X83518Y61307
X82068Y61307
X80659Y60967
X80046Y62245
X80046Y63695
X79633Y59942
X80453Y58195
X81079Y56955
X79428Y57170
X81479Y59221
X82903Y59493
X85500Y58175
X84274Y54706
X84050Y64663
X84050Y72863
X79950Y72863
X82000Y76963
X86100Y76963
X90200Y76963
X94300Y68763
X98400Y68763
X102500Y68763
X104550Y72863
X116850Y72863
X114800Y76963
X114500Y66725
X112977Y65440
X106600Y60563
X94300Y60563
X95578Y59061
X94199Y57682
X90200Y60563
T02
X65268Y12650
X74956Y12650
X84643Y12650
X102848Y16626
X102848Y40699
X102848Y50262
X79139Y68425
X69753Y68425
X60367Y68425
X88526Y68425
X102848Y59825
T03
X62718Y10100
X67818Y10100
X72406Y10100
X77506Y10100
X82093Y10100
X87193Y10100
X100298Y14076
X105398Y14076
X105398Y19176
X100298Y19176
X87193Y15200
X82093Y15200
X100298Y38149
X100298Y43249
X100298Y47712
X100298Y52812
X105398Y52812
X105398Y47712
X105398Y43249
X105398Y38149
X77506Y15200
X72406Y15200
X67818Y15200
X62718Y15200
X62917Y65875
X67203Y65875
X67203Y70975
X62917Y70975
X57817Y70975
X57817Y65875
X72303Y65875
X76589Y65875
X76589Y70975
X72303Y70975
X81689Y70975
X85976Y70975
X85976Y65875
X81689Y65875
X91076Y65875
X91076Y70975
X100298Y62375
X100298Y57275
X105398Y57275
X105398Y62375
M30
