M48
;Layer_Color=9474304
;FILE_FORMAT=4:3
METRIC,TZ
;TYPE=PLATED
T1F00S00C0.300
T2F00S00C1.400
T3F00S00C1.500
%
T01
X80000Y14463
X84000Y14463
X88000Y14463
X92000Y14463
X96000Y14463
X98000Y18463
X102000Y18463
X106000Y18463
X110000Y18463
X114000Y18463
X112000Y22463
X108000Y22463
X107929Y26190
X106975Y26175
X107931Y28730
X111730Y28730
X111739Y31270
X111767Y33810
X109629Y34875
X109000Y32325
X111716Y26190
X114517Y26190
X114517Y28730
X116000Y30463
X118000Y34463
X114000Y42463
X114000Y50463
X102000Y50463
X98000Y50463
X93802Y49675
X93150Y51800
X89400Y50200
X84550Y50400
X82450Y49225
X82450Y47025
X84075Y47471
X86300Y47689
X88000Y46463
X92000Y46463
X96000Y46463
X100000Y46463
X102000Y42463
X98000Y42463
X96000Y38463
X95782Y35407
X95299Y33593
X92524Y34593
X93084Y36599
X90438Y36679
X90858Y38535
X87907Y38546
X87488Y36731
X86000Y34463
X83000Y33225
X81304Y33225
X81825Y34850
X81588Y36731
X82007Y38546
X82000Y42463
X80000Y46463
X79800Y47275
X79775Y53100
X90000Y42463
X88000Y30463
X92000Y30463
X96000Y30463
X100000Y30463
X102000Y26463
X98000Y26463
X94000Y26463
X90000Y26463
X86000Y26463
X83581Y26422
X82425Y29182
X84575Y29750
X80000Y30463
X79475Y23775
X82175Y23506
X84000Y22463
X87400Y22625
X92000Y22463
X96000Y22463
X100000Y22463
X104000Y22463
X104000Y14463
X108000Y14463
X112000Y14463
X94000Y18463
X90000Y18463
X86000Y18463
X82000Y18463
X80650Y18400
X100000Y38463
X79057Y38546
X78638Y36731
X78000Y34463
X74767Y33174
X74900Y30450
X76800Y29850
X76150Y26225
X76000Y22463
X72000Y22463
X71784Y19875
X70115Y19354
X71775Y15750
X66575Y17050
X63000Y16021
X61325Y15375
X60725Y16930
X62000Y18463
X63725Y20150
X63900Y23200
X62250Y22554
X60000Y22463
X56000Y22463
X52000Y22463
X48000Y22463
X44000Y22463
X40000Y22463
X40022Y26190
X40899Y26199
X40020Y28730
X40035Y31270
X40044Y33810
X46000Y34463
X50000Y34463
X54000Y34463
X58000Y34463
X59794Y35066
X63472Y34816
X66000Y34463
X69860Y35160
X70741Y32344
X71691Y32250
X68000Y30463
X64000Y30463
X64059Y29449
X63600Y27341
X62000Y26463
X61514Y29427
X60000Y30463
X56000Y30463
X52000Y30463
X48000Y30463
X50000Y26463
X54000Y26463
X58000Y26463
X58000Y18463
X54000Y18463
X52025Y16650
X50000Y18463
X46000Y18463
X42000Y18463
X40000Y14463
X44000Y14463
X56000Y14463
X60000Y14463
X66575Y22900
X65707Y25276
X66145Y27363
X68700Y26625
X69825Y26575
X68494Y37775
X69207Y39804
X67393Y40512
X67393Y43462
X66000Y42463
X69207Y42754
X70412Y42497
X70534Y41549
X72586Y40503
X74742Y38974
X74980Y42243
X73637Y43299
X76626Y43385
X78000Y42463
X76795Y40439
X76000Y46463
X74757Y45667
X72000Y46463
X69207Y45704
X67393Y46412
X67393Y49362
X67189Y51475
X65919Y51918
X66000Y50463
X70000Y50463
X70575Y51268
X71850Y50575
X73000Y50000
X74000Y50463
X74133Y49627
X75800Y51225
X76954Y47636
X69207Y48654
X71250Y53476
X73594Y53825
X62000Y50463
X60000Y46463
X64000Y46463
X62000Y42463
X58000Y42463
X54000Y42463
X50000Y42463
X46000Y42463
X48000Y46463
X52000Y46463
X56000Y46463
X54000Y50463
X50000Y50463
X46000Y50463
X48000Y38463
X52000Y38463
X56000Y38463
X62084Y37419
X46000Y26463
X79250Y21000
X77850Y18400
X38000Y18463
X36000Y22463
X36235Y26190
X36221Y28730
X36212Y31270
X36184Y33810
X36000Y38463
X36000Y46463
X32000Y30463
X33010Y28730
X33010Y26190
X36000Y14463
X36000Y54463
X35450Y67200
X34250Y67225
X34225Y69700
X35625Y69700
X36212Y71270
X36184Y73810
X40035Y71270
X40020Y68730
X40022Y66190
X40890Y66190
X41939Y64147
X42625Y62109
X44000Y62463
X43275Y60361
X46000Y58463
X44000Y54463
X48000Y54463
X52000Y54463
X56000Y54463
X58000Y58463
X62000Y58463
X62084Y54719
X67800Y54800
X68500Y56625
X70000Y58463
X74000Y58463
X78000Y58463
X75800Y54750
X71850Y55075
X72000Y62463
X76000Y62463
X79225Y64075
X78575Y66650
X77725Y66650
X74000Y66463
X70000Y66463
X66000Y66463
X65700Y65217
X64471Y65200
X64000Y62463
X60000Y62463
X56775Y62275
X52000Y62463
X50550Y62256
X50550Y63050
X54000Y66463
X58000Y66463
X62000Y66463
X60000Y70463
X58375Y72775
X58375Y75392
X58398Y77655
X63784Y76825
X63784Y75335
X63781Y72775
X64000Y70463
X68000Y70463
X72000Y70463
X76000Y70463
X74594Y74715
X69188Y73925
X68071Y64216
X67171Y64216
X67571Y62025
X66996Y60625
X66000Y58463
X54000Y58463
X52000Y70463
X56000Y70463
X44000Y70463
X44781Y67742
X45746Y67742
X46000Y66463
X42000Y74463
X79997Y72775
X80000Y70463
X80565Y67742
X82000Y66463
X86000Y66463
X90000Y66463
X94000Y66463
X98000Y66463
X102000Y66463
X101850Y67742
X100975Y67742
X100975Y63600
X100975Y62726
X100000Y62463
X104000Y62463
X106350Y64100
X108250Y63175
X110550Y62750
X107929Y66710
X107025Y66700
X107931Y69250
X108000Y70463
X107916Y71790
X104000Y70463
X96000Y70463
X92875Y71350
X88000Y70463
X84000Y70463
X84000Y62463
X88000Y62463
X92000Y62463
X96000Y62463
X98000Y58463
X94000Y58463
X90000Y58463
X85450Y59300
X82000Y58463
X80000Y54463
X84000Y54463
X84529Y53925
X88000Y54463
X92000Y54463
X93650Y53925
X96000Y54463
X100000Y54463
X114000Y58463
X114050Y67500
X112675Y67500
X112350Y70025
X114125Y70000
X113150Y72575
X111767Y74330
X118000Y74463
X118000Y66463
X79975Y62650
T02
X100150Y34500
X61675Y35525
X61675Y52825
T03
X97600Y31950
X97600Y37050
X102700Y37050
X102700Y31950
X64225Y32975
X64225Y38075
X59125Y38075
X59125Y32975
X59125Y50275
X64225Y50275
X64225Y55375
X59125Y55375
M30
