G04*
G04 #@! TF.GenerationSoftware,Altium Limited,Altium Designer,23.0.1 (38)*
G04*
G04 Layer_Color=8421504*
%FSLAX43Y43*%
%MOMM*%
G71*
G04*
G04 #@! TF.SameCoordinates,E6CB2E86-431E-4534-89A5-8C88B75FC072*
G04*
G04*
G04 #@! TF.FilePolarity,Positive*
G04*
G01*
G75*
%ADD14R,1.000X2.000*%
%ADD15R,0.650X2.000*%
%ADD16R,0.500X0.500*%
%ADD17R,0.500X0.500*%
%ADD18R,1.000X1.000*%
%ADD19R,2.200X1.050*%
G04:AMPARAMS|DCode=20|XSize=1mm|YSize=2.5mm|CornerRadius=0.25mm|HoleSize=0mm|Usage=FLASHONLY|Rotation=90.000|XOffset=0mm|YOffset=0mm|HoleType=Round|Shape=RoundedRectangle|*
%AMROUNDEDRECTD20*
21,1,1.000,2.000,0,0,90.0*
21,1,0.500,2.500,0,0,90.0*
1,1,0.500,1.000,0.250*
1,1,0.500,1.000,-0.250*
1,1,0.500,-1.000,-0.250*
1,1,0.500,-1.000,0.250*
%
%ADD20ROUNDEDRECTD20*%
%ADD21R,0.900X0.900*%
%ADD22R,1.400X0.950*%
%ADD23R,0.900X0.600*%
G04:AMPARAMS|DCode=24|XSize=1mm|YSize=2mm|CornerRadius=0.25mm|HoleSize=0mm|Usage=FLASHONLY|Rotation=90.000|XOffset=0mm|YOffset=0mm|HoleType=Round|Shape=RoundedRectangle|*
%AMROUNDEDRECTD24*
21,1,1.000,1.500,0,0,90.0*
21,1,0.500,2.000,0,0,90.0*
1,1,0.500,0.750,0.250*
1,1,0.500,0.750,-0.250*
1,1,0.500,-0.750,-0.250*
1,1,0.500,-0.750,0.250*
%
%ADD24ROUNDEDRECTD24*%
%ADD25R,1.050X2.200*%
%ADD26R,1.000X1.000*%
D14*
X76375Y38394D02*
D03*
X74125Y41594D02*
D03*
Y38394D02*
D03*
X76375Y41594D02*
D03*
D15*
X75250Y38394D02*
D03*
Y41594D02*
D03*
D16*
X63871Y41775D02*
D03*
X64771D02*
D03*
X64746Y38225D02*
D03*
X63846D02*
D03*
X72625Y38394D02*
D03*
X71725D02*
D03*
X72625Y41594D02*
D03*
X71725D02*
D03*
X75025Y36129D02*
D03*
X74125D02*
D03*
X75025Y34830D02*
D03*
X74125D02*
D03*
X77800D02*
D03*
X76800D02*
D03*
X78625Y64075D02*
D03*
X77625D02*
D03*
X68150Y62025D02*
D03*
X69150D02*
D03*
X84400Y39275D02*
D03*
X85300D02*
D03*
D17*
X66021Y40500D02*
D03*
Y39500D02*
D03*
Y42775D02*
D03*
Y41775D02*
D03*
Y38225D02*
D03*
Y37225D02*
D03*
X75250Y43500D02*
D03*
Y44500D02*
D03*
X82250Y40275D02*
D03*
Y39275D02*
D03*
X80150Y41594D02*
D03*
Y40694D02*
D03*
X77925Y38525D02*
D03*
Y39525D02*
D03*
X93550Y39275D02*
D03*
Y38375D02*
D03*
X95858Y40750D02*
D03*
Y39850D02*
D03*
X95858Y37800D02*
D03*
Y38700D02*
D03*
X104050Y10900D02*
D03*
Y10000D02*
D03*
Y49100D02*
D03*
Y50000D02*
D03*
D18*
X88325Y39275D02*
D03*
D19*
X89825Y40675D02*
D03*
Y37875D02*
D03*
D20*
X34651Y66190D02*
D03*
Y68730D02*
D03*
Y71270D02*
D03*
Y73810D02*
D03*
X38349Y66190D02*
D03*
Y68730D02*
D03*
Y71270D02*
D03*
Y73810D02*
D03*
X34651Y26190D02*
D03*
Y28730D02*
D03*
Y31270D02*
D03*
Y33810D02*
D03*
X38349Y26190D02*
D03*
Y28730D02*
D03*
Y31270D02*
D03*
Y33810D02*
D03*
D21*
X77800Y62650D02*
D03*
X79200D02*
D03*
X69150Y60625D02*
D03*
X67750D02*
D03*
D22*
X78154Y67742D02*
D03*
Y65892D02*
D03*
X67616Y65300D02*
D03*
Y63450D02*
D03*
D23*
X76341Y66542D02*
D03*
Y67742D02*
D03*
X69456Y64000D02*
D03*
Y65200D02*
D03*
D24*
X113100Y26190D02*
D03*
Y28730D02*
D03*
Y31270D02*
D03*
Y33810D02*
D03*
X109602D02*
D03*
Y31270D02*
D03*
Y28730D02*
D03*
Y26190D02*
D03*
X113100Y66710D02*
D03*
Y69250D02*
D03*
Y71790D02*
D03*
Y74330D02*
D03*
X109602D02*
D03*
Y71790D02*
D03*
Y69250D02*
D03*
Y66710D02*
D03*
D25*
X72725Y31250D02*
D03*
X75525D02*
D03*
X73825Y45500D02*
D03*
X71025D02*
D03*
D26*
X74125Y32750D02*
D03*
X72425Y44000D02*
D03*
M02*
