G04*
G04 #@! TF.GenerationSoftware,Altium Limited,Altium Designer,23.0.1 (38)*
G04*
G04 Layer_Color=65535*
%FSLAX43Y43*%
%MOMM*%
G71*
G04*
G04 #@! TF.SameCoordinates,E6CB2E86-431E-4534-89A5-8C88B75FC072*
G04*
G04*
G04 #@! TF.FilePolarity,Positive*
G04*
G01*
G75*
%ADD10C,0.254*%
%ADD11C,0.250*%
%ADD12C,0.200*%
%ADD13C,0.152*%
G36*
X64088Y3894D02*
X64010D01*
Y3984D01*
X64088D01*
Y3894D01*
D02*
G37*
G36*
X64441Y3818D02*
X64451Y3817D01*
X64463Y3815D01*
X64476Y3812D01*
X64490Y3808D01*
X64503Y3803D01*
X64504Y3802D01*
X64508Y3800D01*
X64515Y3797D01*
X64522Y3793D01*
X64531Y3787D01*
X64540Y3780D01*
X64548Y3772D01*
X64555Y3763D01*
X64556Y3762D01*
X64558Y3759D01*
X64561Y3754D01*
X64565Y3747D01*
X64569Y3738D01*
X64573Y3729D01*
X64577Y3718D01*
X64580Y3706D01*
Y3705D01*
X64581Y3701D01*
X64582Y3696D01*
X64583Y3688D01*
Y3677D01*
X64584Y3664D01*
X64585Y3648D01*
Y3629D01*
Y3344D01*
X64506D01*
Y3625D01*
Y3626D01*
Y3627D01*
Y3634D01*
Y3642D01*
X64505Y3652D01*
X64504Y3664D01*
X64503Y3676D01*
X64500Y3687D01*
X64497Y3697D01*
Y3698D01*
X64495Y3701D01*
X64492Y3706D01*
X64490Y3711D01*
X64485Y3717D01*
X64479Y3723D01*
X64472Y3730D01*
X64464Y3735D01*
X64463Y3736D01*
X64460Y3738D01*
X64454Y3740D01*
X64448Y3743D01*
X64441Y3746D01*
X64431Y3748D01*
X64420Y3749D01*
X64409Y3750D01*
X64405D01*
X64401Y3749D01*
X64392Y3748D01*
X64380Y3746D01*
X64367Y3742D01*
X64352Y3736D01*
X64337Y3729D01*
X64323Y3718D01*
X64321Y3716D01*
X64318Y3711D01*
X64315Y3708D01*
X64312Y3703D01*
X64308Y3697D01*
X64306Y3691D01*
X64302Y3684D01*
X64298Y3674D01*
X64295Y3664D01*
X64293Y3653D01*
X64291Y3641D01*
X64289Y3628D01*
X64287Y3612D01*
Y3597D01*
Y3344D01*
X64209D01*
Y3808D01*
X64279D01*
Y3742D01*
X64280Y3743D01*
X64282Y3746D01*
X64284Y3749D01*
X64288Y3754D01*
X64294Y3759D01*
X64300Y3766D01*
X64307Y3773D01*
X64317Y3781D01*
X64326Y3787D01*
X64337Y3795D01*
X64349Y3801D01*
X64362Y3807D01*
X64377Y3811D01*
X64392Y3815D01*
X64408Y3818D01*
X64426Y3819D01*
X64433D01*
X64441Y3818D01*
D02*
G37*
G36*
X67227D02*
X67237Y3816D01*
X67249Y3812D01*
X67262Y3808D01*
X67277Y3801D01*
X67293Y3793D01*
X67264Y3721D01*
X67263Y3722D01*
X67260Y3723D01*
X67254Y3726D01*
X67247Y3729D01*
X67238Y3732D01*
X67228Y3734D01*
X67218Y3736D01*
X67208Y3737D01*
X67203D01*
X67199Y3736D01*
X67192Y3735D01*
X67186Y3734D01*
X67177Y3731D01*
X67169Y3727D01*
X67162Y3722D01*
X67161Y3721D01*
X67158Y3719D01*
X67155Y3715D01*
X67150Y3710D01*
X67146Y3704D01*
X67141Y3697D01*
X67137Y3688D01*
X67133Y3678D01*
X67132Y3676D01*
X67131Y3671D01*
X67129Y3662D01*
X67126Y3651D01*
X67124Y3637D01*
X67122Y3622D01*
X67121Y3605D01*
X67120Y3587D01*
Y3344D01*
X67041D01*
Y3808D01*
X67113D01*
Y3738D01*
X67114Y3739D01*
X67117Y3746D01*
X67122Y3754D01*
X67129Y3764D01*
X67137Y3774D01*
X67145Y3785D01*
X67153Y3795D01*
X67162Y3802D01*
X67163Y3803D01*
X67165Y3805D01*
X67171Y3808D01*
X67176Y3810D01*
X67184Y3813D01*
X67193Y3816D01*
X67202Y3818D01*
X67212Y3819D01*
X67219D01*
X67227Y3818D01*
D02*
G37*
G36*
X65469Y3344D02*
X65384D01*
Y3646D01*
X65053D01*
Y3344D01*
X64968D01*
Y3984D01*
X65053D01*
Y3722D01*
X65384D01*
Y3984D01*
X65469D01*
Y3344D01*
D02*
G37*
G36*
X62724Y3724D02*
X63004Y3344D01*
X62892D01*
X62665Y3667D01*
X62560Y3566D01*
Y3344D01*
X62475D01*
Y3984D01*
X62560D01*
Y3666D01*
X62876Y3984D01*
X62992D01*
X62724Y3724D01*
D02*
G37*
G36*
X63763Y3344D02*
X63688D01*
X63513Y3808D01*
X63596D01*
X63696Y3530D01*
Y3529D01*
X63697Y3528D01*
X63698Y3526D01*
X63699Y3523D01*
X63702Y3513D01*
X63706Y3501D01*
X63710Y3488D01*
X63716Y3472D01*
X63720Y3454D01*
X63726Y3437D01*
X63727Y3439D01*
X63728Y3443D01*
X63731Y3451D01*
X63733Y3462D01*
X63738Y3474D01*
X63743Y3489D01*
X63749Y3506D01*
X63756Y3525D01*
X63858Y3808D01*
X63939D01*
X63763Y3344D01*
D02*
G37*
G36*
X66301Y3337D02*
Y3336D01*
X66300Y3333D01*
X66298Y3330D01*
X66296Y3325D01*
X66293Y3318D01*
X66291Y3311D01*
X66284Y3295D01*
X66278Y3278D01*
X66270Y3260D01*
X66263Y3244D01*
X66259Y3238D01*
X66256Y3232D01*
X66256Y3230D01*
X66253Y3225D01*
X66248Y3219D01*
X66243Y3210D01*
X66235Y3201D01*
X66227Y3192D01*
X66219Y3183D01*
X66208Y3175D01*
X66207Y3174D01*
X66204Y3172D01*
X66198Y3170D01*
X66190Y3166D01*
X66181Y3162D01*
X66170Y3159D01*
X66158Y3158D01*
X66144Y3157D01*
X66140D01*
X66135Y3158D01*
X66129D01*
X66121Y3159D01*
X66113Y3161D01*
X66104Y3163D01*
X66094Y3167D01*
X66085Y3240D01*
X66086D01*
X66090Y3239D01*
X66095Y3238D01*
X66100Y3236D01*
X66115Y3233D01*
X66130Y3232D01*
X66134D01*
X66139Y3233D01*
X66145D01*
X66158Y3236D01*
X66165Y3239D01*
X66171Y3242D01*
X66172D01*
X66174Y3244D01*
X66177Y3245D01*
X66181Y3248D01*
X66189Y3256D01*
X66196Y3266D01*
Y3267D01*
X66198Y3268D01*
X66200Y3272D01*
X66202Y3278D01*
X66206Y3285D01*
X66209Y3296D01*
X66215Y3309D01*
X66220Y3325D01*
Y3326D01*
X66222Y3330D01*
X66224Y3336D01*
X66228Y3344D01*
X66052Y3808D01*
X66135D01*
X66232Y3539D01*
Y3538D01*
X66233Y3538D01*
X66234Y3535D01*
X66235Y3530D01*
X66237Y3526D01*
X66239Y3520D01*
X66244Y3507D01*
X66249Y3491D01*
X66255Y3473D01*
X66260Y3453D01*
X66266Y3432D01*
Y3433D01*
X66267Y3435D01*
X66268Y3438D01*
X66268Y3441D01*
X66269Y3446D01*
X66271Y3452D01*
X66275Y3465D01*
X66280Y3481D01*
X66286Y3500D01*
X66292Y3518D01*
X66299Y3538D01*
X66399Y3808D01*
X66477D01*
X66301Y3337D01*
D02*
G37*
G36*
X64088Y3344D02*
X64010D01*
Y3808D01*
X64088D01*
Y3344D01*
D02*
G37*
G36*
X66750Y3818D02*
X66758Y3817D01*
X66767Y3815D01*
X66777Y3813D01*
X66789Y3810D01*
X66800Y3808D01*
X66813Y3803D01*
X66825Y3798D01*
X66838Y3792D01*
X66851Y3784D01*
X66864Y3776D01*
X66876Y3766D01*
X66887Y3755D01*
X66888Y3754D01*
X66890Y3752D01*
X66893Y3748D01*
X66896Y3743D01*
X66901Y3736D01*
X66905Y3729D01*
X66911Y3720D01*
X66917Y3709D01*
X66922Y3697D01*
X66928Y3684D01*
X66932Y3669D01*
X66937Y3653D01*
X66941Y3636D01*
X66943Y3617D01*
X66945Y3598D01*
X66946Y3576D01*
Y3575D01*
Y3572D01*
Y3565D01*
X66945Y3556D01*
X66599D01*
Y3555D01*
Y3552D01*
X66599Y3549D01*
Y3543D01*
X66600Y3537D01*
X66602Y3529D01*
X66605Y3513D01*
X66611Y3494D01*
X66618Y3474D01*
X66628Y3455D01*
X66641Y3439D01*
X66642D01*
X66643Y3437D01*
X66648Y3432D01*
X66657Y3426D01*
X66668Y3419D01*
X66683Y3412D01*
X66699Y3405D01*
X66718Y3401D01*
X66728Y3400D01*
X66739Y3399D01*
X66746D01*
X66755Y3400D01*
X66765Y3402D01*
X66776Y3404D01*
X66789Y3408D01*
X66801Y3414D01*
X66813Y3421D01*
X66814Y3422D01*
X66819Y3426D01*
X66824Y3431D01*
X66831Y3439D01*
X66838Y3449D01*
X66846Y3462D01*
X66855Y3477D01*
X66862Y3494D01*
X66943Y3484D01*
Y3483D01*
X66942Y3481D01*
X66942Y3477D01*
X66940Y3472D01*
X66937Y3466D01*
X66934Y3459D01*
X66927Y3443D01*
X66918Y3426D01*
X66905Y3407D01*
X66890Y3390D01*
X66871Y3373D01*
X66870D01*
X66869Y3371D01*
X66866Y3369D01*
X66862Y3366D01*
X66856Y3364D01*
X66851Y3361D01*
X66844Y3357D01*
X66835Y3354D01*
X66826Y3350D01*
X66817Y3346D01*
X66794Y3341D01*
X66768Y3336D01*
X66739Y3334D01*
X66729D01*
X66722Y3335D01*
X66714Y3336D01*
X66704Y3338D01*
X66693Y3340D01*
X66681Y3342D01*
X66655Y3349D01*
X66641Y3354D01*
X66628Y3360D01*
X66614Y3367D01*
X66601Y3376D01*
X66589Y3385D01*
X66577Y3396D01*
X66576Y3397D01*
X66575Y3399D01*
X66572Y3403D01*
X66568Y3408D01*
X66563Y3415D01*
X66559Y3422D01*
X66553Y3431D01*
X66548Y3441D01*
X66542Y3453D01*
X66537Y3466D01*
X66532Y3481D01*
X66527Y3497D01*
X66524Y3513D01*
X66521Y3532D01*
X66519Y3551D01*
X66518Y3572D01*
Y3573D01*
Y3577D01*
Y3583D01*
X66519Y3591D01*
X66520Y3601D01*
X66521Y3612D01*
X66523Y3625D01*
X66525Y3638D01*
X66533Y3668D01*
X66538Y3683D01*
X66543Y3698D01*
X66550Y3713D01*
X66559Y3727D01*
X66568Y3741D01*
X66578Y3754D01*
X66579Y3755D01*
X66581Y3757D01*
X66585Y3759D01*
X66589Y3764D01*
X66595Y3769D01*
X66602Y3774D01*
X66611Y3781D01*
X66621Y3786D01*
X66631Y3793D01*
X66643Y3798D01*
X66656Y3804D01*
X66670Y3808D01*
X66685Y3813D01*
X66700Y3816D01*
X66717Y3818D01*
X66734Y3819D01*
X66744D01*
X66750Y3818D01*
D02*
G37*
G36*
X65805D02*
X65813Y3817D01*
X65822Y3815D01*
X65832Y3813D01*
X65844Y3810D01*
X65855Y3808D01*
X65868Y3803D01*
X65880Y3798D01*
X65893Y3792D01*
X65906Y3784D01*
X65919Y3776D01*
X65931Y3766D01*
X65942Y3755D01*
X65943Y3754D01*
X65945Y3752D01*
X65948Y3748D01*
X65951Y3743D01*
X65956Y3736D01*
X65961Y3729D01*
X65966Y3720D01*
X65972Y3709D01*
X65977Y3697D01*
X65983Y3684D01*
X65987Y3669D01*
X65992Y3653D01*
X65996Y3636D01*
X65998Y3617D01*
X66000Y3598D01*
X66001Y3576D01*
Y3575D01*
Y3572D01*
Y3565D01*
X66000Y3556D01*
X65654D01*
Y3555D01*
Y3552D01*
X65655Y3549D01*
Y3543D01*
X65655Y3537D01*
X65657Y3529D01*
X65660Y3513D01*
X65666Y3494D01*
X65673Y3474D01*
X65683Y3455D01*
X65696Y3439D01*
X65697D01*
X65698Y3437D01*
X65704Y3432D01*
X65712Y3426D01*
X65723Y3419D01*
X65738Y3412D01*
X65754Y3405D01*
X65773Y3401D01*
X65783Y3400D01*
X65794Y3399D01*
X65802D01*
X65810Y3400D01*
X65820Y3402D01*
X65831Y3404D01*
X65844Y3408D01*
X65856Y3414D01*
X65868Y3421D01*
X65869Y3422D01*
X65874Y3426D01*
X65879Y3431D01*
X65886Y3439D01*
X65893Y3449D01*
X65901Y3462D01*
X65910Y3477D01*
X65917Y3494D01*
X65998Y3484D01*
Y3483D01*
X65998Y3481D01*
X65997Y3477D01*
X65995Y3472D01*
X65992Y3466D01*
X65989Y3459D01*
X65982Y3443D01*
X65973Y3426D01*
X65960Y3407D01*
X65945Y3390D01*
X65926Y3373D01*
X65925D01*
X65924Y3371D01*
X65921Y3369D01*
X65917Y3366D01*
X65912Y3364D01*
X65906Y3361D01*
X65899Y3357D01*
X65890Y3354D01*
X65881Y3350D01*
X65872Y3346D01*
X65849Y3341D01*
X65823Y3336D01*
X65794Y3334D01*
X65784D01*
X65778Y3335D01*
X65769Y3336D01*
X65759Y3338D01*
X65748Y3340D01*
X65736Y3342D01*
X65710Y3349D01*
X65696Y3354D01*
X65683Y3360D01*
X65669Y3367D01*
X65656Y3376D01*
X65644Y3385D01*
X65632Y3396D01*
X65631Y3397D01*
X65630Y3399D01*
X65627Y3403D01*
X65623Y3408D01*
X65618Y3415D01*
X65614Y3422D01*
X65608Y3431D01*
X65603Y3441D01*
X65597Y3453D01*
X65592Y3466D01*
X65587Y3481D01*
X65582Y3497D01*
X65579Y3513D01*
X65576Y3532D01*
X65574Y3551D01*
X65573Y3572D01*
Y3573D01*
Y3577D01*
Y3583D01*
X65574Y3591D01*
X65575Y3601D01*
X65576Y3612D01*
X65578Y3625D01*
X65581Y3638D01*
X65588Y3668D01*
X65593Y3683D01*
X65598Y3698D01*
X65606Y3713D01*
X65614Y3727D01*
X65623Y3741D01*
X65633Y3754D01*
X65634Y3755D01*
X65636Y3757D01*
X65640Y3759D01*
X65644Y3764D01*
X65650Y3769D01*
X65657Y3774D01*
X65666Y3781D01*
X65676Y3786D01*
X65686Y3793D01*
X65698Y3798D01*
X65711Y3804D01*
X65725Y3808D01*
X65740Y3813D01*
X65755Y3816D01*
X65772Y3818D01*
X65790Y3819D01*
X65799D01*
X65805Y3818D01*
D02*
G37*
G36*
X63270D02*
X63278Y3817D01*
X63287Y3815D01*
X63297Y3813D01*
X63309Y3810D01*
X63320Y3808D01*
X63333Y3803D01*
X63345Y3798D01*
X63358Y3792D01*
X63371Y3784D01*
X63384Y3776D01*
X63396Y3766D01*
X63407Y3755D01*
X63408Y3754D01*
X63410Y3752D01*
X63412Y3748D01*
X63416Y3743D01*
X63421Y3736D01*
X63425Y3729D01*
X63431Y3720D01*
X63437Y3709D01*
X63442Y3697D01*
X63448Y3684D01*
X63452Y3669D01*
X63457Y3653D01*
X63461Y3636D01*
X63463Y3617D01*
X63465Y3598D01*
X63466Y3576D01*
Y3575D01*
Y3572D01*
Y3565D01*
X63465Y3556D01*
X63118D01*
Y3555D01*
Y3552D01*
X63119Y3549D01*
Y3543D01*
X63120Y3537D01*
X63122Y3529D01*
X63125Y3513D01*
X63131Y3494D01*
X63138Y3474D01*
X63148Y3455D01*
X63161Y3439D01*
X63162D01*
X63163Y3437D01*
X63168Y3432D01*
X63177Y3426D01*
X63188Y3419D01*
X63203Y3412D01*
X63219Y3405D01*
X63238Y3401D01*
X63248Y3400D01*
X63259Y3399D01*
X63266D01*
X63275Y3400D01*
X63285Y3402D01*
X63296Y3404D01*
X63309Y3408D01*
X63321Y3414D01*
X63333Y3421D01*
X63334Y3422D01*
X63339Y3426D01*
X63344Y3431D01*
X63351Y3439D01*
X63358Y3449D01*
X63366Y3462D01*
X63375Y3477D01*
X63382Y3494D01*
X63463Y3484D01*
Y3483D01*
X63462Y3481D01*
X63462Y3477D01*
X63460Y3472D01*
X63457Y3466D01*
X63454Y3459D01*
X63447Y3443D01*
X63437Y3426D01*
X63425Y3407D01*
X63410Y3390D01*
X63391Y3373D01*
X63390D01*
X63388Y3371D01*
X63386Y3369D01*
X63382Y3366D01*
X63376Y3364D01*
X63371Y3361D01*
X63363Y3357D01*
X63355Y3354D01*
X63346Y3350D01*
X63337Y3346D01*
X63314Y3341D01*
X63288Y3336D01*
X63259Y3334D01*
X63249D01*
X63242Y3335D01*
X63234Y3336D01*
X63224Y3338D01*
X63213Y3340D01*
X63201Y3342D01*
X63175Y3349D01*
X63161Y3354D01*
X63148Y3360D01*
X63134Y3367D01*
X63121Y3376D01*
X63109Y3385D01*
X63097Y3396D01*
X63096Y3397D01*
X63094Y3399D01*
X63092Y3403D01*
X63088Y3408D01*
X63083Y3415D01*
X63079Y3422D01*
X63073Y3431D01*
X63068Y3441D01*
X63062Y3453D01*
X63057Y3466D01*
X63052Y3481D01*
X63047Y3497D01*
X63044Y3513D01*
X63041Y3532D01*
X63039Y3551D01*
X63038Y3572D01*
Y3573D01*
Y3577D01*
Y3583D01*
X63039Y3591D01*
X63040Y3601D01*
X63041Y3612D01*
X63043Y3625D01*
X63045Y3638D01*
X63053Y3668D01*
X63057Y3683D01*
X63063Y3698D01*
X63070Y3713D01*
X63079Y3727D01*
X63088Y3741D01*
X63098Y3754D01*
X63099Y3755D01*
X63101Y3757D01*
X63105Y3759D01*
X63109Y3764D01*
X63115Y3769D01*
X63122Y3774D01*
X63131Y3781D01*
X63141Y3786D01*
X63151Y3793D01*
X63163Y3798D01*
X63176Y3804D01*
X63190Y3808D01*
X63204Y3813D01*
X63220Y3816D01*
X63237Y3818D01*
X63254Y3819D01*
X63264D01*
X63270Y3818D01*
D02*
G37*
G36*
X64910Y2722D02*
X65150Y2386D01*
X65045D01*
X64883Y2614D01*
X64883Y2614D01*
X64881Y2617D01*
X64879Y2621D01*
X64875Y2626D01*
X64867Y2638D01*
X64858Y2652D01*
X64857Y2651D01*
X64854Y2648D01*
X64850Y2642D01*
X64846Y2635D01*
X64835Y2620D01*
X64831Y2614D01*
X64827Y2608D01*
X64665Y2386D01*
X64564D01*
X64810Y2717D01*
X64592Y3026D01*
X64693D01*
X64810Y2861D01*
Y2860D01*
X64811Y2859D01*
X64813Y2857D01*
X64816Y2853D01*
X64822Y2844D01*
X64830Y2833D01*
X64838Y2820D01*
X64846Y2807D01*
X64854Y2795D01*
X64860Y2784D01*
X64861Y2786D01*
X64864Y2789D01*
X64869Y2797D01*
X64875Y2806D01*
X64883Y2816D01*
X64892Y2829D01*
X64901Y2842D01*
X64912Y2856D01*
X65040Y3026D01*
X65132D01*
X64910Y2722D01*
D02*
G37*
G36*
X62811Y2386D02*
X62722D01*
X62474Y3026D01*
X62567D01*
X62733Y2561D01*
Y2560D01*
X62734Y2558D01*
X62735Y2555D01*
X62737Y2552D01*
X62738Y2546D01*
X62739Y2540D01*
X62744Y2527D01*
X62750Y2511D01*
X62755Y2493D01*
X62766Y2456D01*
Y2457D01*
X62767Y2459D01*
X62768Y2462D01*
X62769Y2466D01*
X62772Y2476D01*
X62776Y2490D01*
X62781Y2505D01*
X62787Y2523D01*
X62793Y2541D01*
X62800Y2561D01*
X62974Y3026D01*
X63060D01*
X62811Y2386D01*
D02*
G37*
G36*
X64482D02*
X64393D01*
Y2476D01*
X64482D01*
Y2386D01*
D02*
G37*
G36*
X63736D02*
X63646D01*
Y2476D01*
X63736D01*
Y2386D01*
D02*
G37*
G36*
X64078Y3028D02*
X64090Y3026D01*
X64104Y3023D01*
X64119Y3019D01*
X64135Y3015D01*
X64149Y3007D01*
X64150D01*
X64151Y3006D01*
X64156Y3004D01*
X64163Y2999D01*
X64172Y2993D01*
X64183Y2983D01*
X64194Y2973D01*
X64204Y2961D01*
X64214Y2947D01*
X64215Y2945D01*
X64219Y2941D01*
X64222Y2933D01*
X64229Y2920D01*
X64234Y2907D01*
X64242Y2891D01*
X64248Y2872D01*
X64254Y2852D01*
Y2851D01*
X64255Y2849D01*
X64256Y2847D01*
X64257Y2842D01*
X64258Y2836D01*
X64258Y2830D01*
X64260Y2822D01*
X64261Y2812D01*
X64263Y2802D01*
X64264Y2791D01*
X64265Y2778D01*
X64267Y2765D01*
X64268Y2750D01*
Y2736D01*
X64269Y2719D01*
Y2701D01*
Y2700D01*
Y2697D01*
Y2690D01*
Y2683D01*
X64268Y2673D01*
Y2662D01*
X64267Y2650D01*
X64266Y2637D01*
X64263Y2607D01*
X64258Y2577D01*
X64253Y2547D01*
X64249Y2533D01*
X64245Y2519D01*
Y2518D01*
X64244Y2516D01*
X64242Y2513D01*
X64240Y2508D01*
X64238Y2502D01*
X64234Y2495D01*
X64227Y2479D01*
X64218Y2463D01*
X64206Y2444D01*
X64192Y2428D01*
X64175Y2412D01*
X64174D01*
X64173Y2410D01*
X64171Y2408D01*
X64167Y2406D01*
X64162Y2404D01*
X64158Y2400D01*
X64144Y2393D01*
X64127Y2387D01*
X64108Y2381D01*
X64085Y2377D01*
X64060Y2375D01*
X64050D01*
X64044Y2376D01*
X64037Y2377D01*
X64027Y2379D01*
X64017Y2381D01*
X64006Y2383D01*
X63995Y2387D01*
X63983Y2391D01*
X63971Y2396D01*
X63959Y2403D01*
X63947Y2410D01*
X63935Y2419D01*
X63924Y2430D01*
X63914Y2441D01*
X63913Y2442D01*
X63911Y2444D01*
X63908Y2449D01*
X63903Y2456D01*
X63899Y2465D01*
X63894Y2476D01*
X63888Y2489D01*
X63882Y2504D01*
X63877Y2520D01*
X63871Y2540D01*
X63866Y2561D01*
X63861Y2585D01*
X63856Y2611D01*
X63854Y2638D01*
X63852Y2669D01*
X63851Y2701D01*
Y2702D01*
Y2706D01*
Y2712D01*
Y2720D01*
X63852Y2730D01*
Y2741D01*
X63853Y2753D01*
X63854Y2767D01*
X63856Y2796D01*
X63861Y2826D01*
X63866Y2857D01*
X63870Y2871D01*
X63874Y2884D01*
Y2885D01*
X63875Y2887D01*
X63877Y2891D01*
X63878Y2896D01*
X63880Y2902D01*
X63884Y2908D01*
X63891Y2924D01*
X63901Y2941D01*
X63913Y2958D01*
X63927Y2976D01*
X63943Y2991D01*
X63944D01*
X63945Y2993D01*
X63948Y2994D01*
X63952Y2996D01*
X63956Y3000D01*
X63962Y3003D01*
X63976Y3010D01*
X63992Y3017D01*
X64012Y3023D01*
X64035Y3027D01*
X64060Y3029D01*
X64068D01*
X64078Y3028D01*
D02*
G37*
G36*
X63332D02*
X63344Y3026D01*
X63358Y3023D01*
X63373Y3019D01*
X63388Y3015D01*
X63403Y3007D01*
X63404D01*
X63405Y3006D01*
X63410Y3004D01*
X63417Y2999D01*
X63426Y2993D01*
X63437Y2983D01*
X63448Y2973D01*
X63458Y2961D01*
X63468Y2947D01*
X63469Y2945D01*
X63473Y2941D01*
X63476Y2933D01*
X63483Y2920D01*
X63488Y2907D01*
X63496Y2891D01*
X63502Y2872D01*
X63508Y2852D01*
Y2851D01*
X63509Y2849D01*
X63510Y2847D01*
X63511Y2842D01*
X63511Y2836D01*
X63512Y2830D01*
X63514Y2822D01*
X63515Y2812D01*
X63517Y2802D01*
X63518Y2791D01*
X63519Y2778D01*
X63521Y2765D01*
X63522Y2750D01*
Y2736D01*
X63523Y2719D01*
Y2701D01*
Y2700D01*
Y2697D01*
Y2690D01*
Y2683D01*
X63522Y2673D01*
Y2662D01*
X63521Y2650D01*
X63520Y2637D01*
X63517Y2607D01*
X63512Y2577D01*
X63507Y2547D01*
X63503Y2533D01*
X63498Y2519D01*
Y2518D01*
X63498Y2516D01*
X63496Y2513D01*
X63494Y2508D01*
X63492Y2502D01*
X63488Y2495D01*
X63481Y2479D01*
X63472Y2463D01*
X63460Y2444D01*
X63446Y2428D01*
X63429Y2412D01*
X63428D01*
X63427Y2410D01*
X63425Y2408D01*
X63421Y2406D01*
X63416Y2404D01*
X63412Y2400D01*
X63398Y2393D01*
X63381Y2387D01*
X63362Y2381D01*
X63339Y2377D01*
X63314Y2375D01*
X63304D01*
X63298Y2376D01*
X63290Y2377D01*
X63281Y2379D01*
X63271Y2381D01*
X63260Y2383D01*
X63249Y2387D01*
X63237Y2391D01*
X63225Y2396D01*
X63213Y2403D01*
X63201Y2410D01*
X63189Y2419D01*
X63178Y2430D01*
X63167Y2441D01*
X63167Y2442D01*
X63165Y2444D01*
X63162Y2449D01*
X63157Y2456D01*
X63153Y2465D01*
X63148Y2476D01*
X63142Y2489D01*
X63136Y2504D01*
X63131Y2520D01*
X63125Y2540D01*
X63119Y2561D01*
X63115Y2585D01*
X63110Y2611D01*
X63107Y2638D01*
X63106Y2669D01*
X63105Y2701D01*
Y2702D01*
Y2706D01*
Y2712D01*
Y2720D01*
X63106Y2730D01*
Y2741D01*
X63106Y2753D01*
X63107Y2767D01*
X63110Y2796D01*
X63115Y2826D01*
X63120Y2857D01*
X63124Y2871D01*
X63128Y2884D01*
Y2885D01*
X63129Y2887D01*
X63131Y2891D01*
X63132Y2896D01*
X63134Y2902D01*
X63138Y2908D01*
X63145Y2924D01*
X63155Y2941D01*
X63167Y2958D01*
X63180Y2976D01*
X63197Y2991D01*
X63198D01*
X63199Y2993D01*
X63202Y2994D01*
X63205Y2996D01*
X63210Y3000D01*
X63216Y3003D01*
X63229Y3010D01*
X63246Y3017D01*
X63265Y3023D01*
X63289Y3027D01*
X63314Y3029D01*
X63322D01*
X63332Y3028D01*
D02*
G37*
G36*
X74932Y63500D02*
X72125D01*
Y64931D01*
X74932D01*
Y63500D01*
D02*
G37*
G36*
X75086Y61325D02*
X71875D01*
Y62756D01*
X75086D01*
Y61325D01*
D02*
G37*
G36*
X79187Y5507D02*
X79200D01*
X79215Y5505D01*
X79250Y5498D01*
X79289Y5489D01*
X79330Y5474D01*
X79370Y5452D01*
X79391Y5439D01*
X79409Y5424D01*
X79411Y5422D01*
X79413Y5420D01*
X79419Y5415D01*
X79424Y5409D01*
X79433Y5400D01*
X79441Y5389D01*
X79461Y5363D01*
X79482Y5330D01*
X79500Y5289D01*
X79517Y5242D01*
X79528Y5191D01*
X79370Y5178D01*
Y5180D01*
X79369Y5181D01*
X79367Y5192D01*
X79361Y5209D01*
X79354Y5230D01*
X79346Y5252D01*
X79335Y5274D01*
X79322Y5294D01*
X79309Y5311D01*
X79306Y5315D01*
X79298Y5322D01*
X79285Y5333D01*
X79267Y5346D01*
X79243Y5357D01*
X79217Y5368D01*
X79185Y5376D01*
X79152Y5380D01*
X79139D01*
X79124Y5378D01*
X79108Y5374D01*
X79085Y5368D01*
X79063Y5361D01*
X79041Y5352D01*
X79019Y5337D01*
X79015Y5335D01*
X79006Y5328D01*
X78993Y5315D01*
X78976Y5296D01*
X78958Y5274D01*
X78937Y5248D01*
X78919Y5215D01*
X78900Y5178D01*
Y5176D01*
X78898Y5172D01*
X78896Y5167D01*
X78893Y5159D01*
X78891Y5148D01*
X78887Y5135D01*
X78883Y5120D01*
X78880Y5102D01*
X78874Y5081D01*
X78871Y5059D01*
X78867Y5035D01*
X78865Y5009D01*
X78861Y4980D01*
X78859Y4950D01*
X78858Y4917D01*
Y4883D01*
X78859Y4885D01*
X78867Y4896D01*
X78880Y4911D01*
X78896Y4930D01*
X78915Y4952D01*
X78939Y4972D01*
X78965Y4993D01*
X78995Y5011D01*
X78996D01*
X78998Y5013D01*
X79009Y5018D01*
X79026Y5024D01*
X79048Y5033D01*
X79074Y5041D01*
X79104Y5046D01*
X79135Y5052D01*
X79169Y5054D01*
X79183D01*
X79195Y5052D01*
X79209Y5050D01*
X79224Y5048D01*
X79243Y5044D01*
X79261Y5039D01*
X79304Y5026D01*
X79326Y5017D01*
X79348Y5004D01*
X79370Y4991D01*
X79395Y4976D01*
X79417Y4957D01*
X79437Y4937D01*
X79439Y4935D01*
X79443Y4931D01*
X79448Y4926D01*
X79454Y4917D01*
X79463Y4904D01*
X79472Y4891D01*
X79482Y4874D01*
X79493Y4855D01*
X79504Y4835D01*
X79513Y4813D01*
X79522Y4787D01*
X79532Y4761D01*
X79537Y4733D01*
X79543Y4702D01*
X79546Y4670D01*
X79548Y4637D01*
Y4635D01*
Y4631D01*
Y4626D01*
Y4617D01*
X79546Y4606D01*
Y4594D01*
X79541Y4565D01*
X79535Y4530D01*
X79526Y4493D01*
X79513Y4452D01*
X79495Y4413D01*
Y4411D01*
X79493Y4409D01*
X79489Y4404D01*
X79485Y4396D01*
X79474Y4378D01*
X79457Y4354D01*
X79437Y4328D01*
X79413Y4302D01*
X79383Y4276D01*
X79352Y4254D01*
X79350D01*
X79348Y4252D01*
X79343Y4248D01*
X79335Y4246D01*
X79317Y4237D01*
X79293Y4228D01*
X79261Y4217D01*
X79226Y4209D01*
X79187Y4202D01*
X79145Y4200D01*
X79135D01*
X79126Y4202D01*
X79111D01*
X79095Y4204D01*
X79076Y4207D01*
X79054Y4213D01*
X79032Y4219D01*
X79006Y4226D01*
X78980Y4235D01*
X78954Y4246D01*
X78926Y4261D01*
X78900Y4278D01*
X78874Y4296D01*
X78848Y4319D01*
X78824Y4344D01*
X78822Y4346D01*
X78819Y4352D01*
X78813Y4359D01*
X78806Y4372D01*
X78795Y4389D01*
X78785Y4407D01*
X78774Y4431D01*
X78763Y4457D01*
X78750Y4489D01*
X78739Y4524D01*
X78730Y4563D01*
X78721Y4606D01*
X78711Y4654D01*
X78706Y4706D01*
X78702Y4761D01*
X78700Y4820D01*
Y4822D01*
Y4824D01*
Y4830D01*
Y4837D01*
X78702Y4855D01*
Y4881D01*
X78704Y4911D01*
X78708Y4946D01*
X78711Y4985D01*
X78717Y5028D01*
X78724Y5070D01*
X78733Y5117D01*
X78745Y5161D01*
X78758Y5205D01*
X78774Y5248D01*
X78793Y5289D01*
X78813Y5328D01*
X78837Y5361D01*
X78839Y5363D01*
X78843Y5367D01*
X78850Y5374D01*
X78859Y5385D01*
X78871Y5396D01*
X78885Y5407D01*
X78904Y5422D01*
X78922Y5435D01*
X78945Y5448D01*
X78969Y5463D01*
X78996Y5474D01*
X79024Y5487D01*
X79056Y5496D01*
X79089Y5504D01*
X79124Y5507D01*
X79161Y5509D01*
X79176D01*
X79187Y5507D01*
D02*
G37*
G36*
X74075Y5524D02*
X74088D01*
X74123Y5520D01*
X74162Y5515D01*
X74202Y5505D01*
X74247Y5494D01*
X74288Y5479D01*
X74290D01*
X74293Y5478D01*
X74299Y5474D01*
X74306Y5470D01*
X74325Y5461D01*
X74349Y5444D01*
X74377Y5426D01*
X74404Y5402D01*
X74430Y5374D01*
X74454Y5342D01*
Y5341D01*
X74456Y5339D01*
X74460Y5333D01*
X74464Y5328D01*
X74473Y5309D01*
X74484Y5285D01*
X74497Y5255D01*
X74506Y5220D01*
X74515Y5183D01*
X74519Y5142D01*
X74356Y5130D01*
Y5131D01*
Y5135D01*
X74354Y5141D01*
X74352Y5150D01*
X74347Y5170D01*
X74340Y5198D01*
X74328Y5228D01*
X74312Y5257D01*
X74291Y5285D01*
X74265Y5311D01*
X74262Y5313D01*
X74252Y5320D01*
X74234Y5331D01*
X74210Y5342D01*
X74178Y5354D01*
X74141Y5365D01*
X74095Y5372D01*
X74043Y5374D01*
X74017D01*
X74006Y5372D01*
X73991Y5370D01*
X73958Y5367D01*
X73921Y5359D01*
X73884Y5350D01*
X73849Y5335D01*
X73834Y5326D01*
X73819Y5317D01*
X73815Y5315D01*
X73808Y5307D01*
X73797Y5294D01*
X73786Y5280D01*
X73773Y5259D01*
X73762Y5237D01*
X73754Y5211D01*
X73751Y5181D01*
Y5178D01*
Y5170D01*
X73753Y5157D01*
X73756Y5142D01*
X73762Y5124D01*
X73771Y5105D01*
X73782Y5087D01*
X73799Y5068D01*
X73801Y5067D01*
X73810Y5061D01*
X73817Y5055D01*
X73825Y5052D01*
X73836Y5046D01*
X73849Y5039D01*
X73865Y5033D01*
X73884Y5026D01*
X73904Y5018D01*
X73928Y5009D01*
X73954Y5002D01*
X73984Y4993D01*
X74017Y4985D01*
X74054Y4976D01*
X74056D01*
X74064Y4974D01*
X74075Y4972D01*
X74088Y4968D01*
X74104Y4965D01*
X74125Y4959D01*
X74145Y4954D01*
X74167Y4948D01*
X74215Y4935D01*
X74262Y4922D01*
X74284Y4915D01*
X74304Y4907D01*
X74323Y4902D01*
X74338Y4894D01*
X74340D01*
X74343Y4893D01*
X74349Y4889D01*
X74356Y4885D01*
X74377Y4874D01*
X74401Y4859D01*
X74428Y4839D01*
X74456Y4817D01*
X74482Y4791D01*
X74504Y4763D01*
X74506Y4759D01*
X74514Y4750D01*
X74521Y4733D01*
X74532Y4711D01*
X74541Y4685D01*
X74551Y4654D01*
X74556Y4618D01*
X74558Y4581D01*
Y4580D01*
Y4578D01*
Y4572D01*
Y4565D01*
X74554Y4544D01*
X74551Y4518D01*
X74543Y4489D01*
X74534Y4457D01*
X74519Y4424D01*
X74499Y4389D01*
Y4387D01*
X74497Y4385D01*
X74488Y4374D01*
X74475Y4357D01*
X74456Y4339D01*
X74432Y4317D01*
X74402Y4293D01*
X74369Y4270D01*
X74330Y4250D01*
X74328D01*
X74325Y4248D01*
X74319Y4246D01*
X74312Y4243D01*
X74301Y4239D01*
X74288Y4233D01*
X74258Y4226D01*
X74223Y4217D01*
X74180Y4207D01*
X74134Y4202D01*
X74084Y4200D01*
X74054D01*
X74040Y4202D01*
X74023D01*
X74004Y4204D01*
X73982Y4206D01*
X73936Y4213D01*
X73888Y4220D01*
X73840Y4233D01*
X73793Y4250D01*
X73791D01*
X73788Y4252D01*
X73782Y4256D01*
X73775Y4259D01*
X73753Y4270D01*
X73727Y4287D01*
X73697Y4309D01*
X73665Y4335D01*
X73636Y4367D01*
X73608Y4402D01*
Y4404D01*
X73604Y4407D01*
X73603Y4413D01*
X73597Y4420D01*
X73593Y4430D01*
X73588Y4441D01*
X73575Y4468D01*
X73562Y4504D01*
X73551Y4543D01*
X73543Y4587D01*
X73540Y4633D01*
X73699Y4648D01*
Y4646D01*
Y4644D01*
X73701Y4639D01*
Y4631D01*
X73704Y4615D01*
X73710Y4591D01*
X73717Y4567D01*
X73725Y4539D01*
X73738Y4513D01*
X73751Y4489D01*
X73753Y4487D01*
X73758Y4480D01*
X73767Y4467D01*
X73782Y4454D01*
X73801Y4437D01*
X73821Y4420D01*
X73849Y4404D01*
X73878Y4389D01*
X73880D01*
X73882Y4387D01*
X73888Y4385D01*
X73893Y4383D01*
X73912Y4378D01*
X73936Y4370D01*
X73965Y4363D01*
X73999Y4357D01*
X74036Y4354D01*
X74077Y4352D01*
X74093D01*
X74112Y4354D01*
X74134Y4356D01*
X74160Y4359D01*
X74190Y4363D01*
X74219Y4370D01*
X74247Y4380D01*
X74251Y4381D01*
X74260Y4385D01*
X74273Y4393D01*
X74290Y4400D01*
X74306Y4413D01*
X74325Y4426D01*
X74343Y4441D01*
X74358Y4459D01*
X74360Y4461D01*
X74364Y4468D01*
X74369Y4478D01*
X74377Y4493D01*
X74384Y4507D01*
X74390Y4526D01*
X74393Y4546D01*
X74395Y4568D01*
Y4570D01*
Y4580D01*
X74393Y4591D01*
X74391Y4606D01*
X74386Y4620D01*
X74380Y4639D01*
X74371Y4657D01*
X74358Y4674D01*
X74356Y4676D01*
X74351Y4681D01*
X74343Y4689D01*
X74330Y4700D01*
X74315Y4711D01*
X74295Y4724D01*
X74271Y4737D01*
X74243Y4748D01*
X74241Y4750D01*
X74232Y4752D01*
X74217Y4757D01*
X74208Y4759D01*
X74195Y4763D01*
X74182Y4768D01*
X74165Y4772D01*
X74147Y4778D01*
X74125Y4783D01*
X74102Y4789D01*
X74077Y4796D01*
X74047Y4804D01*
X74015Y4811D01*
X74014D01*
X74008Y4813D01*
X73999Y4815D01*
X73988Y4818D01*
X73973Y4822D01*
X73956Y4826D01*
X73919Y4837D01*
X73878Y4850D01*
X73836Y4863D01*
X73799Y4876D01*
X73782Y4883D01*
X73767Y4891D01*
X73765D01*
X73764Y4893D01*
X73753Y4900D01*
X73736Y4909D01*
X73717Y4924D01*
X73695Y4941D01*
X73673Y4961D01*
X73651Y4985D01*
X73632Y5011D01*
X73630Y5015D01*
X73625Y5024D01*
X73617Y5039D01*
X73610Y5057D01*
X73603Y5081D01*
X73595Y5109D01*
X73590Y5139D01*
X73588Y5170D01*
Y5172D01*
Y5174D01*
Y5180D01*
Y5187D01*
X73591Y5205D01*
X73595Y5230D01*
X73601Y5257D01*
X73610Y5289D01*
X73623Y5320D01*
X73641Y5352D01*
Y5354D01*
X73643Y5355D01*
X73653Y5367D01*
X73665Y5381D01*
X73682Y5400D01*
X73704Y5420D01*
X73732Y5442D01*
X73765Y5463D01*
X73803Y5481D01*
X73804D01*
X73808Y5483D01*
X73814Y5485D01*
X73821Y5489D01*
X73830Y5492D01*
X73843Y5496D01*
X73871Y5504D01*
X73906Y5511D01*
X73947Y5518D01*
X73990Y5524D01*
X74038Y5526D01*
X74062D01*
X74075Y5524D01*
D02*
G37*
G36*
X81737Y5507D02*
X81761Y5504D01*
X81791Y5498D01*
X81824Y5489D01*
X81857Y5478D01*
X81891Y5463D01*
X81892D01*
X81894Y5461D01*
X81905Y5455D01*
X81922Y5444D01*
X81941Y5431D01*
X81963Y5413D01*
X81985Y5392D01*
X82007Y5368D01*
X82026Y5341D01*
X82028Y5337D01*
X82033Y5328D01*
X82041Y5311D01*
X82050Y5291D01*
X82059Y5267D01*
X82066Y5239D01*
X82072Y5207D01*
X82074Y5176D01*
Y5172D01*
Y5161D01*
X82072Y5146D01*
X82068Y5126D01*
X82063Y5102D01*
X82054Y5076D01*
X82042Y5050D01*
X82028Y5024D01*
X82026Y5020D01*
X82020Y5013D01*
X82009Y5000D01*
X81994Y4985D01*
X81976Y4968D01*
X81954Y4950D01*
X81928Y4933D01*
X81896Y4917D01*
X81898D01*
X81902Y4915D01*
X81907Y4913D01*
X81915Y4911D01*
X81935Y4904D01*
X81961Y4893D01*
X81991Y4878D01*
X82020Y4859D01*
X82048Y4835D01*
X82074Y4807D01*
X82076Y4804D01*
X82083Y4793D01*
X82094Y4774D01*
X82105Y4750D01*
X82116Y4720D01*
X82128Y4685D01*
X82135Y4644D01*
X82137Y4600D01*
Y4598D01*
Y4593D01*
Y4583D01*
X82135Y4572D01*
X82133Y4557D01*
X82129Y4541D01*
X82126Y4522D01*
X82122Y4502D01*
X82107Y4457D01*
X82096Y4433D01*
X82085Y4411D01*
X82070Y4387D01*
X82054Y4363D01*
X82035Y4339D01*
X82013Y4317D01*
X82011Y4315D01*
X82007Y4311D01*
X82000Y4306D01*
X81991Y4298D01*
X81979Y4289D01*
X81965Y4280D01*
X81948Y4269D01*
X81928Y4259D01*
X81907Y4248D01*
X81883Y4237D01*
X81859Y4228D01*
X81831Y4219D01*
X81802Y4211D01*
X81770Y4206D01*
X81739Y4202D01*
X81704Y4200D01*
X81687D01*
X81676Y4202D01*
X81661Y4204D01*
X81644Y4206D01*
X81626Y4209D01*
X81605Y4213D01*
X81561Y4224D01*
X81515Y4243D01*
X81491Y4254D01*
X81468Y4267D01*
X81446Y4283D01*
X81424Y4300D01*
X81422Y4302D01*
X81418Y4306D01*
X81413Y4311D01*
X81407Y4319D01*
X81398Y4328D01*
X81389Y4341D01*
X81378Y4354D01*
X81367Y4370D01*
X81355Y4389D01*
X81344Y4407D01*
X81324Y4452D01*
X81307Y4504D01*
X81302Y4531D01*
X81298Y4561D01*
X81455Y4581D01*
Y4580D01*
X81457Y4576D01*
X81459Y4568D01*
X81461Y4559D01*
X81463Y4548D01*
X81467Y4535D01*
X81476Y4507D01*
X81489Y4474D01*
X81505Y4443D01*
X81524Y4413D01*
X81546Y4387D01*
X81550Y4385D01*
X81557Y4378D01*
X81572Y4369D01*
X81591Y4359D01*
X81613Y4348D01*
X81641Y4339D01*
X81672Y4331D01*
X81705Y4330D01*
X81717D01*
X81724Y4331D01*
X81744Y4333D01*
X81770Y4339D01*
X81800Y4348D01*
X81831Y4361D01*
X81863Y4380D01*
X81892Y4406D01*
X81896Y4409D01*
X81905Y4420D01*
X81916Y4437D01*
X81931Y4459D01*
X81946Y4487D01*
X81957Y4518D01*
X81966Y4556D01*
X81970Y4596D01*
Y4598D01*
Y4602D01*
Y4607D01*
X81968Y4615D01*
X81966Y4635D01*
X81961Y4659D01*
X81954Y4689D01*
X81941Y4718D01*
X81922Y4748D01*
X81898Y4776D01*
X81894Y4780D01*
X81885Y4787D01*
X81870Y4798D01*
X81850Y4811D01*
X81824Y4824D01*
X81792Y4835D01*
X81757Y4843D01*
X81718Y4846D01*
X81702D01*
X81689Y4844D01*
X81672Y4843D01*
X81654Y4839D01*
X81631Y4835D01*
X81607Y4830D01*
X81626Y4968D01*
X81635D01*
X81642Y4967D01*
X81667D01*
X81687Y4970D01*
X81711Y4974D01*
X81739Y4980D01*
X81770Y4989D01*
X81800Y5002D01*
X81831Y5018D01*
X81833D01*
X81835Y5020D01*
X81844Y5028D01*
X81857Y5041D01*
X81872Y5057D01*
X81887Y5081D01*
X81900Y5109D01*
X81909Y5141D01*
X81913Y5159D01*
Y5180D01*
Y5181D01*
Y5183D01*
Y5194D01*
X81909Y5209D01*
X81905Y5230D01*
X81898Y5252D01*
X81889Y5276D01*
X81874Y5300D01*
X81854Y5322D01*
X81852Y5324D01*
X81842Y5331D01*
X81829Y5341D01*
X81813Y5352D01*
X81791Y5361D01*
X81765Y5370D01*
X81735Y5378D01*
X81702Y5380D01*
X81687D01*
X81670Y5376D01*
X81648Y5372D01*
X81624Y5365D01*
X81600Y5355D01*
X81574Y5341D01*
X81550Y5322D01*
X81548Y5320D01*
X81541Y5311D01*
X81530Y5298D01*
X81517Y5280D01*
X81504Y5255D01*
X81491Y5226D01*
X81479Y5191D01*
X81472Y5150D01*
X81315Y5178D01*
Y5180D01*
X81317Y5185D01*
X81318Y5192D01*
X81320Y5204D01*
X81324Y5217D01*
X81330Y5231D01*
X81341Y5267D01*
X81359Y5307D01*
X81381Y5348D01*
X81409Y5387D01*
X81444Y5422D01*
X81446Y5424D01*
X81450Y5426D01*
X81455Y5430D01*
X81463Y5435D01*
X81472Y5442D01*
X81485Y5450D01*
X81498Y5457D01*
X81515Y5467D01*
X81552Y5481D01*
X81594Y5496D01*
X81644Y5505D01*
X81670Y5509D01*
X81717D01*
X81737Y5507D01*
D02*
G37*
G36*
X80172Y4607D02*
X79685D01*
Y4765D01*
X80172D01*
Y4607D01*
D02*
G37*
G36*
X67449Y4222D02*
X67287D01*
Y5294D01*
X66912Y4222D01*
X66761D01*
X66390Y5313D01*
Y4222D01*
X66227D01*
Y5504D01*
X66481D01*
X66785Y4594D01*
Y4593D01*
X66787Y4589D01*
X66788Y4583D01*
X66792Y4574D01*
X66800Y4552D01*
X66809Y4524D01*
X66818Y4493D01*
X66829Y4461D01*
X66838Y4431D01*
X66846Y4406D01*
X66848Y4409D01*
X66850Y4418D01*
X66855Y4435D01*
X66863Y4457D01*
X66872Y4487D01*
X66885Y4522D01*
X66898Y4563D01*
X66914Y4611D01*
X67222Y5504D01*
X67449D01*
Y4222D01*
D02*
G37*
G36*
X72445D02*
X72268D01*
X71771Y5504D01*
X71956D01*
X72290Y4572D01*
Y4570D01*
X72292Y4567D01*
X72293Y4561D01*
X72297Y4554D01*
X72299Y4543D01*
X72303Y4531D01*
X72312Y4504D01*
X72323Y4472D01*
X72334Y4437D01*
X72356Y4363D01*
Y4365D01*
X72358Y4369D01*
X72360Y4374D01*
X72362Y4381D01*
X72367Y4402D01*
X72377Y4430D01*
X72386Y4461D01*
X72397Y4496D01*
X72410Y4533D01*
X72425Y4572D01*
X72773Y5504D01*
X72945D01*
X72445Y4222D01*
D02*
G37*
G36*
X78002Y5337D02*
X77489D01*
X77421Y4991D01*
X77423Y4993D01*
X77426Y4994D01*
X77432Y4998D01*
X77441Y5004D01*
X77452Y5009D01*
X77465Y5017D01*
X77495Y5031D01*
X77532Y5046D01*
X77573Y5059D01*
X77617Y5068D01*
X77639Y5072D01*
X77680D01*
X77691Y5070D01*
X77706Y5068D01*
X77722Y5067D01*
X77741Y5063D01*
X77761Y5057D01*
X77806Y5044D01*
X77830Y5035D01*
X77854Y5022D01*
X77878Y5009D01*
X77902Y4994D01*
X77924Y4976D01*
X77947Y4955D01*
X77948Y4954D01*
X77952Y4950D01*
X77958Y4944D01*
X77965Y4935D01*
X77974Y4922D01*
X77984Y4909D01*
X77995Y4893D01*
X78006Y4874D01*
X78015Y4854D01*
X78026Y4831D01*
X78035Y4805D01*
X78045Y4780D01*
X78052Y4752D01*
X78058Y4720D01*
X78061Y4689D01*
X78063Y4656D01*
Y4654D01*
Y4648D01*
Y4639D01*
X78061Y4626D01*
X78059Y4611D01*
X78058Y4594D01*
X78054Y4574D01*
X78050Y4554D01*
X78039Y4506D01*
X78021Y4456D01*
X78009Y4430D01*
X77995Y4406D01*
X77980Y4380D01*
X77961Y4356D01*
X77960Y4354D01*
X77956Y4348D01*
X77948Y4341D01*
X77939Y4331D01*
X77926Y4320D01*
X77911Y4306D01*
X77893Y4293D01*
X77872Y4278D01*
X77850Y4263D01*
X77824Y4250D01*
X77797Y4237D01*
X77767Y4224D01*
X77735Y4215D01*
X77700Y4207D01*
X77663Y4202D01*
X77624Y4200D01*
X77608D01*
X77595Y4202D01*
X77580Y4204D01*
X77563Y4206D01*
X77543Y4207D01*
X77523Y4213D01*
X77476Y4224D01*
X77430Y4241D01*
X77406Y4252D01*
X77382Y4265D01*
X77360Y4280D01*
X77337Y4296D01*
X77335Y4298D01*
X77332Y4300D01*
X77328Y4307D01*
X77321Y4315D01*
X77311Y4324D01*
X77302Y4335D01*
X77291Y4350D01*
X77282Y4367D01*
X77271Y4383D01*
X77260Y4404D01*
X77239Y4448D01*
X77223Y4500D01*
X77217Y4528D01*
X77213Y4557D01*
X77378Y4570D01*
Y4568D01*
Y4565D01*
X77380Y4559D01*
X77382Y4550D01*
X77387Y4530D01*
X77395Y4502D01*
X77406Y4474D01*
X77421Y4443D01*
X77439Y4415D01*
X77461Y4389D01*
X77465Y4387D01*
X77473Y4380D01*
X77487Y4370D01*
X77508Y4359D01*
X77530Y4348D01*
X77558Y4339D01*
X77589Y4331D01*
X77624Y4330D01*
X77635D01*
X77643Y4331D01*
X77665Y4333D01*
X77691Y4341D01*
X77722Y4350D01*
X77754Y4365D01*
X77787Y4387D01*
X77802Y4400D01*
X77817Y4415D01*
X77819Y4417D01*
X77821Y4418D01*
X77824Y4424D01*
X77830Y4430D01*
X77843Y4450D01*
X77858Y4476D01*
X77871Y4507D01*
X77884Y4546D01*
X77893Y4593D01*
X77897Y4617D01*
Y4643D01*
Y4644D01*
Y4648D01*
Y4656D01*
X77895Y4665D01*
Y4676D01*
X77893Y4689D01*
X77887Y4718D01*
X77878Y4754D01*
X77865Y4789D01*
X77847Y4822D01*
X77821Y4854D01*
Y4855D01*
X77817Y4857D01*
X77808Y4867D01*
X77791Y4880D01*
X77769Y4894D01*
X77739Y4907D01*
X77706Y4920D01*
X77667Y4930D01*
X77645Y4933D01*
X77610D01*
X77595Y4931D01*
X77576Y4930D01*
X77554Y4924D01*
X77532Y4918D01*
X77508Y4909D01*
X77484Y4898D01*
X77482Y4896D01*
X77474Y4893D01*
X77463Y4883D01*
X77448Y4874D01*
X77434Y4861D01*
X77419Y4844D01*
X77402Y4828D01*
X77389Y4807D01*
X77241Y4828D01*
X77365Y5487D01*
X78002D01*
Y5337D01*
D02*
G37*
G36*
X80756Y5507D02*
X80770Y5505D01*
X80789Y5504D01*
X80809Y5500D01*
X80830Y5496D01*
X80878Y5483D01*
X80926Y5465D01*
X80950Y5454D01*
X80974Y5441D01*
X80996Y5424D01*
X81017Y5405D01*
X81018Y5404D01*
X81022Y5402D01*
X81026Y5394D01*
X81033Y5387D01*
X81043Y5378D01*
X81052Y5365D01*
X81061Y5352D01*
X81072Y5335D01*
X81091Y5300D01*
X81109Y5255D01*
X81117Y5233D01*
X81120Y5207D01*
X81124Y5181D01*
X81126Y5154D01*
Y5150D01*
Y5141D01*
X81124Y5126D01*
X81122Y5105D01*
X81118Y5083D01*
X81111Y5057D01*
X81104Y5030D01*
X81093Y5002D01*
X81091Y4998D01*
X81087Y4989D01*
X81080Y4974D01*
X81068Y4954D01*
X81054Y4931D01*
X81035Y4904D01*
X81013Y4876D01*
X80987Y4844D01*
X80983Y4841D01*
X80974Y4830D01*
X80965Y4820D01*
X80955Y4811D01*
X80944Y4800D01*
X80930Y4785D01*
X80915Y4770D01*
X80896Y4754D01*
X80878Y4735D01*
X80855Y4715D01*
X80831Y4694D01*
X80805Y4670D01*
X80776Y4646D01*
X80746Y4620D01*
X80744Y4618D01*
X80741Y4615D01*
X80733Y4609D01*
X80724Y4602D01*
X80713Y4591D01*
X80700Y4580D01*
X80670Y4556D01*
X80639Y4528D01*
X80609Y4500D01*
X80583Y4476D01*
X80572Y4467D01*
X80563Y4457D01*
X80561Y4456D01*
X80556Y4450D01*
X80548Y4443D01*
X80539Y4431D01*
X80530Y4418D01*
X80518Y4406D01*
X80496Y4374D01*
X81128D01*
Y4222D01*
X80278D01*
Y4224D01*
Y4231D01*
Y4243D01*
X80280Y4257D01*
X80281Y4274D01*
X80285Y4293D01*
X80289Y4311D01*
X80296Y4331D01*
Y4333D01*
X80298Y4335D01*
X80302Y4346D01*
X80309Y4363D01*
X80320Y4385D01*
X80335Y4411D01*
X80354Y4441D01*
X80374Y4470D01*
X80400Y4502D01*
Y4504D01*
X80404Y4506D01*
X80413Y4517D01*
X80430Y4533D01*
X80454Y4557D01*
X80481Y4585D01*
X80517Y4618D01*
X80559Y4656D01*
X80606Y4694D01*
X80607Y4696D01*
X80615Y4702D01*
X80626Y4711D01*
X80639Y4722D01*
X80656Y4737D01*
X80676Y4754D01*
X80696Y4772D01*
X80720Y4793D01*
X80767Y4837D01*
X80813Y4881D01*
X80835Y4904D01*
X80855Y4926D01*
X80874Y4946D01*
X80889Y4967D01*
Y4968D01*
X80893Y4970D01*
X80896Y4976D01*
X80900Y4983D01*
X80913Y5004D01*
X80928Y5028D01*
X80941Y5057D01*
X80954Y5089D01*
X80961Y5124D01*
X80965Y5157D01*
Y5159D01*
Y5161D01*
X80963Y5172D01*
X80961Y5191D01*
X80955Y5211D01*
X80948Y5237D01*
X80935Y5263D01*
X80918Y5289D01*
X80896Y5315D01*
X80893Y5318D01*
X80883Y5326D01*
X80870Y5335D01*
X80850Y5348D01*
X80824Y5359D01*
X80794Y5370D01*
X80759Y5378D01*
X80720Y5380D01*
X80709D01*
X80702Y5378D01*
X80680Y5376D01*
X80654Y5370D01*
X80626Y5363D01*
X80594Y5350D01*
X80565Y5333D01*
X80537Y5311D01*
X80533Y5307D01*
X80526Y5298D01*
X80515Y5283D01*
X80504Y5261D01*
X80491Y5235D01*
X80480Y5202D01*
X80472Y5165D01*
X80468Y5122D01*
X80307Y5139D01*
Y5141D01*
X80309Y5146D01*
Y5155D01*
X80311Y5168D01*
X80315Y5183D01*
X80319Y5200D01*
X80324Y5220D01*
X80330Y5241D01*
X80344Y5285D01*
X80367Y5330D01*
X80380Y5352D01*
X80396Y5374D01*
X80413Y5394D01*
X80431Y5413D01*
X80433Y5415D01*
X80437Y5417D01*
X80443Y5422D01*
X80452Y5428D01*
X80463Y5435D01*
X80476Y5442D01*
X80491Y5452D01*
X80509Y5461D01*
X80530Y5470D01*
X80552Y5479D01*
X80576Y5487D01*
X80602Y5494D01*
X80630Y5500D01*
X80659Y5505D01*
X80691Y5507D01*
X80724Y5509D01*
X80743D01*
X80756Y5507D01*
D02*
G37*
G36*
X77102Y5352D02*
X76680D01*
Y4222D01*
X76510D01*
Y5352D01*
X76087D01*
Y5504D01*
X77102D01*
Y5352D01*
D02*
G37*
G36*
X71640D02*
X70882D01*
Y4961D01*
X71592D01*
Y4809D01*
X70882D01*
Y4374D01*
X71669D01*
Y4222D01*
X70712D01*
Y5504D01*
X71640D01*
Y5352D01*
D02*
G37*
G36*
X69944Y5502D02*
X69981Y5500D01*
X70018Y5496D01*
X70055Y5491D01*
X70086Y5485D01*
X70088D01*
X70092Y5483D01*
X70097D01*
X70105Y5479D01*
X70125Y5474D01*
X70151Y5465D01*
X70181Y5452D01*
X70212Y5435D01*
X70244Y5417D01*
X70273Y5392D01*
X70275Y5391D01*
X70277Y5389D01*
X70283Y5383D01*
X70290Y5378D01*
X70308Y5359D01*
X70331Y5333D01*
X70355Y5302D01*
X70381Y5265D01*
X70405Y5222D01*
X70425Y5174D01*
Y5172D01*
X70427Y5168D01*
X70431Y5161D01*
X70433Y5150D01*
X70438Y5137D01*
X70442Y5122D01*
X70445Y5105D01*
X70451Y5085D01*
X70457Y5065D01*
X70460Y5041D01*
X70470Y4989D01*
X70475Y4931D01*
X70477Y4868D01*
Y4867D01*
Y4863D01*
Y4854D01*
Y4844D01*
X70475Y4831D01*
Y4817D01*
X70473Y4781D01*
X70468Y4741D01*
X70462Y4698D01*
X70453Y4654D01*
X70442Y4609D01*
Y4607D01*
X70440Y4604D01*
X70438Y4598D01*
X70436Y4591D01*
X70429Y4570D01*
X70418Y4544D01*
X70407Y4515D01*
X70392Y4485D01*
X70373Y4454D01*
X70355Y4424D01*
X70353Y4420D01*
X70345Y4411D01*
X70334Y4398D01*
X70320Y4381D01*
X70303Y4363D01*
X70283Y4344D01*
X70262Y4324D01*
X70238Y4307D01*
X70234Y4306D01*
X70227Y4300D01*
X70214Y4293D01*
X70195Y4283D01*
X70173Y4272D01*
X70147Y4263D01*
X70118Y4252D01*
X70084Y4243D01*
X70081D01*
X70075Y4241D01*
X70070Y4239D01*
X70051Y4237D01*
X70025Y4233D01*
X69996Y4230D01*
X69960Y4226D01*
X69921Y4224D01*
X69879Y4222D01*
X69418D01*
Y5504D01*
X69910D01*
X69944Y5502D01*
D02*
G37*
G36*
X68279D02*
X68311Y5500D01*
X68344Y5498D01*
X68375Y5494D01*
X68403Y5491D01*
X68407D01*
X68420Y5487D01*
X68436Y5483D01*
X68459Y5478D01*
X68483Y5468D01*
X68509Y5457D01*
X68536Y5444D01*
X68560Y5430D01*
X68564Y5428D01*
X68572Y5422D01*
X68583Y5411D01*
X68598Y5398D01*
X68614Y5381D01*
X68631Y5359D01*
X68649Y5335D01*
X68664Y5307D01*
X68666Y5304D01*
X68670Y5294D01*
X68677Y5278D01*
X68685Y5255D01*
X68690Y5230D01*
X68698Y5200D01*
X68701Y5167D01*
X68703Y5131D01*
Y5130D01*
Y5124D01*
Y5117D01*
X68701Y5104D01*
X68699Y5091D01*
X68698Y5074D01*
X68694Y5055D01*
X68690Y5035D01*
X68677Y4993D01*
X68670Y4970D01*
X68659Y4946D01*
X68646Y4922D01*
X68633Y4900D01*
X68616Y4878D01*
X68598Y4855D01*
X68596Y4854D01*
X68592Y4850D01*
X68586Y4844D01*
X68577Y4839D01*
X68566Y4830D01*
X68551Y4820D01*
X68533Y4809D01*
X68512Y4800D01*
X68488Y4789D01*
X68460Y4778D01*
X68431Y4768D01*
X68396Y4761D01*
X68359Y4754D01*
X68318Y4748D01*
X68272Y4744D01*
X68223Y4743D01*
X67896D01*
Y4222D01*
X67725D01*
Y5504D01*
X68251D01*
X68279Y5502D01*
D02*
G37*
G36*
X66096Y4222D02*
X65903D01*
X65753Y4611D01*
X65216D01*
X65077Y4222D01*
X64898D01*
X65387Y5504D01*
X65572D01*
X66096Y4222D01*
D02*
G37*
G36*
X64398Y5502D02*
X64429Y5500D01*
X64463Y5498D01*
X64494Y5494D01*
X64522Y5491D01*
X64526D01*
X64539Y5487D01*
X64555Y5483D01*
X64578Y5478D01*
X64602Y5468D01*
X64628Y5457D01*
X64655Y5444D01*
X64679Y5430D01*
X64683Y5428D01*
X64690Y5422D01*
X64702Y5411D01*
X64716Y5398D01*
X64733Y5381D01*
X64750Y5359D01*
X64768Y5335D01*
X64783Y5307D01*
X64785Y5304D01*
X64789Y5294D01*
X64796Y5278D01*
X64803Y5255D01*
X64809Y5230D01*
X64816Y5200D01*
X64820Y5167D01*
X64822Y5131D01*
Y5130D01*
Y5124D01*
Y5117D01*
X64820Y5104D01*
X64818Y5091D01*
X64816Y5074D01*
X64813Y5055D01*
X64809Y5035D01*
X64796Y4993D01*
X64789Y4970D01*
X64778Y4946D01*
X64765Y4922D01*
X64752Y4900D01*
X64735Y4878D01*
X64716Y4855D01*
X64715Y4854D01*
X64711Y4850D01*
X64705Y4844D01*
X64696Y4839D01*
X64685Y4830D01*
X64670Y4820D01*
X64652Y4809D01*
X64631Y4800D01*
X64607Y4789D01*
X64579Y4778D01*
X64550Y4768D01*
X64515Y4761D01*
X64478Y4754D01*
X64437Y4748D01*
X64391Y4744D01*
X64342Y4743D01*
X64015D01*
Y4222D01*
X63844D01*
Y5504D01*
X64370D01*
X64398Y5502D01*
D02*
G37*
G36*
X78261Y4200D02*
X78135D01*
X78508Y5526D01*
X78633D01*
X78261Y4200D01*
D02*
G37*
G36*
X75382Y5524D02*
X75399D01*
X75415Y5522D01*
X75438Y5518D01*
X75460Y5515D01*
X75508Y5505D01*
X75563Y5491D01*
X75617Y5468D01*
X75645Y5455D01*
X75673Y5441D01*
X75675Y5439D01*
X75678Y5437D01*
X75686Y5431D01*
X75697Y5426D01*
X75708Y5417D01*
X75723Y5405D01*
X75754Y5380D01*
X75787Y5346D01*
X75825Y5305D01*
X75860Y5257D01*
X75889Y5204D01*
Y5202D01*
X75893Y5196D01*
X75897Y5189D01*
X75900Y5178D01*
X75908Y5163D01*
X75913Y5146D01*
X75921Y5126D01*
X75928Y5104D01*
X75934Y5080D01*
X75941Y5054D01*
X75949Y5024D01*
X75954Y4994D01*
X75962Y4930D01*
X75965Y4859D01*
Y4857D01*
Y4850D01*
Y4841D01*
X75963Y4826D01*
Y4809D01*
X75962Y4789D01*
X75958Y4767D01*
X75956Y4743D01*
X75947Y4689D01*
X75932Y4630D01*
X75912Y4570D01*
X75900Y4541D01*
X75886Y4511D01*
Y4509D01*
X75882Y4504D01*
X75878Y4496D01*
X75871Y4485D01*
X75863Y4472D01*
X75854Y4459D01*
X75828Y4424D01*
X75797Y4387D01*
X75760Y4348D01*
X75715Y4311D01*
X75663Y4278D01*
X75662D01*
X75658Y4274D01*
X75649Y4270D01*
X75638Y4265D01*
X75625Y4259D01*
X75610Y4254D01*
X75591Y4246D01*
X75571Y4239D01*
X75549Y4231D01*
X75525Y4224D01*
X75471Y4213D01*
X75413Y4204D01*
X75352Y4200D01*
X75334D01*
X75323Y4202D01*
X75306D01*
X75288Y4206D01*
X75267Y4207D01*
X75243Y4211D01*
X75193Y4222D01*
X75139Y4237D01*
X75084Y4259D01*
X75056Y4272D01*
X75028Y4287D01*
X75026Y4289D01*
X75023Y4291D01*
X75015Y4296D01*
X75004Y4304D01*
X74993Y4311D01*
X74980Y4322D01*
X74949Y4350D01*
X74914Y4383D01*
X74876Y4424D01*
X74843Y4470D01*
X74812Y4524D01*
Y4526D01*
X74808Y4531D01*
X74804Y4539D01*
X74801Y4550D01*
X74795Y4565D01*
X74789Y4581D01*
X74782Y4600D01*
X74776Y4620D01*
X74769Y4644D01*
X74762Y4668D01*
X74751Y4724D01*
X74743Y4781D01*
X74739Y4844D01*
Y4846D01*
Y4848D01*
Y4859D01*
X74741Y4876D01*
Y4898D01*
X74745Y4924D01*
X74749Y4955D01*
X74754Y4991D01*
X74762Y5028D01*
X74769Y5067D01*
X74780Y5107D01*
X74795Y5148D01*
X74812Y5191D01*
X74830Y5231D01*
X74854Y5272D01*
X74880Y5309D01*
X74910Y5344D01*
X74912Y5346D01*
X74917Y5352D01*
X74928Y5361D01*
X74941Y5372D01*
X74958Y5387D01*
X74978Y5402D01*
X75002Y5418D01*
X75030Y5435D01*
X75060Y5452D01*
X75093Y5468D01*
X75130Y5483D01*
X75169Y5498D01*
X75212Y5509D01*
X75256Y5518D01*
X75302Y5524D01*
X75352Y5526D01*
X75369D01*
X75382Y5524D01*
D02*
G37*
G36*
X63043D02*
X63059D01*
X63076Y5522D01*
X63098Y5518D01*
X63120Y5515D01*
X63168Y5505D01*
X63224Y5491D01*
X63278Y5468D01*
X63305Y5455D01*
X63333Y5441D01*
X63335Y5439D01*
X63339Y5437D01*
X63346Y5431D01*
X63357Y5426D01*
X63368Y5417D01*
X63383Y5405D01*
X63415Y5380D01*
X63448Y5346D01*
X63485Y5305D01*
X63520Y5257D01*
X63550Y5204D01*
Y5202D01*
X63554Y5196D01*
X63557Y5189D01*
X63561Y5178D01*
X63568Y5163D01*
X63574Y5146D01*
X63581Y5126D01*
X63589Y5104D01*
X63594Y5080D01*
X63602Y5054D01*
X63609Y5024D01*
X63615Y4994D01*
X63622Y4930D01*
X63626Y4859D01*
Y4857D01*
Y4850D01*
Y4841D01*
X63624Y4826D01*
Y4809D01*
X63622Y4789D01*
X63618Y4767D01*
X63617Y4743D01*
X63607Y4689D01*
X63592Y4630D01*
X63572Y4570D01*
X63561Y4541D01*
X63546Y4511D01*
Y4509D01*
X63542Y4504D01*
X63539Y4496D01*
X63531Y4485D01*
X63524Y4472D01*
X63515Y4459D01*
X63489Y4424D01*
X63457Y4387D01*
X63420Y4348D01*
X63376Y4311D01*
X63324Y4278D01*
X63322D01*
X63318Y4274D01*
X63309Y4270D01*
X63298Y4265D01*
X63285Y4259D01*
X63270Y4254D01*
X63252Y4246D01*
X63231Y4239D01*
X63209Y4231D01*
X63185Y4224D01*
X63131Y4213D01*
X63074Y4204D01*
X63013Y4200D01*
X62994D01*
X62983Y4202D01*
X62967D01*
X62948Y4206D01*
X62928Y4207D01*
X62904Y4211D01*
X62854Y4222D01*
X62800Y4237D01*
X62744Y4259D01*
X62717Y4272D01*
X62689Y4287D01*
X62687Y4289D01*
X62683Y4291D01*
X62676Y4296D01*
X62665Y4304D01*
X62654Y4311D01*
X62641Y4322D01*
X62609Y4350D01*
X62574Y4383D01*
X62537Y4424D01*
X62504Y4470D01*
X62472Y4524D01*
Y4526D01*
X62469Y4531D01*
X62465Y4539D01*
X62461Y4550D01*
X62456Y4565D01*
X62450Y4581D01*
X62443Y4600D01*
X62437Y4620D01*
X62430Y4644D01*
X62422Y4668D01*
X62411Y4724D01*
X62404Y4781D01*
X62400Y4844D01*
Y4846D01*
Y4848D01*
Y4859D01*
X62402Y4876D01*
Y4898D01*
X62406Y4924D01*
X62409Y4955D01*
X62415Y4991D01*
X62422Y5028D01*
X62430Y5067D01*
X62441Y5107D01*
X62456Y5148D01*
X62472Y5191D01*
X62491Y5231D01*
X62515Y5272D01*
X62541Y5309D01*
X62570Y5344D01*
X62572Y5346D01*
X62578Y5352D01*
X62589Y5361D01*
X62602Y5372D01*
X62618Y5387D01*
X62639Y5402D01*
X62663Y5418D01*
X62691Y5435D01*
X62720Y5452D01*
X62754Y5468D01*
X62791Y5483D01*
X62830Y5498D01*
X62872Y5509D01*
X62917Y5518D01*
X62963Y5524D01*
X63013Y5526D01*
X63030D01*
X63043Y5524D01*
D02*
G37*
G36*
X79233Y43046D02*
X77785D01*
Y46729D01*
X79233D01*
Y43046D01*
D02*
G37*
G36*
X82336Y76050D02*
X78337D01*
Y77498D01*
X82336D01*
Y76050D01*
D02*
G37*
G36*
X76874D02*
X72846D01*
Y77498D01*
X76874D01*
Y76050D01*
D02*
G37*
G36*
X71354D02*
X67356D01*
Y77498D01*
X71354D01*
Y76050D01*
D02*
G37*
G36*
X65859D02*
X61865D01*
Y77498D01*
X65859D01*
Y76050D01*
D02*
G37*
G36*
X60182D02*
X56375D01*
Y77498D01*
X60182D01*
Y76050D01*
D02*
G37*
G36*
X114294Y41500D02*
X103025D01*
Y43471D01*
X114294D01*
Y41500D01*
D02*
G37*
G36*
X114049Y1450D02*
X102500D01*
Y3421D01*
X114049D01*
Y1450D01*
D02*
G37*
G36*
X44556Y1237D02*
X36229D01*
Y3183D01*
X44556D01*
Y1237D01*
D02*
G37*
G36*
X45540Y41237D02*
X36609D01*
Y43183D01*
X45540D01*
Y41237D01*
D02*
G37*
G36*
X74211Y47800D02*
X71350D01*
Y49215D01*
X74211D01*
Y47800D01*
D02*
G37*
G36*
X75282Y28000D02*
X72825D01*
Y29415D01*
X75282D01*
Y28000D01*
D02*
G37*
G36*
X92837Y42150D02*
X85925D01*
Y43598D01*
X92837D01*
Y42150D01*
D02*
G37*
%LPC*%
G36*
X66735Y3754D02*
X66730D01*
X66726Y3753D01*
X66716Y3752D01*
X66704Y3749D01*
X66689Y3745D01*
X66673Y3738D01*
X66659Y3729D01*
X66644Y3717D01*
X66642Y3715D01*
X66638Y3710D01*
X66632Y3702D01*
X66625Y3691D01*
X66618Y3678D01*
X66611Y3661D01*
X66606Y3642D01*
X66603Y3621D01*
X66863D01*
Y3622D01*
Y3624D01*
X66862Y3626D01*
Y3630D01*
X66860Y3641D01*
X66857Y3653D01*
X66853Y3668D01*
X66848Y3682D01*
X66841Y3696D01*
X66832Y3708D01*
Y3709D01*
X66831Y3710D01*
X66826Y3715D01*
X66818Y3722D01*
X66807Y3731D01*
X66793Y3739D01*
X66776Y3746D01*
X66757Y3752D01*
X66746Y3753D01*
X66735Y3754D01*
D02*
G37*
G36*
X65790D02*
X65785D01*
X65781Y3753D01*
X65771Y3752D01*
X65759Y3749D01*
X65744Y3745D01*
X65729Y3738D01*
X65714Y3729D01*
X65699Y3717D01*
X65697Y3715D01*
X65693Y3710D01*
X65687Y3702D01*
X65680Y3691D01*
X65673Y3678D01*
X65667Y3661D01*
X65661Y3642D01*
X65658Y3621D01*
X65918D01*
Y3622D01*
Y3624D01*
X65917Y3626D01*
Y3630D01*
X65915Y3641D01*
X65913Y3653D01*
X65908Y3668D01*
X65903Y3682D01*
X65896Y3696D01*
X65888Y3708D01*
Y3709D01*
X65886Y3710D01*
X65881Y3715D01*
X65873Y3722D01*
X65862Y3731D01*
X65848Y3739D01*
X65831Y3746D01*
X65812Y3752D01*
X65802Y3753D01*
X65790Y3754D01*
D02*
G37*
G36*
X63255D02*
X63250D01*
X63246Y3753D01*
X63236Y3752D01*
X63224Y3749D01*
X63209Y3745D01*
X63193Y3738D01*
X63179Y3729D01*
X63164Y3717D01*
X63162Y3715D01*
X63158Y3710D01*
X63152Y3702D01*
X63145Y3691D01*
X63138Y3678D01*
X63131Y3661D01*
X63126Y3642D01*
X63123Y3621D01*
X63383D01*
Y3622D01*
Y3624D01*
X63382Y3626D01*
Y3630D01*
X63380Y3641D01*
X63377Y3653D01*
X63373Y3668D01*
X63368Y3682D01*
X63361Y3696D01*
X63352Y3708D01*
Y3709D01*
X63351Y3710D01*
X63346Y3715D01*
X63338Y3722D01*
X63327Y3731D01*
X63313Y3739D01*
X63296Y3746D01*
X63277Y3752D01*
X63266Y3753D01*
X63255Y3754D01*
D02*
G37*
G36*
X64059Y2964D02*
X64053D01*
X64050Y2963D01*
X64039Y2961D01*
X64027Y2958D01*
X64013Y2953D01*
X63999Y2945D01*
X63991Y2939D01*
X63984Y2933D01*
X63977Y2926D01*
X63971Y2918D01*
Y2917D01*
X63969Y2915D01*
X63967Y2911D01*
X63964Y2907D01*
X63962Y2899D01*
X63958Y2891D01*
X63955Y2881D01*
X63952Y2869D01*
X63948Y2855D01*
X63944Y2839D01*
X63940Y2822D01*
X63938Y2802D01*
X63935Y2780D01*
X63933Y2756D01*
X63932Y2730D01*
X63931Y2701D01*
Y2700D01*
Y2695D01*
Y2687D01*
X63932Y2675D01*
Y2663D01*
X63933Y2649D01*
X63934Y2633D01*
X63936Y2616D01*
X63940Y2580D01*
X63943Y2563D01*
X63947Y2546D01*
X63951Y2530D01*
X63956Y2516D01*
X63962Y2503D01*
X63968Y2491D01*
Y2491D01*
X63970Y2490D01*
X63975Y2483D01*
X63983Y2475D01*
X63993Y2466D01*
X64007Y2456D01*
X64023Y2448D01*
X64040Y2442D01*
X64050Y2441D01*
X64060Y2440D01*
X64065D01*
X64069Y2441D01*
X64078Y2442D01*
X64091Y2446D01*
X64105Y2453D01*
X64121Y2462D01*
X64128Y2467D01*
X64136Y2475D01*
X64143Y2482D01*
X64150Y2491D01*
Y2492D01*
X64152Y2494D01*
X64154Y2497D01*
X64156Y2502D01*
X64160Y2508D01*
X64162Y2516D01*
X64166Y2526D01*
X64170Y2537D01*
X64172Y2551D01*
X64176Y2565D01*
X64180Y2583D01*
X64183Y2602D01*
X64185Y2624D01*
X64186Y2647D01*
X64188Y2673D01*
Y2701D01*
Y2702D01*
Y2703D01*
Y2708D01*
Y2716D01*
X64187Y2727D01*
Y2739D01*
X64186Y2754D01*
X64185Y2770D01*
X64184Y2787D01*
X64179Y2822D01*
X64176Y2840D01*
X64172Y2857D01*
X64169Y2872D01*
X64163Y2887D01*
X64158Y2900D01*
X64151Y2911D01*
Y2912D01*
X64149Y2913D01*
X64148Y2916D01*
X64145Y2920D01*
X64136Y2928D01*
X64126Y2938D01*
X64112Y2947D01*
X64097Y2956D01*
X64088Y2959D01*
X64079Y2962D01*
X64069Y2963D01*
X64059Y2964D01*
D02*
G37*
G36*
X63313D02*
X63307D01*
X63303Y2963D01*
X63293Y2961D01*
X63281Y2958D01*
X63267Y2953D01*
X63253Y2945D01*
X63245Y2939D01*
X63238Y2933D01*
X63231Y2926D01*
X63225Y2918D01*
Y2917D01*
X63223Y2915D01*
X63221Y2911D01*
X63218Y2907D01*
X63216Y2899D01*
X63212Y2891D01*
X63209Y2881D01*
X63205Y2869D01*
X63202Y2855D01*
X63198Y2839D01*
X63194Y2822D01*
X63192Y2802D01*
X63189Y2780D01*
X63187Y2756D01*
X63186Y2730D01*
X63185Y2701D01*
Y2700D01*
Y2695D01*
Y2687D01*
X63186Y2675D01*
Y2663D01*
X63187Y2649D01*
X63188Y2633D01*
X63190Y2616D01*
X63194Y2580D01*
X63197Y2563D01*
X63201Y2546D01*
X63204Y2530D01*
X63210Y2516D01*
X63216Y2503D01*
X63222Y2491D01*
Y2491D01*
X63224Y2490D01*
X63229Y2483D01*
X63237Y2475D01*
X63247Y2466D01*
X63261Y2456D01*
X63277Y2448D01*
X63294Y2442D01*
X63303Y2441D01*
X63314Y2440D01*
X63319D01*
X63323Y2441D01*
X63332Y2442D01*
X63345Y2446D01*
X63359Y2453D01*
X63375Y2462D01*
X63382Y2467D01*
X63389Y2475D01*
X63397Y2482D01*
X63404Y2491D01*
Y2492D01*
X63406Y2494D01*
X63408Y2497D01*
X63410Y2502D01*
X63413Y2508D01*
X63416Y2516D01*
X63420Y2526D01*
X63424Y2537D01*
X63426Y2551D01*
X63430Y2565D01*
X63434Y2583D01*
X63437Y2602D01*
X63438Y2624D01*
X63440Y2647D01*
X63442Y2673D01*
Y2701D01*
Y2702D01*
Y2703D01*
Y2708D01*
Y2716D01*
X63441Y2727D01*
Y2739D01*
X63440Y2754D01*
X63439Y2770D01*
X63437Y2787D01*
X63433Y2822D01*
X63430Y2840D01*
X63426Y2857D01*
X63423Y2872D01*
X63417Y2887D01*
X63412Y2900D01*
X63405Y2911D01*
Y2912D01*
X63403Y2913D01*
X63401Y2916D01*
X63399Y2920D01*
X63390Y2928D01*
X63380Y2938D01*
X63366Y2947D01*
X63351Y2956D01*
X63342Y2959D01*
X63333Y2962D01*
X63323Y2963D01*
X63313Y2964D01*
D02*
G37*
G36*
X73882Y64468D02*
X73849D01*
X73804Y64467D01*
X73764Y64465D01*
X73730Y64459D01*
X73703Y64455D01*
X73679Y64450D01*
X73662Y64444D01*
X73653Y64443D01*
X73649Y64441D01*
X73623Y64430D01*
X73599Y64418D01*
X73580Y64405D01*
X73564Y64393D01*
X73549Y64381D01*
X73540Y64372D01*
X73534Y64365D01*
X73532Y64363D01*
X73519Y64343D01*
X73508Y64322D01*
X73501Y64300D01*
X73497Y64281D01*
X73493Y64263D01*
X73492Y64250D01*
Y64241D01*
Y64237D01*
X73493Y64213D01*
X73497Y64191D01*
X73505Y64172D01*
X73512Y64154D01*
X73517Y64141D01*
X73525Y64130D01*
X73529Y64122D01*
X73530Y64120D01*
X73545Y64102D01*
X73562Y64087D01*
X73577Y64074D01*
X73592Y64065D01*
X73604Y64056D01*
X73616Y64050D01*
X73623Y64048D01*
X73625Y64046D01*
X73636Y64043D01*
X73651Y64037D01*
X73680Y64030D01*
X73716Y64022D01*
X73749Y64015D01*
X73780Y64007D01*
X73795Y64006D01*
X73806Y64002D01*
X73816Y64000D01*
X73825D01*
X73829Y63998D01*
X73830D01*
X73864Y63993D01*
X73892Y63987D01*
X73912Y63981D01*
X73927Y63978D01*
X73938Y63974D01*
X73945Y63970D01*
X73949Y63968D01*
X73951D01*
X73962Y63961D01*
X73969Y63954D01*
X73975Y63946D01*
X73979Y63939D01*
X73982Y63928D01*
Y63924D01*
Y63922D01*
X73980Y63913D01*
X73979Y63904D01*
X73969Y63889D01*
X73960Y63881D01*
X73958Y63878D01*
X73956D01*
X73943Y63870D01*
X73930Y63865D01*
X73903Y63857D01*
X73890Y63856D01*
X73879Y63854D01*
X73869D01*
X73851Y63856D01*
X73834Y63857D01*
X73819Y63861D01*
X73808Y63865D01*
X73799Y63868D01*
X73792Y63870D01*
X73788Y63874D01*
X73786D01*
X73775Y63883D01*
X73766Y63894D01*
X73753Y63920D01*
X73747Y63931D01*
X73743Y63939D01*
X73740Y63946D01*
Y63948D01*
X73460Y63922D01*
D01*
X73471Y63885D01*
X73488Y63852D01*
X73505Y63822D01*
X73523Y63800D01*
X73542Y63781D01*
X73556Y63769D01*
X73566Y63759D01*
X73569Y63757D01*
X73586Y63748D01*
X73606Y63739D01*
X73651Y63724D01*
X73697Y63715D01*
X73745Y63707D01*
X73767Y63706D01*
X73788Y63704D01*
X73806Y63702D01*
X73823D01*
X73838Y63700D01*
X73460D01*
D01*
X74241D01*
X73856D01*
X73906Y63702D01*
X73951Y63706D01*
X73990Y63711D01*
X74021Y63719D01*
X74047Y63724D01*
X74066Y63730D01*
X74077Y63733D01*
X74080Y63735D01*
X74110Y63750D01*
X74134Y63765D01*
X74156Y63781D01*
X74173Y63796D01*
X74186Y63809D01*
X74195Y63820D01*
X74201Y63828D01*
X74203Y63830D01*
X74216Y63852D01*
X74225Y63874D01*
X74232Y63896D01*
X74236Y63915D01*
X74240Y63931D01*
X74241Y63943D01*
Y63954D01*
X74240Y63976D01*
X74236Y63998D01*
X74230Y64018D01*
X74223Y64035D01*
X74216Y64048D01*
X74210Y64059D01*
X74206Y64067D01*
X74204Y64068D01*
X74190Y64087D01*
X74173Y64104D01*
X74154Y64118D01*
X74138Y64130D01*
X74123Y64139D01*
X74110Y64144D01*
X74103Y64148D01*
X74099Y64150D01*
X74071Y64161D01*
X74038Y64170D01*
X74003Y64178D01*
X73969Y64183D01*
X73938Y64189D01*
X73925Y64191D01*
X73912Y64193D01*
X73903D01*
X73895Y64194D01*
X73890D01*
X73858Y64198D01*
X73832Y64204D01*
X73810Y64207D01*
X73795Y64211D01*
X73782Y64215D01*
X73775Y64218D01*
X73771Y64220D01*
X73769D01*
X73760Y64226D01*
X73754Y64231D01*
X73747Y64246D01*
X73743Y64257D01*
Y64259D01*
Y64261D01*
X73745Y64270D01*
X73747Y64278D01*
X73754Y64291D01*
X73760Y64298D01*
X73764Y64302D01*
X73773Y64307D01*
X73784Y64313D01*
X73808Y64318D01*
X73817Y64320D01*
X73851D01*
X73867Y64317D01*
X73880Y64313D01*
X73893Y64309D01*
X73903Y64305D01*
X73910Y64302D01*
X73914Y64300D01*
X73916Y64298D01*
X73930Y64283D01*
X73941Y64267D01*
X73945Y64259D01*
X73949Y64252D01*
X73951Y64248D01*
Y64246D01*
X74217Y64272D01*
X74206Y64298D01*
X74195Y64320D01*
X74182Y64339D01*
X74171Y64355D01*
X74162Y64368D01*
X74154Y64378D01*
X74149Y64383D01*
X74147Y64385D01*
X74130Y64400D01*
X74112Y64413D01*
X74095Y64424D01*
X74079Y64433D01*
X74064Y64439D01*
X74053Y64444D01*
X74045Y64448D01*
X74041D01*
X74016Y64455D01*
X73986Y64459D01*
X73954Y64463D01*
X73923Y64467D01*
X73893D01*
X73882Y64468D01*
D02*
G37*
G36*
X73425Y64731D02*
X73106D01*
X72881Y64000D01*
X72653Y64731D01*
X72325D01*
X72708Y63717D01*
X73047D01*
X73425Y64731D01*
D02*
G37*
G36*
X74732Y64196D02*
X74323D01*
Y63978D01*
X74732D01*
Y64196D01*
D02*
G37*
G36*
X73632Y62293D02*
X73599D01*
X73554Y62292D01*
X73514Y62290D01*
X73480Y62284D01*
X73453Y62280D01*
X73429Y62275D01*
X73412Y62269D01*
X73403Y62268D01*
X73399Y62266D01*
X73373Y62255D01*
X73349Y62243D01*
X73330Y62230D01*
X73314Y62218D01*
X73299Y62206D01*
X73290Y62197D01*
X73284Y62190D01*
X73282Y62188D01*
X73269Y62168D01*
X73258Y62147D01*
X73251Y62125D01*
X73247Y62106D01*
X73243Y62088D01*
X73242Y62075D01*
Y62066D01*
Y62062D01*
X73243Y62038D01*
X73247Y62016D01*
X73255Y61997D01*
X73262Y61979D01*
X73267Y61966D01*
X73275Y61955D01*
X73279Y61947D01*
X73280Y61945D01*
X73295Y61927D01*
X73312Y61912D01*
X73327Y61899D01*
X73342Y61890D01*
X73354Y61881D01*
X73366Y61875D01*
X73373Y61873D01*
X73375Y61871D01*
X73386Y61868D01*
X73401Y61862D01*
X73430Y61855D01*
X73466Y61847D01*
X73499Y61840D01*
X73530Y61832D01*
X73545Y61831D01*
X73556Y61827D01*
X73566Y61825D01*
X73575D01*
X73579Y61823D01*
X73580D01*
X73614Y61818D01*
X73642Y61812D01*
X73662Y61806D01*
X73677Y61803D01*
X73688Y61799D01*
X73695Y61795D01*
X73699Y61793D01*
X73701D01*
X73712Y61786D01*
X73719Y61779D01*
X73725Y61771D01*
X73729Y61764D01*
X73732Y61753D01*
Y61749D01*
Y61747D01*
X73730Y61738D01*
X73729Y61729D01*
X73719Y61714D01*
X73710Y61706D01*
X73708Y61703D01*
X73706D01*
X73693Y61695D01*
X73680Y61690D01*
X73653Y61682D01*
X73640Y61681D01*
X73629Y61679D01*
X73619D01*
X73601Y61681D01*
X73584Y61682D01*
X73569Y61686D01*
X73558Y61690D01*
X73549Y61694D01*
X73542Y61695D01*
X73538Y61699D01*
X73536D01*
X73525Y61708D01*
X73516Y61719D01*
X73503Y61745D01*
X73497Y61756D01*
X73493Y61764D01*
X73490Y61771D01*
Y61773D01*
X73210Y61747D01*
X73221Y61710D01*
X73238Y61677D01*
X73255Y61647D01*
X73273Y61625D01*
X73292Y61606D01*
X73306Y61594D01*
X73316Y61584D01*
X73319Y61582D01*
X73336Y61573D01*
X73356Y61564D01*
X73401Y61549D01*
X73447Y61540D01*
X73495Y61532D01*
X73517Y61531D01*
X73538Y61529D01*
X73556Y61527D01*
X73573D01*
X73588Y61525D01*
X73606D01*
X73656Y61527D01*
X73701Y61531D01*
X73740Y61536D01*
X73771Y61544D01*
X73797Y61549D01*
X73816Y61555D01*
X73827Y61558D01*
X73830Y61560D01*
X73860Y61575D01*
X73884Y61590D01*
X73906Y61606D01*
X73923Y61621D01*
X73936Y61634D01*
X73945Y61645D01*
X73951Y61653D01*
X73953Y61655D01*
X73966Y61677D01*
X73975Y61699D01*
X73982Y61721D01*
X73986Y61740D01*
X73990Y61756D01*
X73991Y61768D01*
Y61779D01*
X73990Y61801D01*
X73986Y61823D01*
X73980Y61843D01*
X73973Y61860D01*
X73966Y61873D01*
X73960Y61884D01*
X73956Y61892D01*
X73954Y61893D01*
X73940Y61912D01*
X73923Y61929D01*
X73904Y61943D01*
X73888Y61955D01*
X73873Y61964D01*
X73860Y61969D01*
X73853Y61973D01*
X73849Y61975D01*
X73821Y61986D01*
X73788Y61995D01*
X73753Y62003D01*
X73719Y62008D01*
X73688Y62014D01*
X73675Y62016D01*
X73662Y62018D01*
X73653D01*
X73645Y62019D01*
X73640D01*
X73608Y62023D01*
X73582Y62029D01*
X73560Y62032D01*
X73545Y62036D01*
X73532Y62040D01*
X73525Y62043D01*
X73521Y62045D01*
X73519D01*
X73510Y62051D01*
X73504Y62056D01*
X73497Y62071D01*
X73493Y62082D01*
Y62084D01*
Y62086D01*
X73495Y62095D01*
X73497Y62103D01*
X73504Y62116D01*
X73510Y62123D01*
X73514Y62127D01*
X73523Y62132D01*
X73534Y62138D01*
X73558Y62143D01*
X73567Y62145D01*
X73601D01*
X73617Y62142D01*
X73630Y62138D01*
X73643Y62134D01*
X73653Y62130D01*
X73660Y62127D01*
X73664Y62125D01*
X73666Y62123D01*
X73680Y62108D01*
X73691Y62092D01*
X73695Y62084D01*
X73699Y62077D01*
X73701Y62073D01*
Y62071D01*
X73967Y62097D01*
X73956Y62123D01*
X73945Y62145D01*
X73932Y62164D01*
X73921Y62180D01*
X73912Y62193D01*
X73904Y62203D01*
X73899Y62208D01*
X73897Y62210D01*
X73880Y62225D01*
X73862Y62238D01*
X73845Y62249D01*
X73829Y62258D01*
X73814Y62264D01*
X73803Y62269D01*
X73795Y62273D01*
X73791D01*
X73766Y62280D01*
X73736Y62284D01*
X73704Y62288D01*
X73673Y62292D01*
X73643D01*
X73632Y62293D01*
D02*
G37*
G36*
X73175Y62556D02*
X72856D01*
X72631Y61825D01*
X72403Y62556D01*
X72075D01*
X72458Y61542D01*
X72797D01*
X73175Y62556D01*
D02*
G37*
G36*
X74619Y62427D02*
X74395D01*
Y62160D01*
X74130D01*
Y61936D01*
X74395D01*
Y61671D01*
X74619D01*
Y61936D01*
X74886D01*
Y62160D01*
X74619D01*
Y62427D01*
D02*
G37*
G36*
X79137Y4915D02*
X79126D01*
X79119Y4913D01*
X79100Y4911D01*
X79074Y4905D01*
X79046Y4896D01*
X79015Y4881D01*
X78985Y4863D01*
X78956Y4837D01*
X78952Y4833D01*
X78945Y4824D01*
X78932Y4807D01*
X78919Y4783D01*
X78906Y4755D01*
X78893Y4720D01*
X78885Y4681D01*
X78882Y4637D01*
Y4633D01*
Y4624D01*
X78883Y4607D01*
X78885Y4587D01*
X78889Y4563D01*
X78896Y4537D01*
X78904Y4509D01*
X78915Y4481D01*
X78917Y4478D01*
X78922Y4468D01*
X78930Y4456D01*
X78941Y4439D01*
X78954Y4422D01*
X78970Y4402D01*
X78989Y4385D01*
X79011Y4369D01*
X79015Y4367D01*
X79022Y4363D01*
X79035Y4356D01*
X79052Y4350D01*
X79070Y4343D01*
X79093Y4335D01*
X79117Y4331D01*
X79143Y4330D01*
X79152D01*
X79159Y4331D01*
X79178Y4333D01*
X79202Y4339D01*
X79228Y4350D01*
X79258Y4363D01*
X79287Y4383D01*
X79302Y4394D01*
X79315Y4409D01*
Y4411D01*
X79319Y4413D01*
X79326Y4424D01*
X79337Y4443D01*
X79352Y4467D01*
X79365Y4498D01*
X79376Y4535D01*
X79383Y4578D01*
X79387Y4628D01*
Y4630D01*
Y4633D01*
Y4641D01*
X79385Y4650D01*
Y4661D01*
X79383Y4674D01*
X79378Y4704D01*
X79370Y4737D01*
X79357Y4772D01*
X79339Y4805D01*
X79315Y4837D01*
X79311Y4841D01*
X79302Y4850D01*
X79287Y4861D01*
X79267Y4876D01*
X79241Y4891D01*
X79211Y4902D01*
X79176Y4911D01*
X79137Y4915D01*
D02*
G37*
G36*
X69884Y5352D02*
X69588D01*
Y4374D01*
X69892D01*
X69905Y4376D01*
X69933Y4378D01*
X69964Y4380D01*
X69997Y4383D01*
X70031Y4389D01*
X70058Y4396D01*
X70062Y4398D01*
X70071Y4400D01*
X70084Y4406D01*
X70101Y4413D01*
X70120Y4424D01*
X70138Y4435D01*
X70157Y4448D01*
X70175Y4463D01*
X70177Y4467D01*
X70184Y4474D01*
X70195Y4487D01*
X70208Y4506D01*
X70223Y4530D01*
X70240Y4557D01*
X70255Y4589D01*
X70268Y4624D01*
Y4626D01*
X70270Y4630D01*
X70271Y4635D01*
X70273Y4643D01*
X70275Y4652D01*
X70279Y4665D01*
X70283Y4678D01*
X70286Y4693D01*
X70292Y4730D01*
X70297Y4772D01*
X70301Y4820D01*
X70303Y4872D01*
Y4874D01*
Y4881D01*
Y4891D01*
X70301Y4905D01*
Y4922D01*
X70299Y4941D01*
X70297Y4963D01*
X70295Y4985D01*
X70286Y5035D01*
X70275Y5087D01*
X70258Y5135D01*
X70247Y5159D01*
X70236Y5180D01*
Y5181D01*
X70233Y5185D01*
X70229Y5191D01*
X70225Y5198D01*
X70210Y5217D01*
X70192Y5239D01*
X70168Y5263D01*
X70140Y5287D01*
X70108Y5307D01*
X70075Y5324D01*
X70071Y5326D01*
X70062Y5328D01*
X70046Y5333D01*
X70021Y5339D01*
X69992Y5342D01*
X69955Y5348D01*
X69933Y5350D01*
X69908D01*
X69884Y5352D01*
D02*
G37*
G36*
X68262D02*
X67896D01*
Y4894D01*
X68240D01*
X68253Y4896D01*
X68266D01*
X68281Y4898D01*
X68316Y4902D01*
X68355Y4909D01*
X68394Y4920D01*
X68429Y4935D01*
X68446Y4944D01*
X68459Y4955D01*
X68462Y4959D01*
X68470Y4967D01*
X68481Y4981D01*
X68494Y5000D01*
X68507Y5024D01*
X68518Y5054D01*
X68525Y5087D01*
X68529Y5126D01*
Y5128D01*
Y5130D01*
Y5139D01*
X68527Y5155D01*
X68523Y5174D01*
X68520Y5194D01*
X68512Y5218D01*
X68501Y5241D01*
X68488Y5263D01*
X68486Y5265D01*
X68481Y5272D01*
X68472Y5281D01*
X68460Y5294D01*
X68444Y5307D01*
X68425Y5318D01*
X68405Y5330D01*
X68381Y5339D01*
X68379D01*
X68372Y5341D01*
X68360Y5342D01*
X68346Y5346D01*
X68323Y5348D01*
X68296Y5350D01*
X68262Y5352D01*
D02*
G37*
G36*
X65476Y5370D02*
Y5368D01*
X65474Y5365D01*
Y5357D01*
X65470Y5350D01*
X65468Y5337D01*
X65465Y5324D01*
X65457Y5292D01*
X65448Y5255D01*
X65435Y5215D01*
X65422Y5170D01*
X65405Y5124D01*
X65266Y4750D01*
X65700D01*
X65566Y5102D01*
Y5104D01*
X65564Y5109D01*
X65561Y5118D01*
X65557Y5130D01*
X65552Y5142D01*
X65546Y5159D01*
X65540Y5178D01*
X65533Y5196D01*
X65518Y5239D01*
X65503Y5283D01*
X65489Y5328D01*
X65476Y5370D01*
D02*
G37*
G36*
X64381Y5352D02*
X64015D01*
Y4894D01*
X64359D01*
X64372Y4896D01*
X64385D01*
X64400Y4898D01*
X64435Y4902D01*
X64474Y4909D01*
X64513Y4920D01*
X64548Y4935D01*
X64565Y4944D01*
X64578Y4955D01*
X64581Y4959D01*
X64589Y4967D01*
X64600Y4981D01*
X64613Y5000D01*
X64626Y5024D01*
X64637Y5054D01*
X64644Y5087D01*
X64648Y5126D01*
Y5128D01*
Y5130D01*
Y5139D01*
X64646Y5155D01*
X64642Y5174D01*
X64639Y5194D01*
X64631Y5218D01*
X64620Y5241D01*
X64607Y5263D01*
X64605Y5265D01*
X64600Y5272D01*
X64591Y5281D01*
X64579Y5294D01*
X64563Y5307D01*
X64544Y5318D01*
X64524Y5330D01*
X64500Y5339D01*
X64498D01*
X64491Y5341D01*
X64479Y5342D01*
X64465Y5346D01*
X64442Y5348D01*
X64415Y5350D01*
X64381Y5352D01*
D02*
G37*
G36*
X75352Y5380D02*
X75336D01*
X75323Y5378D01*
X75306Y5376D01*
X75289Y5372D01*
X75269Y5368D01*
X75247Y5365D01*
X75199Y5350D01*
X75173Y5339D01*
X75147Y5328D01*
X75119Y5313D01*
X75093Y5296D01*
X75067Y5278D01*
X75043Y5255D01*
X75041Y5254D01*
X75038Y5250D01*
X75032Y5242D01*
X75023Y5231D01*
X75014Y5218D01*
X75002Y5202D01*
X74991Y5181D01*
X74978Y5157D01*
X74967Y5131D01*
X74954Y5100D01*
X74943Y5067D01*
X74934Y5030D01*
X74925Y4989D01*
X74919Y4943D01*
X74915Y4894D01*
X74914Y4843D01*
Y4841D01*
Y4833D01*
Y4820D01*
X74915Y4804D01*
X74917Y4785D01*
X74921Y4763D01*
X74925Y4737D01*
X74928Y4711D01*
X74943Y4652D01*
X74954Y4622D01*
X74965Y4591D01*
X74980Y4561D01*
X74997Y4531D01*
X75015Y4504D01*
X75038Y4478D01*
X75039Y4476D01*
X75043Y4472D01*
X75051Y4465D01*
X75060Y4457D01*
X75073Y4446D01*
X75088Y4435D01*
X75104Y4424D01*
X75123Y4411D01*
X75145Y4398D01*
X75169Y4387D01*
X75195Y4376D01*
X75223Y4365D01*
X75252Y4357D01*
X75282Y4350D01*
X75315Y4346D01*
X75351Y4344D01*
X75360D01*
X75369Y4346D01*
X75382D01*
X75399Y4348D01*
X75417Y4352D01*
X75439Y4356D01*
X75462Y4361D01*
X75488Y4369D01*
X75512Y4378D01*
X75539Y4387D01*
X75565Y4400D01*
X75591Y4417D01*
X75617Y4433D01*
X75643Y4454D01*
X75667Y4478D01*
X75669Y4480D01*
X75673Y4483D01*
X75678Y4493D01*
X75688Y4504D01*
X75697Y4517D01*
X75706Y4533D01*
X75717Y4554D01*
X75730Y4576D01*
X75741Y4602D01*
X75752Y4631D01*
X75762Y4663D01*
X75773Y4696D01*
X75780Y4733D01*
X75786Y4774D01*
X75789Y4817D01*
X75791Y4861D01*
Y4863D01*
Y4868D01*
Y4876D01*
Y4887D01*
X75789Y4900D01*
Y4917D01*
X75787Y4933D01*
X75784Y4954D01*
X75778Y4996D01*
X75769Y5041D01*
X75756Y5089D01*
X75738Y5133D01*
Y5135D01*
X75736Y5139D01*
X75732Y5144D01*
X75728Y5152D01*
X75715Y5174D01*
X75699Y5200D01*
X75676Y5230D01*
X75649Y5259D01*
X75617Y5289D01*
X75582Y5315D01*
X75580D01*
X75578Y5318D01*
X75573Y5320D01*
X75563Y5326D01*
X75554Y5330D01*
X75543Y5335D01*
X75515Y5348D01*
X75482Y5359D01*
X75443Y5370D01*
X75399Y5378D01*
X75352Y5380D01*
D02*
G37*
G36*
X63013D02*
X62996D01*
X62983Y5378D01*
X62967Y5376D01*
X62950Y5372D01*
X62930Y5368D01*
X62907Y5365D01*
X62859Y5350D01*
X62833Y5339D01*
X62807Y5328D01*
X62780Y5313D01*
X62754Y5296D01*
X62728Y5278D01*
X62704Y5255D01*
X62702Y5254D01*
X62698Y5250D01*
X62693Y5242D01*
X62683Y5231D01*
X62674Y5218D01*
X62663Y5202D01*
X62652Y5181D01*
X62639Y5157D01*
X62628Y5131D01*
X62615Y5100D01*
X62604Y5067D01*
X62594Y5030D01*
X62585Y4989D01*
X62580Y4943D01*
X62576Y4894D01*
X62574Y4843D01*
Y4841D01*
Y4833D01*
Y4820D01*
X62576Y4804D01*
X62578Y4785D01*
X62581Y4763D01*
X62585Y4737D01*
X62589Y4711D01*
X62604Y4652D01*
X62615Y4622D01*
X62626Y4591D01*
X62641Y4561D01*
X62657Y4531D01*
X62676Y4504D01*
X62698Y4478D01*
X62700Y4476D01*
X62704Y4472D01*
X62711Y4465D01*
X62720Y4457D01*
X62733Y4446D01*
X62748Y4435D01*
X62765Y4424D01*
X62783Y4411D01*
X62806Y4398D01*
X62830Y4387D01*
X62856Y4376D01*
X62883Y4365D01*
X62913Y4357D01*
X62943Y4350D01*
X62976Y4346D01*
X63011Y4344D01*
X63020D01*
X63030Y4346D01*
X63043D01*
X63059Y4348D01*
X63078Y4352D01*
X63100Y4356D01*
X63122Y4361D01*
X63148Y4369D01*
X63172Y4378D01*
X63200Y4387D01*
X63226Y4400D01*
X63252Y4417D01*
X63278Y4433D01*
X63304Y4454D01*
X63328Y4478D01*
X63330Y4480D01*
X63333Y4483D01*
X63339Y4493D01*
X63348Y4504D01*
X63357Y4517D01*
X63367Y4533D01*
X63378Y4554D01*
X63391Y4576D01*
X63402Y4602D01*
X63413Y4631D01*
X63422Y4663D01*
X63433Y4696D01*
X63441Y4733D01*
X63446Y4774D01*
X63450Y4817D01*
X63452Y4861D01*
Y4863D01*
Y4868D01*
Y4876D01*
Y4887D01*
X63450Y4900D01*
Y4917D01*
X63448Y4933D01*
X63444Y4954D01*
X63439Y4996D01*
X63430Y5041D01*
X63417Y5089D01*
X63398Y5133D01*
Y5135D01*
X63396Y5139D01*
X63392Y5144D01*
X63389Y5152D01*
X63376Y5174D01*
X63359Y5200D01*
X63337Y5230D01*
X63309Y5259D01*
X63278Y5289D01*
X63243Y5315D01*
X63241D01*
X63239Y5318D01*
X63233Y5320D01*
X63224Y5326D01*
X63215Y5330D01*
X63204Y5335D01*
X63176Y5348D01*
X63143Y5359D01*
X63104Y5370D01*
X63059Y5378D01*
X63013Y5380D01*
D02*
G37*
G36*
X79016Y46529D02*
Y46208D01*
X78251D01*
Y46529D01*
X78001D01*
Y45575D01*
X79016D01*
Y46529D01*
D02*
G37*
G36*
X79033Y45440D02*
X78001D01*
Y44999D01*
Y45127D01*
X78620D01*
X78650Y45125D01*
X78675Y45119D01*
X78700Y45112D01*
X78718Y45105D01*
X78733Y45095D01*
X78742Y45088D01*
X78750Y45082D01*
X78751Y45081D01*
X78766Y45062D01*
X78777Y45042D01*
X78785Y45020D01*
X78790Y44999D01*
X78794Y44981D01*
X78796Y44966D01*
Y44953D01*
X78794Y44923D01*
X78788Y44897D01*
X78781Y44875D01*
X78772Y44857D01*
X78764Y44842D01*
X78757Y44832D01*
X78751Y44825D01*
X78750Y44823D01*
X78731Y44808D01*
X78709Y44797D01*
X78688Y44790D01*
X78668Y44784D01*
X78650Y44781D01*
X78633Y44779D01*
X78624D01*
X78620D01*
X78001D01*
Y44784D01*
Y44779D01*
Y44466D01*
X79033D01*
Y44797D01*
Y44466D01*
X78607D01*
X78635Y44468D01*
X78664Y44470D01*
X78694Y44475D01*
X78720Y44481D01*
X78742Y44484D01*
X78761Y44490D01*
X78768Y44492D01*
X78774D01*
X78775Y44494D01*
X78777D01*
X78800Y44501D01*
X78822Y44512D01*
X78842Y44523D01*
X78859Y44534D01*
X78874Y44544D01*
X78887Y44553D01*
X78894Y44558D01*
X78896Y44560D01*
X78916Y44579D01*
X78933Y44597D01*
X78948Y44616D01*
X78961Y44633D01*
X78970Y44647D01*
X78977Y44658D01*
X78981Y44666D01*
X78983Y44668D01*
X78992Y44692D01*
X79001Y44716D01*
X79009Y44740D01*
X79012Y44764D01*
X79018Y44782D01*
X79020Y44799D01*
X79022Y44810D01*
Y44814D01*
X79025Y44847D01*
X79027Y44877D01*
X79031Y44905D01*
Y44929D01*
X79033Y44949D01*
Y44797D01*
Y44949D01*
Y44977D01*
X79031Y45023D01*
X79027Y45066D01*
X79022Y45103D01*
X79016Y45134D01*
X79011Y45162D01*
X79005Y45181D01*
X79003Y45188D01*
X79001Y45194D01*
X79000Y45195D01*
Y45197D01*
X78988Y45221D01*
X78975Y45244D01*
X78963Y45266D01*
X78950Y45284D01*
X78937Y45299D01*
X78925Y45310D01*
X78918Y45319D01*
X78916Y45321D01*
X78894Y45344D01*
X78870Y45360D01*
X78846Y45377D01*
X78824Y45388D01*
X78805Y45399D01*
X78790Y45405D01*
X78781Y45408D01*
X78777Y45410D01*
X78746Y45419D01*
X78716Y45427D01*
X78688Y45432D01*
X78661Y45436D01*
X78638Y45438D01*
X78622Y45440D01*
X79033D01*
D02*
G37*
G36*
Y44297D02*
X78501D01*
X78457Y44296D01*
X78414Y44292D01*
X78376Y44284D01*
X78338Y44275D01*
X78305Y44266D01*
X78274Y44253D01*
X78246Y44242D01*
X78220Y44229D01*
X78198Y44216D01*
X78177Y44203D01*
X78161Y44190D01*
X78146Y44181D01*
X78137Y44171D01*
X78127Y44164D01*
X78124Y44160D01*
X78122Y44158D01*
X78098Y44131D01*
X78077Y44103D01*
X78059Y44071D01*
X78042Y44040D01*
X78029Y44008D01*
X78018Y43975D01*
X78009Y43944D01*
X78001Y43912D01*
X77996Y43884D01*
X77992Y43857D01*
X77989Y43833D01*
X77987Y43810D01*
X77985Y43794D01*
Y43807D01*
Y43770D01*
X77987Y43725D01*
X77990Y43683D01*
X77998Y43642D01*
X78007Y43605D01*
X78016Y43570D01*
X78029Y43538D01*
X78040Y43509D01*
X78053Y43483D01*
X78066Y43460D01*
X78079Y43440D01*
X78092Y43423D01*
X78101Y43409D01*
X78111Y43397D01*
X78118Y43390D01*
X78122Y43384D01*
X78124Y43383D01*
X78151Y43359D01*
X78179Y43338D01*
X78211Y43320D01*
X78242Y43303D01*
X78276Y43290D01*
X78307Y43279D01*
X78338Y43270D01*
X78370Y43262D01*
X78398Y43257D01*
X78426Y43253D01*
X78450Y43249D01*
X78470Y43247D01*
X78487D01*
X78500Y43246D01*
X77985D01*
X79033D01*
X78511D01*
X78574Y43249D01*
X78631Y43257D01*
X78659Y43262D01*
X78683Y43268D01*
X78705Y43273D01*
X78725Y43281D01*
X78744Y43286D01*
X78761Y43292D01*
X78774Y43297D01*
X78785Y43303D01*
X78794Y43309D01*
X78801Y43310D01*
X78805Y43314D01*
X78807D01*
X78848Y43342D01*
X78883Y43373D01*
X78914Y43403D01*
X78937Y43433D01*
X78955Y43459D01*
X78968Y43479D01*
X78974Y43486D01*
X78977Y43492D01*
X78979Y43496D01*
Y43497D01*
X78998Y43542D01*
X79011Y43590D01*
X79020Y43636D01*
X79025Y43681D01*
X79029Y43703D01*
Y43721D01*
X79031Y43738D01*
X79033Y43753D01*
Y43781D01*
X79031Y43842D01*
X79024Y43897D01*
X79012Y43946D01*
X79007Y43966D01*
X79001Y43986D01*
X78996Y44005D01*
X78990Y44020D01*
X78985Y44033D01*
X78979Y44044D01*
X78975Y44053D01*
X78972Y44058D01*
X78970Y44062D01*
Y44064D01*
X78944Y44105D01*
X78916Y44138D01*
X78887Y44168D01*
X78859Y44192D01*
X78833Y44212D01*
X78813Y44225D01*
X78805Y44231D01*
X78800Y44234D01*
X78796Y44236D01*
X78794D01*
X78748Y44257D01*
X78700Y44271D01*
X78651Y44283D01*
X78605Y44290D01*
X78583Y44292D01*
X78564Y44294D01*
X78546Y44296D01*
X78531Y44297D01*
X79033D01*
D02*
G37*
%LPD*%
G36*
X79016Y45575D02*
X78251D01*
Y45895D01*
X79016D01*
Y45575D01*
D02*
G37*
G36*
X78557Y43983D02*
X78583Y43979D01*
X78607Y43975D01*
X78627Y43971D01*
X78648Y43966D01*
X78664Y43960D01*
X78679Y43957D01*
X78692Y43951D01*
X78703Y43946D01*
X78713Y43940D01*
X78720Y43936D01*
X78729Y43929D01*
X78733Y43927D01*
X78755Y43905D01*
X78770Y43879D01*
X78781Y43853D01*
X78790Y43829D01*
X78794Y43807D01*
X78796Y43788D01*
X78798Y43781D01*
Y43771D01*
X78794Y43736D01*
X78787Y43705D01*
X78777Y43677D01*
X78764Y43655D01*
X78751Y43638D01*
X78742Y43625D01*
X78735Y43616D01*
X78731Y43614D01*
X78718Y43605D01*
X78703Y43596D01*
X78668Y43583D01*
X78631Y43572D01*
X78596Y43566D01*
X78563Y43562D01*
X78548Y43560D01*
X78535D01*
X78526Y43559D01*
X78518D01*
X78513D01*
X78511D01*
X78483D01*
X78457Y43560D01*
X78433Y43564D01*
X78411Y43568D01*
X78392Y43572D01*
X78374Y43577D01*
X78357Y43583D01*
X78342Y43588D01*
X78320Y43597D01*
X78303Y43607D01*
X78294Y43614D01*
X78290Y43616D01*
X78268Y43638D01*
X78251Y43664D01*
X78239Y43690D01*
X78231Y43714D01*
X78226Y43734D01*
X78224Y43753D01*
X78222Y43764D01*
Y43768D01*
X78226Y43803D01*
X78233Y43834D01*
X78242Y43862D01*
X78255Y43884D01*
X78268Y43901D01*
X78277Y43914D01*
X78285Y43923D01*
X78288Y43925D01*
X78316Y43946D01*
X78350Y43960D01*
X78385Y43970D01*
X78418Y43977D01*
X78450Y43981D01*
X78463Y43983D01*
X78474Y43984D01*
X78485D01*
X78492D01*
X78496D01*
X78498D01*
X78529D01*
X78557Y43983D01*
D02*
G37*
%LPC*%
G36*
X79025Y77298D02*
X79007D01*
X78951Y77296D01*
X78901Y77292D01*
X78859Y77285D01*
X78838Y77281D01*
X78822Y77278D01*
X78807Y77274D01*
X78794Y77270D01*
X78783Y77267D01*
X78774Y77263D01*
X78766Y77261D01*
X78761Y77259D01*
X78759Y77257D01*
X78757D01*
X78725Y77241D01*
X78698Y77224D01*
X78674Y77205D01*
X78655Y77189D01*
X78640Y77172D01*
X78629Y77159D01*
X78622Y77152D01*
X78620Y77148D01*
X78605Y77122D01*
X78594Y77096D01*
X78587Y77070D01*
X78581Y77048D01*
X78577Y77030D01*
X78575Y77013D01*
Y77004D01*
Y77002D01*
Y77000D01*
X78577Y76978D01*
X78579Y76957D01*
X78588Y76920D01*
X78603Y76887D01*
X78620Y76859D01*
X78635Y76835D01*
X78650Y76818D01*
X78659Y76809D01*
X78662Y76807D01*
Y76805D01*
X78681Y76791D01*
X78701Y76778D01*
X78746Y76754D01*
X78794Y76733D01*
X78844Y76715D01*
X78866Y76707D01*
X78887Y76702D01*
X78907Y76696D01*
X78924Y76691D01*
X78937Y76689D01*
X78948Y76685D01*
X78955Y76683D01*
X78957D01*
X78979Y76678D01*
X79000Y76672D01*
X79018Y76668D01*
X79035Y76663D01*
X79062Y76652D01*
X79085Y76643D01*
X79100Y76635D01*
X79111Y76630D01*
X79116Y76626D01*
X79118Y76624D01*
X79129Y76613D01*
X79138Y76600D01*
X79144Y76589D01*
X79149Y76578D01*
X79151Y76568D01*
X79153Y76561D01*
Y76556D01*
Y76554D01*
X79151Y76539D01*
X79148Y76524D01*
X79142Y76511D01*
X79135Y76500D01*
X79127Y76493D01*
X79122Y76485D01*
X79118Y76481D01*
X79116Y76480D01*
X79101Y76470D01*
X79085Y76463D01*
X79068Y76457D01*
X79051Y76454D01*
X79035Y76452D01*
X79024Y76450D01*
X79012D01*
X78981Y76452D01*
X78953Y76459D01*
X78929Y76468D01*
X78909Y76481D01*
X78894Y76493D01*
X78883Y76502D01*
X78875Y76509D01*
X78874Y76511D01*
X78864Y76526D01*
X78855Y76544D01*
X78844Y76581D01*
X78838Y76596D01*
X78837Y76609D01*
X78835Y76618D01*
Y76622D01*
X78537Y76602D01*
X78540Y76574D01*
X78546Y76546D01*
X78559Y76498D01*
X78577Y76454D01*
X78598Y76417D01*
X78607Y76402D01*
X78616Y76387D01*
X78625Y76376D01*
X78633Y76367D01*
X78638Y76359D01*
X78644Y76354D01*
X78646Y76350D01*
X78648Y76348D01*
X78668Y76331D01*
X78692Y76317D01*
X78718Y76302D01*
X78746Y76291D01*
X78805Y76274D01*
X78864Y76263D01*
X78894Y76257D01*
X78920Y76256D01*
X78944Y76254D01*
X78964Y76252D01*
X78983Y76250D01*
X79007D01*
X79061Y76252D01*
X79107Y76256D01*
X79149Y76263D01*
X79185Y76270D01*
X79199Y76274D01*
X79212Y76278D01*
X79225Y76281D01*
X79235Y76285D01*
X79242Y76287D01*
X79248Y76289D01*
X79249Y76291D01*
X79251D01*
X79287Y76309D01*
X79316Y76328D01*
X79342Y76348D01*
X79364Y76369D01*
X79381Y76387D01*
X79394Y76402D01*
X79401Y76411D01*
X79403Y76415D01*
X79422Y76446D01*
X79435Y76478D01*
X79446Y76509D01*
X79451Y76537D01*
X79455Y76561D01*
X79459Y76580D01*
Y76596D01*
X79457Y76626D01*
X79453Y76656D01*
X79446Y76680D01*
X79438Y76702D01*
X79431Y76720D01*
X79424Y76735D01*
X79420Y76743D01*
X79418Y76746D01*
X79401Y76770D01*
X79381Y76793D01*
X79359Y76811D01*
X79338Y76828D01*
X79318Y76841D01*
X79303Y76850D01*
X79292Y76855D01*
X79290Y76857D01*
X79288D01*
X79270Y76867D01*
X79249Y76874D01*
X79205Y76891D01*
X79155Y76907D01*
X79107Y76920D01*
X79085Y76926D01*
X79062Y76931D01*
X79042Y76937D01*
X79025Y76941D01*
X79012Y76944D01*
X79001Y76946D01*
X78994Y76948D01*
X78992D01*
X78964Y76954D01*
X78942Y76961D01*
X78924Y76967D01*
X78911Y76972D01*
X78900Y76978D01*
X78894Y76981D01*
X78890Y76985D01*
X78888D01*
X78881Y76993D01*
X78875Y77000D01*
X78870Y77015D01*
X78866Y77026D01*
Y77028D01*
Y77030D01*
X78868Y77041D01*
X78870Y77052D01*
X78879Y77070D01*
X78888Y77081D01*
X78890Y77083D01*
X78892Y77085D01*
X78903Y77093D01*
X78916Y77100D01*
X78944Y77105D01*
X78957Y77107D01*
X78966Y77109D01*
X78975D01*
X79000Y77107D01*
X79020Y77104D01*
X79038Y77100D01*
X79053Y77094D01*
X79064Y77087D01*
X79072Y77083D01*
X79077Y77080D01*
X79079Y77078D01*
X79092Y77065D01*
X79103Y77048D01*
X79111Y77031D01*
X79118Y77017D01*
X79124Y77002D01*
X79127Y76989D01*
X79129Y76981D01*
Y76978D01*
X79425Y76994D01*
X79420Y77022D01*
X79414Y77050D01*
X79407Y77074D01*
X79398Y77096D01*
X79388Y77117D01*
X79377Y77137D01*
X79368Y77154D01*
X79357Y77168D01*
X79337Y77192D01*
X79320Y77211D01*
X79307Y77220D01*
X79305Y77224D01*
X79303D01*
X79283Y77237D01*
X79261Y77248D01*
X79214Y77267D01*
X79164Y77280D01*
X79116Y77289D01*
X79094Y77292D01*
X79074Y77294D01*
X79055Y77296D01*
X79038D01*
X79025Y77298D01*
D02*
G37*
G36*
X80720D02*
X80677D01*
X80614Y77296D01*
X80586Y77294D01*
X80559Y77291D01*
X80535Y77287D01*
X80512Y77281D01*
X80490Y77278D01*
X80472Y77274D01*
X80455Y77268D01*
X80440Y77265D01*
X80427Y77259D01*
X80416Y77255D01*
X80409Y77254D01*
X80403Y77250D01*
X80399Y77248D01*
X80398D01*
X80351Y77222D01*
X80310Y77192D01*
X80277Y77161D01*
X80248Y77131D01*
X80225Y77104D01*
X80210Y77081D01*
X80205Y77072D01*
X80201Y77067D01*
X80198Y77063D01*
Y77061D01*
X80175Y77013D01*
X80159Y76965D01*
X80146Y76917D01*
X80138Y76872D01*
X80135Y76852D01*
X80133Y76833D01*
X80131Y76817D01*
Y76802D01*
X80129Y76791D01*
Y76774D01*
X80131Y76717D01*
X80138Y76663D01*
X80148Y76615D01*
X80153Y76593D01*
X80160Y76574D01*
X80166Y76556D01*
X80172Y76539D01*
X80175Y76526D01*
X80181Y76515D01*
X80185Y76506D01*
X80188Y76498D01*
X80190Y76494D01*
Y76493D01*
X80216Y76450D01*
X80244Y76413D01*
X80273Y76381D01*
X80301Y76357D01*
X80327Y76337D01*
X80348Y76322D01*
X80355Y76319D01*
X80360Y76315D01*
X80364Y76311D01*
X80366D01*
X80412Y76291D01*
X80460Y76276D01*
X80510Y76265D01*
X80557Y76257D01*
X80579Y76256D01*
X80599Y76254D01*
X80616Y76252D01*
X80633D01*
X80646Y76250D01*
X80662D01*
X80716Y76252D01*
X80764Y76256D01*
X80809Y76261D01*
X80846Y76267D01*
X80860Y76270D01*
X80875Y76272D01*
X80886Y76276D01*
X80897Y76278D01*
X80905Y76280D01*
X80910Y76281D01*
X80914Y76283D01*
X80916D01*
X80957Y76298D01*
X80999Y76319D01*
X81042Y76341D01*
X81081Y76361D01*
X81114Y76381D01*
X81129Y76391D01*
X81140Y76398D01*
X81151Y76404D01*
X81159Y76409D01*
X81162Y76411D01*
X81164Y76413D01*
Y76846D01*
X80679D01*
Y76635D01*
X80890D01*
Y76539D01*
X80868Y76526D01*
X80846Y76515D01*
X80827Y76506D01*
X80810Y76500D01*
X80797Y76494D01*
X80788Y76491D01*
X80781Y76487D01*
X80779D01*
X80744Y76478D01*
X80727Y76476D01*
X80710Y76474D01*
X80697Y76472D01*
X80679D01*
X80640Y76476D01*
X80605Y76483D01*
X80575Y76494D01*
X80551Y76507D01*
X80531Y76520D01*
X80516Y76531D01*
X80509Y76539D01*
X80505Y76543D01*
X80494Y76557D01*
X80485Y76572D01*
X80470Y76609D01*
X80459Y76648D01*
X80451Y76687D01*
X80448Y76722D01*
X80446Y76737D01*
Y76752D01*
X80444Y76763D01*
Y76770D01*
Y76776D01*
Y76778D01*
Y76805D01*
X80446Y76831D01*
X80449Y76855D01*
X80453Y76878D01*
X80459Y76898D01*
X80462Y76917D01*
X80475Y76948D01*
X80486Y76972D01*
X80496Y76991D01*
X80503Y77000D01*
X80505Y77004D01*
X80529Y77028D01*
X80557Y77046D01*
X80585Y77059D01*
X80610Y77067D01*
X80635Y77072D01*
X80653Y77074D01*
X80660Y77076D01*
X80670D01*
X80696Y77074D01*
X80718Y77070D01*
X80736Y77067D01*
X80753Y77061D01*
X80766Y77054D01*
X80777Y77050D01*
X80783Y77046D01*
X80785Y77044D01*
X80799Y77031D01*
X80814Y77018D01*
X80825Y77004D01*
X80835Y76991D01*
X80840Y76978D01*
X80846Y76967D01*
X80849Y76959D01*
Y76957D01*
X81151Y77011D01*
X81140Y77046D01*
X81127Y77078D01*
X81112Y77105D01*
X81099Y77128D01*
X81086Y77146D01*
X81077Y77161D01*
X81070Y77168D01*
X81068Y77172D01*
X81046Y77194D01*
X81023Y77215D01*
X80999Y77231D01*
X80977Y77244D01*
X80959Y77254D01*
X80944Y77261D01*
X80933Y77265D01*
X80931Y77267D01*
X80929D01*
X80912Y77272D01*
X80894Y77278D01*
X80855Y77285D01*
X80812Y77291D01*
X80772Y77294D01*
X80735Y77296D01*
X80720Y77298D01*
D02*
G37*
G36*
X82088Y77281D02*
X81418D01*
X81329Y76735D01*
X81568Y76700D01*
X81581Y76713D01*
X81592Y76724D01*
X81603Y76733D01*
X81612Y76741D01*
X81620Y76746D01*
X81625Y76750D01*
X81629Y76754D01*
X81631D01*
X81646Y76761D01*
X81660Y76765D01*
X81684Y76772D01*
X81696D01*
X81703Y76774D01*
X81710D01*
X81733Y76772D01*
X81755Y76767D01*
X81771Y76761D01*
X81786Y76754D01*
X81799Y76744D01*
X81807Y76739D01*
X81812Y76733D01*
X81814Y76731D01*
X81827Y76713D01*
X81836Y76693D01*
X81844Y76670D01*
X81847Y76648D01*
X81851Y76630D01*
X81853Y76613D01*
Y76602D01*
Y76600D01*
Y76598D01*
X81851Y76567D01*
X81847Y76541D01*
X81840Y76518D01*
X81834Y76500D01*
X81827Y76485D01*
X81820Y76476D01*
X81816Y76468D01*
X81814Y76467D01*
X81799Y76452D01*
X81783Y76441D01*
X81766Y76433D01*
X81751Y76428D01*
X81736Y76424D01*
X81725Y76422D01*
X81716D01*
X81697Y76424D01*
X81679Y76428D01*
X81662Y76433D01*
X81649Y76441D01*
X81638Y76446D01*
X81631Y76452D01*
X81625Y76456D01*
X81623Y76457D01*
X81610Y76472D01*
X81601Y76489D01*
X81592Y76506D01*
X81586Y76522D01*
X81583Y76537D01*
X81579Y76550D01*
X81577Y76557D01*
Y76561D01*
X81292Y76530D01*
X81299Y76504D01*
X81309Y76480D01*
X81316Y76459D01*
X81325Y76443D01*
X81331Y76428D01*
X81336Y76419D01*
X81340Y76411D01*
X81342Y76409D01*
X81368Y76376D01*
X81381Y76361D01*
X81394Y76350D01*
X81407Y76339D01*
X81416Y76331D01*
X81421Y76326D01*
X81423Y76324D01*
X81464Y76300D01*
X81484Y76291D01*
X81505Y76283D01*
X81521Y76276D01*
X81534Y76272D01*
X81542Y76270D01*
X81546Y76269D01*
X81573Y76263D01*
X81603Y76257D01*
X81633Y76254D01*
X81658Y76252D01*
X81683D01*
X81701Y76250D01*
X81718D01*
X81768Y76252D01*
X81812Y76257D01*
X81853Y76265D01*
X81886Y76274D01*
X81912Y76281D01*
X81923Y76285D01*
X81931Y76289D01*
X81938Y76293D01*
X81944Y76294D01*
X81946Y76296D01*
X81947D01*
X81979Y76317D01*
X82007Y76339D01*
X82031Y76361D01*
X82051Y76383D01*
X82066Y76404D01*
X82077Y76420D01*
X82084Y76431D01*
X82086Y76433D01*
Y76435D01*
X82103Y76468D01*
X82116Y76504D01*
X82123Y76535D01*
X82131Y76563D01*
X82134Y76589D01*
X82136Y76607D01*
Y76624D01*
X82134Y76650D01*
X82133Y76674D01*
X82121Y76718D01*
X82107Y76759D01*
X82088Y76793D01*
X82070Y76818D01*
X82062Y76830D01*
X82055Y76839D01*
X82049Y76846D01*
X82044Y76852D01*
X82042Y76854D01*
X82040Y76855D01*
X82021Y76872D01*
X82003Y76887D01*
X81983Y76898D01*
X81962Y76909D01*
X81921Y76926D01*
X81881Y76937D01*
X81847Y76943D01*
X81833Y76946D01*
X81820D01*
X81808Y76948D01*
X81794D01*
X81760Y76946D01*
X81746Y76944D01*
X81733Y76943D01*
X81720Y76941D01*
X81710Y76939D01*
X81705Y76937D01*
X81703D01*
X81670Y76928D01*
X81653Y76922D01*
X81638Y76917D01*
X81627Y76911D01*
X81616Y76907D01*
X81610Y76905D01*
X81608Y76904D01*
X81633Y77055D01*
X82088D01*
Y77281D01*
D02*
G37*
G36*
X79944D02*
X79629D01*
Y76267D01*
X79944D01*
Y77281D01*
D02*
G37*
G36*
X73535Y77298D02*
X73517D01*
X73461Y77296D01*
X73411Y77292D01*
X73368Y77285D01*
X73348Y77281D01*
X73331Y77278D01*
X73317Y77274D01*
X73304Y77270D01*
X73292Y77267D01*
X73283Y77263D01*
X73276Y77261D01*
X73270Y77259D01*
X73268Y77257D01*
X73267D01*
X73235Y77241D01*
X73207Y77224D01*
X73183Y77205D01*
X73165Y77189D01*
X73150Y77172D01*
X73139Y77159D01*
X73131Y77152D01*
X73130Y77148D01*
X73115Y77122D01*
X73104Y77096D01*
X73096Y77070D01*
X73091Y77048D01*
X73087Y77030D01*
X73085Y77013D01*
Y77004D01*
Y77002D01*
Y77000D01*
X73087Y76978D01*
X73089Y76957D01*
X73098Y76920D01*
X73113Y76887D01*
X73130Y76859D01*
X73144Y76835D01*
X73159Y76818D01*
X73168Y76809D01*
X73172Y76807D01*
Y76805D01*
X73191Y76791D01*
X73211Y76778D01*
X73255Y76754D01*
X73304Y76733D01*
X73354Y76715D01*
X73376Y76707D01*
X73396Y76702D01*
X73417Y76696D01*
X73433Y76691D01*
X73446Y76689D01*
X73457Y76685D01*
X73465Y76683D01*
X73467D01*
X73489Y76678D01*
X73509Y76672D01*
X73528Y76668D01*
X73544Y76663D01*
X73572Y76652D01*
X73594Y76643D01*
X73609Y76635D01*
X73620Y76630D01*
X73626Y76626D01*
X73628Y76624D01*
X73639Y76613D01*
X73648Y76600D01*
X73654Y76589D01*
X73659Y76578D01*
X73661Y76568D01*
X73663Y76561D01*
Y76556D01*
Y76554D01*
X73661Y76539D01*
X73657Y76524D01*
X73652Y76511D01*
X73644Y76500D01*
X73637Y76493D01*
X73631Y76485D01*
X73628Y76481D01*
X73626Y76480D01*
X73611Y76470D01*
X73594Y76463D01*
X73578Y76457D01*
X73561Y76454D01*
X73544Y76452D01*
X73533Y76450D01*
X73522D01*
X73491Y76452D01*
X73463Y76459D01*
X73439Y76468D01*
X73418Y76481D01*
X73404Y76493D01*
X73392Y76502D01*
X73385Y76509D01*
X73383Y76511D01*
X73374Y76526D01*
X73365Y76544D01*
X73354Y76581D01*
X73348Y76596D01*
X73346Y76609D01*
X73344Y76618D01*
Y76622D01*
X73046Y76602D01*
X73050Y76574D01*
X73055Y76546D01*
X73068Y76498D01*
X73087Y76454D01*
X73107Y76417D01*
X73117Y76402D01*
X73126Y76387D01*
X73135Y76376D01*
X73142Y76367D01*
X73148Y76359D01*
X73154Y76354D01*
X73155Y76350D01*
X73157Y76348D01*
X73178Y76331D01*
X73202Y76317D01*
X73228Y76302D01*
X73255Y76291D01*
X73315Y76274D01*
X73374Y76263D01*
X73404Y76257D01*
X73429Y76256D01*
X73454Y76254D01*
X73474Y76252D01*
X73492Y76250D01*
X73517D01*
X73570Y76252D01*
X73617Y76256D01*
X73659Y76263D01*
X73694Y76270D01*
X73709Y76274D01*
X73722Y76278D01*
X73735Y76281D01*
X73744Y76285D01*
X73752Y76287D01*
X73757Y76289D01*
X73759Y76291D01*
X73761D01*
X73796Y76309D01*
X73826Y76328D01*
X73852Y76348D01*
X73874Y76369D01*
X73891Y76387D01*
X73904Y76402D01*
X73911Y76411D01*
X73913Y76415D01*
X73931Y76446D01*
X73944Y76478D01*
X73955Y76509D01*
X73961Y76537D01*
X73965Y76561D01*
X73968Y76580D01*
Y76596D01*
X73966Y76626D01*
X73963Y76656D01*
X73955Y76680D01*
X73948Y76702D01*
X73941Y76720D01*
X73933Y76735D01*
X73929Y76743D01*
X73928Y76746D01*
X73911Y76770D01*
X73891Y76793D01*
X73868Y76811D01*
X73848Y76828D01*
X73828Y76841D01*
X73813Y76850D01*
X73802Y76855D01*
X73800Y76857D01*
X73798D01*
X73779Y76867D01*
X73759Y76874D01*
X73715Y76891D01*
X73665Y76907D01*
X73617Y76920D01*
X73594Y76926D01*
X73572Y76931D01*
X73552Y76937D01*
X73535Y76941D01*
X73522Y76944D01*
X73511Y76946D01*
X73504Y76948D01*
X73502D01*
X73474Y76954D01*
X73452Y76961D01*
X73433Y76967D01*
X73420Y76972D01*
X73409Y76978D01*
X73404Y76981D01*
X73400Y76985D01*
X73398D01*
X73391Y76993D01*
X73385Y77000D01*
X73379Y77015D01*
X73376Y77026D01*
Y77028D01*
Y77030D01*
X73378Y77041D01*
X73379Y77052D01*
X73389Y77070D01*
X73398Y77081D01*
X73400Y77083D01*
X73402Y77085D01*
X73413Y77093D01*
X73426Y77100D01*
X73454Y77105D01*
X73467Y77107D01*
X73476Y77109D01*
X73485D01*
X73509Y77107D01*
X73529Y77104D01*
X73548Y77100D01*
X73563Y77094D01*
X73574Y77087D01*
X73581Y77083D01*
X73587Y77080D01*
X73589Y77078D01*
X73602Y77065D01*
X73613Y77048D01*
X73620Y77031D01*
X73628Y77017D01*
X73633Y77002D01*
X73637Y76989D01*
X73639Y76981D01*
Y76978D01*
X73935Y76994D01*
X73929Y77022D01*
X73924Y77050D01*
X73916Y77074D01*
X73907Y77096D01*
X73898Y77117D01*
X73887Y77137D01*
X73878Y77154D01*
X73866Y77168D01*
X73846Y77192D01*
X73829Y77211D01*
X73816Y77220D01*
X73815Y77224D01*
X73813D01*
X73792Y77237D01*
X73770Y77248D01*
X73724Y77267D01*
X73674Y77280D01*
X73626Y77289D01*
X73604Y77292D01*
X73583Y77294D01*
X73565Y77296D01*
X73548D01*
X73535Y77298D01*
D02*
G37*
G36*
X75229D02*
X75187D01*
X75124Y77296D01*
X75096Y77294D01*
X75068Y77291D01*
X75044Y77287D01*
X75022Y77281D01*
X75000Y77278D01*
X74981Y77274D01*
X74965Y77268D01*
X74950Y77265D01*
X74937Y77259D01*
X74926Y77255D01*
X74918Y77254D01*
X74913Y77250D01*
X74909Y77248D01*
X74907D01*
X74861Y77222D01*
X74820Y77192D01*
X74787Y77161D01*
X74757Y77131D01*
X74735Y77104D01*
X74720Y77081D01*
X74715Y77072D01*
X74711Y77067D01*
X74707Y77063D01*
Y77061D01*
X74685Y77013D01*
X74668Y76965D01*
X74655Y76917D01*
X74648Y76872D01*
X74644Y76852D01*
X74642Y76833D01*
X74640Y76817D01*
Y76802D01*
X74639Y76791D01*
Y76774D01*
X74640Y76717D01*
X74648Y76663D01*
X74657Y76615D01*
X74663Y76593D01*
X74670Y76574D01*
X74676Y76556D01*
X74681Y76539D01*
X74685Y76526D01*
X74690Y76515D01*
X74694Y76506D01*
X74698Y76498D01*
X74700Y76494D01*
Y76493D01*
X74726Y76450D01*
X74753Y76413D01*
X74783Y76381D01*
X74811Y76357D01*
X74837Y76337D01*
X74857Y76322D01*
X74865Y76319D01*
X74870Y76315D01*
X74874Y76311D01*
X74876D01*
X74922Y76291D01*
X74970Y76276D01*
X75020Y76265D01*
X75066Y76257D01*
X75089Y76256D01*
X75109Y76254D01*
X75126Y76252D01*
X75142D01*
X75155Y76250D01*
X75172D01*
X75226Y76252D01*
X75274Y76256D01*
X75318Y76261D01*
X75355Y76267D01*
X75370Y76270D01*
X75385Y76272D01*
X75396Y76276D01*
X75407Y76278D01*
X75414Y76280D01*
X75420Y76281D01*
X75424Y76283D01*
X75426D01*
X75466Y76298D01*
X75509Y76319D01*
X75551Y76341D01*
X75590Y76361D01*
X75624Y76381D01*
X75639Y76391D01*
X75650Y76398D01*
X75661Y76404D01*
X75668Y76409D01*
X75672Y76411D01*
X75674Y76413D01*
Y76846D01*
X75189D01*
Y76635D01*
X75400D01*
Y76539D01*
X75377Y76526D01*
X75355Y76515D01*
X75337Y76506D01*
X75320Y76500D01*
X75307Y76494D01*
X75298Y76491D01*
X75290Y76487D01*
X75289D01*
X75253Y76478D01*
X75237Y76476D01*
X75220Y76474D01*
X75207Y76472D01*
X75189D01*
X75150Y76476D01*
X75115Y76483D01*
X75085Y76494D01*
X75061Y76507D01*
X75040Y76520D01*
X75026Y76531D01*
X75018Y76539D01*
X75015Y76543D01*
X75003Y76557D01*
X74994Y76572D01*
X74979Y76609D01*
X74968Y76648D01*
X74961Y76687D01*
X74957Y76722D01*
X74955Y76737D01*
Y76752D01*
X74953Y76763D01*
Y76770D01*
Y76776D01*
Y76778D01*
Y76805D01*
X74955Y76831D01*
X74959Y76855D01*
X74963Y76878D01*
X74968Y76898D01*
X74972Y76917D01*
X74985Y76948D01*
X74996Y76972D01*
X75005Y76991D01*
X75013Y77000D01*
X75015Y77004D01*
X75039Y77028D01*
X75066Y77046D01*
X75094Y77059D01*
X75120Y77067D01*
X75144Y77072D01*
X75163Y77074D01*
X75170Y77076D01*
X75179D01*
X75205Y77074D01*
X75227Y77070D01*
X75246Y77067D01*
X75263Y77061D01*
X75276Y77054D01*
X75287Y77050D01*
X75292Y77046D01*
X75294Y77044D01*
X75309Y77031D01*
X75324Y77018D01*
X75335Y77004D01*
X75344Y76991D01*
X75350Y76978D01*
X75355Y76967D01*
X75359Y76959D01*
Y76957D01*
X75661Y77011D01*
X75650Y77046D01*
X75637Y77078D01*
X75622Y77105D01*
X75609Y77128D01*
X75596Y77146D01*
X75587Y77161D01*
X75579Y77168D01*
X75577Y77172D01*
X75555Y77194D01*
X75533Y77215D01*
X75509Y77231D01*
X75487Y77244D01*
X75468Y77254D01*
X75453Y77261D01*
X75442Y77265D01*
X75440Y77267D01*
X75439D01*
X75422Y77272D01*
X75403Y77278D01*
X75364Y77285D01*
X75322Y77291D01*
X75281Y77294D01*
X75244Y77296D01*
X75229Y77298D01*
D02*
G37*
G36*
X76546D02*
X76300D01*
X75785Y76687D01*
Y76456D01*
X76300D01*
Y76267D01*
X76546D01*
Y76456D01*
X76674D01*
Y76674D01*
X76546D01*
Y77298D01*
D02*
G37*
G36*
X74453Y77281D02*
X74139D01*
Y76267D01*
X74453D01*
Y77281D01*
D02*
G37*
%LPD*%
G36*
X76300Y76674D02*
X76026D01*
X76300Y76994D01*
Y76674D01*
D02*
G37*
%LPC*%
G36*
X68045Y77298D02*
X68026D01*
X67971Y77296D01*
X67921Y77292D01*
X67878Y77285D01*
X67858Y77281D01*
X67841Y77278D01*
X67826Y77274D01*
X67813Y77270D01*
X67802Y77267D01*
X67793Y77263D01*
X67785Y77261D01*
X67780Y77259D01*
X67778Y77257D01*
X67776D01*
X67745Y77241D01*
X67717Y77224D01*
X67693Y77205D01*
X67674Y77189D01*
X67659Y77172D01*
X67648Y77159D01*
X67641Y77152D01*
X67639Y77148D01*
X67624Y77122D01*
X67613Y77096D01*
X67606Y77070D01*
X67600Y77048D01*
X67597Y77030D01*
X67595Y77013D01*
Y77004D01*
Y77002D01*
Y77000D01*
X67597Y76978D01*
X67598Y76957D01*
X67608Y76920D01*
X67622Y76887D01*
X67639Y76859D01*
X67654Y76835D01*
X67669Y76818D01*
X67678Y76809D01*
X67682Y76807D01*
Y76805D01*
X67700Y76791D01*
X67721Y76778D01*
X67765Y76754D01*
X67813Y76733D01*
X67863Y76715D01*
X67885Y76707D01*
X67906Y76702D01*
X67926Y76696D01*
X67943Y76691D01*
X67956Y76689D01*
X67967Y76685D01*
X67974Y76683D01*
X67976D01*
X67998Y76678D01*
X68019Y76672D01*
X68037Y76668D01*
X68054Y76663D01*
X68082Y76652D01*
X68104Y76643D01*
X68119Y76635D01*
X68130Y76630D01*
X68135Y76626D01*
X68137Y76624D01*
X68148Y76613D01*
X68158Y76600D01*
X68163Y76589D01*
X68169Y76578D01*
X68171Y76568D01*
X68172Y76561D01*
Y76556D01*
Y76554D01*
X68171Y76539D01*
X68167Y76524D01*
X68161Y76511D01*
X68154Y76500D01*
X68146Y76493D01*
X68141Y76485D01*
X68137Y76481D01*
X68135Y76480D01*
X68121Y76470D01*
X68104Y76463D01*
X68087Y76457D01*
X68071Y76454D01*
X68054Y76452D01*
X68043Y76450D01*
X68032D01*
X68000Y76452D01*
X67972Y76459D01*
X67948Y76468D01*
X67928Y76481D01*
X67913Y76493D01*
X67902Y76502D01*
X67895Y76509D01*
X67893Y76511D01*
X67884Y76526D01*
X67874Y76544D01*
X67863Y76581D01*
X67858Y76596D01*
X67856Y76609D01*
X67854Y76618D01*
Y76622D01*
X67556Y76602D01*
X67560Y76574D01*
X67565Y76546D01*
X67578Y76498D01*
X67597Y76454D01*
X67617Y76417D01*
X67626Y76402D01*
X67635Y76387D01*
X67645Y76376D01*
X67652Y76367D01*
X67658Y76359D01*
X67663Y76354D01*
X67665Y76350D01*
X67667Y76348D01*
X67687Y76331D01*
X67711Y76317D01*
X67737Y76302D01*
X67765Y76291D01*
X67824Y76274D01*
X67884Y76263D01*
X67913Y76257D01*
X67939Y76256D01*
X67963Y76254D01*
X67984Y76252D01*
X68002Y76250D01*
X68026D01*
X68080Y76252D01*
X68126Y76256D01*
X68169Y76263D01*
X68204Y76270D01*
X68219Y76274D01*
X68232Y76278D01*
X68245Y76281D01*
X68254Y76285D01*
X68261Y76287D01*
X68267Y76289D01*
X68269Y76291D01*
X68271D01*
X68306Y76309D01*
X68335Y76328D01*
X68361Y76348D01*
X68383Y76369D01*
X68400Y76387D01*
X68413Y76402D01*
X68421Y76411D01*
X68422Y76415D01*
X68441Y76446D01*
X68454Y76478D01*
X68465Y76509D01*
X68471Y76537D01*
X68474Y76561D01*
X68478Y76580D01*
Y76596D01*
X68476Y76626D01*
X68472Y76656D01*
X68465Y76680D01*
X68458Y76702D01*
X68450Y76720D01*
X68443Y76735D01*
X68439Y76743D01*
X68437Y76746D01*
X68421Y76770D01*
X68400Y76793D01*
X68378Y76811D01*
X68358Y76828D01*
X68337Y76841D01*
X68322Y76850D01*
X68311Y76855D01*
X68309Y76857D01*
X68308D01*
X68289Y76867D01*
X68269Y76874D01*
X68224Y76891D01*
X68174Y76907D01*
X68126Y76920D01*
X68104Y76926D01*
X68082Y76931D01*
X68061Y76937D01*
X68045Y76941D01*
X68032Y76944D01*
X68021Y76946D01*
X68013Y76948D01*
X68011D01*
X67984Y76954D01*
X67961Y76961D01*
X67943Y76967D01*
X67930Y76972D01*
X67919Y76978D01*
X67913Y76981D01*
X67909Y76985D01*
X67908D01*
X67900Y76993D01*
X67895Y77000D01*
X67889Y77015D01*
X67885Y77026D01*
Y77028D01*
Y77030D01*
X67887Y77041D01*
X67889Y77052D01*
X67898Y77070D01*
X67908Y77081D01*
X67909Y77083D01*
X67911Y77085D01*
X67922Y77093D01*
X67935Y77100D01*
X67963Y77105D01*
X67976Y77107D01*
X67985Y77109D01*
X67995D01*
X68019Y77107D01*
X68039Y77104D01*
X68058Y77100D01*
X68072Y77094D01*
X68084Y77087D01*
X68091Y77083D01*
X68096Y77080D01*
X68098Y77078D01*
X68111Y77065D01*
X68122Y77048D01*
X68130Y77031D01*
X68137Y77017D01*
X68143Y77002D01*
X68146Y76989D01*
X68148Y76981D01*
Y76978D01*
X68445Y76994D01*
X68439Y77022D01*
X68433Y77050D01*
X68426Y77074D01*
X68417Y77096D01*
X68408Y77117D01*
X68396Y77137D01*
X68387Y77154D01*
X68376Y77168D01*
X68356Y77192D01*
X68339Y77211D01*
X68326Y77220D01*
X68324Y77224D01*
X68322D01*
X68302Y77237D01*
X68280Y77248D01*
X68233Y77267D01*
X68184Y77280D01*
X68135Y77289D01*
X68113Y77292D01*
X68093Y77294D01*
X68074Y77296D01*
X68058D01*
X68045Y77298D01*
D02*
G37*
G36*
X69739D02*
X69696D01*
X69633Y77296D01*
X69606Y77294D01*
X69578Y77291D01*
X69554Y77287D01*
X69532Y77281D01*
X69509Y77278D01*
X69491Y77274D01*
X69474Y77268D01*
X69459Y77265D01*
X69446Y77259D01*
X69435Y77255D01*
X69428Y77254D01*
X69422Y77250D01*
X69419Y77248D01*
X69417D01*
X69370Y77222D01*
X69330Y77192D01*
X69296Y77161D01*
X69267Y77131D01*
X69245Y77104D01*
X69230Y77081D01*
X69224Y77072D01*
X69220Y77067D01*
X69217Y77063D01*
Y77061D01*
X69195Y77013D01*
X69178Y76965D01*
X69165Y76917D01*
X69157Y76872D01*
X69154Y76852D01*
X69152Y76833D01*
X69150Y76817D01*
Y76802D01*
X69148Y76791D01*
Y76774D01*
X69150Y76717D01*
X69157Y76663D01*
X69167Y76615D01*
X69172Y76593D01*
X69180Y76574D01*
X69185Y76556D01*
X69191Y76539D01*
X69195Y76526D01*
X69200Y76515D01*
X69204Y76506D01*
X69207Y76498D01*
X69209Y76494D01*
Y76493D01*
X69235Y76450D01*
X69263Y76413D01*
X69293Y76381D01*
X69320Y76357D01*
X69346Y76337D01*
X69367Y76322D01*
X69374Y76319D01*
X69380Y76315D01*
X69383Y76311D01*
X69385D01*
X69432Y76291D01*
X69480Y76276D01*
X69530Y76265D01*
X69576Y76257D01*
X69598Y76256D01*
X69619Y76254D01*
X69635Y76252D01*
X69652D01*
X69665Y76250D01*
X69682D01*
X69735Y76252D01*
X69783Y76256D01*
X69828Y76261D01*
X69865Y76267D01*
X69880Y76270D01*
X69894Y76272D01*
X69906Y76276D01*
X69917Y76278D01*
X69924Y76280D01*
X69930Y76281D01*
X69933Y76283D01*
X69935D01*
X69976Y76298D01*
X70019Y76319D01*
X70061Y76341D01*
X70100Y76361D01*
X70133Y76381D01*
X70148Y76391D01*
X70159Y76398D01*
X70170Y76404D01*
X70178Y76409D01*
X70181Y76411D01*
X70183Y76413D01*
Y76846D01*
X69698D01*
Y76635D01*
X69909D01*
Y76539D01*
X69887Y76526D01*
X69865Y76515D01*
X69846Y76506D01*
X69830Y76500D01*
X69817Y76494D01*
X69807Y76491D01*
X69800Y76487D01*
X69798D01*
X69763Y76478D01*
X69746Y76476D01*
X69730Y76474D01*
X69717Y76472D01*
X69698D01*
X69659Y76476D01*
X69624Y76483D01*
X69594Y76494D01*
X69570Y76507D01*
X69550Y76520D01*
X69535Y76531D01*
X69528Y76539D01*
X69524Y76543D01*
X69513Y76557D01*
X69504Y76572D01*
X69489Y76609D01*
X69478Y76648D01*
X69470Y76687D01*
X69467Y76722D01*
X69465Y76737D01*
Y76752D01*
X69463Y76763D01*
Y76770D01*
Y76776D01*
Y76778D01*
Y76805D01*
X69465Y76831D01*
X69469Y76855D01*
X69472Y76878D01*
X69478Y76898D01*
X69482Y76917D01*
X69494Y76948D01*
X69506Y76972D01*
X69515Y76991D01*
X69522Y77000D01*
X69524Y77004D01*
X69548Y77028D01*
X69576Y77046D01*
X69604Y77059D01*
X69630Y77067D01*
X69654Y77072D01*
X69672Y77074D01*
X69680Y77076D01*
X69689D01*
X69715Y77074D01*
X69737Y77070D01*
X69756Y77067D01*
X69772Y77061D01*
X69785Y77054D01*
X69796Y77050D01*
X69802Y77046D01*
X69804Y77044D01*
X69819Y77031D01*
X69833Y77018D01*
X69844Y77004D01*
X69854Y76991D01*
X69859Y76978D01*
X69865Y76967D01*
X69869Y76959D01*
Y76957D01*
X70170Y77011D01*
X70159Y77046D01*
X70146Y77078D01*
X70131Y77105D01*
X70118Y77128D01*
X70106Y77146D01*
X70096Y77161D01*
X70089Y77168D01*
X70087Y77172D01*
X70065Y77194D01*
X70043Y77215D01*
X70019Y77231D01*
X69996Y77244D01*
X69978Y77254D01*
X69963Y77261D01*
X69952Y77265D01*
X69950Y77267D01*
X69948D01*
X69931Y77272D01*
X69913Y77278D01*
X69874Y77285D01*
X69831Y77291D01*
X69791Y77294D01*
X69754Y77296D01*
X69739Y77298D01*
D02*
G37*
G36*
X70743D02*
X70724D01*
X70663Y77294D01*
X70635Y77292D01*
X70609Y77287D01*
X70585Y77281D01*
X70563Y77276D01*
X70543Y77270D01*
X70526Y77265D01*
X70509Y77257D01*
X70494Y77252D01*
X70483Y77246D01*
X70474Y77241D01*
X70465Y77235D01*
X70459Y77233D01*
X70457Y77230D01*
X70455D01*
X70422Y77202D01*
X70396Y77170D01*
X70374Y77137D01*
X70357Y77105D01*
X70344Y77078D01*
X70341Y77065D01*
X70335Y77054D01*
X70333Y77046D01*
X70331Y77039D01*
X70330Y77035D01*
Y77033D01*
X70596Y76987D01*
X70602Y77013D01*
X70607Y77035D01*
X70615Y77052D01*
X70620Y77067D01*
X70628Y77078D01*
X70631Y77085D01*
X70635Y77089D01*
X70637Y77091D01*
X70650Y77102D01*
X70663Y77109D01*
X70676Y77115D01*
X70689Y77118D01*
X70702Y77120D01*
X70711Y77122D01*
X70718D01*
X70737Y77120D01*
X70752Y77118D01*
X70765Y77113D01*
X70776Y77109D01*
X70785Y77104D01*
X70791Y77098D01*
X70794Y77096D01*
X70796Y77094D01*
X70805Y77083D01*
X70813Y77070D01*
X70817Y77059D01*
X70820Y77046D01*
X70822Y77037D01*
X70824Y77028D01*
Y77022D01*
Y77020D01*
X70822Y77004D01*
X70818Y76987D01*
X70811Y76972D01*
X70805Y76961D01*
X70798Y76950D01*
X70791Y76943D01*
X70787Y76939D01*
X70785Y76937D01*
X70770Y76926D01*
X70755Y76918D01*
X70739Y76911D01*
X70726Y76907D01*
X70713Y76905D01*
X70702Y76904D01*
X70681D01*
X70668Y76905D01*
X70655D01*
X70643Y76706D01*
X70663Y76711D01*
X70681Y76715D01*
X70696Y76718D01*
X70709Y76720D01*
X70720Y76722D01*
X70733D01*
X70755Y76720D01*
X70776Y76717D01*
X70793Y76709D01*
X70807Y76704D01*
X70818Y76696D01*
X70826Y76689D01*
X70831Y76685D01*
X70833Y76683D01*
X70846Y76667D01*
X70855Y76650D01*
X70861Y76631D01*
X70867Y76615D01*
X70868Y76598D01*
X70870Y76585D01*
Y76578D01*
Y76574D01*
X70868Y76550D01*
X70865Y76528D01*
X70857Y76507D01*
X70852Y76493D01*
X70844Y76480D01*
X70837Y76470D01*
X70833Y76465D01*
X70831Y76463D01*
X70817Y76450D01*
X70802Y76439D01*
X70785Y76431D01*
X70770Y76428D01*
X70757Y76424D01*
X70746Y76422D01*
X70737D01*
X70717Y76424D01*
X70700Y76428D01*
X70683Y76431D01*
X70670Y76439D01*
X70661Y76444D01*
X70652Y76448D01*
X70648Y76452D01*
X70646Y76454D01*
X70635Y76468D01*
X70624Y76487D01*
X70609Y76526D01*
X70604Y76544D01*
X70600Y76559D01*
X70596Y76568D01*
Y76572D01*
X70315Y76533D01*
X70326Y76500D01*
X70339Y76468D01*
X70350Y76443D01*
X70363Y76419D01*
X70374Y76400D01*
X70383Y76387D01*
X70391Y76380D01*
X70393Y76376D01*
X70413Y76354D01*
X70435Y76335D01*
X70457Y76319D01*
X70478Y76306D01*
X70496Y76294D01*
X70511Y76287D01*
X70520Y76283D01*
X70524Y76281D01*
X70557Y76270D01*
X70593Y76263D01*
X70630Y76257D01*
X70665Y76254D01*
X70694Y76252D01*
X70709D01*
X70720Y76250D01*
X70743D01*
X70793Y76252D01*
X70839Y76257D01*
X70878Y76263D01*
X70911Y76272D01*
X70937Y76280D01*
X70948Y76283D01*
X70955Y76285D01*
X70963Y76289D01*
X70968Y76291D01*
X70970Y76293D01*
X70972D01*
X71004Y76311D01*
X71030Y76331D01*
X71052Y76352D01*
X71072Y76372D01*
X71087Y76391D01*
X71096Y76406D01*
X71104Y76415D01*
X71105Y76419D01*
X71122Y76450D01*
X71133Y76480D01*
X71142Y76507D01*
X71148Y76535D01*
X71152Y76557D01*
X71154Y76574D01*
Y76589D01*
X71152Y76615D01*
X71150Y76637D01*
X71144Y76657D01*
X71139Y76676D01*
X71133Y76689D01*
X71130Y76700D01*
X71126Y76707D01*
X71124Y76709D01*
X71113Y76728D01*
X71100Y76744D01*
X71087Y76759D01*
X71074Y76770D01*
X71063Y76780D01*
X71054Y76787D01*
X71048Y76791D01*
X71046Y76793D01*
X71033Y76800D01*
X71018Y76805D01*
X70991Y76817D01*
X70978Y76820D01*
X70967Y76824D01*
X70959Y76826D01*
X70957D01*
X70983Y76841D01*
X71005Y76857D01*
X71024Y76874D01*
X71039Y76887D01*
X71050Y76900D01*
X71057Y76909D01*
X71063Y76917D01*
X71065Y76918D01*
X71078Y76939D01*
X71087Y76959D01*
X71092Y76980D01*
X71098Y76998D01*
X71100Y77013D01*
X71102Y77026D01*
Y77033D01*
Y77037D01*
X71100Y77057D01*
X71098Y77078D01*
X71089Y77115D01*
X71074Y77146D01*
X71057Y77172D01*
X71041Y77194D01*
X71028Y77211D01*
X71017Y77220D01*
X71015Y77224D01*
X71013D01*
X70994Y77237D01*
X70976Y77248D01*
X70930Y77267D01*
X70883Y77280D01*
X70835Y77289D01*
X70813Y77292D01*
X70793Y77294D01*
X70774Y77296D01*
X70757D01*
X70743Y77298D01*
D02*
G37*
G36*
X68963Y77281D02*
X68648D01*
Y76267D01*
X68963D01*
Y77281D01*
D02*
G37*
G36*
X62554Y77298D02*
X62536D01*
X62480Y77296D01*
X62430Y77292D01*
X62388Y77285D01*
X62367Y77281D01*
X62351Y77278D01*
X62336Y77274D01*
X62323Y77270D01*
X62312Y77267D01*
X62302Y77263D01*
X62295Y77261D01*
X62289Y77259D01*
X62288Y77257D01*
X62286D01*
X62254Y77241D01*
X62226Y77224D01*
X62202Y77205D01*
X62184Y77189D01*
X62169Y77172D01*
X62158Y77159D01*
X62151Y77152D01*
X62149Y77148D01*
X62134Y77122D01*
X62123Y77096D01*
X62115Y77070D01*
X62110Y77048D01*
X62106Y77030D01*
X62104Y77013D01*
Y77004D01*
Y77002D01*
Y77000D01*
X62106Y76978D01*
X62108Y76957D01*
X62117Y76920D01*
X62132Y76887D01*
X62149Y76859D01*
X62164Y76835D01*
X62178Y76818D01*
X62188Y76809D01*
X62191Y76807D01*
Y76805D01*
X62210Y76791D01*
X62230Y76778D01*
X62275Y76754D01*
X62323Y76733D01*
X62373Y76715D01*
X62395Y76707D01*
X62415Y76702D01*
X62436Y76696D01*
X62452Y76691D01*
X62465Y76689D01*
X62476Y76685D01*
X62484Y76683D01*
X62486D01*
X62508Y76678D01*
X62528Y76672D01*
X62547Y76668D01*
X62563Y76663D01*
X62591Y76652D01*
X62613Y76643D01*
X62628Y76635D01*
X62639Y76630D01*
X62645Y76626D01*
X62647Y76624D01*
X62658Y76613D01*
X62667Y76600D01*
X62673Y76589D01*
X62678Y76578D01*
X62680Y76568D01*
X62682Y76561D01*
Y76556D01*
Y76554D01*
X62680Y76539D01*
X62676Y76524D01*
X62671Y76511D01*
X62663Y76500D01*
X62656Y76493D01*
X62651Y76485D01*
X62647Y76481D01*
X62645Y76480D01*
X62630Y76470D01*
X62613Y76463D01*
X62597Y76457D01*
X62580Y76454D01*
X62563Y76452D01*
X62552Y76450D01*
X62541D01*
X62510Y76452D01*
X62482Y76459D01*
X62458Y76468D01*
X62438Y76481D01*
X62423Y76493D01*
X62412Y76502D01*
X62404Y76509D01*
X62402Y76511D01*
X62393Y76526D01*
X62384Y76544D01*
X62373Y76581D01*
X62367Y76596D01*
X62365Y76609D01*
X62364Y76618D01*
Y76622D01*
X62065Y76602D01*
X62069Y76574D01*
X62075Y76546D01*
X62088Y76498D01*
X62106Y76454D01*
X62126Y76417D01*
X62136Y76402D01*
X62145Y76387D01*
X62154Y76376D01*
X62162Y76367D01*
X62167Y76359D01*
X62173Y76354D01*
X62175Y76350D01*
X62176Y76348D01*
X62197Y76331D01*
X62221Y76317D01*
X62247Y76302D01*
X62275Y76291D01*
X62334Y76274D01*
X62393Y76263D01*
X62423Y76257D01*
X62449Y76256D01*
X62473Y76254D01*
X62493Y76252D01*
X62512Y76250D01*
X62536D01*
X62589Y76252D01*
X62636Y76256D01*
X62678Y76263D01*
X62713Y76270D01*
X62728Y76274D01*
X62741Y76278D01*
X62754Y76281D01*
X62763Y76285D01*
X62771Y76287D01*
X62776Y76289D01*
X62778Y76291D01*
X62780D01*
X62815Y76309D01*
X62845Y76328D01*
X62871Y76348D01*
X62893Y76369D01*
X62910Y76387D01*
X62923Y76402D01*
X62930Y76411D01*
X62932Y76415D01*
X62950Y76446D01*
X62963Y76478D01*
X62975Y76509D01*
X62980Y76537D01*
X62984Y76561D01*
X62988Y76580D01*
Y76596D01*
X62986Y76626D01*
X62982Y76656D01*
X62975Y76680D01*
X62967Y76702D01*
X62960Y76720D01*
X62952Y76735D01*
X62949Y76743D01*
X62947Y76746D01*
X62930Y76770D01*
X62910Y76793D01*
X62888Y76811D01*
X62867Y76828D01*
X62847Y76841D01*
X62832Y76850D01*
X62821Y76855D01*
X62819Y76857D01*
X62817D01*
X62799Y76867D01*
X62778Y76874D01*
X62734Y76891D01*
X62684Y76907D01*
X62636Y76920D01*
X62613Y76926D01*
X62591Y76931D01*
X62571Y76937D01*
X62554Y76941D01*
X62541Y76944D01*
X62530Y76946D01*
X62523Y76948D01*
X62521D01*
X62493Y76954D01*
X62471Y76961D01*
X62452Y76967D01*
X62439Y76972D01*
X62428Y76978D01*
X62423Y76981D01*
X62419Y76985D01*
X62417D01*
X62410Y76993D01*
X62404Y77000D01*
X62399Y77015D01*
X62395Y77026D01*
Y77028D01*
Y77030D01*
X62397Y77041D01*
X62399Y77052D01*
X62408Y77070D01*
X62417Y77081D01*
X62419Y77083D01*
X62421Y77085D01*
X62432Y77093D01*
X62445Y77100D01*
X62473Y77105D01*
X62486Y77107D01*
X62495Y77109D01*
X62504D01*
X62528Y77107D01*
X62549Y77104D01*
X62567Y77100D01*
X62582Y77094D01*
X62593Y77087D01*
X62601Y77083D01*
X62606Y77080D01*
X62608Y77078D01*
X62621Y77065D01*
X62632Y77048D01*
X62639Y77031D01*
X62647Y77017D01*
X62652Y77002D01*
X62656Y76989D01*
X62658Y76981D01*
Y76978D01*
X62954Y76994D01*
X62949Y77022D01*
X62943Y77050D01*
X62936Y77074D01*
X62926Y77096D01*
X62917Y77117D01*
X62906Y77137D01*
X62897Y77154D01*
X62886Y77168D01*
X62865Y77192D01*
X62849Y77211D01*
X62836Y77220D01*
X62834Y77224D01*
X62832D01*
X62812Y77237D01*
X62789Y77248D01*
X62743Y77267D01*
X62693Y77280D01*
X62645Y77289D01*
X62623Y77292D01*
X62602Y77294D01*
X62584Y77296D01*
X62567D01*
X62554Y77298D01*
D02*
G37*
G36*
X64248D02*
X64206D01*
X64143Y77296D01*
X64115Y77294D01*
X64087Y77291D01*
X64063Y77287D01*
X64041Y77281D01*
X64019Y77278D01*
X64000Y77274D01*
X63984Y77268D01*
X63969Y77265D01*
X63956Y77259D01*
X63945Y77255D01*
X63937Y77254D01*
X63932Y77250D01*
X63928Y77248D01*
X63926D01*
X63880Y77222D01*
X63839Y77192D01*
X63806Y77161D01*
X63776Y77131D01*
X63754Y77104D01*
X63739Y77081D01*
X63734Y77072D01*
X63730Y77067D01*
X63726Y77063D01*
Y77061D01*
X63704Y77013D01*
X63687Y76965D01*
X63674Y76917D01*
X63667Y76872D01*
X63663Y76852D01*
X63662Y76833D01*
X63660Y76817D01*
Y76802D01*
X63658Y76791D01*
Y76774D01*
X63660Y76717D01*
X63667Y76663D01*
X63676Y76615D01*
X63682Y76593D01*
X63689Y76574D01*
X63695Y76556D01*
X63700Y76539D01*
X63704Y76526D01*
X63710Y76515D01*
X63713Y76506D01*
X63717Y76498D01*
X63719Y76494D01*
Y76493D01*
X63745Y76450D01*
X63773Y76413D01*
X63802Y76381D01*
X63830Y76357D01*
X63856Y76337D01*
X63876Y76322D01*
X63884Y76319D01*
X63889Y76315D01*
X63893Y76311D01*
X63895D01*
X63941Y76291D01*
X63989Y76276D01*
X64039Y76265D01*
X64086Y76257D01*
X64108Y76256D01*
X64128Y76254D01*
X64145Y76252D01*
X64161D01*
X64174Y76250D01*
X64191D01*
X64245Y76252D01*
X64293Y76256D01*
X64337Y76261D01*
X64374Y76267D01*
X64389Y76270D01*
X64404Y76272D01*
X64415Y76276D01*
X64426Y76278D01*
X64434Y76280D01*
X64439Y76281D01*
X64443Y76283D01*
X64445D01*
X64486Y76298D01*
X64528Y76319D01*
X64571Y76341D01*
X64610Y76361D01*
X64643Y76381D01*
X64658Y76391D01*
X64669Y76398D01*
X64680Y76404D01*
X64687Y76409D01*
X64691Y76411D01*
X64693Y76413D01*
Y76846D01*
X64208D01*
Y76635D01*
X64419D01*
Y76539D01*
X64397Y76526D01*
X64374Y76515D01*
X64356Y76506D01*
X64339Y76500D01*
X64326Y76494D01*
X64317Y76491D01*
X64310Y76487D01*
X64308D01*
X64273Y76478D01*
X64256Y76476D01*
X64239Y76474D01*
X64226Y76472D01*
X64208D01*
X64169Y76476D01*
X64134Y76483D01*
X64104Y76494D01*
X64080Y76507D01*
X64060Y76520D01*
X64045Y76531D01*
X64037Y76539D01*
X64034Y76543D01*
X64023Y76557D01*
X64013Y76572D01*
X63999Y76609D01*
X63987Y76648D01*
X63980Y76687D01*
X63976Y76722D01*
X63974Y76737D01*
Y76752D01*
X63973Y76763D01*
Y76770D01*
Y76776D01*
Y76778D01*
Y76805D01*
X63974Y76831D01*
X63978Y76855D01*
X63982Y76878D01*
X63987Y76898D01*
X63991Y76917D01*
X64004Y76948D01*
X64015Y76972D01*
X64024Y76991D01*
X64032Y77000D01*
X64034Y77004D01*
X64058Y77028D01*
X64086Y77046D01*
X64113Y77059D01*
X64139Y77067D01*
X64163Y77072D01*
X64182Y77074D01*
X64189Y77076D01*
X64199D01*
X64224Y77074D01*
X64247Y77070D01*
X64265Y77067D01*
X64282Y77061D01*
X64295Y77054D01*
X64306Y77050D01*
X64311Y77046D01*
X64313Y77044D01*
X64328Y77031D01*
X64343Y77018D01*
X64354Y77004D01*
X64363Y76991D01*
X64369Y76978D01*
X64374Y76967D01*
X64378Y76959D01*
Y76957D01*
X64680Y77011D01*
X64669Y77046D01*
X64656Y77078D01*
X64641Y77105D01*
X64628Y77128D01*
X64615Y77146D01*
X64606Y77161D01*
X64598Y77168D01*
X64597Y77172D01*
X64574Y77194D01*
X64552Y77215D01*
X64528Y77231D01*
X64506Y77244D01*
X64487Y77254D01*
X64473Y77261D01*
X64461Y77265D01*
X64460Y77267D01*
X64458D01*
X64441Y77272D01*
X64423Y77278D01*
X64384Y77285D01*
X64341Y77291D01*
X64300Y77294D01*
X64263Y77296D01*
X64248Y77298D01*
D02*
G37*
G36*
X65265D02*
X65241D01*
X65191Y77296D01*
X65147Y77292D01*
X65108Y77287D01*
X65076Y77280D01*
X65050Y77272D01*
X65032Y77267D01*
X65021Y77263D01*
X65019Y77261D01*
X65017D01*
X64987Y77246D01*
X64963Y77230D01*
X64941Y77213D01*
X64924Y77196D01*
X64910Y77181D01*
X64898Y77170D01*
X64893Y77163D01*
X64891Y77159D01*
X64876Y77131D01*
X64863Y77102D01*
X64854Y77072D01*
X64845Y77043D01*
X64839Y77015D01*
X64835Y76994D01*
X64834Y76985D01*
X64832Y76980D01*
Y76976D01*
Y76974D01*
X65115Y76952D01*
X65121Y76981D01*
X65126Y77005D01*
X65134Y77026D01*
X65141Y77043D01*
X65148Y77055D01*
X65154Y77065D01*
X65158Y77068D01*
X65160Y77070D01*
X65174Y77081D01*
X65189Y77091D01*
X65204Y77096D01*
X65217Y77102D01*
X65230Y77104D01*
X65239Y77105D01*
X65248D01*
X65267Y77104D01*
X65284Y77100D01*
X65298Y77094D01*
X65311Y77089D01*
X65322Y77083D01*
X65330Y77078D01*
X65334Y77074D01*
X65335Y77072D01*
X65347Y77059D01*
X65356Y77046D01*
X65361Y77033D01*
X65367Y77020D01*
X65369Y77009D01*
X65371Y77000D01*
Y76994D01*
Y76993D01*
X65369Y76976D01*
X65365Y76961D01*
X65359Y76944D01*
X65354Y76931D01*
X65347Y76918D01*
X65341Y76909D01*
X65337Y76904D01*
X65335Y76902D01*
X65328Y76893D01*
X65319Y76881D01*
X65297Y76859D01*
X65269Y76837D01*
X65243Y76813D01*
X65217Y76793D01*
X65197Y76776D01*
X65187Y76770D01*
X65182Y76765D01*
X65178Y76763D01*
X65176Y76761D01*
X65139Y76733D01*
X65106Y76707D01*
X65074Y76681D01*
X65047Y76657D01*
X65021Y76633D01*
X64998Y76613D01*
X64978Y76593D01*
X64961Y76574D01*
X64947Y76557D01*
X64932Y76543D01*
X64923Y76530D01*
X64913Y76520D01*
X64906Y76511D01*
X64902Y76506D01*
X64900Y76502D01*
X64898Y76500D01*
X64874Y76459D01*
X64854Y76417D01*
X64839Y76378D01*
X64828Y76343D01*
X64819Y76311D01*
X64817Y76298D01*
X64815Y76287D01*
X64813Y76280D01*
X64811Y76272D01*
Y76267D01*
X65659D01*
Y76496D01*
X65217D01*
X65245Y76520D01*
X65265Y76541D01*
X65272Y76546D01*
X65278Y76552D01*
X65282Y76554D01*
X65284Y76556D01*
X65297Y76567D01*
X65313Y76580D01*
X65334Y76593D01*
X65352Y76606D01*
X65371Y76618D01*
X65385Y76630D01*
X65395Y76637D01*
X65398Y76639D01*
X65424Y76657D01*
X65448Y76676D01*
X65471Y76694D01*
X65491Y76711D01*
X65508Y76728D01*
X65524Y76743D01*
X65552Y76770D01*
X65572Y76793D01*
X65585Y76809D01*
X65595Y76820D01*
X65597Y76824D01*
X65615Y76855D01*
X65628Y76887D01*
X65639Y76918D01*
X65645Y76944D01*
X65648Y76968D01*
X65652Y76987D01*
Y76993D01*
Y76998D01*
Y77000D01*
Y77002D01*
X65650Y77033D01*
X65645Y77063D01*
X65637Y77091D01*
X65628Y77113D01*
X65619Y77133D01*
X65611Y77146D01*
X65606Y77155D01*
X65604Y77159D01*
X65585Y77183D01*
X65563Y77205D01*
X65541Y77222D01*
X65521Y77237D01*
X65502Y77248D01*
X65485Y77257D01*
X65476Y77261D01*
X65474Y77263D01*
X65472D01*
X65439Y77274D01*
X65402Y77283D01*
X65363Y77289D01*
X65326Y77294D01*
X65293Y77296D01*
X65278D01*
X65265Y77298D01*
D02*
G37*
G36*
X63473Y77281D02*
X63158D01*
Y76267D01*
X63473D01*
Y77281D01*
D02*
G37*
G36*
X57064Y77298D02*
X57045D01*
X56990Y77296D01*
X56940Y77292D01*
X56897Y77285D01*
X56877Y77281D01*
X56860Y77278D01*
X56845Y77274D01*
X56832Y77270D01*
X56821Y77267D01*
X56812Y77263D01*
X56805Y77261D01*
X56799Y77259D01*
X56797Y77257D01*
X56795D01*
X56764Y77241D01*
X56736Y77224D01*
X56712Y77205D01*
X56694Y77189D01*
X56679Y77172D01*
X56668Y77159D01*
X56660Y77152D01*
X56658Y77148D01*
X56644Y77122D01*
X56632Y77096D01*
X56625Y77070D01*
X56619Y77048D01*
X56616Y77030D01*
X56614Y77013D01*
Y77004D01*
Y77002D01*
Y77000D01*
X56616Y76978D01*
X56618Y76957D01*
X56627Y76920D01*
X56642Y76887D01*
X56658Y76859D01*
X56673Y76835D01*
X56688Y76818D01*
X56697Y76809D01*
X56701Y76807D01*
Y76805D01*
X56719Y76791D01*
X56740Y76778D01*
X56784Y76754D01*
X56832Y76733D01*
X56882Y76715D01*
X56905Y76707D01*
X56925Y76702D01*
X56945Y76696D01*
X56962Y76691D01*
X56975Y76689D01*
X56986Y76685D01*
X56993Y76683D01*
X56995D01*
X57018Y76678D01*
X57038Y76672D01*
X57056Y76668D01*
X57073Y76663D01*
X57101Y76652D01*
X57123Y76643D01*
X57138Y76635D01*
X57149Y76630D01*
X57155Y76626D01*
X57156Y76624D01*
X57168Y76613D01*
X57177Y76600D01*
X57182Y76589D01*
X57188Y76578D01*
X57190Y76568D01*
X57192Y76561D01*
Y76556D01*
Y76554D01*
X57190Y76539D01*
X57186Y76524D01*
X57180Y76511D01*
X57173Y76500D01*
X57166Y76493D01*
X57160Y76485D01*
X57156Y76481D01*
X57155Y76480D01*
X57140Y76470D01*
X57123Y76463D01*
X57106Y76457D01*
X57090Y76454D01*
X57073Y76452D01*
X57062Y76450D01*
X57051D01*
X57019Y76452D01*
X56992Y76459D01*
X56968Y76468D01*
X56947Y76481D01*
X56932Y76493D01*
X56921Y76502D01*
X56914Y76509D01*
X56912Y76511D01*
X56903Y76526D01*
X56893Y76544D01*
X56882Y76581D01*
X56877Y76596D01*
X56875Y76609D01*
X56873Y76618D01*
Y76622D01*
X56575Y76602D01*
X56579Y76574D01*
X56584Y76546D01*
X56597Y76498D01*
X56616Y76454D01*
X56636Y76417D01*
X56645Y76402D01*
X56655Y76387D01*
X56664Y76376D01*
X56671Y76367D01*
X56677Y76359D01*
X56682Y76354D01*
X56684Y76350D01*
X56686Y76348D01*
X56706Y76331D01*
X56731Y76317D01*
X56756Y76302D01*
X56784Y76291D01*
X56843Y76274D01*
X56903Y76263D01*
X56932Y76257D01*
X56958Y76256D01*
X56982Y76254D01*
X57003Y76252D01*
X57021Y76250D01*
X57045D01*
X57099Y76252D01*
X57145Y76256D01*
X57188Y76263D01*
X57223Y76270D01*
X57238Y76274D01*
X57251Y76278D01*
X57264Y76281D01*
X57273Y76285D01*
X57280Y76287D01*
X57286Y76289D01*
X57288Y76291D01*
X57290D01*
X57325Y76309D01*
X57355Y76328D01*
X57380Y76348D01*
X57403Y76369D01*
X57419Y76387D01*
X57432Y76402D01*
X57440Y76411D01*
X57442Y76415D01*
X57460Y76446D01*
X57473Y76478D01*
X57484Y76509D01*
X57490Y76537D01*
X57493Y76561D01*
X57497Y76580D01*
Y76596D01*
X57495Y76626D01*
X57492Y76656D01*
X57484Y76680D01*
X57477Y76702D01*
X57469Y76720D01*
X57462Y76735D01*
X57458Y76743D01*
X57456Y76746D01*
X57440Y76770D01*
X57419Y76793D01*
X57397Y76811D01*
X57377Y76828D01*
X57356Y76841D01*
X57342Y76850D01*
X57330Y76855D01*
X57329Y76857D01*
X57327D01*
X57308Y76867D01*
X57288Y76874D01*
X57243Y76891D01*
X57193Y76907D01*
X57145Y76920D01*
X57123Y76926D01*
X57101Y76931D01*
X57081Y76937D01*
X57064Y76941D01*
X57051Y76944D01*
X57040Y76946D01*
X57032Y76948D01*
X57031D01*
X57003Y76954D01*
X56981Y76961D01*
X56962Y76967D01*
X56949Y76972D01*
X56938Y76978D01*
X56932Y76981D01*
X56929Y76985D01*
X56927D01*
X56919Y76993D01*
X56914Y77000D01*
X56908Y77015D01*
X56905Y77026D01*
Y77028D01*
Y77030D01*
X56906Y77041D01*
X56908Y77052D01*
X56918Y77070D01*
X56927Y77081D01*
X56929Y77083D01*
X56931Y77085D01*
X56942Y77093D01*
X56955Y77100D01*
X56982Y77105D01*
X56995Y77107D01*
X57005Y77109D01*
X57014D01*
X57038Y77107D01*
X57058Y77104D01*
X57077Y77100D01*
X57092Y77094D01*
X57103Y77087D01*
X57110Y77083D01*
X57116Y77080D01*
X57118Y77078D01*
X57131Y77065D01*
X57142Y77048D01*
X57149Y77031D01*
X57156Y77017D01*
X57162Y77002D01*
X57166Y76989D01*
X57168Y76981D01*
Y76978D01*
X57464Y76994D01*
X57458Y77022D01*
X57453Y77050D01*
X57445Y77074D01*
X57436Y77096D01*
X57427Y77117D01*
X57416Y77137D01*
X57406Y77154D01*
X57395Y77168D01*
X57375Y77192D01*
X57358Y77211D01*
X57345Y77220D01*
X57343Y77224D01*
X57342D01*
X57321Y77237D01*
X57299Y77248D01*
X57253Y77267D01*
X57203Y77280D01*
X57155Y77289D01*
X57132Y77292D01*
X57112Y77294D01*
X57093Y77296D01*
X57077D01*
X57064Y77298D01*
D02*
G37*
G36*
X58758D02*
X58716D01*
X58653Y77296D01*
X58625Y77294D01*
X58597Y77291D01*
X58573Y77287D01*
X58551Y77281D01*
X58528Y77278D01*
X58510Y77274D01*
X58493Y77268D01*
X58479Y77265D01*
X58466Y77259D01*
X58454Y77255D01*
X58447Y77254D01*
X58441Y77250D01*
X58438Y77248D01*
X58436D01*
X58390Y77222D01*
X58349Y77192D01*
X58316Y77161D01*
X58286Y77131D01*
X58264Y77104D01*
X58249Y77081D01*
X58243Y77072D01*
X58240Y77067D01*
X58236Y77063D01*
Y77061D01*
X58214Y77013D01*
X58197Y76965D01*
X58184Y76917D01*
X58177Y76872D01*
X58173Y76852D01*
X58171Y76833D01*
X58169Y76817D01*
Y76802D01*
X58167Y76791D01*
Y76774D01*
X58169Y76717D01*
X58177Y76663D01*
X58186Y76615D01*
X58192Y76593D01*
X58199Y76574D01*
X58204Y76556D01*
X58210Y76539D01*
X58214Y76526D01*
X58219Y76515D01*
X58223Y76506D01*
X58227Y76498D01*
X58229Y76494D01*
Y76493D01*
X58254Y76450D01*
X58282Y76413D01*
X58312Y76381D01*
X58340Y76357D01*
X58366Y76337D01*
X58386Y76322D01*
X58393Y76319D01*
X58399Y76315D01*
X58403Y76311D01*
X58404D01*
X58451Y76291D01*
X58499Y76276D01*
X58549Y76265D01*
X58595Y76257D01*
X58617Y76256D01*
X58638Y76254D01*
X58654Y76252D01*
X58671D01*
X58684Y76250D01*
X58701D01*
X58754Y76252D01*
X58803Y76256D01*
X58847Y76261D01*
X58884Y76267D01*
X58899Y76270D01*
X58914Y76272D01*
X58925Y76276D01*
X58936Y76278D01*
X58943Y76280D01*
X58949Y76281D01*
X58953Y76283D01*
X58954D01*
X58995Y76298D01*
X59038Y76319D01*
X59080Y76341D01*
X59119Y76361D01*
X59153Y76381D01*
X59167Y76391D01*
X59178Y76398D01*
X59190Y76404D01*
X59197Y76409D01*
X59201Y76411D01*
X59203Y76413D01*
Y76846D01*
X58717D01*
Y76635D01*
X58928D01*
Y76539D01*
X58906Y76526D01*
X58884Y76515D01*
X58866Y76506D01*
X58849Y76500D01*
X58836Y76494D01*
X58827Y76491D01*
X58819Y76487D01*
X58817D01*
X58782Y76478D01*
X58766Y76476D01*
X58749Y76474D01*
X58736Y76472D01*
X58717D01*
X58678Y76476D01*
X58643Y76483D01*
X58614Y76494D01*
X58590Y76507D01*
X58569Y76520D01*
X58554Y76531D01*
X58547Y76539D01*
X58543Y76543D01*
X58532Y76557D01*
X58523Y76572D01*
X58508Y76609D01*
X58497Y76648D01*
X58490Y76687D01*
X58486Y76722D01*
X58484Y76737D01*
Y76752D01*
X58482Y76763D01*
Y76770D01*
Y76776D01*
Y76778D01*
Y76805D01*
X58484Y76831D01*
X58488Y76855D01*
X58491Y76878D01*
X58497Y76898D01*
X58501Y76917D01*
X58514Y76948D01*
X58525Y76972D01*
X58534Y76991D01*
X58541Y77000D01*
X58543Y77004D01*
X58567Y77028D01*
X58595Y77046D01*
X58623Y77059D01*
X58649Y77067D01*
X58673Y77072D01*
X58691Y77074D01*
X58699Y77076D01*
X58708D01*
X58734Y77074D01*
X58756Y77070D01*
X58775Y77067D01*
X58791Y77061D01*
X58804Y77054D01*
X58816Y77050D01*
X58821Y77046D01*
X58823Y77044D01*
X58838Y77031D01*
X58853Y77018D01*
X58864Y77004D01*
X58873Y76991D01*
X58878Y76978D01*
X58884Y76967D01*
X58888Y76959D01*
Y76957D01*
X59190Y77011D01*
X59178Y77046D01*
X59165Y77078D01*
X59151Y77105D01*
X59138Y77128D01*
X59125Y77146D01*
X59115Y77161D01*
X59108Y77168D01*
X59106Y77172D01*
X59084Y77194D01*
X59062Y77215D01*
X59038Y77231D01*
X59015Y77244D01*
X58997Y77254D01*
X58982Y77261D01*
X58971Y77265D01*
X58969Y77267D01*
X58967D01*
X58951Y77272D01*
X58932Y77278D01*
X58893Y77285D01*
X58851Y77291D01*
X58810Y77294D01*
X58773Y77296D01*
X58758Y77298D01*
D02*
G37*
G36*
X59982D02*
X59749D01*
X59730Y77263D01*
X59710Y77231D01*
X59689Y77204D01*
X59669Y77181D01*
X59651Y77161D01*
X59636Y77146D01*
X59627Y77139D01*
X59625Y77135D01*
X59623D01*
X59591Y77111D01*
X59554Y77091D01*
X59517Y77072D01*
X59482Y77055D01*
X59451Y77043D01*
X59436Y77037D01*
X59425Y77031D01*
X59414Y77030D01*
X59406Y77026D01*
X59402Y77024D01*
X59401D01*
Y76794D01*
X59436Y76805D01*
X59467Y76815D01*
X59493Y76826D01*
X59517Y76835D01*
X59536Y76843D01*
X59551Y76848D01*
X59558Y76852D01*
X59562Y76854D01*
X59586Y76867D01*
X59610Y76881D01*
X59634Y76896D01*
X59654Y76909D01*
X59671Y76922D01*
X59686Y76931D01*
X59693Y76939D01*
X59697Y76941D01*
Y76267D01*
X59982D01*
Y77298D01*
D02*
G37*
G36*
X57982Y77281D02*
X57667D01*
Y76267D01*
X57982D01*
Y77281D01*
D02*
G37*
G36*
X111357Y43246D02*
X110887D01*
Y42319D01*
X110885Y42275D01*
X110876Y42236D01*
X110865Y42200D01*
X110854Y42172D01*
X110840Y42150D01*
X110829Y42136D01*
X110821Y42125D01*
X110818Y42122D01*
X110790Y42100D01*
X110760Y42083D01*
X110726Y42072D01*
X110696Y42064D01*
X110668Y42058D01*
X110646Y42055D01*
X110626D01*
X110582Y42058D01*
X110543Y42066D01*
X110510Y42078D01*
X110482Y42091D01*
X110460Y42103D01*
X110446Y42114D01*
X110435Y42122D01*
X110432Y42125D01*
X110410Y42153D01*
X110393Y42186D01*
X110382Y42216D01*
X110374Y42247D01*
X110368Y42275D01*
X110365Y42300D01*
Y42314D01*
Y42319D01*
Y43246D01*
X109896D01*
Y42339D01*
X109899Y42297D01*
X109902Y42252D01*
X109910Y42208D01*
X109918Y42169D01*
X109924Y42136D01*
X109932Y42108D01*
X109935Y42097D01*
Y42089D01*
X109938Y42086D01*
Y42083D01*
X109949Y42050D01*
X109966Y42016D01*
X109982Y41986D01*
X109999Y41961D01*
X110013Y41939D01*
X110027Y41919D01*
X110035Y41908D01*
X110038Y41905D01*
X110066Y41875D01*
X110093Y41850D01*
X110121Y41828D01*
X110146Y41808D01*
X110168Y41794D01*
X110185Y41783D01*
X110196Y41778D01*
X110199Y41775D01*
X110235Y41761D01*
X110271Y41747D01*
X110307Y41736D01*
X110343Y41731D01*
X110371Y41722D01*
X110396Y41719D01*
X110413Y41717D01*
X110418D01*
X110468Y41711D01*
X110513Y41708D01*
X110554Y41703D01*
X110590D01*
X110621Y41700D01*
X110662D01*
X110732Y41703D01*
X110796Y41708D01*
X110851Y41717D01*
X110898Y41725D01*
X110940Y41733D01*
X110968Y41742D01*
X110979Y41744D01*
X110987Y41747D01*
X110990Y41750D01*
X110993D01*
X111029Y41767D01*
X111062Y41786D01*
X111096Y41806D01*
X111123Y41825D01*
X111146Y41844D01*
X111162Y41861D01*
X111176Y41872D01*
X111179Y41875D01*
X111212Y41908D01*
X111237Y41944D01*
X111262Y41980D01*
X111279Y42014D01*
X111295Y42041D01*
X111304Y42064D01*
X111309Y42078D01*
X111312Y42083D01*
X111326Y42130D01*
X111337Y42175D01*
X111345Y42216D01*
X111351Y42258D01*
X111354Y42291D01*
X111357Y42316D01*
Y43246D01*
D02*
G37*
G36*
X106515D02*
X106046D01*
Y42319D01*
X106043Y42275D01*
X106035Y42236D01*
X106023Y42200D01*
X106012Y42172D01*
X105998Y42150D01*
X105987Y42136D01*
X105979Y42125D01*
X105976Y42122D01*
X105948Y42100D01*
X105918Y42083D01*
X105885Y42072D01*
X105854Y42064D01*
X105826Y42058D01*
X105804Y42055D01*
X105785D01*
X105740Y42058D01*
X105701Y42066D01*
X105668Y42078D01*
X105640Y42091D01*
X105618Y42103D01*
X105604Y42114D01*
X105593Y42122D01*
X105590Y42125D01*
X105568Y42153D01*
X105551Y42186D01*
X105540Y42216D01*
X105532Y42247D01*
X105526Y42275D01*
X105524Y42300D01*
Y42314D01*
Y42319D01*
Y43246D01*
X105055D01*
Y42339D01*
X105057Y42297D01*
X105060Y42252D01*
X105068Y42208D01*
X105077Y42169D01*
X105082Y42136D01*
X105091Y42108D01*
X105093Y42097D01*
Y42089D01*
X105096Y42086D01*
Y42083D01*
X105107Y42050D01*
X105124Y42016D01*
X105141Y41986D01*
X105157Y41961D01*
X105171Y41939D01*
X105185Y41919D01*
X105193Y41908D01*
X105196Y41905D01*
X105224Y41875D01*
X105252Y41850D01*
X105279Y41828D01*
X105304Y41808D01*
X105327Y41794D01*
X105343Y41783D01*
X105354Y41778D01*
X105357Y41775D01*
X105393Y41761D01*
X105429Y41747D01*
X105465Y41736D01*
X105502Y41731D01*
X105529Y41722D01*
X105554Y41719D01*
X105571Y41717D01*
X105576D01*
X105626Y41711D01*
X105671Y41708D01*
X105712Y41703D01*
X105749D01*
X105779Y41700D01*
X105821D01*
X105890Y41703D01*
X105954Y41708D01*
X106010Y41717D01*
X106057Y41725D01*
X106098Y41733D01*
X106126Y41742D01*
X106137Y41744D01*
X106146Y41747D01*
X106148Y41750D01*
X106151D01*
X106187Y41767D01*
X106221Y41786D01*
X106254Y41806D01*
X106282Y41825D01*
X106304Y41844D01*
X106320Y41861D01*
X106334Y41872D01*
X106337Y41875D01*
X106370Y41908D01*
X106395Y41944D01*
X106420Y41980D01*
X106437Y42014D01*
X106454Y42041D01*
X106462Y42064D01*
X106468Y42078D01*
X106470Y42083D01*
X106484Y42130D01*
X106495Y42175D01*
X106504Y42216D01*
X106509Y42258D01*
X106512Y42291D01*
X106515Y42316D01*
Y43246D01*
D02*
G37*
G36*
X114094Y43271D02*
X113744D01*
X113716Y43219D01*
X113686Y43171D01*
X113655Y43130D01*
X113625Y43096D01*
X113597Y43066D01*
X113575Y43044D01*
X113561Y43033D01*
X113558Y43027D01*
X113555D01*
X113508Y42991D01*
X113453Y42960D01*
X113397Y42933D01*
X113344Y42908D01*
X113297Y42888D01*
X113275Y42880D01*
X113258Y42872D01*
X113242Y42869D01*
X113230Y42863D01*
X113225Y42860D01*
X113222D01*
Y42516D01*
X113275Y42533D01*
X113322Y42547D01*
X113361Y42563D01*
X113397Y42577D01*
X113425Y42588D01*
X113447Y42597D01*
X113458Y42602D01*
X113464Y42605D01*
X113500Y42624D01*
X113536Y42647D01*
X113572Y42669D01*
X113603Y42688D01*
X113628Y42708D01*
X113650Y42722D01*
X113661Y42733D01*
X113666Y42736D01*
Y41725D01*
X114094D01*
Y43271D01*
D02*
G37*
G36*
X112989Y43246D02*
X111559D01*
Y42872D01*
X112039D01*
Y41725D01*
X112509D01*
Y42872D01*
X112989D01*
Y43246D01*
D02*
G37*
G36*
X109163D02*
X108358D01*
Y41725D01*
X108830D01*
Y42291D01*
X109086D01*
X109138Y42294D01*
X109186Y42297D01*
X109230Y42302D01*
X109272Y42311D01*
X109310Y42322D01*
X109347Y42333D01*
X109377Y42344D01*
X109405Y42355D01*
X109430Y42366D01*
X109452Y42377D01*
X109469Y42389D01*
X109485Y42400D01*
X109496Y42408D01*
X109505Y42413D01*
X109508Y42419D01*
X109510D01*
X109535Y42444D01*
X109558Y42472D01*
X109574Y42500D01*
X109591Y42530D01*
X109616Y42591D01*
X109633Y42649D01*
X109641Y42699D01*
X109646Y42722D01*
Y42741D01*
X109649Y42758D01*
Y42822D01*
X109644Y42858D01*
X109630Y42927D01*
X109608Y42985D01*
X109585Y43035D01*
X109563Y43074D01*
X109541Y43102D01*
X109533Y43110D01*
X109527Y43119D01*
X109524Y43124D01*
X109521D01*
X109496Y43146D01*
X109469Y43166D01*
X109408Y43194D01*
X109344Y43216D01*
X109283Y43232D01*
X109227Y43241D01*
X109202Y43244D01*
X109180D01*
X109163Y43246D01*
D02*
G37*
G36*
X108147D02*
X106717D01*
Y42872D01*
X107198D01*
Y41725D01*
X107667D01*
Y42872D01*
X108147D01*
Y43246D01*
D02*
G37*
G36*
X104047Y43271D02*
X104011D01*
X103944Y43269D01*
X103880Y43263D01*
X103819Y43252D01*
X103764Y43238D01*
X103711Y43224D01*
X103664Y43205D01*
X103619Y43188D01*
X103580Y43169D01*
X103547Y43149D01*
X103517Y43130D01*
X103492Y43110D01*
X103469Y43096D01*
X103453Y43083D01*
X103442Y43071D01*
X103433Y43066D01*
X103430Y43063D01*
X103394Y43021D01*
X103364Y42980D01*
X103336Y42933D01*
X103311Y42885D01*
X103292Y42835D01*
X103275Y42788D01*
X103261Y42741D01*
X103250Y42694D01*
X103242Y42652D01*
X103236Y42611D01*
X103231Y42575D01*
X103228Y42544D01*
Y42519D01*
X103225Y42500D01*
Y42483D01*
X103231Y42389D01*
X103242Y42302D01*
X103250Y42261D01*
X103258Y42225D01*
X103267Y42191D01*
X103278Y42161D01*
X103286Y42133D01*
X103294Y42108D01*
X103303Y42089D01*
X103311Y42072D01*
X103319Y42058D01*
X103322Y42047D01*
X103328Y42041D01*
Y42039D01*
X103369Y41978D01*
X103417Y41925D01*
X103461Y41878D01*
X103505Y41844D01*
X103544Y41817D01*
X103575Y41797D01*
X103586Y41789D01*
X103594Y41783D01*
X103600Y41781D01*
X103603D01*
X103669Y41753D01*
X103741Y41733D01*
X103811Y41719D01*
X103877Y41711D01*
X103911Y41706D01*
X103938D01*
X103963Y41703D01*
X103986Y41700D01*
X104027D01*
X104119Y41703D01*
X104202Y41714D01*
X104274Y41731D01*
X104305Y41739D01*
X104335Y41747D01*
X104363Y41756D01*
X104385Y41764D01*
X104405Y41772D01*
X104422Y41781D01*
X104435Y41786D01*
X104444Y41792D01*
X104449Y41794D01*
X104452D01*
X104513Y41833D01*
X104563Y41875D01*
X104608Y41919D01*
X104644Y41961D01*
X104674Y42000D01*
X104694Y42030D01*
X104702Y42041D01*
X104707Y42050D01*
X104710Y42055D01*
Y42058D01*
X104741Y42128D01*
X104763Y42200D01*
X104780Y42272D01*
X104791Y42341D01*
X104794Y42375D01*
X104796Y42402D01*
X104799Y42430D01*
X104802Y42452D01*
Y42497D01*
X104799Y42563D01*
X104794Y42627D01*
X104782Y42686D01*
X104769Y42741D01*
X104755Y42791D01*
X104735Y42838D01*
X104719Y42880D01*
X104699Y42919D01*
X104680Y42952D01*
X104660Y42983D01*
X104641Y43008D01*
X104627Y43030D01*
X104613Y43044D01*
X104602Y43058D01*
X104596Y43063D01*
X104594Y43066D01*
X104552Y43102D01*
X104510Y43133D01*
X104463Y43160D01*
X104416Y43185D01*
X104369Y43205D01*
X104319Y43221D01*
X104272Y43235D01*
X104224Y43246D01*
X104183Y43255D01*
X104141Y43260D01*
X104105Y43266D01*
X104072Y43269D01*
X104047Y43271D01*
D02*
G37*
%LPD*%
G36*
X109008Y42935D02*
X109047Y42930D01*
X109077Y42922D01*
X109102Y42913D01*
X109119Y42905D01*
X109133Y42897D01*
X109138Y42891D01*
X109141Y42888D01*
X109158Y42869D01*
X109169Y42849D01*
X109180Y42827D01*
X109186Y42808D01*
X109188Y42791D01*
X109191Y42777D01*
Y42769D01*
Y42766D01*
X109188Y42738D01*
X109183Y42716D01*
X109174Y42694D01*
X109163Y42677D01*
X109152Y42663D01*
X109144Y42652D01*
X109138Y42647D01*
X109136Y42644D01*
X109111Y42630D01*
X109083Y42619D01*
X109050Y42611D01*
X109019Y42605D01*
X108991Y42602D01*
X108966Y42599D01*
X108830D01*
Y42938D01*
X108963D01*
X109008Y42935D01*
D02*
G37*
G36*
X104061Y42910D02*
X104108Y42899D01*
X104149Y42885D01*
X104183Y42866D01*
X104208Y42847D01*
X104227Y42833D01*
X104241Y42822D01*
X104244Y42816D01*
X104274Y42774D01*
X104297Y42724D01*
X104311Y42672D01*
X104322Y42622D01*
X104327Y42575D01*
X104330Y42555D01*
X104333Y42538D01*
Y42522D01*
Y42511D01*
Y42505D01*
Y42502D01*
Y42455D01*
X104330Y42413D01*
X104324Y42375D01*
X104319Y42339D01*
X104313Y42308D01*
X104305Y42277D01*
X104297Y42252D01*
X104291Y42230D01*
X104283Y42211D01*
X104274Y42194D01*
X104266Y42180D01*
X104261Y42169D01*
X104249Y42155D01*
X104247Y42150D01*
X104213Y42116D01*
X104174Y42094D01*
X104136Y42078D01*
X104100Y42064D01*
X104066Y42058D01*
X104038Y42055D01*
X104027Y42053D01*
X104013D01*
X103961Y42058D01*
X103913Y42069D01*
X103872Y42083D01*
X103839Y42103D01*
X103814Y42122D01*
X103794Y42136D01*
X103780Y42147D01*
X103777Y42153D01*
X103764Y42172D01*
X103750Y42194D01*
X103730Y42247D01*
X103714Y42302D01*
X103705Y42355D01*
X103700Y42405D01*
X103697Y42427D01*
Y42447D01*
X103694Y42461D01*
Y42472D01*
Y42480D01*
Y42483D01*
Y42525D01*
X103697Y42563D01*
X103703Y42599D01*
X103708Y42633D01*
X103714Y42661D01*
X103722Y42688D01*
X103730Y42713D01*
X103739Y42736D01*
X103752Y42769D01*
X103766Y42794D01*
X103777Y42808D01*
X103780Y42813D01*
X103814Y42847D01*
X103852Y42872D01*
X103891Y42891D01*
X103927Y42902D01*
X103958Y42910D01*
X103986Y42913D01*
X104002Y42916D01*
X104008D01*
X104061Y42910D01*
D02*
G37*
%LPC*%
G36*
X110832Y3196D02*
X110362D01*
Y2269D01*
X110360Y2225D01*
X110351Y2186D01*
X110340Y2150D01*
X110329Y2122D01*
X110315Y2100D01*
X110304Y2086D01*
X110296Y2075D01*
X110293Y2072D01*
X110265Y2050D01*
X110235Y2033D01*
X110201Y2022D01*
X110171Y2014D01*
X110143Y2008D01*
X110121Y2005D01*
X110101D01*
X110057Y2008D01*
X110018Y2016D01*
X109985Y2028D01*
X109957Y2041D01*
X109935Y2053D01*
X109921Y2064D01*
X109910Y2072D01*
X109907Y2075D01*
X109885Y2103D01*
X109868Y2136D01*
X109857Y2166D01*
X109849Y2197D01*
X109843Y2225D01*
X109840Y2250D01*
Y2264D01*
Y2269D01*
Y3196D01*
X109371D01*
Y2289D01*
X109374Y2247D01*
X109377Y2202D01*
X109385Y2158D01*
X109393Y2119D01*
X109399Y2086D01*
X109407Y2058D01*
X109410Y2047D01*
Y2039D01*
X109413Y2036D01*
Y2033D01*
X109424Y2000D01*
X109441Y1966D01*
X109457Y1936D01*
X109474Y1911D01*
X109488Y1889D01*
X109502Y1869D01*
X109510Y1858D01*
X109513Y1855D01*
X109541Y1825D01*
X109568Y1800D01*
X109596Y1778D01*
X109621Y1758D01*
X109643Y1744D01*
X109660Y1733D01*
X109671Y1728D01*
X109674Y1725D01*
X109710Y1711D01*
X109746Y1697D01*
X109782Y1686D01*
X109818Y1681D01*
X109846Y1672D01*
X109871Y1669D01*
X109888Y1667D01*
X109893D01*
X109943Y1661D01*
X109988Y1658D01*
X110029Y1653D01*
X110065D01*
X110096Y1650D01*
X110137D01*
X110207Y1653D01*
X110271Y1658D01*
X110326Y1667D01*
X110373Y1675D01*
X110415Y1683D01*
X110443Y1692D01*
X110454Y1694D01*
X110462Y1697D01*
X110465Y1700D01*
X110468D01*
X110504Y1717D01*
X110537Y1736D01*
X110571Y1755D01*
X110598Y1775D01*
X110621Y1794D01*
X110637Y1811D01*
X110651Y1822D01*
X110654Y1825D01*
X110687Y1858D01*
X110712Y1894D01*
X110737Y1930D01*
X110754Y1964D01*
X110770Y1991D01*
X110779Y2014D01*
X110784Y2028D01*
X110787Y2033D01*
X110801Y2080D01*
X110812Y2125D01*
X110820Y2166D01*
X110826Y2208D01*
X110829Y2241D01*
X110832Y2266D01*
Y3196D01*
D02*
G37*
G36*
X105990D02*
X105521D01*
Y2269D01*
X105518Y2225D01*
X105510Y2186D01*
X105498Y2150D01*
X105487Y2122D01*
X105473Y2100D01*
X105462Y2086D01*
X105454Y2075D01*
X105451Y2072D01*
X105423Y2050D01*
X105393Y2033D01*
X105360Y2022D01*
X105329Y2014D01*
X105301Y2008D01*
X105279Y2005D01*
X105260D01*
X105215Y2008D01*
X105176Y2016D01*
X105143Y2028D01*
X105115Y2041D01*
X105093Y2053D01*
X105079Y2064D01*
X105068Y2072D01*
X105065Y2075D01*
X105043Y2103D01*
X105026Y2136D01*
X105015Y2166D01*
X105007Y2197D01*
X105001Y2225D01*
X104999Y2250D01*
Y2264D01*
Y2269D01*
Y3196D01*
X104530D01*
Y2289D01*
X104532Y2247D01*
X104535Y2202D01*
X104543Y2158D01*
X104552Y2119D01*
X104557Y2086D01*
X104566Y2058D01*
X104568Y2047D01*
Y2039D01*
X104571Y2036D01*
Y2033D01*
X104582Y2000D01*
X104599Y1966D01*
X104616Y1936D01*
X104632Y1911D01*
X104646Y1889D01*
X104660Y1869D01*
X104668Y1858D01*
X104671Y1855D01*
X104699Y1825D01*
X104727Y1800D01*
X104754Y1778D01*
X104779Y1758D01*
X104802Y1744D01*
X104818Y1733D01*
X104829Y1728D01*
X104832Y1725D01*
X104868Y1711D01*
X104904Y1697D01*
X104940Y1686D01*
X104977Y1681D01*
X105004Y1672D01*
X105029Y1669D01*
X105046Y1667D01*
X105051D01*
X105101Y1661D01*
X105146Y1658D01*
X105187Y1653D01*
X105224D01*
X105254Y1650D01*
X105296D01*
X105365Y1653D01*
X105429Y1658D01*
X105485Y1667D01*
X105532Y1675D01*
X105573Y1683D01*
X105601Y1692D01*
X105612Y1694D01*
X105621Y1697D01*
X105623Y1700D01*
X105626D01*
X105662Y1717D01*
X105696Y1736D01*
X105729Y1755D01*
X105757Y1775D01*
X105779Y1794D01*
X105795Y1811D01*
X105809Y1822D01*
X105812Y1825D01*
X105845Y1858D01*
X105870Y1894D01*
X105895Y1930D01*
X105912Y1964D01*
X105929Y1991D01*
X105937Y2014D01*
X105943Y2028D01*
X105945Y2033D01*
X105959Y2080D01*
X105970Y2125D01*
X105979Y2166D01*
X105984Y2208D01*
X105987Y2241D01*
X105990Y2266D01*
Y3196D01*
D02*
G37*
G36*
X113258Y3221D02*
X113222D01*
X113147Y3219D01*
X113080Y3213D01*
X113022Y3205D01*
X112975Y3194D01*
X112936Y3182D01*
X112908Y3174D01*
X112892Y3169D01*
X112889Y3166D01*
X112886D01*
X112842Y3144D01*
X112805Y3119D01*
X112772Y3094D01*
X112747Y3069D01*
X112725Y3046D01*
X112708Y3030D01*
X112700Y3019D01*
X112697Y3013D01*
X112675Y2971D01*
X112656Y2927D01*
X112642Y2883D01*
X112628Y2838D01*
X112619Y2797D01*
X112614Y2766D01*
X112611Y2752D01*
X112608Y2744D01*
Y2738D01*
Y2736D01*
X113033Y2702D01*
X113041Y2747D01*
X113050Y2783D01*
X113061Y2813D01*
X113072Y2838D01*
X113083Y2858D01*
X113091Y2872D01*
X113097Y2877D01*
X113100Y2880D01*
X113122Y2897D01*
X113144Y2910D01*
X113166Y2919D01*
X113186Y2927D01*
X113205Y2930D01*
X113219Y2933D01*
X113233D01*
X113261Y2930D01*
X113286Y2924D01*
X113308Y2916D01*
X113327Y2908D01*
X113344Y2899D01*
X113355Y2891D01*
X113361Y2885D01*
X113363Y2883D01*
X113380Y2863D01*
X113394Y2844D01*
X113402Y2824D01*
X113411Y2805D01*
X113413Y2788D01*
X113416Y2774D01*
Y2766D01*
Y2763D01*
X113413Y2738D01*
X113408Y2716D01*
X113400Y2691D01*
X113391Y2672D01*
X113380Y2652D01*
X113372Y2638D01*
X113366Y2630D01*
X113363Y2627D01*
X113352Y2613D01*
X113338Y2597D01*
X113305Y2563D01*
X113264Y2530D01*
X113225Y2494D01*
X113186Y2463D01*
X113155Y2438D01*
X113141Y2430D01*
X113133Y2422D01*
X113127Y2419D01*
X113125Y2416D01*
X113069Y2375D01*
X113019Y2336D01*
X112972Y2297D01*
X112930Y2261D01*
X112892Y2225D01*
X112858Y2194D01*
X112828Y2164D01*
X112803Y2136D01*
X112780Y2111D01*
X112758Y2089D01*
X112744Y2069D01*
X112730Y2055D01*
X112719Y2041D01*
X112714Y2033D01*
X112711Y2028D01*
X112708Y2025D01*
X112672Y1964D01*
X112642Y1900D01*
X112619Y1842D01*
X112603Y1789D01*
X112589Y1742D01*
X112586Y1722D01*
X112583Y1706D01*
X112581Y1694D01*
X112578Y1683D01*
Y1675D01*
X113849D01*
Y2019D01*
X113186D01*
X113227Y2055D01*
X113258Y2086D01*
X113269Y2094D01*
X113277Y2103D01*
X113283Y2105D01*
X113286Y2108D01*
X113305Y2125D01*
X113330Y2144D01*
X113361Y2164D01*
X113388Y2183D01*
X113416Y2202D01*
X113438Y2219D01*
X113452Y2230D01*
X113458Y2233D01*
X113497Y2261D01*
X113533Y2289D01*
X113566Y2316D01*
X113597Y2341D01*
X113622Y2366D01*
X113647Y2388D01*
X113688Y2430D01*
X113719Y2463D01*
X113738Y2488D01*
X113752Y2505D01*
X113755Y2511D01*
X113783Y2558D01*
X113802Y2605D01*
X113819Y2652D01*
X113827Y2691D01*
X113833Y2727D01*
X113838Y2755D01*
Y2763D01*
Y2772D01*
Y2774D01*
Y2777D01*
X113835Y2824D01*
X113827Y2869D01*
X113816Y2910D01*
X113802Y2944D01*
X113788Y2974D01*
X113777Y2994D01*
X113769Y3008D01*
X113766Y3013D01*
X113738Y3049D01*
X113705Y3083D01*
X113672Y3108D01*
X113641Y3130D01*
X113613Y3146D01*
X113588Y3160D01*
X113574Y3166D01*
X113572Y3169D01*
X113569D01*
X113519Y3185D01*
X113463Y3199D01*
X113405Y3207D01*
X113350Y3216D01*
X113300Y3219D01*
X113277D01*
X113258Y3221D01*
D02*
G37*
G36*
X112464Y3196D02*
X111034D01*
Y2822D01*
X111515D01*
Y1675D01*
X111984D01*
Y2822D01*
X112464D01*
Y3196D01*
D02*
G37*
G36*
X108638D02*
X107833D01*
Y1675D01*
X108305D01*
Y2241D01*
X108561D01*
X108613Y2244D01*
X108661Y2247D01*
X108705Y2252D01*
X108747Y2261D01*
X108785Y2272D01*
X108822Y2283D01*
X108852Y2294D01*
X108880Y2305D01*
X108905Y2316D01*
X108927Y2327D01*
X108944Y2339D01*
X108960Y2350D01*
X108971Y2358D01*
X108980Y2363D01*
X108983Y2369D01*
X108985D01*
X109010Y2394D01*
X109033Y2422D01*
X109049Y2450D01*
X109066Y2480D01*
X109091Y2541D01*
X109108Y2599D01*
X109116Y2649D01*
X109121Y2672D01*
Y2691D01*
X109124Y2708D01*
Y2772D01*
X109119Y2808D01*
X109105Y2877D01*
X109083Y2935D01*
X109060Y2985D01*
X109038Y3024D01*
X109016Y3052D01*
X109008Y3060D01*
X109002Y3069D01*
X108999Y3074D01*
X108996D01*
X108971Y3096D01*
X108944Y3116D01*
X108883Y3144D01*
X108819Y3166D01*
X108758Y3182D01*
X108702Y3191D01*
X108677Y3194D01*
X108655D01*
X108638Y3196D01*
D02*
G37*
G36*
X107622D02*
X106192D01*
Y2822D01*
X106673D01*
Y1675D01*
X107142D01*
Y2822D01*
X107622D01*
Y3196D01*
D02*
G37*
G36*
X103522Y3221D02*
X103486D01*
X103419Y3219D01*
X103355Y3213D01*
X103294Y3202D01*
X103239Y3188D01*
X103186Y3174D01*
X103139Y3155D01*
X103094Y3138D01*
X103055Y3119D01*
X103022Y3099D01*
X102992Y3080D01*
X102967Y3060D01*
X102944Y3046D01*
X102928Y3033D01*
X102917Y3021D01*
X102908Y3016D01*
X102905Y3013D01*
X102869Y2971D01*
X102839Y2930D01*
X102811Y2883D01*
X102786Y2835D01*
X102767Y2785D01*
X102750Y2738D01*
X102736Y2691D01*
X102725Y2644D01*
X102717Y2602D01*
X102711Y2561D01*
X102706Y2525D01*
X102703Y2494D01*
Y2469D01*
X102700Y2450D01*
Y2433D01*
X102706Y2339D01*
X102717Y2252D01*
X102725Y2211D01*
X102733Y2175D01*
X102742Y2141D01*
X102753Y2111D01*
X102761Y2083D01*
X102769Y2058D01*
X102778Y2039D01*
X102786Y2022D01*
X102794Y2008D01*
X102797Y1997D01*
X102803Y1991D01*
Y1989D01*
X102844Y1928D01*
X102892Y1875D01*
X102936Y1828D01*
X102980Y1794D01*
X103019Y1767D01*
X103050Y1747D01*
X103061Y1739D01*
X103069Y1733D01*
X103075Y1731D01*
X103078D01*
X103144Y1703D01*
X103216Y1683D01*
X103286Y1669D01*
X103352Y1661D01*
X103386Y1656D01*
X103413D01*
X103438Y1653D01*
X103461Y1650D01*
X103502D01*
X103594Y1653D01*
X103677Y1664D01*
X103749Y1681D01*
X103780Y1689D01*
X103810Y1697D01*
X103838Y1706D01*
X103860Y1714D01*
X103880Y1722D01*
X103897Y1731D01*
X103910Y1736D01*
X103919Y1742D01*
X103924Y1744D01*
X103927D01*
X103988Y1783D01*
X104038Y1825D01*
X104083Y1869D01*
X104119Y1911D01*
X104149Y1950D01*
X104169Y1980D01*
X104177Y1991D01*
X104183Y2000D01*
X104185Y2005D01*
Y2008D01*
X104216Y2078D01*
X104238Y2150D01*
X104255Y2222D01*
X104266Y2291D01*
X104269Y2325D01*
X104271Y2352D01*
X104274Y2380D01*
X104277Y2402D01*
Y2447D01*
X104274Y2513D01*
X104269Y2577D01*
X104257Y2636D01*
X104244Y2691D01*
X104230Y2741D01*
X104210Y2788D01*
X104194Y2830D01*
X104174Y2869D01*
X104155Y2902D01*
X104135Y2933D01*
X104116Y2958D01*
X104102Y2980D01*
X104088Y2994D01*
X104077Y3008D01*
X104071Y3013D01*
X104069Y3016D01*
X104027Y3052D01*
X103985Y3083D01*
X103938Y3110D01*
X103891Y3135D01*
X103844Y3155D01*
X103794Y3171D01*
X103747Y3185D01*
X103699Y3196D01*
X103658Y3205D01*
X103616Y3210D01*
X103580Y3216D01*
X103547Y3219D01*
X103522Y3221D01*
D02*
G37*
%LPD*%
G36*
X108483Y2885D02*
X108522Y2880D01*
X108552Y2872D01*
X108577Y2863D01*
X108594Y2855D01*
X108608Y2847D01*
X108613Y2841D01*
X108616Y2838D01*
X108633Y2819D01*
X108644Y2799D01*
X108655Y2777D01*
X108661Y2758D01*
X108663Y2741D01*
X108666Y2727D01*
Y2719D01*
Y2716D01*
X108663Y2688D01*
X108658Y2666D01*
X108649Y2644D01*
X108638Y2627D01*
X108627Y2613D01*
X108619Y2602D01*
X108613Y2597D01*
X108611Y2594D01*
X108586Y2580D01*
X108558Y2569D01*
X108525Y2561D01*
X108494Y2555D01*
X108466Y2552D01*
X108441Y2549D01*
X108305D01*
Y2888D01*
X108438D01*
X108483Y2885D01*
D02*
G37*
G36*
X103536Y2860D02*
X103583Y2849D01*
X103624Y2835D01*
X103658Y2816D01*
X103683Y2797D01*
X103702Y2783D01*
X103716Y2772D01*
X103719Y2766D01*
X103749Y2724D01*
X103772Y2674D01*
X103785Y2622D01*
X103797Y2572D01*
X103802Y2525D01*
X103805Y2505D01*
X103808Y2488D01*
Y2472D01*
Y2461D01*
Y2455D01*
Y2452D01*
Y2405D01*
X103805Y2363D01*
X103799Y2325D01*
X103794Y2289D01*
X103788Y2258D01*
X103780Y2227D01*
X103772Y2202D01*
X103766Y2180D01*
X103758Y2161D01*
X103749Y2144D01*
X103741Y2130D01*
X103736Y2119D01*
X103724Y2105D01*
X103722Y2100D01*
X103688Y2066D01*
X103649Y2044D01*
X103611Y2028D01*
X103575Y2014D01*
X103541Y2008D01*
X103513Y2005D01*
X103502Y2003D01*
X103488D01*
X103436Y2008D01*
X103388Y2019D01*
X103347Y2033D01*
X103314Y2053D01*
X103289Y2072D01*
X103269Y2086D01*
X103255Y2097D01*
X103252Y2103D01*
X103239Y2122D01*
X103225Y2144D01*
X103205Y2197D01*
X103189Y2252D01*
X103180Y2305D01*
X103175Y2355D01*
X103172Y2377D01*
Y2397D01*
X103169Y2411D01*
Y2422D01*
Y2430D01*
Y2433D01*
Y2475D01*
X103172Y2513D01*
X103178Y2549D01*
X103183Y2583D01*
X103189Y2611D01*
X103197Y2638D01*
X103205Y2663D01*
X103214Y2686D01*
X103227Y2719D01*
X103241Y2744D01*
X103252Y2758D01*
X103255Y2763D01*
X103289Y2797D01*
X103327Y2822D01*
X103366Y2841D01*
X103402Y2852D01*
X103433Y2860D01*
X103461Y2863D01*
X103477Y2866D01*
X103483D01*
X103536Y2860D01*
D02*
G37*
%LPC*%
G36*
X38698Y2983D02*
X38253D01*
Y2139D01*
X37676Y2983D01*
X37240D01*
Y1462D01*
X37682D01*
Y2300D01*
X38253Y1462D01*
X38698D01*
Y2983D01*
D02*
G37*
G36*
X44356Y2181D02*
X43742D01*
Y1853D01*
X44356D01*
Y2181D01*
D02*
G37*
G36*
X42004Y2983D02*
X41535D01*
Y2056D01*
X41532Y2012D01*
X41524Y1973D01*
X41513Y1937D01*
X41502Y1909D01*
X41488Y1887D01*
X41477Y1873D01*
X41468Y1862D01*
X41466Y1859D01*
X41438Y1837D01*
X41407Y1820D01*
X41374Y1809D01*
X41343Y1801D01*
X41316Y1795D01*
X41293Y1792D01*
X41274D01*
X41230Y1795D01*
X41191Y1803D01*
X41157Y1815D01*
X41130Y1828D01*
X41107Y1840D01*
X41093Y1851D01*
X41082Y1859D01*
X41080Y1862D01*
X41057Y1890D01*
X41041Y1923D01*
X41030Y1953D01*
X41021Y1984D01*
X41016Y2012D01*
X41013Y2037D01*
Y2051D01*
Y2056D01*
Y2983D01*
X40544D01*
Y2076D01*
X40547Y2034D01*
X40549Y1989D01*
X40558Y1945D01*
X40566Y1906D01*
X40572Y1873D01*
X40580Y1845D01*
X40583Y1834D01*
Y1826D01*
X40585Y1823D01*
Y1820D01*
X40597Y1787D01*
X40613Y1753D01*
X40630Y1723D01*
X40647Y1698D01*
X40660Y1676D01*
X40674Y1656D01*
X40683Y1645D01*
X40685Y1642D01*
X40713Y1612D01*
X40741Y1587D01*
X40769Y1565D01*
X40794Y1545D01*
X40816Y1531D01*
X40833Y1520D01*
X40844Y1515D01*
X40846Y1512D01*
X40882Y1498D01*
X40919Y1484D01*
X40955Y1473D01*
X40991Y1468D01*
X41019Y1459D01*
X41044Y1456D01*
X41060Y1454D01*
X41066D01*
X41116Y1448D01*
X41160Y1445D01*
X41202Y1440D01*
X41238D01*
X41268Y1437D01*
X41310D01*
X41379Y1440D01*
X41443Y1445D01*
X41499Y1454D01*
X41546Y1462D01*
X41588Y1470D01*
X41615Y1479D01*
X41627Y1481D01*
X41635Y1484D01*
X41638Y1487D01*
X41640D01*
X41676Y1504D01*
X41710Y1523D01*
X41743Y1543D01*
X41771Y1562D01*
X41793Y1581D01*
X41810Y1598D01*
X41824Y1609D01*
X41826Y1612D01*
X41860Y1645D01*
X41885Y1681D01*
X41910Y1717D01*
X41926Y1751D01*
X41943Y1778D01*
X41951Y1801D01*
X41957Y1815D01*
X41960Y1820D01*
X41974Y1867D01*
X41985Y1912D01*
X41993Y1953D01*
X41999Y1995D01*
X42001Y2028D01*
X42004Y2053D01*
Y2983D01*
D02*
G37*
G36*
X43637D02*
X42207D01*
Y2609D01*
X42687D01*
Y1462D01*
X43156D01*
Y2609D01*
X43637D01*
Y2983D01*
D02*
G37*
G36*
X39811D02*
X39006D01*
Y1462D01*
X39478D01*
Y2028D01*
X39733D01*
X39786Y2031D01*
X39833Y2034D01*
X39878Y2039D01*
X39919Y2048D01*
X39958Y2059D01*
X39994Y2070D01*
X40025Y2081D01*
X40052Y2092D01*
X40077Y2103D01*
X40100Y2114D01*
X40116Y2125D01*
X40133Y2137D01*
X40144Y2145D01*
X40152Y2150D01*
X40155Y2156D01*
X40158D01*
X40183Y2181D01*
X40205Y2209D01*
X40222Y2237D01*
X40238Y2267D01*
X40263Y2328D01*
X40280Y2386D01*
X40288Y2436D01*
X40294Y2459D01*
Y2478D01*
X40297Y2495D01*
Y2559D01*
X40291Y2595D01*
X40277Y2664D01*
X40255Y2722D01*
X40233Y2772D01*
X40211Y2811D01*
X40188Y2839D01*
X40180Y2847D01*
X40175Y2856D01*
X40172Y2861D01*
X40169D01*
X40144Y2883D01*
X40116Y2903D01*
X40055Y2931D01*
X39991Y2953D01*
X39930Y2969D01*
X39875Y2978D01*
X39850Y2981D01*
X39828D01*
X39811Y2983D01*
D02*
G37*
G36*
X36901D02*
X36429D01*
Y1462D01*
X36901D01*
Y2983D01*
D02*
G37*
%LPD*%
G36*
X39655Y2672D02*
X39694Y2667D01*
X39725Y2659D01*
X39750Y2650D01*
X39766Y2642D01*
X39780Y2634D01*
X39786Y2628D01*
X39789Y2625D01*
X39805Y2606D01*
X39816Y2586D01*
X39828Y2564D01*
X39833Y2545D01*
X39836Y2528D01*
X39839Y2514D01*
Y2506D01*
Y2503D01*
X39836Y2475D01*
X39830Y2453D01*
X39822Y2431D01*
X39811Y2414D01*
X39800Y2400D01*
X39791Y2389D01*
X39786Y2384D01*
X39783Y2381D01*
X39758Y2367D01*
X39730Y2356D01*
X39697Y2348D01*
X39667Y2342D01*
X39639Y2339D01*
X39614Y2336D01*
X39478D01*
Y2675D01*
X39611D01*
X39655Y2672D01*
D02*
G37*
%LPC*%
G36*
X39077Y42983D02*
X38633D01*
Y42139D01*
X38055Y42983D01*
X37619D01*
Y41462D01*
X38061D01*
Y42300D01*
X38633Y41462D01*
X39077D01*
Y42983D01*
D02*
G37*
G36*
X42383D02*
X41914D01*
Y42056D01*
X41911Y42012D01*
X41903Y41973D01*
X41892Y41937D01*
X41881Y41909D01*
X41867Y41887D01*
X41856Y41873D01*
X41847Y41862D01*
X41845Y41859D01*
X41817Y41837D01*
X41786Y41820D01*
X41753Y41809D01*
X41722Y41801D01*
X41695Y41795D01*
X41673Y41792D01*
X41653D01*
X41609Y41795D01*
X41570Y41803D01*
X41536Y41815D01*
X41509Y41828D01*
X41486Y41840D01*
X41473Y41851D01*
X41462Y41859D01*
X41459Y41862D01*
X41437Y41890D01*
X41420Y41923D01*
X41409Y41953D01*
X41400Y41984D01*
X41395Y42012D01*
X41392Y42037D01*
Y42051D01*
Y42056D01*
Y42983D01*
X40923D01*
Y42076D01*
X40926Y42034D01*
X40928Y41989D01*
X40937Y41945D01*
X40945Y41906D01*
X40951Y41873D01*
X40959Y41845D01*
X40962Y41834D01*
Y41826D01*
X40965Y41823D01*
Y41820D01*
X40976Y41787D01*
X40992Y41753D01*
X41009Y41723D01*
X41026Y41698D01*
X41040Y41676D01*
X41053Y41656D01*
X41062Y41645D01*
X41065Y41642D01*
X41092Y41612D01*
X41120Y41587D01*
X41148Y41565D01*
X41173Y41545D01*
X41195Y41531D01*
X41212Y41520D01*
X41223Y41515D01*
X41226Y41512D01*
X41262Y41498D01*
X41298Y41484D01*
X41334Y41473D01*
X41370Y41468D01*
X41398Y41459D01*
X41423Y41456D01*
X41439Y41454D01*
X41445D01*
X41495Y41448D01*
X41539Y41445D01*
X41581Y41440D01*
X41617D01*
X41648Y41437D01*
X41689D01*
X41759Y41440D01*
X41822Y41445D01*
X41878Y41454D01*
X41925Y41462D01*
X41967Y41470D01*
X41995Y41479D01*
X42006Y41481D01*
X42014Y41484D01*
X42017Y41487D01*
X42020D01*
X42056Y41504D01*
X42089Y41523D01*
X42122Y41542D01*
X42150Y41562D01*
X42172Y41581D01*
X42189Y41598D01*
X42203Y41609D01*
X42206Y41612D01*
X42239Y41645D01*
X42264Y41681D01*
X42289Y41717D01*
X42305Y41751D01*
X42322Y41778D01*
X42330Y41801D01*
X42336Y41815D01*
X42339Y41820D01*
X42353Y41867D01*
X42364Y41912D01*
X42372Y41953D01*
X42378Y41995D01*
X42380Y42028D01*
X42383Y42053D01*
Y42983D01*
D02*
G37*
G36*
X44940Y42789D02*
X44604D01*
Y42389D01*
X44207D01*
Y42053D01*
X44604D01*
Y41656D01*
X44940D01*
Y42053D01*
X45340D01*
Y42389D01*
X44940D01*
Y42789D01*
D02*
G37*
G36*
X44016Y42983D02*
X42586D01*
Y42609D01*
X43066D01*
Y41462D01*
X43535D01*
Y42609D01*
X44016D01*
Y42983D01*
D02*
G37*
G36*
X40190D02*
X39385D01*
Y41462D01*
X39857D01*
Y42028D01*
X40112D01*
X40165Y42031D01*
X40212Y42034D01*
X40257Y42039D01*
X40298Y42048D01*
X40337Y42059D01*
X40373Y42070D01*
X40404Y42081D01*
X40432Y42092D01*
X40457Y42103D01*
X40479Y42114D01*
X40495Y42125D01*
X40512Y42137D01*
X40523Y42145D01*
X40531Y42150D01*
X40534Y42156D01*
X40537D01*
X40562Y42181D01*
X40584Y42209D01*
X40601Y42237D01*
X40618Y42267D01*
X40643Y42328D01*
X40659Y42386D01*
X40668Y42436D01*
X40673Y42459D01*
Y42478D01*
X40676Y42495D01*
Y42559D01*
X40670Y42595D01*
X40656Y42664D01*
X40634Y42722D01*
X40612Y42772D01*
X40590Y42811D01*
X40568Y42839D01*
X40559Y42847D01*
X40554Y42856D01*
X40551Y42861D01*
X40548D01*
X40523Y42883D01*
X40495Y42903D01*
X40434Y42931D01*
X40370Y42953D01*
X40309Y42969D01*
X40254Y42978D01*
X40229Y42981D01*
X40207D01*
X40190Y42983D01*
D02*
G37*
G36*
X37281D02*
X36809D01*
Y41462D01*
X37281D01*
Y42983D01*
D02*
G37*
%LPD*%
G36*
X40035Y42672D02*
X40073Y42667D01*
X40104Y42659D01*
X40129Y42650D01*
X40146Y42642D01*
X40159Y42634D01*
X40165Y42628D01*
X40168Y42625D01*
X40184Y42606D01*
X40196Y42586D01*
X40207Y42564D01*
X40212Y42545D01*
X40215Y42528D01*
X40218Y42514D01*
Y42506D01*
Y42503D01*
X40215Y42475D01*
X40209Y42453D01*
X40201Y42431D01*
X40190Y42414D01*
X40179Y42400D01*
X40171Y42389D01*
X40165Y42384D01*
X40162Y42381D01*
X40137Y42367D01*
X40110Y42356D01*
X40076Y42348D01*
X40046Y42342D01*
X40018Y42339D01*
X39993Y42336D01*
X39857D01*
Y42675D01*
X39990D01*
X40035Y42672D01*
D02*
G37*
%LPC*%
G36*
X73063Y49015D02*
X72767D01*
Y48452D01*
X72381Y49015D01*
X72091D01*
Y48000D01*
X72385D01*
Y48559D01*
X72767Y48000D01*
X73063D01*
Y49015D01*
D02*
G37*
G36*
X73744Y48885D02*
X73520D01*
Y48618D01*
X73255D01*
Y48394D01*
X73520D01*
Y48130D01*
X73744D01*
Y48394D01*
X74011D01*
Y48618D01*
X73744D01*
Y48885D01*
D02*
G37*
G36*
X71865Y49015D02*
X71550D01*
Y48000D01*
X71865D01*
Y49015D01*
D02*
G37*
G36*
X74538Y29215D02*
X74242D01*
Y28652D01*
X73856Y29215D01*
X73566D01*
Y28200D01*
X73860D01*
Y28759D01*
X74242Y28200D01*
X74538D01*
Y29215D01*
D02*
G37*
G36*
X75082Y28680D02*
X74673D01*
Y28461D01*
X75082D01*
Y28680D01*
D02*
G37*
G36*
X73340Y29215D02*
X73025D01*
Y28200D01*
X73340D01*
Y29215D01*
D02*
G37*
G36*
X91549Y43381D02*
X91236D01*
Y42763D01*
X91234Y42733D01*
X91228Y42707D01*
X91221Y42683D01*
X91213Y42665D01*
X91204Y42650D01*
X91197Y42641D01*
X91191Y42633D01*
X91189Y42631D01*
X91171Y42617D01*
X91150Y42606D01*
X91128Y42598D01*
X91108Y42593D01*
X91089Y42589D01*
X91074Y42587D01*
X91062D01*
X91032Y42589D01*
X91006Y42594D01*
X90984Y42602D01*
X90965Y42611D01*
X90950Y42618D01*
X90941Y42626D01*
X90934Y42631D01*
X90932Y42633D01*
X90917Y42652D01*
X90906Y42674D01*
X90899Y42694D01*
X90893Y42715D01*
X90889Y42733D01*
X90887Y42750D01*
Y42759D01*
Y42763D01*
Y43381D01*
X90575D01*
Y42776D01*
X90576Y42748D01*
X90578Y42718D01*
X90584Y42689D01*
X90589Y42663D01*
X90593Y42641D01*
X90599Y42622D01*
X90600Y42615D01*
Y42609D01*
X90602Y42607D01*
Y42606D01*
X90610Y42583D01*
X90621Y42561D01*
X90632Y42541D01*
X90643Y42524D01*
X90652Y42509D01*
X90662Y42496D01*
X90667Y42489D01*
X90669Y42487D01*
X90687Y42467D01*
X90706Y42450D01*
X90725Y42435D01*
X90741Y42422D01*
X90756Y42413D01*
X90767Y42406D01*
X90775Y42402D01*
X90776Y42400D01*
X90800Y42391D01*
X90825Y42381D01*
X90849Y42374D01*
X90873Y42370D01*
X90891Y42365D01*
X90908Y42363D01*
X90919Y42361D01*
X90923D01*
X90956Y42357D01*
X90986Y42356D01*
X91013Y42352D01*
X91037D01*
X91058Y42350D01*
X91086D01*
X91132Y42352D01*
X91174Y42356D01*
X91212Y42361D01*
X91243Y42367D01*
X91271Y42372D01*
X91289Y42378D01*
X91297Y42380D01*
X91302Y42381D01*
X91304Y42383D01*
X91306D01*
X91330Y42394D01*
X91352Y42407D01*
X91374Y42420D01*
X91393Y42433D01*
X91408Y42446D01*
X91419Y42457D01*
X91428Y42465D01*
X91430Y42467D01*
X91452Y42489D01*
X91469Y42513D01*
X91486Y42537D01*
X91497Y42559D01*
X91508Y42578D01*
X91513Y42593D01*
X91517Y42602D01*
X91519Y42606D01*
X91528Y42637D01*
X91536Y42667D01*
X91541Y42694D01*
X91545Y42722D01*
X91547Y42744D01*
X91549Y42761D01*
Y43381D01*
D02*
G37*
G36*
X88319D02*
X88006D01*
Y42763D01*
X88004Y42733D01*
X87999Y42707D01*
X87991Y42683D01*
X87984Y42665D01*
X87975Y42650D01*
X87967Y42641D01*
X87962Y42633D01*
X87960Y42631D01*
X87941Y42617D01*
X87921Y42606D01*
X87899Y42598D01*
X87879Y42593D01*
X87860Y42589D01*
X87845Y42587D01*
X87832D01*
X87803Y42589D01*
X87777Y42594D01*
X87754Y42602D01*
X87736Y42611D01*
X87721Y42618D01*
X87712Y42626D01*
X87704Y42631D01*
X87703Y42633D01*
X87688Y42652D01*
X87677Y42674D01*
X87669Y42694D01*
X87664Y42715D01*
X87660Y42733D01*
X87658Y42750D01*
Y42759D01*
Y42763D01*
Y43381D01*
X87345D01*
Y42776D01*
X87347Y42748D01*
X87349Y42718D01*
X87354Y42689D01*
X87360Y42663D01*
X87364Y42641D01*
X87369Y42622D01*
X87371Y42615D01*
Y42609D01*
X87373Y42607D01*
Y42606D01*
X87380Y42583D01*
X87392Y42561D01*
X87403Y42541D01*
X87414Y42524D01*
X87423Y42509D01*
X87432Y42496D01*
X87438Y42489D01*
X87440Y42487D01*
X87458Y42467D01*
X87477Y42450D01*
X87495Y42435D01*
X87512Y42422D01*
X87527Y42413D01*
X87538Y42406D01*
X87545Y42402D01*
X87547Y42400D01*
X87571Y42391D01*
X87595Y42381D01*
X87619Y42374D01*
X87643Y42370D01*
X87662Y42365D01*
X87679Y42363D01*
X87690Y42361D01*
X87693D01*
X87727Y42357D01*
X87756Y42356D01*
X87784Y42352D01*
X87808D01*
X87829Y42350D01*
X87856D01*
X87903Y42352D01*
X87945Y42356D01*
X87982Y42361D01*
X88014Y42367D01*
X88041Y42372D01*
X88060Y42378D01*
X88067Y42380D01*
X88073Y42381D01*
X88075Y42383D01*
X88077D01*
X88101Y42394D01*
X88123Y42407D01*
X88145Y42420D01*
X88164Y42433D01*
X88178Y42446D01*
X88190Y42457D01*
X88199Y42465D01*
X88201Y42467D01*
X88223Y42489D01*
X88240Y42513D01*
X88256Y42537D01*
X88267Y42559D01*
X88278Y42578D01*
X88284Y42593D01*
X88288Y42602D01*
X88290Y42606D01*
X88299Y42637D01*
X88306Y42667D01*
X88312Y42694D01*
X88316Y42722D01*
X88317Y42744D01*
X88319Y42761D01*
Y43381D01*
D02*
G37*
G36*
X92637D02*
X91684D01*
Y43131D01*
X92004D01*
Y42367D01*
X92317D01*
Y43131D01*
X92637D01*
Y43381D01*
D02*
G37*
G36*
X90086D02*
X89549D01*
Y42367D01*
X89864D01*
Y42744D01*
X90034D01*
X90069Y42746D01*
X90101Y42748D01*
X90130Y42752D01*
X90158Y42757D01*
X90184Y42765D01*
X90208Y42772D01*
X90228Y42780D01*
X90247Y42787D01*
X90263Y42794D01*
X90278Y42802D01*
X90289Y42809D01*
X90300Y42817D01*
X90308Y42822D01*
X90313Y42826D01*
X90315Y42830D01*
X90317D01*
X90334Y42846D01*
X90349Y42865D01*
X90360Y42883D01*
X90371Y42904D01*
X90388Y42944D01*
X90399Y42983D01*
X90404Y43017D01*
X90408Y43031D01*
Y43044D01*
X90410Y43055D01*
Y43098D01*
X90406Y43122D01*
X90397Y43168D01*
X90382Y43207D01*
X90367Y43241D01*
X90352Y43267D01*
X90338Y43285D01*
X90332Y43291D01*
X90328Y43296D01*
X90326Y43300D01*
X90325D01*
X90308Y43315D01*
X90289Y43328D01*
X90249Y43346D01*
X90206Y43361D01*
X90165Y43372D01*
X90128Y43378D01*
X90112Y43380D01*
X90097D01*
X90086Y43381D01*
D02*
G37*
G36*
X89408D02*
X88454D01*
Y43131D01*
X88775D01*
Y42367D01*
X89088D01*
Y43131D01*
X89408D01*
Y43381D01*
D02*
G37*
G36*
X86673Y43398D02*
X86649D01*
X86605Y43396D01*
X86562Y43392D01*
X86521Y43385D01*
X86484Y43376D01*
X86449Y43367D01*
X86418Y43354D01*
X86388Y43342D01*
X86362Y43330D01*
X86340Y43317D01*
X86319Y43304D01*
X86303Y43291D01*
X86288Y43281D01*
X86277Y43272D01*
X86269Y43265D01*
X86264Y43261D01*
X86262Y43259D01*
X86238Y43231D01*
X86218Y43204D01*
X86199Y43172D01*
X86182Y43141D01*
X86169Y43107D01*
X86158Y43076D01*
X86149Y43044D01*
X86142Y43013D01*
X86136Y42985D01*
X86132Y42957D01*
X86129Y42933D01*
X86127Y42913D01*
Y42896D01*
X86125Y42883D01*
Y42872D01*
X86129Y42809D01*
X86136Y42752D01*
X86142Y42724D01*
X86147Y42700D01*
X86153Y42678D01*
X86160Y42657D01*
X86166Y42639D01*
X86171Y42622D01*
X86177Y42609D01*
X86182Y42598D01*
X86188Y42589D01*
X86190Y42581D01*
X86194Y42578D01*
Y42576D01*
X86221Y42535D01*
X86253Y42500D01*
X86282Y42469D01*
X86312Y42446D01*
X86338Y42428D01*
X86358Y42415D01*
X86366Y42409D01*
X86371Y42406D01*
X86375Y42404D01*
X86377D01*
X86421Y42385D01*
X86469Y42372D01*
X86516Y42363D01*
X86560Y42357D01*
X86582Y42354D01*
X86601D01*
X86618Y42352D01*
X86632Y42350D01*
X86660D01*
X86721Y42352D01*
X86777Y42359D01*
X86825Y42370D01*
X86845Y42376D01*
X86866Y42381D01*
X86884Y42387D01*
X86899Y42393D01*
X86912Y42398D01*
X86923Y42404D01*
X86932Y42407D01*
X86938Y42411D01*
X86942Y42413D01*
X86943D01*
X86984Y42439D01*
X87018Y42467D01*
X87047Y42496D01*
X87071Y42524D01*
X87092Y42550D01*
X87105Y42570D01*
X87110Y42578D01*
X87114Y42583D01*
X87116Y42587D01*
Y42589D01*
X87136Y42635D01*
X87151Y42683D01*
X87162Y42731D01*
X87169Y42778D01*
X87171Y42800D01*
X87173Y42818D01*
X87175Y42837D01*
X87177Y42852D01*
Y42881D01*
X87175Y42926D01*
X87171Y42968D01*
X87164Y43007D01*
X87155Y43044D01*
X87145Y43078D01*
X87132Y43109D01*
X87121Y43137D01*
X87108Y43163D01*
X87095Y43185D01*
X87082Y43205D01*
X87069Y43222D01*
X87060Y43237D01*
X87051Y43246D01*
X87043Y43255D01*
X87040Y43259D01*
X87038Y43261D01*
X87010Y43285D01*
X86982Y43305D01*
X86951Y43324D01*
X86919Y43341D01*
X86888Y43354D01*
X86855Y43365D01*
X86823Y43374D01*
X86792Y43381D01*
X86764Y43387D01*
X86736Y43391D01*
X86712Y43394D01*
X86690Y43396D01*
X86673Y43398D01*
D02*
G37*
%LPD*%
G36*
X89982Y43174D02*
X90008Y43170D01*
X90028Y43165D01*
X90045Y43159D01*
X90056Y43154D01*
X90065Y43148D01*
X90069Y43144D01*
X90071Y43143D01*
X90082Y43130D01*
X90089Y43117D01*
X90097Y43102D01*
X90101Y43089D01*
X90102Y43078D01*
X90104Y43068D01*
Y43063D01*
Y43061D01*
X90102Y43043D01*
X90099Y43028D01*
X90093Y43013D01*
X90086Y43002D01*
X90078Y42993D01*
X90073Y42985D01*
X90069Y42981D01*
X90067Y42980D01*
X90051Y42970D01*
X90032Y42963D01*
X90010Y42957D01*
X89989Y42954D01*
X89971Y42952D01*
X89954Y42950D01*
X89864D01*
Y43176D01*
X89952D01*
X89982Y43174D01*
D02*
G37*
G36*
X86682Y43157D02*
X86714Y43150D01*
X86742Y43141D01*
X86764Y43128D01*
X86780Y43115D01*
X86793Y43105D01*
X86803Y43098D01*
X86805Y43094D01*
X86825Y43067D01*
X86840Y43033D01*
X86849Y42998D01*
X86856Y42965D01*
X86860Y42933D01*
X86862Y42920D01*
X86864Y42909D01*
Y42898D01*
Y42891D01*
Y42887D01*
Y42885D01*
Y42854D01*
X86862Y42826D01*
X86858Y42800D01*
X86855Y42776D01*
X86851Y42756D01*
X86845Y42735D01*
X86840Y42718D01*
X86836Y42704D01*
X86830Y42691D01*
X86825Y42680D01*
X86819Y42670D01*
X86816Y42663D01*
X86808Y42654D01*
X86806Y42650D01*
X86784Y42628D01*
X86758Y42613D01*
X86732Y42602D01*
X86708Y42593D01*
X86686Y42589D01*
X86668Y42587D01*
X86660Y42585D01*
X86651D01*
X86616Y42589D01*
X86584Y42596D01*
X86556Y42606D01*
X86534Y42618D01*
X86518Y42631D01*
X86505Y42641D01*
X86495Y42648D01*
X86493Y42652D01*
X86484Y42665D01*
X86475Y42680D01*
X86462Y42715D01*
X86451Y42752D01*
X86445Y42787D01*
X86442Y42820D01*
X86440Y42835D01*
Y42848D01*
X86438Y42857D01*
Y42865D01*
Y42870D01*
Y42872D01*
Y42900D01*
X86440Y42926D01*
X86443Y42950D01*
X86447Y42972D01*
X86451Y42991D01*
X86456Y43009D01*
X86462Y43026D01*
X86468Y43041D01*
X86477Y43063D01*
X86486Y43080D01*
X86493Y43089D01*
X86495Y43093D01*
X86518Y43115D01*
X86543Y43131D01*
X86569Y43144D01*
X86593Y43152D01*
X86614Y43157D01*
X86632Y43159D01*
X86643Y43161D01*
X86647D01*
X86682Y43157D01*
D02*
G37*
D10*
X50025Y71350D02*
G03*
X50025Y71350I-2700J0D01*
G01*
Y16600D02*
G03*
X50025Y16600I-2700J0D01*
G01*
X103825Y71350D02*
G03*
X103825Y71350I-2700J0D01*
G01*
Y16600D02*
G03*
X103825Y16600I-2700J0D01*
G01*
D11*
X77425Y42187D02*
G03*
X77425Y42187I-125J0D01*
G01*
D12*
X70460Y41600D02*
G03*
X70460Y41600I-710J0D01*
G01*
X79485Y41594D02*
G03*
X79485Y41594I-710J0D01*
G01*
X69897Y73925D02*
G03*
X69897Y73925I-710J0D01*
G01*
X75304Y74715D02*
G03*
X75304Y74715I-710J0D01*
G01*
X77035Y64075D02*
G03*
X77035Y64075I-710J0D01*
G01*
X65181Y65200D02*
G03*
X65181Y65200I-710J0D01*
G01*
X71385Y62050D02*
G03*
X71385Y62050I-710J0D01*
G01*
X59085Y72775D02*
G03*
X59085Y72775I-710J0D01*
G01*
X80710D02*
G03*
X80710Y72775I-710J0D01*
G01*
X64491D02*
G03*
X64491Y72775I-710J0D01*
G01*
X81275Y67742D02*
G03*
X81275Y67742I-710J0D01*
G01*
X80860Y39275D02*
G03*
X80860Y39275I-710J0D01*
G01*
X70460Y38400D02*
G03*
X70460Y38400I-710J0D01*
G01*
X74760Y54826D02*
G03*
X74760Y54826I-710J0D01*
G01*
X73700Y39605D02*
X76800D01*
X73700Y40379D02*
X76800D01*
X73700Y39605D02*
Y40379D01*
X76800Y39605D02*
Y40379D01*
X63396Y41275D02*
X65246D01*
X63396D02*
Y42275D01*
X65246D01*
Y41275D02*
Y42275D01*
X65221Y37725D02*
Y38725D01*
X63371D02*
X65221D01*
X63371Y37725D02*
Y38725D01*
Y37725D02*
X65221D01*
X65521Y41000D02*
X66021D01*
X65521Y39000D02*
Y41000D01*
Y39000D02*
X66521D01*
Y41000D01*
X66021D02*
X66521D01*
X65521Y43275D02*
X66021D01*
X65521Y41275D02*
Y43275D01*
Y41275D02*
X66521D01*
Y43275D01*
X66021D02*
X66521D01*
X65521Y38725D02*
X66021D01*
X65521Y36725D02*
Y38725D01*
Y36725D02*
X66521D01*
Y38725D01*
X66021D02*
X66521D01*
X71926Y37425D02*
X72171Y37670D01*
X68050Y37425D02*
X71926D01*
X73100Y37894D02*
Y38894D01*
X71250D02*
X73100D01*
X71250Y37894D02*
Y38894D01*
Y37894D02*
X73100D01*
Y41094D02*
Y42094D01*
X71250D02*
X73100D01*
X71250Y41094D02*
Y42094D01*
Y41094D02*
X73100D01*
X75250Y43000D02*
X75750D01*
Y45000D01*
X74750D02*
X75750D01*
X74750Y43000D02*
Y45000D01*
Y43000D02*
X75250D01*
X81750Y40775D02*
X82250D01*
X81750Y38775D02*
Y40775D01*
Y38775D02*
X82750D01*
Y40775D01*
X82250D02*
X82750D01*
X79650Y40219D02*
Y42069D01*
X80650D01*
Y40219D02*
Y42069D01*
X79650Y40219D02*
X80650D01*
X77925Y38025D02*
X78425D01*
Y40025D01*
X77425D02*
X78425D01*
X77425Y38025D02*
Y40025D01*
Y38025D02*
X77925D01*
X75500Y35629D02*
Y36629D01*
X73650D02*
X75500D01*
X73650Y35629D02*
Y36629D01*
Y35629D02*
X75500D01*
Y34330D02*
Y35330D01*
X73650D02*
X75500D01*
X73650Y34330D02*
Y35330D01*
Y34330D02*
X75500D01*
X78300Y34830D02*
Y35330D01*
X76300D02*
X78300D01*
X76300Y34330D02*
Y35330D01*
Y34330D02*
X78300D01*
Y34830D01*
X91625Y37150D02*
Y41400D01*
X87625Y37150D02*
Y41400D01*
X91625D01*
X87625Y37150D02*
X91625D01*
X93050Y39750D02*
X94050D01*
X93050Y37900D02*
Y39750D01*
Y37900D02*
X94050D01*
Y39750D01*
X95358Y41225D02*
X96358D01*
X95358Y39375D02*
Y41225D01*
Y39375D02*
X96358D01*
Y41225D01*
X95358Y37325D02*
X96358D01*
Y39175D01*
X95358D02*
X96358D01*
X95358Y37325D02*
Y39175D01*
X29086Y75080D02*
X40056D01*
Y64920D02*
Y75080D01*
X29086Y64920D02*
X40056D01*
X35460Y44212D02*
X44042D01*
X35460Y55788D02*
X44042D01*
Y44212D02*
Y48492D01*
Y51508D02*
Y55788D01*
X29086Y35080D02*
X40056D01*
Y24920D02*
Y35080D01*
X29086Y24920D02*
X40056D01*
X44042Y11508D02*
Y15788D01*
Y4212D02*
Y8492D01*
X35460Y15788D02*
X44042D01*
X35460Y4212D02*
X44042D01*
X106458Y15788D02*
X115040D01*
X106458Y4212D02*
X115040D01*
X106458Y11508D02*
Y15788D01*
Y4212D02*
Y8492D01*
Y44212D02*
Y48492D01*
Y51508D02*
Y55788D01*
Y44212D02*
X115040D01*
X106458Y55788D02*
X115040D01*
X79875Y61975D02*
Y62475D01*
X77125Y61975D02*
X79875D01*
X77125D02*
Y63325D01*
X79875D01*
Y62475D02*
Y63325D01*
X79125Y64075D02*
Y64575D01*
X77125D02*
X79125D01*
X77125Y63575D02*
Y64575D01*
Y63575D02*
X79125D01*
Y64075D01*
X77229Y65192D02*
X78579D01*
X77229D02*
Y68442D01*
X79079D01*
Y65192D02*
Y68442D01*
X78579Y65192D02*
X79079D01*
X76166Y66017D02*
X77016D01*
Y68267D01*
X75666D02*
X77016D01*
X75666Y66017D02*
Y68267D01*
Y66017D02*
X76166D01*
X66691Y62750D02*
X68041D01*
X66691D02*
Y66000D01*
X68541D01*
Y62750D02*
Y66000D01*
X68041Y62750D02*
X68541D01*
X69281Y63475D02*
X70131D01*
Y65725D01*
X68781D02*
X70131D01*
X68781Y63475D02*
Y65725D01*
Y63475D02*
X69281D01*
X67650Y61525D02*
Y62025D01*
Y61525D02*
X69650D01*
Y62525D01*
X67650D02*
X69650D01*
X67650Y62025D02*
Y62525D01*
X67075Y60800D02*
Y61300D01*
X69825D01*
Y59950D02*
Y61300D01*
X67075Y59950D02*
X69825D01*
X67075D02*
Y60800D01*
X103550Y9525D02*
Y11375D01*
X104550D01*
Y9525D02*
Y11375D01*
X103550Y9525D02*
X104550D01*
Y48625D02*
Y50475D01*
X103550Y48625D02*
X104550D01*
X103550D02*
Y50475D01*
X104550D01*
X107895Y24666D02*
X118865D01*
X107895D02*
Y35334D01*
X118865D01*
X72000Y29450D02*
Y33450D01*
X76250Y29450D02*
Y33450D01*
X72000D02*
X76250D01*
X72000Y29450D02*
X76250D01*
X83925Y38775D02*
X85775D01*
X83925D02*
Y39775D01*
X85775D01*
Y38775D02*
Y39775D01*
X74550Y43300D02*
Y47300D01*
X70300Y43300D02*
Y47300D01*
Y43300D02*
X74550D01*
X70300Y47300D02*
X74550D01*
X107895Y65186D02*
X118865D01*
X107895D02*
Y75854D01*
X118865D01*
D13*
X103581Y51273D02*
Y52272D01*
X104081D01*
X104248Y52106D01*
Y51772D01*
X104081Y51606D01*
X103581D01*
X103914D02*
X104248Y51273D01*
X104581D02*
X104914D01*
X104747D01*
Y52272D01*
X104581Y52106D01*
X106080Y52272D02*
X105414D01*
Y51772D01*
X105747Y51939D01*
X105914D01*
X106080Y51772D01*
Y51439D01*
X105914Y51273D01*
X105581D01*
X105414Y51439D01*
X103581Y12157D02*
Y13156D01*
X104081D01*
X104248Y12990D01*
Y12656D01*
X104081Y12490D01*
X103581D01*
X103914D02*
X104248Y12157D01*
X104581D02*
X104914D01*
X104747D01*
Y13156D01*
X104581Y12990D01*
X105914Y12157D02*
Y13156D01*
X105414Y12656D01*
X106080D01*
X98225Y39725D02*
X97225D01*
Y40225D01*
X97392Y40392D01*
X97725D01*
X97892Y40225D01*
Y39725D01*
Y40059D02*
X98225Y40392D01*
Y40725D02*
Y41058D01*
Y40892D01*
X97225D01*
X97392Y40725D01*
Y41558D02*
X97225Y41725D01*
Y42058D01*
X97392Y42225D01*
X97558D01*
X97725Y42058D01*
Y41891D01*
Y42058D01*
X97892Y42225D01*
X98058D01*
X98225Y42058D01*
Y41725D01*
X98058Y41558D01*
X98125Y36650D02*
X97125D01*
Y37150D01*
X97292Y37317D01*
X97625D01*
X97792Y37150D01*
Y36650D01*
Y36984D02*
X98125Y37317D01*
Y37650D02*
Y37983D01*
Y37817D01*
X97125D01*
X97292Y37650D01*
X98125Y39150D02*
Y38483D01*
X97458Y39150D01*
X97292D01*
X97125Y38983D01*
Y38650D01*
X97292Y38483D01*
X38558Y36450D02*
X38225D01*
X38392D01*
Y35617D01*
X38225Y35450D01*
X38059D01*
X37892Y35617D01*
X38892Y36450D02*
X39558D01*
Y36283D01*
X38892Y35617D01*
Y35450D01*
X38808Y76650D02*
X38475D01*
X38642D01*
Y75817D01*
X38475Y75650D01*
X38309D01*
X38142Y75817D01*
X39808Y75650D02*
X39142D01*
X39808Y76317D01*
Y76483D01*
X39641Y76650D01*
X39308D01*
X39142Y76483D01*
X81959Y36750D02*
Y35917D01*
X82125Y35750D01*
X82458D01*
X82625Y35917D01*
Y36750D01*
X82958Y35750D02*
X83291D01*
X83125D01*
Y36750D01*
X82958Y36583D01*
X73381Y57301D02*
X74047D01*
X73714D01*
Y56302D01*
X74380D02*
Y57301D01*
X74880D01*
X75047Y57135D01*
Y56802D01*
X74880Y56635D01*
X74380D01*
X75380Y57135D02*
X75547Y57301D01*
X75880D01*
X76046Y57135D01*
Y56968D01*
X75880Y56802D01*
X76046Y56635D01*
Y56468D01*
X75880Y56302D01*
X75547D01*
X75380Y56468D01*
Y56635D01*
X75547Y56802D01*
X75380Y56968D01*
Y57135D01*
X75547Y56802D02*
X75880D01*
X94125Y40117D02*
X93125D01*
Y40617D01*
X93292Y40783D01*
X93625D01*
X93792Y40617D01*
Y40117D01*
Y40450D02*
X94125Y40783D01*
Y41117D02*
Y41450D01*
Y41283D01*
X93125D01*
X93292Y41117D01*
X94125Y41950D02*
Y42283D01*
Y42116D01*
X93125D01*
X93292Y41950D01*
X68000Y36050D02*
Y37050D01*
X68500D01*
X68667Y36883D01*
Y36550D01*
X68500Y36383D01*
X68000D01*
X68334D02*
X68667Y36050D01*
X69000D02*
X69333D01*
X69167D01*
Y37050D01*
X69000Y36883D01*
X69833D02*
X70000Y37050D01*
X70333D01*
X70500Y36883D01*
Y36217D01*
X70333Y36050D01*
X70000D01*
X69833Y36217D01*
Y36883D01*
X63417Y42800D02*
Y43800D01*
X63917D01*
X64083Y43633D01*
Y43300D01*
X63917Y43133D01*
X63417D01*
X63750D02*
X64083Y42800D01*
X64417Y42967D02*
X64583Y42800D01*
X64916D01*
X65083Y42967D01*
Y43633D01*
X64916Y43800D01*
X64583D01*
X64417Y43633D01*
Y43467D01*
X64583Y43300D01*
X65083D01*
X83947Y40554D02*
Y41553D01*
X84447D01*
X84613Y41387D01*
Y41054D01*
X84447Y40887D01*
X83947D01*
X84280D02*
X84613Y40554D01*
X84947Y41387D02*
X85113Y41553D01*
X85447D01*
X85613Y41387D01*
Y41220D01*
X85447Y41054D01*
X85613Y40887D01*
Y40720D01*
X85447Y40554D01*
X85113D01*
X84947Y40720D01*
Y40887D01*
X85113Y41054D01*
X84947Y41220D01*
Y41387D01*
X85113Y41054D02*
X85447D01*
X80750Y42942D02*
X79750D01*
Y43442D01*
X79917Y43608D01*
X80250D01*
X80417Y43442D01*
Y42942D01*
Y43275D02*
X80750Y43608D01*
X79750Y43942D02*
Y44608D01*
X79917D01*
X80583Y43942D01*
X80750D01*
X67992Y34600D02*
Y35600D01*
X68492D01*
X68658Y35433D01*
Y35100D01*
X68492Y34933D01*
X67992D01*
X68325D02*
X68658Y34600D01*
X69658Y35600D02*
X69325Y35433D01*
X68992Y35100D01*
Y34767D01*
X69158Y34600D01*
X69491D01*
X69658Y34767D01*
Y34933D01*
X69491Y35100D01*
X68992D01*
X63517Y36150D02*
Y37150D01*
X64017D01*
X64183Y36983D01*
Y36650D01*
X64017Y36483D01*
X63517D01*
X63850D02*
X64183Y36150D01*
X65183Y37150D02*
X64517D01*
Y36650D01*
X64850Y36817D01*
X65016D01*
X65183Y36650D01*
Y36317D01*
X65016Y36150D01*
X64683D01*
X64517Y36317D01*
X71185Y35540D02*
Y36540D01*
X71685D01*
X71852Y36373D01*
Y36040D01*
X71685Y35874D01*
X71185D01*
X71519D02*
X71852Y35540D01*
X72685D02*
Y36540D01*
X72185Y36040D01*
X72852D01*
X71185Y34245D02*
Y35245D01*
X71685D01*
X71852Y35078D01*
Y34745D01*
X71685Y34578D01*
X71185D01*
X71519D02*
X71852Y34245D01*
X72185Y35078D02*
X72352Y35245D01*
X72685D01*
X72852Y35078D01*
Y34911D01*
X72685Y34745D01*
X72518D01*
X72685D01*
X72852Y34578D01*
Y34412D01*
X72685Y34245D01*
X72352D01*
X72185Y34412D01*
X76925Y68792D02*
X75925D01*
Y69292D01*
X76092Y69458D01*
X76425D01*
X76592Y69292D01*
Y68792D01*
Y69125D02*
X76925Y69458D01*
Y70458D02*
Y69792D01*
X76258Y70458D01*
X76092D01*
X75925Y70291D01*
Y69958D01*
X76092Y69792D01*
X70000Y66284D02*
X69000D01*
Y66783D01*
X69167Y66950D01*
X69500D01*
X69667Y66783D01*
Y66284D01*
Y66617D02*
X70000Y66950D01*
Y67283D02*
Y67616D01*
Y67450D01*
X69000D01*
X69167Y67283D01*
X108616Y77621D02*
X108283D01*
X108450D01*
Y76788D01*
X108283Y76622D01*
X108117D01*
X107950Y76788D01*
X108950Y77455D02*
X109116Y77621D01*
X109450D01*
X109616Y77455D01*
Y77288D01*
X109450Y77122D01*
X109616Y76955D01*
Y76788D01*
X109450Y76622D01*
X109116D01*
X108950Y76788D01*
Y76955D01*
X109116Y77122D01*
X108950Y77288D01*
Y77455D01*
X109116Y77122D02*
X109450D01*
X107108Y57325D02*
X106775D01*
X106942D01*
Y56492D01*
X106775Y56325D01*
X106609D01*
X106442Y56492D01*
X108108Y57325D02*
X107775Y57158D01*
X107442Y56825D01*
Y56492D01*
X107608Y56325D01*
X107941D01*
X108108Y56492D01*
Y56658D01*
X107941Y56825D01*
X107442D01*
X42433Y57225D02*
X42100D01*
X42267D01*
Y56392D01*
X42100Y56225D01*
X41934D01*
X41767Y56392D01*
X43433Y57225D02*
X42767D01*
Y56725D01*
X43100Y56892D01*
X43266D01*
X43433Y56725D01*
Y56392D01*
X43266Y56225D01*
X42933D01*
X42767Y56392D01*
X107208Y17350D02*
X106875D01*
X107042D01*
Y16517D01*
X106875Y16350D01*
X106709D01*
X106542Y16517D01*
X108041Y16350D02*
Y17350D01*
X107542Y16850D01*
X108208D01*
X42533Y17250D02*
X42200D01*
X42367D01*
Y16417D01*
X42200Y16250D01*
X42034D01*
X41867Y16417D01*
X42867Y17083D02*
X43033Y17250D01*
X43366D01*
X43533Y17083D01*
Y16917D01*
X43366Y16750D01*
X43200D01*
X43366D01*
X43533Y16583D01*
Y16417D01*
X43366Y16250D01*
X43033D01*
X42867Y16417D01*
X108616Y37083D02*
X108283D01*
X108450D01*
Y36250D01*
X108283Y36083D01*
X108117D01*
X107950Y36250D01*
X108950Y36083D02*
X109283D01*
X109116D01*
Y37083D01*
X108950Y36916D01*
X76742Y44542D02*
X76575Y44375D01*
Y44042D01*
X76742Y43875D01*
X77408D01*
X77575Y44042D01*
Y44375D01*
X77408Y44542D01*
X77575Y44875D02*
Y45208D01*
Y45042D01*
X76575D01*
X76742Y44875D01*
Y45708D02*
X76575Y45875D01*
Y46208D01*
X76742Y46375D01*
X76908D01*
X77075Y46208D01*
Y46041D01*
Y46208D01*
X77242Y46375D01*
X77408D01*
X77575Y46208D01*
Y45875D01*
X77408Y45708D01*
X65717Y44267D02*
X65550Y44100D01*
Y43767D01*
X65717Y43600D01*
X66383D01*
X66550Y43767D01*
Y44100D01*
X66383Y44267D01*
X66550Y44600D02*
Y44933D01*
Y44767D01*
X65550D01*
X65717Y44600D01*
X66550Y46100D02*
Y45433D01*
X65883Y46100D01*
X65717D01*
X65550Y45933D01*
Y45600D01*
X65717Y45433D01*
X81892Y42108D02*
X81725Y41942D01*
Y41609D01*
X81892Y41442D01*
X82558D01*
X82725Y41609D01*
Y41942D01*
X82558Y42108D01*
X82725Y42442D02*
Y42775D01*
Y42608D01*
X81725D01*
X81892Y42442D01*
X82725Y43275D02*
Y43608D01*
Y43441D01*
X81725D01*
X81892Y43275D01*
X62967Y40283D02*
X62800Y40450D01*
X62467D01*
X62300Y40283D01*
Y39617D01*
X62467Y39450D01*
X62800D01*
X62967Y39617D01*
X63300Y39450D02*
X63633D01*
X63467D01*
Y40450D01*
X63300Y40283D01*
X64133D02*
X64300Y40450D01*
X64633D01*
X64800Y40283D01*
Y39617D01*
X64633Y39450D01*
X64300D01*
X64133Y39617D01*
Y40283D01*
X65692Y35408D02*
X65525Y35242D01*
Y34909D01*
X65692Y34742D01*
X66358D01*
X66525Y34909D01*
Y35242D01*
X66358Y35408D01*
Y35742D02*
X66525Y35908D01*
Y36241D01*
X66358Y36408D01*
X65692D01*
X65525Y36241D01*
Y35908D01*
X65692Y35742D01*
X65858D01*
X66025Y35908D01*
Y36408D01*
X75267Y46433D02*
X75100Y46267D01*
Y45934D01*
X75267Y45767D01*
X75933D01*
X76100Y45934D01*
Y46267D01*
X75933Y46433D01*
X75267Y46767D02*
X75100Y46933D01*
Y47266D01*
X75267Y47433D01*
X75433D01*
X75600Y47266D01*
X75767Y47433D01*
X75933D01*
X76100Y47266D01*
Y46933D01*
X75933Y46767D01*
X75767D01*
X75600Y46933D01*
X75433Y46767D01*
X75267D01*
X75600Y46933D02*
Y47266D01*
X79683Y33658D02*
X79517Y33825D01*
X79184D01*
X79017Y33658D01*
Y32992D01*
X79184Y32825D01*
X79517D01*
X79683Y32992D01*
X80017Y33825D02*
X80683D01*
Y33658D01*
X80017Y32992D01*
Y32825D01*
X81033Y64583D02*
X80867Y64750D01*
X80534D01*
X80367Y64583D01*
Y63917D01*
X80534Y63750D01*
X80867D01*
X81033Y63917D01*
X82033Y64750D02*
X81700Y64583D01*
X81367Y64250D01*
Y63917D01*
X81533Y63750D01*
X81866D01*
X82033Y63917D01*
Y64083D01*
X81866Y64250D01*
X81367D01*
X81108Y63108D02*
X80942Y63275D01*
X80609D01*
X80442Y63108D01*
Y62442D01*
X80609Y62275D01*
X80942D01*
X81108Y62442D01*
X82108Y63275D02*
X81442D01*
Y62775D01*
X81775Y62942D01*
X81941D01*
X82108Y62775D01*
Y62442D01*
X81941Y62275D01*
X81608D01*
X81442Y62442D01*
X77767Y69564D02*
X77600Y69397D01*
Y69064D01*
X77767Y68897D01*
X78433D01*
X78600Y69064D01*
Y69397D01*
X78433Y69564D01*
X78600Y70397D02*
X77600D01*
X78100Y69897D01*
Y70563D01*
X65308Y62458D02*
X65142Y62625D01*
X64809D01*
X64642Y62458D01*
Y61792D01*
X64809Y61625D01*
X65142D01*
X65308Y61792D01*
X65642Y62458D02*
X65808Y62625D01*
X66141D01*
X66308Y62458D01*
Y62292D01*
X66141Y62125D01*
X65975D01*
X66141D01*
X66308Y61958D01*
Y61792D01*
X66141Y61625D01*
X65808D01*
X65642Y61792D01*
X65308Y60983D02*
X65142Y61150D01*
X64809D01*
X64642Y60983D01*
Y60317D01*
X64809Y60150D01*
X65142D01*
X65308Y60317D01*
X66308Y60150D02*
X65642D01*
X66308Y60817D01*
Y60983D01*
X66141Y61150D01*
X65808D01*
X65642Y60983D01*
X67217Y67225D02*
X67050Y67058D01*
Y66725D01*
X67217Y66559D01*
X67883D01*
X68050Y66725D01*
Y67058D01*
X67883Y67225D01*
X68050Y67558D02*
Y67891D01*
Y67725D01*
X67050D01*
X67217Y67558D01*
M02*
