G04*
G04 #@! TF.GenerationSoftware,Altium Limited,Altium Designer,23.0.1 (38)*
G04*
G04 Layer_Physical_Order=4*
G04 Layer_Color=16711680*
%FSLAX43Y43*%
%MOMM*%
G71*
G04*
G04 #@! TF.SameCoordinates,E6CB2E86-431E-4534-89A5-8C88B75FC072*
G04*
G04*
G04 #@! TF.FilePolarity,Positive*
G04*
G01*
G75*
%ADD46R,5.080X4.000*%
%ADD48C,1.000*%
%ADD49C,0.300*%
%ADD50C,0.500*%
%ADD51C,0.450*%
G36*
X114423Y79563D02*
X114530Y79519D01*
X114627Y79454D01*
X114710Y79371D01*
X114775Y79274D01*
X114819Y79167D01*
X114842Y79052D01*
Y78020D01*
X114844Y78010D01*
X114843Y78000D01*
X114847Y77902D01*
X114855Y77873D01*
Y77842D01*
X114893Y77650D01*
X114908Y77613D01*
X114916Y77574D01*
X114991Y77393D01*
X115014Y77359D01*
X115029Y77322D01*
X115138Y77159D01*
X115166Y77131D01*
X115189Y77097D01*
X115327Y76959D01*
X115361Y76936D01*
X115389Y76908D01*
X115552Y76799D01*
X115589Y76784D01*
X115623Y76761D01*
X115804Y76686D01*
X115843Y76678D01*
X115880Y76663D01*
X116072Y76625D01*
X116103D01*
X116132Y76617D01*
X116230Y76613D01*
X116240Y76614D01*
X116250Y76612D01*
X118759D01*
X118874Y76589D01*
X118981Y76545D01*
X119078Y76480D01*
X119161Y76397D01*
X119226Y76300D01*
X119270Y76193D01*
X119293Y76078D01*
Y76020D01*
Y65020D01*
Y64962D01*
X119270Y64847D01*
X119226Y64740D01*
X119161Y64643D01*
X119078Y64560D01*
X118981Y64495D01*
X118874Y64451D01*
X118759Y64428D01*
X116250D01*
X116240Y64426D01*
X116230Y64427D01*
X116132Y64423D01*
X116103Y64415D01*
X116072D01*
X115880Y64377D01*
X115843Y64362D01*
X115804Y64354D01*
X115623Y64279D01*
X115589Y64256D01*
X115552Y64241D01*
X115389Y64132D01*
X115361Y64104D01*
X115327Y64081D01*
X115189Y63943D01*
X115166Y63909D01*
X115138Y63881D01*
X115029Y63718D01*
X115014Y63681D01*
X114991Y63647D01*
X114916Y63466D01*
X114908Y63427D01*
X114893Y63390D01*
X114855Y63198D01*
Y63167D01*
X114847Y63138D01*
X114843Y63040D01*
X114844Y63030D01*
X114842Y63020D01*
Y37500D01*
X114844Y37490D01*
X114843Y37480D01*
X114847Y37382D01*
X114855Y37353D01*
Y37322D01*
X114893Y37130D01*
X114908Y37093D01*
X114916Y37054D01*
X114991Y36873D01*
X115014Y36839D01*
X115029Y36802D01*
X115138Y36639D01*
X115166Y36611D01*
X115189Y36577D01*
X115327Y36439D01*
X115361Y36416D01*
X115389Y36388D01*
X115552Y36279D01*
X115589Y36264D01*
X115623Y36241D01*
X115804Y36166D01*
X115843Y36158D01*
X115880Y36143D01*
X116072Y36105D01*
X116103D01*
X116132Y36097D01*
X116230Y36093D01*
X116240Y36094D01*
X116250Y36092D01*
X118759D01*
X118874Y36069D01*
X118981Y36025D01*
X119078Y35960D01*
X119161Y35877D01*
X119226Y35780D01*
X119270Y35673D01*
X119293Y35558D01*
Y35500D01*
Y24500D01*
Y24442D01*
X119270Y24327D01*
X119226Y24219D01*
X119161Y24123D01*
X119078Y24040D01*
X118981Y23975D01*
X118874Y23931D01*
X118759Y23908D01*
X116250D01*
X116240Y23906D01*
X116230Y23907D01*
X116132Y23903D01*
X116103Y23895D01*
X116072D01*
X115880Y23857D01*
X115843Y23842D01*
X115804Y23834D01*
X115623Y23759D01*
X115589Y23736D01*
X115552Y23721D01*
X115389Y23612D01*
X115361Y23584D01*
X115327Y23561D01*
X115189Y23423D01*
X115166Y23389D01*
X115138Y23361D01*
X115029Y23198D01*
X115014Y23161D01*
X114991Y23127D01*
X114916Y22946D01*
X114908Y22907D01*
X114893Y22870D01*
X114855Y22678D01*
Y22647D01*
X114847Y22618D01*
X114843Y22520D01*
X114844Y22510D01*
X114842Y22500D01*
Y994D01*
Y936D01*
X114819Y821D01*
X114775Y713D01*
X114710Y616D01*
X114627Y534D01*
X114531Y469D01*
X114423Y425D01*
X114308Y402D01*
X36192D01*
X36077Y425D01*
X35970Y469D01*
X35873Y534D01*
X35790Y616D01*
X35725Y713D01*
X35681Y821D01*
X35658Y936D01*
Y994D01*
Y21570D01*
X35656Y21580D01*
X35657Y21590D01*
X35653Y21688D01*
X35645Y21718D01*
Y21748D01*
X35607Y21940D01*
X35592Y21977D01*
X35584Y22017D01*
X35509Y22198D01*
X35486Y22231D01*
X35471Y22268D01*
X35362Y22431D01*
X35334Y22460D01*
X35311Y22493D01*
X35173Y22632D01*
X35139Y22654D01*
X35111Y22682D01*
X34948Y22791D01*
X34911Y22807D01*
X34877Y22829D01*
X34696Y22904D01*
X34657Y22912D01*
X34620Y22927D01*
X34428Y22965D01*
X34397D01*
X34368Y22973D01*
X34270Y22978D01*
X34260Y22976D01*
X34250Y22978D01*
X29192D01*
X29077Y23001D01*
X28969Y23046D01*
X28873Y23110D01*
X28790Y23193D01*
X28725Y23290D01*
X28681Y23398D01*
X28658Y23512D01*
Y23570D01*
Y36430D01*
Y36488D01*
X28681Y36602D01*
X28725Y36710D01*
X28790Y36807D01*
X28873Y36890D01*
X28969Y36954D01*
X29077Y36999D01*
X29192Y37022D01*
X34250D01*
X34260Y37024D01*
X34270Y37022D01*
X34368Y37027D01*
X34397Y37035D01*
X34428D01*
X34620Y37073D01*
X34657Y37088D01*
X34696Y37096D01*
X34877Y37171D01*
X34911Y37193D01*
X34948Y37209D01*
X35111Y37318D01*
X35139Y37346D01*
X35173Y37368D01*
X35311Y37507D01*
X35334Y37540D01*
X35362Y37569D01*
X35471Y37732D01*
X35486Y37769D01*
X35509Y37802D01*
X35584Y37983D01*
X35592Y38023D01*
X35607Y38060D01*
X35645Y38252D01*
Y38282D01*
X35653Y38312D01*
X35657Y38410D01*
X35656Y38420D01*
X35658Y38430D01*
Y61570D01*
X35656Y61580D01*
X35657Y61590D01*
X35653Y61688D01*
X35645Y61718D01*
Y61748D01*
X35607Y61940D01*
X35592Y61977D01*
X35584Y62017D01*
X35509Y62198D01*
X35486Y62231D01*
X35471Y62268D01*
X35362Y62431D01*
X35334Y62460D01*
X35311Y62493D01*
X35173Y62632D01*
X35139Y62654D01*
X35111Y62682D01*
X34948Y62791D01*
X34911Y62807D01*
X34877Y62829D01*
X34696Y62904D01*
X34657Y62912D01*
X34620Y62927D01*
X34428Y62965D01*
X34397D01*
X34368Y62973D01*
X34270Y62978D01*
X34260Y62976D01*
X34250Y62978D01*
X29192D01*
X29077Y63001D01*
X28969Y63046D01*
X28873Y63110D01*
X28790Y63193D01*
X28725Y63290D01*
X28681Y63398D01*
X28658Y63512D01*
Y63570D01*
Y76430D01*
Y76488D01*
X28681Y76602D01*
X28725Y76710D01*
X28790Y76807D01*
X28873Y76890D01*
X28969Y76954D01*
X29077Y76999D01*
X29192Y77022D01*
X34250D01*
X34260Y77024D01*
X34270Y77022D01*
X34368Y77027D01*
X34397Y77035D01*
X34428D01*
X34620Y77073D01*
X34657Y77088D01*
X34696Y77096D01*
X34877Y77171D01*
X34911Y77193D01*
X34948Y77209D01*
X35111Y77318D01*
X35139Y77346D01*
X35173Y77368D01*
X35311Y77507D01*
X35334Y77540D01*
X35362Y77569D01*
X35471Y77732D01*
X35486Y77769D01*
X35509Y77802D01*
X35584Y77983D01*
X35592Y78023D01*
X35607Y78060D01*
X35645Y78252D01*
Y78282D01*
X35653Y78312D01*
X35657Y78410D01*
X35656Y78420D01*
X35658Y78430D01*
Y79052D01*
X35681Y79167D01*
X35725Y79274D01*
X35790Y79371D01*
X35873Y79454D01*
X35970Y79519D01*
X36077Y79563D01*
X36192Y79586D01*
X114308D01*
X114423Y79563D01*
D02*
G37*
%LPC*%
G36*
X58493Y78134D02*
X58302D01*
X58126Y78061D01*
X57992Y77927D01*
X57919Y77751D01*
Y77560D01*
X57992Y77384D01*
X58023Y77353D01*
X58026Y77337D01*
X58028Y77313D01*
X58035Y77298D01*
X58039Y77282D01*
X58053Y77263D01*
X58063Y77241D01*
X58075Y77231D01*
X58085Y77217D01*
X58093Y77212D01*
Y75857D01*
X58084Y75851D01*
X58083Y75850D01*
X58081Y75848D01*
X58060Y75817D01*
X58038Y75786D01*
X58038Y75784D01*
X58037Y75782D01*
X58029Y75745D01*
X58023Y75717D01*
X57969Y75663D01*
X57896Y75487D01*
Y75297D01*
X57969Y75121D01*
X57980Y75109D01*
X57927Y74982D01*
X43465D01*
X43465Y74982D01*
X43357Y74961D01*
X43265Y74900D01*
X43265Y74900D01*
X40164Y71799D01*
X40154Y71801D01*
X40152Y71800D01*
X40150Y71801D01*
X40112Y71793D01*
X40075Y71787D01*
X40074Y71786D01*
X40072Y71785D01*
X40040Y71764D01*
X40016Y71749D01*
X39940D01*
X39763Y71676D01*
X39629Y71541D01*
X39556Y71365D01*
Y71175D01*
X39629Y70999D01*
X39763Y70864D01*
X39940Y70791D01*
X40130D01*
X40306Y70864D01*
X40441Y70999D01*
X40514Y71175D01*
Y71252D01*
X40528Y71274D01*
X40550Y71307D01*
X40550Y71307D01*
X40550Y71308D01*
X40558Y71346D01*
X40566Y71385D01*
X40566Y71385D01*
X40566Y71386D01*
X40563Y71399D01*
X43582Y74418D01*
X68710D01*
X68805Y74291D01*
X68799Y74269D01*
X68796Y74263D01*
X68764Y74241D01*
X68731Y74219D01*
X68731Y74219D01*
X68730Y74219D01*
X68723Y74207D01*
X45215D01*
X45215Y74207D01*
X45106Y74186D01*
X45015Y74125D01*
X40149Y69259D01*
X40138Y69261D01*
X40136Y69260D01*
X40134Y69261D01*
X40097Y69253D01*
X40060Y69247D01*
X40058Y69246D01*
X40056Y69245D01*
X40025Y69224D01*
X40001Y69209D01*
X39924D01*
X39748Y69136D01*
X39613Y69001D01*
X39541Y68825D01*
Y68635D01*
X39593Y68508D01*
X39525Y68381D01*
X37474D01*
X36673Y69182D01*
X36465Y69321D01*
X36221Y69369D01*
X33010D01*
X32765Y69321D01*
X32558Y69182D01*
X32528Y69137D01*
X32401Y69175D01*
Y69851D01*
X33537Y70988D01*
X35747D01*
X35753Y70979D01*
X35754Y70978D01*
X35756Y70976D01*
X35787Y70955D01*
X35818Y70933D01*
X35820Y70933D01*
X35822Y70932D01*
X35859Y70924D01*
X35887Y70918D01*
X35941Y70864D01*
X36117Y70791D01*
X36307D01*
X36483Y70864D01*
X36618Y70999D01*
X36691Y71175D01*
Y71365D01*
X36618Y71541D01*
X36483Y71676D01*
X36307Y71749D01*
X36117D01*
X35941Y71676D01*
X35886Y71621D01*
X35861Y71616D01*
X35822Y71608D01*
X35821Y71608D01*
X35821Y71608D01*
X35788Y71586D01*
X35756Y71564D01*
X35755Y71564D01*
X35755Y71564D01*
X35748Y71552D01*
X33420D01*
X33420Y71552D01*
X33312Y71531D01*
X33220Y71470D01*
X33220Y71470D01*
X32034Y70284D01*
X31907Y70336D01*
Y70983D01*
X34452Y73528D01*
X35719D01*
X35725Y73519D01*
X35727Y73518D01*
X35728Y73516D01*
X35759Y73495D01*
X35790Y73473D01*
X35792Y73473D01*
X35794Y73472D01*
X35831Y73464D01*
X35859Y73458D01*
X35913Y73404D01*
X36089Y73331D01*
X36280D01*
X36456Y73404D01*
X36590Y73539D01*
X36663Y73715D01*
Y73905D01*
X36590Y74081D01*
X36456Y74216D01*
X36280Y74289D01*
X36089D01*
X35913Y74216D01*
X35858Y74161D01*
X35833Y74156D01*
X35794Y74148D01*
X35794Y74148D01*
X35793Y74148D01*
X35761Y74126D01*
X35728Y74104D01*
X35728Y74104D01*
X35727Y74104D01*
X35720Y74092D01*
X34335D01*
X34227Y74071D01*
X34135Y74010D01*
X34135Y74010D01*
X31425Y71300D01*
X31364Y71208D01*
X31343Y71100D01*
X31343Y71100D01*
Y68106D01*
X31216Y68072D01*
X31149Y68188D01*
X30928Y68408D01*
X30658Y68564D01*
X30357Y68645D01*
X30045D01*
X29743Y68564D01*
X29473Y68408D01*
X29253Y68188D01*
X29097Y67917D01*
X29016Y67616D01*
Y67304D01*
X29097Y67003D01*
X29253Y66732D01*
X29473Y66512D01*
X29743Y66356D01*
X30045Y66275D01*
X30357D01*
X30658Y66356D01*
X30928Y66512D01*
X31149Y66732D01*
X31216Y66848D01*
X31343Y66814D01*
Y65230D01*
X31343Y65230D01*
X31364Y65122D01*
X31425Y65030D01*
X33005Y63450D01*
X33097Y63389D01*
X33205Y63368D01*
X36858D01*
X42718Y57508D01*
Y40743D01*
X36313Y34339D01*
X36303Y34341D01*
X36301Y34340D01*
X36299Y34341D01*
X36262Y34333D01*
X36225Y34327D01*
X36223Y34326D01*
X36221Y34325D01*
X36190Y34304D01*
X36166Y34289D01*
X36089D01*
X35913Y34216D01*
X35778Y34081D01*
X35705Y33905D01*
Y33715D01*
X35778Y33539D01*
X35913Y33404D01*
X36089Y33331D01*
X36280D01*
X36456Y33404D01*
X36590Y33539D01*
X36663Y33715D01*
Y33792D01*
X36678Y33814D01*
X36700Y33847D01*
X36700Y33847D01*
X36700Y33848D01*
X36708Y33886D01*
X36715Y33925D01*
X36715Y33925D01*
X36715Y33926D01*
X36713Y33939D01*
X43200Y40426D01*
X43200Y40426D01*
X43261Y40518D01*
X43282Y40626D01*
Y57625D01*
X43282Y57625D01*
X43261Y57733D01*
X43200Y57825D01*
X43200Y57825D01*
X37175Y63850D01*
X37083Y63911D01*
X36975Y63932D01*
X36975Y63932D01*
X33322D01*
X33154Y64100D01*
X33202Y64218D01*
X37844D01*
X44282Y57780D01*
Y40557D01*
X36012Y32287D01*
X35951Y32195D01*
X35930Y32087D01*
X35930Y32087D01*
Y31735D01*
X35921Y31729D01*
X35920Y31728D01*
X35918Y31727D01*
X35897Y31695D01*
X35875Y31664D01*
X35875Y31662D01*
X35874Y31660D01*
X35866Y31623D01*
X35860Y31596D01*
X35806Y31541D01*
X35733Y31365D01*
Y31175D01*
X35806Y30999D01*
X35941Y30864D01*
X36117Y30791D01*
X36307D01*
X36483Y30864D01*
X36618Y30999D01*
X36691Y31175D01*
Y31365D01*
X36618Y31541D01*
X36563Y31596D01*
X36558Y31622D01*
X36551Y31660D01*
X36550Y31661D01*
X36550Y31661D01*
X36528Y31694D01*
X36506Y31727D01*
X36506Y31727D01*
X36506Y31727D01*
X36495Y31735D01*
Y31970D01*
X44764Y40240D01*
X44825Y40331D01*
X44847Y40440D01*
X44847Y40440D01*
Y57897D01*
X44825Y58005D01*
X44764Y58097D01*
X44764Y58097D01*
X43072Y59789D01*
X43144Y59897D01*
X43180Y59882D01*
X43246D01*
X43265Y59869D01*
X43293Y59848D01*
X43298Y59847D01*
X43302Y59845D01*
X43337Y59838D01*
X43371Y59829D01*
X43375Y59830D01*
X43380Y59829D01*
X43394Y59832D01*
X45643Y57583D01*
Y39808D01*
X40173Y34339D01*
X40163Y34341D01*
X40161Y34340D01*
X40159Y34341D01*
X40122Y34333D01*
X40085Y34327D01*
X40083Y34326D01*
X40081Y34325D01*
X40050Y34304D01*
X40026Y34289D01*
X39949D01*
X39773Y34216D01*
X39638Y34081D01*
X39565Y33905D01*
Y33715D01*
X39638Y33539D01*
X39773Y33404D01*
X39949Y33331D01*
X40140D01*
X40316Y33404D01*
X40450Y33539D01*
X40523Y33715D01*
Y33792D01*
X40538Y33814D01*
X40560Y33847D01*
X40560Y33847D01*
X40560Y33848D01*
X40568Y33886D01*
X40575Y33925D01*
X40575Y33925D01*
X40575Y33926D01*
X40572Y33939D01*
X46125Y39491D01*
X46125Y39491D01*
X46186Y39583D01*
X46207Y39691D01*
X46207Y39691D01*
Y57700D01*
X46186Y57808D01*
X46125Y57900D01*
X43804Y60221D01*
X43805Y60227D01*
X43805Y60231D01*
X43805Y60235D01*
X43799Y60270D01*
X43793Y60305D01*
X43803Y60343D01*
X43805Y60350D01*
X43943Y60382D01*
X43957Y60378D01*
X47018Y57317D01*
Y38652D01*
X40164Y31799D01*
X40154Y31801D01*
X40152Y31800D01*
X40150Y31801D01*
X40112Y31793D01*
X40075Y31787D01*
X40074Y31786D01*
X40072Y31785D01*
X40040Y31764D01*
X40016Y31749D01*
X39940D01*
X39763Y31676D01*
X39629Y31541D01*
X39556Y31365D01*
Y31175D01*
X39629Y30999D01*
X39763Y30864D01*
X39940Y30791D01*
X40130D01*
X40306Y30864D01*
X40441Y30999D01*
X40514Y31175D01*
Y31252D01*
X40528Y31274D01*
X40550Y31307D01*
X40550Y31307D01*
X40550Y31308D01*
X40558Y31346D01*
X40566Y31385D01*
X40566Y31385D01*
X40566Y31386D01*
X40563Y31399D01*
X47500Y38335D01*
X47561Y38427D01*
X47582Y38535D01*
X47582Y38535D01*
Y57434D01*
X47561Y57542D01*
X47500Y57634D01*
X47500Y57634D01*
X43154Y61980D01*
X43156Y61990D01*
X43155Y61992D01*
X43156Y61994D01*
X43148Y62031D01*
X43142Y62068D01*
X43141Y62070D01*
X43140Y62072D01*
X43119Y62104D01*
X43104Y62128D01*
Y62204D01*
X43031Y62380D01*
X42896Y62515D01*
X42720Y62588D01*
X42530D01*
X42354Y62515D01*
X42219Y62380D01*
X42146Y62204D01*
Y62014D01*
X42219Y61838D01*
X42354Y61703D01*
X42530Y61630D01*
X42607D01*
X42629Y61615D01*
X42662Y61594D01*
X42662Y61594D01*
X42663Y61593D01*
X42701Y61586D01*
X42740Y61578D01*
X42740Y61578D01*
X42741Y61578D01*
X42754Y61581D01*
X43368Y60967D01*
X43315Y60840D01*
X43180D01*
X43004Y60767D01*
X42869Y60632D01*
X42796Y60456D01*
Y60265D01*
X42812Y60229D01*
X42704Y60157D01*
X38161Y64700D01*
X38069Y64761D01*
X37961Y64782D01*
X37961Y64782D01*
X33108D01*
X32401Y65490D01*
Y65745D01*
X32528Y65783D01*
X32558Y65738D01*
X32765Y65599D01*
X33010Y65551D01*
X37620D01*
X38423Y64748D01*
X38630Y64609D01*
X38875Y64561D01*
X38875Y64561D01*
X41495D01*
X41548Y64434D01*
X41533Y64419D01*
X41460Y64243D01*
Y64052D01*
X41533Y63876D01*
X41667Y63741D01*
X41843Y63668D01*
X41921D01*
X41943Y63654D01*
X41976Y63632D01*
X41976Y63632D01*
X41976Y63632D01*
X42015Y63624D01*
X42054Y63616D01*
X42054Y63617D01*
X42054Y63616D01*
X42068Y63619D01*
X48550Y57137D01*
Y37659D01*
X40149Y29259D01*
X40138Y29261D01*
X40136Y29260D01*
X40134Y29261D01*
X40097Y29253D01*
X40060Y29247D01*
X40058Y29246D01*
X40056Y29245D01*
X40025Y29224D01*
X40001Y29209D01*
X39924D01*
X39748Y29136D01*
X39613Y29001D01*
X39541Y28825D01*
Y28635D01*
X39613Y28459D01*
X39615Y28457D01*
X39567Y28339D01*
X37515D01*
X36673Y29182D01*
X36465Y29321D01*
X36221Y29369D01*
X33010D01*
X32765Y29321D01*
X32558Y29182D01*
X32419Y28975D01*
X32371Y28730D01*
X32419Y28485D01*
X32558Y28278D01*
X32765Y28139D01*
X33010Y28091D01*
X35956D01*
X36799Y27248D01*
X37006Y27109D01*
X37251Y27061D01*
X41200D01*
X41445Y27109D01*
X41652Y27248D01*
X51002Y36598D01*
X51141Y36805D01*
X51189Y37050D01*
Y62256D01*
Y63050D01*
X51141Y63295D01*
X51002Y63502D01*
X50795Y63641D01*
X50550Y63689D01*
X50305Y63641D01*
X50098Y63502D01*
X49959Y63295D01*
X49911Y63050D01*
Y62256D01*
Y37315D01*
X40935Y28339D01*
X40472D01*
X40424Y28457D01*
X40426Y28459D01*
X40499Y28635D01*
Y28712D01*
X40513Y28734D01*
X40535Y28767D01*
X40535Y28767D01*
X40535Y28768D01*
X40543Y28806D01*
X40550Y28845D01*
X40550Y28845D01*
X40550Y28846D01*
X40548Y28859D01*
X49032Y37343D01*
X49093Y37434D01*
X49114Y37542D01*
X49114Y37542D01*
Y57254D01*
X49114Y57254D01*
X49093Y57362D01*
X49032Y57454D01*
X49032Y57454D01*
X42467Y64018D01*
X42470Y64029D01*
X42469Y64031D01*
X42470Y64033D01*
X42462Y64070D01*
X42456Y64107D01*
X42454Y64109D01*
X42454Y64111D01*
X42433Y64142D01*
X42418Y64166D01*
Y64243D01*
X42345Y64419D01*
X42330Y64434D01*
X42382Y64561D01*
X51802D01*
X51819Y64548D01*
X51837Y64531D01*
X51850Y64525D01*
X51862Y64516D01*
X51887Y64510D01*
X51910Y64500D01*
X51925Y64500D01*
X51939Y64496D01*
X52117Y64487D01*
X52260Y64462D01*
X52379Y64422D01*
X52476Y64370D01*
X52555Y64305D01*
X52620Y64226D01*
X52672Y64129D01*
X52712Y64010D01*
X52737Y63867D01*
X52746Y63689D01*
X52755Y63656D01*
X52762Y63622D01*
X52765Y63617D01*
X52766Y63612D01*
X52787Y63585D01*
X52806Y63556D01*
X52810Y63553D01*
X52811Y63552D01*
Y37165D01*
X41160Y25514D01*
X37815D01*
X36687Y26642D01*
X36480Y26781D01*
X36235Y26829D01*
X33010D01*
X32765Y26781D01*
X32558Y26642D01*
X32419Y26435D01*
X32371Y26190D01*
X32419Y25945D01*
X32558Y25738D01*
X32765Y25599D01*
X33010Y25551D01*
X35970D01*
X37098Y24423D01*
X37305Y24284D01*
X37550Y24236D01*
X41425D01*
X41670Y24284D01*
X41877Y24423D01*
X53902Y36448D01*
X54041Y36655D01*
X54089Y36900D01*
Y63552D01*
X54090Y63553D01*
X54094Y63556D01*
X54113Y63584D01*
X54134Y63612D01*
X54135Y63617D01*
X54138Y63622D01*
X54145Y63656D01*
X54154Y63689D01*
X54163Y63867D01*
X54188Y64010D01*
X54228Y64129D01*
X54280Y64226D01*
X54345Y64305D01*
X54424Y64370D01*
X54521Y64422D01*
X54640Y64462D01*
X54783Y64487D01*
X54961Y64496D01*
X54975Y64500D01*
X54990Y64500D01*
X55013Y64510D01*
X55038Y64516D01*
X55050Y64525D01*
X55063Y64531D01*
X55081Y64548D01*
X55098Y64561D01*
X65683D01*
X65700Y64564D01*
X65716Y64561D01*
X97359D01*
X97376Y64548D01*
X97394Y64531D01*
X97407Y64525D01*
X97419Y64516D01*
X97444Y64510D01*
X97467Y64500D01*
X97482Y64500D01*
X97496Y64496D01*
X97674Y64487D01*
X97817Y64462D01*
X97936Y64422D01*
X98033Y64370D01*
X98112Y64305D01*
X98177Y64226D01*
X98229Y64129D01*
X98269Y64010D01*
X98294Y63867D01*
X98303Y63689D01*
X98312Y63656D01*
X98319Y63622D01*
X98322Y63617D01*
X98323Y63612D01*
X98344Y63585D01*
X98363Y63556D01*
X98367Y63553D01*
X98368Y63552D01*
X98368Y32093D01*
X98416Y31848D01*
X98555Y31641D01*
X105923Y24273D01*
X106130Y24134D01*
X106375Y24086D01*
X110251D01*
X110495Y24134D01*
X110703Y24273D01*
X111981Y25551D01*
X114517D01*
X114762Y25599D01*
X114969Y25738D01*
X115108Y25945D01*
X115156Y26190D01*
X115108Y26435D01*
X114969Y26642D01*
X114762Y26781D01*
X114517Y26829D01*
X111716D01*
X111471Y26781D01*
X111264Y26642D01*
X109986Y25364D01*
X106640D01*
X99646Y32358D01*
X99646Y63552D01*
X99647Y63553D01*
X99651Y63556D01*
X99670Y63584D01*
X99691Y63612D01*
X99692Y63617D01*
X99695Y63622D01*
X99702Y63656D01*
X99711Y63689D01*
X99720Y63867D01*
X99745Y64010D01*
X99785Y64129D01*
X99837Y64226D01*
X99902Y64305D01*
X99981Y64370D01*
X100078Y64422D01*
X100197Y64462D01*
X100340Y64487D01*
X100518Y64496D01*
X100532Y64500D01*
X100547Y64500D01*
X100570Y64510D01*
X100595Y64516D01*
X100607Y64525D01*
X100620Y64531D01*
X100638Y64548D01*
X100655Y64561D01*
X110088D01*
X110332Y64609D01*
X110540Y64748D01*
X111863Y66071D01*
X114530D01*
X114774Y66119D01*
X114982Y66258D01*
X115120Y66465D01*
X115169Y66710D01*
X115120Y66955D01*
X114982Y67162D01*
X114774Y67301D01*
X114530Y67349D01*
X111598D01*
X111353Y67301D01*
X111146Y67162D01*
X109823Y65839D01*
X99166D01*
X99120Y65870D01*
X99084Y65885D01*
X99047Y65900D01*
X99047D01*
X99047Y65900D01*
X99008Y65900D01*
X98967Y65900D01*
X98967Y65900D01*
X98967D01*
X98931Y65885D01*
X98894Y65870D01*
X98848Y65839D01*
X65783D01*
X65700Y65856D01*
X65616Y65839D01*
X53609D01*
X53563Y65870D01*
X53527Y65885D01*
X53490Y65900D01*
X53490D01*
X53490Y65900D01*
X53451Y65900D01*
X53410Y65900D01*
X53410Y65900D01*
X53410D01*
X53374Y65885D01*
X53337Y65870D01*
X53291Y65839D01*
X39140D01*
X38337Y66642D01*
X38130Y66781D01*
X37885Y66829D01*
X33010D01*
X32765Y66781D01*
X32558Y66642D01*
X32528Y66597D01*
X32401Y66635D01*
Y68285D01*
X32528Y68323D01*
X32558Y68278D01*
X32765Y68139D01*
X33010Y68091D01*
X35956D01*
X36757Y67290D01*
X36964Y67151D01*
X37209Y67102D01*
X45746D01*
X45990Y67151D01*
X46198Y67290D01*
X46336Y67497D01*
X46385Y67742D01*
X46336Y67986D01*
X46198Y68194D01*
X45990Y68332D01*
X45746Y68381D01*
X40514D01*
X40446Y68508D01*
X40499Y68635D01*
Y68712D01*
X40513Y68734D01*
X40535Y68767D01*
X40535Y68767D01*
X40535Y68768D01*
X40543Y68806D01*
X40550Y68845D01*
X40550Y68845D01*
X40550Y68846D01*
X40548Y68859D01*
X45332Y73643D01*
X68722D01*
X68728Y73634D01*
X68730Y73632D01*
X68731Y73631D01*
X68762Y73610D01*
X68793Y73588D01*
X68795Y73588D01*
X68797Y73587D01*
X68834Y73579D01*
X68862Y73573D01*
X68916Y73519D01*
X69092Y73446D01*
X69283D01*
X69459Y73519D01*
X69514Y73574D01*
X69539Y73579D01*
X69578Y73587D01*
X69578Y73587D01*
X69579Y73587D01*
X69611Y73609D01*
X69644Y73631D01*
X69644Y73631D01*
X69645Y73631D01*
X69652Y73643D01*
X103139D01*
X107403Y69379D01*
X107400Y69369D01*
X107401Y69367D01*
X107400Y69365D01*
X107408Y69328D01*
X107414Y69290D01*
X107416Y69289D01*
X107416Y69287D01*
X107437Y69255D01*
X107452Y69231D01*
Y69155D01*
X107525Y68979D01*
X107660Y68844D01*
X107836Y68771D01*
X108027D01*
X108203Y68844D01*
X108337Y68979D01*
X108410Y69155D01*
Y69345D01*
X108337Y69521D01*
X108203Y69656D01*
X108027Y69729D01*
X107949D01*
X107927Y69744D01*
X107895Y69765D01*
X107894Y69765D01*
X107894Y69766D01*
X107855Y69773D01*
X107816Y69781D01*
X107816Y69781D01*
X107816Y69781D01*
X107803Y69778D01*
X103456Y74125D01*
X103364Y74186D01*
X103256Y74207D01*
X103256Y74207D01*
X75034D01*
X75031Y74209D01*
X74959Y74334D01*
X74983Y74375D01*
X74985Y74377D01*
X75018Y74399D01*
X75050Y74421D01*
X75051Y74421D01*
X75051Y74421D01*
X75058Y74433D01*
X89753D01*
X89753Y74433D01*
X89861Y74454D01*
X89918Y74493D01*
X104814D01*
X107387Y71919D01*
X107385Y71909D01*
X107386Y71907D01*
X107385Y71905D01*
X107393Y71868D01*
X107399Y71830D01*
X107400Y71829D01*
X107401Y71827D01*
X107422Y71795D01*
X107437Y71771D01*
Y71695D01*
X107510Y71519D01*
X107645Y71384D01*
X107821Y71311D01*
X108011D01*
X108187Y71384D01*
X108322Y71519D01*
X108395Y71695D01*
Y71885D01*
X108322Y72061D01*
X108187Y72196D01*
X108011Y72269D01*
X107934D01*
X107912Y72284D01*
X107879Y72305D01*
X107879Y72305D01*
X107878Y72306D01*
X107840Y72313D01*
X107801Y72321D01*
X107801Y72321D01*
X107800Y72321D01*
X107787Y72318D01*
X105131Y74975D01*
X105039Y75036D01*
X104931Y75057D01*
X104931Y75057D01*
X89813D01*
X89813Y75057D01*
X89705Y75036D01*
X89647Y74997D01*
X75059D01*
X75053Y75006D01*
X75051Y75007D01*
X75050Y75009D01*
X75019Y75030D01*
X74988Y75052D01*
X74986Y75052D01*
X74984Y75053D01*
X74947Y75061D01*
X74919Y75067D01*
X74865Y75121D01*
X74689Y75194D01*
X74498D01*
X74322Y75121D01*
X74254Y75053D01*
X74252Y75053D01*
X74222Y75044D01*
X74190Y75038D01*
X74184Y75033D01*
X74176Y75031D01*
X74151Y75011D01*
X74125Y74993D01*
X74120Y74986D01*
X74115Y74982D01*
X64274D01*
X64209Y75109D01*
X64263Y75240D01*
Y75430D01*
X64190Y75606D01*
X64135Y75661D01*
X64130Y75687D01*
X64122Y75726D01*
X64122Y75726D01*
X64122Y75726D01*
X64100Y75759D01*
X64078Y75792D01*
X64077Y75792D01*
X64077Y75792D01*
X64066Y75800D01*
Y76360D01*
X64075Y76366D01*
X64076Y76367D01*
X64078Y76368D01*
X64099Y76400D01*
X64120Y76431D01*
X64121Y76433D01*
X64122Y76435D01*
X64129Y76472D01*
X64135Y76499D01*
X64190Y76554D01*
X64263Y76730D01*
Y76920D01*
X64190Y77096D01*
X64055Y77231D01*
X63879Y77304D01*
X63688D01*
X63512Y77231D01*
X63378Y77096D01*
X63305Y76920D01*
Y76730D01*
X63378Y76554D01*
X63432Y76499D01*
X63437Y76473D01*
X63445Y76435D01*
X63445Y76434D01*
X63446Y76434D01*
X63467Y76401D01*
X63489Y76368D01*
X63490Y76368D01*
X63490Y76368D01*
X63501Y76360D01*
Y75800D01*
X63492Y75795D01*
X63491Y75793D01*
X63489Y75792D01*
X63468Y75760D01*
X63447Y75729D01*
X63446Y75727D01*
X63445Y75726D01*
X63438Y75688D01*
X63432Y75661D01*
X63378Y75606D01*
X63305Y75430D01*
Y75240D01*
X63359Y75109D01*
X63293Y74982D01*
X58823D01*
X58770Y75109D01*
X58781Y75121D01*
X58854Y75297D01*
Y75487D01*
X58781Y75663D01*
X58726Y75718D01*
X58721Y75743D01*
X58713Y75782D01*
X58713Y75783D01*
X58713Y75783D01*
X58691Y75816D01*
X58669Y75848D01*
X58669Y75849D01*
X58669Y75849D01*
X58657Y75856D01*
Y77173D01*
X58666Y77178D01*
X58683Y77202D01*
X58702Y77224D01*
X58705Y77234D01*
X58712Y77244D01*
X58718Y77272D01*
X58727Y77299D01*
X58727Y77307D01*
X58804Y77384D01*
X58877Y77560D01*
Y77751D01*
X58804Y77927D01*
X58669Y78061D01*
X58493Y78134D01*
D02*
G37*
G36*
X80093Y73254D02*
X79902D01*
X79726Y73181D01*
X79591Y73046D01*
X79518Y72870D01*
Y72680D01*
X79591Y72504D01*
X79726Y72369D01*
X79902Y72296D01*
X80093D01*
X80269Y72369D01*
X80403Y72504D01*
X80476Y72680D01*
Y72870D01*
X80403Y73046D01*
X80269Y73181D01*
X80093Y73254D01*
D02*
G37*
G36*
X63877D02*
X63686D01*
X63510Y73181D01*
X63375Y73046D01*
X63302Y72870D01*
Y72680D01*
X63375Y72504D01*
X63510Y72369D01*
X63686Y72296D01*
X63877D01*
X64053Y72369D01*
X64187Y72504D01*
X64260Y72680D01*
Y72870D01*
X64187Y73046D01*
X64053Y73181D01*
X63877Y73254D01*
D02*
G37*
G36*
X58470D02*
X58280D01*
X58104Y73181D01*
X57969Y73046D01*
X57896Y72870D01*
Y72680D01*
X57969Y72504D01*
X58104Y72369D01*
X58280Y72296D01*
X58470D01*
X58646Y72369D01*
X58781Y72504D01*
X58854Y72680D01*
Y72870D01*
X58781Y73046D01*
X58646Y73181D01*
X58470Y73254D01*
D02*
G37*
G36*
X30357Y73725D02*
X30045D01*
X29743Y73644D01*
X29473Y73488D01*
X29253Y73268D01*
X29097Y72997D01*
X29016Y72696D01*
Y72384D01*
X29097Y72083D01*
X29253Y71812D01*
X29473Y71592D01*
X29743Y71436D01*
X30045Y71355D01*
X30357D01*
X30658Y71436D01*
X30928Y71592D01*
X31149Y71812D01*
X31305Y72083D01*
X31386Y72384D01*
Y72696D01*
X31305Y72997D01*
X31149Y73268D01*
X30928Y73488D01*
X30658Y73644D01*
X30357Y73725D01*
D02*
G37*
G36*
X101285Y72970D02*
X100965D01*
X100652Y72908D01*
X100358Y72786D01*
X100092Y72608D01*
X99867Y72383D01*
X99689Y72117D01*
X99567Y71823D01*
X99505Y71510D01*
Y71190D01*
X99567Y70877D01*
X99689Y70583D01*
X99867Y70317D01*
X100092Y70092D01*
X100358Y69914D01*
X100652Y69792D01*
X100965Y69730D01*
X101285D01*
X101598Y69792D01*
X101892Y69914D01*
X102158Y70092D01*
X102383Y70317D01*
X102561Y70583D01*
X102683Y70877D01*
X102745Y71190D01*
Y71510D01*
X102683Y71823D01*
X102561Y72117D01*
X102383Y72383D01*
X102158Y72608D01*
X101892Y72786D01*
X101598Y72908D01*
X101285Y72970D01*
D02*
G37*
G36*
X47485D02*
X47165D01*
X46852Y72908D01*
X46558Y72786D01*
X46292Y72608D01*
X46067Y72383D01*
X45889Y72117D01*
X45767Y71823D01*
X45705Y71510D01*
Y71190D01*
X45767Y70877D01*
X45889Y70583D01*
X46067Y70317D01*
X46292Y70092D01*
X46558Y69914D01*
X46852Y69792D01*
X47165Y69730D01*
X47485D01*
X47798Y69792D01*
X48092Y69914D01*
X48358Y70092D01*
X48583Y70317D01*
X48761Y70583D01*
X48883Y70877D01*
X48945Y71190D01*
Y71510D01*
X48883Y71823D01*
X48761Y72117D01*
X48583Y72383D01*
X48358Y72608D01*
X48092Y72786D01*
X47798Y72908D01*
X47485Y72970D01*
D02*
G37*
G36*
X80660Y68221D02*
X80469D01*
X80293Y68148D01*
X80159Y68013D01*
X80086Y67837D01*
Y67646D01*
X80159Y67470D01*
X80293Y67336D01*
X80469Y67263D01*
X80660D01*
X80836Y67336D01*
X80971Y67470D01*
X81044Y67646D01*
Y67837D01*
X80971Y68013D01*
X80836Y68148D01*
X80660Y68221D01*
D02*
G37*
G36*
X114530Y69889D02*
X111730D01*
X111485Y69841D01*
X111278Y69702D01*
X109957Y68381D01*
X100975D01*
X100730Y68332D01*
X100523Y68194D01*
X100384Y67986D01*
X100336Y67742D01*
X100384Y67497D01*
X100523Y67290D01*
X100730Y67151D01*
X100975Y67102D01*
X110222D01*
X110467Y67151D01*
X110674Y67290D01*
X111995Y68611D01*
X114530D01*
X114774Y68659D01*
X114982Y68798D01*
X115120Y69005D01*
X115169Y69250D01*
X115120Y69495D01*
X114982Y69702D01*
X114774Y69841D01*
X114530Y69889D01*
D02*
G37*
G36*
X111862Y74809D02*
X111671D01*
X111495Y74736D01*
X111360Y74601D01*
X111287Y74425D01*
Y74235D01*
X111360Y74059D01*
X111495Y73924D01*
X111671Y73851D01*
X111862D01*
X112038Y73924D01*
X112093Y73979D01*
X112118Y73984D01*
X112157Y73992D01*
X112157Y73992D01*
X112158Y73992D01*
X112190Y74014D01*
X112223Y74036D01*
X112223Y74036D01*
X112224Y74036D01*
X112231Y74048D01*
X114953D01*
X117168Y71833D01*
Y67392D01*
X116606Y66830D01*
X116575Y66835D01*
X116482Y66886D01*
Y69725D01*
X116461Y69833D01*
X116400Y69925D01*
X114335Y71990D01*
X114243Y72051D01*
X114135Y72072D01*
X114135Y72072D01*
X112204D01*
X112198Y72081D01*
X112196Y72082D01*
X112195Y72084D01*
X112164Y72105D01*
X112133Y72127D01*
X112131Y72127D01*
X112129Y72128D01*
X112092Y72136D01*
X112064Y72142D01*
X112010Y72196D01*
X111834Y72269D01*
X111643D01*
X111467Y72196D01*
X111333Y72061D01*
X111260Y71885D01*
Y71695D01*
X111333Y71519D01*
X111467Y71384D01*
X111643Y71311D01*
X111834D01*
X112010Y71384D01*
X112065Y71439D01*
X112090Y71444D01*
X112129Y71452D01*
X112129Y71452D01*
X112130Y71452D01*
X112162Y71474D01*
X112195Y71496D01*
X112195Y71496D01*
X112196Y71496D01*
X112203Y71508D01*
X114018D01*
X115918Y69608D01*
Y66967D01*
X106258Y57308D01*
X106197Y57216D01*
X106176Y57108D01*
X106176Y57108D01*
Y44017D01*
X106176Y44017D01*
X106197Y43909D01*
X106258Y43817D01*
X110493Y39583D01*
Y32234D01*
X110493Y32234D01*
X110514Y32126D01*
X110575Y32034D01*
X111210Y31399D01*
X111208Y31389D01*
X111208Y31387D01*
X111208Y31385D01*
X111215Y31348D01*
X111222Y31310D01*
X111223Y31309D01*
X111223Y31307D01*
X111244Y31275D01*
X111260Y31251D01*
Y31175D01*
X111333Y30999D01*
X111467Y30864D01*
X111643Y30791D01*
X111834D01*
X112010Y30864D01*
X112145Y30999D01*
X112218Y31175D01*
Y31365D01*
X112145Y31541D01*
X112010Y31676D01*
X111834Y31749D01*
X111756D01*
X111734Y31764D01*
X111702Y31785D01*
X111701Y31785D01*
X111701Y31786D01*
X111662Y31793D01*
X111624Y31801D01*
X111623Y31801D01*
X111623Y31801D01*
X111610Y31798D01*
X111057Y32351D01*
Y39700D01*
X111057Y39700D01*
X111036Y39808D01*
X110975Y39900D01*
X106740Y44134D01*
Y56991D01*
X108819Y59070D01*
X108850Y59065D01*
X108943Y59014D01*
Y42925D01*
X108943Y42925D01*
X108964Y42817D01*
X109025Y42725D01*
X111484Y40267D01*
Y34275D01*
X111475Y34269D01*
X111474Y34268D01*
X111472Y34267D01*
X111451Y34235D01*
X111430Y34204D01*
X111429Y34202D01*
X111428Y34200D01*
X111421Y34163D01*
X111415Y34136D01*
X111360Y34081D01*
X111287Y33905D01*
Y33715D01*
X111360Y33539D01*
X111495Y33404D01*
X111671Y33331D01*
X111862D01*
X112038Y33404D01*
X112173Y33539D01*
X112245Y33715D01*
Y33905D01*
X112173Y34081D01*
X112118Y34136D01*
X112113Y34162D01*
X112105Y34200D01*
X112105Y34201D01*
X112105Y34201D01*
X112083Y34234D01*
X112061Y34267D01*
X112060Y34267D01*
X112060Y34267D01*
X112049Y34275D01*
Y40383D01*
X112049Y40384D01*
X112027Y40492D01*
X111966Y40583D01*
X109507Y43042D01*
Y44721D01*
X109634Y44774D01*
X109653Y44756D01*
X109736D01*
X109795Y44814D01*
Y45797D01*
X109736Y45856D01*
X109653D01*
X109634Y45838D01*
X109507Y45890D01*
Y46489D01*
X109634Y46542D01*
X109653Y46523D01*
X109736D01*
X109795Y46582D01*
Y47565D01*
X109736Y47624D01*
X109653D01*
X109634Y47606D01*
X109507Y47658D01*
Y52342D01*
X109634Y52394D01*
X109653Y52376D01*
X109736D01*
X109795Y52435D01*
Y53418D01*
X109736Y53477D01*
X109653D01*
X109634Y53458D01*
X109507Y53511D01*
Y54110D01*
X109634Y54162D01*
X109653Y54144D01*
X109736D01*
X109795Y54203D01*
Y55186D01*
X109736Y55244D01*
X109653D01*
X109634Y55226D01*
X109507Y55279D01*
Y58933D01*
X117650Y67075D01*
X117650Y67075D01*
X117711Y67167D01*
X117732Y67275D01*
Y71950D01*
X117732Y71950D01*
X117711Y72058D01*
X117650Y72150D01*
X115270Y74530D01*
X115178Y74591D01*
X115070Y74612D01*
X115070Y74612D01*
X112232D01*
X112226Y74621D01*
X112224Y74622D01*
X112223Y74624D01*
X112192Y74645D01*
X112161Y74667D01*
X112159Y74667D01*
X112157Y74668D01*
X112120Y74676D01*
X112092Y74682D01*
X112038Y74736D01*
X111862Y74809D01*
D02*
G37*
G36*
X105845Y62829D02*
X105655D01*
X105479Y62756D01*
X105344Y62621D01*
X105271Y62445D01*
Y62368D01*
X105256Y62346D01*
X105235Y62313D01*
X105235Y62313D01*
X105234Y62312D01*
X105227Y62274D01*
X105219Y62235D01*
X105219Y62235D01*
X105219Y62234D01*
X105222Y62221D01*
X102400Y59400D01*
X102339Y59308D01*
X102318Y59200D01*
X102318Y59200D01*
Y34061D01*
X102318Y34061D01*
X102339Y33953D01*
X102400Y33862D01*
X107403Y28859D01*
X107400Y28849D01*
X107401Y28847D01*
X107400Y28845D01*
X107408Y28808D01*
X107414Y28770D01*
X107416Y28769D01*
X107416Y28767D01*
X107437Y28735D01*
X107452Y28711D01*
Y28635D01*
X107525Y28459D01*
X107660Y28324D01*
X107836Y28251D01*
X108027D01*
X108203Y28324D01*
X108337Y28459D01*
X108410Y28635D01*
Y28825D01*
X108337Y29001D01*
X108203Y29136D01*
X108027Y29209D01*
X107949D01*
X107927Y29224D01*
X107895Y29245D01*
X107894Y29245D01*
X107894Y29246D01*
X107855Y29253D01*
X107816Y29261D01*
X107816Y29261D01*
X107816Y29261D01*
X107803Y29258D01*
X102882Y34178D01*
Y59083D01*
X105621Y61821D01*
X105631Y61819D01*
X105633Y61820D01*
X105635Y61819D01*
X105672Y61827D01*
X105710Y61833D01*
X105711Y61834D01*
X105713Y61835D01*
X105745Y61856D01*
X105769Y61871D01*
X105845D01*
X106021Y61944D01*
X106156Y62079D01*
X106229Y62255D01*
Y62445D01*
X106156Y62621D01*
X106021Y62756D01*
X105845Y62829D01*
D02*
G37*
G36*
X107095Y61154D02*
X106905D01*
X106729Y61081D01*
X106594Y60946D01*
X106521Y60770D01*
Y60693D01*
X106506Y60671D01*
X106485Y60638D01*
X106485Y60638D01*
X106484Y60637D01*
X106477Y60599D01*
X106469Y60560D01*
X106469Y60560D01*
X106469Y60559D01*
X106472Y60546D01*
X106173Y60247D01*
X106036Y60290D01*
X105983Y60420D01*
X105848Y60554D01*
X105672Y60627D01*
X105481D01*
X105305Y60554D01*
X105171Y60420D01*
X105098Y60244D01*
Y60166D01*
X105083Y60144D01*
X105061Y60112D01*
X105061Y60111D01*
X105061Y60111D01*
X105053Y60072D01*
X105046Y60034D01*
X105046Y60033D01*
X105046Y60033D01*
X105049Y60020D01*
X103698Y58669D01*
X103637Y58578D01*
X103616Y58470D01*
X103616Y58470D01*
Y35288D01*
X103616Y35288D01*
X103637Y35180D01*
X103698Y35088D01*
X107387Y31399D01*
X107385Y31389D01*
X107386Y31387D01*
X107385Y31385D01*
X107393Y31348D01*
X107399Y31310D01*
X107400Y31309D01*
X107401Y31307D01*
X107422Y31275D01*
X107437Y31251D01*
Y31175D01*
X107510Y30999D01*
X107645Y30864D01*
X107821Y30791D01*
X108011D01*
X108187Y30864D01*
X108322Y30999D01*
X108395Y31175D01*
Y31365D01*
X108322Y31541D01*
X108187Y31676D01*
X108011Y31749D01*
X107934D01*
X107912Y31764D01*
X107879Y31785D01*
X107879Y31785D01*
X107878Y31786D01*
X107840Y31793D01*
X107801Y31801D01*
X107801Y31801D01*
X107800Y31801D01*
X107787Y31798D01*
X104181Y35405D01*
Y58353D01*
X104778Y58950D01*
X104895Y58888D01*
X104886Y58844D01*
X104886Y58844D01*
Y36548D01*
X104886Y36548D01*
X104908Y36440D01*
X104969Y36348D01*
X107378Y33939D01*
X107376Y33929D01*
X107376Y33927D01*
X107376Y33925D01*
X107383Y33888D01*
X107390Y33850D01*
X107391Y33849D01*
X107391Y33847D01*
X107412Y33815D01*
X107427Y33791D01*
Y33715D01*
X107500Y33539D01*
X107635Y33404D01*
X107811Y33331D01*
X108002D01*
X108178Y33404D01*
X108313Y33539D01*
X108385Y33715D01*
Y33905D01*
X108313Y34081D01*
X108178Y34216D01*
X108002Y34289D01*
X107924D01*
X107902Y34304D01*
X107870Y34325D01*
X107869Y34325D01*
X107869Y34326D01*
X107830Y34333D01*
X107792Y34341D01*
X107791Y34341D01*
X107791Y34341D01*
X107778Y34338D01*
X105451Y36665D01*
Y58727D01*
X106871Y60146D01*
X106881Y60144D01*
X106883Y60145D01*
X106885Y60144D01*
X106922Y60152D01*
X106960Y60158D01*
X106961Y60159D01*
X106963Y60160D01*
X106995Y60181D01*
X107019Y60196D01*
X107095D01*
X107271Y60269D01*
X107406Y60404D01*
X107479Y60580D01*
Y60770D01*
X107406Y60946D01*
X107271Y61081D01*
X107095Y61154D01*
D02*
G37*
G36*
X113883Y56147D02*
X113839Y56147D01*
X112900D01*
X112841Y56088D01*
Y56005D01*
X112900Y55946D01*
X113839D01*
X113883Y55946D01*
X113942Y56005D01*
Y56088D01*
X113883Y56147D01*
D02*
G37*
G36*
X112115D02*
X112072Y56147D01*
X111132D01*
X111073Y56088D01*
Y56005D01*
X111132Y55946D01*
X112072D01*
X112115Y55946D01*
X112174Y56005D01*
Y56088D01*
X112115Y56147D01*
D02*
G37*
G36*
X39368D02*
X39324Y56147D01*
X38385D01*
X38326Y56088D01*
Y56005D01*
X38385Y55946D01*
X39324D01*
X39368Y55946D01*
X39427Y56005D01*
Y56088D01*
X39368Y56147D01*
D02*
G37*
G36*
X37600D02*
X37556Y56147D01*
X36617D01*
X36558Y56088D01*
Y56005D01*
X36617Y55946D01*
X37556D01*
X37600Y55946D01*
X37659Y56005D01*
Y56088D01*
X37600Y56147D01*
D02*
G37*
G36*
X40847Y55244D02*
X40764D01*
X40705Y55186D01*
X40705Y55142D01*
Y54203D01*
X40764Y54144D01*
X40847D01*
X40906Y54203D01*
Y55142D01*
X40906Y55186D01*
X40847Y55244D01*
D02*
G37*
G36*
X40847Y53477D02*
X40764D01*
X40705Y53418D01*
X40705Y53374D01*
Y52435D01*
X40764Y52376D01*
X40847D01*
X40906Y52435D01*
Y53374D01*
X40906Y53418D01*
X40847Y53477D01*
D02*
G37*
G36*
X113868Y51627D02*
X113824Y51627D01*
X112885D01*
X112826Y51568D01*
Y51485D01*
X112885Y51426D01*
X113824D01*
X113868Y51426D01*
X113927Y51485D01*
Y51568D01*
X113868Y51627D01*
D02*
G37*
G36*
X112100D02*
X112056Y51627D01*
X111117D01*
X111058Y51568D01*
Y51485D01*
X111117Y51426D01*
X112056D01*
X112100Y51426D01*
X112159Y51485D01*
Y51568D01*
X112100Y51627D01*
D02*
G37*
G36*
X39368D02*
X39324Y51627D01*
X38385D01*
X38326Y51568D01*
Y51485D01*
X38385Y51426D01*
X39324D01*
X39368Y51426D01*
X39427Y51485D01*
Y51568D01*
X39368Y51627D01*
D02*
G37*
G36*
X37600D02*
X37556Y51627D01*
X36617D01*
X36558Y51568D01*
Y51485D01*
X36617Y51426D01*
X37556D01*
X37600Y51426D01*
X37659Y51485D01*
Y51568D01*
X37600Y51627D01*
D02*
G37*
G36*
X113868Y48574D02*
X113824Y48574D01*
X112885D01*
X112826Y48515D01*
Y48432D01*
X112885Y48373D01*
X113824D01*
X113868Y48373D01*
X113927Y48432D01*
Y48515D01*
X113868Y48574D01*
D02*
G37*
G36*
X112100D02*
X112056Y48574D01*
X111117D01*
X111058Y48515D01*
Y48432D01*
X111117Y48373D01*
X112056D01*
X112100Y48373D01*
X112159Y48432D01*
Y48515D01*
X112100Y48574D01*
D02*
G37*
G36*
X39368D02*
X39324Y48574D01*
X38385D01*
X38326Y48515D01*
Y48432D01*
X38385Y48373D01*
X39324D01*
X39368Y48373D01*
X39427Y48432D01*
Y48515D01*
X39368Y48574D01*
D02*
G37*
G36*
X37600D02*
X37556Y48574D01*
X36617D01*
X36558Y48515D01*
Y48432D01*
X36617Y48373D01*
X37556D01*
X37600Y48373D01*
X37659Y48432D01*
Y48515D01*
X37600Y48574D01*
D02*
G37*
G36*
X40847Y47624D02*
X40764D01*
X40705Y47565D01*
X40705Y47521D01*
Y46582D01*
X40764Y46523D01*
X40847D01*
X40906Y46582D01*
Y47521D01*
X40906Y47565D01*
X40847Y47624D01*
D02*
G37*
G36*
X40847Y45856D02*
X40764D01*
X40705Y45797D01*
X40705Y45754D01*
Y44814D01*
X40764Y44756D01*
X40847D01*
X40906Y44814D01*
Y45754D01*
X40906Y45797D01*
X40847Y45856D01*
D02*
G37*
G36*
X113883Y44054D02*
X113839Y44054D01*
X112900D01*
X112841Y43995D01*
Y43912D01*
X112900Y43853D01*
X113839D01*
X113883Y43853D01*
X113942Y43912D01*
Y43995D01*
X113883Y44054D01*
D02*
G37*
G36*
X112115D02*
X112072Y44054D01*
X111132D01*
X111073Y43995D01*
Y43912D01*
X111132Y43853D01*
X112072D01*
X112115Y43853D01*
X112174Y43912D01*
Y43995D01*
X112115Y44054D01*
D02*
G37*
G36*
X39368D02*
X39324Y44054D01*
X38385D01*
X38326Y43995D01*
Y43912D01*
X38385Y43853D01*
X39324D01*
X39368Y43853D01*
X39427Y43912D01*
Y43995D01*
X39368Y44054D01*
D02*
G37*
G36*
X37600D02*
X37556Y44054D01*
X36617D01*
X36558Y43995D01*
Y43912D01*
X36617Y43853D01*
X37556D01*
X37600Y43853D01*
X37659Y43912D01*
Y43995D01*
X37600Y44054D01*
D02*
G37*
G36*
X76145Y56840D02*
X75955D01*
X75779Y56767D01*
X75644Y56632D01*
X75571Y56456D01*
Y56266D01*
X75644Y56090D01*
X75666Y56068D01*
Y43834D01*
X75185Y43354D01*
X75155D01*
X74979Y43281D01*
X74844Y43146D01*
X74771Y42970D01*
Y42780D01*
X74844Y42604D01*
X74979Y42469D01*
X75155Y42396D01*
X75345D01*
X75521Y42469D01*
X75656Y42604D01*
X75729Y42780D01*
Y42810D01*
X76322Y43403D01*
X76322Y43403D01*
X76405Y43528D01*
X76434Y43675D01*
X76434Y43675D01*
Y56068D01*
X76456Y56090D01*
X76529Y56266D01*
Y56456D01*
X76456Y56632D01*
X76321Y56767D01*
X76145Y56840D01*
D02*
G37*
G36*
X70691Y61179D02*
X70501D01*
X70325Y61106D01*
X70190Y60971D01*
X70117Y60795D01*
Y60605D01*
X70190Y60429D01*
X70325Y60294D01*
X70501Y60221D01*
X70691D01*
X70867Y60294D01*
X70889Y60316D01*
X73791D01*
X77427Y56680D01*
Y41933D01*
X77427Y41933D01*
X77456Y41786D01*
X77539Y41661D01*
X78391Y40809D01*
Y38934D01*
X77860Y38404D01*
X77830D01*
X77654Y38331D01*
X77519Y38196D01*
X77446Y38020D01*
Y37830D01*
X77519Y37654D01*
X77654Y37519D01*
X77830Y37446D01*
X78020D01*
X78196Y37519D01*
X78331Y37654D01*
X78404Y37830D01*
Y37860D01*
X79047Y38503D01*
X79130Y38628D01*
X79159Y38775D01*
X79159Y38775D01*
Y40969D01*
X79130Y41116D01*
X79047Y41240D01*
X79047Y41240D01*
X78195Y42092D01*
Y56839D01*
X78195Y56839D01*
X78166Y56986D01*
X78083Y57111D01*
X74222Y60972D01*
X74097Y61055D01*
X73950Y61084D01*
X73950Y61084D01*
X70889D01*
X70867Y61106D01*
X70691Y61179D01*
D02*
G37*
G36*
X74145Y55305D02*
X73955D01*
X73779Y55232D01*
X73644Y55097D01*
X73571Y54921D01*
Y54731D01*
X73644Y54555D01*
X73699Y54500D01*
X73704Y54474D01*
X73712Y54435D01*
X73712Y54435D01*
X73712Y54435D01*
X73734Y54402D01*
X73756Y54369D01*
X73756Y54369D01*
X73756Y54369D01*
X73768Y54361D01*
Y42669D01*
X73768Y42669D01*
X73789Y42561D01*
X73850Y42469D01*
X74968Y41352D01*
Y37565D01*
X74959Y37559D01*
X74957Y37558D01*
X74956Y37557D01*
X74935Y37525D01*
X74913Y37494D01*
X74913Y37492D01*
X74912Y37490D01*
X74904Y37453D01*
X74898Y37426D01*
X74844Y37371D01*
X74771Y37195D01*
Y37005D01*
X74844Y36829D01*
X74979Y36694D01*
X75155Y36621D01*
X75345D01*
X75521Y36694D01*
X75656Y36829D01*
X75729Y37005D01*
Y37195D01*
X75656Y37371D01*
X75601Y37426D01*
X75596Y37452D01*
X75588Y37490D01*
X75588Y37491D01*
X75588Y37491D01*
X75566Y37524D01*
X75544Y37557D01*
X75544Y37557D01*
X75544Y37557D01*
X75532Y37565D01*
Y41469D01*
X75532Y41469D01*
X75511Y41577D01*
X75450Y41669D01*
X74332Y42786D01*
Y54361D01*
X74341Y54367D01*
X74342Y54368D01*
X74344Y54369D01*
X74365Y54401D01*
X74387Y54432D01*
X74387Y54434D01*
X74388Y54435D01*
X74396Y54473D01*
X74402Y54500D01*
X74456Y54555D01*
X74529Y54731D01*
Y54921D01*
X74456Y55097D01*
X74321Y55232D01*
X74145Y55305D01*
D02*
G37*
G36*
X30357Y33725D02*
X30045D01*
X29743Y33644D01*
X29473Y33488D01*
X29253Y33268D01*
X29097Y32997D01*
X29016Y32696D01*
Y32384D01*
X29097Y32083D01*
X29253Y31812D01*
X29473Y31592D01*
X29743Y31436D01*
X30045Y31355D01*
X30357D01*
X30658Y31436D01*
X30928Y31592D01*
X31149Y31812D01*
X31305Y32083D01*
X31386Y32384D01*
Y32696D01*
X31305Y32997D01*
X31149Y33268D01*
X30928Y33488D01*
X30658Y33644D01*
X30357Y33725D01*
D02*
G37*
G36*
X100975Y64239D02*
X100730Y64191D01*
X100523Y64052D01*
X100384Y63845D01*
X100336Y63600D01*
Y62726D01*
Y51311D01*
X100336Y51311D01*
Y32825D01*
X100384Y32580D01*
X100523Y32373D01*
X105923Y26973D01*
X106130Y26834D01*
X106375Y26786D01*
X110425D01*
X110670Y26834D01*
X110877Y26973D01*
X111995Y28091D01*
X114517D01*
X114762Y28139D01*
X114969Y28278D01*
X115108Y28485D01*
X115156Y28730D01*
X115108Y28975D01*
X114969Y29182D01*
X114762Y29321D01*
X114517Y29369D01*
X111730D01*
X111485Y29321D01*
X111278Y29182D01*
X110160Y28064D01*
X106640D01*
X101614Y33090D01*
Y51311D01*
X101614Y51311D01*
Y62726D01*
Y63600D01*
X101566Y63845D01*
X101427Y64052D01*
X101220Y64191D01*
X100975Y64239D01*
D02*
G37*
G36*
X30357Y28645D02*
X30045D01*
X29743Y28564D01*
X29473Y28408D01*
X29253Y28188D01*
X29097Y27917D01*
X29016Y27616D01*
Y27304D01*
X29097Y27003D01*
X29253Y26732D01*
X29473Y26512D01*
X29743Y26356D01*
X30045Y26275D01*
X30357D01*
X30658Y26356D01*
X30928Y26512D01*
X31149Y26732D01*
X31305Y27003D01*
X31386Y27304D01*
Y27616D01*
X31305Y27917D01*
X31149Y28188D01*
X30928Y28408D01*
X30658Y28564D01*
X30357Y28645D01*
D02*
G37*
G36*
X113883Y16147D02*
X113839Y16147D01*
X112900D01*
X112841Y16088D01*
Y16005D01*
X112900Y15946D01*
X113839D01*
X113883Y15946D01*
X113942Y16005D01*
Y16088D01*
X113883Y16147D01*
D02*
G37*
G36*
X112115D02*
X112072Y16147D01*
X111132D01*
X111073Y16088D01*
Y16005D01*
X111132Y15946D01*
X112072D01*
X112115Y15946D01*
X112174Y16005D01*
Y16088D01*
X112115Y16147D01*
D02*
G37*
G36*
X39368D02*
X39324Y16147D01*
X38385D01*
X38326Y16088D01*
Y16005D01*
X38385Y15946D01*
X39324D01*
X39368Y15946D01*
X39427Y16005D01*
Y16088D01*
X39368Y16147D01*
D02*
G37*
G36*
X37600D02*
X37556Y16147D01*
X36617D01*
X36558Y16088D01*
Y16005D01*
X36617Y15946D01*
X37556D01*
X37600Y15946D01*
X37659Y16005D01*
Y16088D01*
X37600Y16147D01*
D02*
G37*
G36*
X101285Y18220D02*
X100965D01*
X100652Y18158D01*
X100358Y18036D01*
X100092Y17858D01*
X99867Y17633D01*
X99689Y17367D01*
X99567Y17073D01*
X99505Y16760D01*
Y16440D01*
X99567Y16127D01*
X99689Y15833D01*
X99867Y15567D01*
X100092Y15342D01*
X100358Y15164D01*
X100652Y15042D01*
X100965Y14980D01*
X101285D01*
X101598Y15042D01*
X101892Y15164D01*
X102158Y15342D01*
X102383Y15567D01*
X102561Y15833D01*
X102683Y16127D01*
X102745Y16440D01*
Y16760D01*
X102683Y17073D01*
X102561Y17367D01*
X102383Y17633D01*
X102158Y17858D01*
X101892Y18036D01*
X101598Y18158D01*
X101285Y18220D01*
D02*
G37*
G36*
X47485D02*
X47165D01*
X46852Y18158D01*
X46558Y18036D01*
X46292Y17858D01*
X46067Y17633D01*
X45889Y17367D01*
X45767Y17073D01*
X45705Y16760D01*
Y16440D01*
X45767Y16127D01*
X45889Y15833D01*
X46067Y15567D01*
X46292Y15342D01*
X46558Y15164D01*
X46852Y15042D01*
X47165Y14980D01*
X47485D01*
X47798Y15042D01*
X48092Y15164D01*
X48358Y15342D01*
X48583Y15567D01*
X48761Y15833D01*
X48883Y16127D01*
X48945Y16440D01*
Y16760D01*
X48883Y17073D01*
X48761Y17367D01*
X48583Y17633D01*
X48358Y17858D01*
X48092Y18036D01*
X47798Y18158D01*
X47485Y18220D01*
D02*
G37*
G36*
X109736Y15244D02*
X109653D01*
X109594Y15186D01*
X109594Y15142D01*
Y14203D01*
X109653Y14144D01*
X109736D01*
X109795Y14203D01*
Y15142D01*
X109795Y15186D01*
X109736Y15244D01*
D02*
G37*
G36*
X40847D02*
X40764D01*
X40705Y15186D01*
X40705Y15142D01*
Y14203D01*
X40764Y14144D01*
X40847D01*
X40906Y14203D01*
Y15142D01*
X40906Y15186D01*
X40847Y15244D01*
D02*
G37*
G36*
X109736Y13477D02*
X109653D01*
X109594Y13418D01*
X109594Y13374D01*
Y12435D01*
X109653Y12376D01*
X109736D01*
X109795Y12435D01*
Y13374D01*
X109795Y13418D01*
X109736Y13477D01*
D02*
G37*
G36*
X40847D02*
X40764D01*
X40705Y13418D01*
X40705Y13374D01*
Y12435D01*
X40764Y12376D01*
X40847D01*
X40906Y12435D01*
Y13374D01*
X40906Y13418D01*
X40847Y13477D01*
D02*
G37*
G36*
X113868Y11627D02*
X113824Y11627D01*
X112885D01*
X112826Y11568D01*
Y11485D01*
X112885Y11426D01*
X113824D01*
X113868Y11426D01*
X113927Y11485D01*
Y11568D01*
X113868Y11627D01*
D02*
G37*
G36*
X112100D02*
X112056Y11627D01*
X111117D01*
X111058Y11568D01*
Y11485D01*
X111117Y11426D01*
X112056D01*
X112100Y11426D01*
X112159Y11485D01*
Y11568D01*
X112100Y11627D01*
D02*
G37*
G36*
X39368D02*
X39324Y11627D01*
X38385D01*
X38326Y11568D01*
Y11485D01*
X38385Y11426D01*
X39324D01*
X39368Y11426D01*
X39427Y11485D01*
Y11568D01*
X39368Y11627D01*
D02*
G37*
G36*
X37600D02*
X37556Y11627D01*
X36617D01*
X36558Y11568D01*
Y11485D01*
X36617Y11426D01*
X37556D01*
X37600Y11426D01*
X37659Y11485D01*
Y11568D01*
X37600Y11627D01*
D02*
G37*
G36*
X113868Y8574D02*
X113824Y8574D01*
X112885D01*
X112826Y8515D01*
Y8432D01*
X112885Y8373D01*
X113824D01*
X113868Y8373D01*
X113927Y8432D01*
Y8515D01*
X113868Y8574D01*
D02*
G37*
G36*
X112100D02*
X112056Y8574D01*
X111117D01*
X111058Y8515D01*
Y8432D01*
X111117Y8373D01*
X112056D01*
X112100Y8373D01*
X112159Y8432D01*
Y8515D01*
X112100Y8574D01*
D02*
G37*
G36*
X39368D02*
X39324Y8574D01*
X38385D01*
X38326Y8515D01*
Y8432D01*
X38385Y8373D01*
X39324D01*
X39368Y8373D01*
X39427Y8432D01*
Y8515D01*
X39368Y8574D01*
D02*
G37*
G36*
X37600D02*
X37556Y8574D01*
X36617D01*
X36558Y8515D01*
Y8432D01*
X36617Y8373D01*
X37556D01*
X37600Y8373D01*
X37659Y8432D01*
Y8515D01*
X37600Y8574D01*
D02*
G37*
G36*
X109736Y7624D02*
X109653D01*
X109594Y7565D01*
X109594Y7521D01*
Y6582D01*
X109653Y6523D01*
X109736D01*
X109795Y6582D01*
Y7521D01*
X109795Y7565D01*
X109736Y7624D01*
D02*
G37*
G36*
X40847D02*
X40764D01*
X40705Y7565D01*
X40705Y7521D01*
Y6582D01*
X40764Y6523D01*
X40847D01*
X40906Y6582D01*
Y7521D01*
X40906Y7565D01*
X40847Y7624D01*
D02*
G37*
G36*
X109736Y5856D02*
X109653D01*
X109594Y5797D01*
X109594Y5754D01*
Y4814D01*
X109653Y4756D01*
X109736D01*
X109795Y4814D01*
Y5754D01*
X109795Y5797D01*
X109736Y5856D01*
D02*
G37*
G36*
X40847D02*
X40764D01*
X40705Y5797D01*
X40705Y5754D01*
Y4814D01*
X40764Y4756D01*
X40847D01*
X40906Y4814D01*
Y5754D01*
X40906Y5797D01*
X40847Y5856D01*
D02*
G37*
G36*
X113883Y4054D02*
X113839Y4054D01*
X112900D01*
X112841Y3995D01*
Y3912D01*
X112900Y3853D01*
X113839D01*
X113883Y3853D01*
X113942Y3912D01*
Y3995D01*
X113883Y4054D01*
D02*
G37*
G36*
X112115D02*
X112072Y4054D01*
X111132D01*
X111073Y3995D01*
Y3912D01*
X111132Y3853D01*
X112072D01*
X112115Y3853D01*
X112174Y3912D01*
Y3995D01*
X112115Y4054D01*
D02*
G37*
G36*
X39368D02*
X39324Y4054D01*
X38385D01*
X38326Y3995D01*
Y3912D01*
X38385Y3853D01*
X39324D01*
X39368Y3853D01*
X39427Y3912D01*
Y3995D01*
X39368Y4054D01*
D02*
G37*
G36*
X37600D02*
X37556Y4054D01*
X36617D01*
X36558Y3995D01*
Y3912D01*
X36617Y3853D01*
X37556D01*
X37600Y3853D01*
X37659Y3912D01*
Y3995D01*
X37600Y4054D01*
D02*
G37*
%LPD*%
G36*
X58542Y77476D02*
X58539Y77472D01*
X58536Y77466D01*
X58533Y77457D01*
X58531Y77445D01*
X58529Y77432D01*
X58527Y77397D01*
X58525Y77326D01*
X58225Y77365D01*
X58221Y77508D01*
X58542Y77476D01*
D02*
G37*
G36*
X63943Y76657D02*
X63941Y76651D01*
X63939Y76643D01*
X63938Y76632D01*
X63935Y76602D01*
X63934Y76513D01*
X63634D01*
X63633Y76539D01*
X63627Y76651D01*
X63625Y76657D01*
X63623Y76661D01*
X63945D01*
X63943Y76657D01*
D02*
G37*
G36*
X58525Y75678D02*
X58532Y75565D01*
X58534Y75560D01*
X58536Y75556D01*
X58214D01*
X58216Y75560D01*
X58218Y75565D01*
X58220Y75574D01*
X58221Y75585D01*
X58223Y75615D01*
X58225Y75704D01*
X58525D01*
X58525Y75678D01*
D02*
G37*
G36*
X63934Y75621D02*
X63941Y75509D01*
X63943Y75503D01*
X63945Y75499D01*
X63623D01*
X63625Y75503D01*
X63627Y75509D01*
X63628Y75517D01*
X63630Y75528D01*
X63632Y75558D01*
X63634Y75648D01*
X63934D01*
X63934Y75621D01*
D02*
G37*
G36*
X74761Y74874D02*
X74767Y74872D01*
X74776Y74870D01*
X74787Y74869D01*
X74816Y74867D01*
X74906Y74865D01*
Y74565D01*
X74880Y74565D01*
X74767Y74558D01*
X74761Y74556D01*
X74758Y74554D01*
Y74876D01*
X74761Y74874D01*
D02*
G37*
G36*
X74440Y74544D02*
X74438Y74545D01*
X74432Y74546D01*
X74424Y74547D01*
X74401Y74548D01*
X74295Y74550D01*
X74270Y74850D01*
X74296Y74850D01*
X74401Y74857D01*
X74409Y74860D01*
X74416Y74862D01*
X74419Y74865D01*
X74440Y74544D01*
D02*
G37*
G36*
X69355Y74084D02*
X69361Y74082D01*
X69370Y74080D01*
X69381Y74079D01*
X69410Y74077D01*
X69500Y74075D01*
Y73775D01*
X69474Y73775D01*
X69361Y73768D01*
X69355Y73766D01*
X69352Y73764D01*
Y74086D01*
X69355Y74084D01*
D02*
G37*
G36*
X69023Y73764D02*
X69020Y73766D01*
X69014Y73768D01*
X69005Y73770D01*
X68994Y73771D01*
X68965Y73773D01*
X68875Y73775D01*
Y74075D01*
X68901Y74075D01*
X69014Y74082D01*
X69020Y74084D01*
X69023Y74086D01*
Y73764D01*
D02*
G37*
G36*
X36020Y73649D02*
X36017Y73651D01*
X36011Y73653D01*
X36002Y73655D01*
X35991Y73656D01*
X35962Y73658D01*
X35872Y73660D01*
Y73960D01*
X35898Y73960D01*
X36011Y73967D01*
X36017Y73969D01*
X36020Y73971D01*
Y73649D01*
D02*
G37*
G36*
X107820Y72098D02*
X107904Y72024D01*
X107910Y72021D01*
X107914Y72020D01*
X107686Y71792D01*
X107685Y71796D01*
X107682Y71802D01*
X107677Y71809D01*
X107671Y71818D01*
X107651Y71840D01*
X107589Y71905D01*
X107801Y72117D01*
X107820Y72098D01*
D02*
G37*
G36*
X40362Y71385D02*
X40343Y71366D01*
X40269Y71282D01*
X40266Y71276D01*
X40265Y71272D01*
X40037Y71500D01*
X40041Y71501D01*
X40047Y71504D01*
X40054Y71509D01*
X40062Y71515D01*
X40085Y71535D01*
X40150Y71597D01*
X40362Y71385D01*
D02*
G37*
G36*
X36048Y71109D02*
X36044Y71111D01*
X36039Y71113D01*
X36030Y71115D01*
X36019Y71116D01*
X35989Y71118D01*
X35900Y71120D01*
Y71420D01*
X35926Y71420D01*
X36039Y71427D01*
X36044Y71429D01*
X36048Y71431D01*
Y71109D01*
D02*
G37*
G36*
X107835Y69558D02*
X107920Y69484D01*
X107925Y69481D01*
X107929Y69480D01*
X107701Y69252D01*
X107700Y69256D01*
X107697Y69262D01*
X107693Y69269D01*
X107686Y69278D01*
X107666Y69300D01*
X107604Y69365D01*
X107816Y69577D01*
X107835Y69558D01*
D02*
G37*
G36*
X40346Y68845D02*
X40328Y68826D01*
X40253Y68742D01*
X40250Y68736D01*
X40250Y68732D01*
X40022Y68960D01*
X40026Y68961D01*
X40031Y68964D01*
X40038Y68969D01*
X40047Y68975D01*
X40070Y68995D01*
X40134Y69057D01*
X40346Y68845D01*
D02*
G37*
G36*
X42170Y64141D02*
X42173Y64136D01*
X42177Y64128D01*
X42184Y64120D01*
X42204Y64097D01*
X42266Y64033D01*
X42054Y63820D01*
X42035Y63839D01*
X41950Y63914D01*
X41945Y63916D01*
X41941Y63917D01*
X42169Y64145D01*
X42170Y64141D01*
D02*
G37*
G36*
X100507Y64700D02*
X100317Y64690D01*
X100147Y64660D01*
X99997Y64610D01*
X99867Y64540D01*
X99757Y64450D01*
X99667Y64340D01*
X99597Y64210D01*
X99547Y64060D01*
X99517Y63890D01*
X99507Y63700D01*
X98507D01*
X98497Y63890D01*
X98467Y64060D01*
X98417Y64210D01*
X98347Y64340D01*
X98257Y64450D01*
X98147Y64540D01*
X98017Y64610D01*
X97867Y64660D01*
X97697Y64690D01*
X97507Y64700D01*
X99007Y65700D01*
X100507Y64700D01*
D02*
G37*
G36*
X54950D02*
X54760Y64690D01*
X54590Y64660D01*
X54440Y64610D01*
X54310Y64540D01*
X54200Y64450D01*
X54110Y64340D01*
X54040Y64210D01*
X53990Y64060D01*
X53960Y63890D01*
X53950Y63700D01*
X52950D01*
X52940Y63890D01*
X52910Y64060D01*
X52860Y64210D01*
X52790Y64340D01*
X52700Y64450D01*
X52590Y64540D01*
X52460Y64610D01*
X52310Y64660D01*
X52140Y64690D01*
X51950Y64700D01*
X53450Y65700D01*
X54950Y64700D01*
D02*
G37*
G36*
X42856Y62103D02*
X42859Y62097D01*
X42864Y62090D01*
X42870Y62081D01*
X42890Y62059D01*
X42952Y61994D01*
X42740Y61782D01*
X42721Y61800D01*
X42637Y61875D01*
X42631Y61878D01*
X42627Y61879D01*
X42855Y62107D01*
X42856Y62103D01*
D02*
G37*
G36*
X43506Y60346D02*
X43509Y60340D01*
X43514Y60333D01*
X43520Y60324D01*
X43539Y60301D01*
X43583Y60254D01*
X43601Y60236D01*
X43380Y60033D01*
X43361Y60052D01*
X43273Y60130D01*
X43270Y60131D01*
X43505Y60350D01*
X43506Y60346D01*
D02*
G37*
G36*
X40371Y33925D02*
X40353Y33906D01*
X40278Y33822D01*
X40275Y33816D01*
X40274Y33812D01*
X40047Y34040D01*
X40050Y34041D01*
X40056Y34044D01*
X40063Y34049D01*
X40072Y34055D01*
X40094Y34075D01*
X40159Y34137D01*
X40371Y33925D01*
D02*
G37*
G36*
X36511D02*
X36493Y33906D01*
X36418Y33822D01*
X36415Y33816D01*
X36414Y33812D01*
X36187Y34040D01*
X36191Y34041D01*
X36196Y34044D01*
X36203Y34049D01*
X36212Y34055D01*
X36235Y34075D01*
X36299Y34137D01*
X36511Y33925D01*
D02*
G37*
G36*
X36362Y31556D02*
X36369Y31444D01*
X36371Y31438D01*
X36373Y31434D01*
X36051D01*
X36053Y31438D01*
X36055Y31444D01*
X36057Y31452D01*
X36058Y31463D01*
X36060Y31493D01*
X36062Y31582D01*
X36362D01*
X36362Y31556D01*
D02*
G37*
G36*
X40362Y31385D02*
X40343Y31366D01*
X40269Y31282D01*
X40266Y31276D01*
X40265Y31272D01*
X40037Y31500D01*
X40041Y31501D01*
X40047Y31504D01*
X40054Y31509D01*
X40062Y31515D01*
X40085Y31535D01*
X40150Y31597D01*
X40362Y31385D01*
D02*
G37*
G36*
X40346Y28845D02*
X40328Y28826D01*
X40253Y28742D01*
X40250Y28736D01*
X40250Y28732D01*
X40022Y28960D01*
X40026Y28961D01*
X40031Y28964D01*
X40038Y28969D01*
X40047Y28975D01*
X40070Y28995D01*
X40134Y29057D01*
X40346Y28845D01*
D02*
G37*
G36*
X111934Y74489D02*
X111940Y74487D01*
X111949Y74485D01*
X111960Y74484D01*
X111989Y74482D01*
X112079Y74480D01*
Y74180D01*
X112053Y74180D01*
X111940Y74173D01*
X111934Y74171D01*
X111931Y74169D01*
Y74491D01*
X111934Y74489D01*
D02*
G37*
G36*
X111906Y71949D02*
X111912Y71947D01*
X111921Y71945D01*
X111932Y71944D01*
X111961Y71942D01*
X112051Y71940D01*
Y71640D01*
X112025Y71640D01*
X111912Y71633D01*
X111906Y71631D01*
X111903Y71629D01*
Y71951D01*
X111906Y71949D01*
D02*
G37*
G36*
X111917Y34096D02*
X111924Y33984D01*
X111925Y33978D01*
X111927Y33974D01*
X111605D01*
X111608Y33978D01*
X111609Y33984D01*
X111611Y33992D01*
X111613Y34003D01*
X111615Y34033D01*
X111616Y34122D01*
X111916D01*
X111917Y34096D01*
D02*
G37*
G36*
X111642Y31578D02*
X111727Y31504D01*
X111732Y31501D01*
X111736Y31500D01*
X111509Y31272D01*
X111508Y31276D01*
X111505Y31282D01*
X111500Y31289D01*
X111493Y31298D01*
X111474Y31320D01*
X111412Y31385D01*
X111624Y31597D01*
X111642Y31578D01*
D02*
G37*
G36*
X105748Y62120D02*
X105744Y62119D01*
X105738Y62116D01*
X105731Y62111D01*
X105722Y62105D01*
X105700Y62085D01*
X105635Y62023D01*
X105423Y62235D01*
X105442Y62254D01*
X105516Y62338D01*
X105519Y62344D01*
X105520Y62348D01*
X105748Y62120D01*
D02*
G37*
G36*
X107835Y29038D02*
X107920Y28964D01*
X107925Y28961D01*
X107929Y28960D01*
X107701Y28732D01*
X107700Y28736D01*
X107697Y28742D01*
X107693Y28749D01*
X107686Y28758D01*
X107666Y28780D01*
X107604Y28845D01*
X107816Y29057D01*
X107835Y29038D01*
D02*
G37*
G36*
X106998Y60445D02*
X106994Y60444D01*
X106988Y60441D01*
X106981Y60436D01*
X106972Y60430D01*
X106950Y60410D01*
X106885Y60348D01*
X106673Y60560D01*
X106692Y60579D01*
X106766Y60663D01*
X106769Y60669D01*
X106770Y60673D01*
X106998Y60445D01*
D02*
G37*
G36*
X105574Y59918D02*
X105571Y59917D01*
X105565Y59914D01*
X105558Y59910D01*
X105549Y59903D01*
X105526Y59883D01*
X105462Y59821D01*
X105250Y60034D01*
X105268Y60052D01*
X105343Y60137D01*
X105346Y60142D01*
X105347Y60146D01*
X105574Y59918D01*
D02*
G37*
G36*
X107810Y34118D02*
X107895Y34044D01*
X107900Y34041D01*
X107904Y34040D01*
X107677Y33812D01*
X107676Y33816D01*
X107673Y33822D01*
X107668Y33829D01*
X107661Y33838D01*
X107642Y33860D01*
X107580Y33925D01*
X107792Y34137D01*
X107810Y34118D01*
D02*
G37*
G36*
X107820Y31578D02*
X107904Y31504D01*
X107910Y31501D01*
X107914Y31500D01*
X107686Y31272D01*
X107685Y31276D01*
X107682Y31282D01*
X107677Y31289D01*
X107671Y31298D01*
X107651Y31320D01*
X107589Y31385D01*
X107801Y31597D01*
X107820Y31578D01*
D02*
G37*
G36*
X74209Y54658D02*
X74207Y54652D01*
X74205Y54644D01*
X74204Y54633D01*
X74202Y54603D01*
X74200Y54514D01*
X73900D01*
X73900Y54540D01*
X73893Y54652D01*
X73891Y54658D01*
X73889Y54662D01*
X74211D01*
X74209Y54658D01*
D02*
G37*
G36*
X75400Y37386D02*
X75407Y37274D01*
X75409Y37268D01*
X75411Y37264D01*
X75089D01*
X75091Y37268D01*
X75093Y37274D01*
X75095Y37282D01*
X75096Y37293D01*
X75098Y37323D01*
X75100Y37412D01*
X75400D01*
X75400Y37386D01*
D02*
G37*
D46*
X38000Y53786D02*
D03*
Y46214D02*
D03*
Y6214D02*
D03*
Y13786D02*
D03*
X112500Y6214D02*
D03*
Y13786D02*
D03*
Y53786D02*
D03*
Y46214D02*
D03*
D48*
X53450Y65200D02*
X64471D01*
X38875D02*
X53450D01*
Y36900D02*
Y65200D01*
X101850Y67742D02*
X110222D01*
X100975D02*
X101850D01*
X100975Y62726D02*
Y63600D01*
Y51311D02*
Y62726D01*
X44781Y67742D02*
X45746D01*
X50550Y62256D02*
Y63050D01*
Y37050D02*
Y62256D01*
X37885Y66190D02*
X38875Y65200D01*
X36235Y66190D02*
X37885D01*
X33010D02*
X36235D01*
X41425Y24875D02*
X53450Y36900D01*
X64471Y65200D02*
X65683D01*
X37209Y67742D02*
X44781D01*
X100975Y51311D02*
X100975Y51311D01*
Y32825D02*
Y51311D01*
Y32825D02*
X106375Y27425D01*
X65700Y65217D02*
X65716Y65200D01*
X99007D02*
X110088D01*
X65716D02*
X99007D01*
X110088D02*
X111598Y66710D01*
X65683Y65200D02*
X65700Y65217D01*
X111716Y66710D02*
X114530D01*
X111598D02*
X111716D01*
X110222Y67742D02*
X111730Y69250D01*
X99007Y65200D02*
X99007Y32093D01*
X106375Y24725D01*
X41200Y27700D02*
X50550Y37050D01*
X106375Y24725D02*
X110251D01*
X111716Y26190D01*
X106375Y27425D02*
X110425D01*
X111730Y28730D01*
X111716Y26190D02*
X114517D01*
X111730Y28730D02*
X114517D01*
X111730Y69250D02*
X114530D01*
X37550Y24875D02*
X41425D01*
X36235Y26190D02*
X37550Y24875D01*
X33010Y26190D02*
X36235D01*
X37251Y27700D02*
X41200D01*
X36221Y28730D02*
X37251Y27700D01*
X33010Y28730D02*
X36221D01*
Y68730D02*
X37209Y67742D01*
X33010Y68730D02*
X36221D01*
D49*
X63784Y75335D02*
Y76825D01*
X58375Y75392D02*
Y77633D01*
X58398Y77655D01*
X43465Y74700D02*
X74579D01*
X40035Y71270D02*
X43465Y74700D01*
X74579D02*
X74594Y74715D01*
X45215Y73925D02*
X69188D01*
X89753Y74715D02*
X89813Y74775D01*
X74594Y74715D02*
X89753D01*
X89813Y74775D02*
X104931D01*
X107916Y71790D01*
X40020Y68730D02*
X45215Y73925D01*
X103256D02*
X107931Y69250D01*
X69188Y73925D02*
X103256D01*
X41939Y64147D02*
X48832Y57254D01*
Y37542D02*
Y57254D01*
X102600Y59200D02*
X105750Y62350D01*
X102600Y34061D02*
Y59200D01*
Y34061D02*
X107931Y28730D01*
X103898Y35288D02*
X107916Y31270D01*
X103898Y35288D02*
Y58470D01*
X105169Y36548D02*
Y58844D01*
X107000Y60675D01*
X105169Y36548D02*
X107907Y33810D01*
X103898Y58470D02*
X105577Y60148D01*
X106458Y44017D02*
Y57108D01*
X116200Y66850D01*
X106458Y44017D02*
X110775Y39700D01*
Y32234D02*
Y39700D01*
X109225Y59050D02*
X117450Y67275D01*
X109225Y59050D02*
X110014Y59839D01*
X109225Y42925D02*
Y59050D01*
X40020Y28730D02*
X48832Y37542D01*
X47300Y38535D02*
Y57434D01*
X45925Y39691D02*
Y57700D01*
X44565Y40440D02*
Y57897D01*
X36975Y63650D02*
X43000Y57625D01*
X36184Y33810D02*
X43000Y40626D01*
Y57625D01*
X109225Y42925D02*
X111766Y40384D01*
X40035Y31270D02*
X47300Y38535D01*
X42625Y62109D02*
X47300Y57434D01*
X43275Y60350D02*
X45925Y57700D01*
X43275Y60350D02*
Y60361D01*
X40044Y33810D02*
X45925Y39691D01*
X36212Y32087D02*
X44565Y40440D01*
X37961Y64500D02*
X44565Y57897D01*
X111739Y71790D02*
X114135D01*
X111766Y33810D02*
Y40384D01*
X110775Y32234D02*
X111739Y31270D01*
X116200Y66850D02*
Y69725D01*
X114135Y71790D02*
X116200Y69725D01*
X117450Y67275D02*
Y71950D01*
X115070Y74330D02*
X117450Y71950D01*
X111766Y74330D02*
X115070D01*
X36212Y31270D02*
Y32087D01*
X31625Y65230D02*
X33205Y63650D01*
X36975D01*
X32991Y64500D02*
X37961D01*
X32118Y69968D02*
X33420Y71270D01*
X36212D01*
X32118Y65373D02*
Y69968D01*
Y65373D02*
X32991Y64500D01*
X31625Y71100D02*
X34335Y73810D01*
X31625Y65230D02*
Y71100D01*
X34335Y73810D02*
X36184D01*
X74050Y42669D02*
Y54826D01*
Y42669D02*
X75250Y41469D01*
Y37100D02*
Y41469D01*
D50*
X73950Y60700D02*
X77811Y56839D01*
X70596Y60700D02*
X73950D01*
X76050Y43675D02*
Y56361D01*
X75250Y42875D02*
X76050Y43675D01*
X78775Y38775D02*
Y40969D01*
X77925Y37925D02*
X78775Y38775D01*
X77811Y41933D02*
X78775Y40969D01*
X77811Y41933D02*
Y56839D01*
D51*
X56252Y44460D02*
D03*
X56530Y42986D02*
D03*
X56252Y45960D02*
D03*
X56735Y37428D02*
D03*
X52446Y50923D02*
D03*
X40022Y66190D02*
D03*
X52446Y49077D02*
D03*
X40890Y66190D02*
D03*
X63784Y75335D02*
D03*
X67171Y64216D02*
D03*
X80565Y67742D02*
D03*
X104050Y11475D02*
D03*
X58398Y77655D02*
D03*
X58375Y75392D02*
D03*
Y72775D02*
D03*
X63784Y76825D02*
D03*
X63781Y72775D02*
D03*
X79997D02*
D03*
X69188Y73925D02*
D03*
X74594Y74715D02*
D03*
X112500Y46214D02*
D03*
X111616Y47097D02*
D03*
X113384D02*
D03*
X113384Y45330D02*
D03*
X111616D02*
D03*
X112500Y53786D02*
D03*
X111616Y54670D02*
D03*
X113384D02*
D03*
X113384Y52903D02*
D03*
X111616D02*
D03*
X38000Y46214D02*
D03*
X37116Y47097D02*
D03*
X38884D02*
D03*
X38884Y45330D02*
D03*
X37116D02*
D03*
X38000Y53786D02*
D03*
X37116Y54670D02*
D03*
X38884D02*
D03*
X38884Y52903D02*
D03*
X37116D02*
D03*
X112500Y13786D02*
D03*
X111616Y14670D02*
D03*
X113384D02*
D03*
X113384Y12903D02*
D03*
X111616D02*
D03*
X112500Y6214D02*
D03*
X111616Y7097D02*
D03*
X113384D02*
D03*
X113384Y5330D02*
D03*
X111616D02*
D03*
X38000Y6214D02*
D03*
X37116Y7097D02*
D03*
X38884D02*
D03*
X38884Y5330D02*
D03*
X37116D02*
D03*
X38000Y13786D02*
D03*
X37116Y14670D02*
D03*
X38884D02*
D03*
X38884Y12903D02*
D03*
X37116D02*
D03*
X45746Y67742D02*
D03*
X44781D02*
D03*
X50550Y62256D02*
D03*
X100975Y62726D02*
D03*
X106975Y26175D02*
D03*
X40899Y26199D02*
D03*
X107025Y66700D02*
D03*
X68071Y64216D02*
D03*
X79225Y64075D02*
D03*
X65700Y65217D02*
D03*
X64471Y65200D02*
D03*
X70596Y60700D02*
D03*
X67571Y62025D02*
D03*
X66996Y60625D02*
D03*
X74684Y45776D02*
D03*
X76050Y56361D02*
D03*
X75250Y45100D02*
D03*
X77925Y40125D02*
D03*
X78565Y42811D02*
D03*
X77057Y43332D02*
D03*
X70200Y45598D02*
D03*
X78575Y66650D02*
D03*
X77725D02*
D03*
X79975Y62650D02*
D03*
X101850Y67742D02*
D03*
X100975D02*
D03*
X107929Y66710D02*
D03*
X100975Y63600D02*
D03*
X50550Y63050D02*
D03*
X41939Y64147D02*
D03*
X98023Y50903D02*
D03*
Y49097D02*
D03*
X101959D02*
D03*
X99991D02*
D03*
Y50903D02*
D03*
X101959D02*
D03*
X103234Y49097D02*
D03*
Y50903D02*
D03*
X104532Y50953D02*
D03*
X105824Y51456D02*
D03*
X105577Y60148D02*
D03*
X105803Y48623D02*
D03*
X107171Y48113D02*
D03*
X107297Y51887D02*
D03*
X108275D02*
D03*
X108591Y48113D02*
D03*
X54454Y49077D02*
D03*
Y50923D02*
D03*
X49546Y49077D02*
D03*
X51554Y50923D02*
D03*
X49546D02*
D03*
X51554Y49077D02*
D03*
X48117Y50923D02*
D03*
X48088Y49077D02*
D03*
X45219Y51140D02*
D03*
Y48848D02*
D03*
X43844Y51907D02*
D03*
X97248Y50697D02*
D03*
X96006Y49929D02*
D03*
X95202Y48710D02*
D03*
X94955Y47271D02*
D03*
Y45811D02*
D03*
Y44351D02*
D03*
Y42891D02*
D03*
Y41431D02*
D03*
X96765Y41341D02*
D03*
X96761Y42801D02*
D03*
Y44261D02*
D03*
Y45721D02*
D03*
Y47181D02*
D03*
X97196Y48575D02*
D03*
X94955Y36833D02*
D03*
Y35373D02*
D03*
Y33913D02*
D03*
Y32453D02*
D03*
Y30993D02*
D03*
Y29533D02*
D03*
Y28073D02*
D03*
Y26613D02*
D03*
Y25153D02*
D03*
Y23693D02*
D03*
Y22233D02*
D03*
Y20773D02*
D03*
Y19313D02*
D03*
Y17853D02*
D03*
Y16393D02*
D03*
Y14933D02*
D03*
Y13473D02*
D03*
X95004Y12014D02*
D03*
X95531Y10652D02*
D03*
X96576Y9633D02*
D03*
X97948Y9134D02*
D03*
X99408Y9097D02*
D03*
X100868D02*
D03*
X102327D02*
D03*
X103785Y9008D02*
D03*
X105243Y8938D02*
D03*
X106464Y8138D02*
D03*
X107924Y8113D02*
D03*
X109384Y8113D02*
D03*
X108829Y11887D02*
D03*
X107369D02*
D03*
X105960Y11506D02*
D03*
X103165Y10903D02*
D03*
X101705D02*
D03*
X100245D02*
D03*
X98785D02*
D03*
X97371Y11266D02*
D03*
X96761Y12592D02*
D03*
Y14052D02*
D03*
Y15512D02*
D03*
Y16972D02*
D03*
Y18432D02*
D03*
Y19892D02*
D03*
Y21352D02*
D03*
Y22812D02*
D03*
Y24272D02*
D03*
Y25732D02*
D03*
Y27192D02*
D03*
Y28652D02*
D03*
Y30112D02*
D03*
Y31572D02*
D03*
Y33032D02*
D03*
Y34492D02*
D03*
Y35952D02*
D03*
X96834Y37410D02*
D03*
X62142Y39148D02*
D03*
X60642D02*
D03*
X59143Y39093D02*
D03*
X57753Y38530D02*
D03*
X56278Y35999D02*
D03*
X56252Y34500D02*
D03*
Y33000D02*
D03*
Y31500D02*
D03*
Y30000D02*
D03*
Y28500D02*
D03*
Y27000D02*
D03*
Y25500D02*
D03*
Y24000D02*
D03*
Y22500D02*
D03*
Y21000D02*
D03*
Y19500D02*
D03*
Y18000D02*
D03*
Y16500D02*
D03*
Y15000D02*
D03*
Y13500D02*
D03*
X56161Y12002D02*
D03*
X55062Y10981D02*
D03*
X53563Y10923D02*
D03*
X52063D02*
D03*
X50563D02*
D03*
X49063D02*
D03*
X47563D02*
D03*
X46063D02*
D03*
X44653Y11435D02*
D03*
X43230Y11908D02*
D03*
X41730D02*
D03*
X41556Y8092D02*
D03*
X43056Y8092D02*
D03*
X44514Y8444D02*
D03*
X45874Y9077D02*
D03*
X47374Y9077D02*
D03*
X48874D02*
D03*
X50374D02*
D03*
X51874D02*
D03*
X53374D02*
D03*
X54874Y9097D02*
D03*
X56313Y9521D02*
D03*
X57435Y10516D02*
D03*
X58029Y11894D02*
D03*
X58098Y13392D02*
D03*
Y14892D02*
D03*
Y16392D02*
D03*
Y17892D02*
D03*
Y19392D02*
D03*
Y20892D02*
D03*
Y22392D02*
D03*
Y23892D02*
D03*
Y25392D02*
D03*
Y26892D02*
D03*
Y28392D02*
D03*
Y29892D02*
D03*
Y31392D02*
D03*
Y32892D02*
D03*
Y34392D02*
D03*
X58111Y35892D02*
D03*
X58972Y37120D02*
D03*
X60461Y37302D02*
D03*
X61961D02*
D03*
X63459Y37228D02*
D03*
X64294Y39213D02*
D03*
X42162Y51908D02*
D03*
X42309Y48092D02*
D03*
X43809D02*
D03*
X46588Y49077D02*
D03*
X55560Y48791D02*
D03*
X56252Y47460D02*
D03*
X57393Y41760D02*
D03*
X58694Y41012D02*
D03*
X60185Y40852D02*
D03*
X61685D02*
D03*
X63185D02*
D03*
X64677Y41005D02*
D03*
X63221Y42698D02*
D03*
X61721D02*
D03*
X60221D02*
D03*
X58754Y43013D02*
D03*
X58098Y44362D02*
D03*
Y45862D02*
D03*
Y47362D02*
D03*
X57802Y48832D02*
D03*
X56921Y50046D02*
D03*
X55610Y50775D02*
D03*
X46617Y50923D02*
D03*
X94432Y40595D02*
D03*
X92981Y40214D02*
D03*
X91481Y40198D02*
D03*
X87060D02*
D03*
X85562Y40288D02*
D03*
X86626Y38352D02*
D03*
X88087Y38010D02*
D03*
X92547Y38352D02*
D03*
X96855Y38426D02*
D03*
X81164Y41703D02*
D03*
X79969Y42609D02*
D03*
X78058Y33817D02*
D03*
X79389Y34508D02*
D03*
X80450Y35569D02*
D03*
X81073Y36933D02*
D03*
X81561Y38352D02*
D03*
X83061D02*
D03*
X84558Y38260D02*
D03*
X84143Y40289D02*
D03*
X81144Y40285D02*
D03*
X67230Y37302D02*
D03*
X68720Y37477D02*
D03*
X70195Y37207D02*
D03*
X71685Y37379D02*
D03*
X71588Y39409D02*
D03*
X70103Y39618D02*
D03*
X68632Y39323D02*
D03*
X67142Y39148D02*
D03*
X68227Y42552D02*
D03*
X65235Y42757D02*
D03*
X65210Y39736D02*
D03*
X67747Y40710D02*
D03*
X69222Y40441D02*
D03*
X70704Y40674D02*
D03*
X72203Y40618D02*
D03*
X71324Y42589D02*
D03*
X69849Y42863D02*
D03*
X77125Y36975D02*
D03*
X111716Y66710D02*
D03*
X111739Y71790D02*
D03*
X111730Y69250D02*
D03*
X107000Y60675D02*
D03*
X105750Y62350D02*
D03*
X107916Y31270D02*
D03*
X107907Y33810D02*
D03*
X40020Y28730D02*
D03*
X107929Y26190D02*
D03*
X111766Y33810D02*
D03*
X114530Y66710D02*
D03*
Y69250D02*
D03*
X107931D02*
D03*
X43275Y60361D02*
D03*
X42625Y62109D02*
D03*
X114517Y26190D02*
D03*
Y28730D02*
D03*
X40035Y71270D02*
D03*
X33010Y68730D02*
D03*
Y66190D02*
D03*
X40044Y33810D02*
D03*
X36184D02*
D03*
X36235Y66190D02*
D03*
X107931Y28730D02*
D03*
X111716Y26190D02*
D03*
X111739Y31270D02*
D03*
X111730Y28730D02*
D03*
X107916Y71790D02*
D03*
X111766Y74330D02*
D03*
X40020Y68730D02*
D03*
X36184Y73810D02*
D03*
X36212Y71270D02*
D03*
X36221Y68730D02*
D03*
X33010Y28730D02*
D03*
Y26190D02*
D03*
X36221Y28730D02*
D03*
X36212Y31270D02*
D03*
X36235Y26190D02*
D03*
X40035Y31270D02*
D03*
X40022Y26190D02*
D03*
X75250Y42875D02*
D03*
X77925Y37925D02*
D03*
X93550Y37800D02*
D03*
X89825Y37051D02*
D03*
Y41494D02*
D03*
X82250Y40875D02*
D03*
X75250Y37100D02*
D03*
X76347Y31250D02*
D03*
X71913D02*
D03*
X74050Y54826D02*
D03*
M02*
