G04*
G04 #@! TF.GenerationSoftware,Altium Limited,Altium Designer,21.0.9 (235)*
G04*
G04 Layer_Physical_Order=1*
G04 Layer_Color=255*
%FSLAX43Y43*%
%MOMM*%
G71*
G04*
G04 #@! TF.SameCoordinates,9209314D-A4D9-4316-9161-A8B31A9F7C09*
G04*
G04*
G04 #@! TF.FilePolarity,Positive*
G04*
G01*
G75*
%ADD14R,1.000X2.000*%
%ADD15R,0.650X2.000*%
%ADD16R,0.500X0.500*%
%ADD17R,0.500X0.500*%
%ADD18R,1.000X1.000*%
%ADD19R,2.200X1.050*%
G04:AMPARAMS|DCode=20|XSize=1mm|YSize=2.5mm|CornerRadius=0.25mm|HoleSize=0mm|Usage=FLASHONLY|Rotation=90.000|XOffset=0mm|YOffset=0mm|HoleType=Round|Shape=RoundedRectangle|*
%AMROUNDEDRECTD20*
21,1,1.000,2.000,0,0,90.0*
21,1,0.500,2.500,0,0,90.0*
1,1,0.500,1.000,0.250*
1,1,0.500,1.000,-0.250*
1,1,0.500,-1.000,-0.250*
1,1,0.500,-1.000,0.250*
%
%ADD20ROUNDEDRECTD20*%
%ADD21R,0.900X0.900*%
%ADD22R,1.400X0.950*%
%ADD23R,0.900X0.600*%
G04:AMPARAMS|DCode=24|XSize=1mm|YSize=2mm|CornerRadius=0.25mm|HoleSize=0mm|Usage=FLASHONLY|Rotation=90.000|XOffset=0mm|YOffset=0mm|HoleType=Round|Shape=RoundedRectangle|*
%AMROUNDEDRECTD24*
21,1,1.000,1.500,0,0,90.0*
21,1,0.500,2.000,0,0,90.0*
1,1,0.500,0.750,0.250*
1,1,0.500,0.750,-0.250*
1,1,0.500,-0.750,-0.250*
1,1,0.500,-0.750,0.250*
%
%ADD24ROUNDEDRECTD24*%
%ADD25R,1.050X2.200*%
%ADD26R,1.000X1.000*%
%ADD43C,0.293*%
%ADD44C,0.293*%
%ADD45C,1.000*%
%ADD46R,5.080X4.000*%
%ADD47R,8.382X2.286*%
%ADD48C,1.000*%
%ADD49C,0.300*%
%ADD50C,0.500*%
%ADD51C,0.500*%
%ADD52C,0.460*%
G36*
X114423Y79563D02*
X114530Y79519D01*
X114627Y79454D01*
X114710Y79371D01*
X114775Y79274D01*
X114819Y79167D01*
X114842Y79052D01*
Y78020D01*
X114844Y78010D01*
X114843Y78000D01*
X114847Y77902D01*
X114855Y77873D01*
Y77842D01*
X114893Y77650D01*
X114908Y77613D01*
X114916Y77574D01*
X114991Y77393D01*
X115014Y77359D01*
X115029Y77322D01*
X115138Y77159D01*
X115166Y77131D01*
X115189Y77097D01*
X115327Y76959D01*
X115361Y76936D01*
X115389Y76908D01*
X115552Y76799D01*
X115589Y76784D01*
X115623Y76761D01*
X115804Y76686D01*
X115843Y76678D01*
X115880Y76663D01*
X116072Y76625D01*
X116103D01*
X116132Y76617D01*
X116230Y76613D01*
X116240Y76614D01*
X116250Y76612D01*
X118759D01*
X118874Y76589D01*
X118981Y76545D01*
X119078Y76480D01*
X119161Y76397D01*
X119226Y76300D01*
X119270Y76193D01*
X119293Y76078D01*
Y76020D01*
Y65020D01*
Y64962D01*
X119270Y64847D01*
X119226Y64740D01*
X119161Y64643D01*
X119078Y64560D01*
X118981Y64495D01*
X118874Y64451D01*
X118759Y64428D01*
X116250D01*
X116240Y64426D01*
X116230Y64427D01*
X116132Y64423D01*
X116103Y64415D01*
X116072D01*
X115880Y64377D01*
X115843Y64362D01*
X115804Y64354D01*
X115623Y64279D01*
X115589Y64256D01*
X115552Y64241D01*
X115389Y64132D01*
X115361Y64104D01*
X115327Y64081D01*
X115189Y63943D01*
X115166Y63909D01*
X115138Y63881D01*
X115029Y63718D01*
X115014Y63681D01*
X114991Y63647D01*
X114916Y63466D01*
X114908Y63427D01*
X114893Y63390D01*
X114855Y63198D01*
Y63167D01*
X114847Y63138D01*
X114843Y63040D01*
X114844Y63030D01*
X114842Y63020D01*
Y52124D01*
Y51651D01*
X108325D01*
X108275Y51661D01*
X106658Y51661D01*
X106656Y51661D01*
X106655Y51661D01*
X106606Y51651D01*
X106150D01*
Y51372D01*
X105993Y51234D01*
X105780Y51083D01*
X105554Y50953D01*
X105317Y50846D01*
X105070Y50763D01*
X104935Y50732D01*
X104808Y50758D01*
Y50758D01*
X103292D01*
Y50660D01*
X98398D01*
Y50664D01*
X97897Y50625D01*
X97408Y50508D01*
X96943Y50315D01*
X96514Y50052D01*
X96132Y49726D01*
X95805Y49343D01*
X95543Y48915D01*
X95350Y48450D01*
X95233Y47961D01*
X95193Y47460D01*
X95198D01*
Y41508D01*
X95100D01*
Y41032D01*
X95093Y40997D01*
X95100Y40962D01*
Y40939D01*
X95099Y40918D01*
X95100Y40916D01*
Y40876D01*
D01*
Y40492D01*
X95050Y40490D01*
X95031Y40485D01*
X93218Y40033D01*
X92792D01*
Y39947D01*
X91179D01*
Y40425D01*
X88471D01*
Y40288D01*
X87825D01*
X87801Y40283D01*
X87317D01*
Y39947D01*
X86058D01*
Y40033D01*
X85582D01*
X85547Y40040D01*
X85536Y40038D01*
X85050D01*
X85026Y40033D01*
X84674D01*
X84650Y40038D01*
X84164D01*
X84153Y40040D01*
X84118Y40033D01*
X83642D01*
Y39947D01*
X83008D01*
Y40033D01*
X82754D01*
Y40148D01*
X82250D01*
X81746D01*
Y40033D01*
X81492D01*
Y39947D01*
X80911D01*
X80908Y39949D01*
Y40412D01*
X80915Y40447D01*
X80913Y40458D01*
Y40944D01*
X80908Y40968D01*
Y41320D01*
D01*
X80913Y41344D01*
Y41684D01*
Y41844D01*
X80908Y41868D01*
Y42047D01*
Y42352D01*
X80424D01*
X80400Y42357D01*
X79900D01*
X79876Y42352D01*
X79449D01*
X79420Y42381D01*
X79420Y42381D01*
X79400Y42394D01*
D01*
X79340Y42434D01*
X79255Y42491D01*
X79255Y42491D01*
X79190Y42518D01*
D01*
X79070Y42568D01*
X79046Y42573D01*
D01*
X78934Y42595D01*
D01*
X78899Y42602D01*
D01*
X78875Y42607D01*
X78675D01*
X78651Y42602D01*
D01*
X78617Y42595D01*
D01*
X78504Y42573D01*
D01*
X78480Y42568D01*
X78360Y42518D01*
D01*
X78295Y42491D01*
X78295Y42491D01*
X78205Y42431D01*
X78130Y42381D01*
X78130Y42381D01*
X78080Y42331D01*
X78080Y42331D01*
X78038Y42289D01*
X78038D01*
X78014Y42266D01*
X77388D01*
Y42594D01*
X77383Y42618D01*
Y43102D01*
X76899D01*
X76875Y43107D01*
X75875D01*
X75851Y43102D01*
X75700D01*
Y43593D01*
D01*
X75700Y43891D01*
X75754Y43996D01*
X75754Y44055D01*
Y44373D01*
X75250D01*
X74746D01*
Y43996D01*
X74800Y43891D01*
X74800Y43102D01*
X73433D01*
Y43467D01*
X73440Y43501D01*
X73434Y43532D01*
X73436Y43563D01*
X73433Y43574D01*
Y44146D01*
X73575D01*
Y45250D01*
X73046D01*
Y45008D01*
X71804D01*
Y45250D01*
X71275D01*
Y44146D01*
X71417D01*
Y42992D01*
X71857D01*
X71857Y42989D01*
X71860Y42975D01*
Y42357D01*
X71489D01*
X71478Y42359D01*
X71443Y42352D01*
X70967D01*
Y42352D01*
X70883Y42268D01*
X70513Y42269D01*
X70487Y42295D01*
X70487D01*
X70445Y42337D01*
X70445Y42337D01*
X70395Y42387D01*
X70395Y42387D01*
X70375Y42400D01*
D01*
X70280Y42464D01*
D01*
X70230Y42497D01*
X70230Y42497D01*
X70045Y42574D01*
X70021Y42579D01*
D01*
X69909Y42601D01*
X69874Y42608D01*
D01*
X69850Y42613D01*
X69650D01*
X69626Y42608D01*
D01*
X69591Y42601D01*
X69479Y42579D01*
D01*
X69455Y42574D01*
X69270Y42497D01*
X69270Y42497D01*
X69220Y42464D01*
D01*
X69105Y42387D01*
X69105Y42387D01*
X69055Y42337D01*
Y42337D01*
X69013Y42295D01*
D01*
X69002Y42284D01*
X68161D01*
X68071Y42344D01*
X68068Y42347D01*
X68066Y42347D01*
X68046Y42361D01*
X67934Y42408D01*
X67934Y42408D01*
X67910Y42412D01*
X67909Y42413D01*
X67904Y42413D01*
X67738Y42447D01*
X66779D01*
Y42533D01*
X66525D01*
Y42648D01*
X66021D01*
X65517D01*
Y42533D01*
X65045D01*
X65021Y42538D01*
X64521D01*
X64497Y42533D01*
X63705D01*
X63703Y42534D01*
X63683Y42533D01*
X63659D01*
X63624Y42540D01*
X63589Y42533D01*
X63113D01*
Y42435D01*
X59715D01*
X59706Y42434D01*
X59348Y42469D01*
X58995Y42577D01*
X58670Y42750D01*
X58384Y42984D01*
X58150Y43270D01*
X57977Y43595D01*
X57869Y43948D01*
X57834Y44306D01*
X57835Y44315D01*
Y47460D01*
X57840D01*
X57800Y47961D01*
X57683Y48450D01*
X57490Y48915D01*
X57228Y49344D01*
X56901Y49726D01*
X56519Y50053D01*
X56090Y50315D01*
X55625Y50508D01*
X55136Y50625D01*
X54635Y50665D01*
Y50660D01*
X46841D01*
X46821Y50664D01*
X46070D01*
X45948Y50671D01*
X45683Y50705D01*
X45430Y50764D01*
X45183Y50847D01*
X44945Y50954D01*
X44719Y51083D01*
X44507Y51235D01*
X44350Y51372D01*
Y51651D01*
X43894D01*
X43845Y51661D01*
X43843Y51661D01*
X43842Y51661D01*
X42225D01*
X42175Y51651D01*
X35658D01*
Y61570D01*
X35656Y61580D01*
X35657Y61590D01*
X35653Y61688D01*
X35645Y61718D01*
Y61748D01*
X35607Y61940D01*
X35592Y61977D01*
X35584Y62017D01*
X35509Y62198D01*
X35486Y62231D01*
X35471Y62268D01*
X35362Y62431D01*
X35334Y62460D01*
X35311Y62493D01*
X35173Y62632D01*
X35139Y62654D01*
X35111Y62682D01*
X34948Y62791D01*
X34911Y62807D01*
X34877Y62829D01*
X34696Y62904D01*
X34657Y62912D01*
X34620Y62927D01*
X34428Y62965D01*
X34397D01*
X34368Y62973D01*
X34270Y62978D01*
X34260Y62976D01*
X34250Y62978D01*
X29192D01*
X29077Y63001D01*
X28969Y63046D01*
X28873Y63110D01*
X28790Y63193D01*
X28725Y63290D01*
X28681Y63398D01*
X28658Y63512D01*
Y63570D01*
Y76430D01*
Y76488D01*
X28681Y76602D01*
X28725Y76710D01*
X28790Y76807D01*
X28873Y76890D01*
X28969Y76954D01*
X29077Y76999D01*
X29192Y77022D01*
X34250D01*
X34260Y77024D01*
X34270Y77022D01*
X34368Y77027D01*
X34397Y77035D01*
X34428D01*
X34620Y77073D01*
X34657Y77088D01*
X34696Y77096D01*
X34877Y77171D01*
X34911Y77193D01*
X34948Y77209D01*
X35111Y77318D01*
X35139Y77346D01*
X35173Y77368D01*
X35311Y77507D01*
X35334Y77540D01*
X35362Y77569D01*
X35471Y77732D01*
X35486Y77769D01*
X35509Y77802D01*
X35584Y77983D01*
X35592Y78023D01*
X35607Y78060D01*
X35645Y78252D01*
Y78282D01*
X35653Y78312D01*
X35657Y78410D01*
X35656Y78420D01*
X35658Y78430D01*
Y79052D01*
X35681Y79167D01*
X35725Y79274D01*
X35790Y79371D01*
X35873Y79454D01*
X35970Y79519D01*
X36077Y79563D01*
X36192Y79586D01*
X114308D01*
X114423Y79563D01*
D02*
G37*
G36*
X43951Y51032D02*
X44186Y50828D01*
X44439Y50647D01*
X44709Y50492D01*
X44993Y50364D01*
X45288Y50265D01*
X45592Y50195D01*
X45900Y50155D01*
X46056Y50146D01*
X46821D01*
Y49856D01*
X46056Y49854D01*
X45901Y49846D01*
X45592Y49806D01*
X45289Y49736D01*
X44994Y49636D01*
X44710Y49508D01*
X44440Y49353D01*
X44186Y49173D01*
X43951Y48968D01*
X43842Y48857D01*
X42225Y48857D01*
Y51143D01*
X43842D01*
X43951Y51032D01*
D02*
G37*
G36*
X108275Y51143D02*
Y48857D01*
X106658Y48857D01*
X106549Y48968D01*
X106314Y49172D01*
X106061Y49353D01*
X105791Y49508D01*
X105507Y49636D01*
X105212Y49735D01*
X104908Y49805D01*
X104808Y49818D01*
Y49858D01*
X103679D01*
Y50143D01*
X104444Y50146D01*
X104599Y50154D01*
X104908Y50194D01*
X105211Y50264D01*
X105506Y50364D01*
X105790Y50492D01*
X106060Y50647D01*
X106314Y50827D01*
X106549Y51032D01*
X106658Y51143D01*
X108275Y51143D01*
D02*
G37*
G36*
X55002Y49306D02*
X55355Y49198D01*
X55680Y49025D01*
X55966Y48791D01*
X56200Y48505D01*
X56373Y48180D01*
X56481Y47827D01*
X56516Y47469D01*
X56515Y47460D01*
Y44315D01*
X56510D01*
X56550Y43814D01*
X56667Y43325D01*
X56860Y42860D01*
X57122Y42431D01*
X57449Y42049D01*
X57831Y41722D01*
X58260Y41460D01*
X58725Y41267D01*
X59214Y41150D01*
X59715Y41110D01*
Y41115D01*
X63113D01*
Y41017D01*
X63589D01*
X63624Y41010D01*
X63659Y41017D01*
X63683D01*
X63703Y41016D01*
X63705Y41017D01*
X64497D01*
X64521Y41012D01*
X65021D01*
X65045Y41017D01*
X65263D01*
Y40782D01*
X65256Y40747D01*
X65258Y40736D01*
Y40250D01*
X65263Y40226D01*
Y39774D01*
X65258Y39750D01*
Y39250D01*
X65263Y39226D01*
Y39147D01*
Y38983D01*
X65027D01*
X64993Y38990D01*
X64982Y38988D01*
X64496D01*
X64472Y38983D01*
X63680D01*
X63678Y38984D01*
X63658Y38983D01*
X63633D01*
X63599Y38990D01*
X63564Y38983D01*
X63088D01*
Y38885D01*
X59715D01*
Y38890D01*
X59214Y38850D01*
X58725Y38733D01*
X58260Y38540D01*
X57831Y38278D01*
X57449Y37951D01*
X57122Y37569D01*
X56860Y37140D01*
X56667Y36675D01*
X56550Y36186D01*
X56510Y35685D01*
X56515D01*
Y12540D01*
X56516Y12531D01*
X56481Y12173D01*
X56373Y11820D01*
X56200Y11495D01*
X55966Y11209D01*
X55680Y10975D01*
X55355Y10802D01*
X55002Y10694D01*
X54644Y10659D01*
X54635Y10660D01*
X46841D01*
X46821Y10664D01*
X46070D01*
X45948Y10671D01*
X45683Y10705D01*
X45430Y10764D01*
X45183Y10847D01*
X44945Y10954D01*
X44719Y11083D01*
X44507Y11235D01*
X44491Y11249D01*
X44350Y11372D01*
D01*
Y11651D01*
X43894D01*
X43845Y11661D01*
X43843Y11661D01*
X43842Y11661D01*
X42225D01*
X42175Y11651D01*
X35658D01*
Y21570D01*
X35656Y21580D01*
X35657Y21590D01*
X35653Y21688D01*
X35645Y21718D01*
Y21748D01*
X35607Y21940D01*
X35592Y21977D01*
X35584Y22017D01*
X35509Y22198D01*
X35486Y22231D01*
X35471Y22268D01*
X35362Y22431D01*
X35334Y22460D01*
X35311Y22493D01*
X35173Y22632D01*
X35139Y22654D01*
X35111Y22682D01*
X34948Y22791D01*
X34911Y22807D01*
X34877Y22829D01*
X34696Y22904D01*
X34657Y22912D01*
X34620Y22927D01*
X34428Y22965D01*
X34397D01*
X34368Y22973D01*
X34270Y22978D01*
X34260Y22976D01*
X34250Y22978D01*
X29192D01*
X29077Y23001D01*
X28969Y23046D01*
X28873Y23110D01*
X28790Y23193D01*
X28725Y23290D01*
X28681Y23398D01*
X28658Y23512D01*
Y23570D01*
Y36430D01*
Y36488D01*
X28681Y36602D01*
X28725Y36710D01*
X28790Y36807D01*
X28873Y36890D01*
X28969Y36954D01*
X29077Y36999D01*
X29192Y37022D01*
X34250D01*
X34260Y37024D01*
X34270Y37022D01*
X34368Y37027D01*
X34397Y37035D01*
X34428D01*
X34620Y37073D01*
X34657Y37088D01*
X34696Y37096D01*
X34877Y37171D01*
X34911Y37193D01*
X34948Y37209D01*
X35111Y37318D01*
X35139Y37346D01*
X35173Y37368D01*
X35311Y37507D01*
X35334Y37540D01*
X35362Y37569D01*
X35471Y37732D01*
X35486Y37769D01*
X35509Y37802D01*
X35584Y37983D01*
X35592Y38023D01*
X35607Y38060D01*
X35645Y38252D01*
Y38282D01*
X35653Y38312D01*
X35657Y38410D01*
X35656Y38420D01*
X35658Y38430D01*
Y47835D01*
Y48349D01*
X42175D01*
X42225Y48339D01*
X43842Y48339D01*
X43844Y48339D01*
X43845Y48339D01*
X43894Y48349D01*
X44350D01*
Y48628D01*
X44507Y48766D01*
X44720Y48917D01*
X44945Y49047D01*
X45183Y49154D01*
X45430Y49237D01*
X45684Y49295D01*
X45948Y49330D01*
X46071Y49336D01*
X46823Y49339D01*
X46828Y49340D01*
X54635D01*
X54644Y49341D01*
X55002Y49306D01*
D02*
G37*
G36*
X72922Y43503D02*
X72913Y43498D01*
X72905Y43483D01*
X72898Y43458D01*
X72892Y43423D01*
X72887Y43378D01*
X72877Y43183D01*
X72875Y43003D01*
X72375D01*
X72372Y43098D01*
X72365Y43184D01*
X72352Y43259D01*
X72335Y43325D01*
X72312Y43380D01*
X72285Y43425D01*
X72252Y43460D01*
X72215Y43486D01*
X72172Y43501D01*
X72125Y43506D01*
X72922Y43503D01*
D02*
G37*
G36*
X79203Y41859D02*
X79229Y41835D01*
X79258Y41813D01*
X79290Y41793D01*
X79325Y41777D01*
X79363Y41764D01*
X79404Y41754D01*
X79448Y41747D01*
X79496Y41742D01*
X79546Y41741D01*
Y41447D01*
X79496Y41446D01*
X79448Y41441D01*
X79404Y41434D01*
X79363Y41424D01*
X79325Y41411D01*
X79290Y41394D01*
X79258Y41375D01*
X79229Y41353D01*
X79203Y41328D01*
X79180Y41301D01*
Y41435D01*
X78962Y41423D01*
X78952Y41417D01*
Y41771D01*
X78962Y41765D01*
X78982Y41760D01*
X79012Y41755D01*
X79098Y41748D01*
X79180Y41746D01*
Y41887D01*
X79203Y41859D01*
D02*
G37*
G36*
X63624Y41528D02*
X63621Y41547D01*
X63612Y41564D01*
X63597Y41579D01*
X63577Y41592D01*
X63550Y41603D01*
X63518Y41612D01*
X63480Y41619D01*
X63436Y41624D01*
X63386Y41627D01*
X63330Y41628D01*
Y41922D01*
X63386Y41923D01*
X63480Y41931D01*
X63518Y41938D01*
X63550Y41947D01*
X63577Y41958D01*
X63597Y41971D01*
X63612Y41986D01*
X63621Y42003D01*
X63624Y42022D01*
Y41528D01*
D02*
G37*
G36*
X78370Y41769D02*
X78373Y41771D01*
Y41417D01*
X78370Y41419D01*
Y41301D01*
X78347Y41328D01*
X78321Y41353D01*
X78292Y41375D01*
X78260Y41394D01*
X78225Y41411D01*
X78187Y41424D01*
X78146Y41434D01*
X78102Y41441D01*
X78079Y41443D01*
X77942Y41447D01*
X77848Y41447D01*
Y41741D01*
X77942Y41741D01*
X78135Y41752D01*
X78146Y41754D01*
X78187Y41764D01*
X78225Y41777D01*
X78260Y41793D01*
X78292Y41813D01*
X78321Y41835D01*
X78347Y41859D01*
X78370Y41887D01*
Y41769D01*
D02*
G37*
G36*
X71478Y41347D02*
X71475Y41366D01*
X71466Y41383D01*
X71452Y41399D01*
X71431Y41412D01*
X71405Y41423D01*
X71372Y41432D01*
X71334Y41439D01*
X71290Y41445D01*
X71240Y41448D01*
X71185Y41449D01*
Y41742D01*
X71240Y41743D01*
X71334Y41751D01*
X71372Y41758D01*
X71405Y41767D01*
X71431Y41777D01*
X71452Y41790D01*
X71466Y41805D01*
X71475Y41822D01*
X71478Y41841D01*
Y41347D01*
D02*
G37*
G36*
X69338Y41317D02*
X69316Y41345D01*
X69291Y41371D01*
X69262Y41393D01*
X69231Y41412D01*
X69196Y41429D01*
X69158Y41442D01*
X69117Y41453D01*
X69073Y41460D01*
X69025Y41464D01*
X68975Y41466D01*
X68983Y41759D01*
X69033Y41761D01*
X69081Y41765D01*
X69125Y41772D01*
X69167Y41782D01*
X69205Y41795D01*
X69241Y41811D01*
X69273Y41830D01*
X69303Y41852D01*
X69329Y41876D01*
X69353Y41904D01*
X69338Y41317D01*
D02*
G37*
G36*
X70178Y41864D02*
X70204Y41839D01*
X70233Y41817D01*
X70265Y41798D01*
X70300Y41782D01*
X70338Y41768D01*
X70380Y41758D01*
X70424Y41750D01*
X70471Y41746D01*
X70522Y41744D01*
X70521Y41451D01*
X70470Y41450D01*
X70423Y41445D01*
X70379Y41438D01*
X70337Y41428D01*
X70299Y41415D01*
X70264Y41399D01*
X70232Y41380D01*
X70203Y41358D01*
X70177Y41333D01*
X70154Y41305D01*
X70156Y41892D01*
X70178Y41864D01*
D02*
G37*
G36*
X76872Y41859D02*
X76881Y41835D01*
X76896Y41813D01*
X76916Y41793D01*
X76943Y41777D01*
X76976Y41764D01*
X77014Y41754D01*
X77059Y41747D01*
X77109Y41742D01*
X77165Y41741D01*
Y41447D01*
X77109Y41446D01*
X77059Y41441D01*
X77014Y41434D01*
X76976Y41424D01*
X76943Y41411D01*
X76916Y41394D01*
X76896Y41375D01*
X76881Y41353D01*
X76872Y41328D01*
X76869Y41301D01*
Y41887D01*
X76872Y41859D01*
D02*
G37*
G36*
X66249Y41525D02*
X66232Y41516D01*
X66217Y41502D01*
X66204Y41481D01*
X66193Y41455D01*
X66184Y41422D01*
X66177Y41384D01*
X66172Y41340D01*
X66169Y41290D01*
X66168Y41235D01*
X65874D01*
X65873Y41290D01*
X65865Y41384D01*
X65858Y41422D01*
X65849Y41455D01*
X65838Y41481D01*
X65825Y41502D01*
X65810Y41516D01*
X65793Y41525D01*
X65774Y41528D01*
X66268D01*
X66249Y41525D01*
D02*
G37*
G36*
X73631Y41094D02*
X73626Y41141D01*
X73611Y41184D01*
X73586Y41221D01*
X73551Y41254D01*
X73505Y41281D01*
X73450Y41304D01*
X73385Y41321D01*
X73309Y41334D01*
X73224Y41341D01*
X73128Y41344D01*
Y41844D01*
X73224Y41846D01*
X73309Y41854D01*
X73385Y41866D01*
X73450Y41884D01*
X73505Y41906D01*
X73551Y41934D01*
X73586Y41966D01*
X73611Y42004D01*
X73626Y42046D01*
X73631Y42094D01*
Y41094D01*
D02*
G37*
G36*
X96005Y41234D02*
X96013Y41141D01*
X96020Y41102D01*
X96029Y41070D01*
X96040Y41044D01*
X96054Y41023D01*
X96069Y41009D01*
X96086Y41000D01*
X96105Y40997D01*
X95611D01*
X95630Y41000D01*
X95647Y41009D01*
X95662Y41023D01*
X95675Y41044D01*
X95686Y41070D01*
X95695Y41102D01*
X95702Y41141D01*
X95707Y41184D01*
X95710Y41234D01*
X95711Y41290D01*
X96004D01*
X96005Y41234D01*
D02*
G37*
G36*
X66169Y40985D02*
X66177Y40891D01*
X66184Y40853D01*
X66193Y40820D01*
X66204Y40794D01*
X66217Y40773D01*
X66232Y40759D01*
X66249Y40750D01*
X66268Y40747D01*
X65774D01*
X65793Y40750D01*
X65810Y40759D01*
X65825Y40773D01*
X65838Y40794D01*
X65849Y40820D01*
X65858Y40853D01*
X65865Y40891D01*
X65870Y40935D01*
X65873Y40985D01*
X65874Y41040D01*
X66168D01*
X66169Y40985D01*
D02*
G37*
G36*
X78950Y41189D02*
X79068D01*
X79040Y41166D01*
X79016Y41140D01*
X78994Y41111D01*
X78974Y41079D01*
X78958Y41044D01*
X78945Y41006D01*
X78935Y40965D01*
X78928Y40921D01*
X78925Y40898D01*
X78922Y40761D01*
X78922Y40667D01*
X78628D01*
X78628Y40761D01*
X78617Y40954D01*
X78615Y40965D01*
X78605Y41006D01*
X78592Y41044D01*
X78576Y41079D01*
X78556Y41111D01*
X78534Y41140D01*
X78509Y41166D01*
X78482Y41189D01*
X78600D01*
X78598Y41192D01*
X78952D01*
X78950Y41189D01*
D02*
G37*
G36*
X80378Y40444D02*
X80361Y40435D01*
X80346Y40421D01*
X80333Y40400D01*
X80322Y40374D01*
X80313Y40341D01*
X80306Y40303D01*
X80301Y40259D01*
X80298Y40209D01*
X80297Y40154D01*
X80003D01*
X80002Y40209D01*
X79994Y40303D01*
X79987Y40341D01*
X79978Y40374D01*
X79967Y40400D01*
X79954Y40421D01*
X79939Y40435D01*
X79922Y40444D01*
X79903Y40447D01*
X80397D01*
X80378Y40444D01*
D02*
G37*
G36*
X85550Y39503D02*
X85559Y39486D01*
X85573Y39471D01*
X85594Y39458D01*
X85620Y39447D01*
X85652Y39438D01*
X85691Y39431D01*
X85735Y39426D01*
X85784Y39423D01*
X85840Y39422D01*
Y39128D01*
X85784Y39127D01*
X85691Y39119D01*
X85652Y39112D01*
X85620Y39103D01*
X85594Y39092D01*
X85573Y39079D01*
X85559Y39064D01*
X85550Y39047D01*
X85547Y39028D01*
Y39522D01*
X85550Y39503D01*
D02*
G37*
G36*
X84153Y39028D02*
X84150Y39047D01*
X84141Y39064D01*
X84127Y39079D01*
X84106Y39092D01*
X84080Y39103D01*
X84047Y39112D01*
X84009Y39119D01*
X83965Y39124D01*
X83915Y39127D01*
X83860Y39128D01*
Y39422D01*
X83915Y39423D01*
X84009Y39431D01*
X84047Y39438D01*
X84080Y39447D01*
X84106Y39458D01*
X84127Y39471D01*
X84141Y39486D01*
X84150Y39503D01*
X84153Y39522D01*
Y39028D01*
D02*
G37*
G36*
X88822Y39541D02*
X88831Y39516D01*
X88846Y39494D01*
X88866Y39474D01*
X88893Y39458D01*
X88926Y39445D01*
X88964Y39435D01*
X89009Y39428D01*
X89059Y39423D01*
X89115Y39422D01*
Y39128D01*
X89059Y39127D01*
X89009Y39122D01*
X88964Y39115D01*
X88926Y39105D01*
X88893Y39092D01*
X88866Y39076D01*
X88846Y39056D01*
X88831Y39034D01*
X88822Y39009D01*
X88819Y38982D01*
Y39568D01*
X88822Y39541D01*
D02*
G37*
G36*
X87831Y38982D02*
X87828Y39009D01*
X87819Y39034D01*
X87804Y39056D01*
X87784Y39076D01*
X87757Y39092D01*
X87724Y39105D01*
X87686Y39115D01*
X87641Y39122D01*
X87591Y39127D01*
X87535Y39128D01*
Y39422D01*
X87591Y39423D01*
X87641Y39428D01*
X87686Y39435D01*
X87724Y39445D01*
X87757Y39458D01*
X87784Y39474D01*
X87804Y39494D01*
X87819Y39516D01*
X87828Y39541D01*
X87831Y39568D01*
Y38982D01*
D02*
G37*
G36*
X80298Y39996D02*
X80302Y39948D01*
X80310Y39904D01*
X80320Y39863D01*
X80333Y39825D01*
X80349Y39790D01*
X80368Y39758D01*
X80390Y39729D01*
X80415Y39703D01*
X80443Y39680D01*
X80309Y39680D01*
X80321Y39462D01*
X80327Y39452D01*
X80337Y39446D01*
X80357Y39441D01*
X80387Y39436D01*
X80473Y39429D01*
X80555Y39427D01*
Y39568D01*
X80578Y39541D01*
X80604Y39516D01*
X80633Y39494D01*
X80665Y39474D01*
X80700Y39458D01*
X80738Y39445D01*
X80779Y39435D01*
X80823Y39428D01*
X80871Y39423D01*
X80921Y39422D01*
Y39128D01*
X80871Y39127D01*
X80823Y39122D01*
X80779Y39115D01*
X80738Y39105D01*
X80700Y39092D01*
X80665Y39076D01*
X80633Y39056D01*
X80604Y39034D01*
X80578Y39009D01*
X80555Y38982D01*
Y39116D01*
X80337Y39104D01*
X80327Y39098D01*
X80321Y39088D01*
X80316Y39068D01*
X80311Y39038D01*
X80304Y38952D01*
X80302Y38870D01*
X80443D01*
X80415Y38847D01*
X80391Y38821D01*
X80369Y38792D01*
X80349Y38760D01*
X80333Y38725D01*
X80320Y38687D01*
X80310Y38646D01*
X80303Y38602D01*
X80298Y38554D01*
X80297Y38504D01*
X80003D01*
X80002Y38554D01*
X79997Y38602D01*
X79990Y38646D01*
X79980Y38687D01*
X79967Y38725D01*
X79951Y38760D01*
X79931Y38792D01*
X79909Y38821D01*
X79884Y38847D01*
X79857Y38870D01*
X79991D01*
X79979Y39088D01*
X79973Y39098D01*
X80327D01*
Y39452D01*
X79973D01*
X79979Y39462D01*
X79984Y39482D01*
X79988Y39512D01*
X79996Y39598D01*
X79998Y39680D01*
X79857Y39680D01*
X79884Y39703D01*
X79909Y39729D01*
X79931Y39757D01*
X79950Y39790D01*
X79967Y39825D01*
X79980Y39863D01*
X79990Y39904D01*
X79997Y39948D01*
X80002Y39996D01*
X80003Y40046D01*
X80297Y40046D01*
X80298Y39996D01*
D02*
G37*
G36*
X67566Y41043D02*
X67570Y41041D01*
X67571Y41040D01*
D01*
X67591Y41027D01*
X67704Y40980D01*
X67704Y40980D01*
X67704Y40980D01*
X67728Y40975D01*
X67729Y40975D01*
X67733Y40974D01*
X67809Y40959D01*
X67900Y40941D01*
X67900Y40941D01*
X67900Y40941D01*
X67900Y40941D01*
X68977D01*
X69013Y40905D01*
X69013Y40905D01*
X69055Y40863D01*
X69055Y40863D01*
X69105Y40813D01*
X69105Y40813D01*
X69154Y40780D01*
X69270Y40703D01*
D01*
X69270Y40703D01*
X69455Y40626D01*
X69479Y40621D01*
D01*
X69591Y40599D01*
X69626Y40592D01*
D01*
X69650Y40587D01*
X69850D01*
X69874Y40592D01*
D01*
X69909Y40599D01*
X70021Y40621D01*
D01*
X70045Y40626D01*
X70230Y40703D01*
X70230Y40703D01*
X70250Y40716D01*
X70336Y40773D01*
X70375Y40800D01*
X70395Y40813D01*
X70395Y40813D01*
X70445Y40863D01*
X70445Y40863D01*
X70487Y40905D01*
D01*
X70508Y40926D01*
X70967Y40925D01*
Y40836D01*
X71443D01*
X71478Y40829D01*
X71489Y40831D01*
X71975D01*
X71999Y40836D01*
X72575D01*
X72625Y40829D01*
X73100D01*
X73115Y40826D01*
X73117Y40826D01*
Y40086D01*
X75133D01*
Y40086D01*
Y40394D01*
X75367D01*
Y40086D01*
X75851D01*
X75875Y40081D01*
X76875D01*
X76899Y40086D01*
X77318D01*
X77398Y40042D01*
X77421Y39975D01*
Y39652D01*
X77925D01*
Y39398D01*
X77421D01*
Y39099D01*
X77415Y39082D01*
X77311Y38981D01*
X77288Y38981D01*
X77216Y38987D01*
X77159Y38997D01*
X77115Y39009D01*
X77087Y39020D01*
X77075Y39027D01*
Y39594D01*
X75133D01*
Y39902D01*
X73117D01*
Y39162D01*
X73115Y39162D01*
X73100Y39159D01*
X72625D01*
X72575Y39152D01*
X71999D01*
X71975Y39157D01*
X71489D01*
X71478Y39159D01*
X71443Y39152D01*
X70967D01*
Y39152D01*
X70883Y39068D01*
X70513Y39069D01*
X70487Y39095D01*
X70487D01*
X70445Y39137D01*
X70445Y39137D01*
X70395Y39187D01*
X70395Y39187D01*
X70346Y39220D01*
D01*
X70230Y39297D01*
X70230Y39297D01*
X70165Y39324D01*
X70045Y39374D01*
X70021Y39379D01*
D01*
X69987Y39386D01*
D01*
X69850Y39413D01*
X69650D01*
X69513Y39386D01*
D01*
X69479Y39379D01*
D01*
X69455Y39374D01*
X69335Y39324D01*
X69270Y39297D01*
X69270Y39297D01*
X69220Y39264D01*
X69105Y39187D01*
X69105Y39187D01*
X69055Y39137D01*
X69055Y39137D01*
X69013Y39095D01*
X69013D01*
X68989Y39072D01*
X67900D01*
X67733Y39038D01*
X67729Y39038D01*
X67728Y39037D01*
X67704Y39033D01*
X67704Y39033D01*
X67592Y38986D01*
X67591Y38986D01*
X67571Y38972D01*
X67570Y38972D01*
X67566Y38969D01*
X67458Y38897D01*
X66779D01*
Y39147D01*
Y39226D01*
X66784Y39250D01*
Y39510D01*
Y39750D01*
X66779Y39774D01*
Y40226D01*
X66784Y40250D01*
Y40736D01*
X66786Y40747D01*
X66779Y40782D01*
Y41103D01*
X67477D01*
X67566Y41043D01*
D02*
G37*
G36*
X95698Y39482D02*
X95698Y39482D01*
X95698Y39482D01*
X95660Y39441D01*
X95631Y39399D01*
X95611Y39358D01*
X95598Y39316D01*
X95594Y39275D01*
X95598Y39234D01*
X95611Y39192D01*
X95631Y39151D01*
X95660Y39109D01*
X95698Y39068D01*
X95698Y39068D01*
X95698Y39068D01*
X95430Y38921D01*
X95387Y38960D01*
X95343Y38996D01*
X95297Y39027D01*
X95250Y39054D01*
X95201Y39076D01*
X95150Y39095D01*
X95097Y39110D01*
X95043Y39120D01*
X94987Y39126D01*
X94929Y39128D01*
X94929Y39422D01*
X94929D01*
Y39422D01*
X94987Y39424D01*
X95043Y39430D01*
X95097Y39440D01*
X95150Y39455D01*
X95201Y39474D01*
X95250Y39496D01*
X95297Y39523D01*
X95343Y39554D01*
X95387Y39590D01*
X95430Y39629D01*
X95698Y39482D01*
D02*
G37*
G36*
X66169Y38710D02*
X66177Y38616D01*
X66184Y38578D01*
X66193Y38545D01*
X66204Y38519D01*
X66217Y38498D01*
X66232Y38484D01*
X66249Y38475D01*
X66268Y38472D01*
X65774D01*
X65793Y38475D01*
X65810Y38484D01*
X65825Y38498D01*
X65838Y38519D01*
X65849Y38545D01*
X65858Y38578D01*
X65865Y38616D01*
X65870Y38660D01*
X65873Y38710D01*
X65874Y38765D01*
X66168D01*
X66169Y38710D01*
D02*
G37*
G36*
X71478Y38147D02*
X71475Y38166D01*
X71466Y38183D01*
X71452Y38199D01*
X71431Y38212D01*
X71405Y38223D01*
X71372Y38232D01*
X71334Y38239D01*
X71290Y38245D01*
X71240Y38248D01*
X71185Y38249D01*
Y38542D01*
X71240Y38543D01*
X71334Y38551D01*
X71372Y38558D01*
X71405Y38567D01*
X71431Y38577D01*
X71452Y38590D01*
X71466Y38605D01*
X71475Y38622D01*
X71478Y38641D01*
Y38147D01*
D02*
G37*
G36*
X92792Y38517D02*
X93046D01*
Y38502D01*
X93550D01*
Y38375D01*
D01*
X93677D01*
Y37871D01*
X94054D01*
Y37871D01*
Y38192D01*
D01*
X94061Y38204D01*
X94099Y38243D01*
X94181Y38278D01*
X94184Y38276D01*
X95013Y38070D01*
X95029Y38069D01*
X95052Y38063D01*
X95100Y38060D01*
Y37634D01*
X95099Y37632D01*
X95100Y37611D01*
Y37588D01*
X95093Y37553D01*
X95100Y37518D01*
Y37256D01*
D01*
Y37042D01*
X95198D01*
Y12540D01*
X95193D01*
X95233Y12039D01*
X95350Y11550D01*
X95543Y11085D01*
X95805Y10657D01*
X96132Y10274D01*
X96514Y9948D01*
X96943Y9685D01*
X97408Y9492D01*
X97896Y9375D01*
X98398Y9336D01*
Y9340D01*
X103292D01*
Y9242D01*
X104808D01*
Y9242D01*
X104935Y9268D01*
X105070Y9236D01*
X105317Y9153D01*
X105555Y9046D01*
X105781Y8917D01*
X105993Y8765D01*
X106150Y8628D01*
Y8349D01*
X106606D01*
X106655Y8339D01*
X106657Y8339D01*
X106658Y8339D01*
X108275Y8339D01*
X108325Y8349D01*
X114842D01*
Y7876D01*
Y994D01*
Y936D01*
X114819Y821D01*
X114775Y713D01*
X114710Y616D01*
X114627Y534D01*
X114531Y469D01*
X114423Y425D01*
X114308Y402D01*
X36192D01*
X36077Y425D01*
X35970Y469D01*
X35873Y534D01*
X35790Y616D01*
X35725Y713D01*
X35681Y821D01*
X35658Y936D01*
Y994D01*
Y7835D01*
Y8349D01*
X42175D01*
X42225Y8339D01*
X43842Y8339D01*
X43844Y8339D01*
X43845Y8339D01*
X43894Y8349D01*
X44350D01*
Y8628D01*
X44507Y8766D01*
X44720Y8917D01*
X44945Y9047D01*
X45183Y9154D01*
X45430Y9237D01*
X45684Y9295D01*
X45803Y9311D01*
X45828Y9319D01*
X45844Y9322D01*
X45852Y9323D01*
X45882Y9321D01*
X45948Y9330D01*
X46071Y9336D01*
X46823Y9339D01*
X46828Y9340D01*
X54635D01*
Y9335D01*
X55136Y9375D01*
X55625Y9492D01*
X56090Y9685D01*
X56519Y9947D01*
X56901Y10274D01*
X57228Y10656D01*
X57490Y11085D01*
X57683Y11550D01*
X57800Y12039D01*
X57840Y12540D01*
X57835D01*
Y35685D01*
X57834Y35694D01*
X57869Y36052D01*
X57977Y36405D01*
X58150Y36730D01*
X58384Y37016D01*
X58670Y37250D01*
X58995Y37423D01*
X59348Y37531D01*
X59706Y37566D01*
X59715Y37565D01*
X63088D01*
Y37467D01*
X63564D01*
X63599Y37460D01*
X63633Y37467D01*
X63658D01*
X63678Y37466D01*
X63680Y37467D01*
X64472D01*
X64496Y37462D01*
X64982D01*
X64993Y37460D01*
X65027Y37467D01*
X65263D01*
Y37467D01*
X65517D01*
Y37352D01*
X66021D01*
X66525D01*
Y37467D01*
X66779D01*
Y37553D01*
X67725D01*
X67892Y37587D01*
X67896Y37587D01*
X67897Y37588D01*
X67921Y37592D01*
X67921Y37592D01*
X68033Y37639D01*
X68034Y37639D01*
X68054Y37653D01*
X68055Y37653D01*
X68059Y37656D01*
X68167Y37728D01*
X68989D01*
X69013Y37705D01*
X69013D01*
X69055Y37663D01*
X69055Y37663D01*
X69105Y37613D01*
X69105Y37613D01*
X69220Y37536D01*
D01*
X69270Y37503D01*
X69270Y37503D01*
X69335Y37476D01*
D01*
X69455Y37426D01*
X69479Y37421D01*
D01*
X69591Y37399D01*
X69626Y37392D01*
D01*
X69650Y37387D01*
X69850D01*
X69874Y37392D01*
D01*
X69909Y37399D01*
X70021Y37421D01*
D01*
X70045Y37426D01*
X70165Y37476D01*
D01*
X70230Y37503D01*
X70230Y37503D01*
X70280Y37536D01*
D01*
X70395Y37613D01*
X70395Y37613D01*
X70445Y37663D01*
X70445Y37663D01*
X70487Y37705D01*
D01*
X70508Y37726D01*
X70967Y37725D01*
Y37636D01*
X71443D01*
X71478Y37629D01*
X71489Y37631D01*
X71975D01*
X71999Y37636D01*
X72575D01*
X72625Y37629D01*
X73100D01*
X73115Y37626D01*
X73117Y37626D01*
Y36886D01*
X73360D01*
Y36129D01*
Y33775D01*
X73357Y33760D01*
X73357Y33758D01*
X73117D01*
Y33282D01*
X73110Y33247D01*
X73116Y33220D01*
X73113Y33192D01*
X73117Y33179D01*
Y32604D01*
X72975D01*
Y31500D01*
X73504D01*
Y31742D01*
X74746D01*
Y31500D01*
X75275D01*
Y32604D01*
X75133D01*
Y33179D01*
X75137Y33192D01*
X75134Y33220D01*
X75140Y33247D01*
X75133Y33282D01*
Y33758D01*
X74893D01*
X74893Y33760D01*
X74890Y33775D01*
Y34072D01*
X75191D01*
X75193Y34071D01*
X75213Y34072D01*
X75237D01*
X75272Y34065D01*
X75307Y34072D01*
X75783D01*
Y34170D01*
X76042D01*
Y34072D01*
X76518D01*
X76553Y34065D01*
X76588Y34072D01*
X76612D01*
X76632Y34071D01*
X76634Y34072D01*
X77526D01*
X77550Y34067D01*
X78036D01*
X78047Y34065D01*
X78082Y34072D01*
X78558D01*
Y34189D01*
X78572Y34192D01*
X78576Y34192D01*
X78577Y34193D01*
X78601Y34198D01*
X78601Y34198D01*
X78714Y34244D01*
X78714Y34244D01*
X78734Y34258D01*
X78735Y34258D01*
X78739Y34261D01*
X78880Y34355D01*
X78880Y34355D01*
X80625Y36100D01*
X80625Y36100D01*
X80719Y36241D01*
X80722Y36245D01*
X80722Y36246D01*
X80736Y36266D01*
X80783Y36379D01*
X80783Y36379D01*
X80787Y36403D01*
X80788Y36404D01*
D01*
X80788Y36408D01*
X80822Y36575D01*
Y38514D01*
X80845Y38538D01*
D01*
X80887Y38580D01*
D01*
X80911Y38603D01*
X81492D01*
Y38517D01*
X81976D01*
X82000Y38512D01*
X82500D01*
X82524Y38517D01*
X83008D01*
Y38603D01*
X83642D01*
Y38517D01*
X84118D01*
X84153Y38510D01*
X84164Y38512D01*
X84650D01*
X84674Y38517D01*
X85026D01*
X85050Y38512D01*
X85536D01*
X85547Y38510D01*
X85582Y38517D01*
X86058D01*
Y38603D01*
X87317D01*
Y38267D01*
X87801D01*
X87825Y38262D01*
X88471D01*
Y38125D01*
X89825D01*
X91179D01*
Y38603D01*
X92792D01*
Y38517D01*
D02*
G37*
G36*
X69345Y38107D02*
X69322Y38134D01*
X69296Y38159D01*
X69267Y38181D01*
X69235Y38201D01*
X69200Y38217D01*
X69162Y38230D01*
X69121Y38240D01*
X69077Y38247D01*
X69029Y38252D01*
X68979Y38253D01*
Y38547D01*
X69029Y38548D01*
X69077Y38553D01*
X69121Y38560D01*
X69162Y38570D01*
X69200Y38583D01*
X69235Y38599D01*
X69267Y38619D01*
X69296Y38641D01*
X69322Y38666D01*
X69345Y38693D01*
Y38107D01*
D02*
G37*
G36*
X70178Y38664D02*
X70204Y38639D01*
X70233Y38617D01*
X70265Y38598D01*
X70300Y38582D01*
X70338Y38568D01*
X70380Y38558D01*
X70424Y38550D01*
X70471Y38546D01*
X70522Y38544D01*
X70521Y38251D01*
X70470Y38250D01*
X70423Y38245D01*
X70379Y38238D01*
X70337Y38228D01*
X70299Y38215D01*
X70264Y38199D01*
X70232Y38180D01*
X70203Y38158D01*
X70177Y38133D01*
X70154Y38105D01*
X70156Y38692D01*
X70178Y38664D01*
D02*
G37*
G36*
X76874Y38978D02*
X76889Y38935D01*
X76914Y38897D01*
X76949Y38865D01*
X76995Y38838D01*
X77050Y38815D01*
X77115Y38798D01*
X77191Y38785D01*
X77276Y38778D01*
X77372Y38775D01*
Y38275D01*
X77276Y38272D01*
X77191Y38265D01*
X77115Y38252D01*
X77050Y38235D01*
X76995Y38213D01*
X76949Y38185D01*
X76914Y38153D01*
X76889Y38115D01*
X76874Y38072D01*
X76869Y38025D01*
Y39025D01*
X76874Y38978D01*
D02*
G37*
G36*
X64996Y38453D02*
X65004Y38436D01*
X65019Y38421D01*
X65040Y38408D01*
X65066Y38397D01*
X65098Y38388D01*
X65136Y38381D01*
X65180Y38376D01*
X65230Y38373D01*
X65286Y38372D01*
Y38078D01*
X65230Y38077D01*
X65136Y38069D01*
X65098Y38062D01*
X65066Y38053D01*
X65040Y38042D01*
X65019Y38029D01*
X65004Y38014D01*
X64996Y37997D01*
X64993Y37978D01*
Y38472D01*
X64996Y38453D01*
D02*
G37*
G36*
X63599Y37978D02*
X63596Y37997D01*
X63587Y38014D01*
X63572Y38029D01*
X63552Y38042D01*
X63525Y38053D01*
X63493Y38062D01*
X63455Y38069D01*
X63411Y38074D01*
X63361Y38077D01*
X63305Y38078D01*
Y38372D01*
X63361Y38373D01*
X63455Y38381D01*
X63493Y38388D01*
X63525Y38397D01*
X63552Y38408D01*
X63572Y38421D01*
X63587Y38436D01*
X63596Y38453D01*
X63599Y38472D01*
Y37978D01*
D02*
G37*
G36*
X73631Y37894D02*
X73626Y37941D01*
X73611Y37984D01*
X73586Y38021D01*
X73551Y38054D01*
X73505Y38081D01*
X73450Y38104D01*
X73385Y38121D01*
X73309Y38134D01*
X73224Y38141D01*
X73128Y38144D01*
Y38644D01*
X73224Y38646D01*
X73309Y38654D01*
X73385Y38666D01*
X73450Y38684D01*
X73505Y38706D01*
X73551Y38734D01*
X73586Y38766D01*
X73611Y38804D01*
X73626Y38846D01*
X73631Y38894D01*
Y37894D01*
D02*
G37*
G36*
X96086Y37550D02*
X96069Y37541D01*
X96053Y37527D01*
X96040Y37506D01*
X96029Y37480D01*
X96020Y37448D01*
X96013Y37410D01*
X96008Y37366D01*
X96005Y37316D01*
X96004Y37260D01*
X95711D01*
X95710Y37316D01*
X95702Y37410D01*
X95695Y37448D01*
X95686Y37480D01*
X95675Y37506D01*
X95662Y37527D01*
X95647Y37541D01*
X95630Y37550D01*
X95611Y37553D01*
X96105D01*
X96086Y37550D01*
D02*
G37*
G36*
X77576Y37576D02*
X77736Y37469D01*
X77864Y37444D01*
X77909Y37309D01*
X77401Y36800D01*
X75874D01*
X75783Y36887D01*
X75783D01*
X75726Y37014D01*
X75743Y37100D01*
X75821Y37194D01*
X77075D01*
Y37309D01*
X77190D01*
X77467Y37587D01*
X77576Y37576D01*
D02*
G37*
G36*
X78050Y35058D02*
X78059Y35041D01*
X78073Y35026D01*
X78094Y35013D01*
X78120Y35002D01*
X78153Y34993D01*
X78191Y34986D01*
X78235Y34981D01*
X78285Y34978D01*
X78340Y34977D01*
Y34683D01*
X78285Y34682D01*
X78191Y34674D01*
X78153Y34667D01*
X78120Y34658D01*
X78094Y34647D01*
X78073Y34634D01*
X78059Y34619D01*
X78050Y34602D01*
X78047Y34583D01*
Y35077D01*
X78050Y35058D01*
D02*
G37*
G36*
X76553Y34583D02*
X76550Y34602D01*
X76541Y34619D01*
X76527Y34634D01*
X76506Y34647D01*
X76480Y34658D01*
X76447Y34667D01*
X76409Y34674D01*
X76365Y34679D01*
X76315Y34682D01*
X76260Y34683D01*
Y34977D01*
X76315Y34978D01*
X76409Y34986D01*
X76447Y34993D01*
X76480Y35002D01*
X76506Y35013D01*
X76527Y35026D01*
X76541Y35041D01*
X76550Y35058D01*
X76553Y35077D01*
Y34583D01*
D02*
G37*
G36*
X75275Y35058D02*
X75284Y35041D01*
X75298Y35026D01*
X75319Y35013D01*
X75345Y35002D01*
X75378Y34993D01*
X75416Y34986D01*
X75460Y34981D01*
X75510Y34978D01*
X75565Y34977D01*
Y34683D01*
X75510Y34682D01*
X75416Y34674D01*
X75378Y34667D01*
X75345Y34658D01*
X75319Y34647D01*
X75298Y34634D01*
X75284Y34619D01*
X75275Y34602D01*
X75272Y34583D01*
Y35077D01*
X75275Y35058D01*
D02*
G37*
G36*
X74377Y33652D02*
X74385Y33567D01*
X74397Y33492D01*
X74415Y33427D01*
X74437Y33372D01*
X74464Y33327D01*
X74496Y33292D01*
X74533Y33267D01*
X74575Y33252D01*
X74622Y33247D01*
X73628D01*
X73675Y33252D01*
X73717Y33267D01*
X73754Y33292D01*
X73786Y33327D01*
X73813Y33372D01*
X73835Y33427D01*
X73853Y33492D01*
X73865Y33567D01*
X73873Y33652D01*
X73875Y33747D01*
X74375D01*
X74377Y33652D01*
D02*
G37*
G36*
X98398Y49340D02*
X103292D01*
Y49242D01*
X103546D01*
Y49227D01*
X104050D01*
X104554D01*
Y49242D01*
X104808D01*
Y49242D01*
X104935Y49268D01*
X105070Y49236D01*
X105317Y49153D01*
X105555Y49046D01*
X105781Y48917D01*
X105993Y48765D01*
X106150Y48628D01*
D01*
Y48349D01*
X106606D01*
X106655Y48339D01*
X106657Y48339D01*
X106658Y48339D01*
X108275Y48339D01*
X108325Y48349D01*
X114842D01*
Y47876D01*
Y37500D01*
X114844Y37490D01*
X114843Y37480D01*
X114847Y37382D01*
X114855Y37353D01*
Y37322D01*
X114893Y37130D01*
X114908Y37093D01*
X114916Y37054D01*
X114991Y36873D01*
X115014Y36839D01*
X115029Y36802D01*
X115138Y36639D01*
X115166Y36611D01*
X115189Y36577D01*
X115327Y36439D01*
X115361Y36416D01*
X115389Y36388D01*
X115552Y36279D01*
X115589Y36264D01*
X115623Y36241D01*
X115804Y36166D01*
X115843Y36158D01*
X115880Y36143D01*
X116072Y36105D01*
X116103D01*
X116132Y36097D01*
X116230Y36093D01*
X116240Y36094D01*
X116250Y36092D01*
X118759D01*
X118874Y36069D01*
X118981Y36025D01*
X119078Y35960D01*
X119161Y35877D01*
X119226Y35780D01*
X119270Y35673D01*
X119293Y35558D01*
Y35500D01*
Y24500D01*
Y24442D01*
X119270Y24327D01*
X119226Y24219D01*
X119161Y24123D01*
X119078Y24040D01*
X118981Y23975D01*
X118874Y23931D01*
X118759Y23908D01*
X116250D01*
X116240Y23906D01*
X116230Y23907D01*
X116132Y23903D01*
X116103Y23895D01*
X116072D01*
X115880Y23857D01*
X115843Y23842D01*
X115804Y23834D01*
X115623Y23759D01*
X115589Y23736D01*
X115552Y23721D01*
X115389Y23612D01*
X115361Y23584D01*
X115327Y23561D01*
X115189Y23423D01*
X115166Y23389D01*
X115138Y23361D01*
X115029Y23198D01*
X115014Y23161D01*
X114991Y23127D01*
X114916Y22946D01*
X114908Y22907D01*
X114893Y22870D01*
X114855Y22678D01*
Y22647D01*
X114847Y22618D01*
X114843Y22520D01*
X114844Y22510D01*
X114842Y22500D01*
Y11651D01*
X108325D01*
X108275Y11661D01*
X106658Y11661D01*
X106656Y11661D01*
X106655Y11661D01*
X106606Y11651D01*
X106150D01*
Y11372D01*
X105993Y11234D01*
X105780Y11083D01*
X105554Y10953D01*
X105317Y10846D01*
X105070Y10763D01*
X104935Y10732D01*
X104808Y10758D01*
Y10758D01*
X104554D01*
Y10773D01*
X104050D01*
X103546D01*
Y10758D01*
X103292D01*
Y10660D01*
X98398D01*
X98389Y10659D01*
X98031Y10694D01*
X97678Y10801D01*
X97352Y10975D01*
X97067Y11209D01*
X96833Y11494D01*
X96659Y11820D01*
X96552Y12173D01*
X96517Y12531D01*
X96518Y12540D01*
Y37042D01*
X96616D01*
Y37460D01*
Y37518D01*
X96623Y37553D01*
X96616Y37588D01*
Y37611D01*
X96617Y37632D01*
X96616Y37634D01*
Y37831D01*
Y38534D01*
X96621Y38558D01*
X96621Y39133D01*
X96621Y39987D01*
X96621Y39987D01*
X96621Y39987D01*
X96616Y40011D01*
Y40714D01*
Y40916D01*
X96617Y40918D01*
X96616Y40939D01*
Y40962D01*
X96623Y40997D01*
X96616Y41032D01*
Y41085D01*
Y41508D01*
X96518D01*
Y47460D01*
X96517Y47469D01*
X96529Y47588D01*
X96552Y47827D01*
X96659Y48180D01*
X96833Y48506D01*
X97067Y48791D01*
X97352Y49025D01*
X97678Y49199D01*
X98031Y49306D01*
X98389Y49341D01*
X98398Y49340D01*
D02*
G37*
G36*
X108275Y11143D02*
Y8857D01*
X106658Y8857D01*
X106549Y8968D01*
X106314Y9172D01*
X106061Y9353D01*
X105791Y9508D01*
X105507Y9636D01*
X105212Y9735D01*
X104908Y9805D01*
X104600Y9845D01*
X104444Y9854D01*
Y9854D01*
X103679D01*
Y10142D01*
X104000D01*
X104050Y10135D01*
X104100Y10142D01*
X104808D01*
Y10181D01*
X104908Y10194D01*
X105211Y10264D01*
X105506Y10364D01*
X105790Y10492D01*
X106060Y10647D01*
X106314Y10827D01*
X106549Y11032D01*
X106658Y11143D01*
X108275Y11143D01*
D02*
G37*
G36*
X43951Y11032D02*
X44186Y10828D01*
X44439Y10647D01*
X44709Y10492D01*
X44993Y10364D01*
X45288Y10265D01*
X45592Y10195D01*
X45900Y10155D01*
X46056Y10146D01*
X46821D01*
Y9857D01*
X46056Y9854D01*
X45901Y9846D01*
X45815Y9835D01*
X45774D01*
X45736Y9824D01*
X45592Y9806D01*
X45289Y9736D01*
X44994Y9636D01*
X44710Y9508D01*
X44440Y9353D01*
X44186Y9173D01*
X43951Y8968D01*
X43842Y8857D01*
X42225Y8857D01*
Y11143D01*
X43842D01*
X43951Y11032D01*
D02*
G37*
%LPC*%
G36*
X58494Y78139D02*
X58301D01*
X58124Y78066D01*
X58063Y78005D01*
X58046Y78001D01*
X58007Y77994D01*
X58007Y77993D01*
X58007Y77993D01*
X57974Y77971D01*
X57941Y77949D01*
X57941Y77949D01*
X57941Y77949D01*
X57933Y77938D01*
X37755D01*
X37647Y77916D01*
X37556Y77855D01*
X37556Y77855D01*
X35583Y75882D01*
X33350D01*
X33350Y75882D01*
X33242Y75861D01*
X33150Y75800D01*
X33150Y75800D01*
X32325Y74975D01*
X32264Y74883D01*
X32243Y74775D01*
X32243Y74775D01*
Y71700D01*
X32243Y71700D01*
X32264Y71592D01*
X32325Y71500D01*
X32755Y71070D01*
X32755Y71070D01*
X32847Y71009D01*
X32945Y70990D01*
X32951Y70979D01*
X32953Y70978D01*
X32955Y70976D01*
X32986Y70955D01*
X33016Y70934D01*
X33019Y70933D01*
X33021Y70932D01*
X33058Y70924D01*
X33094Y70916D01*
X33147Y70915D01*
X33187Y70911D01*
X33214Y70907D01*
X33227Y70844D01*
X33326Y70696D01*
X33475Y70596D01*
X33651Y70561D01*
X35651D01*
X35826Y70596D01*
X35975Y70696D01*
X36053Y70812D01*
X36116Y70786D01*
X36308D01*
X36486Y70860D01*
X36622Y70996D01*
X36696Y71174D01*
Y71366D01*
X36622Y71544D01*
X36486Y71680D01*
X36308Y71754D01*
X36116D01*
X36053Y71728D01*
X35975Y71844D01*
X35826Y71944D01*
X35651Y71979D01*
X33651D01*
X33475Y71944D01*
X33326Y71844D01*
X33227Y71696D01*
X33214Y71633D01*
X33187Y71629D01*
X33147Y71625D01*
X33094Y71624D01*
X33058Y71616D01*
X33021Y71608D01*
X33019Y71607D01*
X33018Y71607D01*
X32807Y71817D01*
Y74658D01*
X33467Y75318D01*
X35700D01*
X35700Y75318D01*
X35808Y75339D01*
X35900Y75400D01*
X37872Y77373D01*
X57933D01*
X57938Y77364D01*
X57940Y77363D01*
X57941Y77361D01*
X57973Y77340D01*
X58004Y77318D01*
X58006Y77318D01*
X58007Y77317D01*
X58044Y77309D01*
X58063Y77305D01*
X58124Y77245D01*
X58149Y77234D01*
X58124Y77107D01*
X38300D01*
X38300Y77107D01*
X38192Y77086D01*
X38100Y77025D01*
X35985Y74909D01*
X35923Y74817D01*
X35902Y74709D01*
X35902Y74709D01*
Y74575D01*
X35775Y74494D01*
X35651Y74519D01*
X33651D01*
X33475Y74484D01*
X33326Y74384D01*
X33227Y74236D01*
X33192Y74060D01*
Y73560D01*
X33227Y73384D01*
X33326Y73236D01*
X33475Y73136D01*
X33651Y73101D01*
X35651D01*
X35826Y73136D01*
X35975Y73236D01*
X36047Y73343D01*
X36088Y73326D01*
X36281D01*
X36458Y73400D01*
X36595Y73536D01*
X36668Y73714D01*
Y73906D01*
X36595Y74084D01*
X36534Y74145D01*
X36530Y74162D01*
X36523Y74200D01*
X36522Y74201D01*
X36522Y74201D01*
X36500Y74234D01*
X36479Y74267D01*
X36478Y74267D01*
X36478Y74267D01*
X36467Y74275D01*
Y74592D01*
X38417Y76543D01*
X63319D01*
X63326Y76531D01*
X63327Y76531D01*
X63327Y76531D01*
X63360Y76509D01*
X63392Y76487D01*
X63395Y76480D01*
X63399Y76459D01*
X63299Y76332D01*
X42284D01*
X42284Y76332D01*
X42176Y76311D01*
X42085Y76250D01*
X42085Y76250D01*
X40209Y74374D01*
X40209Y74374D01*
X40202Y74376D01*
X40169Y74371D01*
X40137Y74368D01*
X40130Y74364D01*
X40123Y74363D01*
X40095Y74346D01*
X40066Y74331D01*
X40062Y74325D01*
X40055Y74321D01*
X40018Y74286D01*
X39985Y74260D01*
X39951Y74237D01*
X39917Y74218D01*
X39907Y74213D01*
X39773Y74236D01*
X39674Y74384D01*
X39525Y74484D01*
X39349Y74519D01*
X37349D01*
X37174Y74484D01*
X37025Y74384D01*
X36925Y74236D01*
X36890Y74060D01*
Y73560D01*
X36925Y73384D01*
X37025Y73236D01*
X37174Y73136D01*
X37349Y73101D01*
X39349D01*
X39525Y73136D01*
X39674Y73236D01*
X39773Y73384D01*
X39907Y73407D01*
X39917Y73402D01*
X39951Y73383D01*
X39985Y73360D01*
X40018Y73334D01*
X40055Y73299D01*
X40062Y73295D01*
X40066Y73289D01*
X40095Y73274D01*
X40123Y73257D01*
X40130Y73256D01*
X40137Y73252D01*
X40169Y73249D01*
X40202Y73244D01*
X40209Y73246D01*
X40209Y73246D01*
X42993Y70462D01*
Y68851D01*
X42866Y68818D01*
X42825Y68880D01*
X42825Y68880D01*
X40563Y71141D01*
X40566Y71151D01*
X40565Y71153D01*
X40566Y71155D01*
X40558Y71192D01*
X40552Y71230D01*
X40551Y71231D01*
X40550Y71233D01*
X40529Y71265D01*
X40519Y71281D01*
Y71366D01*
X40445Y71544D01*
X40309Y71680D01*
X40131Y71754D01*
X39939D01*
X39784Y71690D01*
X39773Y71696D01*
X39674Y71844D01*
X39525Y71944D01*
X39349Y71979D01*
X37349D01*
X37174Y71944D01*
X37025Y71844D01*
X36925Y71696D01*
X36890Y71520D01*
Y71020D01*
X36925Y70844D01*
X37025Y70696D01*
X37174Y70596D01*
X37349Y70561D01*
X39349D01*
X39525Y70596D01*
X39674Y70696D01*
X39773Y70844D01*
X39784Y70850D01*
X39939Y70786D01*
X40025D01*
X40039Y70776D01*
X40072Y70755D01*
X40072Y70755D01*
X40072Y70754D01*
X40111Y70747D01*
X40150Y70739D01*
X40150Y70739D01*
X40150Y70739D01*
X40164Y70742D01*
X42343Y68563D01*
Y66851D01*
X42216Y66839D01*
X42200Y66919D01*
X42138Y67010D01*
X42138Y67010D01*
X40548Y68601D01*
X40550Y68611D01*
X40550Y68613D01*
X40550Y68615D01*
X40543Y68652D01*
X40536Y68690D01*
X40535Y68691D01*
X40535Y68693D01*
X40514Y68725D01*
X40504Y68741D01*
Y68826D01*
X40430Y69004D01*
X40294Y69140D01*
X40116Y69214D01*
X39923D01*
X39777Y69153D01*
X39773Y69156D01*
X39674Y69304D01*
X39525Y69404D01*
X39349Y69439D01*
X37349D01*
X37174Y69404D01*
X37025Y69304D01*
X36925Y69156D01*
X36890Y68980D01*
Y68480D01*
X36925Y68304D01*
X37025Y68156D01*
X37174Y68056D01*
X37349Y68021D01*
X39349D01*
X39525Y68056D01*
X39674Y68156D01*
X39773Y68304D01*
X39777Y68307D01*
X39923Y68246D01*
X40009D01*
X40024Y68236D01*
X40056Y68215D01*
X40057Y68215D01*
X40057Y68214D01*
X40096Y68207D01*
X40134Y68199D01*
X40135Y68199D01*
X40135Y68199D01*
X40148Y68202D01*
X41656Y66694D01*
Y64612D01*
X41647Y64607D01*
X41646Y64605D01*
X41645Y64604D01*
X41624Y64572D01*
X41602Y64541D01*
X41601Y64539D01*
X41600Y64538D01*
X41593Y64501D01*
X41589Y64482D01*
X41528Y64422D01*
X41455Y64244D01*
Y64051D01*
X41528Y63873D01*
X41665Y63737D01*
X41842Y63663D01*
X42035D01*
X42213Y63737D01*
X42225Y63749D01*
X42343Y63701D01*
Y62574D01*
X42334Y62568D01*
X42333Y62567D01*
X42331Y62566D01*
X42310Y62534D01*
X42288Y62503D01*
X42288Y62501D01*
X42287Y62499D01*
X42279Y62462D01*
X42275Y62444D01*
X42215Y62383D01*
X42141Y62205D01*
Y62013D01*
X42215Y61835D01*
X42351Y61699D01*
X42529Y61625D01*
X42721D01*
X42866Y61685D01*
X42993Y61627D01*
Y60826D01*
X42984Y60820D01*
X42983Y60818D01*
X42981Y60817D01*
X42960Y60786D01*
X42939Y60755D01*
X42938Y60753D01*
X42937Y60751D01*
X42930Y60714D01*
X42926Y60695D01*
X42865Y60635D01*
X42791Y60457D01*
Y60264D01*
X42865Y60086D01*
X43001Y59950D01*
X43179Y59877D01*
X43372D01*
X43550Y59950D01*
X43686Y60086D01*
X43759Y60264D01*
Y60457D01*
X43686Y60635D01*
X43625Y60696D01*
X43622Y60712D01*
X43614Y60751D01*
X43614Y60751D01*
X43614Y60752D01*
X43592Y60784D01*
X43570Y60817D01*
X43569Y60817D01*
X43569Y60818D01*
X43558Y60825D01*
Y70579D01*
X43536Y70687D01*
X43475Y70779D01*
X43475Y70779D01*
X40671Y73583D01*
X40672Y73587D01*
X40670Y73603D01*
X40671Y73620D01*
X40664Y73642D01*
X40661Y73666D01*
X40652Y73680D01*
X40647Y73696D01*
X40632Y73714D01*
X40620Y73734D01*
X40590Y73767D01*
X40576Y73787D01*
X40570Y73801D01*
X40568Y73807D01*
X40567Y73810D01*
X40568Y73813D01*
X40570Y73819D01*
X40576Y73833D01*
X40590Y73853D01*
X40620Y73886D01*
X40632Y73906D01*
X40647Y73924D01*
X40652Y73940D01*
X40661Y73954D01*
X40664Y73978D01*
X40671Y74000D01*
X40670Y74017D01*
X40672Y74033D01*
X40671Y74037D01*
X42401Y75768D01*
X57900D01*
X57954Y75641D01*
X57891Y75488D01*
Y75296D01*
X57965Y75118D01*
X58026Y75057D01*
X58029Y75040D01*
X58037Y75001D01*
X58037Y75001D01*
X58037Y75001D01*
X58059Y74968D01*
X58081Y74935D01*
X58081Y74935D01*
X58081Y74935D01*
X58093Y74927D01*
Y73705D01*
X58085Y73700D01*
X58083Y73698D01*
X58081Y73696D01*
X58060Y73666D01*
X58039Y73635D01*
X58038Y73633D01*
X58037Y73630D01*
X58029Y73594D01*
X58021Y73558D01*
X58020Y73513D01*
X58017Y73478D01*
X58012Y73448D01*
X58005Y73423D01*
X57998Y73401D01*
X57990Y73384D01*
X57981Y73369D01*
X57973Y73357D01*
X57963Y73347D01*
X57956Y73341D01*
X57945Y73335D01*
X57815Y73205D01*
X57723Y73045D01*
X57675Y72867D01*
Y72683D01*
X57723Y72505D01*
X57815Y72345D01*
X57945Y72215D01*
X58105Y72123D01*
X58283Y72075D01*
X58467D01*
X58645Y72123D01*
X58805Y72215D01*
X58935Y72345D01*
X59027Y72505D01*
X59075Y72683D01*
Y72867D01*
X59027Y73045D01*
X58935Y73205D01*
X58805Y73335D01*
X58794Y73341D01*
X58787Y73347D01*
X58777Y73357D01*
X58769Y73369D01*
X58760Y73384D01*
X58752Y73401D01*
X58745Y73423D01*
X58738Y73448D01*
X58733Y73478D01*
X58730Y73513D01*
X58729Y73558D01*
X58721Y73594D01*
X58713Y73630D01*
X58712Y73633D01*
X58711Y73635D01*
X58690Y73666D01*
X58669Y73696D01*
X58667Y73698D01*
X58665Y73700D01*
X58657Y73705D01*
Y74927D01*
X58666Y74933D01*
X58667Y74934D01*
X58669Y74935D01*
X58690Y74967D01*
X58712Y74998D01*
X58712Y75000D01*
X58713Y75001D01*
X58721Y75039D01*
X58725Y75057D01*
X58785Y75118D01*
X58859Y75296D01*
Y75488D01*
X58796Y75641D01*
X58850Y75768D01*
X63352D01*
X63405Y75641D01*
X63373Y75609D01*
X63300Y75431D01*
Y75239D01*
X63373Y75061D01*
X63433Y75001D01*
X63436Y74985D01*
X63444Y74947D01*
X63444Y74946D01*
X63444Y74945D01*
X63466Y74913D01*
X63487Y74881D01*
X63488Y74880D01*
X63489Y74879D01*
X63500Y74872D01*
Y73705D01*
X63493Y73701D01*
X63491Y73698D01*
X63489Y73697D01*
X63468Y73666D01*
X63446Y73636D01*
X63446Y73633D01*
X63444Y73631D01*
X63437Y73594D01*
X63429Y73558D01*
X63427Y73513D01*
X63424Y73479D01*
X63419Y73449D01*
X63413Y73423D01*
X63405Y73402D01*
X63397Y73384D01*
X63389Y73370D01*
X63380Y73358D01*
X63371Y73348D01*
X63363Y73342D01*
X63351Y73335D01*
X63221Y73205D01*
X63129Y73045D01*
X63081Y72867D01*
Y72683D01*
X63129Y72505D01*
X63221Y72345D01*
X63351Y72215D01*
X63511Y72123D01*
X63689Y72075D01*
X63873D01*
X64051Y72123D01*
X64211Y72215D01*
X64341Y72345D01*
X64434Y72505D01*
X64481Y72683D01*
Y72867D01*
X64434Y73045D01*
X64341Y73205D01*
X64211Y73335D01*
X64201Y73341D01*
X64194Y73346D01*
X64185Y73357D01*
X64176Y73369D01*
X64168Y73383D01*
X64160Y73401D01*
X64152Y73422D01*
X64146Y73448D01*
X64141Y73478D01*
X64138Y73513D01*
X64136Y73558D01*
X64128Y73593D01*
X64121Y73629D01*
X64119Y73632D01*
X64118Y73635D01*
X64097Y73665D01*
X64077Y73695D01*
X64074Y73697D01*
X64072Y73700D01*
X64065Y73705D01*
Y74869D01*
X64074Y74875D01*
X64074Y74876D01*
X64076Y74877D01*
X64097Y74909D01*
X64119Y74940D01*
X64119Y74941D01*
X64120Y74943D01*
X64128Y74980D01*
X64132Y74999D01*
X64194Y75061D01*
X64268Y75239D01*
Y75431D01*
X64194Y75609D01*
X64163Y75641D01*
X64215Y75768D01*
X79393D01*
X79396Y75764D01*
X79416Y75748D01*
X79434Y75731D01*
X79448Y75725D01*
X79460Y75716D01*
X79484Y75710D01*
X79507Y75700D01*
X79522Y75700D01*
X79537Y75696D01*
X79581Y75694D01*
X79605Y75690D01*
X79619Y75685D01*
X79625Y75682D01*
X79627Y75680D01*
X79629Y75678D01*
X79633Y75672D01*
X79637Y75658D01*
X79641Y75634D01*
X79644Y75589D01*
X79652Y75556D01*
X79659Y75522D01*
X79662Y75517D01*
X79663Y75512D01*
X79684Y75485D01*
X79703Y75456D01*
X79708Y75453D01*
X79711Y75448D01*
X79715Y75446D01*
Y73704D01*
X79707Y73699D01*
X79705Y73697D01*
X79702Y73695D01*
X79682Y73664D01*
X79661Y73635D01*
X79661Y73631D01*
X79659Y73628D01*
X79652Y73592D01*
X79644Y73557D01*
X79642Y73512D01*
X79639Y73477D01*
X79634Y73447D01*
X79628Y73421D01*
X79620Y73400D01*
X79612Y73382D01*
X79604Y73368D01*
X79595Y73356D01*
X79585Y73345D01*
X79580Y73341D01*
X79570Y73335D01*
X79440Y73205D01*
X79348Y73045D01*
X79300Y72867D01*
Y72683D01*
X79348Y72505D01*
X79440Y72345D01*
X79570Y72215D01*
X79730Y72123D01*
X79908Y72075D01*
X80092D01*
X80270Y72123D01*
X80430Y72215D01*
X80560Y72345D01*
X80652Y72505D01*
X80700Y72683D01*
Y72867D01*
X80652Y73045D01*
X80560Y73205D01*
X80430Y73335D01*
X80418Y73342D01*
X80409Y73349D01*
X80400Y73359D01*
X80391Y73371D01*
X80382Y73385D01*
X80374Y73402D01*
X80367Y73424D01*
X80361Y73449D01*
X80356Y73479D01*
X80353Y73514D01*
X80351Y73559D01*
X80343Y73595D01*
X80335Y73632D01*
X80334Y73634D01*
X80333Y73636D01*
X80312Y73667D01*
X80291Y73698D01*
X80289Y73699D01*
X80287Y73701D01*
X80280Y73706D01*
Y75446D01*
X80284Y75448D01*
X80287Y75453D01*
X80292Y75456D01*
X80311Y75485D01*
X80331Y75512D01*
X80333Y75517D01*
X80336Y75522D01*
X80343Y75556D01*
X80351Y75589D01*
X80353Y75634D01*
X80358Y75658D01*
X80362Y75672D01*
X80366Y75678D01*
X80367Y75680D01*
X80369Y75682D01*
X80376Y75685D01*
X80390Y75690D01*
X80414Y75694D01*
X80458Y75696D01*
X80473Y75700D01*
X80487Y75700D01*
X80511Y75710D01*
X80535Y75716D01*
X80547Y75725D01*
X80561Y75731D01*
X80579Y75748D01*
X80599Y75764D01*
X80601Y75768D01*
X106070D01*
X107707Y74130D01*
X107707Y74130D01*
X107798Y74069D01*
X107907Y74048D01*
X107907Y74048D01*
X108147D01*
X108152Y74039D01*
X108154Y74038D01*
X108156Y74036D01*
X108187Y74015D01*
X108217Y73994D01*
X108220Y73993D01*
X108222Y73992D01*
X108258Y73984D01*
X108295Y73976D01*
X108348Y73975D01*
X108388Y73971D01*
X108415Y73967D01*
X108428Y73904D01*
X108527Y73756D01*
X108676Y73656D01*
X108852Y73621D01*
X109842D01*
X109843Y73617D01*
X109846Y73577D01*
X109848Y73523D01*
X109856Y73487D01*
X109863Y73450D01*
X109865Y73448D01*
X109865Y73445D01*
X109887Y73415D01*
X109907Y73384D01*
X109910Y73383D01*
X109911Y73380D01*
X109919Y73375D01*
Y73348D01*
X109919Y73348D01*
X109941Y73240D01*
X110002Y73149D01*
X110577Y72574D01*
X110564Y72545D01*
X110502Y72469D01*
X110352Y72499D01*
X108852D01*
X108676Y72464D01*
X108527Y72364D01*
X108428Y72216D01*
X108415Y72153D01*
X108388Y72149D01*
X108348Y72145D01*
X108295Y72144D01*
X108264Y72137D01*
X108251Y72140D01*
X108190Y72200D01*
X108012Y72274D01*
X107820D01*
X107642Y72200D01*
X107506Y72064D01*
X107432Y71886D01*
Y71800D01*
X107422Y71786D01*
X107401Y71753D01*
X107401Y71753D01*
X107400Y71752D01*
X107393Y71714D01*
X107385Y71675D01*
X107385Y71675D01*
X107385Y71674D01*
X107388Y71661D01*
X104200Y68474D01*
X104139Y68382D01*
X104118Y68274D01*
X104118Y68274D01*
Y61325D01*
X104118Y61325D01*
X104139Y61217D01*
X104200Y61125D01*
X105048Y60277D01*
X105046Y60267D01*
X105046Y60265D01*
X105046Y60263D01*
X105053Y60226D01*
X105060Y60189D01*
X105061Y60187D01*
X105061Y60185D01*
X105082Y60154D01*
X105093Y60138D01*
Y60052D01*
X105166Y59874D01*
X105303Y59738D01*
X105480Y59664D01*
X105673D01*
X105851Y59738D01*
X105987Y59874D01*
X106061Y60052D01*
Y60245D01*
X105987Y60422D01*
X105851Y60559D01*
X105673Y60632D01*
X105587D01*
X105572Y60642D01*
X105540Y60664D01*
X105539Y60664D01*
X105539Y60664D01*
X105500Y60672D01*
X105462Y60679D01*
X105461Y60679D01*
X105461Y60679D01*
X105448Y60676D01*
X104682Y61442D01*
Y68157D01*
X107787Y71261D01*
X107797Y71259D01*
X107799Y71260D01*
X107801Y71259D01*
X107838Y71267D01*
X107876Y71273D01*
X107877Y71274D01*
X107879Y71275D01*
X107911Y71296D01*
X107927Y71306D01*
X108012D01*
X108190Y71380D01*
X108251Y71441D01*
X108264Y71443D01*
X108295Y71436D01*
X108348Y71435D01*
X108388Y71431D01*
X108415Y71427D01*
X108428Y71364D01*
X108527Y71216D01*
X108676Y71116D01*
X108852Y71081D01*
X110352D01*
X110527Y71116D01*
X110616Y71175D01*
X110743Y71107D01*
Y69933D01*
X110616Y69865D01*
X110527Y69924D01*
X110352Y69959D01*
X108852D01*
X108676Y69924D01*
X108527Y69824D01*
X108428Y69676D01*
X108415Y69613D01*
X108388Y69609D01*
X108348Y69605D01*
X108295Y69604D01*
X108272Y69599D01*
X108266Y69600D01*
X108205Y69660D01*
X108028Y69734D01*
X107835D01*
X107657Y69660D01*
X107521Y69524D01*
X107447Y69346D01*
Y69260D01*
X107438Y69246D01*
X107416Y69213D01*
X107416Y69213D01*
X107416Y69212D01*
X107408Y69174D01*
X107400Y69135D01*
X107401Y69135D01*
X107400Y69134D01*
X107403Y69121D01*
X105550Y67268D01*
X105489Y67177D01*
X105468Y67069D01*
X105468Y67069D01*
Y62815D01*
X105459Y62809D01*
X105457Y62808D01*
X105456Y62807D01*
X105435Y62775D01*
X105413Y62744D01*
X105413Y62742D01*
X105412Y62740D01*
X105404Y62703D01*
X105400Y62685D01*
X105340Y62624D01*
X105266Y62446D01*
Y62254D01*
X105340Y62076D01*
X105476Y61940D01*
X105654Y61866D01*
X105846D01*
X106024Y61940D01*
X106160Y62076D01*
X106234Y62254D01*
Y62446D01*
X106160Y62624D01*
X106099Y62685D01*
X106096Y62702D01*
X106088Y62740D01*
X106088Y62741D01*
X106088Y62741D01*
X106066Y62774D01*
X106044Y62807D01*
X106044Y62807D01*
X106044Y62807D01*
X106032Y62815D01*
Y66952D01*
X107802Y68721D01*
X107812Y68719D01*
X107814Y68720D01*
X107816Y68719D01*
X107854Y68727D01*
X107891Y68733D01*
X107893Y68734D01*
X107895Y68735D01*
X107926Y68756D01*
X107942Y68766D01*
X108028D01*
X108205Y68840D01*
X108266Y68901D01*
X108271Y68901D01*
X108295Y68896D01*
X108348Y68895D01*
X108388Y68891D01*
X108415Y68887D01*
X108428Y68824D01*
X108527Y68676D01*
X108676Y68576D01*
X108852Y68541D01*
X110352D01*
X110527Y68576D01*
X110616Y68635D01*
X110743Y68567D01*
Y67458D01*
X110616Y67390D01*
X110548Y67435D01*
X110352Y67474D01*
X109729D01*
Y66710D01*
Y65946D01*
X110352D01*
X110548Y65985D01*
X110616Y66030D01*
X110743Y65962D01*
Y64817D01*
X107129Y61204D01*
X107119Y61206D01*
X107117Y61205D01*
X107115Y61206D01*
X107078Y61198D01*
X107040Y61192D01*
X107039Y61191D01*
X107037Y61190D01*
X107005Y61169D01*
X106989Y61159D01*
X106904D01*
X106726Y61085D01*
X106590Y60949D01*
X106516Y60771D01*
Y60579D01*
X106590Y60401D01*
X106726Y60265D01*
X106904Y60191D01*
X107096D01*
X107274Y60265D01*
X107410Y60401D01*
X107484Y60579D01*
Y60665D01*
X107494Y60679D01*
X107515Y60712D01*
X107515Y60712D01*
X107516Y60713D01*
X107523Y60751D01*
X107531Y60790D01*
X107531Y60790D01*
X107531Y60791D01*
X107528Y60804D01*
X111225Y64500D01*
X111286Y64592D01*
X111307Y64700D01*
X111307Y64700D01*
Y66268D01*
X111425Y66317D01*
X111442Y66300D01*
X111620Y66226D01*
X111812D01*
X111870Y66250D01*
X111907Y66246D01*
X111949Y66239D01*
X111958Y66237D01*
X112026Y66136D01*
X112174Y66036D01*
X112350Y66001D01*
X113850D01*
X114026Y66036D01*
X114127Y66104D01*
X114128Y66104D01*
X114130Y66106D01*
X114174Y66136D01*
X114188Y66156D01*
X114189Y66156D01*
X114206Y66179D01*
X114217Y66189D01*
X114232Y66200D01*
X114254Y66212D01*
X114282Y66223D01*
X114317Y66234D01*
X114359Y66243D01*
X114384Y66247D01*
X114433Y66226D01*
X114626D01*
X114804Y66300D01*
X114940Y66436D01*
X115014Y66614D01*
Y66806D01*
X114940Y66984D01*
X114804Y67120D01*
X114626Y67194D01*
X114433D01*
X114384Y67174D01*
X114359Y67177D01*
X114317Y67186D01*
X114282Y67197D01*
X114254Y67208D01*
X114232Y67220D01*
X114217Y67231D01*
X114206Y67241D01*
X114189Y67264D01*
X114188Y67264D01*
X114174Y67284D01*
X114130Y67314D01*
X114128Y67316D01*
X114127Y67316D01*
X114026Y67384D01*
X113850Y67419D01*
X112350D01*
X112174Y67384D01*
X112026Y67284D01*
X111958Y67183D01*
X111949Y67181D01*
X111910Y67174D01*
X111867Y67171D01*
X111812Y67194D01*
X111620D01*
X111442Y67120D01*
X111425Y67103D01*
X111307Y67152D01*
Y68809D01*
X111434Y68861D01*
X111456Y68840D01*
X111634Y68766D01*
X111826D01*
X111884Y68790D01*
X111911Y68787D01*
X111950Y68781D01*
X111956Y68780D01*
X112026Y68676D01*
X112174Y68576D01*
X112350Y68541D01*
X113850D01*
X114026Y68576D01*
X114127Y68644D01*
X114128Y68644D01*
X114130Y68646D01*
X114174Y68676D01*
X114188Y68696D01*
X114189Y68696D01*
X114206Y68719D01*
X114217Y68729D01*
X114232Y68740D01*
X114254Y68752D01*
X114282Y68763D01*
X114317Y68774D01*
X114359Y68783D01*
X114384Y68787D01*
X114433Y68766D01*
X114626D01*
X114804Y68840D01*
X114940Y68976D01*
X115014Y69154D01*
Y69346D01*
X114940Y69524D01*
X114804Y69660D01*
X114626Y69734D01*
X114433D01*
X114384Y69714D01*
X114359Y69717D01*
X114317Y69726D01*
X114282Y69737D01*
X114254Y69748D01*
X114232Y69760D01*
X114217Y69771D01*
X114206Y69781D01*
X114189Y69804D01*
X114188Y69804D01*
X114174Y69824D01*
X114130Y69854D01*
X114128Y69856D01*
X114127Y69856D01*
X114026Y69924D01*
X113850Y69959D01*
X112350D01*
X112174Y69924D01*
X112026Y69824D01*
X111956Y69720D01*
X111950Y69719D01*
X111913Y69713D01*
X111882Y69711D01*
X111826Y69734D01*
X111634D01*
X111456Y69660D01*
X111434Y69639D01*
X111307Y69691D01*
Y71357D01*
X111434Y71410D01*
X111464Y71380D01*
X111642Y71306D01*
X111835D01*
X111937Y71348D01*
X112026Y71216D01*
X112174Y71116D01*
X112350Y71081D01*
X113850D01*
X114026Y71116D01*
X114174Y71216D01*
X114274Y71364D01*
X114286Y71427D01*
X114314Y71431D01*
X114353Y71435D01*
X114407Y71436D01*
X114443Y71444D01*
X114480Y71452D01*
X114482Y71453D01*
X114485Y71454D01*
X114515Y71475D01*
X114546Y71496D01*
X114547Y71498D01*
X114550Y71499D01*
X114555Y71508D01*
X114590D01*
X114590Y71508D01*
X114698Y71529D01*
X114790Y71590D01*
X115600Y72400D01*
X115661Y72492D01*
X115682Y72600D01*
X115682Y72600D01*
Y75584D01*
X115682Y75584D01*
X115661Y75692D01*
X115600Y75784D01*
X115600Y75784D01*
X113528Y77855D01*
X113437Y77916D01*
X113329Y77938D01*
X113329Y77938D01*
X58863D01*
X58857Y77947D01*
X58855Y77948D01*
X58854Y77949D01*
X58823Y77970D01*
X58792Y77992D01*
X58790Y77993D01*
X58788Y77994D01*
X58751Y78001D01*
X58732Y78005D01*
X58672Y78066D01*
X58494Y78139D01*
D02*
G37*
G36*
X74686Y75415D02*
X74502D01*
X74324Y75367D01*
X74164Y75275D01*
X74034Y75145D01*
X73941Y74985D01*
X73894Y74807D01*
Y74623D01*
X73941Y74445D01*
X74034Y74285D01*
X74164Y74155D01*
X74324Y74063D01*
X74502Y74015D01*
X74686D01*
X74864Y74063D01*
X75024Y74155D01*
X75154Y74285D01*
X75246Y74445D01*
X75294Y74623D01*
Y74807D01*
X75246Y74985D01*
X75154Y75145D01*
X75024Y75275D01*
X74864Y75367D01*
X74686Y75415D01*
D02*
G37*
G36*
X69280Y74625D02*
X69095D01*
X68917Y74577D01*
X68758Y74485D01*
X68627Y74355D01*
X68535Y74195D01*
X68488Y74017D01*
Y73833D01*
X68535Y73655D01*
X68627Y73495D01*
X68758Y73365D01*
X68917Y73273D01*
X69095Y73225D01*
X69280D01*
X69458Y73273D01*
X69617Y73365D01*
X69748Y73495D01*
X69840Y73655D01*
X69887Y73833D01*
Y74017D01*
X69840Y74195D01*
X69748Y74355D01*
X69617Y74485D01*
X69458Y74577D01*
X69280Y74625D01*
D02*
G37*
G36*
X30357Y73725D02*
X30045D01*
X29743Y73644D01*
X29473Y73488D01*
X29253Y73268D01*
X29097Y72997D01*
X29016Y72696D01*
Y72384D01*
X29097Y72083D01*
X29253Y71812D01*
X29473Y71592D01*
X29743Y71436D01*
X30045Y71355D01*
X30357D01*
X30658Y71436D01*
X30928Y71592D01*
X31149Y71812D01*
X31305Y72083D01*
X31386Y72384D01*
Y72696D01*
X31305Y72997D01*
X31149Y73268D01*
X30928Y73488D01*
X30658Y73644D01*
X30357Y73725D01*
D02*
G37*
G36*
X101285Y72970D02*
X100965D01*
X100652Y72908D01*
X100358Y72786D01*
X100092Y72608D01*
X99867Y72383D01*
X99689Y72117D01*
X99567Y71823D01*
X99505Y71510D01*
Y71190D01*
X99567Y70877D01*
X99689Y70583D01*
X99867Y70317D01*
X100092Y70092D01*
X100358Y69914D01*
X100652Y69792D01*
X100965Y69730D01*
X101285D01*
X101598Y69792D01*
X101892Y69914D01*
X102158Y70092D01*
X102383Y70317D01*
X102561Y70583D01*
X102683Y70877D01*
X102745Y71190D01*
Y71510D01*
X102683Y71823D01*
X102561Y72117D01*
X102383Y72383D01*
X102158Y72608D01*
X101892Y72786D01*
X101598Y72908D01*
X101285Y72970D01*
D02*
G37*
G36*
X47485D02*
X47165D01*
X46852Y72908D01*
X46558Y72786D01*
X46292Y72608D01*
X46067Y72383D01*
X45889Y72117D01*
X45767Y71823D01*
X45705Y71510D01*
Y71190D01*
X45767Y70877D01*
X45889Y70583D01*
X46067Y70317D01*
X46292Y70092D01*
X46558Y69914D01*
X46852Y69792D01*
X47165Y69730D01*
X47485D01*
X47798Y69792D01*
X48092Y69914D01*
X48358Y70092D01*
X48583Y70317D01*
X48761Y70583D01*
X48883Y70877D01*
X48945Y71190D01*
Y71510D01*
X48883Y71823D01*
X48761Y72117D01*
X48583Y72383D01*
X48358Y72608D01*
X48092Y72786D01*
X47798Y72908D01*
X47485Y72970D01*
D02*
G37*
G36*
X35651Y69439D02*
X33651D01*
X33475Y69404D01*
X33326Y69304D01*
X33260Y69204D01*
X33249Y69202D01*
X33209Y69195D01*
X33161Y69191D01*
X33106Y69214D01*
X32914D01*
X32736Y69140D01*
X32600Y69004D01*
X32526Y68826D01*
Y68634D01*
X32600Y68456D01*
X32736Y68320D01*
X32914Y68246D01*
X33106D01*
X33164Y68270D01*
X33206Y68265D01*
X33249Y68258D01*
X33260Y68256D01*
X33326Y68156D01*
X33475Y68056D01*
X33651Y68021D01*
X35651D01*
X35826Y68056D01*
X35975Y68156D01*
X36050Y68268D01*
X36069Y68269D01*
X36124Y68246D01*
X36317D01*
X36495Y68320D01*
X36631Y68456D01*
X36705Y68634D01*
Y68826D01*
X36631Y69004D01*
X36495Y69140D01*
X36317Y69214D01*
X36124D01*
X36065Y69190D01*
X36051Y69191D01*
X35975Y69304D01*
X35826Y69404D01*
X35651Y69439D01*
D02*
G37*
G36*
X50590Y68442D02*
X50551Y68442D01*
X50510Y68442D01*
X50510Y68442D01*
X50510D01*
X50474Y68427D01*
X50437Y68411D01*
X50391Y68381D01*
X44781D01*
X44537Y68332D01*
X44329Y68194D01*
X44191Y67986D01*
X44142Y67742D01*
X44191Y67497D01*
X44329Y67290D01*
X44537Y67151D01*
X44781Y67102D01*
X48902D01*
X48919Y67090D01*
X48937Y67072D01*
X48950Y67067D01*
X48962Y67058D01*
X48987Y67051D01*
X49010Y67042D01*
X49025Y67042D01*
X49039Y67038D01*
X49217Y67029D01*
X49360Y67004D01*
X49479Y66964D01*
X49576Y66912D01*
X49655Y66847D01*
X49720Y66768D01*
X49772Y66671D01*
X49812Y66552D01*
X49837Y66409D01*
X49846Y66231D01*
X49855Y66198D01*
X49862Y66164D01*
X49865Y66159D01*
X49866Y66154D01*
X49887Y66126D01*
X49906Y66098D01*
X49910Y66095D01*
X49911Y66094D01*
Y63050D01*
Y62256D01*
X49959Y62011D01*
X50098Y61804D01*
X50305Y61665D01*
X50550Y61616D01*
X50795Y61665D01*
X51002Y61804D01*
X51141Y62011D01*
X51189Y62256D01*
Y63050D01*
Y66094D01*
X51190Y66095D01*
X51194Y66098D01*
X51213Y66126D01*
X51234Y66154D01*
X51235Y66159D01*
X51238Y66164D01*
X51245Y66198D01*
X51254Y66231D01*
X51263Y66409D01*
X51288Y66552D01*
X51328Y66671D01*
X51380Y66768D01*
X51445Y66847D01*
X51524Y66912D01*
X51621Y66964D01*
X51740Y67004D01*
X51883Y67029D01*
X52061Y67038D01*
X52075Y67042D01*
X52090Y67042D01*
X52113Y67051D01*
X52138Y67058D01*
X52150Y67067D01*
X52163Y67072D01*
X52181Y67090D01*
X52198Y67102D01*
X75589D01*
X75691Y67042D01*
X75691Y66975D01*
Y66249D01*
X75690Y66245D01*
X75691Y66240D01*
Y66042D01*
X75846D01*
X75855Y66014D01*
X75864Y65970D01*
X75877Y65828D01*
X75879Y65741D01*
X75887Y65704D01*
X75894Y65667D01*
X75896Y65665D01*
X75896Y65663D01*
X75918Y65632D01*
X75939Y65601D01*
X75940Y65599D01*
X75941Y65598D01*
X75948Y65593D01*
Y65164D01*
X75941Y65159D01*
X75941Y65159D01*
X75941Y65159D01*
X75915Y65122D01*
X75896Y65094D01*
X75896Y65094D01*
X75896Y65094D01*
X75887Y65053D01*
X75879Y65016D01*
X75879Y65016D01*
X75879Y65016D01*
X75878Y64938D01*
X75866Y64796D01*
X75858Y64739D01*
X75847Y64685D01*
X75834Y64638D01*
X75819Y64597D01*
X75803Y64562D01*
X75787Y64533D01*
X75774Y64514D01*
X75765Y64505D01*
X75673Y64345D01*
X75625Y64167D01*
Y63983D01*
X75673Y63805D01*
X75765Y63645D01*
X75895Y63515D01*
X76055Y63423D01*
X76233Y63375D01*
X76417D01*
X76595Y63423D01*
X76755Y63515D01*
X76762Y63522D01*
X76777Y63533D01*
X76806Y63548D01*
X76840Y63563D01*
X76881Y63577D01*
X76928Y63590D01*
X76982Y63601D01*
X77040Y63609D01*
X77047Y63610D01*
X77170Y63491D01*
X77167Y63300D01*
X77150D01*
Y63101D01*
X77149Y63097D01*
X77150Y63093D01*
Y63079D01*
X77150Y63079D01*
X77150Y63078D01*
Y62207D01*
X77149Y62203D01*
X77150Y62199D01*
Y62000D01*
X77312D01*
X77321Y61970D01*
X77330Y61927D01*
X77344Y61786D01*
X77346Y61699D01*
X77354Y61662D01*
X77362Y61625D01*
X77363Y61623D01*
X77363Y61621D01*
X77385Y61590D01*
X77406Y61559D01*
X77408Y61558D01*
X77409Y61556D01*
X77416Y61552D01*
Y58270D01*
X75990Y56845D01*
X75954D01*
X75776Y56771D01*
X75640Y56635D01*
X75566Y56457D01*
Y56265D01*
X75640Y56087D01*
X75776Y55951D01*
X75954Y55877D01*
X76146D01*
X76324Y55951D01*
X76460Y56087D01*
X76534Y56265D01*
Y56301D01*
X78072Y57839D01*
X78072Y57839D01*
X78155Y57964D01*
X78184Y58111D01*
Y61552D01*
X78191Y61556D01*
X78192Y61558D01*
X78194Y61559D01*
X78215Y61590D01*
X78237Y61621D01*
X78237Y61623D01*
X78238Y61625D01*
X78246Y61662D01*
X78254Y61699D01*
X78256Y61789D01*
X78261Y61863D01*
X78269Y61924D01*
X78276Y61955D01*
X78347Y61982D01*
X78407Y61992D01*
X78496Y61946D01*
X78555Y61946D01*
X79073D01*
Y62650D01*
Y63354D01*
X78496D01*
X78391Y63300D01*
X78144Y63300D01*
X78128Y63302D01*
X78120Y63314D01*
X78109Y63342D01*
X78097Y63385D01*
X78087Y63443D01*
X78086Y63458D01*
X78168Y63553D01*
X78207Y63571D01*
X78498D01*
Y64075D01*
Y64579D01*
X78121D01*
X78016Y64525D01*
X77279Y64525D01*
X77262Y64529D01*
X77182Y64530D01*
X77040Y64541D01*
X76982Y64549D01*
X76928Y64560D01*
X76881Y64573D01*
X76842Y64586D01*
X76829Y64624D01*
X76817Y64671D01*
X76807Y64725D01*
X76798Y64783D01*
X76788Y64927D01*
X76787Y65007D01*
X76779Y65042D01*
X76773Y65078D01*
X76771Y65081D01*
X76770Y65085D01*
X76749Y65114D01*
X76730Y65145D01*
X76727Y65147D01*
X76725Y65150D01*
X76717Y65155D01*
Y65593D01*
X76724Y65598D01*
X76725Y65599D01*
X76727Y65601D01*
X76748Y65632D01*
X76769Y65663D01*
X76770Y65665D01*
X76771Y65667D01*
X76779Y65704D01*
X76787Y65740D01*
X76789Y65830D01*
X76794Y65904D01*
X76802Y65964D01*
X76812Y66010D01*
X76823Y66041D01*
X76823Y66042D01*
X76991D01*
Y66240D01*
X76991Y66245D01*
X76991Y66249D01*
X76991Y67042D01*
X77092Y67102D01*
X77254D01*
Y67067D01*
X79054D01*
Y67102D01*
X80272D01*
X80295Y67089D01*
X80473Y67042D01*
X80657D01*
X80835Y67089D01*
X80857Y67102D01*
X100336D01*
Y63600D01*
Y62726D01*
X100384Y62481D01*
X100523Y62274D01*
X100730Y62135D01*
X100975Y62086D01*
X101220Y62135D01*
X101427Y62274D01*
X101566Y62481D01*
X101614Y62726D01*
Y63600D01*
Y67102D01*
X101850D01*
X102095Y67151D01*
X102302Y67290D01*
X102441Y67497D01*
X102489Y67742D01*
X102441Y67986D01*
X102302Y68194D01*
X102095Y68332D01*
X101850Y68381D01*
X80857D01*
X80835Y68394D01*
X80657Y68442D01*
X80473D01*
X80295Y68394D01*
X80272Y68381D01*
X79054D01*
Y68417D01*
X77254D01*
Y68381D01*
X50709D01*
X50663Y68411D01*
X50663Y68411D01*
X50663Y68411D01*
X50663Y68411D01*
X50628Y68426D01*
X50590Y68442D01*
X50590D01*
X50590Y68442D01*
D02*
G37*
G36*
X109475Y67474D02*
X108852D01*
X108655Y67435D01*
X108488Y67323D01*
X108377Y67157D01*
X108338Y66960D01*
Y66837D01*
X109475D01*
Y67474D01*
D02*
G37*
G36*
X39349Y66954D02*
X38476D01*
Y66317D01*
X39863D01*
Y66440D01*
X39824Y66637D01*
X39713Y66803D01*
X39546Y66915D01*
X39349Y66954D01*
D02*
G37*
G36*
X38222D02*
X37349D01*
X37153Y66915D01*
X36986Y66803D01*
X36874Y66637D01*
X36835Y66440D01*
Y66337D01*
X36708Y66312D01*
X36645Y66464D01*
X36509Y66600D01*
X36331Y66674D01*
X36139D01*
X36081Y66650D01*
X36074Y66651D01*
X36049Y66654D01*
X35975Y66764D01*
X35826Y66864D01*
X35651Y66899D01*
X33651D01*
X33475Y66864D01*
X33326Y66764D01*
X33260Y66664D01*
X33249Y66662D01*
X33209Y66655D01*
X33161Y66651D01*
X33106Y66674D01*
X32914D01*
X32736Y66600D01*
X32600Y66464D01*
X32526Y66286D01*
Y66094D01*
X32600Y65916D01*
X32736Y65780D01*
X32914Y65706D01*
X33106D01*
X33164Y65730D01*
X33206Y65725D01*
X33249Y65718D01*
X33260Y65716D01*
X33326Y65616D01*
X33475Y65516D01*
X33651Y65481D01*
X35651D01*
X35826Y65516D01*
X35975Y65616D01*
X36049Y65725D01*
X36085Y65728D01*
X36139Y65706D01*
X36331D01*
X36509Y65780D01*
X36645Y65916D01*
X36708Y66068D01*
X36835Y66043D01*
Y65940D01*
X36874Y65743D01*
X36986Y65577D01*
X37153Y65465D01*
X37349Y65426D01*
X38222D01*
Y66190D01*
Y66954D01*
D02*
G37*
G36*
X30357Y68645D02*
X30045D01*
X29743Y68564D01*
X29473Y68408D01*
X29253Y68188D01*
X29097Y67917D01*
X29016Y67616D01*
Y67304D01*
X29097Y67003D01*
X29253Y66732D01*
X29473Y66512D01*
X29743Y66356D01*
X30045Y66275D01*
X30357D01*
X30658Y66356D01*
X30928Y66512D01*
X31149Y66732D01*
X31305Y67003D01*
X31386Y67304D01*
Y67616D01*
X31305Y67917D01*
X31149Y68188D01*
X30928Y68408D01*
X30658Y68564D01*
X30357Y68645D01*
D02*
G37*
G36*
X79108Y66621D02*
X78825D01*
X78825Y66596D01*
X78838Y66389D01*
X78842Y66375D01*
X78846Y66367D01*
X78851Y66364D01*
X78354Y66361D01*
Y66092D01*
X79108D01*
Y66621D01*
D02*
G37*
G36*
X77475D02*
X77200D01*
Y66092D01*
X77954D01*
Y66361D01*
X77457Y66364D01*
X77461Y66367D01*
X77464Y66375D01*
X77466Y66389D01*
X77469Y66410D01*
X77473Y66504D01*
X77475Y66621D01*
D02*
G37*
G36*
X109475Y66583D02*
X108338D01*
Y66460D01*
X108377Y66263D01*
X108488Y66097D01*
X108655Y65985D01*
X108852Y65946D01*
X109475D01*
Y66583D01*
D02*
G37*
G36*
X68516Y65975D02*
X66716D01*
Y65936D01*
X65780D01*
X65535Y65887D01*
X65463Y65839D01*
X64764D01*
X64741Y65852D01*
X64563Y65900D01*
X64379D01*
X64201Y65852D01*
X64041Y65760D01*
X63911Y65630D01*
X63819Y65470D01*
X63771Y65292D01*
Y65108D01*
X63819Y64930D01*
X63911Y64770D01*
X64041Y64640D01*
X64201Y64548D01*
X64379Y64500D01*
X64563D01*
X64741Y64548D01*
X64764Y64561D01*
X65683D01*
X65928Y64609D01*
X66000Y64657D01*
X66716D01*
Y64625D01*
X68308D01*
X68313Y64624D01*
X68317Y64625D01*
X68516D01*
Y64767D01*
X68539Y64774D01*
X68585Y64782D01*
X68686Y64791D01*
X68749Y64788D01*
X68803Y64782D01*
X68806Y64782D01*
Y64700D01*
X69005D01*
X69010Y64699D01*
X69014Y64700D01*
X70106D01*
Y65700D01*
X69015D01*
X69011Y65701D01*
X68826Y65702D01*
X68818Y65704D01*
X68729Y65706D01*
X68658Y65712D01*
X68601Y65722D01*
X68558Y65734D01*
X68530Y65745D01*
X68517Y65753D01*
X68516Y65769D01*
Y65975D01*
D02*
G37*
G36*
X39863Y66063D02*
X38476D01*
Y65426D01*
X39349D01*
X39546Y65465D01*
X39713Y65577D01*
X39824Y65743D01*
X39863Y65940D01*
Y66063D01*
D02*
G37*
G36*
X79108Y65692D02*
X78354D01*
Y65163D01*
X79108D01*
Y65692D01*
D02*
G37*
G36*
X77954D02*
X77200D01*
Y65163D01*
X77954D01*
Y65692D01*
D02*
G37*
G36*
X78752Y64579D02*
Y64202D01*
X79129D01*
Y64579D01*
X78752D01*
D02*
G37*
G36*
X68570Y64179D02*
X68315D01*
X68313Y63922D01*
X67866Y63919D01*
Y63700D01*
X68570D01*
Y64179D01*
D02*
G37*
G36*
X66921D02*
X66662D01*
Y63700D01*
X67366D01*
Y63919D01*
X66919Y63922D01*
X66919Y63925D01*
X66920Y63934D01*
X66921Y64179D01*
D02*
G37*
G36*
X79129Y63948D02*
X78752D01*
Y63571D01*
X79129D01*
Y63948D01*
D02*
G37*
G36*
X79327Y63354D02*
Y62777D01*
X79644D01*
Y62978D01*
X79647Y62963D01*
X79657Y62950D01*
X79674Y62938D01*
X79697Y62928D01*
X79727Y62920D01*
X79763Y62912D01*
X79806Y62907D01*
X79904Y62901D01*
Y63354D01*
X79327D01*
D02*
G37*
G36*
X68570Y63200D02*
X67866D01*
Y62721D01*
X68570D01*
Y63200D01*
D02*
G37*
G36*
X67366D02*
X66662D01*
Y62721D01*
X67366D01*
Y63200D01*
D02*
G37*
G36*
X68023Y62529D02*
X67646D01*
Y62152D01*
X68023D01*
Y62529D01*
D02*
G37*
G36*
X79644Y62523D02*
X79327D01*
Y61946D01*
X79904D01*
Y62399D01*
X79763Y62388D01*
X79727Y62380D01*
X79697Y62372D01*
X79674Y62362D01*
X79657Y62350D01*
X79647Y62337D01*
X79644Y62322D01*
Y62523D01*
D02*
G37*
G36*
X68023Y61898D02*
X67646D01*
Y61521D01*
X68023D01*
Y61898D01*
D02*
G37*
G36*
X70106Y64500D02*
X68806D01*
Y63707D01*
X68806Y63703D01*
X68806Y63699D01*
Y63500D01*
X68968D01*
X68978Y63470D01*
X68987Y63427D01*
X69001Y63286D01*
X69002Y63221D01*
X68878Y63097D01*
X68795Y62972D01*
X68766Y62825D01*
X68766Y62825D01*
Y62566D01*
X68654Y62529D01*
X68595Y62529D01*
X68277D01*
Y62025D01*
Y61521D01*
X68568D01*
X68585Y61516D01*
X68664Y61438D01*
X68647Y61339D01*
X68629Y61303D01*
X68603Y61293D01*
X68543Y61283D01*
X68454Y61329D01*
X68395Y61329D01*
X67877D01*
Y60625D01*
Y59921D01*
X68454D01*
X68559Y59975D01*
X68581Y59975D01*
X69593D01*
X69597Y59974D01*
X69601Y59975D01*
X69800D01*
Y60137D01*
X69830Y60146D01*
X69873Y60155D01*
X70014Y60169D01*
X70101Y60171D01*
X70138Y60179D01*
X70175Y60187D01*
X70177Y60188D01*
X70179Y60188D01*
X70210Y60210D01*
X70241Y60231D01*
X70242Y60233D01*
X70244Y60234D01*
X70248Y60241D01*
X70440D01*
X70500Y60216D01*
X70692D01*
X70870Y60290D01*
X71006Y60426D01*
X71080Y60604D01*
Y60796D01*
X71006Y60974D01*
X70870Y61110D01*
X70692Y61184D01*
X70500D01*
X70322Y61110D01*
X70235Y61023D01*
X70210Y61040D01*
X70179Y61062D01*
X70177Y61062D01*
X70175Y61063D01*
X70138Y61071D01*
X70101Y61079D01*
X70011Y61081D01*
X69937Y61086D01*
X69876Y61094D01*
X69830Y61104D01*
X69800Y61113D01*
Y61275D01*
X69638D01*
X69629Y61305D01*
X69620Y61348D01*
X69606Y61483D01*
X69624Y61509D01*
X69720Y61576D01*
X69731Y61576D01*
X69754Y61571D01*
X69838Y61570D01*
X69910Y61566D01*
X70043Y61552D01*
X70095Y61543D01*
X70142Y61532D01*
X70182Y61519D01*
X70215Y61506D01*
X70241Y61494D01*
X70243Y61492D01*
X70245Y61490D01*
X70256Y61484D01*
X70270Y61475D01*
X70275Y61473D01*
X70405Y61398D01*
X70583Y61350D01*
X70767D01*
X70945Y61398D01*
X71105Y61490D01*
X71235Y61620D01*
X71327Y61780D01*
X71375Y61958D01*
Y62142D01*
X71327Y62320D01*
X71235Y62480D01*
X71105Y62610D01*
X70945Y62702D01*
X70767Y62750D01*
X70583D01*
X70405Y62702D01*
X70245Y62610D01*
X70234Y62598D01*
X70206Y62578D01*
X70175Y62560D01*
X70139Y62543D01*
X70097Y62527D01*
X70050Y62513D01*
X69997Y62501D01*
X69941Y62492D01*
X69802Y62480D01*
X69725Y62479D01*
X69724Y62479D01*
X69636Y62476D01*
X69556Y62548D01*
X69553Y62685D01*
X69728Y62860D01*
X69728Y62860D01*
X69812Y62984D01*
X69823Y63040D01*
X69848Y63056D01*
X69849Y63058D01*
X69851Y63059D01*
X69872Y63090D01*
X69893Y63121D01*
X69894Y63123D01*
X69895Y63125D01*
X69902Y63162D01*
X69910Y63199D01*
X69912Y63289D01*
X69917Y63363D01*
X69925Y63424D01*
X69935Y63470D01*
X69945Y63500D01*
X70106D01*
Y63699D01*
X70107Y63703D01*
X70106Y63707D01*
Y64500D01*
D02*
G37*
G36*
X67623Y61329D02*
X67046D01*
Y60875D01*
X67055Y60876D01*
X67229Y60889D01*
X67256Y60896D01*
X67278Y60903D01*
X67294Y60911D01*
X67303Y60921D01*
X67306Y60932D01*
Y60752D01*
X67623D01*
Y61329D01*
D02*
G37*
G36*
Y60498D02*
X67306D01*
Y60318D01*
X67303Y60329D01*
X67294Y60339D01*
X67278Y60347D01*
X67256Y60354D01*
X67229Y60361D01*
X67194Y60366D01*
X67108Y60373D01*
X67046Y60374D01*
Y59921D01*
X67623D01*
Y60498D01*
D02*
G37*
G36*
X113883Y56147D02*
X113839Y56147D01*
X112900D01*
X112841Y56088D01*
Y56005D01*
X112900Y55946D01*
X113839D01*
X113883Y55946D01*
X113942Y56005D01*
Y56088D01*
X113883Y56147D01*
D02*
G37*
G36*
X112115D02*
X112072Y56147D01*
X111132D01*
X111073Y56088D01*
Y56005D01*
X111132Y55946D01*
X112072D01*
X112115Y55946D01*
X112174Y56005D01*
Y56088D01*
X112115Y56147D01*
D02*
G37*
G36*
X39368D02*
X39324Y56147D01*
X38385D01*
X38326Y56088D01*
Y56005D01*
X38385Y55946D01*
X39324D01*
X39368Y55946D01*
X39427Y56005D01*
Y56088D01*
X39368Y56147D01*
D02*
G37*
G36*
X37600D02*
X37556Y56147D01*
X36617D01*
X36558Y56088D01*
Y56005D01*
X36617Y55946D01*
X37556D01*
X37600Y55946D01*
X37659Y56005D01*
Y56088D01*
X37600Y56147D01*
D02*
G37*
G36*
X109736Y55244D02*
X109653D01*
X109594Y55186D01*
X109594Y55142D01*
Y54203D01*
X109653Y54144D01*
X109736D01*
X109795Y54203D01*
Y55142D01*
X109795Y55186D01*
X109736Y55244D01*
D02*
G37*
G36*
X40847D02*
X40764D01*
X40705Y55186D01*
X40705Y55142D01*
Y54203D01*
X40764Y54144D01*
X40847D01*
X40906Y54203D01*
Y55142D01*
X40906Y55186D01*
X40847Y55244D01*
D02*
G37*
G36*
X74142Y55526D02*
X73958D01*
X73780Y55478D01*
X73620Y55386D01*
X73490Y55256D01*
X73398Y55096D01*
X73350Y54918D01*
Y54734D01*
X73398Y54556D01*
X73490Y54396D01*
X73620Y54266D01*
X73780Y54174D01*
X73958Y54126D01*
X74142D01*
X74320Y54174D01*
X74480Y54266D01*
X74610Y54396D01*
X74702Y54556D01*
X74750Y54734D01*
Y54918D01*
X74702Y55096D01*
X74610Y55256D01*
X74480Y55386D01*
X74320Y55478D01*
X74142Y55526D01*
D02*
G37*
G36*
X109736Y53477D02*
X109653D01*
X109594Y53418D01*
X109594Y53374D01*
Y52435D01*
X109653Y52376D01*
X109736D01*
X109795Y52435D01*
Y53374D01*
X109795Y53418D01*
X109736Y53477D01*
D02*
G37*
G36*
X40847D02*
X40764D01*
X40705Y53418D01*
X40705Y53374D01*
Y52435D01*
X40764Y52376D01*
X40847D01*
X40906Y52435D01*
Y53374D01*
X40906Y53418D01*
X40847Y53477D01*
D02*
G37*
G36*
X74604Y46854D02*
X74075D01*
Y45750D01*
X74344D01*
Y46113D01*
X74347Y46096D01*
X74358Y46082D01*
X74375Y46069D01*
X74398Y46057D01*
X74429Y46048D01*
X74466Y46040D01*
X74511Y46034D01*
X74604Y46028D01*
Y46854D01*
D02*
G37*
G36*
X71804D02*
X71275D01*
Y45750D01*
X71804D01*
Y46854D01*
D02*
G37*
G36*
X73575D02*
X73046D01*
Y45750D01*
X73575D01*
Y46854D01*
D02*
G37*
G36*
X70775D02*
X70246D01*
Y45848D01*
X70258Y45848D01*
X70430Y45861D01*
X70457Y45867D01*
X70479Y45874D01*
X70494Y45882D01*
X70503Y45891D01*
X70506Y45901D01*
Y45750D01*
X70775D01*
Y46854D01*
D02*
G37*
G36*
X75754Y45004D02*
X75377D01*
Y44627D01*
X75754D01*
Y45004D01*
D02*
G37*
G36*
X75123D02*
X74746D01*
Y44627D01*
X75123D01*
Y45004D01*
D02*
G37*
G36*
X74604Y45250D02*
X74075D01*
Y44146D01*
X74604D01*
Y45250D01*
D02*
G37*
G36*
X70775D02*
X70246D01*
Y44146D01*
X70775D01*
Y45250D01*
D02*
G37*
G36*
X66525Y43279D02*
X66148D01*
Y42902D01*
X66181D01*
X66525D01*
Y43279D01*
D02*
G37*
G36*
X65894D02*
X65517D01*
Y42902D01*
X65845D01*
X65894D01*
Y43279D01*
D02*
G37*
G36*
X91179Y41454D02*
X90075D01*
X90075Y41437D01*
X90087Y41269D01*
X90092Y41242D01*
X90098Y41221D01*
X90105Y41206D01*
X90113Y41197D01*
X90122Y41194D01*
X90075D01*
Y40925D01*
X91179D01*
Y41454D01*
D02*
G37*
G36*
X89574D02*
X88471D01*
Y40925D01*
X89575D01*
Y41194D01*
X89528D01*
X89537Y41197D01*
X89545Y41206D01*
X89552Y41221D01*
X89558Y41242D01*
X89563Y41269D01*
X89567Y41302D01*
X89573Y41386D01*
X89574Y41454D01*
D02*
G37*
G36*
X82754Y40779D02*
X82377D01*
Y40402D01*
X82754D01*
Y40779D01*
D02*
G37*
G36*
X82123D02*
X81746D01*
Y40402D01*
X82100D01*
X82123D01*
Y40779D01*
D02*
G37*
%LPD*%
G36*
X58565Y77814D02*
X58571Y77812D01*
X58580Y77811D01*
X58591Y77809D01*
X58620Y77807D01*
X58710Y77805D01*
Y77505D01*
X58684Y77505D01*
X58571Y77498D01*
X58565Y77496D01*
X58562Y77494D01*
Y77816D01*
X58565Y77814D01*
D02*
G37*
G36*
X58233Y77494D02*
X58230Y77496D01*
X58224Y77498D01*
X58216Y77500D01*
X58205Y77501D01*
X58175Y77504D01*
X58085Y77505D01*
Y77805D01*
X58112Y77805D01*
X58224Y77812D01*
X58230Y77814D01*
X58233Y77816D01*
Y77494D01*
D02*
G37*
G36*
X63951Y76984D02*
X63957Y76982D01*
X63966Y76980D01*
X63977Y76979D01*
X64006Y76977D01*
X64096Y76975D01*
Y76675D01*
X64070Y76675D01*
X63957Y76668D01*
X63951Y76666D01*
X63948Y76664D01*
X63784Y76825D01*
X63948Y76986D01*
X63951Y76984D01*
D02*
G37*
G36*
X63784Y76825D02*
X63619Y76664D01*
X63616Y76666D01*
X63610Y76668D01*
X63497Y76675D01*
X63471Y76675D01*
Y76975D01*
X63561Y76977D01*
X63590Y76979D01*
X63601Y76980D01*
X63610Y76982D01*
X63616Y76984D01*
X63619Y76986D01*
X63784Y76825D01*
D02*
G37*
G36*
X80447Y75900D02*
X80390Y75897D01*
X80339Y75888D01*
X80294Y75873D01*
X80255Y75852D01*
X80222Y75825D01*
X80195Y75792D01*
X80174Y75753D01*
X80159Y75708D01*
X80150Y75657D01*
X80147Y75600D01*
X79847D01*
X79844Y75657D01*
X79835Y75708D01*
X79820Y75753D01*
X79799Y75792D01*
X79772Y75825D01*
X79739Y75852D01*
X79700Y75873D01*
X79655Y75888D01*
X79604Y75897D01*
X79547Y75900D01*
X79997Y76200D01*
X80447Y75900D01*
D02*
G37*
G36*
X58534Y75224D02*
X58532Y75218D01*
X58530Y75210D01*
X58529Y75199D01*
X58527Y75169D01*
X58525Y75080D01*
X58225D01*
X58225Y75106D01*
X58218Y75218D01*
X58216Y75224D01*
X58214Y75228D01*
X58536D01*
X58534Y75224D01*
D02*
G37*
G36*
X63944Y75170D02*
X63942Y75167D01*
X63940Y75161D01*
X63938Y75152D01*
X63937Y75141D01*
X63934Y75111D01*
X63932Y75022D01*
X63632Y75024D01*
X63632Y75050D01*
X63626Y75162D01*
X63624Y75168D01*
X63622Y75172D01*
X63944Y75170D01*
D02*
G37*
G36*
X112111Y74031D02*
X112108Y74059D01*
X112099Y74084D01*
X112083Y74107D01*
X112061Y74126D01*
X112033Y74143D01*
X111998Y74156D01*
X111958Y74167D01*
X111933Y74170D01*
X111931Y74169D01*
Y74171D01*
X111911Y74174D01*
X111858Y74179D01*
X111798Y74180D01*
Y74480D01*
X111858Y74481D01*
X111911Y74486D01*
X111931Y74489D01*
Y74491D01*
X111933Y74490D01*
X111958Y74493D01*
X111998Y74504D01*
X112033Y74517D01*
X112061Y74534D01*
X112083Y74553D01*
X112099Y74576D01*
X112108Y74601D01*
X112111Y74629D01*
Y74031D01*
D02*
G37*
G36*
X111670Y74638D02*
X111755Y74564D01*
X111760Y74561D01*
X111764Y74560D01*
X111536Y74332D01*
X111536Y74336D01*
X111533Y74342D01*
X111528Y74349D01*
X111521Y74358D01*
X111502Y74380D01*
X111440Y74445D01*
X111652Y74657D01*
X111670Y74638D01*
D02*
G37*
G36*
X108613Y74031D02*
X108610Y74059D01*
X108600Y74084D01*
X108585Y74107D01*
X108563Y74126D01*
X108535Y74143D01*
X108500Y74156D01*
X108459Y74167D01*
X108412Y74174D01*
X108359Y74179D01*
X108300Y74180D01*
Y74480D01*
X108359Y74481D01*
X108412Y74486D01*
X108459Y74493D01*
X108500Y74504D01*
X108535Y74517D01*
X108563Y74534D01*
X108585Y74553D01*
X108600Y74576D01*
X108610Y74601D01*
X108613Y74629D01*
Y74031D01*
D02*
G37*
G36*
X36334Y74096D02*
X36341Y73984D01*
X36343Y73978D01*
X36345Y73974D01*
X36026D01*
X36036Y73972D01*
X36080Y73965D01*
X36129Y73961D01*
X36184Y73960D01*
Y73660D01*
X36129Y73659D01*
X36080Y73655D01*
X36036Y73648D01*
X35998Y73639D01*
X35966Y73627D01*
X35940Y73613D01*
X35919Y73596D01*
X35905Y73576D01*
X35896Y73554D01*
X35893Y73529D01*
Y73660D01*
X35872Y73660D01*
Y73960D01*
X35893Y73960D01*
Y74091D01*
X35896Y74066D01*
X35905Y74044D01*
X35919Y74024D01*
X35940Y74007D01*
X35966Y73993D01*
X35998Y73981D01*
X36024Y73975D01*
X36025Y73978D01*
X36027Y73984D01*
X36029Y73992D01*
X36030Y74003D01*
X36033Y74033D01*
X36034Y74122D01*
X36334D01*
X36334Y74096D01*
D02*
G37*
G36*
X40469Y74022D02*
X40430Y73980D01*
X40401Y73937D01*
X40379Y73895D01*
X40367Y73852D01*
X40362Y73810D01*
X40367Y73768D01*
X40379Y73725D01*
X40401Y73683D01*
X40430Y73640D01*
X40469Y73598D01*
X40194Y73448D01*
X40151Y73488D01*
X40106Y73524D01*
X40059Y73556D01*
X40011Y73584D01*
X39960Y73607D01*
X39908Y73626D01*
X39854Y73641D01*
X39799Y73652D01*
X39783Y73653D01*
X39741Y73647D01*
X39701Y73636D01*
X39666Y73623D01*
X39638Y73606D01*
X39616Y73587D01*
X39601Y73564D01*
X39591Y73539D01*
X39588Y73511D01*
Y74109D01*
X39591Y74081D01*
X39601Y74056D01*
X39616Y74033D01*
X39638Y74014D01*
X39666Y73997D01*
X39701Y73984D01*
X39741Y73973D01*
X39783Y73967D01*
X39799Y73968D01*
X39854Y73979D01*
X39908Y73994D01*
X39960Y74013D01*
X40011Y74036D01*
X40059Y74064D01*
X40106Y74096D01*
X40151Y74132D01*
X40194Y74172D01*
X40469Y74022D01*
D02*
G37*
G36*
X110472Y73880D02*
X110447Y73867D01*
X110424Y73848D01*
X110405Y73822D01*
X110389Y73790D01*
X110375Y73751D01*
X110365Y73705D01*
X110358Y73653D01*
X110353Y73594D01*
X110352Y73528D01*
X110052D01*
X110050Y73588D01*
X110046Y73642D01*
X110038Y73689D01*
X110028Y73729D01*
X110014Y73762D01*
X109998Y73789D01*
X109978Y73810D01*
X109956Y73824D01*
X109930Y73831D01*
X109902Y73831D01*
X110500Y73886D01*
X110472Y73880D01*
D02*
G37*
G36*
X58527Y73501D02*
X58531Y73452D01*
X58539Y73407D01*
X58549Y73365D01*
X58562Y73325D01*
X58579Y73289D01*
X58598Y73256D01*
X58621Y73226D01*
X58646Y73199D01*
X58675Y73175D01*
X58075D01*
X58104Y73199D01*
X58129Y73226D01*
X58152Y73256D01*
X58171Y73289D01*
X58188Y73325D01*
X58201Y73365D01*
X58211Y73407D01*
X58219Y73452D01*
X58223Y73501D01*
X58225Y73552D01*
X58525D01*
X58527Y73501D01*
D02*
G37*
G36*
X63932Y73552D02*
X63934Y73500D01*
X63938Y73452D01*
X63946Y73407D01*
X63956Y73364D01*
X63970Y73325D01*
X63986Y73289D01*
X64006Y73256D01*
X64028Y73226D01*
X64054Y73198D01*
X64082Y73174D01*
X63482Y73176D01*
X63511Y73200D01*
X63536Y73227D01*
X63559Y73257D01*
X63578Y73290D01*
X63595Y73326D01*
X63608Y73365D01*
X63619Y73407D01*
X63626Y73453D01*
X63631Y73501D01*
X63632Y73552D01*
X63932Y73552D01*
D02*
G37*
G36*
X80149Y73501D02*
X80153Y73453D01*
X80161Y73408D01*
X80171Y73366D01*
X80185Y73326D01*
X80202Y73290D01*
X80221Y73257D01*
X80244Y73227D01*
X80269Y73200D01*
X80298Y73177D01*
X79698Y73173D01*
X79726Y73198D01*
X79752Y73225D01*
X79774Y73255D01*
X79794Y73288D01*
X79810Y73325D01*
X79823Y73364D01*
X79834Y73406D01*
X79841Y73451D01*
X79846Y73500D01*
X79847Y73551D01*
X80147Y73553D01*
X80149Y73501D01*
D02*
G37*
G36*
X80148Y73061D02*
X80154Y72949D01*
X80156Y72943D01*
X80158Y72939D01*
X79836D01*
X79838Y72943D01*
X79840Y72949D01*
X79842Y72957D01*
X79843Y72968D01*
X79846Y72998D01*
X79847Y73087D01*
X80147D01*
X80148Y73061D01*
D02*
G37*
G36*
X58525D02*
X58532Y72949D01*
X58534Y72943D01*
X58536Y72939D01*
X58214D01*
X58216Y72943D01*
X58218Y72949D01*
X58220Y72957D01*
X58221Y72968D01*
X58223Y72998D01*
X58225Y73087D01*
X58525D01*
X58525Y73061D01*
D02*
G37*
G36*
X63932Y73086D02*
X63933Y73060D01*
X63939Y72948D01*
X63941Y72942D01*
X63943Y72938D01*
X63621Y72940D01*
X63623Y72944D01*
X63625Y72950D01*
X63627Y72958D01*
X63628Y72969D01*
X63631Y72999D01*
X63632Y73088D01*
X63932Y73086D01*
D02*
G37*
G36*
X112111Y71491D02*
X112108Y71519D01*
X112099Y71544D01*
X112083Y71567D01*
X112061Y71586D01*
X112033Y71603D01*
X111998Y71616D01*
X111958Y71627D01*
X111916Y71633D01*
X111912Y71633D01*
X111906Y71631D01*
X111903Y71629D01*
Y71635D01*
X111858Y71639D01*
X111798Y71640D01*
Y71940D01*
X111858Y71941D01*
X111903Y71945D01*
Y71951D01*
X111906Y71949D01*
X111912Y71947D01*
X111915Y71947D01*
X111958Y71953D01*
X111998Y71964D01*
X112033Y71977D01*
X112061Y71994D01*
X112083Y72013D01*
X112099Y72036D01*
X112108Y72061D01*
X112111Y72089D01*
Y71491D01*
D02*
G37*
G36*
X108084Y71949D02*
X108090Y71947D01*
X108098Y71945D01*
X108109Y71944D01*
X108139Y71942D01*
X108228Y71940D01*
Y71640D01*
X108202Y71640D01*
X108090Y71633D01*
X108084Y71631D01*
X108080Y71629D01*
Y71951D01*
X108084Y71949D01*
D02*
G37*
G36*
X114092Y72061D02*
X114101Y72036D01*
X114117Y72013D01*
X114139Y71994D01*
X114167Y71977D01*
X114202Y71964D01*
X114242Y71953D01*
X114289Y71946D01*
X114342Y71941D01*
X114402Y71940D01*
Y71640D01*
X114342Y71639D01*
X114289Y71634D01*
X114242Y71627D01*
X114202Y71616D01*
X114167Y71603D01*
X114139Y71586D01*
X114117Y71567D01*
X114101Y71544D01*
X114092Y71519D01*
X114089Y71491D01*
Y72089D01*
X114092Y72061D01*
D02*
G37*
G36*
X108613Y71491D02*
X108610Y71519D01*
X108600Y71544D01*
X108585Y71567D01*
X108563Y71586D01*
X108535Y71603D01*
X108500Y71616D01*
X108459Y71627D01*
X108412Y71634D01*
X108359Y71639D01*
X108300Y71640D01*
Y71940D01*
X108359Y71941D01*
X108412Y71946D01*
X108459Y71953D01*
X108500Y71964D01*
X108535Y71977D01*
X108563Y71994D01*
X108585Y72013D01*
X108600Y72036D01*
X108610Y72061D01*
X108613Y72089D01*
Y71491D01*
D02*
G37*
G36*
X107914Y71560D02*
X107910Y71559D01*
X107904Y71556D01*
X107897Y71551D01*
X107888Y71545D01*
X107866Y71525D01*
X107801Y71463D01*
X107589Y71675D01*
X107608Y71694D01*
X107682Y71778D01*
X107685Y71784D01*
X107686Y71788D01*
X107914Y71560D01*
D02*
G37*
G36*
X39591Y71541D02*
X39601Y71516D01*
X39616Y71493D01*
X39638Y71474D01*
X39666Y71457D01*
X39701Y71444D01*
X39741Y71433D01*
X39788Y71426D01*
X39812Y71424D01*
X39861Y71427D01*
X39867Y71429D01*
X39871Y71431D01*
Y71421D01*
X39901Y71420D01*
Y71120D01*
X39871Y71119D01*
Y71109D01*
X39867Y71111D01*
X39861Y71113D01*
X39853Y71115D01*
X39842Y71116D01*
X39826Y71117D01*
X39788Y71114D01*
X39741Y71107D01*
X39701Y71096D01*
X39666Y71083D01*
X39638Y71066D01*
X39616Y71047D01*
X39601Y71024D01*
X39591Y70999D01*
X39588Y70971D01*
Y71569D01*
X39591Y71541D01*
D02*
G37*
G36*
X35893D02*
X35902Y71516D01*
X35918Y71493D01*
X35940Y71474D01*
X35968Y71457D01*
X36002Y71444D01*
X36043Y71433D01*
X36090Y71426D01*
X36143Y71421D01*
X36203Y71420D01*
Y71120D01*
X36143Y71119D01*
X36090Y71114D01*
X36043Y71107D01*
X36002Y71096D01*
X35968Y71083D01*
X35940Y71066D01*
X35918Y71047D01*
X35902Y71024D01*
X35893Y70999D01*
X35890Y70971D01*
Y71569D01*
X35893Y71541D01*
D02*
G37*
G36*
X33412Y70971D02*
X33409Y70999D01*
X33399Y71024D01*
X33384Y71047D01*
X33362Y71066D01*
X33334Y71083D01*
X33299Y71096D01*
X33259Y71107D01*
X33212Y71114D01*
X33158Y71119D01*
X33099Y71120D01*
Y71420D01*
X33158Y71421D01*
X33212Y71426D01*
X33259Y71433D01*
X33299Y71444D01*
X33334Y71457D01*
X33362Y71474D01*
X33384Y71493D01*
X33399Y71516D01*
X33409Y71541D01*
X33412Y71569D01*
Y70971D01*
D02*
G37*
G36*
X40266Y71264D02*
X40269Y71258D01*
X40273Y71251D01*
X40280Y71242D01*
X40300Y71220D01*
X40362Y71155D01*
X40150Y70943D01*
X40131Y70962D01*
X40047Y71036D01*
X40041Y71039D01*
X40037Y71040D01*
X40265Y71268D01*
X40266Y71264D01*
D02*
G37*
G36*
X108099Y69409D02*
X108105Y69407D01*
X108113Y69405D01*
X108124Y69404D01*
X108154Y69402D01*
X108244Y69400D01*
Y69100D01*
X108217Y69100D01*
X108105Y69093D01*
X108099Y69091D01*
X108096Y69089D01*
Y69411D01*
X108099Y69409D01*
D02*
G37*
G36*
X108613Y68951D02*
X108610Y68979D01*
X108600Y69004D01*
X108585Y69027D01*
X108563Y69046D01*
X108535Y69063D01*
X108500Y69076D01*
X108459Y69087D01*
X108412Y69094D01*
X108359Y69099D01*
X108300Y69100D01*
Y69400D01*
X108359Y69401D01*
X108412Y69406D01*
X108459Y69413D01*
X108500Y69424D01*
X108535Y69437D01*
X108563Y69454D01*
X108585Y69473D01*
X108600Y69496D01*
X108610Y69521D01*
X108613Y69549D01*
Y68951D01*
D02*
G37*
G36*
X107929Y69020D02*
X107925Y69019D01*
X107920Y69016D01*
X107912Y69011D01*
X107904Y69005D01*
X107881Y68985D01*
X107816Y68923D01*
X107604Y69135D01*
X107623Y69154D01*
X107697Y69238D01*
X107700Y69244D01*
X107701Y69248D01*
X107929Y69020D01*
D02*
G37*
G36*
X112134Y68884D02*
X112130Y68906D01*
X112118Y68926D01*
X112098Y68943D01*
X112070Y68958D01*
X112033Y68971D01*
X111989Y68981D01*
X111936Y68990D01*
X111876Y68995D01*
X111730Y69000D01*
Y69500D01*
X111807Y69501D01*
X111936Y69510D01*
X111989Y69519D01*
X112033Y69529D01*
X112070Y69542D01*
X112098Y69557D01*
X112118Y69575D01*
X112130Y69594D01*
X112134Y69616D01*
Y68884D01*
D02*
G37*
G36*
X114054Y69644D02*
X114086Y69614D01*
X114123Y69587D01*
X114165Y69564D01*
X114213Y69545D01*
X114266Y69528D01*
X114324Y69516D01*
X114387Y69507D01*
X114456Y69502D01*
X114530Y69500D01*
Y69000D01*
X114456Y68998D01*
X114387Y68993D01*
X114324Y68984D01*
X114266Y68972D01*
X114213Y68955D01*
X114165Y68936D01*
X114123Y68913D01*
X114086Y68886D01*
X114054Y68856D01*
X114028Y68822D01*
Y69678D01*
X114054Y69644D01*
D02*
G37*
G36*
X39591Y69001D02*
X39601Y68976D01*
X39616Y68953D01*
X39638Y68934D01*
X39666Y68917D01*
X39701Y68904D01*
X39741Y68893D01*
X39788Y68886D01*
X39805Y68885D01*
X39846Y68887D01*
X39852Y68889D01*
X39855Y68891D01*
Y68881D01*
X39901Y68880D01*
Y68580D01*
X39855Y68579D01*
Y68569D01*
X39852Y68571D01*
X39846Y68573D01*
X39837Y68575D01*
X39826Y68576D01*
X39819Y68577D01*
X39788Y68574D01*
X39741Y68567D01*
X39701Y68556D01*
X39666Y68543D01*
X39638Y68526D01*
X39616Y68507D01*
X39601Y68484D01*
X39591Y68459D01*
X39588Y68431D01*
Y69029D01*
X39591Y69001D01*
D02*
G37*
G36*
X40250Y68724D02*
X40253Y68718D01*
X40258Y68711D01*
X40265Y68702D01*
X40284Y68680D01*
X40346Y68615D01*
X40134Y68403D01*
X40116Y68422D01*
X40031Y68496D01*
X40026Y68499D01*
X40022Y68500D01*
X40250Y68728D01*
X40250Y68724D01*
D02*
G37*
G36*
X112144Y66329D02*
X112140Y66354D01*
X112127Y66376D01*
X112105Y66396D01*
X112075Y66413D01*
X112037Y66427D01*
X111990Y66439D01*
X111934Y66448D01*
X111870Y66455D01*
X111716Y66460D01*
Y66960D01*
X111797Y66961D01*
X111934Y66972D01*
X111990Y66981D01*
X112037Y66993D01*
X112075Y67007D01*
X112105Y67024D01*
X112127Y67044D01*
X112140Y67066D01*
X112144Y67091D01*
Y66329D01*
D02*
G37*
G36*
X114054Y67104D02*
X114086Y67074D01*
X114123Y67047D01*
X114165Y67024D01*
X114213Y67005D01*
X114266Y66988D01*
X114324Y66976D01*
X114387Y66967D01*
X114456Y66962D01*
X114530Y66960D01*
Y66460D01*
X114456Y66458D01*
X114387Y66453D01*
X114324Y66444D01*
X114266Y66432D01*
X114213Y66415D01*
X114165Y66396D01*
X114123Y66373D01*
X114086Y66346D01*
X114054Y66316D01*
X114028Y66282D01*
Y67138D01*
X114054Y67104D01*
D02*
G37*
G36*
X42089Y64433D02*
X42096Y64321D01*
X42098Y64315D01*
X42100Y64312D01*
X41778D01*
X41780Y64315D01*
X41782Y64321D01*
X41783Y64329D01*
X41785Y64340D01*
X41787Y64370D01*
X41789Y64460D01*
X42089D01*
X42089Y64433D01*
D02*
G37*
G36*
X105900Y62636D02*
X105907Y62524D01*
X105909Y62518D01*
X105911Y62514D01*
X105589D01*
X105591Y62518D01*
X105593Y62524D01*
X105595Y62532D01*
X105596Y62543D01*
X105598Y62573D01*
X105600Y62662D01*
X105900D01*
X105900Y62636D01*
D02*
G37*
G36*
X42775Y62395D02*
X42782Y62283D01*
X42784Y62277D01*
X42786Y62273D01*
X42464D01*
X42466Y62277D01*
X42468Y62283D01*
X42470Y62291D01*
X42471Y62302D01*
X42473Y62332D01*
X42475Y62421D01*
X42775D01*
X42775Y62395D01*
D02*
G37*
G36*
X107327Y60790D02*
X107308Y60771D01*
X107234Y60687D01*
X107231Y60681D01*
X107230Y60677D01*
X107002Y60905D01*
X107006Y60906D01*
X107012Y60909D01*
X107019Y60914D01*
X107028Y60920D01*
X107050Y60940D01*
X107115Y61002D01*
X107327Y60790D01*
D02*
G37*
G36*
X43426Y60647D02*
X43433Y60534D01*
X43434Y60528D01*
X43436Y60525D01*
X43114D01*
X43117Y60528D01*
X43118Y60534D01*
X43120Y60543D01*
X43122Y60554D01*
X43124Y60583D01*
X43125Y60673D01*
X43425D01*
X43426Y60647D01*
D02*
G37*
G36*
X105480Y60457D02*
X105565Y60382D01*
X105571Y60379D01*
X105574Y60378D01*
X105347Y60151D01*
X105346Y60154D01*
X105343Y60160D01*
X105338Y60167D01*
X105331Y60176D01*
X105312Y60199D01*
X105250Y60263D01*
X105462Y60475D01*
X105480Y60457D01*
D02*
G37*
G36*
X35889Y69035D02*
X35899Y69023D01*
X35916Y69013D01*
X35940Y69004D01*
X35970Y68997D01*
X36007Y68991D01*
X36050Y68986D01*
X36157Y68981D01*
X36221Y68980D01*
Y68480D01*
X36157Y68479D01*
X36007Y68469D01*
X35970Y68463D01*
X35940Y68456D01*
X35916Y68447D01*
X35899Y68437D01*
X35889Y68425D01*
X35886Y68412D01*
Y69048D01*
X35889Y69035D01*
D02*
G37*
G36*
X33449Y68343D02*
X33445Y68369D01*
X33432Y68392D01*
X33410Y68413D01*
X33379Y68431D01*
X33339Y68446D01*
X33291Y68458D01*
X33234Y68468D01*
X33168Y68475D01*
X33010Y68480D01*
Y68980D01*
X33093Y68981D01*
X33234Y68992D01*
X33291Y69002D01*
X33339Y69014D01*
X33379Y69029D01*
X33410Y69047D01*
X33432Y69068D01*
X33445Y69091D01*
X33449Y69117D01*
Y68343D01*
D02*
G37*
G36*
X52050Y67242D02*
X51860Y67232D01*
X51690Y67202D01*
X51540Y67152D01*
X51410Y67082D01*
X51300Y66992D01*
X51210Y66882D01*
X51140Y66752D01*
X51090Y66602D01*
X51060Y66432D01*
X51050Y66242D01*
X50050D01*
X50040Y66432D01*
X50010Y66602D01*
X49960Y66752D01*
X49890Y66882D01*
X49800Y66992D01*
X49690Y67082D01*
X49560Y67152D01*
X49410Y67202D01*
X49240Y67232D01*
X49050Y67242D01*
X50550Y68242D01*
X52050Y67242D01*
D02*
G37*
G36*
X76749Y66240D02*
X76714Y66225D01*
X76683Y66200D01*
X76657Y66165D01*
X76634Y66120D01*
X76616Y66065D01*
X76601Y66000D01*
X76591Y65925D01*
X76585Y65840D01*
X76583Y65745D01*
X76083D01*
X76081Y65840D01*
X76066Y66000D01*
X76053Y66065D01*
X76035Y66120D01*
X76015Y66165D01*
X75990Y66200D01*
X75962Y66225D01*
X75930Y66240D01*
X75894Y66245D01*
X76788D01*
X76749Y66240D01*
D02*
G37*
G36*
X76583Y65003D02*
X76584Y64918D01*
X76595Y64762D01*
X76605Y64692D01*
X76618Y64626D01*
X76633Y64566D01*
X76652Y64511D01*
X76673Y64461D01*
X76687Y64434D01*
X76716Y64419D01*
X76766Y64397D01*
X76822Y64378D01*
X76882Y64362D01*
X76947Y64348D01*
X77017Y64338D01*
X77173Y64326D01*
X77258Y64325D01*
Y63825D01*
X77173Y63824D01*
X77017Y63812D01*
X76947Y63802D01*
X76882Y63788D01*
X76822Y63772D01*
X76766Y63753D01*
X76716Y63731D01*
X76670Y63707D01*
X76630Y63679D01*
Y64378D01*
X75931Y64383D01*
X75960Y64424D01*
X75986Y64470D01*
X76008Y64521D01*
X76028Y64577D01*
X76045Y64637D01*
X76059Y64703D01*
X76069Y64773D01*
X76081Y64928D01*
X76083Y65012D01*
X76583Y65003D01*
D02*
G37*
G36*
X77878Y63502D02*
X77885Y63417D01*
X77897Y63342D01*
X77915Y63277D01*
X77938Y63222D01*
X77965Y63177D01*
X77997Y63142D01*
X78035Y63117D01*
X78077Y63102D01*
X78125Y63097D01*
X77353D01*
X77357Y63102D01*
X77361Y63117D01*
X77364Y63142D01*
X77370Y63222D01*
X77375Y63597D01*
X77875D01*
X77878Y63502D01*
D02*
G37*
G36*
X78210Y62198D02*
X78176Y62183D01*
X78147Y62158D01*
X78121Y62123D01*
X78099Y62078D01*
X78082Y62023D01*
X78068Y61958D01*
X78058Y61883D01*
X78052Y61798D01*
X78050Y61703D01*
X77550D01*
X77548Y61798D01*
X77532Y61958D01*
X77518Y62023D01*
X77501Y62078D01*
X77479Y62123D01*
X77453Y62158D01*
X77424Y62183D01*
X77390Y62198D01*
X77353Y62203D01*
X78247D01*
X78210Y62198D01*
D02*
G37*
G36*
X35887Y66506D02*
X35897Y66492D01*
X35915Y66480D01*
X35939Y66469D01*
X35971Y66460D01*
X36010Y66453D01*
X36056Y66447D01*
X36168Y66441D01*
X36235Y66440D01*
Y65940D01*
X36168Y65939D01*
X36010Y65927D01*
X35971Y65920D01*
X35939Y65911D01*
X35915Y65900D01*
X35897Y65888D01*
X35887Y65874D01*
X35883Y65858D01*
Y66522D01*
X35887Y66506D01*
D02*
G37*
G36*
X33449Y65803D02*
X33445Y65829D01*
X33432Y65852D01*
X33410Y65873D01*
X33379Y65891D01*
X33339Y65906D01*
X33291Y65918D01*
X33234Y65928D01*
X33168Y65935D01*
X33010Y65940D01*
Y66440D01*
X33093Y66441D01*
X33234Y66452D01*
X33291Y66462D01*
X33339Y66474D01*
X33379Y66489D01*
X33410Y66507D01*
X33432Y66528D01*
X33445Y66551D01*
X33449Y66577D01*
Y65803D01*
D02*
G37*
G36*
X68318Y65702D02*
X68333Y65660D01*
X68358Y65622D01*
X68393Y65590D01*
X68438Y65562D01*
X68493Y65540D01*
X68558Y65522D01*
X68633Y65510D01*
X68718Y65503D01*
X68813Y65500D01*
Y65498D01*
X69010Y65497D01*
Y64903D01*
X69005Y64921D01*
X68990Y64938D01*
X68965Y64952D01*
X68930Y64965D01*
X68885Y64976D01*
X68830Y64984D01*
X68765Y64991D01*
X68682Y64995D01*
X68558Y64985D01*
X68493Y64972D01*
X68438Y64957D01*
X68393Y64938D01*
X68358Y64916D01*
X68333Y64890D01*
X68318Y64861D01*
X68313Y64828D01*
Y65750D01*
X68318Y65702D01*
D02*
G37*
G36*
X69866Y63698D02*
X69833Y63683D01*
X69803Y63658D01*
X69777Y63623D01*
X69756Y63578D01*
X69738Y63523D01*
X69724Y63458D01*
X69714Y63383D01*
X69708Y63298D01*
X69706Y63203D01*
X69206D01*
X69204Y63298D01*
X69189Y63458D01*
X69175Y63523D01*
X69157Y63578D01*
X69136Y63623D01*
X69110Y63658D01*
X69080Y63683D01*
X69047Y63698D01*
X69010Y63703D01*
X69903D01*
X69866Y63698D01*
D02*
G37*
G36*
X70380Y61646D02*
X70342Y61671D01*
X70299Y61693D01*
X70250Y61712D01*
X70196Y61729D01*
X70136Y61743D01*
X70071Y61754D01*
X69925Y61770D01*
X69844Y61774D01*
X69757Y61775D01*
X69728Y62275D01*
X69812Y62277D01*
X69966Y62290D01*
X70036Y62301D01*
X70101Y62316D01*
X70162Y62334D01*
X70219Y62355D01*
X70270Y62380D01*
X70318Y62407D01*
X70360Y62438D01*
X70380Y61646D01*
D02*
G37*
G36*
X69402Y61477D02*
X69418Y61317D01*
X69432Y61252D01*
X69449Y61197D01*
X69471Y61152D01*
X69497Y61117D01*
X69526Y61092D01*
X69560Y61077D01*
X69597Y61072D01*
X68703D01*
X68740Y61077D01*
X68774Y61092D01*
X68803Y61117D01*
X68829Y61152D01*
X68851Y61197D01*
X68868Y61252D01*
X68882Y61317D01*
X68892Y61392D01*
X68898Y61477D01*
X68900Y61572D01*
X69400D01*
X69402Y61477D01*
D02*
G37*
G36*
X69602Y61035D02*
X69617Y61001D01*
X69642Y60972D01*
X69677Y60946D01*
X69722Y60924D01*
X69777Y60907D01*
X69842Y60893D01*
X69917Y60883D01*
X70002Y60877D01*
X70097Y60875D01*
Y60375D01*
X70002Y60373D01*
X69842Y60357D01*
X69777Y60343D01*
X69722Y60326D01*
X69677Y60304D01*
X69642Y60278D01*
X69617Y60249D01*
X69602Y60215D01*
X69597Y60178D01*
Y61072D01*
X69602Y61035D01*
D02*
G37*
%LPC*%
G36*
X40847Y47624D02*
X40764D01*
X40705Y47565D01*
X40705Y47521D01*
Y46582D01*
X40764Y46523D01*
X40847D01*
X40906Y46582D01*
Y47521D01*
X40906Y47565D01*
X40847Y47624D01*
D02*
G37*
G36*
X40847Y45856D02*
X40764D01*
X40705Y45797D01*
X40705Y45754D01*
Y44814D01*
X40764Y44756D01*
X40847D01*
X40906Y44814D01*
Y45754D01*
X40906Y45797D01*
X40847Y45856D01*
D02*
G37*
G36*
X39368Y44054D02*
X39324Y44054D01*
X38385D01*
X38326Y43995D01*
Y43912D01*
X38385Y43853D01*
X39324D01*
X39368Y43853D01*
X39427Y43912D01*
Y43995D01*
X39368Y44054D01*
D02*
G37*
G36*
X37600D02*
X37556Y44054D01*
X36617D01*
X36558Y43995D01*
Y43912D01*
X36617Y43853D01*
X37556D01*
X37600Y43853D01*
X37659Y43912D01*
Y43995D01*
X37600Y44054D01*
D02*
G37*
G36*
X39349Y34519D02*
X37349D01*
X37174Y34484D01*
X37025Y34384D01*
X36925Y34236D01*
X36890Y34060D01*
Y33560D01*
X36925Y33384D01*
X37025Y33236D01*
X37174Y33136D01*
X37349Y33101D01*
X39349D01*
X39525Y33136D01*
X39674Y33236D01*
X39773Y33384D01*
X39788Y33392D01*
X39948Y33326D01*
X40141D01*
X40318Y33400D01*
X40455Y33536D01*
X40528Y33714D01*
Y33906D01*
X40455Y34084D01*
X40318Y34220D01*
X40141Y34294D01*
X39948D01*
X39788Y34228D01*
X39773Y34236D01*
X39674Y34384D01*
X39525Y34484D01*
X39349Y34519D01*
D02*
G37*
G36*
X35651D02*
X33651D01*
X33475Y34484D01*
X33326Y34384D01*
X33227Y34236D01*
X33192Y34060D01*
Y33560D01*
X33227Y33384D01*
X33326Y33236D01*
X33475Y33136D01*
X33651Y33101D01*
X35651D01*
X35826Y33136D01*
X35975Y33236D01*
X36047Y33343D01*
X36088Y33326D01*
X36281D01*
X36458Y33400D01*
X36595Y33536D01*
X36668Y33714D01*
Y33906D01*
X36595Y34084D01*
X36458Y34220D01*
X36281Y34294D01*
X36088D01*
X36047Y34277D01*
X35975Y34384D01*
X35826Y34484D01*
X35651Y34519D01*
D02*
G37*
G36*
X30357Y33725D02*
X30045D01*
X29743Y33644D01*
X29473Y33488D01*
X29253Y33268D01*
X29097Y32997D01*
X29016Y32696D01*
Y32384D01*
X29097Y32083D01*
X29253Y31812D01*
X29473Y31592D01*
X29743Y31436D01*
X30045Y31355D01*
X30357D01*
X30658Y31436D01*
X30928Y31592D01*
X31149Y31812D01*
X31305Y32083D01*
X31386Y32384D01*
Y32696D01*
X31305Y32997D01*
X31149Y33268D01*
X30928Y33488D01*
X30658Y33644D01*
X30357Y33725D01*
D02*
G37*
G36*
X39349Y31979D02*
X37349D01*
X37174Y31944D01*
X37025Y31844D01*
X36925Y31696D01*
X36890Y31520D01*
Y31020D01*
X36925Y30844D01*
X37025Y30696D01*
X37174Y30596D01*
X37349Y30561D01*
X39349D01*
X39525Y30596D01*
X39674Y30696D01*
X39773Y30844D01*
X39784Y30850D01*
X39939Y30786D01*
X40131D01*
X40309Y30860D01*
X40445Y30996D01*
X40519Y31174D01*
Y31366D01*
X40445Y31544D01*
X40309Y31680D01*
X40131Y31754D01*
X39939D01*
X39784Y31690D01*
X39773Y31696D01*
X39674Y31844D01*
X39525Y31944D01*
X39349Y31979D01*
D02*
G37*
G36*
X35651D02*
X33651D01*
X33475Y31944D01*
X33326Y31844D01*
X33227Y31696D01*
X33192Y31520D01*
Y31020D01*
X33227Y30844D01*
X33326Y30696D01*
X33475Y30596D01*
X33651Y30561D01*
X35651D01*
X35826Y30596D01*
X35975Y30696D01*
X36053Y30812D01*
X36116Y30786D01*
X36308D01*
X36486Y30860D01*
X36622Y30996D01*
X36696Y31174D01*
Y31366D01*
X36622Y31544D01*
X36486Y31680D01*
X36308Y31754D01*
X36116D01*
X36053Y31728D01*
X35975Y31844D01*
X35826Y31944D01*
X35651Y31979D01*
D02*
G37*
G36*
Y29439D02*
X33651D01*
X33475Y29404D01*
X33326Y29304D01*
X33260Y29204D01*
X33249Y29202D01*
X33209Y29195D01*
X33161Y29191D01*
X33106Y29214D01*
X32914D01*
X32736Y29140D01*
X32600Y29004D01*
X32526Y28826D01*
Y28634D01*
X32600Y28456D01*
X32736Y28320D01*
X32914Y28246D01*
X33106D01*
X33164Y28270D01*
X33206Y28265D01*
X33249Y28258D01*
X33260Y28256D01*
X33326Y28156D01*
X33475Y28056D01*
X33651Y28021D01*
X35651D01*
X35826Y28056D01*
X35975Y28156D01*
X36050Y28268D01*
X36069Y28269D01*
X36124Y28246D01*
X36317D01*
X36495Y28320D01*
X36631Y28456D01*
X36705Y28634D01*
Y28826D01*
X36631Y29004D01*
X36495Y29140D01*
X36317Y29214D01*
X36124D01*
X36065Y29190D01*
X36051Y29191D01*
X35975Y29304D01*
X35826Y29404D01*
X35651Y29439D01*
D02*
G37*
G36*
X39349D02*
X37349D01*
X37174Y29404D01*
X37025Y29304D01*
X36925Y29156D01*
X36890Y28980D01*
Y28480D01*
X36925Y28304D01*
X37025Y28156D01*
X37174Y28056D01*
X37349Y28021D01*
X39349D01*
X39525Y28056D01*
X39674Y28156D01*
X39773Y28304D01*
X39777Y28307D01*
X39923Y28246D01*
X40116D01*
X40294Y28320D01*
X40430Y28456D01*
X40504Y28634D01*
Y28826D01*
X40430Y29004D01*
X40294Y29140D01*
X40116Y29214D01*
X39923D01*
X39777Y29153D01*
X39773Y29156D01*
X39674Y29304D01*
X39525Y29404D01*
X39349Y29439D01*
D02*
G37*
G36*
Y26954D02*
X38476D01*
Y26317D01*
X39863D01*
Y26440D01*
X39824Y26637D01*
X39713Y26803D01*
X39546Y26915D01*
X39349Y26954D01*
D02*
G37*
G36*
X38222D02*
X37349D01*
X37153Y26915D01*
X36986Y26803D01*
X36874Y26637D01*
X36835Y26440D01*
Y26337D01*
X36708Y26312D01*
X36645Y26464D01*
X36509Y26600D01*
X36331Y26674D01*
X36139D01*
X36081Y26650D01*
X36074Y26651D01*
X36049Y26654D01*
X35975Y26764D01*
X35826Y26864D01*
X35651Y26899D01*
X33651D01*
X33475Y26864D01*
X33326Y26764D01*
X33260Y26664D01*
X33249Y26662D01*
X33209Y26655D01*
X33161Y26651D01*
X33106Y26674D01*
X32914D01*
X32736Y26600D01*
X32600Y26464D01*
X32526Y26286D01*
Y26094D01*
X32600Y25916D01*
X32736Y25780D01*
X32914Y25706D01*
X33106D01*
X33164Y25730D01*
X33206Y25725D01*
X33249Y25718D01*
X33260Y25716D01*
X33326Y25616D01*
X33475Y25516D01*
X33651Y25481D01*
X35651D01*
X35826Y25516D01*
X35975Y25616D01*
X36049Y25725D01*
X36085Y25728D01*
X36139Y25706D01*
X36331D01*
X36509Y25780D01*
X36645Y25916D01*
X36708Y26068D01*
X36835Y26043D01*
Y25940D01*
X36874Y25743D01*
X36986Y25577D01*
X37153Y25465D01*
X37349Y25426D01*
X38222D01*
Y26190D01*
Y26954D01*
D02*
G37*
G36*
X30357Y28645D02*
X30045D01*
X29743Y28564D01*
X29473Y28408D01*
X29253Y28188D01*
X29097Y27917D01*
X29016Y27616D01*
Y27304D01*
X29097Y27003D01*
X29253Y26732D01*
X29473Y26512D01*
X29743Y26356D01*
X30045Y26275D01*
X30357D01*
X30658Y26356D01*
X30928Y26512D01*
X31149Y26732D01*
X31305Y27003D01*
X31386Y27304D01*
Y27616D01*
X31305Y27917D01*
X31149Y28188D01*
X30928Y28408D01*
X30658Y28564D01*
X30357Y28645D01*
D02*
G37*
G36*
X39863Y26063D02*
X38476D01*
Y25426D01*
X39349D01*
X39546Y25465D01*
X39713Y25577D01*
X39824Y25743D01*
X39863Y25940D01*
Y26063D01*
D02*
G37*
G36*
X39368Y16147D02*
X39324Y16147D01*
X38385D01*
X38326Y16088D01*
Y16005D01*
X38385Y15946D01*
X39324D01*
X39368Y15946D01*
X39427Y16005D01*
Y16088D01*
X39368Y16147D01*
D02*
G37*
G36*
X37600D02*
X37556Y16147D01*
X36617D01*
X36558Y16088D01*
Y16005D01*
X36617Y15946D01*
X37556D01*
X37600Y15946D01*
X37659Y16005D01*
Y16088D01*
X37600Y16147D01*
D02*
G37*
G36*
X47485Y18220D02*
X47165D01*
X46852Y18158D01*
X46558Y18036D01*
X46292Y17858D01*
X46067Y17633D01*
X45889Y17367D01*
X45767Y17073D01*
X45705Y16760D01*
Y16440D01*
X45767Y16127D01*
X45889Y15833D01*
X46067Y15567D01*
X46292Y15342D01*
X46558Y15164D01*
X46852Y15042D01*
X47165Y14980D01*
X47485D01*
X47798Y15042D01*
X48092Y15164D01*
X48358Y15342D01*
X48583Y15567D01*
X48761Y15833D01*
X48883Y16127D01*
X48945Y16440D01*
Y16760D01*
X48883Y17073D01*
X48761Y17367D01*
X48583Y17633D01*
X48358Y17858D01*
X48092Y18036D01*
X47798Y18158D01*
X47485Y18220D01*
D02*
G37*
G36*
X40847Y15244D02*
X40764D01*
X40705Y15186D01*
X40705Y15142D01*
Y14203D01*
X40764Y14144D01*
X40847D01*
X40906Y14203D01*
Y15142D01*
X40906Y15186D01*
X40847Y15244D01*
D02*
G37*
G36*
X40847Y13477D02*
X40764D01*
X40705Y13418D01*
X40705Y13374D01*
Y12435D01*
X40764Y12376D01*
X40847D01*
X40906Y12435D01*
Y13374D01*
X40906Y13418D01*
X40847Y13477D01*
D02*
G37*
%LPD*%
G36*
X39591Y34081D02*
X39601Y34056D01*
X39616Y34033D01*
X39638Y34014D01*
X39666Y33997D01*
X39701Y33984D01*
X39741Y33973D01*
X39788Y33966D01*
X39816Y33964D01*
X39871Y33967D01*
X39877Y33969D01*
X39880Y33971D01*
Y33961D01*
X39901Y33960D01*
Y33660D01*
X39880Y33659D01*
Y33649D01*
X39877Y33651D01*
X39871Y33653D01*
X39862Y33655D01*
X39851Y33656D01*
X39830Y33658D01*
X39788Y33654D01*
X39741Y33647D01*
X39701Y33636D01*
X39666Y33623D01*
X39638Y33606D01*
X39616Y33587D01*
X39601Y33564D01*
X39591Y33539D01*
X39588Y33511D01*
Y34109D01*
X39591Y34081D01*
D02*
G37*
G36*
X35896Y34066D02*
X35905Y34044D01*
X35919Y34024D01*
X35940Y34007D01*
X35966Y33993D01*
X35998Y33981D01*
X36036Y33972D01*
X36080Y33965D01*
X36129Y33961D01*
X36184Y33960D01*
Y33660D01*
X36129Y33659D01*
X36080Y33655D01*
X36036Y33648D01*
X35998Y33639D01*
X35966Y33627D01*
X35940Y33613D01*
X35919Y33596D01*
X35905Y33576D01*
X35896Y33554D01*
X35893Y33529D01*
Y33660D01*
X35872Y33660D01*
Y33960D01*
X35893Y33960D01*
Y34091D01*
X35896Y34066D01*
D02*
G37*
G36*
X39591Y31541D02*
X39601Y31516D01*
X39616Y31493D01*
X39638Y31474D01*
X39666Y31457D01*
X39701Y31444D01*
X39741Y31433D01*
X39788Y31426D01*
X39812Y31424D01*
X39861Y31427D01*
X39867Y31429D01*
X39871Y31431D01*
Y31421D01*
X39901Y31420D01*
Y31120D01*
X39871Y31119D01*
Y31109D01*
X39867Y31111D01*
X39861Y31113D01*
X39853Y31115D01*
X39842Y31116D01*
X39826Y31117D01*
X39788Y31114D01*
X39741Y31107D01*
X39701Y31096D01*
X39666Y31083D01*
X39638Y31066D01*
X39616Y31047D01*
X39601Y31024D01*
X39591Y30999D01*
X39588Y30971D01*
Y31569D01*
X39591Y31541D01*
D02*
G37*
G36*
X35893D02*
X35902Y31516D01*
X35918Y31493D01*
X35940Y31474D01*
X35968Y31457D01*
X36002Y31444D01*
X36043Y31433D01*
X36090Y31426D01*
X36143Y31421D01*
X36203Y31420D01*
Y31120D01*
X36143Y31119D01*
X36090Y31114D01*
X36043Y31107D01*
X36002Y31096D01*
X35968Y31083D01*
X35940Y31066D01*
X35918Y31047D01*
X35902Y31024D01*
X35893Y30999D01*
X35890Y30971D01*
Y31569D01*
X35893Y31541D01*
D02*
G37*
G36*
X35889Y29035D02*
X35899Y29023D01*
X35916Y29013D01*
X35940Y29004D01*
X35970Y28997D01*
X36007Y28991D01*
X36050Y28986D01*
X36157Y28981D01*
X36221Y28980D01*
Y28480D01*
X36157Y28479D01*
X36007Y28469D01*
X35970Y28463D01*
X35940Y28456D01*
X35916Y28447D01*
X35899Y28437D01*
X35889Y28425D01*
X35886Y28413D01*
Y29048D01*
X35889Y29035D01*
D02*
G37*
G36*
X33449Y28343D02*
X33445Y28369D01*
X33432Y28392D01*
X33410Y28413D01*
X33379Y28431D01*
X33339Y28446D01*
X33291Y28458D01*
X33234Y28468D01*
X33168Y28475D01*
X33010Y28480D01*
Y28980D01*
X33093Y28981D01*
X33234Y28992D01*
X33291Y29002D01*
X33339Y29014D01*
X33379Y29029D01*
X33410Y29047D01*
X33432Y29068D01*
X33445Y29091D01*
X33449Y29117D01*
Y28343D01*
D02*
G37*
G36*
X39591Y29001D02*
X39601Y28976D01*
X39616Y28953D01*
X39638Y28934D01*
X39666Y28917D01*
X39701Y28904D01*
X39741Y28893D01*
X39788Y28886D01*
X39805Y28885D01*
X39846Y28887D01*
X39852Y28889D01*
X39855Y28891D01*
Y28881D01*
X39901Y28880D01*
Y28580D01*
X39855Y28579D01*
Y28569D01*
X39852Y28571D01*
X39846Y28573D01*
X39837Y28575D01*
X39826Y28576D01*
X39819Y28577D01*
X39788Y28574D01*
X39741Y28567D01*
X39701Y28556D01*
X39666Y28543D01*
X39638Y28526D01*
X39616Y28507D01*
X39601Y28484D01*
X39591Y28459D01*
X39588Y28431D01*
Y29029D01*
X39591Y29001D01*
D02*
G37*
G36*
X35887Y26506D02*
X35897Y26492D01*
X35915Y26480D01*
X35939Y26469D01*
X35971Y26460D01*
X36010Y26453D01*
X36056Y26447D01*
X36168Y26441D01*
X36235Y26440D01*
Y25940D01*
X36168Y25939D01*
X36010Y25927D01*
X35971Y25920D01*
X35939Y25911D01*
X35915Y25900D01*
X35897Y25888D01*
X35887Y25874D01*
X35883Y25858D01*
Y26522D01*
X35887Y26506D01*
D02*
G37*
G36*
X33449Y25803D02*
X33445Y25829D01*
X33432Y25852D01*
X33410Y25873D01*
X33379Y25891D01*
X33339Y25906D01*
X33291Y25918D01*
X33234Y25928D01*
X33168Y25935D01*
X33010Y25940D01*
Y26440D01*
X33093Y26441D01*
X33234Y26452D01*
X33291Y26462D01*
X33339Y26474D01*
X33379Y26489D01*
X33410Y26507D01*
X33432Y26528D01*
X33445Y26551D01*
X33449Y26577D01*
Y25803D01*
D02*
G37*
%LPC*%
G36*
X93423Y38248D02*
X93046D01*
D01*
Y37871D01*
X93423D01*
Y38248D01*
D02*
G37*
G36*
X91179Y37625D02*
X90075D01*
Y37356D01*
X90127D01*
X90117Y37353D01*
X90108Y37344D01*
X90100Y37329D01*
X90094Y37307D01*
X90088Y37280D01*
X90083Y37246D01*
X90077Y37161D01*
X90076Y37096D01*
X91179D01*
Y37625D01*
D02*
G37*
G36*
X89575D02*
X88471D01*
Y37096D01*
X89575D01*
X89574Y37109D01*
X89562Y37280D01*
X89556Y37307D01*
X89550Y37329D01*
X89542Y37344D01*
X89533Y37353D01*
X89523Y37356D01*
X89575D01*
Y37625D01*
D02*
G37*
G36*
X66525Y37098D02*
X66370D01*
X66148D01*
Y36721D01*
X66525D01*
Y37098D01*
D02*
G37*
G36*
X65894D02*
X65863D01*
X65517D01*
Y36721D01*
X65894D01*
Y37098D01*
D02*
G37*
G36*
X76304Y32604D02*
X75775D01*
Y31500D01*
X76044D01*
Y31550D01*
X76047Y31540D01*
X76056Y31532D01*
X76071Y31524D01*
X76092Y31518D01*
X76120Y31512D01*
X76153Y31508D01*
X76238Y31502D01*
X76304Y31501D01*
Y32604D01*
D02*
G37*
G36*
X72475D02*
X71946D01*
Y31500D01*
X71969Y31500D01*
X72159Y31514D01*
X72180Y31520D01*
X72194Y31525D01*
X72203Y31532D01*
X72206Y31540D01*
Y31500D01*
X72475D01*
Y32604D01*
D02*
G37*
G36*
Y31000D02*
X72206D01*
Y30960D01*
X72203Y30968D01*
X72194Y30975D01*
X72180Y30980D01*
X72159Y30986D01*
X72133Y30990D01*
X72101Y30994D01*
X72019Y30998D01*
X71946Y31000D01*
Y29896D01*
X72475D01*
Y31000D01*
D02*
G37*
G36*
X76044D02*
X75775D01*
Y29896D01*
X76304D01*
Y31000D01*
X76289Y31000D01*
X76120Y30988D01*
X76092Y30982D01*
X76071Y30976D01*
X76056Y30968D01*
X76047Y30960D01*
X76044Y30950D01*
Y31000D01*
D02*
G37*
G36*
X75275D02*
X74746D01*
Y29896D01*
X75275D01*
Y31000D01*
D02*
G37*
G36*
X73504D02*
X72975D01*
Y29896D01*
X73504D01*
Y31000D01*
D02*
G37*
G36*
X109736Y7624D02*
X109653D01*
X109594Y7565D01*
X109594Y7521D01*
Y6582D01*
X109653Y6523D01*
X109736D01*
X109795Y6582D01*
Y7521D01*
X109795Y7565D01*
X109736Y7624D01*
D02*
G37*
G36*
X40847D02*
X40764D01*
X40705Y7565D01*
X40705Y7521D01*
Y6582D01*
X40764Y6523D01*
X40847D01*
X40906Y6582D01*
Y7521D01*
X40906Y7565D01*
X40847Y7624D01*
D02*
G37*
G36*
X109736Y5856D02*
X109653D01*
X109594Y5797D01*
X109594Y5754D01*
Y4814D01*
X109653Y4756D01*
X109736D01*
X109795Y4814D01*
Y5754D01*
X109795Y5797D01*
X109736Y5856D01*
D02*
G37*
G36*
X40847D02*
X40764D01*
X40705Y5797D01*
X40705Y5754D01*
Y4814D01*
X40764Y4756D01*
X40847D01*
X40906Y4814D01*
Y5754D01*
X40906Y5797D01*
X40847Y5856D01*
D02*
G37*
G36*
X113883Y4054D02*
X113839Y4054D01*
X112900D01*
X112841Y3995D01*
Y3912D01*
X112900Y3853D01*
X113839D01*
X113883Y3853D01*
X113942Y3912D01*
Y3995D01*
X113883Y4054D01*
D02*
G37*
G36*
X112115D02*
X112072Y4054D01*
X111132D01*
X111073Y3995D01*
Y3912D01*
X111132Y3853D01*
X112072D01*
X112115Y3853D01*
X112174Y3912D01*
Y3995D01*
X112115Y4054D01*
D02*
G37*
G36*
X39368D02*
X39324Y4054D01*
X38385D01*
X38326Y3995D01*
Y3912D01*
X38385Y3853D01*
X39324D01*
X39368Y3853D01*
X39427Y3912D01*
Y3995D01*
X39368Y4054D01*
D02*
G37*
G36*
X37600D02*
X37556Y4054D01*
X36617D01*
X36558Y3995D01*
Y3912D01*
X36617Y3853D01*
X37556D01*
X37600Y3853D01*
X37659Y3912D01*
Y3995D01*
X37600Y4054D01*
D02*
G37*
G36*
X104554Y48973D02*
X104177D01*
Y48596D01*
X104554D01*
Y48939D01*
Y48973D01*
D02*
G37*
G36*
X103923D02*
X103546D01*
Y48596D01*
X103923D01*
Y48973D01*
D02*
G37*
G36*
X109736Y47624D02*
X109653D01*
X109594Y47565D01*
X109594Y47521D01*
Y46582D01*
X109653Y46523D01*
X109736D01*
X109795Y46582D01*
Y47521D01*
X109795Y47565D01*
X109736Y47624D01*
D02*
G37*
G36*
X109736Y45856D02*
X109653D01*
X109594Y45797D01*
X109594Y45754D01*
Y44814D01*
X109653Y44756D01*
X109736D01*
X109795Y44814D01*
Y45754D01*
X109795Y45797D01*
X109736Y45856D01*
D02*
G37*
G36*
X113883Y44054D02*
X113839Y44054D01*
X112900D01*
X112841Y43995D01*
Y43912D01*
X112900Y43853D01*
X113839D01*
X113883Y43853D01*
X113942Y43912D01*
Y43995D01*
X113883Y44054D01*
D02*
G37*
G36*
X112115D02*
X112072Y44054D01*
X111132D01*
X111073Y43995D01*
Y43912D01*
X111132Y43853D01*
X112072D01*
X112115Y43853D01*
X112174Y43912D01*
Y43995D01*
X112115Y44054D01*
D02*
G37*
G36*
X113850Y34519D02*
X112350D01*
X112174Y34484D01*
X112026Y34384D01*
X111943Y34261D01*
X111863Y34294D01*
X111670D01*
X111492Y34220D01*
X111356Y34084D01*
X111282Y33906D01*
Y33714D01*
X111356Y33536D01*
X111492Y33400D01*
X111670Y33326D01*
X111863D01*
X111943Y33359D01*
X112026Y33236D01*
X112174Y33136D01*
X112350Y33101D01*
X113850D01*
X114026Y33136D01*
X114174Y33236D01*
X114274Y33384D01*
X114309Y33560D01*
Y34060D01*
X114274Y34236D01*
X114174Y34384D01*
X114026Y34484D01*
X113850Y34519D01*
D02*
G37*
G36*
X110352D02*
X108852D01*
X108676Y34484D01*
X108527Y34384D01*
X108428Y34236D01*
X108415Y34173D01*
X108388Y34169D01*
X108348Y34165D01*
X108295Y34164D01*
X108259Y34156D01*
X108241Y34160D01*
X108181Y34220D01*
X108003Y34294D01*
X107810D01*
X107632Y34220D01*
X107496Y34084D01*
X107423Y33906D01*
Y33714D01*
X107496Y33536D01*
X107632Y33400D01*
X107810Y33326D01*
X108003D01*
X108181Y33400D01*
X108241Y33461D01*
X108258Y33464D01*
X108259Y33464D01*
X108295Y33456D01*
X108348Y33455D01*
X108388Y33451D01*
X108415Y33447D01*
X108428Y33384D01*
X108527Y33236D01*
X108676Y33136D01*
X108852Y33101D01*
X110352D01*
X110527Y33136D01*
X110676Y33236D01*
X110775Y33384D01*
X110810Y33560D01*
Y34060D01*
X110775Y34236D01*
X110676Y34384D01*
X110527Y34484D01*
X110352Y34519D01*
D02*
G37*
G36*
X113850Y31979D02*
X112350D01*
X112174Y31944D01*
X112026Y31844D01*
X111937Y31712D01*
X111835Y31754D01*
X111642D01*
X111464Y31680D01*
X111328Y31544D01*
X111255Y31366D01*
Y31174D01*
X111328Y30996D01*
X111464Y30860D01*
X111642Y30786D01*
X111835D01*
X111937Y30828D01*
X112026Y30696D01*
X112174Y30596D01*
X112350Y30561D01*
X113850D01*
X114026Y30596D01*
X114174Y30696D01*
X114274Y30844D01*
X114309Y31020D01*
Y31520D01*
X114274Y31696D01*
X114174Y31844D01*
X114026Y31944D01*
X113850Y31979D01*
D02*
G37*
G36*
X110352D02*
X108852D01*
X108676Y31944D01*
X108527Y31844D01*
X108428Y31696D01*
X108415Y31633D01*
X108388Y31629D01*
X108348Y31625D01*
X108295Y31624D01*
X108264Y31617D01*
X108251Y31620D01*
X108190Y31680D01*
X108012Y31754D01*
X107820D01*
X107642Y31680D01*
X107506Y31544D01*
X107432Y31366D01*
Y31174D01*
X107506Y30996D01*
X107642Y30860D01*
X107820Y30786D01*
X108012D01*
X108190Y30860D01*
X108251Y30921D01*
X108264Y30923D01*
X108295Y30916D01*
X108348Y30915D01*
X108388Y30911D01*
X108415Y30907D01*
X108428Y30844D01*
X108527Y30696D01*
X108676Y30596D01*
X108852Y30561D01*
X110352D01*
X110527Y30596D01*
X110676Y30696D01*
X110775Y30844D01*
X110810Y31020D01*
Y31520D01*
X110775Y31696D01*
X110676Y31844D01*
X110527Y31944D01*
X110352Y31979D01*
D02*
G37*
G36*
X113850Y29439D02*
X112350D01*
X112174Y29404D01*
X112026Y29304D01*
X111956Y29200D01*
X111950Y29199D01*
X111913Y29193D01*
X111882Y29191D01*
X111826Y29214D01*
X111634D01*
X111456Y29140D01*
X111320Y29004D01*
X111246Y28826D01*
Y28634D01*
X111320Y28456D01*
X111456Y28320D01*
X111634Y28246D01*
X111826D01*
X111884Y28270D01*
X111911Y28267D01*
X111950Y28261D01*
X111956Y28260D01*
X112026Y28156D01*
X112174Y28056D01*
X112350Y28021D01*
X113850D01*
X114026Y28056D01*
X114174Y28156D01*
X114238Y28251D01*
X114254Y28255D01*
X114298Y28263D01*
X114366Y28269D01*
X114421Y28246D01*
X114613D01*
X114791Y28320D01*
X114927Y28456D01*
X115001Y28634D01*
Y28826D01*
X114927Y29004D01*
X114791Y29140D01*
X114613Y29214D01*
X114421D01*
X114362Y29190D01*
X114361Y29190D01*
X114300Y29197D01*
X114254Y29205D01*
X114238Y29209D01*
X114174Y29304D01*
X114026Y29404D01*
X113850Y29439D01*
D02*
G37*
G36*
X110352D02*
X108852D01*
X108676Y29404D01*
X108527Y29304D01*
X108428Y29156D01*
X108415Y29093D01*
X108388Y29089D01*
X108348Y29085D01*
X108295Y29084D01*
X108272Y29079D01*
X108266Y29080D01*
X108205Y29140D01*
X108028Y29214D01*
X107835D01*
X107657Y29140D01*
X107521Y29004D01*
X107447Y28826D01*
Y28634D01*
X107521Y28456D01*
X107657Y28320D01*
X107835Y28246D01*
X108028D01*
X108205Y28320D01*
X108266Y28381D01*
X108271Y28381D01*
X108295Y28376D01*
X108348Y28375D01*
X108388Y28371D01*
X108415Y28367D01*
X108428Y28304D01*
X108527Y28156D01*
X108676Y28056D01*
X108852Y28021D01*
X110352D01*
X110527Y28056D01*
X110676Y28156D01*
X110775Y28304D01*
X110810Y28480D01*
Y28980D01*
X110775Y29156D01*
X110676Y29304D01*
X110527Y29404D01*
X110352Y29439D01*
D02*
G37*
G36*
X113850Y26899D02*
X112350D01*
X112174Y26864D01*
X112026Y26764D01*
X111958Y26663D01*
X111949Y26661D01*
X111910Y26654D01*
X111867Y26651D01*
X111812Y26674D01*
X111620D01*
X111442Y26600D01*
X111305Y26464D01*
X111232Y26286D01*
Y26094D01*
X111305Y25916D01*
X111442Y25780D01*
X111620Y25706D01*
X111812D01*
X111870Y25730D01*
X111907Y25726D01*
X111949Y25719D01*
X111958Y25717D01*
X112026Y25616D01*
X112174Y25516D01*
X112350Y25481D01*
X113850D01*
X114026Y25516D01*
X114174Y25616D01*
X114238Y25711D01*
X114254Y25715D01*
X114298Y25723D01*
X114366Y25729D01*
X114421Y25706D01*
X114613D01*
X114791Y25780D01*
X114927Y25916D01*
X115001Y26094D01*
Y26286D01*
X114927Y26464D01*
X114791Y26600D01*
X114613Y26674D01*
X114421D01*
X114362Y26650D01*
X114361Y26650D01*
X114300Y26657D01*
X114254Y26665D01*
X114238Y26669D01*
X114174Y26764D01*
X114026Y26864D01*
X113850Y26899D01*
D02*
G37*
G36*
X110352Y26954D02*
X109729D01*
Y26317D01*
X110865D01*
Y26440D01*
X110826Y26637D01*
X110715Y26803D01*
X110548Y26915D01*
X110352Y26954D01*
D02*
G37*
G36*
X109475D02*
X108852D01*
X108655Y26915D01*
X108488Y26803D01*
X108377Y26637D01*
X108338Y26440D01*
Y26317D01*
X109475D01*
Y26954D01*
D02*
G37*
G36*
X110865Y26063D02*
X109729D01*
Y25426D01*
X110352D01*
X110548Y25465D01*
X110715Y25577D01*
X110826Y25743D01*
X110865Y25940D01*
Y26063D01*
D02*
G37*
G36*
X109475D02*
X108338D01*
Y25940D01*
X108377Y25743D01*
X108488Y25577D01*
X108655Y25465D01*
X108852Y25426D01*
X109475D01*
Y26063D01*
D02*
G37*
G36*
X113883Y16147D02*
X113839Y16147D01*
X112900D01*
X112841Y16088D01*
Y16005D01*
X112900Y15946D01*
X113839D01*
X113883Y15946D01*
X113942Y16005D01*
Y16088D01*
X113883Y16147D01*
D02*
G37*
G36*
X112115D02*
X112072Y16147D01*
X111132D01*
X111073Y16088D01*
Y16005D01*
X111132Y15946D01*
X112072D01*
X112115Y15946D01*
X112174Y16005D01*
Y16088D01*
X112115Y16147D01*
D02*
G37*
G36*
X101285Y18220D02*
X100965D01*
X100652Y18158D01*
X100358Y18036D01*
X100092Y17858D01*
X99867Y17633D01*
X99689Y17367D01*
X99567Y17073D01*
X99505Y16760D01*
Y16440D01*
X99567Y16127D01*
X99689Y15833D01*
X99867Y15567D01*
X100092Y15342D01*
X100358Y15164D01*
X100652Y15042D01*
X100965Y14980D01*
X101285D01*
X101598Y15042D01*
X101892Y15164D01*
X102158Y15342D01*
X102383Y15567D01*
X102561Y15833D01*
X102683Y16127D01*
X102745Y16440D01*
Y16760D01*
X102683Y17073D01*
X102561Y17367D01*
X102383Y17633D01*
X102158Y17858D01*
X101892Y18036D01*
X101598Y18158D01*
X101285Y18220D01*
D02*
G37*
G36*
X109736Y15244D02*
X109653D01*
X109594Y15186D01*
X109594Y15142D01*
Y14203D01*
X109653Y14144D01*
X109736D01*
X109795Y14203D01*
Y15142D01*
X109795Y15186D01*
X109736Y15244D01*
D02*
G37*
G36*
X109736Y13477D02*
X109653D01*
X109594Y13418D01*
X109594Y13374D01*
Y12435D01*
X109653Y12376D01*
X109736D01*
X109795Y12435D01*
Y13374D01*
X109795Y13418D01*
X109736Y13477D01*
D02*
G37*
G36*
X104554Y11404D02*
X104177D01*
Y11027D01*
X104554D01*
Y11061D01*
Y11404D01*
D02*
G37*
G36*
X103923D02*
X103546D01*
Y11027D01*
X103923D01*
Y11404D01*
D02*
G37*
%LPD*%
G36*
X112111Y33511D02*
X112108Y33539D01*
X112099Y33564D01*
X112083Y33587D01*
X112061Y33606D01*
X112033Y33623D01*
X111998Y33636D01*
X111958Y33647D01*
X111933Y33650D01*
X111931Y33649D01*
Y33651D01*
X111911Y33654D01*
X111858Y33659D01*
X111798Y33660D01*
Y33960D01*
X111858Y33961D01*
X111911Y33966D01*
X111931Y33969D01*
Y33971D01*
X111933Y33970D01*
X111958Y33973D01*
X111998Y33984D01*
X112033Y33997D01*
X112061Y34014D01*
X112083Y34033D01*
X112099Y34056D01*
X112108Y34081D01*
X112111Y34109D01*
Y33511D01*
D02*
G37*
G36*
X108074Y33969D02*
X108080Y33967D01*
X108089Y33965D01*
X108100Y33964D01*
X108129Y33962D01*
X108219Y33960D01*
Y33660D01*
X108193Y33660D01*
X108080Y33653D01*
X108074Y33651D01*
X108071Y33649D01*
Y33971D01*
X108074Y33969D01*
D02*
G37*
G36*
X108613Y33511D02*
X108610Y33539D01*
X108600Y33564D01*
X108585Y33587D01*
X108563Y33606D01*
X108535Y33623D01*
X108500Y33636D01*
X108459Y33647D01*
X108412Y33654D01*
X108359Y33659D01*
X108300Y33660D01*
Y33960D01*
X108359Y33961D01*
X108412Y33966D01*
X108459Y33973D01*
X108500Y33984D01*
X108535Y33997D01*
X108563Y34014D01*
X108585Y34033D01*
X108600Y34056D01*
X108610Y34081D01*
X108613Y34109D01*
Y33511D01*
D02*
G37*
G36*
X112111Y30971D02*
X112108Y30999D01*
X112099Y31024D01*
X112083Y31047D01*
X112061Y31066D01*
X112033Y31083D01*
X111998Y31096D01*
X111958Y31107D01*
X111916Y31113D01*
X111912Y31113D01*
X111906Y31111D01*
X111903Y31109D01*
Y31115D01*
X111858Y31119D01*
X111798Y31120D01*
Y31420D01*
X111858Y31421D01*
X111903Y31425D01*
Y31431D01*
X111906Y31429D01*
X111912Y31427D01*
X111915Y31427D01*
X111958Y31433D01*
X111998Y31444D01*
X112033Y31457D01*
X112061Y31474D01*
X112083Y31493D01*
X112099Y31516D01*
X112108Y31541D01*
X112111Y31569D01*
Y30971D01*
D02*
G37*
G36*
X108084Y31429D02*
X108090Y31427D01*
X108098Y31425D01*
X108109Y31424D01*
X108139Y31422D01*
X108228Y31420D01*
Y31120D01*
X108202Y31120D01*
X108090Y31113D01*
X108084Y31111D01*
X108080Y31109D01*
Y31431D01*
X108084Y31429D01*
D02*
G37*
G36*
X108613Y30971D02*
X108610Y30999D01*
X108600Y31024D01*
X108585Y31047D01*
X108563Y31066D01*
X108535Y31083D01*
X108500Y31096D01*
X108459Y31107D01*
X108412Y31114D01*
X108359Y31119D01*
X108300Y31120D01*
Y31420D01*
X108359Y31421D01*
X108412Y31426D01*
X108459Y31433D01*
X108500Y31444D01*
X108535Y31457D01*
X108563Y31474D01*
X108585Y31493D01*
X108600Y31516D01*
X108610Y31541D01*
X108613Y31569D01*
Y30971D01*
D02*
G37*
G36*
X112134Y28364D02*
X112130Y28386D01*
X112118Y28406D01*
X112098Y28423D01*
X112070Y28438D01*
X112033Y28451D01*
X111989Y28461D01*
X111936Y28470D01*
X111876Y28475D01*
X111730Y28480D01*
Y28980D01*
X111807Y28981D01*
X111936Y28990D01*
X111989Y28999D01*
X112033Y29009D01*
X112070Y29022D01*
X112098Y29037D01*
X112118Y29055D01*
X112130Y29074D01*
X112134Y29096D01*
Y28364D01*
D02*
G37*
G36*
X114039Y29112D02*
X114053Y29085D01*
X114078Y29060D01*
X114111Y29039D01*
X114155Y29021D01*
X114208Y29006D01*
X114271Y28995D01*
X114343Y28987D01*
X114425Y28982D01*
X114517Y28980D01*
Y28480D01*
X114425Y28478D01*
X114271Y28465D01*
X114208Y28454D01*
X114155Y28439D01*
X114111Y28421D01*
X114078Y28400D01*
X114053Y28375D01*
X114039Y28348D01*
X114034Y28317D01*
Y29143D01*
X114039Y29112D01*
D02*
G37*
G36*
X108099Y28889D02*
X108105Y28887D01*
X108113Y28885D01*
X108124Y28884D01*
X108154Y28882D01*
X108244Y28880D01*
Y28580D01*
X108217Y28580D01*
X108105Y28573D01*
X108099Y28571D01*
X108096Y28569D01*
Y28891D01*
X108099Y28889D01*
D02*
G37*
G36*
X108613Y28431D02*
X108610Y28459D01*
X108600Y28484D01*
X108585Y28507D01*
X108563Y28526D01*
X108535Y28543D01*
X108500Y28556D01*
X108459Y28567D01*
X108412Y28574D01*
X108359Y28579D01*
X108300Y28580D01*
Y28880D01*
X108359Y28881D01*
X108412Y28886D01*
X108459Y28893D01*
X108500Y28904D01*
X108535Y28917D01*
X108563Y28934D01*
X108585Y28953D01*
X108600Y28976D01*
X108610Y29001D01*
X108613Y29029D01*
Y28431D01*
D02*
G37*
G36*
X112144Y25809D02*
X112140Y25834D01*
X112127Y25856D01*
X112105Y25876D01*
X112075Y25893D01*
X112037Y25907D01*
X111990Y25919D01*
X111934Y25928D01*
X111870Y25935D01*
X111716Y25940D01*
Y26440D01*
X111797Y26441D01*
X111934Y26452D01*
X111990Y26461D01*
X112037Y26473D01*
X112075Y26487D01*
X112105Y26504D01*
X112127Y26524D01*
X112140Y26546D01*
X112144Y26571D01*
Y25809D01*
D02*
G37*
G36*
X114039Y26572D02*
X114053Y26545D01*
X114078Y26520D01*
X114111Y26499D01*
X114155Y26481D01*
X114208Y26466D01*
X114271Y26455D01*
X114343Y26447D01*
X114425Y26442D01*
X114517Y26440D01*
Y25940D01*
X114425Y25938D01*
X114271Y25925D01*
X114208Y25914D01*
X114155Y25899D01*
X114111Y25881D01*
X114078Y25860D01*
X114053Y25835D01*
X114039Y25808D01*
X114034Y25777D01*
Y26603D01*
X114039Y26572D01*
D02*
G37*
D14*
X76375Y38394D02*
D03*
X74125Y41594D02*
D03*
Y38394D02*
D03*
X76375Y41594D02*
D03*
D15*
X75250Y38394D02*
D03*
Y41594D02*
D03*
D16*
X63871Y41775D02*
D03*
X64771D02*
D03*
X64746Y38225D02*
D03*
X63846D02*
D03*
X72625Y38394D02*
D03*
X71725D02*
D03*
X72625Y41594D02*
D03*
X71725D02*
D03*
X75025Y36129D02*
D03*
X74125D02*
D03*
X75025Y34830D02*
D03*
X74125D02*
D03*
X77800D02*
D03*
X76800D02*
D03*
X78625Y64075D02*
D03*
X77625D02*
D03*
X68150Y62025D02*
D03*
X69150D02*
D03*
X84400Y39275D02*
D03*
X85300D02*
D03*
D17*
X66021Y40500D02*
D03*
Y39500D02*
D03*
Y42775D02*
D03*
Y41775D02*
D03*
Y38225D02*
D03*
Y37225D02*
D03*
X75250Y43500D02*
D03*
Y44500D02*
D03*
X82250Y40275D02*
D03*
Y39275D02*
D03*
X80150Y41594D02*
D03*
Y40694D02*
D03*
X77925Y38525D02*
D03*
Y39525D02*
D03*
X93550Y39275D02*
D03*
Y38375D02*
D03*
X95858Y40750D02*
D03*
Y39850D02*
D03*
X95858Y37800D02*
D03*
Y38700D02*
D03*
X104050Y10900D02*
D03*
Y10000D02*
D03*
Y49100D02*
D03*
Y50000D02*
D03*
D18*
X88325Y39275D02*
D03*
D19*
X89825Y40675D02*
D03*
Y37875D02*
D03*
D20*
X34651Y66190D02*
D03*
Y68730D02*
D03*
Y71270D02*
D03*
Y73810D02*
D03*
X38349Y66190D02*
D03*
Y68730D02*
D03*
Y71270D02*
D03*
Y73810D02*
D03*
X34651Y26190D02*
D03*
Y28730D02*
D03*
Y31270D02*
D03*
Y33810D02*
D03*
X38349Y26190D02*
D03*
Y28730D02*
D03*
Y31270D02*
D03*
Y33810D02*
D03*
D21*
X77800Y62650D02*
D03*
X79200D02*
D03*
X69150Y60625D02*
D03*
X67750D02*
D03*
D22*
X78154Y67742D02*
D03*
Y65892D02*
D03*
X67616Y65300D02*
D03*
Y63450D02*
D03*
D23*
X76341Y66542D02*
D03*
Y67742D02*
D03*
X69456Y64000D02*
D03*
Y65200D02*
D03*
D24*
X113100Y26190D02*
D03*
Y28730D02*
D03*
Y31270D02*
D03*
Y33810D02*
D03*
X109602D02*
D03*
Y31270D02*
D03*
Y28730D02*
D03*
Y26190D02*
D03*
X113100Y66710D02*
D03*
Y69250D02*
D03*
Y71790D02*
D03*
Y74330D02*
D03*
X109602D02*
D03*
Y71790D02*
D03*
Y69250D02*
D03*
Y66710D02*
D03*
D25*
X72725Y31250D02*
D03*
X75525D02*
D03*
X73825Y45500D02*
D03*
X71025D02*
D03*
D26*
X74125Y32750D02*
D03*
X72425Y44000D02*
D03*
D43*
X98398Y50000D02*
G03*
X95858Y47460I0J-2540D01*
G01*
X95858Y12540D02*
G03*
X98398Y10000I2540J0D01*
G01*
X98398Y50000D02*
X104050D01*
X112500D01*
X98398Y10000D02*
X104050D01*
X112500D01*
X95858Y40750D02*
Y47460D01*
X95858Y12540D02*
Y37800D01*
D44*
X57175Y44315D02*
G03*
X59715Y41775I2540J0D01*
G01*
X57175Y47460D02*
G03*
X54635Y50000I-2540J0D01*
G01*
X59715Y38225D02*
G03*
X57175Y35685I0J-2540D01*
G01*
X54635Y10000D02*
G03*
X57175Y12540I0J2540D01*
G01*
X95283Y39275D02*
Y39275D01*
X95858Y39850D01*
X95283Y39275D02*
X95858Y38700D01*
X93550Y39275D02*
X95283D01*
X57175Y44315D02*
Y47460D01*
X59715Y41775D02*
X63871D01*
X38000Y50000D02*
X54635D01*
X59715Y38225D02*
X63846D01*
X57175Y12540D02*
Y35685D01*
X38000Y10000D02*
X54635D01*
X66021Y41775D02*
X67738D01*
X64796D02*
X66021D01*
Y40500D02*
Y41775D01*
Y38225D02*
Y39500D01*
X67738Y41775D02*
X67900Y41613D01*
X64771Y38225D02*
X66021D01*
X69737Y41613D02*
X69750Y41600D01*
X67900Y41613D02*
X69737D01*
X67725Y38225D02*
X67900Y38400D01*
X66021Y38225D02*
X67725D01*
X67900Y38400D02*
X69750D01*
Y41600D02*
X71725Y41594D01*
X69750Y38400D02*
X71725Y38394D01*
X88325Y39275D02*
X93550D01*
X85300D02*
X88325D01*
X82250D02*
X84400D01*
X80150D02*
X82250D01*
X78775Y41594D02*
X80150D01*
X78775Y37225D02*
Y41369D01*
X77679Y36129D02*
X78775Y37225D01*
X75025Y36129D02*
X77679D01*
X80150Y36575D02*
Y39275D01*
X78405Y34830D02*
X80150Y36575D01*
X77800Y34830D02*
X78405D01*
X75025D02*
X76800D01*
X80150Y39275D02*
Y40694D01*
X76375Y41594D02*
X78550D01*
D45*
X69750Y41600D02*
D03*
X78775Y41594D02*
D03*
X69188Y73925D02*
D03*
X74594Y74715D02*
D03*
X76325Y64075D02*
D03*
X64471Y65200D02*
D03*
X70675Y62050D02*
D03*
X58375Y72775D02*
D03*
X80000D02*
D03*
X63781D02*
D03*
X80565Y67742D02*
D03*
X80150Y39275D02*
D03*
X69750Y38400D02*
D03*
X74050Y54826D02*
D03*
D46*
X38000Y53786D02*
D03*
Y46214D02*
D03*
Y6214D02*
D03*
Y13786D02*
D03*
X112500D02*
D03*
Y6214D02*
D03*
Y46214D02*
D03*
Y53786D02*
D03*
D47*
X39651Y50000D02*
D03*
Y10000D02*
D03*
X110849D02*
D03*
Y50000D02*
D03*
D48*
X100975Y63600D02*
Y67742D01*
Y62726D02*
Y63600D01*
Y67742D02*
X101850D01*
X50550D02*
X76341D01*
X45746D02*
X50550D01*
Y63050D02*
Y67742D01*
X40022Y66190D02*
X40890D01*
X38349D02*
X40022D01*
X65780Y65297D02*
X67416D01*
X65683Y65200D02*
X65780Y65297D01*
X44781Y67742D02*
X45746D01*
X50550Y62256D02*
Y63050D01*
X76341Y67742D02*
X78154D01*
X80565D02*
X100975D01*
X78154D02*
X80565D01*
X106990Y26190D02*
X109602D01*
X106975Y26175D02*
X106990Y26190D01*
X38349D02*
X40890D01*
X107035Y66710D02*
X109602D01*
X107025Y66700D02*
X107035Y66710D01*
X64471Y65200D02*
X65683D01*
D49*
X63782Y72776D02*
Y75334D01*
X63784Y75335D01*
X63781Y72775D02*
X63782Y72776D01*
X58398Y77655D02*
X113329D01*
X115400Y75584D01*
X37755Y77655D02*
X58398D01*
X35700Y75600D02*
X37755Y77655D01*
X58375Y72775D02*
Y75392D01*
X42284Y76050D02*
X79997D01*
X40044Y73810D02*
X42284Y76050D01*
X38300Y76825D02*
X109271D01*
X79997Y72775D02*
Y76050D01*
X106187D01*
X79997Y72775D02*
X80000D01*
X41939Y64147D02*
Y66811D01*
X40020Y68730D02*
X41939Y66811D01*
X104400Y61325D02*
X105577Y60148D01*
X109859Y74330D02*
X110202Y73988D01*
Y73348D02*
X111025Y72525D01*
X109602Y74330D02*
X109859D01*
X110202Y73348D02*
Y73988D01*
X111025Y64700D02*
Y72525D01*
X107000Y60675D02*
X111025Y64700D01*
X113100Y71790D02*
X114590D01*
X111739D02*
X113100D01*
X105750Y62350D02*
Y67069D01*
X107931Y69250D01*
X104400Y61325D02*
Y68274D01*
X107916Y71790D01*
Y31270D02*
X109602D01*
X107907Y33810D02*
X109602D01*
X38349Y28730D02*
X40020D01*
X111766Y33810D02*
X113100D01*
X113300D01*
X113100Y31270D02*
X113300D01*
X111739D02*
X113100D01*
X107931Y69250D02*
X109602D01*
X43275Y60361D02*
Y70579D01*
X42625Y62109D02*
Y68680D01*
X106187Y76050D02*
X107907Y74330D01*
X33350Y75600D02*
X35700D01*
X36184Y73810D02*
Y74709D01*
X38300Y76825D01*
X113100Y74330D02*
X113300D01*
X111766D02*
X113100D01*
X109271Y76825D02*
X111766Y74330D01*
X107907D02*
X109602D01*
X114590Y71790D02*
X115400Y72600D01*
Y75584D01*
X32525Y74775D02*
X33350Y75600D01*
X32525Y71700D02*
Y74775D01*
Y71700D02*
X32955Y71270D01*
X34651D01*
X40035D02*
X42625Y68680D01*
X40044Y73810D02*
X43275Y70579D01*
X38349Y71270D02*
X40035D01*
X38349Y33810D02*
X40044D01*
X34651D02*
X36184D01*
X107931Y28730D02*
X109602D01*
X107916Y71790D02*
X109602D01*
X38349Y68730D02*
X40020D01*
X38349Y73810D02*
X40044D01*
X34651D02*
X36184D01*
X34651Y71270D02*
X36212D01*
X34651Y31270D02*
X36212D01*
X38349D02*
X40035D01*
X75250Y37100D02*
Y38394D01*
D50*
X67841Y63450D02*
X68066Y63675D01*
Y64211D01*
X68071Y64216D01*
X67171Y63675D02*
Y64216D01*
X104050Y10900D02*
Y11475D01*
X40890Y26190D02*
X40899Y26199D01*
X67171Y63675D02*
X67396Y63450D01*
X78625Y64075D02*
X79225D01*
X67396Y63450D02*
X67841D01*
X70521Y60625D02*
X70596Y60700D01*
X66996Y60625D02*
X67750D01*
X67571Y62025D02*
X67571Y62025D01*
X67750Y60625D02*
X67750Y60625D01*
X67571Y62025D02*
X68150D01*
X69150Y60625D02*
X70521D01*
X74100Y45776D02*
X74684D01*
X76050Y56361D02*
X77800Y58111D01*
Y62650D01*
X75250Y44500D02*
Y45100D01*
X77925Y39525D02*
Y40125D01*
X73825Y45500D02*
Y45501D01*
X74100Y45776D01*
X70200Y45598D02*
X70927D01*
X71025Y45500D01*
X70650Y62025D02*
X70675Y62050D01*
X69150Y62025D02*
X70650D01*
X69150Y60625D02*
Y62025D01*
Y62825D01*
X69456Y63131D01*
Y64000D01*
X67666Y65250D02*
X69406D01*
X69456Y65200D01*
X67616Y65300D02*
X67666Y65250D01*
X77625Y62825D02*
X77800Y62650D01*
X77625Y62825D02*
Y64075D01*
X76325D02*
X77625D01*
X76333Y64083D02*
Y66534D01*
X76341Y66542D01*
X76325Y64075D02*
X76333Y64083D01*
X78575Y66117D02*
Y66650D01*
X78154Y65892D02*
X78350D01*
X78575Y66117D01*
X77725D02*
X77950Y65892D01*
X78154D01*
X77725Y66117D02*
Y66650D01*
X79200Y62650D02*
X79975D01*
X74125Y36129D02*
Y38394D01*
Y32750D02*
Y36129D01*
X111730Y69250D02*
X113100D01*
X111716Y66710D02*
X113100D01*
X114530D01*
X113100Y69250D02*
X114530D01*
X113100Y26190D02*
X114517D01*
X111716D02*
X113100D01*
Y28730D02*
X114517D01*
X111730D02*
X113100D01*
X34651Y26190D02*
X36235D01*
X33010D02*
X34651D01*
Y28730D02*
X36221D01*
X33010D02*
X34651D01*
Y66190D02*
X36235D01*
X33010D02*
X34651D01*
Y68730D02*
X36221D01*
X33010D02*
X34651D01*
X75250Y42875D02*
Y43500D01*
X75250Y43500D02*
X75250Y43500D01*
X76506Y38525D02*
X77925D01*
Y37925D02*
Y38525D01*
X72425Y44000D02*
X72625Y43750D01*
Y41594D02*
Y43750D01*
X73875Y38394D02*
X74125Y38394D01*
X72625Y38394D02*
X73875D01*
Y41594D02*
X74125Y41594D01*
X72625Y41594D02*
X73875D01*
X93550Y37800D02*
Y38375D01*
X89825Y37051D02*
Y37875D01*
Y40675D02*
Y41494D01*
X82250Y40275D02*
Y40875D01*
X78550Y41594D02*
X78775Y41369D01*
X78550Y41594D02*
X78775D01*
X76375Y38394D02*
X76506Y38525D01*
X80150Y39275D02*
X80150Y39275D01*
X75525Y31250D02*
X76347D01*
X71913D02*
X72725D01*
X75250Y41594D02*
Y42875D01*
D51*
X56252Y44460D02*
D03*
X56530Y42986D02*
D03*
X56252Y45960D02*
D03*
X56735Y37428D02*
D03*
X52446Y50923D02*
D03*
Y49077D02*
D03*
X78565Y42811D02*
D03*
X77057Y43332D02*
D03*
X54454Y49077D02*
D03*
Y50923D02*
D03*
X49546Y49077D02*
D03*
X51554Y50923D02*
D03*
X49546D02*
D03*
X51554Y49077D02*
D03*
X48117Y50923D02*
D03*
X48088Y49077D02*
D03*
X45219Y51140D02*
D03*
Y48848D02*
D03*
X43844Y51907D02*
D03*
X62142Y39148D02*
D03*
X60642D02*
D03*
X59143Y39093D02*
D03*
X57753Y38530D02*
D03*
X56278Y35999D02*
D03*
X56252Y34500D02*
D03*
Y33000D02*
D03*
Y31500D02*
D03*
Y30000D02*
D03*
Y28500D02*
D03*
Y27000D02*
D03*
Y25500D02*
D03*
Y24000D02*
D03*
Y22500D02*
D03*
Y21000D02*
D03*
Y19500D02*
D03*
Y18000D02*
D03*
Y16500D02*
D03*
Y15000D02*
D03*
Y13500D02*
D03*
X56161Y12002D02*
D03*
X55062Y10981D02*
D03*
X53563Y10923D02*
D03*
X52063D02*
D03*
X50563D02*
D03*
X49063D02*
D03*
X47563D02*
D03*
X46063D02*
D03*
X44653Y11435D02*
D03*
X43230Y11908D02*
D03*
X41730D02*
D03*
X41556Y8092D02*
D03*
X43056Y8092D02*
D03*
X44514Y8444D02*
D03*
X45874Y9077D02*
D03*
X47374Y9077D02*
D03*
X48874D02*
D03*
X50374D02*
D03*
X51874D02*
D03*
X53374D02*
D03*
X54874Y9097D02*
D03*
X56313Y9521D02*
D03*
X57435Y10516D02*
D03*
X58029Y11894D02*
D03*
X58098Y13392D02*
D03*
Y14892D02*
D03*
Y16392D02*
D03*
Y17892D02*
D03*
Y19392D02*
D03*
Y20892D02*
D03*
Y22392D02*
D03*
Y23892D02*
D03*
Y25392D02*
D03*
Y26892D02*
D03*
Y28392D02*
D03*
Y29892D02*
D03*
Y31392D02*
D03*
Y32892D02*
D03*
Y34392D02*
D03*
X58111Y35892D02*
D03*
X58972Y37120D02*
D03*
X60461Y37302D02*
D03*
X61961D02*
D03*
X63459Y37228D02*
D03*
X64294Y39213D02*
D03*
X42162Y51908D02*
D03*
X42309Y48092D02*
D03*
X43809D02*
D03*
X46588Y49077D02*
D03*
X55560Y48791D02*
D03*
X56252Y47460D02*
D03*
X57393Y41760D02*
D03*
X58694Y41012D02*
D03*
X60185Y40852D02*
D03*
X61685D02*
D03*
X63185D02*
D03*
X64677Y41005D02*
D03*
X63221Y42698D02*
D03*
X61721D02*
D03*
X60221D02*
D03*
X58754Y43013D02*
D03*
X58098Y44362D02*
D03*
Y45862D02*
D03*
Y47362D02*
D03*
X57802Y48832D02*
D03*
X56921Y50046D02*
D03*
X55610Y50775D02*
D03*
X46617Y50923D02*
D03*
X94432Y40595D02*
D03*
X92981Y40214D02*
D03*
X91481Y40198D02*
D03*
X87060D02*
D03*
X85562Y40288D02*
D03*
X86626Y38352D02*
D03*
X88087Y38010D02*
D03*
X92547Y38352D02*
D03*
X96855Y38426D02*
D03*
X81164Y41703D02*
D03*
X79969Y42609D02*
D03*
X78058Y33817D02*
D03*
X79389Y34508D02*
D03*
X80450Y35569D02*
D03*
X81073Y36933D02*
D03*
X81561Y38352D02*
D03*
X83061D02*
D03*
X84558Y38260D02*
D03*
X84143Y40289D02*
D03*
X81144Y40285D02*
D03*
X67230Y37302D02*
D03*
X68720Y37477D02*
D03*
X70195Y37207D02*
D03*
X71685Y37379D02*
D03*
X71588Y39409D02*
D03*
X70103Y39618D02*
D03*
X68632Y39323D02*
D03*
X67142Y39148D02*
D03*
X68227Y42552D02*
D03*
X65235Y42757D02*
D03*
X65210Y39736D02*
D03*
X67747Y40710D02*
D03*
X69222Y40441D02*
D03*
X70704Y40674D02*
D03*
X72203Y40618D02*
D03*
X71324Y42589D02*
D03*
X69849Y42863D02*
D03*
D52*
X40022Y66190D02*
D03*
X40890D02*
D03*
X63784Y75335D02*
D03*
X67171Y64216D02*
D03*
X80565Y67742D02*
D03*
X104050Y11475D02*
D03*
X58398Y77655D02*
D03*
X58375Y75392D02*
D03*
Y72775D02*
D03*
X63784Y76825D02*
D03*
X63781Y72775D02*
D03*
X79997D02*
D03*
X69188Y73925D02*
D03*
X74594Y74715D02*
D03*
X112500Y46214D02*
D03*
X111616Y47097D02*
D03*
X113384D02*
D03*
X113384Y45330D02*
D03*
X111616D02*
D03*
X112500Y53786D02*
D03*
X111616Y54670D02*
D03*
X113384D02*
D03*
X113384Y52903D02*
D03*
X111616D02*
D03*
X38000Y46214D02*
D03*
X37116Y47097D02*
D03*
X38884D02*
D03*
X38884Y45330D02*
D03*
X37116D02*
D03*
X38000Y53786D02*
D03*
X37116Y54670D02*
D03*
X38884D02*
D03*
X38884Y52903D02*
D03*
X37116D02*
D03*
X112500Y13786D02*
D03*
X111616Y14670D02*
D03*
X113384D02*
D03*
X113384Y12903D02*
D03*
X111616D02*
D03*
X112500Y6214D02*
D03*
X111616Y7097D02*
D03*
X113384D02*
D03*
X113384Y5330D02*
D03*
X111616D02*
D03*
X38000Y6214D02*
D03*
X37116Y7097D02*
D03*
X38884D02*
D03*
X38884Y5330D02*
D03*
X37116D02*
D03*
X38000Y13786D02*
D03*
X37116Y14670D02*
D03*
X38884D02*
D03*
X38884Y12903D02*
D03*
X37116D02*
D03*
X45746Y67742D02*
D03*
X44781D02*
D03*
X50550Y62256D02*
D03*
X100975Y62726D02*
D03*
X106975Y26175D02*
D03*
X40899Y26199D02*
D03*
X107025Y66700D02*
D03*
X68071Y64216D02*
D03*
X79225Y64075D02*
D03*
X65700Y65217D02*
D03*
X64471Y65200D02*
D03*
X70596Y60700D02*
D03*
X67571Y62025D02*
D03*
X66996Y60625D02*
D03*
X74684Y45776D02*
D03*
X76050Y56361D02*
D03*
X75250Y45100D02*
D03*
X77925Y40125D02*
D03*
X70200Y45598D02*
D03*
X78575Y66650D02*
D03*
X77725D02*
D03*
X79975Y62650D02*
D03*
X101850Y67742D02*
D03*
X100975D02*
D03*
X107929Y66710D02*
D03*
X100975Y63600D02*
D03*
X50550Y63050D02*
D03*
X41939Y64147D02*
D03*
X98023Y50903D02*
D03*
Y49097D02*
D03*
X101959D02*
D03*
X99991D02*
D03*
Y50903D02*
D03*
X101959D02*
D03*
X103234Y49097D02*
D03*
Y50903D02*
D03*
X104532Y50953D02*
D03*
X105824Y51456D02*
D03*
X105577Y60148D02*
D03*
X105803Y48623D02*
D03*
X107171Y48113D02*
D03*
X107297Y51887D02*
D03*
X108275D02*
D03*
X108591Y48113D02*
D03*
X97248Y50697D02*
D03*
X96006Y49929D02*
D03*
X95202Y48710D02*
D03*
X94955Y47271D02*
D03*
Y45811D02*
D03*
Y44351D02*
D03*
Y42891D02*
D03*
Y41431D02*
D03*
X96765Y41341D02*
D03*
X96761Y42801D02*
D03*
Y44261D02*
D03*
Y45721D02*
D03*
Y47181D02*
D03*
X97196Y48575D02*
D03*
X94955Y36833D02*
D03*
Y35373D02*
D03*
Y33913D02*
D03*
Y32453D02*
D03*
Y30993D02*
D03*
Y29533D02*
D03*
Y28073D02*
D03*
Y26613D02*
D03*
Y25153D02*
D03*
Y23693D02*
D03*
Y22233D02*
D03*
Y20773D02*
D03*
Y19313D02*
D03*
Y17853D02*
D03*
Y16393D02*
D03*
Y14933D02*
D03*
Y13473D02*
D03*
X95004Y12014D02*
D03*
X95531Y10652D02*
D03*
X96576Y9633D02*
D03*
X97948Y9134D02*
D03*
X99408Y9097D02*
D03*
X100868D02*
D03*
X102327D02*
D03*
X103785Y9008D02*
D03*
X105243Y8938D02*
D03*
X106464Y8138D02*
D03*
X107924Y8113D02*
D03*
X109384Y8113D02*
D03*
X108829Y11887D02*
D03*
X107369D02*
D03*
X105960Y11506D02*
D03*
X103165Y10903D02*
D03*
X101705D02*
D03*
X100245D02*
D03*
X98785D02*
D03*
X97371Y11266D02*
D03*
X96761Y12592D02*
D03*
Y14052D02*
D03*
Y15512D02*
D03*
Y16972D02*
D03*
Y18432D02*
D03*
Y19892D02*
D03*
Y21352D02*
D03*
Y22812D02*
D03*
Y24272D02*
D03*
Y25732D02*
D03*
Y27192D02*
D03*
Y28652D02*
D03*
Y30112D02*
D03*
Y31572D02*
D03*
Y33032D02*
D03*
Y34492D02*
D03*
Y35952D02*
D03*
X96834Y37410D02*
D03*
X77125Y36975D02*
D03*
X111716Y66710D02*
D03*
X111739Y71790D02*
D03*
X111730Y69250D02*
D03*
X107000Y60675D02*
D03*
X105750Y62350D02*
D03*
X107916Y31270D02*
D03*
X107907Y33810D02*
D03*
X40020Y28730D02*
D03*
X107929Y26190D02*
D03*
X111766Y33810D02*
D03*
X114530Y66710D02*
D03*
Y69250D02*
D03*
X107931D02*
D03*
X43275Y60361D02*
D03*
X42625Y62109D02*
D03*
X114517Y26190D02*
D03*
Y28730D02*
D03*
X40035Y71270D02*
D03*
X33010Y68730D02*
D03*
Y66190D02*
D03*
X40044Y33810D02*
D03*
X36184D02*
D03*
X36235Y66190D02*
D03*
X107931Y28730D02*
D03*
X111716Y26190D02*
D03*
X111739Y31270D02*
D03*
X111730Y28730D02*
D03*
X107916Y71790D02*
D03*
X111766Y74330D02*
D03*
X40020Y68730D02*
D03*
X36184Y73810D02*
D03*
X36212Y71270D02*
D03*
X36221Y68730D02*
D03*
X33010Y28730D02*
D03*
Y26190D02*
D03*
X36221Y28730D02*
D03*
X36212Y31270D02*
D03*
X36235Y26190D02*
D03*
X40035Y31270D02*
D03*
X40022Y26190D02*
D03*
X75250Y42875D02*
D03*
X77925Y37925D02*
D03*
X93550Y37800D02*
D03*
X89825Y37051D02*
D03*
Y41494D02*
D03*
X82250Y40875D02*
D03*
X75250Y37100D02*
D03*
X76347Y31250D02*
D03*
X71913D02*
D03*
X74050Y54826D02*
D03*
M02*
